{
  "header": {
    "keySignatures": [
      {
        "key": "F",
        "scale": "major",
        "ticks": 0
      },
      {
        "key": "F",
        "scale": "major",
        "ticks": 0
      }
    ],
    "meta": [],
    "name": "unbenannt1\u0000",
    "ppq": 480,
    "tempos": [
      {
        "bpm": 60,
        "ticks": 0
      },
      {
        "bpm": 104.99992125005906,
        "ticks": 151680
      }
    ],
    "timeSignatures": [
      {
        "ticks": 0,
        "timeSignature": [2, 4],
        "measures": 0
      },
      {
        "ticks": 960,
        "timeSignature": [4, 4],
        "measures": 1
      },
      {
        "ticks": 150720,
        "timeSignature": [2, 4],
        "measures": 79
      },
      {
        "ticks": 151680,
        "timeSignature": [2, 4],
        "measures": 80
      },
      {
        "ticks": 152640,
        "timeSignature": [3, 4],
        "measures": 81
      },
      {
        "ticks": 383040,
        "timeSignature": [2, 4],
        "measures": 241
      }
    ]
  },
  "tracks": [
    {
      "channel": 0,
      "controlChanges": {
        "7": [
          {
            "number": 7,
            "ticks": 0,
            "time": 0,
            "value": 0.7874015748031497
          }
        ],
        "10": [
          {
            "number": 10,
            "ticks": 0,
            "time": 0,
            "value": 0.5039370078740157
          }
        ],
        "91": [
          {
            "number": 91,
            "ticks": 0,
            "time": 0,
            "value": 0
          }
        ],
        "93": [
          {
            "number": 93,
            "ticks": 0,
            "time": 0,
            "value": 0
          }
        ],
        "121": [
          {
            "number": 121,
            "ticks": 0,
            "time": 0,
            "value": 0
          }
        ]
      },
      "pitchBends": [],
      "instrument": {
        "family": "piano",
        "name": "acoustic grand piano",
        "number": 0
      },
      "name": "unbenannt1\u0000",
      "notes": [
        {
          "duration": 0.11666666666666667,
          "durationTicks": 56,
          "midi": 62,
          "name": "D4",
          "ticks": 60,
          "time": 0.125,
          "velocity": 0.5905511811023622
        },
        {
          "duration": 0.11666666666666664,
          "durationTicks": 56,
          "midi": 64,
          "name": "E4",
          "ticks": 120,
          "time": 0.25,
          "velocity": 0.5905511811023622
        },
        {
          "duration": 0.11666666666666664,
          "durationTicks": 56,
          "midi": 65,
          "name": "F4",
          "ticks": 180,
          "time": 0.375,
          "velocity": 0.5905511811023622
        },
        {
          "duration": 0.1166666666666667,
          "durationTicks": 56,
          "midi": 67,
          "name": "G4",
          "ticks": 240,
          "time": 0.5,
          "velocity": 0.5905511811023622
        },
        {
          "duration": 0.1166666666666667,
          "durationTicks": 56,
          "midi": 69,
          "name": "A4",
          "ticks": 300,
          "time": 0.625,
          "velocity": 0.5905511811023622
        },
        {
          "duration": 0.1166666666666667,
          "durationTicks": 56,
          "midi": 71,
          "name": "B4",
          "ticks": 360,
          "time": 0.75,
          "velocity": 0.5905511811023622
        },
        {
          "duration": 0.1166666666666667,
          "durationTicks": 56,
          "midi": 73,
          "name": "C#5",
          "ticks": 420,
          "time": 0.875,
          "velocity": 0.5905511811023622
        },
        {
          "duration": 0.1166666666666667,
          "durationTicks": 56,
          "midi": 74,
          "name": "D5",
          "ticks": 480,
          "time": 1,
          "velocity": 0.5905511811023622
        },
        {
          "duration": 0.1166666666666667,
          "durationTicks": 56,
          "midi": 72,
          "name": "C5",
          "ticks": 540,
          "time": 1.125,
          "velocity": 0.5905511811023622
        },
        {
          "duration": 0.1166666666666667,
          "durationTicks": 56,
          "midi": 70,
          "name": "A#4",
          "ticks": 600,
          "time": 1.25,
          "velocity": 0.5905511811023622
        },
        {
          "duration": 0.1166666666666667,
          "durationTicks": 56,
          "midi": 69,
          "name": "A4",
          "ticks": 660,
          "time": 1.375,
          "velocity": 0.5905511811023622
        },
        {
          "duration": 0.1166666666666667,
          "durationTicks": 56,
          "midi": 67,
          "name": "G4",
          "ticks": 720,
          "time": 1.5,
          "velocity": 0.5905511811023622
        },
        {
          "duration": 0.1166666666666667,
          "durationTicks": 56,
          "midi": 65,
          "name": "F4",
          "ticks": 780,
          "time": 1.625,
          "velocity": 0.5905511811023622
        },
        {
          "duration": 0.1166666666666667,
          "durationTicks": 56,
          "midi": 64,
          "name": "E4",
          "ticks": 840,
          "time": 1.75,
          "velocity": 0.5905511811023622
        },
        {
          "duration": 0.1166666666666667,
          "durationTicks": 56,
          "midi": 62,
          "name": "D4",
          "ticks": 900,
          "time": 1.875,
          "velocity": 0.5905511811023622
        },
        {
          "duration": 0.1166666666666667,
          "durationTicks": 56,
          "midi": 61,
          "name": "C#4",
          "ticks": 960,
          "time": 2,
          "velocity": 0.5905511811023622
        },
        {
          "duration": 0.1166666666666667,
          "durationTicks": 56,
          "midi": 62,
          "name": "D4",
          "ticks": 1020,
          "time": 2.125,
          "velocity": 0.5905511811023622
        },
        {
          "duration": 0.1166666666666667,
          "durationTicks": 56,
          "midi": 64,
          "name": "E4",
          "ticks": 1080,
          "time": 2.25,
          "velocity": 0.5905511811023622
        },
        {
          "duration": 0.1166666666666667,
          "durationTicks": 56,
          "midi": 65,
          "name": "F4",
          "ticks": 1140,
          "time": 2.375,
          "velocity": 0.5905511811023622
        },
        {
          "duration": 0.1166666666666667,
          "durationTicks": 56,
          "midi": 67,
          "name": "G4",
          "ticks": 1200,
          "time": 2.5,
          "velocity": 0.5905511811023622
        },
        {
          "duration": 0.1166666666666667,
          "durationTicks": 56,
          "midi": 69,
          "name": "A4",
          "ticks": 1260,
          "time": 2.625,
          "velocity": 0.5905511811023622
        },
        {
          "duration": 0.1166666666666667,
          "durationTicks": 56,
          "midi": 70,
          "name": "A#4",
          "ticks": 1320,
          "time": 2.75,
          "velocity": 0.5905511811023622
        },
        {
          "duration": 0.1166666666666667,
          "durationTicks": 56,
          "midi": 76,
          "name": "E5",
          "ticks": 1380,
          "time": 2.875,
          "velocity": 0.5905511811023622
        },
        {
          "duration": 0.11666666666666625,
          "durationTicks": 56,
          "midi": 69,
          "name": "A4",
          "ticks": 2040,
          "time": 4.25,
          "velocity": 0.5905511811023622
        },
        {
          "duration": 0.11666666666666625,
          "durationTicks": 56,
          "midi": 71,
          "name": "B4",
          "ticks": 2100,
          "time": 4.375,
          "velocity": 0.5905511811023622
        },
        {
          "duration": 0.11666666666666625,
          "durationTicks": 56,
          "midi": 73,
          "name": "C#5",
          "ticks": 2160,
          "time": 4.5,
          "velocity": 0.5905511811023622
        },
        {
          "duration": 0.11666666666666625,
          "durationTicks": 56,
          "midi": 74,
          "name": "D5",
          "ticks": 2220,
          "time": 4.625,
          "velocity": 0.5905511811023622
        },
        {
          "duration": 0.11666666666666625,
          "durationTicks": 56,
          "midi": 76,
          "name": "E5",
          "ticks": 2280,
          "time": 4.75,
          "velocity": 0.5905511811023622
        },
        {
          "duration": 0.11666666666666625,
          "durationTicks": 56,
          "midi": 77,
          "name": "F5",
          "ticks": 2340,
          "time": 4.875,
          "velocity": 0.5905511811023622
        },
        {
          "duration": 0.11666666666666625,
          "durationTicks": 56,
          "midi": 79,
          "name": "G5",
          "ticks": 2400,
          "time": 5,
          "velocity": 0.5905511811023622
        },
        {
          "duration": 0.11666666666666625,
          "durationTicks": 56,
          "midi": 77,
          "name": "F5",
          "ticks": 2460,
          "time": 5.125,
          "velocity": 0.5905511811023622
        },
        {
          "duration": 0.11666666666666625,
          "durationTicks": 56,
          "midi": 76,
          "name": "E5",
          "ticks": 2520,
          "time": 5.25,
          "velocity": 0.5905511811023622
        },
        {
          "duration": 0.11666666666666625,
          "durationTicks": 56,
          "midi": 74,
          "name": "D5",
          "ticks": 2580,
          "time": 5.375,
          "velocity": 0.5905511811023622
        },
        {
          "duration": 0.11666666666666625,
          "durationTicks": 56,
          "midi": 73,
          "name": "C#5",
          "ticks": 2640,
          "time": 5.5,
          "velocity": 0.5905511811023622
        },
        {
          "duration": 0.11666666666666625,
          "durationTicks": 56,
          "midi": 71,
          "name": "B4",
          "ticks": 2700,
          "time": 5.625,
          "velocity": 0.5905511811023622
        },
        {
          "duration": 0.056250000000000355,
          "durationTicks": 27,
          "midi": 69,
          "name": "A4",
          "ticks": 2760,
          "time": 5.75,
          "velocity": 0.5905511811023622
        },
        {
          "duration": 0.056250000000000355,
          "durationTicks": 27,
          "midi": 67,
          "name": "G4",
          "ticks": 2790,
          "time": 5.8125,
          "velocity": 0.5905511811023622
        },
        {
          "duration": 0.056250000000000355,
          "durationTicks": 27,
          "midi": 65,
          "name": "F4",
          "ticks": 2820,
          "time": 5.875,
          "velocity": 0.5905511811023622
        },
        {
          "duration": 0.056250000000000355,
          "durationTicks": 27,
          "midi": 64,
          "name": "E4",
          "ticks": 2850,
          "time": 5.9375,
          "velocity": 0.5905511811023622
        },
        {
          "duration": 0.11666666666666625,
          "durationTicks": 56,
          "midi": 62,
          "name": "D4",
          "ticks": 2880,
          "time": 6,
          "velocity": 0.5905511811023622
        },
        {
          "duration": 0.11666666666666625,
          "durationTicks": 56,
          "midi": 64,
          "name": "E4",
          "ticks": 2940,
          "time": 6.125,
          "velocity": 0.5905511811023622
        },
        {
          "duration": 0.11666666666666625,
          "durationTicks": 56,
          "midi": 65,
          "name": "F4",
          "ticks": 3000,
          "time": 6.25,
          "velocity": 0.5905511811023622
        },
        {
          "duration": 0.11666666666666625,
          "durationTicks": 56,
          "midi": 69,
          "name": "A4",
          "ticks": 3060,
          "time": 6.375,
          "velocity": 0.5905511811023622
        },
        {
          "duration": 0.11666666666666625,
          "durationTicks": 56,
          "midi": 73,
          "name": "C#5",
          "ticks": 3120,
          "time": 6.5,
          "velocity": 0.5905511811023622
        },
        {
          "duration": 0.11666666666666625,
          "durationTicks": 56,
          "midi": 74,
          "name": "D5",
          "ticks": 3180,
          "time": 6.625,
          "velocity": 0.5905511811023622
        },
        {
          "duration": 0.2354166666666666,
          "durationTicks": 113,
          "midi": 77,
          "name": "F5",
          "ticks": 3240,
          "time": 6.75,
          "velocity": 0.5905511811023622
        },
        {
          "duration": 0.47291666666666643,
          "durationTicks": 227,
          "midi": 62,
          "name": "D4",
          "ticks": 3840,
          "time": 8,
          "velocity": 0.5905511811023622
        },
        {
          "duration": 0.15625,
          "durationTicks": 75,
          "midi": 74,
          "name": "D5",
          "ticks": 3920,
          "time": 8.166666666666666,
          "velocity": 0.5905511811023622
        },
        {
          "duration": 0.15625,
          "durationTicks": 75,
          "midi": 77,
          "name": "F5",
          "ticks": 4000,
          "time": 8.333333333333334,
          "velocity": 0.5905511811023622
        },
        {
          "duration": 0.47291666666666643,
          "durationTicks": 227,
          "midi": 64,
          "name": "E4",
          "ticks": 4080,
          "time": 8.5,
          "velocity": 0.5905511811023622
        },
        {
          "duration": 0.15625,
          "durationTicks": 75,
          "midi": 74,
          "name": "D5",
          "ticks": 4160,
          "time": 8.666666666666666,
          "velocity": 0.5905511811023622
        },
        {
          "duration": 0.15625,
          "durationTicks": 75,
          "midi": 79,
          "name": "G5",
          "ticks": 4240,
          "time": 8.833333333333334,
          "velocity": 0.5905511811023622
        },
        {
          "duration": 0.47291666666666643,
          "durationTicks": 227,
          "midi": 65,
          "name": "F4",
          "ticks": 4320,
          "time": 9,
          "velocity": 0.5905511811023622
        },
        {
          "duration": 0.15625,
          "durationTicks": 75,
          "midi": 74,
          "name": "D5",
          "ticks": 4400,
          "time": 9.166666666666666,
          "velocity": 0.5905511811023622
        },
        {
          "duration": 0.15625,
          "durationTicks": 75,
          "midi": 81,
          "name": "A5",
          "ticks": 4480,
          "time": 9.333333333333334,
          "velocity": 0.5905511811023622
        },
        {
          "duration": 0.47291666666666643,
          "durationTicks": 227,
          "midi": 67,
          "name": "G4",
          "ticks": 4560,
          "time": 9.5,
          "velocity": 0.5905511811023622
        },
        {
          "duration": 0.15625,
          "durationTicks": 75,
          "midi": 74,
          "name": "D5",
          "ticks": 4640,
          "time": 9.666666666666666,
          "velocity": 0.5905511811023622
        },
        {
          "duration": 0.15625,
          "durationTicks": 75,
          "midi": 82,
          "name": "A#5",
          "ticks": 4720,
          "time": 9.833333333333334,
          "velocity": 0.5905511811023622
        },
        {
          "duration": 0.2354166666666675,
          "durationTicks": 113,
          "midi": 69,
          "name": "A4",
          "ticks": 4800,
          "time": 10,
          "velocity": 0.5905511811023622
        },
        {
          "duration": 0.15625,
          "durationTicks": 75,
          "midi": 73,
          "name": "C#5",
          "ticks": 4880,
          "time": 10.166666666666666,
          "velocity": 0.5905511811023622
        },
        {
          "duration": 0.15625,
          "durationTicks": 75,
          "midi": 76,
          "name": "E5",
          "ticks": 4960,
          "time": 10.333333333333334,
          "velocity": 0.5905511811023622
        },
        {
          "duration": 0.15625,
          "durationTicks": 75,
          "midi": 79,
          "name": "G5",
          "ticks": 5040,
          "time": 10.5,
          "velocity": 0.5905511811023622
        },
        {
          "duration": 0.15625,
          "durationTicks": 75,
          "midi": 82,
          "name": "A#5",
          "ticks": 5120,
          "time": 10.666666666666666,
          "velocity": 0.5905511811023622
        },
        {
          "duration": 0.15625,
          "durationTicks": 75,
          "midi": 79,
          "name": "G5",
          "ticks": 5200,
          "time": 10.833333333333334,
          "velocity": 0.5905511811023622
        },
        {
          "duration": 0.15625,
          "durationTicks": 75,
          "midi": 76,
          "name": "E5",
          "ticks": 5280,
          "time": 11,
          "velocity": 0.5905511811023622
        },
        {
          "duration": 0.15625,
          "durationTicks": 75,
          "midi": 73,
          "name": "C#5",
          "ticks": 5360,
          "time": 11.166666666666666,
          "velocity": 0.5905511811023622
        },
        {
          "duration": 0.15625,
          "durationTicks": 75,
          "midi": 69,
          "name": "A4",
          "ticks": 5440,
          "time": 11.333333333333334,
          "velocity": 0.5905511811023622
        },
        {
          "duration": 0.15625,
          "durationTicks": 75,
          "midi": 67,
          "name": "G4",
          "ticks": 5520,
          "time": 11.5,
          "velocity": 0.5905511811023622
        },
        {
          "duration": 0.15625,
          "durationTicks": 75,
          "midi": 65,
          "name": "F4",
          "ticks": 5600,
          "time": 11.666666666666666,
          "velocity": 0.5905511811023622
        },
        {
          "duration": 0.15625,
          "durationTicks": 75,
          "midi": 64,
          "name": "E4",
          "ticks": 5680,
          "time": 11.833333333333334,
          "velocity": 0.5905511811023622
        },
        {
          "duration": 0.47291666666666643,
          "durationTicks": 227,
          "midi": 62,
          "name": "D4",
          "ticks": 5760,
          "time": 12,
          "velocity": 0.5905511811023622
        },
        {
          "duration": 0.15625,
          "durationTicks": 75,
          "midi": 77,
          "name": "F5",
          "ticks": 5840,
          "time": 12.166666666666666,
          "velocity": 0.5905511811023622
        },
        {
          "duration": 0.15625,
          "durationTicks": 75,
          "midi": 74,
          "name": "D5",
          "ticks": 5920,
          "time": 12.333333333333334,
          "velocity": 0.5905511811023622
        },
        {
          "duration": 0.47291666666666643,
          "durationTicks": 227,
          "midi": 64,
          "name": "E4",
          "ticks": 6000,
          "time": 12.5,
          "velocity": 0.5905511811023622
        },
        {
          "duration": 0.15625,
          "durationTicks": 75,
          "midi": 79,
          "name": "G5",
          "ticks": 6080,
          "time": 12.666666666666666,
          "velocity": 0.5905511811023622
        },
        {
          "duration": 0.15625,
          "durationTicks": 75,
          "midi": 74,
          "name": "D5",
          "ticks": 6160,
          "time": 12.833333333333334,
          "velocity": 0.5905511811023622
        },
        {
          "duration": 0.47291666666666643,
          "durationTicks": 227,
          "midi": 65,
          "name": "F4",
          "ticks": 6240,
          "time": 13,
          "velocity": 0.5905511811023622
        },
        {
          "duration": 0.15625,
          "durationTicks": 75,
          "midi": 81,
          "name": "A5",
          "ticks": 6320,
          "time": 13.166666666666666,
          "velocity": 0.5905511811023622
        },
        {
          "duration": 0.15625,
          "durationTicks": 75,
          "midi": 74,
          "name": "D5",
          "ticks": 6400,
          "time": 13.333333333333334,
          "velocity": 0.5905511811023622
        },
        {
          "duration": 0.47291666666666643,
          "durationTicks": 227,
          "midi": 67,
          "name": "G4",
          "ticks": 6480,
          "time": 13.5,
          "velocity": 0.5905511811023622
        },
        {
          "duration": 0.15625,
          "durationTicks": 75,
          "midi": 82,
          "name": "A#5",
          "ticks": 6560,
          "time": 13.666666666666666,
          "velocity": 0.5905511811023622
        },
        {
          "duration": 0.15625,
          "durationTicks": 75,
          "midi": 74,
          "name": "D5",
          "ticks": 6640,
          "time": 13.833333333333334,
          "velocity": 0.5905511811023622
        },
        {
          "duration": 0.2354166666666675,
          "durationTicks": 113,
          "midi": 73,
          "name": "C#5",
          "ticks": 6720,
          "time": 14,
          "velocity": 0.5905511811023622
        },
        {
          "duration": 0.15625,
          "durationTicks": 75,
          "midi": 70,
          "name": "A#4",
          "ticks": 6800,
          "time": 14.166666666666666,
          "velocity": 0.5905511811023622
        },
        {
          "duration": 0.15625,
          "durationTicks": 75,
          "midi": 67,
          "name": "G4",
          "ticks": 6880,
          "time": 14.333333333333334,
          "velocity": 0.5905511811023622
        },
        {
          "duration": 0.15625,
          "durationTicks": 75,
          "midi": 64,
          "name": "E4",
          "ticks": 6960,
          "time": 14.5,
          "velocity": 0.5905511811023622
        },
        {
          "duration": 0.15625,
          "durationTicks": 75,
          "midi": 61,
          "name": "C#4",
          "ticks": 7040,
          "time": 14.666666666666666,
          "velocity": 0.5905511811023622
        },
        {
          "duration": 0.15625,
          "durationTicks": 75,
          "midi": 57,
          "name": "A3",
          "ticks": 7120,
          "time": 14.833333333333334,
          "velocity": 0.5905511811023622
        },
        {
          "duration": 0.15625,
          "durationTicks": 75,
          "midi": 61,
          "name": "C#4",
          "ticks": 7200,
          "time": 15,
          "velocity": 0.5905511811023622
        },
        {
          "duration": 0.15625,
          "durationTicks": 75,
          "midi": 64,
          "name": "E4",
          "ticks": 7280,
          "time": 15.166666666666666,
          "velocity": 0.5905511811023622
        },
        {
          "duration": 0.15625,
          "durationTicks": 75,
          "midi": 67,
          "name": "G4",
          "ticks": 7360,
          "time": 15.333333333333334,
          "velocity": 0.5905511811023622
        },
        {
          "duration": 0.15625,
          "durationTicks": 75,
          "midi": 70,
          "name": "A#4",
          "ticks": 7440,
          "time": 15.5,
          "velocity": 0.5905511811023622
        },
        {
          "duration": 0.15625,
          "durationTicks": 75,
          "midi": 73,
          "name": "C#5",
          "ticks": 7520,
          "time": 15.666666666666666,
          "velocity": 0.5905511811023622
        },
        {
          "duration": 0.15625,
          "durationTicks": 75,
          "midi": 76,
          "name": "E5",
          "ticks": 7600,
          "time": 15.833333333333334,
          "velocity": 0.5905511811023622
        },
        {
          "duration": 0.47291666666666643,
          "durationTicks": 227,
          "midi": 74,
          "name": "D5",
          "ticks": 7680,
          "time": 16,
          "velocity": 0.5905511811023622
        },
        {
          "duration": 0.15625,
          "durationTicks": 75,
          "midi": 76,
          "name": "E5",
          "ticks": 7760,
          "time": 16.166666666666668,
          "velocity": 0.5905511811023622
        },
        {
          "duration": 0.15625,
          "durationTicks": 75,
          "midi": 77,
          "name": "F5",
          "ticks": 7840,
          "time": 16.333333333333332,
          "velocity": 0.5905511811023622
        },
        {
          "duration": 0.47291666666666643,
          "durationTicks": 227,
          "midi": 82,
          "name": "A#5",
          "ticks": 7920,
          "time": 16.5,
          "velocity": 0.5905511811023622
        },
        {
          "duration": 0.15625,
          "durationTicks": 75,
          "midi": 74,
          "name": "D5",
          "ticks": 8000,
          "time": 16.666666666666668,
          "velocity": 0.5905511811023622
        },
        {
          "duration": 0.15625,
          "durationTicks": 75,
          "midi": 67,
          "name": "G4",
          "ticks": 8080,
          "time": 16.833333333333332,
          "velocity": 0.5905511811023622
        },
        {
          "duration": 0.47291666666666643,
          "durationTicks": 227,
          "midi": 72,
          "name": "C5",
          "ticks": 8160,
          "time": 17,
          "velocity": 0.5905511811023622
        },
        {
          "duration": 0.15625,
          "durationTicks": 75,
          "midi": 74,
          "name": "D5",
          "ticks": 8240,
          "time": 17.166666666666668,
          "velocity": 0.5905511811023622
        },
        {
          "duration": 0.15625,
          "durationTicks": 75,
          "midi": 76,
          "name": "E5",
          "ticks": 8320,
          "time": 17.333333333333332,
          "velocity": 0.5905511811023622
        },
        {
          "duration": 0.47291666666666643,
          "durationTicks": 227,
          "midi": 81,
          "name": "A5",
          "ticks": 8400,
          "time": 17.5,
          "velocity": 0.5905511811023622
        },
        {
          "duration": 0.15625,
          "durationTicks": 75,
          "midi": 72,
          "name": "C5",
          "ticks": 8480,
          "time": 17.666666666666668,
          "velocity": 0.5905511811023622
        },
        {
          "duration": 0.15625,
          "durationTicks": 75,
          "midi": 65,
          "name": "F4",
          "ticks": 8560,
          "time": 17.833333333333332,
          "velocity": 0.5905511811023622
        },
        {
          "duration": 0.47291666666666643,
          "durationTicks": 227,
          "midi": 70,
          "name": "A#4",
          "ticks": 8640,
          "time": 18,
          "velocity": 0.5905511811023622
        },
        {
          "duration": 0.15625,
          "durationTicks": 75,
          "midi": 73,
          "name": "C#5",
          "ticks": 8720,
          "time": 18.166666666666668,
          "velocity": 0.5905511811023622
        },
        {
          "duration": 0.15625,
          "durationTicks": 75,
          "midi": 74,
          "name": "D5",
          "ticks": 8800,
          "time": 18.333333333333332,
          "velocity": 0.5905511811023622
        },
        {
          "duration": 0.47291666666666643,
          "durationTicks": 227,
          "midi": 79,
          "name": "G5",
          "ticks": 8880,
          "time": 18.5,
          "velocity": 0.5905511811023622
        },
        {
          "duration": 0.15625,
          "durationTicks": 75,
          "midi": 70,
          "name": "A#4",
          "ticks": 8960,
          "time": 18.666666666666668,
          "velocity": 0.5905511811023622
        },
        {
          "duration": 0.15625,
          "durationTicks": 75,
          "midi": 64,
          "name": "E4",
          "ticks": 9040,
          "time": 18.833333333333332,
          "velocity": 0.5905511811023622
        },
        {
          "duration": 0.47291666666666643,
          "durationTicks": 227,
          "midi": 69,
          "name": "A4",
          "ticks": 9120,
          "time": 19,
          "velocity": 0.5905511811023622
        },
        {
          "duration": 0.15625,
          "durationTicks": 75,
          "midi": 70,
          "name": "A#4",
          "ticks": 9200,
          "time": 19.166666666666668,
          "velocity": 0.5905511811023622
        },
        {
          "duration": 0.15625,
          "durationTicks": 75,
          "midi": 73,
          "name": "C#5",
          "ticks": 9280,
          "time": 19.333333333333332,
          "velocity": 0.5905511811023622
        },
        {
          "duration": 0.47291666666666643,
          "durationTicks": 227,
          "midi": 77,
          "name": "F5",
          "ticks": 9360,
          "time": 19.5,
          "velocity": 0.5905511811023622
        },
        {
          "duration": 0.15625,
          "durationTicks": 75,
          "midi": 69,
          "name": "A4",
          "ticks": 9440,
          "time": 19.666666666666668,
          "velocity": 0.5905511811023622
        },
        {
          "duration": 0.15625,
          "durationTicks": 75,
          "midi": 62,
          "name": "D4",
          "ticks": 9520,
          "time": 19.833333333333332,
          "velocity": 0.5905511811023622
        },
        {
          "duration": 0.47291666666666643,
          "durationTicks": 227,
          "midi": 67,
          "name": "G4",
          "ticks": 9600,
          "time": 20,
          "velocity": 0.5905511811023622
        },
        {
          "duration": 0.15625,
          "durationTicks": 75,
          "midi": 70,
          "name": "A#4",
          "ticks": 9680,
          "time": 20.166666666666668,
          "velocity": 0.5905511811023622
        },
        {
          "duration": 0.15625,
          "durationTicks": 75,
          "midi": 75,
          "name": "D#5",
          "ticks": 9760,
          "time": 20.333333333333332,
          "velocity": 0.5905511811023622
        },
        {
          "duration": 0.47291666666666643,
          "durationTicks": 227,
          "midi": 65,
          "name": "F4",
          "ticks": 9840,
          "time": 20.5,
          "velocity": 0.5905511811023622
        },
        {
          "duration": 0.15625,
          "durationTicks": 75,
          "midi": 69,
          "name": "A4",
          "ticks": 9920,
          "time": 20.666666666666668,
          "velocity": 0.5905511811023622
        },
        {
          "duration": 0.15625,
          "durationTicks": 75,
          "midi": 74,
          "name": "D5",
          "ticks": 10000,
          "time": 20.833333333333332,
          "velocity": 0.5905511811023622
        },
        {
          "duration": 0.47291666666666643,
          "durationTicks": 227,
          "midi": 64,
          "name": "E4",
          "ticks": 10080,
          "time": 21,
          "velocity": 0.5905511811023622
        },
        {
          "duration": 0.15625,
          "durationTicks": 75,
          "midi": 67,
          "name": "G4",
          "ticks": 10160,
          "time": 21.166666666666668,
          "velocity": 0.5905511811023622
        },
        {
          "duration": 0.15625,
          "durationTicks": 75,
          "midi": 73,
          "name": "C#5",
          "ticks": 10240,
          "time": 21.333333333333332,
          "velocity": 0.5905511811023622
        },
        {
          "duration": 0.47291666666666643,
          "durationTicks": 227,
          "midi": 65,
          "name": "F4",
          "ticks": 10320,
          "time": 21.5,
          "velocity": 0.5905511811023622
        },
        {
          "duration": 0.15625,
          "durationTicks": 75,
          "midi": 69,
          "name": "A4",
          "ticks": 10400,
          "time": 21.666666666666668,
          "velocity": 0.5905511811023622
        },
        {
          "duration": 0.15625,
          "durationTicks": 75,
          "midi": 74,
          "name": "D5",
          "ticks": 10480,
          "time": 21.833333333333332,
          "velocity": 0.5905511811023622
        },
        {
          "duration": 0.47291666666666643,
          "durationTicks": 227,
          "midi": 62,
          "name": "D4",
          "ticks": 10560,
          "time": 22,
          "velocity": 0.5905511811023622
        },
        {
          "duration": 0.15625,
          "durationTicks": 75,
          "midi": 65,
          "name": "F4",
          "ticks": 10640,
          "time": 22.166666666666668,
          "velocity": 0.5905511811023622
        },
        {
          "duration": 0.15625,
          "durationTicks": 75,
          "midi": 70,
          "name": "A#4",
          "ticks": 10720,
          "time": 22.333333333333332,
          "velocity": 0.5905511811023622
        },
        {
          "duration": 0.47291666666666643,
          "durationTicks": 227,
          "midi": 61,
          "name": "C#4",
          "ticks": 10800,
          "time": 22.5,
          "velocity": 0.5905511811023622
        },
        {
          "duration": 0.15625,
          "durationTicks": 75,
          "midi": 64,
          "name": "E4",
          "ticks": 10880,
          "time": 22.666666666666668,
          "velocity": 0.5905511811023622
        },
        {
          "duration": 0.15625,
          "durationTicks": 75,
          "midi": 69,
          "name": "A4",
          "ticks": 10960,
          "time": 22.833333333333332,
          "velocity": 0.5905511811023622
        },
        {
          "duration": 0.47291666666666643,
          "durationTicks": 227,
          "midi": 62,
          "name": "D4",
          "ticks": 11040,
          "time": 23,
          "velocity": 0.5905511811023622
        },
        {
          "duration": 0.15625,
          "durationTicks": 75,
          "midi": 65,
          "name": "F4",
          "ticks": 11120,
          "time": 23.166666666666668,
          "velocity": 0.5905511811023622
        },
        {
          "duration": 0.15625,
          "durationTicks": 75,
          "midi": 70,
          "name": "A#4",
          "ticks": 11200,
          "time": 23.333333333333332,
          "velocity": 0.5905511811023622
        },
        {
          "duration": 0.47291666666666643,
          "durationTicks": 227,
          "midi": 61,
          "name": "C#4",
          "ticks": 11280,
          "time": 23.5,
          "velocity": 0.5905511811023622
        },
        {
          "duration": 0.15625,
          "durationTicks": 75,
          "midi": 64,
          "name": "E4",
          "ticks": 11360,
          "time": 23.666666666666668,
          "velocity": 0.5905511811023622
        },
        {
          "duration": 0.15625,
          "durationTicks": 75,
          "midi": 69,
          "name": "A4",
          "ticks": 11440,
          "time": 23.833333333333332,
          "velocity": 0.5905511811023622
        },
        {
          "duration": 0.15625,
          "durationTicks": 75,
          "midi": 65,
          "name": "F4",
          "ticks": 11600,
          "time": 24.166666666666668,
          "velocity": 0.5905511811023622
        },
        {
          "duration": 0.15625,
          "durationTicks": 75,
          "midi": 70,
          "name": "A#4",
          "ticks": 11680,
          "time": 24.333333333333332,
          "velocity": 0.5905511811023622
        },
        {
          "duration": 0.15625,
          "durationTicks": 75,
          "midi": 68,
          "name": "G#4",
          "ticks": 11760,
          "time": 24.5,
          "velocity": 0.5905511811023622
        },
        {
          "duration": 0.15625,
          "durationTicks": 75,
          "midi": 65,
          "name": "F4",
          "ticks": 11840,
          "time": 24.666666666666668,
          "velocity": 0.5905511811023622
        },
        {
          "duration": 0.15625,
          "durationTicks": 75,
          "midi": 62,
          "name": "D4",
          "ticks": 11920,
          "time": 24.833333333333332,
          "velocity": 0.5905511811023622
        },
        {
          "duration": 0.15625,
          "durationTicks": 75,
          "midi": 62,
          "name": "D4",
          "ticks": 12080,
          "time": 25.166666666666668,
          "velocity": 0.5905511811023622
        },
        {
          "duration": 0.15625,
          "durationTicks": 75,
          "midi": 65,
          "name": "F4",
          "ticks": 12160,
          "time": 25.333333333333332,
          "velocity": 0.5905511811023622
        },
        {
          "duration": 0.15625,
          "durationTicks": 75,
          "midi": 68,
          "name": "G#4",
          "ticks": 12240,
          "time": 25.5,
          "velocity": 0.5905511811023622
        },
        {
          "duration": 0.15625,
          "durationTicks": 75,
          "midi": 71,
          "name": "B4",
          "ticks": 12320,
          "time": 25.666666666666668,
          "velocity": 0.5905511811023622
        },
        {
          "duration": 0.15625,
          "durationTicks": 75,
          "midi": 62,
          "name": "D4",
          "ticks": 12400,
          "time": 25.833333333333332,
          "velocity": 0.5905511811023622
        },
        {
          "duration": 0.15625,
          "durationTicks": 75,
          "midi": 63,
          "name": "D#4",
          "ticks": 12560,
          "time": 26.166666666666668,
          "velocity": 0.5905511811023622
        },
        {
          "duration": 0.15625,
          "durationTicks": 75,
          "midi": 69,
          "name": "A4",
          "ticks": 12640,
          "time": 26.333333333333332,
          "velocity": 0.5905511811023622
        },
        {
          "duration": 0.15625,
          "durationTicks": 75,
          "midi": 66,
          "name": "F#4",
          "ticks": 12720,
          "time": 26.5,
          "velocity": 0.5905511811023622
        },
        {
          "duration": 0.15625,
          "durationTicks": 75,
          "midi": 63,
          "name": "D#4",
          "ticks": 12800,
          "time": 26.666666666666668,
          "velocity": 0.5905511811023622
        },
        {
          "duration": 0.15625,
          "durationTicks": 75,
          "midi": 60,
          "name": "C4",
          "ticks": 12880,
          "time": 26.833333333333332,
          "velocity": 0.5905511811023622
        },
        {
          "duration": 0.15625,
          "durationTicks": 75,
          "midi": 60,
          "name": "C4",
          "ticks": 13040,
          "time": 27.166666666666668,
          "velocity": 0.5905511811023622
        },
        {
          "duration": 0.15625,
          "durationTicks": 75,
          "midi": 63,
          "name": "D#4",
          "ticks": 13120,
          "time": 27.333333333333332,
          "velocity": 0.5905511811023622
        },
        {
          "duration": 0.15625,
          "durationTicks": 75,
          "midi": 66,
          "name": "F#4",
          "ticks": 13200,
          "time": 27.5,
          "velocity": 0.5905511811023622
        },
        {
          "duration": 0.15625,
          "durationTicks": 75,
          "midi": 69,
          "name": "A4",
          "ticks": 13280,
          "time": 27.666666666666668,
          "velocity": 0.5905511811023622
        },
        {
          "duration": 0.15625,
          "durationTicks": 75,
          "midi": 60,
          "name": "C4",
          "ticks": 13360,
          "time": 27.833333333333332,
          "velocity": 0.5905511811023622
        },
        {
          "duration": 0.15625,
          "durationTicks": 75,
          "midi": 62,
          "name": "D4",
          "ticks": 13520,
          "time": 28.166666666666668,
          "velocity": 0.5905511811023622
        },
        {
          "duration": 0.15625,
          "durationTicks": 75,
          "midi": 67,
          "name": "G4",
          "ticks": 13600,
          "time": 28.333333333333332,
          "velocity": 0.5905511811023622
        },
        {
          "duration": 0.15625,
          "durationTicks": 75,
          "midi": 65,
          "name": "F4",
          "ticks": 13680,
          "time": 28.5,
          "velocity": 0.5905511811023622
        },
        {
          "duration": 0.15625,
          "durationTicks": 75,
          "midi": 64,
          "name": "E4",
          "ticks": 13760,
          "time": 28.666666666666668,
          "velocity": 0.5905511811023622
        },
        {
          "duration": 0.15625,
          "durationTicks": 75,
          "midi": 62,
          "name": "D4",
          "ticks": 13840,
          "time": 28.833333333333332,
          "velocity": 0.5905511811023622
        },
        {
          "duration": 0.15625,
          "durationTicks": 75,
          "midi": 62,
          "name": "D4",
          "ticks": 14000,
          "time": 29.166666666666668,
          "velocity": 0.5905511811023622
        },
        {
          "duration": 0.15625,
          "durationTicks": 75,
          "midi": 71,
          "name": "B4",
          "ticks": 14080,
          "time": 29.333333333333332,
          "velocity": 0.5905511811023622
        },
        {
          "duration": 0.15625,
          "durationTicks": 75,
          "midi": 65,
          "name": "F4",
          "ticks": 14160,
          "time": 29.5,
          "velocity": 0.5905511811023622
        },
        {
          "duration": 0.15625,
          "durationTicks": 75,
          "midi": 64,
          "name": "E4",
          "ticks": 14240,
          "time": 29.666666666666668,
          "velocity": 0.5905511811023622
        },
        {
          "duration": 0.15625,
          "durationTicks": 75,
          "midi": 62,
          "name": "D4",
          "ticks": 14320,
          "time": 29.833333333333332,
          "velocity": 0.5905511811023622
        },
        {
          "duration": 0.15625,
          "durationTicks": 75,
          "midi": 61,
          "name": "C#4",
          "ticks": 14480,
          "time": 30.166666666666668,
          "velocity": 0.5905511811023622
        },
        {
          "duration": 0.15625,
          "durationTicks": 75,
          "midi": 64,
          "name": "E4",
          "ticks": 14560,
          "time": 30.333333333333332,
          "velocity": 0.5905511811023622
        },
        {
          "duration": 0.15625,
          "durationTicks": 75,
          "midi": 65,
          "name": "F4",
          "ticks": 14640,
          "time": 30.5,
          "velocity": 0.5905511811023622
        },
        {
          "duration": 0.15625,
          "durationTicks": 75,
          "midi": 62,
          "name": "D4",
          "ticks": 14720,
          "time": 30.666666666666668,
          "velocity": 0.5905511811023622
        },
        {
          "duration": 0.15625,
          "durationTicks": 75,
          "midi": 56,
          "name": "G#3",
          "ticks": 14800,
          "time": 30.833333333333332,
          "velocity": 0.5905511811023622
        },
        {
          "duration": 0.15625,
          "durationTicks": 75,
          "midi": 61,
          "name": "C#4",
          "ticks": 14960,
          "time": 31.166666666666668,
          "velocity": 0.5905511811023622
        },
        {
          "duration": 0.15625,
          "durationTicks": 75,
          "midi": 64,
          "name": "E4",
          "ticks": 15040,
          "time": 31.333333333333332,
          "velocity": 0.5905511811023622
        },
        {
          "duration": 0.15625,
          "durationTicks": 75,
          "midi": 65,
          "name": "F4",
          "ticks": 15120,
          "time": 31.5,
          "velocity": 0.5905511811023622
        },
        {
          "duration": 0.15625,
          "durationTicks": 75,
          "midi": 62,
          "name": "D4",
          "ticks": 15200,
          "time": 31.666666666666668,
          "velocity": 0.5905511811023622
        },
        {
          "duration": 0.15625,
          "durationTicks": 75,
          "midi": 56,
          "name": "G#3",
          "ticks": 15280,
          "time": 31.833333333333332,
          "velocity": 0.5905511811023622
        },
        {
          "duration": 0.15625,
          "durationTicks": 75,
          "midi": 60,
          "name": "C4",
          "ticks": 15440,
          "time": 32.166666666666664,
          "velocity": 0.5905511811023622
        },
        {
          "duration": 0.15625,
          "durationTicks": 75,
          "midi": 65,
          "name": "F4",
          "ticks": 15520,
          "time": 32.333333333333336,
          "velocity": 0.5905511811023622
        },
        {
          "duration": 0.15625,
          "durationTicks": 75,
          "midi": 63,
          "name": "D#4",
          "ticks": 15600,
          "time": 32.5,
          "velocity": 0.5905511811023622
        },
        {
          "duration": 0.15625,
          "durationTicks": 75,
          "midi": 60,
          "name": "C4",
          "ticks": 15680,
          "time": 32.666666666666664,
          "velocity": 0.5905511811023622
        },
        {
          "duration": 0.15625,
          "durationTicks": 75,
          "midi": 57,
          "name": "A3",
          "ticks": 15760,
          "time": 32.833333333333336,
          "velocity": 0.5905511811023622
        },
        {
          "duration": 0.15625,
          "durationTicks": 75,
          "midi": 57,
          "name": "A3",
          "ticks": 15920,
          "time": 33.166666666666664,
          "velocity": 0.5905511811023622
        },
        {
          "duration": 0.15625,
          "durationTicks": 75,
          "midi": 60,
          "name": "C4",
          "ticks": 16000,
          "time": 33.333333333333336,
          "velocity": 0.5905511811023622
        },
        {
          "duration": 0.15625,
          "durationTicks": 75,
          "midi": 63,
          "name": "D#4",
          "ticks": 16080,
          "time": 33.5,
          "velocity": 0.5905511811023622
        },
        {
          "duration": 0.15625,
          "durationTicks": 75,
          "midi": 66,
          "name": "F#4",
          "ticks": 16160,
          "time": 33.666666666666664,
          "velocity": 0.5905511811023622
        },
        {
          "duration": 0.15625,
          "durationTicks": 75,
          "midi": 57,
          "name": "A3",
          "ticks": 16240,
          "time": 33.833333333333336,
          "velocity": 0.5905511811023622
        },
        {
          "duration": 0.15625,
          "durationTicks": 75,
          "midi": 58,
          "name": "A#3",
          "ticks": 16400,
          "time": 34.166666666666664,
          "velocity": 0.5905511811023622
        },
        {
          "duration": 0.15625,
          "durationTicks": 75,
          "midi": 64,
          "name": "E4",
          "ticks": 16480,
          "time": 34.333333333333336,
          "velocity": 0.5905511811023622
        },
        {
          "duration": 0.15625,
          "durationTicks": 75,
          "midi": 61,
          "name": "C#4",
          "ticks": 16560,
          "time": 34.5,
          "velocity": 0.5905511811023622
        },
        {
          "duration": 0.15625,
          "durationTicks": 75,
          "midi": 58,
          "name": "A#3",
          "ticks": 16640,
          "time": 34.666666666666664,
          "velocity": 0.5905511811023622
        },
        {
          "duration": 0.15625,
          "durationTicks": 75,
          "midi": 55,
          "name": "G3",
          "ticks": 16720,
          "time": 34.833333333333336,
          "velocity": 0.5905511811023622
        },
        {
          "duration": 0.15625,
          "durationTicks": 75,
          "midi": 55,
          "name": "G3",
          "ticks": 16880,
          "time": 35.166666666666664,
          "velocity": 0.5905511811023622
        },
        {
          "duration": 0.15625,
          "durationTicks": 75,
          "midi": 58,
          "name": "A#3",
          "ticks": 16960,
          "time": 35.333333333333336,
          "velocity": 0.5905511811023622
        },
        {
          "duration": 0.15625,
          "durationTicks": 75,
          "midi": 61,
          "name": "C#4",
          "ticks": 17040,
          "time": 35.5,
          "velocity": 0.5905511811023622
        },
        {
          "duration": 0.15625,
          "durationTicks": 75,
          "midi": 64,
          "name": "E4",
          "ticks": 17120,
          "time": 35.666666666666664,
          "velocity": 0.5905511811023622
        },
        {
          "duration": 0.15625,
          "durationTicks": 75,
          "midi": 55,
          "name": "G3",
          "ticks": 17200,
          "time": 35.833333333333336,
          "velocity": 0.5905511811023622
        },
        {
          "duration": 0.15625,
          "durationTicks": 75,
          "midi": 61,
          "name": "C#4",
          "ticks": 18480,
          "time": 38.5,
          "velocity": 0.5905511811023622
        },
        {
          "duration": 0.15625,
          "durationTicks": 75,
          "midi": 64,
          "name": "E4",
          "ticks": 18560,
          "time": 38.666666666666664,
          "velocity": 0.5905511811023622
        },
        {
          "duration": 0.15625,
          "durationTicks": 75,
          "midi": 61,
          "name": "C#4",
          "ticks": 18640,
          "time": 38.833333333333336,
          "velocity": 0.5905511811023622
        },
        {
          "duration": 0.15625,
          "durationTicks": 75,
          "midi": 48,
          "name": "C3",
          "ticks": 21200,
          "time": 44.166666666666664,
          "velocity": 0.5905511811023622
        },
        {
          "duration": 0.15625,
          "durationTicks": 75,
          "midi": 51,
          "name": "D#3",
          "ticks": 21280,
          "time": 44.333333333333336,
          "velocity": 0.5905511811023622
        },
        {
          "duration": 0.15625,
          "durationTicks": 75,
          "midi": 51,
          "name": "D#3",
          "ticks": 21440,
          "time": 44.666666666666664,
          "velocity": 0.5905511811023622
        },
        {
          "duration": 0.15625,
          "durationTicks": 75,
          "midi": 55,
          "name": "G3",
          "ticks": 21520,
          "time": 44.833333333333336,
          "velocity": 0.5905511811023622
        },
        {
          "duration": 0.15625,
          "durationTicks": 75,
          "midi": 55,
          "name": "G3",
          "ticks": 21680,
          "time": 45.166666666666664,
          "velocity": 0.5905511811023622
        },
        {
          "duration": 0.15625,
          "durationTicks": 75,
          "midi": 60,
          "name": "C4",
          "ticks": 21760,
          "time": 45.333333333333336,
          "velocity": 0.5905511811023622
        },
        {
          "duration": 0.15625,
          "durationTicks": 75,
          "midi": 60,
          "name": "C4",
          "ticks": 21920,
          "time": 45.666666666666664,
          "velocity": 0.5905511811023622
        },
        {
          "duration": 0.15625,
          "durationTicks": 75,
          "midi": 63,
          "name": "D#4",
          "ticks": 22000,
          "time": 45.833333333333336,
          "velocity": 0.5905511811023622
        },
        {
          "duration": 0.15625,
          "durationTicks": 75,
          "midi": 61,
          "name": "C#4",
          "ticks": 22160,
          "time": 46.166666666666664,
          "velocity": 0.5905511811023622
        },
        {
          "duration": 0.15625,
          "durationTicks": 75,
          "midi": 64,
          "name": "E4",
          "ticks": 22240,
          "time": 46.333333333333336,
          "velocity": 0.5905511811023622
        },
        {
          "duration": 0.15625,
          "durationTicks": 75,
          "midi": 64,
          "name": "E4",
          "ticks": 22400,
          "time": 46.666666666666664,
          "velocity": 0.5905511811023622
        },
        {
          "duration": 0.15625,
          "durationTicks": 75,
          "midi": 67,
          "name": "G4",
          "ticks": 22480,
          "time": 46.833333333333336,
          "velocity": 0.5905511811023622
        },
        {
          "duration": 0.15625,
          "durationTicks": 75,
          "midi": 67,
          "name": "G4",
          "ticks": 22640,
          "time": 47.166666666666664,
          "velocity": 0.5905511811023622
        },
        {
          "duration": 0.15625,
          "durationTicks": 75,
          "midi": 70,
          "name": "A#4",
          "ticks": 22720,
          "time": 47.333333333333336,
          "velocity": 0.5905511811023622
        },
        {
          "duration": 0.15625,
          "durationTicks": 75,
          "midi": 70,
          "name": "A#4",
          "ticks": 22880,
          "time": 47.666666666666664,
          "velocity": 0.5905511811023622
        },
        {
          "duration": 0.15625,
          "durationTicks": 75,
          "midi": 73,
          "name": "C#5",
          "ticks": 22960,
          "time": 47.833333333333336,
          "velocity": 0.5905511811023622
        },
        {
          "duration": 0.15625,
          "durationTicks": 75,
          "midi": 70,
          "name": "A#4",
          "ticks": 23120,
          "time": 48.166666666666664,
          "velocity": 0.5905511811023622
        },
        {
          "duration": 0.15625,
          "durationTicks": 75,
          "midi": 73,
          "name": "C#5",
          "ticks": 23200,
          "time": 48.333333333333336,
          "velocity": 0.5905511811023622
        },
        {
          "duration": 0.15625,
          "durationTicks": 75,
          "midi": 79,
          "name": "G5",
          "ticks": 23280,
          "time": 48.5,
          "velocity": 0.5905511811023622
        },
        {
          "duration": 0.15625,
          "durationTicks": 75,
          "midi": 77,
          "name": "F5",
          "ticks": 23360,
          "time": 48.666666666666664,
          "velocity": 0.5905511811023622
        },
        {
          "duration": 0.15625,
          "durationTicks": 75,
          "midi": 76,
          "name": "E5",
          "ticks": 23440,
          "time": 48.833333333333336,
          "velocity": 0.5905511811023622
        },
        {
          "duration": 0.15625,
          "durationTicks": 75,
          "midi": 73,
          "name": "C#5",
          "ticks": 23600,
          "time": 49.166666666666664,
          "velocity": 0.5905511811023622
        },
        {
          "duration": 0.15625,
          "durationTicks": 75,
          "midi": 76,
          "name": "E5",
          "ticks": 23680,
          "time": 49.333333333333336,
          "velocity": 0.5905511811023622
        },
        {
          "duration": 0.15625,
          "durationTicks": 75,
          "midi": 82,
          "name": "A#5",
          "ticks": 23760,
          "time": 49.5,
          "velocity": 0.5905511811023622
        },
        {
          "duration": 0.15625,
          "durationTicks": 75,
          "midi": 81,
          "name": "A5",
          "ticks": 23840,
          "time": 49.666666666666664,
          "velocity": 0.5905511811023622
        },
        {
          "duration": 0.15625,
          "durationTicks": 75,
          "midi": 79,
          "name": "G5",
          "ticks": 23920,
          "time": 49.833333333333336,
          "velocity": 0.5905511811023622
        },
        {
          "duration": 0.15625,
          "durationTicks": 75,
          "midi": 70,
          "name": "A#4",
          "ticks": 24080,
          "time": 50.166666666666664,
          "velocity": 0.5905511811023622
        },
        {
          "duration": 0.15625,
          "durationTicks": 75,
          "midi": 73,
          "name": "C#5",
          "ticks": 24160,
          "time": 50.333333333333336,
          "velocity": 0.5905511811023622
        },
        {
          "duration": 0.15625,
          "durationTicks": 75,
          "midi": 79,
          "name": "G5",
          "ticks": 24240,
          "time": 50.5,
          "velocity": 0.5905511811023622
        },
        {
          "duration": 0.15625,
          "durationTicks": 75,
          "midi": 77,
          "name": "F5",
          "ticks": 24320,
          "time": 50.666666666666664,
          "velocity": 0.5905511811023622
        },
        {
          "duration": 0.15625,
          "durationTicks": 75,
          "midi": 76,
          "name": "E5",
          "ticks": 24400,
          "time": 50.833333333333336,
          "velocity": 0.5905511811023622
        },
        {
          "duration": 0.15625,
          "durationTicks": 75,
          "midi": 73,
          "name": "C#5",
          "ticks": 24560,
          "time": 51.166666666666664,
          "velocity": 0.5905511811023622
        },
        {
          "duration": 0.15625,
          "durationTicks": 75,
          "midi": 76,
          "name": "E5",
          "ticks": 24640,
          "time": 51.333333333333336,
          "velocity": 0.5905511811023622
        },
        {
          "duration": 0.15625,
          "durationTicks": 75,
          "midi": 82,
          "name": "A#5",
          "ticks": 24720,
          "time": 51.5,
          "velocity": 0.5905511811023622
        },
        {
          "duration": 0.15625,
          "durationTicks": 75,
          "midi": 81,
          "name": "A5",
          "ticks": 24800,
          "time": 51.666666666666664,
          "velocity": 0.5905511811023622
        },
        {
          "duration": 0.15625,
          "durationTicks": 75,
          "midi": 79,
          "name": "G5",
          "ticks": 24880,
          "time": 51.833333333333336,
          "velocity": 0.5905511811023622
        },
        {
          "duration": 0.15625,
          "durationTicks": 75,
          "midi": 69,
          "name": "A4",
          "ticks": 25040,
          "time": 52.166666666666664,
          "velocity": 0.5905511811023622
        },
        {
          "duration": 0.15625,
          "durationTicks": 75,
          "midi": 73,
          "name": "C#5",
          "ticks": 25120,
          "time": 52.333333333333336,
          "velocity": 0.5905511811023622
        },
        {
          "duration": 0.15625,
          "durationTicks": 75,
          "midi": 74,
          "name": "D5",
          "ticks": 25200,
          "time": 52.5,
          "velocity": 0.5905511811023622
        },
        {
          "duration": 0.15625,
          "durationTicks": 75,
          "midi": 76,
          "name": "E5",
          "ticks": 25280,
          "time": 52.666666666666664,
          "velocity": 0.5905511811023622
        },
        {
          "duration": 0.15625,
          "durationTicks": 75,
          "midi": 77,
          "name": "F5",
          "ticks": 25360,
          "time": 52.833333333333336,
          "velocity": 0.5905511811023622
        },
        {
          "duration": 0.15625,
          "durationTicks": 75,
          "midi": 73,
          "name": "C#5",
          "ticks": 25520,
          "time": 53.166666666666664,
          "velocity": 0.5905511811023622
        },
        {
          "duration": 0.15625,
          "durationTicks": 75,
          "midi": 74,
          "name": "D5",
          "ticks": 25600,
          "time": 53.333333333333336,
          "velocity": 0.5905511811023622
        },
        {
          "duration": 0.15625,
          "durationTicks": 75,
          "midi": 77,
          "name": "F5",
          "ticks": 25680,
          "time": 53.5,
          "velocity": 0.5905511811023622
        },
        {
          "duration": 0.15625,
          "durationTicks": 75,
          "midi": 79,
          "name": "G5",
          "ticks": 25760,
          "time": 53.666666666666664,
          "velocity": 0.5905511811023622
        },
        {
          "duration": 0.15625,
          "durationTicks": 75,
          "midi": 81,
          "name": "A5",
          "ticks": 25840,
          "time": 53.833333333333336,
          "velocity": 0.5905511811023622
        },
        {
          "duration": 0.15625,
          "durationTicks": 75,
          "midi": 77,
          "name": "F5",
          "ticks": 25920,
          "time": 54,
          "velocity": 0.5905511811023622
        },
        {
          "duration": 0.15625,
          "durationTicks": 75,
          "midi": 76,
          "name": "E5",
          "ticks": 26000,
          "time": 54.166666666666664,
          "velocity": 0.5905511811023622
        },
        {
          "duration": 0.15625,
          "durationTicks": 75,
          "midi": 74,
          "name": "D5",
          "ticks": 26080,
          "time": 54.333333333333336,
          "velocity": 0.5905511811023622
        },
        {
          "duration": 0.15625,
          "durationTicks": 75,
          "midi": 73,
          "name": "C#5",
          "ticks": 26160,
          "time": 54.5,
          "velocity": 0.5905511811023622
        },
        {
          "duration": 0.15625,
          "durationTicks": 75,
          "midi": 70,
          "name": "A#4",
          "ticks": 26240,
          "time": 54.666666666666664,
          "velocity": 0.5905511811023622
        },
        {
          "duration": 0.15625,
          "durationTicks": 75,
          "midi": 69,
          "name": "A4",
          "ticks": 26320,
          "time": 54.833333333333336,
          "velocity": 0.5905511811023622
        },
        {
          "duration": 0.15625,
          "durationTicks": 75,
          "midi": 67,
          "name": "G4",
          "ticks": 26400,
          "time": 55,
          "velocity": 0.5905511811023622
        },
        {
          "duration": 0.15625,
          "durationTicks": 75,
          "midi": 65,
          "name": "F4",
          "ticks": 26480,
          "time": 55.166666666666664,
          "velocity": 0.5905511811023622
        },
        {
          "duration": 0.15625,
          "durationTicks": 75,
          "midi": 64,
          "name": "E4",
          "ticks": 26560,
          "time": 55.333333333333336,
          "velocity": 0.5905511811023622
        },
        {
          "duration": 0.15625,
          "durationTicks": 75,
          "midi": 67,
          "name": "G4",
          "ticks": 26960,
          "time": 56.166666666666664,
          "velocity": 0.5905511811023622
        },
        {
          "duration": 0.15625,
          "durationTicks": 75,
          "midi": 73,
          "name": "C#5",
          "ticks": 27040,
          "time": 56.333333333333336,
          "velocity": 0.5905511811023622
        },
        {
          "duration": 0.15625,
          "durationTicks": 75,
          "midi": 76,
          "name": "E5",
          "ticks": 27120,
          "time": 56.5,
          "velocity": 0.5905511811023622
        },
        {
          "duration": 0.15625,
          "durationTicks": 75,
          "midi": 74,
          "name": "D5",
          "ticks": 27200,
          "time": 56.666666666666664,
          "velocity": 0.5905511811023622
        },
        {
          "duration": 0.15625,
          "durationTicks": 75,
          "midi": 73,
          "name": "C#5",
          "ticks": 27280,
          "time": 56.833333333333336,
          "velocity": 0.5905511811023622
        },
        {
          "duration": 0.15625,
          "durationTicks": 75,
          "midi": 64,
          "name": "E4",
          "ticks": 27440,
          "time": 57.166666666666664,
          "velocity": 0.5905511811023622
        },
        {
          "duration": 0.15625,
          "durationTicks": 75,
          "midi": 67,
          "name": "G4",
          "ticks": 27520,
          "time": 57.333333333333336,
          "velocity": 0.5905511811023622
        },
        {
          "duration": 0.15625,
          "durationTicks": 75,
          "midi": 70,
          "name": "A#4",
          "ticks": 27600,
          "time": 57.5,
          "velocity": 0.5905511811023622
        },
        {
          "duration": 0.15625,
          "durationTicks": 75,
          "midi": 69,
          "name": "A4",
          "ticks": 27680,
          "time": 57.666666666666664,
          "velocity": 0.5905511811023622
        },
        {
          "duration": 0.15625,
          "durationTicks": 75,
          "midi": 67,
          "name": "G4",
          "ticks": 27760,
          "time": 57.833333333333336,
          "velocity": 0.5905511811023622
        },
        {
          "duration": 0.15625,
          "durationTicks": 75,
          "midi": 67,
          "name": "G4",
          "ticks": 27920,
          "time": 58.166666666666664,
          "velocity": 0.5905511811023622
        },
        {
          "duration": 0.15625,
          "durationTicks": 75,
          "midi": 73,
          "name": "C#5",
          "ticks": 28000,
          "time": 58.333333333333336,
          "velocity": 0.5905511811023622
        },
        {
          "duration": 0.15625,
          "durationTicks": 75,
          "midi": 76,
          "name": "E5",
          "ticks": 28080,
          "time": 58.5,
          "velocity": 0.5905511811023622
        },
        {
          "duration": 0.15625,
          "durationTicks": 75,
          "midi": 74,
          "name": "D5",
          "ticks": 28160,
          "time": 58.666666666666664,
          "velocity": 0.5905511811023622
        },
        {
          "duration": 0.15625,
          "durationTicks": 75,
          "midi": 73,
          "name": "C#5",
          "ticks": 28240,
          "time": 58.833333333333336,
          "velocity": 0.5905511811023622
        },
        {
          "duration": 0.15625,
          "durationTicks": 75,
          "midi": 64,
          "name": "E4",
          "ticks": 28400,
          "time": 59.166666666666664,
          "velocity": 0.5905511811023622
        },
        {
          "duration": 0.15625,
          "durationTicks": 75,
          "midi": 67,
          "name": "G4",
          "ticks": 28480,
          "time": 59.333333333333336,
          "velocity": 0.5905511811023622
        },
        {
          "duration": 0.15625,
          "durationTicks": 75,
          "midi": 70,
          "name": "A#4",
          "ticks": 28560,
          "time": 59.5,
          "velocity": 0.5905511811023622
        },
        {
          "duration": 0.15625,
          "durationTicks": 75,
          "midi": 69,
          "name": "A4",
          "ticks": 28640,
          "time": 59.666666666666664,
          "velocity": 0.5905511811023622
        },
        {
          "duration": 0.15625,
          "durationTicks": 75,
          "midi": 67,
          "name": "G4",
          "ticks": 28720,
          "time": 59.833333333333336,
          "velocity": 0.5905511811023622
        },
        {
          "duration": 0.15625,
          "durationTicks": 75,
          "midi": 61,
          "name": "C#4",
          "ticks": 28880,
          "time": 60.166666666666664,
          "velocity": 0.5905511811023622
        },
        {
          "duration": 0.15625,
          "durationTicks": 75,
          "midi": 62,
          "name": "D4",
          "ticks": 28960,
          "time": 60.333333333333336,
          "velocity": 0.5905511811023622
        },
        {
          "duration": 0.15625,
          "durationTicks": 75,
          "midi": 65,
          "name": "F4",
          "ticks": 29040,
          "time": 60.5,
          "velocity": 0.5905511811023622
        },
        {
          "duration": 0.15625,
          "durationTicks": 75,
          "midi": 67,
          "name": "G4",
          "ticks": 29120,
          "time": 60.666666666666664,
          "velocity": 0.5905511811023622
        },
        {
          "duration": 0.15625,
          "durationTicks": 75,
          "midi": 69,
          "name": "A4",
          "ticks": 29200,
          "time": 60.833333333333336,
          "velocity": 0.5905511811023622
        },
        {
          "duration": 0.15625,
          "durationTicks": 75,
          "midi": 65,
          "name": "F4",
          "ticks": 29360,
          "time": 61.166666666666664,
          "velocity": 0.5905511811023622
        },
        {
          "duration": 0.15625,
          "durationTicks": 75,
          "midi": 68,
          "name": "G#4",
          "ticks": 29440,
          "time": 61.333333333333336,
          "velocity": 0.5905511811023622
        },
        {
          "duration": 0.15625,
          "durationTicks": 75,
          "midi": 69,
          "name": "A4",
          "ticks": 29520,
          "time": 61.5,
          "velocity": 0.5905511811023622
        },
        {
          "duration": 0.15625,
          "durationTicks": 75,
          "midi": 73,
          "name": "C#5",
          "ticks": 29600,
          "time": 61.666666666666664,
          "velocity": 0.5905511811023622
        },
        {
          "duration": 0.15625,
          "durationTicks": 75,
          "midi": 74,
          "name": "D5",
          "ticks": 29680,
          "time": 61.833333333333336,
          "velocity": 0.5905511811023622
        },
        {
          "duration": 0.15625,
          "durationTicks": 75,
          "midi": 69,
          "name": "A4",
          "ticks": 29840,
          "time": 62.166666666666664,
          "velocity": 0.5905511811023622
        },
        {
          "duration": 0.15625,
          "durationTicks": 75,
          "midi": 73,
          "name": "C#5",
          "ticks": 29920,
          "time": 62.333333333333336,
          "velocity": 0.5905511811023622
        },
        {
          "duration": 0.15625,
          "durationTicks": 75,
          "midi": 74,
          "name": "D5",
          "ticks": 30000,
          "time": 62.5,
          "velocity": 0.5905511811023622
        },
        {
          "duration": 0.15625,
          "durationTicks": 75,
          "midi": 76,
          "name": "E5",
          "ticks": 30080,
          "time": 62.666666666666664,
          "velocity": 0.5905511811023622
        },
        {
          "duration": 0.15625,
          "durationTicks": 75,
          "midi": 77,
          "name": "F5",
          "ticks": 30160,
          "time": 62.833333333333336,
          "velocity": 0.5905511811023622
        },
        {
          "duration": 0.15625,
          "durationTicks": 75,
          "midi": 73,
          "name": "C#5",
          "ticks": 30320,
          "time": 63.166666666666664,
          "velocity": 0.5905511811023622
        },
        {
          "duration": 0.15625,
          "durationTicks": 75,
          "midi": 74,
          "name": "D5",
          "ticks": 30400,
          "time": 63.333333333333336,
          "velocity": 0.5905511811023622
        },
        {
          "duration": 0.15625,
          "durationTicks": 75,
          "midi": 77,
          "name": "F5",
          "ticks": 30480,
          "time": 63.5,
          "velocity": 0.5905511811023622
        },
        {
          "duration": 0.15625,
          "durationTicks": 75,
          "midi": 80,
          "name": "G#5",
          "ticks": 30560,
          "time": 63.666666666666664,
          "velocity": 0.5905511811023622
        },
        {
          "duration": 0.15625,
          "durationTicks": 75,
          "midi": 81,
          "name": "A5",
          "ticks": 30640,
          "time": 63.833333333333336,
          "velocity": 0.5905511811023622
        },
        {
          "duration": 0.15625,
          "durationTicks": 75,
          "midi": 83,
          "name": "B5",
          "ticks": 30720,
          "time": 64,
          "velocity": 0.5905511811023622
        },
        {
          "duration": 0.15625,
          "durationTicks": 75,
          "midi": 80,
          "name": "G#5",
          "ticks": 30800,
          "time": 64.16666666666667,
          "velocity": 0.5905511811023622
        },
        {
          "duration": 0.15625,
          "durationTicks": 75,
          "midi": 81,
          "name": "A5",
          "ticks": 30880,
          "time": 64.33333333333333,
          "velocity": 0.5905511811023622
        },
        {
          "duration": 0.15625,
          "durationTicks": 75,
          "midi": 83,
          "name": "B5",
          "ticks": 30960,
          "time": 64.5,
          "velocity": 0.5905511811023622
        },
        {
          "duration": 0.15625,
          "durationTicks": 75,
          "midi": 74,
          "name": "D5",
          "ticks": 31040,
          "time": 64.66666666666667,
          "velocity": 0.5905511811023622
        },
        {
          "duration": 0.15625,
          "durationTicks": 75,
          "midi": 76,
          "name": "E5",
          "ticks": 31120,
          "time": 64.83333333333333,
          "velocity": 0.5905511811023622
        },
        {
          "duration": 0.15625,
          "durationTicks": 75,
          "midi": 77,
          "name": "F5",
          "ticks": 31200,
          "time": 65,
          "velocity": 0.5905511811023622
        },
        {
          "duration": 0.15625,
          "durationTicks": 75,
          "midi": 71,
          "name": "B4",
          "ticks": 31280,
          "time": 65.16666666666667,
          "velocity": 0.5905511811023622
        },
        {
          "duration": 0.15625,
          "durationTicks": 75,
          "midi": 72,
          "name": "C5",
          "ticks": 31360,
          "time": 65.33333333333333,
          "velocity": 0.5905511811023622
        },
        {
          "duration": 0.15625,
          "durationTicks": 75,
          "midi": 74,
          "name": "D5",
          "ticks": 31440,
          "time": 65.5,
          "velocity": 0.5905511811023622
        },
        {
          "duration": 0.15625,
          "durationTicks": 75,
          "midi": 68,
          "name": "G#4",
          "ticks": 31520,
          "time": 65.66666666666667,
          "velocity": 0.5905511811023622
        },
        {
          "duration": 0.15625,
          "durationTicks": 75,
          "midi": 69,
          "name": "A4",
          "ticks": 31600,
          "time": 65.83333333333333,
          "velocity": 0.5905511811023622
        },
        {
          "duration": 0.15625,
          "durationTicks": 75,
          "midi": 71,
          "name": "B4",
          "ticks": 31680,
          "time": 66,
          "velocity": 0.5905511811023622
        },
        {
          "duration": 0.15625,
          "durationTicks": 75,
          "midi": 62,
          "name": "D4",
          "ticks": 31760,
          "time": 66.16666666666667,
          "velocity": 0.5905511811023622
        },
        {
          "duration": 0.15625,
          "durationTicks": 75,
          "midi": 64,
          "name": "E4",
          "ticks": 31840,
          "time": 66.33333333333333,
          "velocity": 0.5905511811023622
        },
        {
          "duration": 0.15625,
          "durationTicks": 75,
          "midi": 65,
          "name": "F4",
          "ticks": 31920,
          "time": 66.5,
          "velocity": 0.5905511811023622
        },
        {
          "duration": 0.15625,
          "durationTicks": 75,
          "midi": 59,
          "name": "B3",
          "ticks": 32000,
          "time": 66.66666666666667,
          "velocity": 0.5905511811023622
        },
        {
          "duration": 0.15625,
          "durationTicks": 75,
          "midi": 60,
          "name": "C4",
          "ticks": 32080,
          "time": 66.83333333333333,
          "velocity": 0.5905511811023622
        },
        {
          "duration": 0.15625,
          "durationTicks": 75,
          "midi": 62,
          "name": "D4",
          "ticks": 32160,
          "time": 67,
          "velocity": 0.5905511811023622
        },
        {
          "duration": 0.15625,
          "durationTicks": 75,
          "midi": 56,
          "name": "G#3",
          "ticks": 32240,
          "time": 67.16666666666667,
          "velocity": 0.5905511811023622
        },
        {
          "duration": 0.15625,
          "durationTicks": 75,
          "midi": 57,
          "name": "A3",
          "ticks": 32320,
          "time": 67.33333333333333,
          "velocity": 0.5905511811023622
        },
        {
          "duration": 0.15625,
          "durationTicks": 75,
          "midi": 59,
          "name": "B3",
          "ticks": 32400,
          "time": 67.5,
          "velocity": 0.5905511811023622
        },
        {
          "duration": 0.15625,
          "durationTicks": 75,
          "midi": 61,
          "name": "C#4",
          "ticks": 32480,
          "time": 67.66666666666667,
          "velocity": 0.5905511811023622
        },
        {
          "duration": 0.15625,
          "durationTicks": 75,
          "midi": 62,
          "name": "D4",
          "ticks": 32560,
          "time": 67.83333333333333,
          "velocity": 0.5905511811023622
        },
        {
          "duration": 0.15625,
          "durationTicks": 75,
          "midi": 61,
          "name": "C#4",
          "ticks": 32640,
          "time": 68,
          "velocity": 0.5905511811023622
        },
        {
          "duration": 0.15625,
          "durationTicks": 75,
          "midi": 64,
          "name": "E4",
          "ticks": 32720,
          "time": 68.16666666666667,
          "velocity": 0.5905511811023622
        },
        {
          "duration": 0.15625,
          "durationTicks": 75,
          "midi": 62,
          "name": "D4",
          "ticks": 32800,
          "time": 68.33333333333333,
          "velocity": 0.5905511811023622
        },
        {
          "duration": 0.15625,
          "durationTicks": 75,
          "midi": 61,
          "name": "C#4",
          "ticks": 32880,
          "time": 68.5,
          "velocity": 0.5905511811023622
        },
        {
          "duration": 0.15625,
          "durationTicks": 75,
          "midi": 59,
          "name": "B3",
          "ticks": 32960,
          "time": 68.66666666666667,
          "velocity": 0.5905511811023622
        },
        {
          "duration": 0.15625,
          "durationTicks": 75,
          "midi": 57,
          "name": "A3",
          "ticks": 33040,
          "time": 68.83333333333333,
          "velocity": 0.5905511811023622
        },
        {
          "duration": 0.15625,
          "durationTicks": 75,
          "midi": 65,
          "name": "F4",
          "ticks": 33680,
          "time": 70.16666666666667,
          "velocity": 0.5905511811023622
        },
        {
          "duration": 0.15625,
          "durationTicks": 75,
          "midi": 64,
          "name": "E4",
          "ticks": 33760,
          "time": 70.33333333333333,
          "velocity": 0.5905511811023622
        },
        {
          "duration": 0.15625,
          "durationTicks": 75,
          "midi": 62,
          "name": "D4",
          "ticks": 33840,
          "time": 70.5,
          "velocity": 0.5905511811023622
        },
        {
          "duration": 0.15625,
          "durationTicks": 75,
          "midi": 59,
          "name": "B3",
          "ticks": 33920,
          "time": 70.66666666666667,
          "velocity": 0.5905511811023622
        },
        {
          "duration": 0.15625,
          "durationTicks": 75,
          "midi": 57,
          "name": "A3",
          "ticks": 34000,
          "time": 70.83333333333333,
          "velocity": 0.5905511811023622
        },
        {
          "duration": 0.23541666666666572,
          "durationTicks": 113,
          "midi": 55,
          "name": "G3",
          "ticks": 34080,
          "time": 71,
          "velocity": 0.5905511811023622
        },
        {
          "duration": 0.15625,
          "durationTicks": 75,
          "midi": 67,
          "name": "G4",
          "ticks": 34640,
          "time": 72.16666666666667,
          "velocity": 0.5905511811023622
        },
        {
          "duration": 0.15625,
          "durationTicks": 75,
          "midi": 65,
          "name": "F4",
          "ticks": 34720,
          "time": 72.33333333333333,
          "velocity": 0.5905511811023622
        },
        {
          "duration": 0.15625,
          "durationTicks": 75,
          "midi": 64,
          "name": "E4",
          "ticks": 34800,
          "time": 72.5,
          "velocity": 0.5905511811023622
        },
        {
          "duration": 0.15625,
          "durationTicks": 75,
          "midi": 62,
          "name": "D4",
          "ticks": 34880,
          "time": 72.66666666666667,
          "velocity": 0.5905511811023622
        },
        {
          "duration": 0.15625,
          "durationTicks": 75,
          "midi": 61,
          "name": "C#4",
          "ticks": 34960,
          "time": 72.83333333333333,
          "velocity": 0.5905511811023622
        },
        {
          "duration": 0.15625,
          "durationTicks": 75,
          "midi": 70,
          "name": "A#4",
          "ticks": 35040,
          "time": 73,
          "velocity": 0.5905511811023622
        },
        {
          "duration": 0.15625,
          "durationTicks": 75,
          "midi": 69,
          "name": "A4",
          "ticks": 35120,
          "time": 73.16666666666667,
          "velocity": 0.5905511811023622
        },
        {
          "duration": 0.15625,
          "durationTicks": 75,
          "midi": 67,
          "name": "G4",
          "ticks": 35200,
          "time": 73.33333333333333,
          "velocity": 0.5905511811023622
        },
        {
          "duration": 0.15625,
          "durationTicks": 75,
          "midi": 65,
          "name": "F4",
          "ticks": 35280,
          "time": 73.5,
          "velocity": 0.5905511811023622
        },
        {
          "duration": 0.15625,
          "durationTicks": 75,
          "midi": 64,
          "name": "E4",
          "ticks": 35360,
          "time": 73.66666666666667,
          "velocity": 0.5905511811023622
        },
        {
          "duration": 0.15625,
          "durationTicks": 75,
          "midi": 74,
          "name": "D5",
          "ticks": 35440,
          "time": 73.83333333333333,
          "velocity": 0.5905511811023622
        },
        {
          "duration": 0.15625,
          "durationTicks": 75,
          "midi": 73,
          "name": "C#5",
          "ticks": 35520,
          "time": 74,
          "velocity": 0.5905511811023622
        },
        {
          "duration": 0.15625,
          "durationTicks": 75,
          "midi": 71,
          "name": "B4",
          "ticks": 35600,
          "time": 74.16666666666667,
          "velocity": 0.5905511811023622
        },
        {
          "duration": 0.15625,
          "durationTicks": 75,
          "midi": 69,
          "name": "A4",
          "ticks": 35680,
          "time": 74.33333333333333,
          "velocity": 0.5905511811023622
        },
        {
          "duration": 0.15625,
          "durationTicks": 75,
          "midi": 67,
          "name": "G4",
          "ticks": 35760,
          "time": 74.5,
          "velocity": 0.5905511811023622
        },
        {
          "duration": 0.15625,
          "durationTicks": 75,
          "midi": 77,
          "name": "F5",
          "ticks": 35840,
          "time": 74.66666666666667,
          "velocity": 0.5905511811023622
        },
        {
          "duration": 0.15625,
          "durationTicks": 75,
          "midi": 76,
          "name": "E5",
          "ticks": 35920,
          "time": 74.83333333333333,
          "velocity": 0.5905511811023622
        },
        {
          "duration": 0.15625,
          "durationTicks": 75,
          "midi": 74,
          "name": "D5",
          "ticks": 36000,
          "time": 75,
          "velocity": 0.5905511811023622
        },
        {
          "duration": 0.15625,
          "durationTicks": 75,
          "midi": 73,
          "name": "C#5",
          "ticks": 36080,
          "time": 75.16666666666667,
          "velocity": 0.5905511811023622
        },
        {
          "duration": 0.15625,
          "durationTicks": 75,
          "midi": 71,
          "name": "B4",
          "ticks": 36160,
          "time": 75.33333333333333,
          "velocity": 0.5905511811023622
        },
        {
          "duration": 0.15625,
          "durationTicks": 75,
          "midi": 80,
          "name": "G#5",
          "ticks": 36240,
          "time": 75.5,
          "velocity": 0.5905511811023622
        },
        {
          "duration": 0.15625,
          "durationTicks": 75,
          "midi": 77,
          "name": "F5",
          "ticks": 36320,
          "time": 75.66666666666667,
          "velocity": 0.5905511811023622
        },
        {
          "duration": 0.15625,
          "durationTicks": 75,
          "midi": 76,
          "name": "E5",
          "ticks": 36400,
          "time": 75.83333333333333,
          "velocity": 0.5905511811023622
        },
        {
          "duration": 0.15625,
          "durationTicks": 75,
          "midi": 74,
          "name": "D5",
          "ticks": 36480,
          "time": 76,
          "velocity": 0.5905511811023622
        },
        {
          "duration": 0.15625,
          "durationTicks": 75,
          "midi": 73,
          "name": "C#5",
          "ticks": 36560,
          "time": 76.16666666666667,
          "velocity": 0.5905511811023622
        },
        {
          "duration": 0.15625,
          "durationTicks": 75,
          "midi": 76,
          "name": "E5",
          "ticks": 36640,
          "time": 76.33333333333333,
          "velocity": 0.5905511811023622
        },
        {
          "duration": 0.15625,
          "durationTicks": 75,
          "midi": 81,
          "name": "A5",
          "ticks": 36720,
          "time": 76.5,
          "velocity": 0.5905511811023622
        },
        {
          "duration": 0.15625,
          "durationTicks": 75,
          "midi": 76,
          "name": "E5",
          "ticks": 36800,
          "time": 76.66666666666667,
          "velocity": 0.5905511811023622
        },
        {
          "duration": 0.15625,
          "durationTicks": 75,
          "midi": 73,
          "name": "C#5",
          "ticks": 36880,
          "time": 76.83333333333333,
          "velocity": 0.5905511811023622
        },
        {
          "duration": 0.15625,
          "durationTicks": 75,
          "midi": 76,
          "name": "E5",
          "ticks": 36960,
          "time": 77,
          "velocity": 0.5905511811023622
        },
        {
          "duration": 0.15625,
          "durationTicks": 75,
          "midi": 73,
          "name": "C#5",
          "ticks": 37040,
          "time": 77.16666666666667,
          "velocity": 0.5905511811023622
        },
        {
          "duration": 0.15625,
          "durationTicks": 75,
          "midi": 69,
          "name": "A4",
          "ticks": 37120,
          "time": 77.33333333333333,
          "velocity": 0.5905511811023622
        },
        {
          "duration": 0.15625,
          "durationTicks": 75,
          "midi": 73,
          "name": "C#5",
          "ticks": 37200,
          "time": 77.5,
          "velocity": 0.5905511811023622
        },
        {
          "duration": 0.15625,
          "durationTicks": 75,
          "midi": 69,
          "name": "A4",
          "ticks": 37280,
          "time": 77.66666666666667,
          "velocity": 0.5905511811023622
        },
        {
          "duration": 0.15625,
          "durationTicks": 75,
          "midi": 64,
          "name": "E4",
          "ticks": 37360,
          "time": 77.83333333333333,
          "velocity": 0.5905511811023622
        },
        {
          "duration": 0.15625,
          "durationTicks": 75,
          "midi": 69,
          "name": "A4",
          "ticks": 37440,
          "time": 78,
          "velocity": 0.5905511811023622
        },
        {
          "duration": 0.15625,
          "durationTicks": 75,
          "midi": 64,
          "name": "E4",
          "ticks": 37520,
          "time": 78.16666666666667,
          "velocity": 0.5905511811023622
        },
        {
          "duration": 0.15625,
          "durationTicks": 75,
          "midi": 61,
          "name": "C#4",
          "ticks": 37600,
          "time": 78.33333333333333,
          "velocity": 0.5905511811023622
        },
        {
          "duration": 0.15625,
          "durationTicks": 75,
          "midi": 64,
          "name": "E4",
          "ticks": 37680,
          "time": 78.5,
          "velocity": 0.5905511811023622
        },
        {
          "duration": 0.15625,
          "durationTicks": 75,
          "midi": 61,
          "name": "C#4",
          "ticks": 37760,
          "time": 78.66666666666667,
          "velocity": 0.5905511811023622
        },
        {
          "duration": 0.15625,
          "durationTicks": 75,
          "midi": 57,
          "name": "A3",
          "ticks": 37840,
          "time": 78.83333333333333,
          "velocity": 0.5905511811023622
        },
        {
          "duration": 0.1145833333333286,
          "durationTicks": 55,
          "midi": 81,
          "name": "A5",
          "ticks": 38160,
          "time": 79.5,
          "velocity": 0.5905511811023622
        },
        {
          "duration": 0.1145833333333286,
          "durationTicks": 55,
          "midi": 79,
          "name": "G5",
          "ticks": 38220,
          "time": 79.625,
          "velocity": 0.5905511811023622
        },
        {
          "duration": 0.23541666666666572,
          "durationTicks": 113,
          "midi": 81,
          "name": "A5",
          "ticks": 38280,
          "time": 79.75,
          "velocity": 0.5905511811023622
        },
        {
          "duration": 0.11666666666666003,
          "durationTicks": 56,
          "midi": 64,
          "name": "E4",
          "ticks": 38460,
          "time": 80.125,
          "velocity": 0.5905511811023622
        },
        {
          "duration": 0.11666666666666003,
          "durationTicks": 56,
          "midi": 65,
          "name": "F4",
          "ticks": 38520,
          "time": 80.25,
          "velocity": 0.5905511811023622
        },
        {
          "duration": 0.11666666666666003,
          "durationTicks": 56,
          "midi": 67,
          "name": "G4",
          "ticks": 38580,
          "time": 80.375,
          "velocity": 0.5905511811023622
        },
        {
          "duration": 0.11666666666666003,
          "durationTicks": 56,
          "midi": 69,
          "name": "A4",
          "ticks": 38640,
          "time": 80.5,
          "velocity": 0.5905511811023622
        },
        {
          "duration": 0.11666666666666003,
          "durationTicks": 56,
          "midi": 71,
          "name": "B4",
          "ticks": 38700,
          "time": 80.625,
          "velocity": 0.5905511811023622
        },
        {
          "duration": 0.11666666666666003,
          "durationTicks": 56,
          "midi": 73,
          "name": "C#5",
          "ticks": 38760,
          "time": 80.75,
          "velocity": 0.5905511811023622
        },
        {
          "duration": 0.11666666666666003,
          "durationTicks": 56,
          "midi": 74,
          "name": "D5",
          "ticks": 38820,
          "time": 80.875,
          "velocity": 0.5905511811023622
        },
        {
          "duration": 0.11666666666666003,
          "durationTicks": 56,
          "midi": 76,
          "name": "E5",
          "ticks": 38880,
          "time": 81,
          "velocity": 0.5905511811023622
        },
        {
          "duration": 0.11666666666666003,
          "durationTicks": 56,
          "midi": 77,
          "name": "F5",
          "ticks": 38940,
          "time": 81.125,
          "velocity": 0.5905511811023622
        },
        {
          "duration": 0.11666666666666003,
          "durationTicks": 56,
          "midi": 79,
          "name": "G5",
          "ticks": 39000,
          "time": 81.25,
          "velocity": 0.5905511811023622
        },
        {
          "duration": 0.11666666666666003,
          "durationTicks": 56,
          "midi": 81,
          "name": "A5",
          "ticks": 39060,
          "time": 81.375,
          "velocity": 0.5905511811023622
        },
        {
          "duration": 0.11666666666666003,
          "durationTicks": 56,
          "midi": 82,
          "name": "A#5",
          "ticks": 39120,
          "time": 81.5,
          "velocity": 0.5905511811023622
        },
        {
          "duration": 0.11666666666666003,
          "durationTicks": 56,
          "midi": 81,
          "name": "A5",
          "ticks": 39180,
          "time": 81.625,
          "velocity": 0.5905511811023622
        },
        {
          "duration": 0.11666666666666003,
          "durationTicks": 56,
          "midi": 79,
          "name": "G5",
          "ticks": 39240,
          "time": 81.75,
          "velocity": 0.5905511811023622
        },
        {
          "duration": 0.11666666666666003,
          "durationTicks": 56,
          "midi": 77,
          "name": "F5",
          "ticks": 39300,
          "time": 81.875,
          "velocity": 0.5905511811023622
        },
        {
          "duration": 0.11666666666666003,
          "durationTicks": 56,
          "midi": 76,
          "name": "E5",
          "ticks": 39360,
          "time": 82,
          "velocity": 0.5905511811023622
        },
        {
          "duration": 0.11666666666666003,
          "durationTicks": 56,
          "midi": 77,
          "name": "F5",
          "ticks": 39420,
          "time": 82.125,
          "velocity": 0.5905511811023622
        },
        {
          "duration": 0.11666666666666003,
          "durationTicks": 56,
          "midi": 79,
          "name": "G5",
          "ticks": 39480,
          "time": 82.25,
          "velocity": 0.5905511811023622
        },
        {
          "duration": 0.11666666666666003,
          "durationTicks": 56,
          "midi": 77,
          "name": "F5",
          "ticks": 39540,
          "time": 82.375,
          "velocity": 0.5905511811023622
        },
        {
          "duration": 0.11666666666666003,
          "durationTicks": 56,
          "midi": 76,
          "name": "E5",
          "ticks": 39600,
          "time": 82.5,
          "velocity": 0.5905511811023622
        },
        {
          "duration": 0.11666666666666003,
          "durationTicks": 56,
          "midi": 74,
          "name": "D5",
          "ticks": 39660,
          "time": 82.625,
          "velocity": 0.5905511811023622
        },
        {
          "duration": 0.11666666666666003,
          "durationTicks": 56,
          "midi": 73,
          "name": "C#5",
          "ticks": 39720,
          "time": 82.75,
          "velocity": 0.5905511811023622
        },
        {
          "duration": 0.11666666666666003,
          "durationTicks": 56,
          "midi": 74,
          "name": "D5",
          "ticks": 39780,
          "time": 82.875,
          "velocity": 0.5905511811023622
        },
        {
          "duration": 0.11666666666666003,
          "durationTicks": 56,
          "midi": 76,
          "name": "E5",
          "ticks": 39840,
          "time": 83,
          "velocity": 0.5905511811023622
        },
        {
          "duration": 0.11666666666666003,
          "durationTicks": 56,
          "midi": 74,
          "name": "D5",
          "ticks": 39900,
          "time": 83.125,
          "velocity": 0.5905511811023622
        },
        {
          "duration": 0.11666666666666003,
          "durationTicks": 56,
          "midi": 73,
          "name": "C#5",
          "ticks": 39960,
          "time": 83.25,
          "velocity": 0.5905511811023622
        },
        {
          "duration": 0.11666666666666003,
          "durationTicks": 56,
          "midi": 71,
          "name": "B4",
          "ticks": 40020,
          "time": 83.375,
          "velocity": 0.5905511811023622
        },
        {
          "duration": 0.11666666666666003,
          "durationTicks": 56,
          "midi": 69,
          "name": "A4",
          "ticks": 40080,
          "time": 83.5,
          "velocity": 0.5905511811023622
        },
        {
          "duration": 0.11666666666666003,
          "durationTicks": 56,
          "midi": 67,
          "name": "G4",
          "ticks": 40140,
          "time": 83.625,
          "velocity": 0.5905511811023622
        },
        {
          "duration": 0.11666666666666003,
          "durationTicks": 56,
          "midi": 70,
          "name": "A#4",
          "ticks": 40200,
          "time": 83.75,
          "velocity": 0.5905511811023622
        },
        {
          "duration": 0.11666666666666003,
          "durationTicks": 56,
          "midi": 69,
          "name": "A4",
          "ticks": 40260,
          "time": 83.875,
          "velocity": 0.5905511811023622
        },
        {
          "duration": 0.11666666666666003,
          "durationTicks": 56,
          "midi": 67,
          "name": "G4",
          "ticks": 40320,
          "time": 84,
          "velocity": 0.5905511811023622
        },
        {
          "duration": 0.11666666666666003,
          "durationTicks": 56,
          "midi": 65,
          "name": "F4",
          "ticks": 40380,
          "time": 84.125,
          "velocity": 0.5905511811023622
        },
        {
          "duration": 0.11666666666666003,
          "durationTicks": 56,
          "midi": 64,
          "name": "E4",
          "ticks": 40440,
          "time": 84.25,
          "velocity": 0.5905511811023622
        },
        {
          "duration": 0.11666666666666003,
          "durationTicks": 56,
          "midi": 65,
          "name": "F4",
          "ticks": 40500,
          "time": 84.375,
          "velocity": 0.5905511811023622
        },
        {
          "duration": 0.11666666666666003,
          "durationTicks": 56,
          "midi": 67,
          "name": "G4",
          "ticks": 40560,
          "time": 84.5,
          "velocity": 0.5905511811023622
        },
        {
          "duration": 0.11666666666666003,
          "durationTicks": 56,
          "midi": 65,
          "name": "F4",
          "ticks": 40620,
          "time": 84.625,
          "velocity": 0.5905511811023622
        },
        {
          "duration": 0.11666666666666003,
          "durationTicks": 56,
          "midi": 64,
          "name": "E4",
          "ticks": 40680,
          "time": 84.75,
          "velocity": 0.5905511811023622
        },
        {
          "duration": 0.11666666666666003,
          "durationTicks": 56,
          "midi": 62,
          "name": "D4",
          "ticks": 40740,
          "time": 84.875,
          "velocity": 0.5905511811023622
        },
        {
          "duration": 0.11666666666666003,
          "durationTicks": 56,
          "midi": 61,
          "name": "C#4",
          "ticks": 40800,
          "time": 85,
          "velocity": 0.5905511811023622
        },
        {
          "duration": 0.11666666666666003,
          "durationTicks": 56,
          "midi": 62,
          "name": "D4",
          "ticks": 40860,
          "time": 85.125,
          "velocity": 0.5905511811023622
        },
        {
          "duration": 0.11666666666666003,
          "durationTicks": 56,
          "midi": 64,
          "name": "E4",
          "ticks": 40920,
          "time": 85.25,
          "velocity": 0.5905511811023622
        },
        {
          "duration": 0.11666666666666003,
          "durationTicks": 56,
          "midi": 62,
          "name": "D4",
          "ticks": 40980,
          "time": 85.375,
          "velocity": 0.5905511811023622
        },
        {
          "duration": 0.11666666666666003,
          "durationTicks": 56,
          "midi": 61,
          "name": "C#4",
          "ticks": 41040,
          "time": 85.5,
          "velocity": 0.5905511811023622
        },
        {
          "duration": 0.11666666666666003,
          "durationTicks": 56,
          "midi": 59,
          "name": "B3",
          "ticks": 41100,
          "time": 85.625,
          "velocity": 0.5905511811023622
        },
        {
          "duration": 0.11666666666666003,
          "durationTicks": 56,
          "midi": 57,
          "name": "A3",
          "ticks": 41160,
          "time": 85.75,
          "velocity": 0.5905511811023622
        },
        {
          "duration": 0.11666666666666003,
          "durationTicks": 56,
          "midi": 55,
          "name": "G3",
          "ticks": 41220,
          "time": 85.875,
          "velocity": 0.5905511811023622
        },
        {
          "duration": 0.11666666666666003,
          "durationTicks": 56,
          "midi": 65,
          "name": "F4",
          "ticks": 45120,
          "time": 94,
          "velocity": 0.5905511811023622
        },
        {
          "duration": 0.11666666666666003,
          "durationTicks": 56,
          "midi": 67,
          "name": "G4",
          "ticks": 45180,
          "time": 94.125,
          "velocity": 0.5905511811023622
        },
        {
          "duration": 0.11666666666666003,
          "durationTicks": 56,
          "midi": 69,
          "name": "A4",
          "ticks": 45240,
          "time": 94.25,
          "velocity": 0.5905511811023622
        },
        {
          "duration": 0.11666666666666003,
          "durationTicks": 56,
          "midi": 64,
          "name": "E4",
          "ticks": 45300,
          "time": 94.375,
          "velocity": 0.5905511811023622
        },
        {
          "duration": 0.11666666666666003,
          "durationTicks": 56,
          "midi": 65,
          "name": "F4",
          "ticks": 45360,
          "time": 94.5,
          "velocity": 0.5905511811023622
        },
        {
          "duration": 0.11666666666666003,
          "durationTicks": 56,
          "midi": 61,
          "name": "C#4",
          "ticks": 45420,
          "time": 94.625,
          "velocity": 0.5905511811023622
        },
        {
          "duration": 0.11666666666666003,
          "durationTicks": 56,
          "midi": 62,
          "name": "D4",
          "ticks": 45480,
          "time": 94.75,
          "velocity": 0.5905511811023622
        },
        {
          "duration": 0.11666666666666003,
          "durationTicks": 56,
          "midi": 57,
          "name": "A3",
          "ticks": 45540,
          "time": 94.875,
          "velocity": 0.5905511811023622
        },
        {
          "duration": 0.11666666666666003,
          "durationTicks": 56,
          "midi": 69,
          "name": "A4",
          "ticks": 47040,
          "time": 98,
          "velocity": 0.5905511811023622
        },
        {
          "duration": 0.11666666666666003,
          "durationTicks": 56,
          "midi": 68,
          "name": "G#4",
          "ticks": 47100,
          "time": 98.125,
          "velocity": 0.5905511811023622
        },
        {
          "duration": 0.11666666666666003,
          "durationTicks": 56,
          "midi": 74,
          "name": "D5",
          "ticks": 47160,
          "time": 98.25,
          "velocity": 0.5905511811023622
        },
        {
          "duration": 0.11666666666666003,
          "durationTicks": 56,
          "midi": 72,
          "name": "C5",
          "ticks": 47220,
          "time": 98.375,
          "velocity": 0.5905511811023622
        },
        {
          "duration": 0.11666666666666003,
          "durationTicks": 56,
          "midi": 71,
          "name": "B4",
          "ticks": 47280,
          "time": 98.5,
          "velocity": 0.5905511811023622
        },
        {
          "duration": 0.11666666666666003,
          "durationTicks": 56,
          "midi": 77,
          "name": "F5",
          "ticks": 47340,
          "time": 98.625,
          "velocity": 0.5905511811023622
        },
        {
          "duration": 0.11666666666666003,
          "durationTicks": 56,
          "midi": 76,
          "name": "E5",
          "ticks": 47400,
          "time": 98.75,
          "velocity": 0.5905511811023622
        },
        {
          "duration": 0.11666666666666003,
          "durationTicks": 56,
          "midi": 74,
          "name": "D5",
          "ticks": 47460,
          "time": 98.875,
          "velocity": 0.5905511811023622
        },
        {
          "duration": 0.23541666666666572,
          "durationTicks": 113,
          "midi": 80,
          "name": "G#5",
          "ticks": 47520,
          "time": 99,
          "velocity": 0.5905511811023622
        },
        {
          "duration": 0.056250000000005684,
          "durationTicks": 27,
          "midi": 81,
          "name": "A5",
          "ticks": 47640,
          "time": 99.25,
          "velocity": 0.5905511811023622
        },
        {
          "duration": 0.056250000000005684,
          "durationTicks": 27,
          "midi": 80,
          "name": "G#5",
          "ticks": 47670,
          "time": 99.3125,
          "velocity": 0.5905511811023622
        },
        {
          "duration": 0.056250000000005684,
          "durationTicks": 27,
          "midi": 78,
          "name": "F#5",
          "ticks": 47700,
          "time": 99.375,
          "velocity": 0.5905511811023622
        },
        {
          "duration": 0.056250000000005684,
          "durationTicks": 27,
          "midi": 80,
          "name": "G#5",
          "ticks": 47730,
          "time": 99.4375,
          "velocity": 0.5905511811023622
        },
        {
          "duration": 0.08541666666666003,
          "durationTicks": 41,
          "midi": 80,
          "name": "G#5",
          "ticks": 47760,
          "time": 99.5,
          "velocity": 0.5905511811023622
        },
        {
          "duration": 0.08541666666666003,
          "durationTicks": 41,
          "midi": 81,
          "name": "A5",
          "ticks": 47805,
          "time": 99.59375,
          "velocity": 0.5905511811023622
        },
        {
          "duration": 0.08541666666666003,
          "durationTicks": 41,
          "midi": 80,
          "name": "G#5",
          "ticks": 47850,
          "time": 99.6875,
          "velocity": 0.5905511811023622
        },
        {
          "duration": 0.08541666666666003,
          "durationTicks": 41,
          "midi": 81,
          "name": "A5",
          "ticks": 47895,
          "time": 99.78125,
          "velocity": 0.5905511811023622
        },
        {
          "duration": 0.056250000000005684,
          "durationTicks": 27,
          "midi": 78,
          "name": "F#5",
          "ticks": 47940,
          "time": 99.875,
          "velocity": 0.5905511811023622
        },
        {
          "duration": 0.056250000000005684,
          "durationTicks": 27,
          "midi": 80,
          "name": "G#5",
          "ticks": 47970,
          "time": 99.9375,
          "velocity": 0.5905511811023622
        },
        {
          "duration": 0.15625,
          "durationTicks": 75,
          "midi": 81,
          "name": "A5",
          "ticks": 48000,
          "time": 100,
          "velocity": 0.5905511811023622
        },
        {
          "duration": 0.15625,
          "durationTicks": 75,
          "midi": 86,
          "name": "D6",
          "ticks": 48080,
          "time": 100.16666666666667,
          "velocity": 0.5905511811023622
        },
        {
          "duration": 0.15625,
          "durationTicks": 75,
          "midi": 81,
          "name": "A5",
          "ticks": 48160,
          "time": 100.33333333333333,
          "velocity": 0.5905511811023622
        },
        {
          "duration": 0.15625,
          "durationTicks": 75,
          "midi": 77,
          "name": "F5",
          "ticks": 48240,
          "time": 100.5,
          "velocity": 0.5905511811023622
        },
        {
          "duration": 0.15625,
          "durationTicks": 75,
          "midi": 81,
          "name": "A5",
          "ticks": 48320,
          "time": 100.66666666666667,
          "velocity": 0.5905511811023622
        },
        {
          "duration": 0.15625,
          "durationTicks": 75,
          "midi": 77,
          "name": "F5",
          "ticks": 48400,
          "time": 100.83333333333333,
          "velocity": 0.5905511811023622
        },
        {
          "duration": 0.15625,
          "durationTicks": 75,
          "midi": 74,
          "name": "D5",
          "ticks": 48480,
          "time": 101,
          "velocity": 0.5905511811023622
        },
        {
          "duration": 0.15625,
          "durationTicks": 75,
          "midi": 77,
          "name": "F5",
          "ticks": 48560,
          "time": 101.16666666666667,
          "velocity": 0.5905511811023622
        },
        {
          "duration": 0.15625,
          "durationTicks": 75,
          "midi": 74,
          "name": "D5",
          "ticks": 48640,
          "time": 101.33333333333333,
          "velocity": 0.5905511811023622
        },
        {
          "duration": 0.15625,
          "durationTicks": 75,
          "midi": 69,
          "name": "A4",
          "ticks": 48720,
          "time": 101.5,
          "velocity": 0.5905511811023622
        },
        {
          "duration": 0.15625,
          "durationTicks": 75,
          "midi": 74,
          "name": "D5",
          "ticks": 48800,
          "time": 101.66666666666667,
          "velocity": 0.5905511811023622
        },
        {
          "duration": 0.15625,
          "durationTicks": 75,
          "midi": 69,
          "name": "A4",
          "ticks": 48880,
          "time": 101.83333333333333,
          "velocity": 0.5905511811023622
        },
        {
          "duration": 0.15625,
          "durationTicks": 75,
          "midi": 65,
          "name": "F4",
          "ticks": 48960,
          "time": 102,
          "velocity": 0.5905511811023622
        },
        {
          "duration": 0.15625,
          "durationTicks": 75,
          "midi": 69,
          "name": "A4",
          "ticks": 49040,
          "time": 102.16666666666667,
          "velocity": 0.5905511811023622
        },
        {
          "duration": 0.15625,
          "durationTicks": 75,
          "midi": 65,
          "name": "F4",
          "ticks": 49120,
          "time": 102.33333333333333,
          "velocity": 0.5905511811023622
        },
        {
          "duration": 0.15625,
          "durationTicks": 75,
          "midi": 62,
          "name": "D4",
          "ticks": 49200,
          "time": 102.5,
          "velocity": 0.5905511811023622
        },
        {
          "duration": 0.15625,
          "durationTicks": 75,
          "midi": 65,
          "name": "F4",
          "ticks": 49280,
          "time": 102.66666666666667,
          "velocity": 0.5905511811023622
        },
        {
          "duration": 0.15625,
          "durationTicks": 75,
          "midi": 62,
          "name": "D4",
          "ticks": 49360,
          "time": 102.83333333333333,
          "velocity": 0.5905511811023622
        },
        {
          "duration": 0.15625,
          "durationTicks": 75,
          "midi": 57,
          "name": "A3",
          "ticks": 49440,
          "time": 103,
          "velocity": 0.5905511811023622
        },
        {
          "duration": 0.15625,
          "durationTicks": 75,
          "midi": 62,
          "name": "D4",
          "ticks": 49520,
          "time": 103.16666666666667,
          "velocity": 0.5905511811023622
        },
        {
          "duration": 0.15625,
          "durationTicks": 75,
          "midi": 57,
          "name": "A3",
          "ticks": 49600,
          "time": 103.33333333333333,
          "velocity": 0.5905511811023622
        },
        {
          "duration": 0.15625,
          "durationTicks": 75,
          "midi": 53,
          "name": "F3",
          "ticks": 49680,
          "time": 103.5,
          "velocity": 0.5905511811023622
        },
        {
          "duration": 0.15625,
          "durationTicks": 75,
          "midi": 57,
          "name": "A3",
          "ticks": 49760,
          "time": 103.66666666666667,
          "velocity": 0.5905511811023622
        },
        {
          "duration": 0.15625,
          "durationTicks": 75,
          "midi": 53,
          "name": "F3",
          "ticks": 49840,
          "time": 103.83333333333333,
          "velocity": 0.5905511811023622
        },
        {
          "duration": 1.9979166666666686,
          "durationTicks": 959,
          "midi": 64,
          "name": "E4",
          "ticks": 50880,
          "time": 106,
          "velocity": 0.5905511811023622
        },
        {
          "duration": 1.9312500000000057,
          "durationTicks": 927,
          "midi": 67,
          "name": "G4",
          "ticks": 50911,
          "time": 106.06458333333333,
          "velocity": 0.5905511811023622
        },
        {
          "duration": 1.8645833333333428,
          "durationTicks": 895,
          "midi": 70,
          "name": "A#4",
          "ticks": 50943,
          "time": 106.13125,
          "velocity": 0.5905511811023622
        },
        {
          "duration": 1.7979166666666657,
          "durationTicks": 863,
          "midi": 76,
          "name": "E5",
          "ticks": 50976,
          "time": 106.2,
          "velocity": 0.5905511811023622
        },
        {
          "duration": 1.9979166666666686,
          "durationTicks": 959,
          "midi": 65,
          "name": "F4",
          "ticks": 51840,
          "time": 108,
          "velocity": 0.5905511811023622
        },
        {
          "duration": 1.9312500000000057,
          "durationTicks": 927,
          "midi": 69,
          "name": "A4",
          "ticks": 51871,
          "time": 108.06458333333333,
          "velocity": 0.5905511811023622
        },
        {
          "duration": 1.8645833333333428,
          "durationTicks": 895,
          "midi": 74,
          "name": "D5",
          "ticks": 51903,
          "time": 108.13125,
          "velocity": 0.5905511811023622
        },
        {
          "duration": 1.7979166666666657,
          "durationTicks": 863,
          "midi": 77,
          "name": "F5",
          "ticks": 51936,
          "time": 108.2,
          "velocity": 0.5905511811023622
        },
        {
          "duration": 1.9979166666666686,
          "durationTicks": 959,
          "midi": 69,
          "name": "A4",
          "ticks": 52800,
          "time": 110,
          "velocity": 0.5905511811023622
        },
        {
          "duration": 1.9312500000000057,
          "durationTicks": 927,
          "midi": 72,
          "name": "C5",
          "ticks": 52831,
          "time": 110.06458333333333,
          "velocity": 0.5905511811023622
        },
        {
          "duration": 1.8645833333333428,
          "durationTicks": 895,
          "midi": 75,
          "name": "D#5",
          "ticks": 52863,
          "time": 110.13125,
          "velocity": 0.5905511811023622
        },
        {
          "duration": 1.7979166666666657,
          "durationTicks": 863,
          "midi": 78,
          "name": "F#5",
          "ticks": 52896,
          "time": 110.2,
          "velocity": 0.5905511811023622
        },
        {
          "duration": 1.9979166666666686,
          "durationTicks": 959,
          "midi": 67,
          "name": "G4",
          "ticks": 53760,
          "time": 112,
          "velocity": 0.5905511811023622
        },
        {
          "duration": 1.9312500000000057,
          "durationTicks": 927,
          "midi": 70,
          "name": "A#4",
          "ticks": 53791,
          "time": 112.06458333333333,
          "velocity": 0.5905511811023622
        },
        {
          "duration": 1.8645833333333428,
          "durationTicks": 895,
          "midi": 74,
          "name": "D5",
          "ticks": 53823,
          "time": 112.13125,
          "velocity": 0.5905511811023622
        },
        {
          "duration": 1.7979166666666657,
          "durationTicks": 863,
          "midi": 79,
          "name": "G5",
          "ticks": 53856,
          "time": 112.2,
          "velocity": 0.5905511811023622
        },
        {
          "duration": 1.9979166666666686,
          "durationTicks": 959,
          "midi": 71,
          "name": "B4",
          "ticks": 54720,
          "time": 114,
          "velocity": 0.5905511811023622
        },
        {
          "duration": 1.9312500000000057,
          "durationTicks": 927,
          "midi": 74,
          "name": "D5",
          "ticks": 54751,
          "time": 114.06458333333333,
          "velocity": 0.5905511811023622
        },
        {
          "duration": 1.8645833333333428,
          "durationTicks": 895,
          "midi": 77,
          "name": "F5",
          "ticks": 54783,
          "time": 114.13125,
          "velocity": 0.5905511811023622
        },
        {
          "duration": 1.7979166666666657,
          "durationTicks": 863,
          "midi": 80,
          "name": "G#5",
          "ticks": 54816,
          "time": 114.2,
          "velocity": 0.5905511811023622
        },
        {
          "duration": 0.3541666666666714,
          "durationTicks": 170,
          "midi": 81,
          "name": "A5",
          "ticks": 55680,
          "time": 116,
          "velocity": 0.5905511811023622
        },
        {
          "duration": 0.9979166666666686,
          "durationTicks": 479,
          "midi": 69,
          "name": "A4",
          "ticks": 55680,
          "time": 116,
          "velocity": 0.5905511811023622
        },
        {
          "duration": 0.9312500000000057,
          "durationTicks": 447,
          "midi": 73,
          "name": "C#5",
          "ticks": 55711,
          "time": 116.06458333333333,
          "velocity": 0.5905511811023622
        },
        {
          "duration": 0.8645833333333428,
          "durationTicks": 415,
          "midi": 76,
          "name": "E5",
          "ticks": 55743,
          "time": 116.13125,
          "velocity": 0.5905511811023622
        },
        {
          "duration": 0.11666666666666003,
          "durationTicks": 56,
          "midi": 81,
          "name": "A5",
          "ticks": 55860,
          "time": 116.375,
          "velocity": 0.5905511811023622
        },
        {
          "duration": 0.11666666666666003,
          "durationTicks": 56,
          "midi": 82,
          "name": "A#5",
          "ticks": 55920,
          "time": 116.5,
          "velocity": 0.5905511811023622
        },
        {
          "duration": 0.11666666666666003,
          "durationTicks": 56,
          "midi": 81,
          "name": "A5",
          "ticks": 55980,
          "time": 116.625,
          "velocity": 0.5905511811023622
        },
        {
          "duration": 0.11666666666666003,
          "durationTicks": 56,
          "midi": 79,
          "name": "G5",
          "ticks": 56040,
          "time": 116.75,
          "velocity": 0.5905511811023622
        },
        {
          "duration": 0.11666666666666003,
          "durationTicks": 56,
          "midi": 81,
          "name": "A5",
          "ticks": 56100,
          "time": 116.875,
          "velocity": 0.5905511811023622
        },
        {
          "duration": 0.1145833333333286,
          "durationTicks": 55,
          "midi": 81,
          "name": "A5",
          "ticks": 56160,
          "time": 117,
          "velocity": 0.5905511811023622
        },
        {
          "duration": 0.1145833333333286,
          "durationTicks": 55,
          "midi": 82,
          "name": "A#5",
          "ticks": 56219,
          "time": 117.12291666666667,
          "velocity": 0.5905511811023622
        },
        {
          "duration": 0.47083333333333144,
          "durationTicks": 226,
          "midi": 81,
          "name": "A5",
          "ticks": 56279,
          "time": 117.24791666666667,
          "velocity": 0.5905511811023622
        },
        {
          "duration": 0.11666666666666003,
          "durationTicks": 56,
          "midi": 79,
          "name": "G5",
          "ticks": 56520,
          "time": 117.75,
          "velocity": 0.5905511811023622
        },
        {
          "duration": 0.11666666666666003,
          "durationTicks": 56,
          "midi": 81,
          "name": "A5",
          "ticks": 56580,
          "time": 117.875,
          "velocity": 0.5905511811023622
        },
        {
          "duration": 2.0166666666666657,
          "durationTicks": 968,
          "midi": 82,
          "name": "A#5",
          "ticks": 56640,
          "time": 118,
          "velocity": 0.5905511811023622
        },
        {
          "duration": 1.89791666666666,
          "durationTicks": 911,
          "midi": 73,
          "name": "C#5",
          "ticks": 56640,
          "time": 118,
          "velocity": 0.5905511811023622
        },
        {
          "duration": 1.89791666666666,
          "durationTicks": 911,
          "midi": 76,
          "name": "E5",
          "ticks": 56640,
          "time": 118,
          "velocity": 0.5905511811023622
        },
        {
          "duration": 1.89791666666666,
          "durationTicks": 911,
          "midi": 79,
          "name": "G5",
          "ticks": 56640,
          "time": 118,
          "velocity": 0.5905511811023622
        },
        {
          "duration": 0.11666666666666003,
          "durationTicks": 56,
          "midi": 81,
          "name": "A5",
          "ticks": 57660,
          "time": 120.125,
          "velocity": 0.5905511811023622
        },
        {
          "duration": 0.11666666666666003,
          "durationTicks": 56,
          "midi": 79,
          "name": "G5",
          "ticks": 57720,
          "time": 120.25,
          "velocity": 0.5905511811023622
        },
        {
          "duration": 0.11666666666666003,
          "durationTicks": 56,
          "midi": 77,
          "name": "F5",
          "ticks": 57780,
          "time": 120.375,
          "velocity": 0.5905511811023622
        },
        {
          "duration": 0.11666666666666003,
          "durationTicks": 56,
          "midi": 76,
          "name": "E5",
          "ticks": 57840,
          "time": 120.5,
          "velocity": 0.5905511811023622
        },
        {
          "duration": 0.11666666666666003,
          "durationTicks": 56,
          "midi": 77,
          "name": "F5",
          "ticks": 57900,
          "time": 120.625,
          "velocity": 0.5905511811023622
        },
        {
          "duration": 0.11666666666666003,
          "durationTicks": 56,
          "midi": 79,
          "name": "G5",
          "ticks": 57960,
          "time": 120.75,
          "velocity": 0.5905511811023622
        },
        {
          "duration": 0.11666666666666003,
          "durationTicks": 56,
          "midi": 76,
          "name": "E5",
          "ticks": 58020,
          "time": 120.875,
          "velocity": 0.5905511811023622
        },
        {
          "duration": 0.11666666666666003,
          "durationTicks": 56,
          "midi": 73,
          "name": "C#5",
          "ticks": 58080,
          "time": 121,
          "velocity": 0.5905511811023622
        },
        {
          "duration": 0.11666666666666003,
          "durationTicks": 56,
          "midi": 74,
          "name": "D5",
          "ticks": 58140,
          "time": 121.125,
          "velocity": 0.5905511811023622
        },
        {
          "duration": 0.11666666666666003,
          "durationTicks": 56,
          "midi": 76,
          "name": "E5",
          "ticks": 58200,
          "time": 121.25,
          "velocity": 0.5905511811023622
        },
        {
          "duration": 0.11666666666666003,
          "durationTicks": 56,
          "midi": 73,
          "name": "C#5",
          "ticks": 58260,
          "time": 121.375,
          "velocity": 0.5905511811023622
        },
        {
          "duration": 0.11666666666666003,
          "durationTicks": 56,
          "midi": 67,
          "name": "G4",
          "ticks": 58320,
          "time": 121.5,
          "velocity": 0.5905511811023622
        },
        {
          "duration": 0.11666666666666003,
          "durationTicks": 56,
          "midi": 69,
          "name": "A4",
          "ticks": 58380,
          "time": 121.625,
          "velocity": 0.5905511811023622
        },
        {
          "duration": 0.11666666666666003,
          "durationTicks": 56,
          "midi": 70,
          "name": "A#4",
          "ticks": 58440,
          "time": 121.75,
          "velocity": 0.5905511811023622
        },
        {
          "duration": 0.11666666666666003,
          "durationTicks": 56,
          "midi": 67,
          "name": "G4",
          "ticks": 58500,
          "time": 121.875,
          "velocity": 0.5905511811023622
        },
        {
          "duration": 0.11666666666666003,
          "durationTicks": 56,
          "midi": 64,
          "name": "E4",
          "ticks": 58560,
          "time": 122,
          "velocity": 0.5905511811023622
        },
        {
          "duration": 0.11666666666666003,
          "durationTicks": 56,
          "midi": 65,
          "name": "F4",
          "ticks": 58620,
          "time": 122.125,
          "velocity": 0.5905511811023622
        },
        {
          "duration": 0.11666666666666003,
          "durationTicks": 56,
          "midi": 67,
          "name": "G4",
          "ticks": 58680,
          "time": 122.25,
          "velocity": 0.5905511811023622
        },
        {
          "duration": 0.11666666666666003,
          "durationTicks": 56,
          "midi": 64,
          "name": "E4",
          "ticks": 58740,
          "time": 122.375,
          "velocity": 0.5905511811023622
        },
        {
          "duration": 0.11666666666666003,
          "durationTicks": 56,
          "midi": 61,
          "name": "C#4",
          "ticks": 58800,
          "time": 122.5,
          "velocity": 0.5905511811023622
        },
        {
          "duration": 0.11666666666666003,
          "durationTicks": 56,
          "midi": 62,
          "name": "D4",
          "ticks": 58860,
          "time": 122.625,
          "velocity": 0.5905511811023622
        },
        {
          "duration": 0.11666666666666003,
          "durationTicks": 56,
          "midi": 64,
          "name": "E4",
          "ticks": 58920,
          "time": 122.75,
          "velocity": 0.5905511811023622
        },
        {
          "duration": 0.11666666666666003,
          "durationTicks": 56,
          "midi": 61,
          "name": "C#4",
          "ticks": 58980,
          "time": 122.875,
          "velocity": 0.5905511811023622
        },
        {
          "duration": 1.9979166666666686,
          "durationTicks": 959,
          "midi": 66,
          "name": "F#4",
          "ticks": 61440,
          "time": 128,
          "velocity": 0.5905511811023622
        },
        {
          "duration": 1.9312500000000057,
          "durationTicks": 927,
          "midi": 69,
          "name": "A4",
          "ticks": 61471,
          "time": 128.06458333333333,
          "velocity": 0.5905511811023622
        },
        {
          "duration": 1.8645833333333428,
          "durationTicks": 895,
          "midi": 72,
          "name": "C5",
          "ticks": 61503,
          "time": 128.13125,
          "velocity": 0.5905511811023622
        },
        {
          "duration": 1.79791666666668,
          "durationTicks": 863,
          "midi": 75,
          "name": "D#5",
          "ticks": 61536,
          "time": 128.2,
          "velocity": 0.5905511811023622
        },
        {
          "duration": 0.9479166666666572,
          "durationTicks": 455,
          "midi": 74,
          "name": "D5",
          "ticks": 62400,
          "time": 130,
          "velocity": 0.5905511811023622
        },
        {
          "duration": 1.9979166666666686,
          "durationTicks": 959,
          "midi": 62,
          "name": "D4",
          "ticks": 62400,
          "time": 130,
          "velocity": 0.5905511811023622
        },
        {
          "duration": 1.9312500000000057,
          "durationTicks": 927,
          "midi": 66,
          "name": "F#4",
          "ticks": 62431,
          "time": 130.06458333333333,
          "velocity": 0.5905511811023622
        },
        {
          "duration": 1.8645833333333428,
          "durationTicks": 895,
          "midi": 69,
          "name": "A4",
          "ticks": 62463,
          "time": 130.13125,
          "velocity": 0.5905511811023622
        },
        {
          "duration": 0.9479166666666572,
          "durationTicks": 455,
          "midi": 72,
          "name": "C5",
          "ticks": 62880,
          "time": 131,
          "velocity": 0.5905511811023622
        },
        {
          "duration": 1.9979166666666686,
          "durationTicks": 959,
          "midi": 63,
          "name": "D#4",
          "ticks": 63360,
          "time": 132,
          "velocity": 0.5905511811023622
        },
        {
          "duration": 1.9312500000000057,
          "durationTicks": 927,
          "midi": 66,
          "name": "F#4",
          "ticks": 63391,
          "time": 132.06458333333333,
          "velocity": 0.5905511811023622
        },
        {
          "duration": 1.8645833333333428,
          "durationTicks": 895,
          "midi": 69,
          "name": "A4",
          "ticks": 63423,
          "time": 132.13125,
          "velocity": 0.5905511811023622
        },
        {
          "duration": 1.79791666666668,
          "durationTicks": 863,
          "midi": 71,
          "name": "B4",
          "ticks": 63456,
          "time": 132.2,
          "velocity": 0.5905511811023622
        },
        {
          "duration": 1.9979166666666686,
          "durationTicks": 959,
          "midi": 63,
          "name": "D#4",
          "ticks": 64320,
          "time": 134,
          "velocity": 0.5905511811023622
        },
        {
          "duration": 1.9312500000000057,
          "durationTicks": 927,
          "midi": 66,
          "name": "F#4",
          "ticks": 64351,
          "time": 134.06458333333333,
          "velocity": 0.5905511811023622
        },
        {
          "duration": 1.8645833333333428,
          "durationTicks": 895,
          "midi": 69,
          "name": "A4",
          "ticks": 64383,
          "time": 134.13125,
          "velocity": 0.5905511811023622
        },
        {
          "duration": 1.79791666666668,
          "durationTicks": 863,
          "midi": 72,
          "name": "C5",
          "ticks": 64416,
          "time": 134.2,
          "velocity": 0.5905511811023622
        },
        {
          "duration": 1.9979166666666686,
          "durationTicks": 959,
          "midi": 64,
          "name": "E4",
          "ticks": 65280,
          "time": 136,
          "velocity": 0.5905511811023622
        },
        {
          "duration": 1.9312500000000057,
          "durationTicks": 927,
          "midi": 67,
          "name": "G4",
          "ticks": 65311,
          "time": 136.06458333333333,
          "velocity": 0.5905511811023622
        },
        {
          "duration": 1.8645833333333428,
          "durationTicks": 895,
          "midi": 70,
          "name": "A#4",
          "ticks": 65343,
          "time": 136.13125,
          "velocity": 0.5905511811023622
        },
        {
          "duration": 1.79791666666668,
          "durationTicks": 863,
          "midi": 73,
          "name": "C#5",
          "ticks": 65376,
          "time": 136.2,
          "velocity": 0.5905511811023622
        },
        {
          "duration": 1.9979166666666686,
          "durationTicks": 959,
          "midi": 65,
          "name": "F4",
          "ticks": 66240,
          "time": 138,
          "velocity": 0.5905511811023622
        },
        {
          "duration": 1.9312500000000057,
          "durationTicks": 927,
          "midi": 68,
          "name": "G#4",
          "ticks": 66271,
          "time": 138.06458333333333,
          "velocity": 0.5905511811023622
        },
        {
          "duration": 1.8645833333333428,
          "durationTicks": 895,
          "midi": 71,
          "name": "B4",
          "ticks": 66303,
          "time": 138.13125,
          "velocity": 0.5905511811023622
        },
        {
          "duration": 1.79791666666668,
          "durationTicks": 863,
          "midi": 74,
          "name": "D5",
          "ticks": 66336,
          "time": 138.2,
          "velocity": 0.5905511811023622
        },
        {
          "duration": 1.9979166666666686,
          "durationTicks": 959,
          "midi": 64,
          "name": "E4",
          "ticks": 67200,
          "time": 140,
          "velocity": 0.5905511811023622
        },
        {
          "duration": 1.9312500000000057,
          "durationTicks": 927,
          "midi": 68,
          "name": "G#4",
          "ticks": 67231,
          "time": 140.06458333333333,
          "velocity": 0.5905511811023622
        },
        {
          "duration": 1.8645833333333428,
          "durationTicks": 895,
          "midi": 71,
          "name": "B4",
          "ticks": 67263,
          "time": 140.13125,
          "velocity": 0.5905511811023622
        },
        {
          "duration": 1.79791666666668,
          "durationTicks": 863,
          "midi": 74,
          "name": "D5",
          "ticks": 67296,
          "time": 140.2,
          "velocity": 0.5905511811023622
        },
        {
          "duration": 1.9979166666666686,
          "durationTicks": 959,
          "midi": 64,
          "name": "E4",
          "ticks": 68160,
          "time": 142,
          "velocity": 0.5905511811023622
        },
        {
          "duration": 1.9312500000000057,
          "durationTicks": 927,
          "midi": 69,
          "name": "A4",
          "ticks": 68191,
          "time": 142.06458333333333,
          "velocity": 0.5905511811023622
        },
        {
          "duration": 1.8645833333333428,
          "durationTicks": 895,
          "midi": 72,
          "name": "C5",
          "ticks": 68223,
          "time": 142.13125,
          "velocity": 0.5905511811023622
        },
        {
          "duration": 1.9979166666666686,
          "durationTicks": 959,
          "midi": 63,
          "name": "D#4",
          "ticks": 69120,
          "time": 144,
          "velocity": 0.5905511811023622
        },
        {
          "duration": 1.9312500000000057,
          "durationTicks": 927,
          "midi": 69,
          "name": "A4",
          "ticks": 69151,
          "time": 144.06458333333333,
          "velocity": 0.5905511811023622
        },
        {
          "duration": 1.8645833333333428,
          "durationTicks": 895,
          "midi": 72,
          "name": "C5",
          "ticks": 69183,
          "time": 144.13125,
          "velocity": 0.5905511811023622
        },
        {
          "duration": 1.9979166666666686,
          "durationTicks": 959,
          "midi": 64,
          "name": "E4",
          "ticks": 70080,
          "time": 146,
          "velocity": 0.5905511811023622
        },
        {
          "duration": 1.9312500000000057,
          "durationTicks": 927,
          "midi": 70,
          "name": "A#4",
          "ticks": 70111,
          "time": 146.06458333333333,
          "velocity": 0.5905511811023622
        },
        {
          "duration": 1.8645833333333428,
          "durationTicks": 895,
          "midi": 73,
          "name": "C#5",
          "ticks": 70143,
          "time": 146.13125,
          "velocity": 0.5905511811023622
        },
        {
          "duration": 1.9979166666666686,
          "durationTicks": 959,
          "midi": 65,
          "name": "F4",
          "ticks": 71040,
          "time": 148,
          "velocity": 0.5905511811023622
        },
        {
          "duration": 1.9312500000000057,
          "durationTicks": 927,
          "midi": 69,
          "name": "A4",
          "ticks": 71071,
          "time": 148.06458333333333,
          "velocity": 0.5905511811023622
        },
        {
          "duration": 1.8645833333333428,
          "durationTicks": 895,
          "midi": 72,
          "name": "C5",
          "ticks": 71103,
          "time": 148.13125,
          "velocity": 0.5905511811023622
        },
        {
          "duration": 1.79791666666668,
          "durationTicks": 863,
          "midi": 75,
          "name": "D#5",
          "ticks": 71136,
          "time": 148.2,
          "velocity": 0.5905511811023622
        },
        {
          "duration": 1.9979166666666686,
          "durationTicks": 959,
          "midi": 64,
          "name": "E4",
          "ticks": 72000,
          "time": 150,
          "velocity": 0.5905511811023622
        },
        {
          "duration": 1.9312500000000057,
          "durationTicks": 927,
          "midi": 67,
          "name": "G4",
          "ticks": 72031,
          "time": 150.06458333333333,
          "velocity": 0.5905511811023622
        },
        {
          "duration": 1.8645833333333428,
          "durationTicks": 895,
          "midi": 70,
          "name": "A#4",
          "ticks": 72063,
          "time": 150.13125,
          "velocity": 0.5905511811023622
        },
        {
          "duration": 1.79791666666668,
          "durationTicks": 863,
          "midi": 73,
          "name": "C#5",
          "ticks": 72096,
          "time": 150.2,
          "velocity": 0.5905511811023622
        },
        {
          "duration": 1.8979166666666742,
          "durationTicks": 911,
          "midi": 74,
          "name": "D5",
          "ticks": 72960,
          "time": 152,
          "velocity": 0.5905511811023622
        },
        {
          "duration": 1.9979166666666686,
          "durationTicks": 959,
          "midi": 65,
          "name": "F4",
          "ticks": 72960,
          "time": 152,
          "velocity": 0.5905511811023622
        },
        {
          "duration": 1.9312500000000057,
          "durationTicks": 927,
          "midi": 69,
          "name": "A4",
          "ticks": 72991,
          "time": 152.06458333333333,
          "velocity": 0.5905511811023622
        },
        {
          "duration": 1.9979166666666686,
          "durationTicks": 959,
          "midi": 62,
          "name": "D4",
          "ticks": 73920,
          "time": 154,
          "velocity": 0.5905511811023622
        },
        {
          "duration": 1.9312500000000057,
          "durationTicks": 927,
          "midi": 66,
          "name": "F#4",
          "ticks": 73951,
          "time": 154.06458333333333,
          "velocity": 0.5905511811023622
        },
        {
          "duration": 1.8645833333333428,
          "durationTicks": 895,
          "midi": 69,
          "name": "A4",
          "ticks": 73983,
          "time": 154.13125,
          "velocity": 0.5905511811023622
        },
        {
          "duration": 1.79791666666668,
          "durationTicks": 863,
          "midi": 72,
          "name": "C5",
          "ticks": 74016,
          "time": 154.2,
          "velocity": 0.5905511811023622
        },
        {
          "duration": 1.9979166666666686,
          "durationTicks": 959,
          "midi": 63,
          "name": "D#4",
          "ticks": 74880,
          "time": 156,
          "velocity": 0.5905511811023622
        },
        {
          "duration": 1.9312500000000057,
          "durationTicks": 927,
          "midi": 67,
          "name": "G4",
          "ticks": 74911,
          "time": 156.06458333333333,
          "velocity": 0.5905511811023622
        },
        {
          "duration": 1.8645833333333428,
          "durationTicks": 895,
          "midi": 70,
          "name": "A#4",
          "ticks": 74943,
          "time": 156.13125,
          "velocity": 0.5905511811023622
        },
        {
          "duration": 3.9979166666666686,
          "durationTicks": 1919,
          "midi": 67,
          "name": "G4",
          "ticks": 75840,
          "time": 158,
          "velocity": 0.5905511811023622
        },
        {
          "duration": 0.9479166666666572,
          "durationTicks": 455,
          "midi": 63,
          "name": "D#4",
          "ticks": 75840,
          "time": 158,
          "velocity": 0.5905511811023622
        },
        {
          "duration": 3.933333333333337,
          "durationTicks": 1888,
          "midi": 70,
          "name": "A#4",
          "ticks": 75870,
          "time": 158.0625,
          "velocity": 0.5905511811023622
        },
        {
          "duration": 0.9479166666666572,
          "durationTicks": 455,
          "midi": 62,
          "name": "D4",
          "ticks": 76320,
          "time": 159,
          "velocity": 0.5905511811023622
        },
        {
          "duration": 1.8979166666666742,
          "durationTicks": 911,
          "midi": 61,
          "name": "C#4",
          "ticks": 76800,
          "time": 160,
          "velocity": 0.5905511811023622
        },
        {
          "duration": 1.8979166666666742,
          "durationTicks": 911,
          "midi": 64,
          "name": "E4",
          "ticks": 76800,
          "time": 160,
          "velocity": 0.5905511811023622
        },
        {
          "duration": 1.9979166666666686,
          "durationTicks": 959,
          "midi": 61,
          "name": "C#4",
          "ticks": 77760,
          "time": 162,
          "velocity": 0.5905511811023622
        },
        {
          "duration": 1.9312500000000057,
          "durationTicks": 927,
          "midi": 64,
          "name": "E4",
          "ticks": 77791,
          "time": 162.06458333333333,
          "velocity": 0.5905511811023622
        },
        {
          "duration": 1.8645833333333428,
          "durationTicks": 895,
          "midi": 65,
          "name": "F4",
          "ticks": 77823,
          "time": 162.13125,
          "velocity": 0.5905511811023622
        },
        {
          "duration": 1.79791666666668,
          "durationTicks": 863,
          "midi": 69,
          "name": "A4",
          "ticks": 77856,
          "time": 162.2,
          "velocity": 0.5905511811023622
        },
        {
          "duration": 1.9979166666666686,
          "durationTicks": 959,
          "midi": 62,
          "name": "D4",
          "ticks": 78720,
          "time": 164,
          "velocity": 0.5905511811023622
        },
        {
          "duration": 1.9395833333333314,
          "durationTicks": 931,
          "midi": 65,
          "name": "F4",
          "ticks": 78747,
          "time": 164.05625,
          "velocity": 0.5905511811023622
        },
        {
          "duration": 2.116666666666646,
          "durationTicks": 1016,
          "midi": 69,
          "name": "A4",
          "ticks": 78776,
          "time": 164.11666666666667,
          "velocity": 0.5905511811023622
        },
        {
          "duration": 0.23541666666667993,
          "durationTicks": 113,
          "midi": 67,
          "name": "G4",
          "ticks": 79800,
          "time": 166.25,
          "velocity": 0.5905511811023622
        },
        {
          "duration": 0.23541666666667993,
          "durationTicks": 113,
          "midi": 65,
          "name": "F4",
          "ticks": 79920,
          "time": 166.5,
          "velocity": 0.5905511811023622
        },
        {
          "duration": 0.23541666666667993,
          "durationTicks": 113,
          "midi": 64,
          "name": "E4",
          "ticks": 80040,
          "time": 166.75,
          "velocity": 0.5905511811023622
        },
        {
          "duration": 0.23541666666667993,
          "durationTicks": 113,
          "midi": 65,
          "name": "F4",
          "ticks": 80160,
          "time": 167,
          "velocity": 0.5905511811023622
        },
        {
          "duration": 0.23541666666667993,
          "durationTicks": 113,
          "midi": 61,
          "name": "C#4",
          "ticks": 80280,
          "time": 167.25,
          "velocity": 0.5905511811023622
        },
        {
          "duration": 0.23541666666667993,
          "durationTicks": 113,
          "midi": 62,
          "name": "D4",
          "ticks": 80400,
          "time": 167.5,
          "velocity": 0.5905511811023622
        },
        {
          "duration": 0.23541666666667993,
          "durationTicks": 113,
          "midi": 57,
          "name": "A3",
          "ticks": 80520,
          "time": 167.75,
          "velocity": 0.5905511811023622
        },
        {
          "duration": 0.23541666666667993,
          "durationTicks": 113,
          "midi": 62,
          "name": "D4",
          "ticks": 82080,
          "time": 171,
          "velocity": 0.5905511811023622
        },
        {
          "duration": 0.23541666666667993,
          "durationTicks": 113,
          "midi": 65,
          "name": "F4",
          "ticks": 82200,
          "time": 171.25,
          "velocity": 0.5905511811023622
        },
        {
          "duration": 0.23541666666667993,
          "durationTicks": 113,
          "midi": 69,
          "name": "A4",
          "ticks": 82320,
          "time": 171.5,
          "velocity": 0.5905511811023622
        },
        {
          "duration": 0.23541666666667993,
          "durationTicks": 113,
          "midi": 68,
          "name": "G#4",
          "ticks": 82440,
          "time": 171.75,
          "velocity": 0.5905511811023622
        },
        {
          "duration": 0.23541666666667993,
          "durationTicks": 113,
          "midi": 69,
          "name": "A4",
          "ticks": 82560,
          "time": 172,
          "velocity": 0.5905511811023622
        },
        {
          "duration": 0.23541666666667993,
          "durationTicks": 113,
          "midi": 66,
          "name": "F#4",
          "ticks": 82680,
          "time": 172.25,
          "velocity": 0.5905511811023622
        },
        {
          "duration": 0.23541666666667993,
          "durationTicks": 113,
          "midi": 63,
          "name": "D#4",
          "ticks": 82800,
          "time": 172.5,
          "velocity": 0.5905511811023622
        },
        {
          "duration": 0.23541666666667993,
          "durationTicks": 113,
          "midi": 60,
          "name": "C4",
          "ticks": 82920,
          "time": 172.75,
          "velocity": 0.5905511811023622
        },
        {
          "duration": 1.8979166666666742,
          "durationTicks": 911,
          "midi": 66,
          "name": "F#4",
          "ticks": 83520,
          "time": 174,
          "velocity": 0.5905511811023622
        },
        {
          "duration": 1.8979166666666742,
          "durationTicks": 911,
          "midi": 69,
          "name": "A4",
          "ticks": 83520,
          "time": 174,
          "velocity": 0.5905511811023622
        },
        {
          "duration": 0.9479166666666572,
          "durationTicks": 455,
          "midi": 60,
          "name": "C4",
          "ticks": 83520,
          "time": 174,
          "velocity": 0.5905511811023622
        },
        {
          "duration": 0.9479166666666572,
          "durationTicks": 455,
          "midi": 59,
          "name": "B3",
          "ticks": 84000,
          "time": 175,
          "velocity": 0.5905511811023622
        },
        {
          "duration": 1.9979166666666686,
          "durationTicks": 959,
          "midi": 57,
          "name": "A3",
          "ticks": 84480,
          "time": 176,
          "velocity": 0.5905511811023622
        },
        {
          "duration": 1.9312500000000057,
          "durationTicks": 927,
          "midi": 60,
          "name": "C4",
          "ticks": 84511,
          "time": 176.06458333333333,
          "velocity": 0.5905511811023622
        },
        {
          "duration": 1.8645833333333428,
          "durationTicks": 895,
          "midi": 64,
          "name": "E4",
          "ticks": 84543,
          "time": 176.13125,
          "velocity": 0.5905511811023622
        },
        {
          "duration": 1.79791666666668,
          "durationTicks": 863,
          "midi": 69,
          "name": "A4",
          "ticks": 84576,
          "time": 176.2,
          "velocity": 0.5905511811023622
        },
        {
          "duration": 1.9979166666666686,
          "durationTicks": 959,
          "midi": 59,
          "name": "B3",
          "ticks": 85440,
          "time": 178,
          "velocity": 0.5905511811023622
        },
        {
          "duration": 1.9312500000000057,
          "durationTicks": 927,
          "midi": 62,
          "name": "D4",
          "ticks": 85471,
          "time": 178.06458333333333,
          "velocity": 0.5905511811023622
        },
        {
          "duration": 1.8645833333333428,
          "durationTicks": 895,
          "midi": 64,
          "name": "E4",
          "ticks": 85503,
          "time": 178.13125,
          "velocity": 0.5905511811023622
        },
        {
          "duration": 1.79791666666668,
          "durationTicks": 863,
          "midi": 68,
          "name": "G#4",
          "ticks": 85536,
          "time": 178.2,
          "velocity": 0.5905511811023622
        },
        {
          "duration": 1.9979166666666686,
          "durationTicks": 959,
          "midi": 64,
          "name": "E4",
          "ticks": 86400,
          "time": 180,
          "velocity": 0.5905511811023622
        },
        {
          "duration": 1.9312500000000057,
          "durationTicks": 927,
          "midi": 68,
          "name": "G#4",
          "ticks": 86431,
          "time": 180.06458333333333,
          "velocity": 0.5905511811023622
        },
        {
          "duration": 1.8645833333333428,
          "durationTicks": 895,
          "midi": 71,
          "name": "B4",
          "ticks": 86463,
          "time": 180.13125,
          "velocity": 0.5905511811023622
        },
        {
          "duration": 1.79791666666668,
          "durationTicks": 863,
          "midi": 72,
          "name": "C5",
          "ticks": 86496,
          "time": 180.2,
          "velocity": 0.5905511811023622
        },
        {
          "duration": 1.9979166666666686,
          "durationTicks": 959,
          "midi": 60,
          "name": "C4",
          "ticks": 87360,
          "time": 182,
          "velocity": 0.5905511811023622
        },
        {
          "duration": 1.9312500000000057,
          "durationTicks": 927,
          "midi": 64,
          "name": "E4",
          "ticks": 87391,
          "time": 182.06458333333333,
          "velocity": 0.5905511811023622
        },
        {
          "duration": 1.8645833333333428,
          "durationTicks": 895,
          "midi": 69,
          "name": "A4",
          "ticks": 87423,
          "time": 182.13125,
          "velocity": 0.5905511811023622
        },
        {
          "duration": 1.79791666666668,
          "durationTicks": 863,
          "midi": 72,
          "name": "C5",
          "ticks": 87456,
          "time": 182.2,
          "velocity": 0.5905511811023622
        },
        {
          "duration": 1.9979166666666686,
          "durationTicks": 959,
          "midi": 60,
          "name": "C4",
          "ticks": 88320,
          "time": 184,
          "velocity": 0.5905511811023622
        },
        {
          "duration": 1.9312500000000057,
          "durationTicks": 927,
          "midi": 64,
          "name": "E4",
          "ticks": 88351,
          "time": 184.06458333333333,
          "velocity": 0.5905511811023622
        },
        {
          "duration": 1.8645833333333428,
          "durationTicks": 895,
          "midi": 69,
          "name": "A4",
          "ticks": 88383,
          "time": 184.13125,
          "velocity": 0.5905511811023622
        },
        {
          "duration": 1.79791666666668,
          "durationTicks": 863,
          "midi": 72,
          "name": "C5",
          "ticks": 88416,
          "time": 184.2,
          "velocity": 0.5905511811023622
        },
        {
          "duration": 0.9979166666666686,
          "durationTicks": 479,
          "midi": 59,
          "name": "B3",
          "ticks": 89280,
          "time": 186,
          "velocity": 0.5905511811023622
        },
        {
          "duration": 0.9312500000000057,
          "durationTicks": 447,
          "midi": 64,
          "name": "E4",
          "ticks": 89311,
          "time": 186.06458333333333,
          "velocity": 0.5905511811023622
        },
        {
          "duration": 0.8645833333333428,
          "durationTicks": 415,
          "midi": 66,
          "name": "F#4",
          "ticks": 89343,
          "time": 186.13125,
          "velocity": 0.5905511811023622
        },
        {
          "duration": 0.7979166666666799,
          "durationTicks": 383,
          "midi": 71,
          "name": "B4",
          "ticks": 89376,
          "time": 186.2,
          "velocity": 0.5905511811023622
        },
        {
          "duration": 0.9979166666666686,
          "durationTicks": 479,
          "midi": 60,
          "name": "C4",
          "ticks": 89760,
          "time": 187,
          "velocity": 0.5905511811023622
        },
        {
          "duration": 0.9312500000000057,
          "durationTicks": 447,
          "midi": 63,
          "name": "D#4",
          "ticks": 89791,
          "time": 187.06458333333333,
          "velocity": 0.5905511811023622
        },
        {
          "duration": 0.8645833333333428,
          "durationTicks": 415,
          "midi": 66,
          "name": "F#4",
          "ticks": 89823,
          "time": 187.13125,
          "velocity": 0.5905511811023622
        },
        {
          "duration": 0.7979166666666799,
          "durationTicks": 383,
          "midi": 69,
          "name": "A4",
          "ticks": 89856,
          "time": 187.2,
          "velocity": 0.5905511811023622
        },
        {
          "duration": 1.9979166666666686,
          "durationTicks": 959,
          "midi": 57,
          "name": "A3",
          "ticks": 90240,
          "time": 188,
          "velocity": 0.5905511811023622
        },
        {
          "duration": 1.9312500000000057,
          "durationTicks": 927,
          "midi": 60,
          "name": "C4",
          "ticks": 90271,
          "time": 188.06458333333333,
          "velocity": 0.5905511811023622
        },
        {
          "duration": 1.8645833333333428,
          "durationTicks": 895,
          "midi": 64,
          "name": "E4",
          "ticks": 90303,
          "time": 188.13125,
          "velocity": 0.5905511811023622
        },
        {
          "duration": 1.79791666666668,
          "durationTicks": 863,
          "midi": 69,
          "name": "A4",
          "ticks": 90336,
          "time": 188.2,
          "velocity": 0.5905511811023622
        },
        {
          "duration": 0.9479166666666572,
          "durationTicks": 455,
          "midi": 64,
          "name": "E4",
          "ticks": 91200,
          "time": 190,
          "velocity": 0.5905511811023622
        },
        {
          "duration": 0.9479166666666572,
          "durationTicks": 455,
          "midi": 69,
          "name": "A4",
          "ticks": 91200,
          "time": 190,
          "velocity": 0.5905511811023622
        },
        {
          "duration": 0.9479166666666572,
          "durationTicks": 455,
          "midi": 59,
          "name": "B3",
          "ticks": 91200,
          "time": 190,
          "velocity": 0.5905511811023622
        },
        {
          "duration": 0.9479166666666572,
          "durationTicks": 455,
          "midi": 62,
          "name": "D4",
          "ticks": 91200,
          "time": 190,
          "velocity": 0.5905511811023622
        },
        {
          "duration": 0.9479166666666572,
          "durationTicks": 455,
          "midi": 64,
          "name": "E4",
          "ticks": 91680,
          "time": 191,
          "velocity": 0.5905511811023622
        },
        {
          "duration": 0.9479166666666572,
          "durationTicks": 455,
          "midi": 68,
          "name": "G#4",
          "ticks": 91680,
          "time": 191,
          "velocity": 0.5905511811023622
        },
        {
          "duration": 0.9479166666666572,
          "durationTicks": 455,
          "midi": 59,
          "name": "B3",
          "ticks": 91680,
          "time": 191,
          "velocity": 0.5905511811023622
        },
        {
          "duration": 0.9479166666666572,
          "durationTicks": 455,
          "midi": 62,
          "name": "D4",
          "ticks": 91680,
          "time": 191,
          "velocity": 0.5905511811023622
        },
        {
          "duration": 2.135416666666657,
          "durationTicks": 1025,
          "midi": 69,
          "name": "A4",
          "ticks": 92160,
          "time": 192,
          "velocity": 0.5905511811023622
        },
        {
          "duration": 0.9479166666666572,
          "durationTicks": 455,
          "midi": 62,
          "name": "D4",
          "ticks": 92160,
          "time": 192,
          "velocity": 0.5905511811023622
        },
        {
          "duration": 1.8979166666666742,
          "durationTicks": 911,
          "midi": 64,
          "name": "E4",
          "ticks": 92160,
          "time": 192,
          "velocity": 0.5905511811023622
        },
        {
          "duration": 0.9479166666666572,
          "durationTicks": 455,
          "midi": 61,
          "name": "C#4",
          "ticks": 92640,
          "time": 193,
          "velocity": 0.5905511811023622
        },
        {
          "duration": 0.23541666666667993,
          "durationTicks": 113,
          "midi": 70,
          "name": "A#4",
          "ticks": 93240,
          "time": 194.25,
          "velocity": 0.5905511811023622
        },
        {
          "duration": 0.23541666666667993,
          "durationTicks": 113,
          "midi": 69,
          "name": "A4",
          "ticks": 93360,
          "time": 194.5,
          "velocity": 0.5905511811023622
        },
        {
          "duration": 0.23541666666667993,
          "durationTicks": 113,
          "midi": 67,
          "name": "G4",
          "ticks": 93480,
          "time": 194.75,
          "velocity": 0.5905511811023622
        },
        {
          "duration": 0.11666666666667425,
          "durationTicks": 56,
          "midi": 66,
          "name": "F#4",
          "ticks": 93600,
          "time": 195,
          "velocity": 0.5905511811023622
        },
        {
          "duration": 0.11666666666667425,
          "durationTicks": 56,
          "midi": 67,
          "name": "G4",
          "ticks": 93660,
          "time": 195.125,
          "velocity": 0.5905511811023622
        },
        {
          "duration": 0.11666666666667425,
          "durationTicks": 56,
          "midi": 66,
          "name": "F#4",
          "ticks": 93720,
          "time": 195.25,
          "velocity": 0.5905511811023622
        },
        {
          "duration": 0.11666666666667425,
          "durationTicks": 56,
          "midi": 67,
          "name": "G4",
          "ticks": 93780,
          "time": 195.375,
          "velocity": 0.5905511811023622
        },
        {
          "duration": 0.027083333333337123,
          "durationTicks": 13,
          "midi": 67,
          "name": "G4",
          "ticks": 93840,
          "time": 195.5,
          "velocity": 0.5905511811023622
        },
        {
          "duration": 0.027083333333337123,
          "durationTicks": 13,
          "midi": 69,
          "name": "A4",
          "ticks": 93855,
          "time": 195.53125,
          "velocity": 0.5905511811023622
        },
        {
          "duration": 0.027083333333337123,
          "durationTicks": 13,
          "midi": 67,
          "name": "G4",
          "ticks": 93870,
          "time": 195.5625,
          "velocity": 0.5905511811023622
        },
        {
          "duration": 0.027083333333337123,
          "durationTicks": 13,
          "midi": 69,
          "name": "A4",
          "ticks": 93885,
          "time": 195.59375,
          "velocity": 0.5905511811023622
        },
        {
          "duration": 0.056250000000005684,
          "durationTicks": 27,
          "midi": 66,
          "name": "F#4",
          "ticks": 93900,
          "time": 195.625,
          "velocity": 0.5905511811023622
        },
        {
          "duration": 0.056250000000005684,
          "durationTicks": 27,
          "midi": 67,
          "name": "G4",
          "ticks": 93930,
          "time": 195.6875,
          "velocity": 0.5905511811023622
        },
        {
          "duration": 0.056250000000005684,
          "durationTicks": 27,
          "midi": 69,
          "name": "A4",
          "ticks": 93960,
          "time": 195.75,
          "velocity": 0.5905511811023622
        },
        {
          "duration": 0.056250000000005684,
          "durationTicks": 27,
          "midi": 66,
          "name": "F#4",
          "ticks": 93990,
          "time": 195.8125,
          "velocity": 0.5905511811023622
        },
        {
          "duration": 0.11666666666667425,
          "durationTicks": 56,
          "midi": 62,
          "name": "D4",
          "ticks": 94020,
          "time": 195.875,
          "velocity": 0.5905511811023622
        },
        {
          "duration": 0.4729166666666629,
          "durationTicks": 227,
          "midi": 61,
          "name": "C#4",
          "ticks": 94080,
          "time": 196,
          "velocity": 0.5905511811023622
        },
        {
          "duration": 0.4729166666666629,
          "durationTicks": 227,
          "midi": 60,
          "name": "C4",
          "ticks": 94320,
          "time": 196.5,
          "velocity": 0.5905511811023622
        },
        {
          "duration": 0.4729166666666629,
          "durationTicks": 227,
          "midi": 70,
          "name": "A#4",
          "ticks": 94560,
          "time": 197,
          "velocity": 0.5905511811023622
        },
        {
          "duration": 0.9479166666666572,
          "durationTicks": 455,
          "midi": 60,
          "name": "C4",
          "ticks": 94560,
          "time": 197,
          "velocity": 0.5905511811023622
        },
        {
          "duration": 0.9479166666666572,
          "durationTicks": 455,
          "midi": 63,
          "name": "D#4",
          "ticks": 94560,
          "time": 197,
          "velocity": 0.5905511811023622
        },
        {
          "duration": 0.4729166666666629,
          "durationTicks": 227,
          "midi": 68,
          "name": "G#4",
          "ticks": 94800,
          "time": 197.5,
          "velocity": 0.5905511811023622
        },
        {
          "duration": 0.23541666666667993,
          "durationTicks": 113,
          "midi": 63,
          "name": "D#4",
          "ticks": 95160,
          "time": 198.25,
          "velocity": 0.5905511811023622
        },
        {
          "duration": 0.23541666666667993,
          "durationTicks": 113,
          "midi": 65,
          "name": "F4",
          "ticks": 95280,
          "time": 198.5,
          "velocity": 0.5905511811023622
        },
        {
          "duration": 0.23541666666667993,
          "durationTicks": 113,
          "midi": 67,
          "name": "G4",
          "ticks": 95400,
          "time": 198.75,
          "velocity": 0.5905511811023622
        },
        {
          "duration": 0.11666666666667425,
          "durationTicks": 56,
          "midi": 68,
          "name": "G#4",
          "ticks": 95520,
          "time": 199,
          "velocity": 0.5905511811023622
        },
        {
          "duration": 0.11666666666667425,
          "durationTicks": 56,
          "midi": 70,
          "name": "A#4",
          "ticks": 95580,
          "time": 199.125,
          "velocity": 0.5905511811023622
        },
        {
          "duration": 0.11666666666667425,
          "durationTicks": 56,
          "midi": 72,
          "name": "C5",
          "ticks": 95640,
          "time": 199.25,
          "velocity": 0.5905511811023622
        },
        {
          "duration": 0.11666666666667425,
          "durationTicks": 56,
          "midi": 73,
          "name": "C#5",
          "ticks": 95700,
          "time": 199.375,
          "velocity": 0.5905511811023622
        },
        {
          "duration": 0.11666666666667425,
          "durationTicks": 56,
          "midi": 72,
          "name": "C5",
          "ticks": 95760,
          "time": 199.5,
          "velocity": 0.5905511811023622
        },
        {
          "duration": 0.11666666666667425,
          "durationTicks": 56,
          "midi": 73,
          "name": "C#5",
          "ticks": 95820,
          "time": 199.625,
          "velocity": 0.5905511811023622
        },
        {
          "duration": 0.056250000000005684,
          "durationTicks": 27,
          "midi": 75,
          "name": "D#5",
          "ticks": 95880,
          "time": 199.75,
          "velocity": 0.5905511811023622
        },
        {
          "duration": 0.056250000000005684,
          "durationTicks": 27,
          "midi": 73,
          "name": "C#5",
          "ticks": 95910,
          "time": 199.8125,
          "velocity": 0.5905511811023622
        },
        {
          "duration": 0.056250000000005684,
          "durationTicks": 27,
          "midi": 72,
          "name": "C5",
          "ticks": 95940,
          "time": 199.875,
          "velocity": 0.5905511811023622
        },
        {
          "duration": 0.056250000000005684,
          "durationTicks": 27,
          "midi": 73,
          "name": "C#5",
          "ticks": 95970,
          "time": 199.9375,
          "velocity": 0.5905511811023622
        },
        {
          "duration": 0.4729166666666629,
          "durationTicks": 227,
          "midi": 75,
          "name": "D#5",
          "ticks": 96000,
          "time": 200,
          "velocity": 0.5905511811023622
        },
        {
          "duration": 0.9479166666666572,
          "durationTicks": 455,
          "midi": 75,
          "name": "D#5",
          "ticks": 96480,
          "time": 201,
          "velocity": 0.5905511811023622
        },
        {
          "duration": 0.9479166666666572,
          "durationTicks": 455,
          "midi": 63,
          "name": "D#4",
          "ticks": 96480,
          "time": 201,
          "velocity": 0.5905511811023622
        },
        {
          "duration": 0.9479166666666572,
          "durationTicks": 455,
          "midi": 66,
          "name": "F#4",
          "ticks": 96480,
          "time": 201,
          "velocity": 0.5905511811023622
        },
        {
          "duration": 0.4729166666666629,
          "durationTicks": 227,
          "midi": 70,
          "name": "A#4",
          "ticks": 96480,
          "time": 201,
          "velocity": 0.5905511811023622
        },
        {
          "duration": 0.4729166666666629,
          "durationTicks": 227,
          "midi": 69,
          "name": "A4",
          "ticks": 96720,
          "time": 201.5,
          "velocity": 0.5905511811023622
        },
        {
          "duration": 0.23541666666667993,
          "durationTicks": 113,
          "midi": 75,
          "name": "D#5",
          "ticks": 97080,
          "time": 202.25,
          "velocity": 0.5905511811023622
        },
        {
          "duration": 0.23541666666667993,
          "durationTicks": 113,
          "midi": 78,
          "name": "F#5",
          "ticks": 97200,
          "time": 202.5,
          "velocity": 0.5905511811023622
        },
        {
          "duration": 0.23541666666667993,
          "durationTicks": 113,
          "midi": 77,
          "name": "F5",
          "ticks": 97320,
          "time": 202.75,
          "velocity": 0.5905511811023622
        },
        {
          "duration": 0.23541666666667993,
          "durationTicks": 113,
          "midi": 75,
          "name": "D#5",
          "ticks": 97440,
          "time": 203,
          "velocity": 0.5905511811023622
        },
        {
          "duration": 0.23541666666667993,
          "durationTicks": 113,
          "midi": 73,
          "name": "C#5",
          "ticks": 97560,
          "time": 203.25,
          "velocity": 0.5905511811023622
        },
        {
          "duration": 0.23541666666667993,
          "durationTicks": 113,
          "midi": 72,
          "name": "C5",
          "ticks": 97680,
          "time": 203.5,
          "velocity": 0.5905511811023622
        },
        {
          "duration": 0.11666666666667425,
          "durationTicks": 56,
          "midi": 73,
          "name": "C#5",
          "ticks": 97800,
          "time": 203.75,
          "velocity": 0.5905511811023622
        },
        {
          "duration": 0.11666666666667425,
          "durationTicks": 56,
          "midi": 70,
          "name": "A#4",
          "ticks": 97860,
          "time": 203.875,
          "velocity": 0.5905511811023622
        },
        {
          "duration": 0.4729166666666629,
          "durationTicks": 227,
          "midi": 70,
          "name": "A#4",
          "ticks": 97920,
          "time": 204,
          "velocity": 0.5905511811023622
        },
        {
          "duration": 0.4729166666666629,
          "durationTicks": 227,
          "midi": 69,
          "name": "A4",
          "ticks": 98160,
          "time": 204.5,
          "velocity": 0.5905511811023622
        },
        {
          "duration": 1.1854166666666686,
          "durationTicks": 569,
          "midi": 69,
          "name": "A4",
          "ticks": 98400,
          "time": 205,
          "velocity": 0.5905511811023622
        },
        {
          "duration": 1.1854166666666686,
          "durationTicks": 569,
          "midi": 60,
          "name": "C4",
          "ticks": 98400,
          "time": 205,
          "velocity": 0.5905511811023622
        },
        {
          "duration": 0.9479166666666572,
          "durationTicks": 455,
          "midi": 63,
          "name": "D#4",
          "ticks": 98400,
          "time": 205,
          "velocity": 0.5905511811023622
        },
        {
          "duration": 0.23541666666667993,
          "durationTicks": 113,
          "midi": 70,
          "name": "A#4",
          "ticks": 99000,
          "time": 206.25,
          "velocity": 0.5905511811023622
        },
        {
          "duration": 0.23541666666667993,
          "durationTicks": 113,
          "midi": 61,
          "name": "C#4",
          "ticks": 99000,
          "time": 206.25,
          "velocity": 0.5905511811023622
        },
        {
          "duration": 0.23541666666667993,
          "durationTicks": 113,
          "midi": 69,
          "name": "A4",
          "ticks": 99120,
          "time": 206.5,
          "velocity": 0.5905511811023622
        },
        {
          "duration": 0.23541666666667993,
          "durationTicks": 113,
          "midi": 60,
          "name": "C4",
          "ticks": 99120,
          "time": 206.5,
          "velocity": 0.5905511811023622
        },
        {
          "duration": 0.23541666666667993,
          "durationTicks": 113,
          "midi": 70,
          "name": "A#4",
          "ticks": 99240,
          "time": 206.75,
          "velocity": 0.5905511811023622
        },
        {
          "duration": 0.23541666666667993,
          "durationTicks": 113,
          "midi": 61,
          "name": "C#4",
          "ticks": 99240,
          "time": 206.75,
          "velocity": 0.5905511811023622
        },
        {
          "duration": 0.11458333333334281,
          "durationTicks": 55,
          "midi": 70,
          "name": "A#4",
          "ticks": 99360,
          "time": 207,
          "velocity": 0.5905511811023622
        },
        {
          "duration": 0.11458333333334281,
          "durationTicks": 55,
          "midi": 58,
          "name": "A#3",
          "ticks": 99360,
          "time": 207,
          "velocity": 0.5905511811023622
        },
        {
          "duration": 0.11458333333334281,
          "durationTicks": 55,
          "midi": 72,
          "name": "C5",
          "ticks": 99419,
          "time": 207.12291666666667,
          "velocity": 0.5905511811023622
        },
        {
          "duration": 0.11458333333334281,
          "durationTicks": 55,
          "midi": 61,
          "name": "C#4",
          "ticks": 99419,
          "time": 207.12291666666667,
          "velocity": 0.5905511811023622
        },
        {
          "duration": 0.11458333333334281,
          "durationTicks": 55,
          "midi": 70,
          "name": "A#4",
          "ticks": 99479,
          "time": 207.24791666666667,
          "velocity": 0.5905511811023622
        },
        {
          "duration": 0.11458333333334281,
          "durationTicks": 55,
          "midi": 58,
          "name": "A#3",
          "ticks": 99479,
          "time": 207.24791666666667,
          "velocity": 0.5905511811023622
        },
        {
          "duration": 0.11458333333334281,
          "durationTicks": 55,
          "midi": 72,
          "name": "C5",
          "ticks": 99540,
          "time": 207.375,
          "velocity": 0.5905511811023622
        },
        {
          "duration": 0.11458333333334281,
          "durationTicks": 55,
          "midi": 61,
          "name": "C#4",
          "ticks": 99540,
          "time": 207.375,
          "velocity": 0.5905511811023622
        },
        {
          "duration": 0.11458333333334281,
          "durationTicks": 55,
          "midi": 70,
          "name": "A#4",
          "ticks": 99599,
          "time": 207.49791666666667,
          "velocity": 0.5905511811023622
        },
        {
          "duration": 0.11458333333334281,
          "durationTicks": 55,
          "midi": 58,
          "name": "A#3",
          "ticks": 99599,
          "time": 207.49791666666667,
          "velocity": 0.5905511811023622
        },
        {
          "duration": 0.11458333333334281,
          "durationTicks": 55,
          "midi": 72,
          "name": "C5",
          "ticks": 99659,
          "time": 207.62291666666667,
          "velocity": 0.5905511811023622
        },
        {
          "duration": 0.11458333333334281,
          "durationTicks": 55,
          "midi": 61,
          "name": "C#4",
          "ticks": 99659,
          "time": 207.62291666666667,
          "velocity": 0.5905511811023622
        },
        {
          "duration": 0.11666666666667425,
          "durationTicks": 56,
          "midi": 69,
          "name": "A4",
          "ticks": 99720,
          "time": 207.75,
          "velocity": 0.5905511811023622
        },
        {
          "duration": 0.11666666666667425,
          "durationTicks": 56,
          "midi": 60,
          "name": "C4",
          "ticks": 99720,
          "time": 207.75,
          "velocity": 0.5905511811023622
        },
        {
          "duration": 0.11666666666667425,
          "durationTicks": 56,
          "midi": 70,
          "name": "A#4",
          "ticks": 99780,
          "time": 207.875,
          "velocity": 0.5905511811023622
        },
        {
          "duration": 0.11666666666667425,
          "durationTicks": 56,
          "midi": 61,
          "name": "C#4",
          "ticks": 99780,
          "time": 207.875,
          "velocity": 0.5905511811023622
        },
        {
          "duration": 0.4729166666666629,
          "durationTicks": 227,
          "midi": 72,
          "name": "C5",
          "ticks": 99840,
          "time": 208,
          "velocity": 0.5905511811023622
        },
        {
          "duration": 0.4729166666666629,
          "durationTicks": 227,
          "midi": 63,
          "name": "D#4",
          "ticks": 99840,
          "time": 208,
          "velocity": 0.5905511811023622
        },
        {
          "duration": 1.1854166666666686,
          "durationTicks": 569,
          "midi": 72,
          "name": "C5",
          "ticks": 100320,
          "time": 209,
          "velocity": 0.5905511811023622
        },
        {
          "duration": 0.9479166666666572,
          "durationTicks": 455,
          "midi": 63,
          "name": "D#4",
          "ticks": 100320,
          "time": 209,
          "velocity": 0.5905511811023622
        },
        {
          "duration": 0.9479166666666572,
          "durationTicks": 455,
          "midi": 66,
          "name": "F#4",
          "ticks": 100320,
          "time": 209,
          "velocity": 0.5905511811023622
        },
        {
          "duration": 0.9479166666666572,
          "durationTicks": 455,
          "midi": 69,
          "name": "A4",
          "ticks": 100320,
          "time": 209,
          "velocity": 0.5905511811023622
        },
        {
          "duration": 0.23541666666667993,
          "durationTicks": 113,
          "midi": 63,
          "name": "D#4",
          "ticks": 100800,
          "time": 210,
          "velocity": 0.5905511811023622
        },
        {
          "duration": 0.23541666666667993,
          "durationTicks": 113,
          "midi": 73,
          "name": "C#5",
          "ticks": 100920,
          "time": 210.25,
          "velocity": 0.5905511811023622
        },
        {
          "duration": 0.23541666666667993,
          "durationTicks": 113,
          "midi": 65,
          "name": "F4",
          "ticks": 100920,
          "time": 210.25,
          "velocity": 0.5905511811023622
        },
        {
          "duration": 0.23541666666667993,
          "durationTicks": 113,
          "midi": 72,
          "name": "C5",
          "ticks": 101040,
          "time": 210.5,
          "velocity": 0.5905511811023622
        },
        {
          "duration": 0.23541666666667993,
          "durationTicks": 113,
          "midi": 63,
          "name": "D#4",
          "ticks": 101040,
          "time": 210.5,
          "velocity": 0.5905511811023622
        },
        {
          "duration": 0.23541666666667993,
          "durationTicks": 113,
          "midi": 73,
          "name": "C#5",
          "ticks": 101160,
          "time": 210.75,
          "velocity": 0.5905511811023622
        },
        {
          "duration": 0.23541666666667993,
          "durationTicks": 113,
          "midi": 65,
          "name": "F4",
          "ticks": 101160,
          "time": 210.75,
          "velocity": 0.5905511811023622
        },
        {
          "duration": 0.11458333333334281,
          "durationTicks": 55,
          "midi": 72,
          "name": "C5",
          "ticks": 101280,
          "time": 211,
          "velocity": 0.5905511811023622
        },
        {
          "duration": 0.11458333333334281,
          "durationTicks": 55,
          "midi": 63,
          "name": "D#4",
          "ticks": 101280,
          "time": 211,
          "velocity": 0.5905511811023622
        },
        {
          "duration": 0.11458333333334281,
          "durationTicks": 55,
          "midi": 75,
          "name": "D#5",
          "ticks": 101339,
          "time": 211.12291666666667,
          "velocity": 0.5905511811023622
        },
        {
          "duration": 0.11458333333334281,
          "durationTicks": 55,
          "midi": 63,
          "name": "D#4",
          "ticks": 101339,
          "time": 211.12291666666667,
          "velocity": 0.5905511811023622
        },
        {
          "duration": 0.11458333333334281,
          "durationTicks": 55,
          "midi": 72,
          "name": "C5",
          "ticks": 101399,
          "time": 211.24791666666667,
          "velocity": 0.5905511811023622
        },
        {
          "duration": 0.11458333333334281,
          "durationTicks": 55,
          "midi": 63,
          "name": "D#4",
          "ticks": 101399,
          "time": 211.24791666666667,
          "velocity": 0.5905511811023622
        },
        {
          "duration": 0.11458333333334281,
          "durationTicks": 55,
          "midi": 75,
          "name": "D#5",
          "ticks": 101460,
          "time": 211.375,
          "velocity": 0.5905511811023622
        },
        {
          "duration": 0.11458333333334281,
          "durationTicks": 55,
          "midi": 63,
          "name": "D#4",
          "ticks": 101460,
          "time": 211.375,
          "velocity": 0.5905511811023622
        },
        {
          "duration": 0.11458333333334281,
          "durationTicks": 55,
          "midi": 72,
          "name": "C5",
          "ticks": 101519,
          "time": 211.49791666666667,
          "velocity": 0.5905511811023622
        },
        {
          "duration": 0.11458333333334281,
          "durationTicks": 55,
          "midi": 63,
          "name": "D#4",
          "ticks": 101519,
          "time": 211.49791666666667,
          "velocity": 0.5905511811023622
        },
        {
          "duration": 0.11458333333334281,
          "durationTicks": 55,
          "midi": 75,
          "name": "D#5",
          "ticks": 101579,
          "time": 211.62291666666667,
          "velocity": 0.5905511811023622
        },
        {
          "duration": 0.11458333333334281,
          "durationTicks": 55,
          "midi": 63,
          "name": "D#4",
          "ticks": 101579,
          "time": 211.62291666666667,
          "velocity": 0.5905511811023622
        },
        {
          "duration": 0.11666666666667425,
          "durationTicks": 56,
          "midi": 72,
          "name": "C5",
          "ticks": 101640,
          "time": 211.75,
          "velocity": 0.5905511811023622
        },
        {
          "duration": 0.11666666666667425,
          "durationTicks": 56,
          "midi": 63,
          "name": "D#4",
          "ticks": 101640,
          "time": 211.75,
          "velocity": 0.5905511811023622
        },
        {
          "duration": 0.11666666666667425,
          "durationTicks": 56,
          "midi": 73,
          "name": "C#5",
          "ticks": 101700,
          "time": 211.875,
          "velocity": 0.5905511811023622
        },
        {
          "duration": 0.11666666666667425,
          "durationTicks": 56,
          "midi": 65,
          "name": "F4",
          "ticks": 101700,
          "time": 211.875,
          "velocity": 0.5905511811023622
        },
        {
          "duration": 0.23541666666667993,
          "durationTicks": 113,
          "midi": 75,
          "name": "D#5",
          "ticks": 101760,
          "time": 212,
          "velocity": 0.5905511811023622
        },
        {
          "duration": 0.9479166666666572,
          "durationTicks": 455,
          "midi": 66,
          "name": "F#4",
          "ticks": 101760,
          "time": 212,
          "velocity": 0.5905511811023622
        },
        {
          "duration": 0.23541666666667993,
          "durationTicks": 113,
          "midi": 72,
          "name": "C5",
          "ticks": 101880,
          "time": 212.25,
          "velocity": 0.5905511811023622
        },
        {
          "duration": 0.23541666666667993,
          "durationTicks": 113,
          "midi": 69,
          "name": "A4",
          "ticks": 102000,
          "time": 212.5,
          "velocity": 0.5905511811023622
        },
        {
          "duration": 0.23541666666667993,
          "durationTicks": 113,
          "midi": 70,
          "name": "A#4",
          "ticks": 102120,
          "time": 212.75,
          "velocity": 0.5905511811023622
        },
        {
          "duration": 0.23541666666667993,
          "durationTicks": 113,
          "midi": 70,
          "name": "A#4",
          "ticks": 102240,
          "time": 213,
          "velocity": 0.5905511811023622
        },
        {
          "duration": 0.23541666666667993,
          "durationTicks": 113,
          "midi": 69,
          "name": "A4",
          "ticks": 102360,
          "time": 213.25,
          "velocity": 0.5905511811023622
        },
        {
          "duration": 0.4729166666666629,
          "durationTicks": 227,
          "midi": 65,
          "name": "F4",
          "ticks": 102480,
          "time": 213.5,
          "velocity": 0.5905511811023622
        },
        {
          "duration": 0.4729166666666629,
          "durationTicks": 227,
          "midi": 69,
          "name": "A4",
          "ticks": 102480,
          "time": 213.5,
          "velocity": 0.5905511811023622
        },
        {
          "duration": 0.4729166666666629,
          "durationTicks": 227,
          "midi": 60,
          "name": "C4",
          "ticks": 102480,
          "time": 213.5,
          "velocity": 0.5905511811023622
        },
        {
          "duration": 0.4729166666666629,
          "durationTicks": 227,
          "midi": 63,
          "name": "D#4",
          "ticks": 102480,
          "time": 213.5,
          "velocity": 0.5905511811023622
        },
        {
          "duration": 0.23541666666667993,
          "durationTicks": 113,
          "midi": 65,
          "name": "F4",
          "ticks": 102840,
          "time": 214.25,
          "velocity": 0.5905511811023622
        },
        {
          "duration": 0.23541666666667993,
          "durationTicks": 113,
          "midi": 69,
          "name": "A4",
          "ticks": 102960,
          "time": 214.5,
          "velocity": 0.5905511811023622
        },
        {
          "duration": 0.23541666666667993,
          "durationTicks": 113,
          "midi": 72,
          "name": "C5",
          "ticks": 103080,
          "time": 214.75,
          "velocity": 0.5905511811023622
        },
        {
          "duration": 0.23541666666667993,
          "durationTicks": 113,
          "midi": 75,
          "name": "D#5",
          "ticks": 103200,
          "time": 215,
          "velocity": 0.5905511811023622
        },
        {
          "duration": 0.23541666666667993,
          "durationTicks": 113,
          "midi": 78,
          "name": "F#5",
          "ticks": 103320,
          "time": 215.25,
          "velocity": 0.5905511811023622
        },
        {
          "duration": 0.23541666666667993,
          "durationTicks": 113,
          "midi": 77,
          "name": "F5",
          "ticks": 103440,
          "time": 215.5,
          "velocity": 0.5905511811023622
        },
        {
          "duration": 0.03541666666666288,
          "durationTicks": 17,
          "midi": 75,
          "name": "D#5",
          "ticks": 103560,
          "time": 215.75,
          "velocity": 0.5905511811023622
        },
        {
          "duration": 0.03541666666666288,
          "durationTicks": 17,
          "midi": 77,
          "name": "F5",
          "ticks": 103579,
          "time": 215.78958333333333,
          "velocity": 0.5905511811023622
        },
        {
          "duration": 0.03541666666666288,
          "durationTicks": 17,
          "midi": 75,
          "name": "D#5",
          "ticks": 103599,
          "time": 215.83125,
          "velocity": 0.5905511811023622
        },
        {
          "duration": 0.11666666666667425,
          "durationTicks": 56,
          "midi": 73,
          "name": "C#5",
          "ticks": 103620,
          "time": 215.875,
          "velocity": 0.5905511811023622
        },
        {
          "duration": 0.4729166666666629,
          "durationTicks": 227,
          "midi": 73,
          "name": "C#5",
          "ticks": 103680,
          "time": 216,
          "velocity": 0.5905511811023622
        },
        {
          "duration": 1.1854166666666686,
          "durationTicks": 569,
          "midi": 73,
          "name": "C#5",
          "ticks": 104160,
          "time": 217,
          "velocity": 0.5905511811023622
        },
        {
          "duration": 0.9479166666666572,
          "durationTicks": 455,
          "midi": 61,
          "name": "C#4",
          "ticks": 104160,
          "time": 217,
          "velocity": 0.5905511811023622
        },
        {
          "duration": 0.9479166666666572,
          "durationTicks": 455,
          "midi": 66,
          "name": "F#4",
          "ticks": 104160,
          "time": 217,
          "velocity": 0.5905511811023622
        },
        {
          "duration": 0.9479166666666572,
          "durationTicks": 455,
          "midi": 70,
          "name": "A#4",
          "ticks": 104160,
          "time": 217,
          "velocity": 0.5905511811023622
        },
        {
          "duration": 0.23541666666667993,
          "durationTicks": 113,
          "midi": 73,
          "name": "C#5",
          "ticks": 104760,
          "time": 218.25,
          "velocity": 0.5905511811023622
        },
        {
          "duration": 0.23541666666667993,
          "durationTicks": 113,
          "midi": 76,
          "name": "E5",
          "ticks": 104880,
          "time": 218.5,
          "velocity": 0.5905511811023622
        },
        {
          "duration": 0.23541666666667993,
          "durationTicks": 113,
          "midi": 75,
          "name": "D#5",
          "ticks": 105000,
          "time": 218.75,
          "velocity": 0.5905511811023622
        },
        {
          "duration": 0.11666666666667425,
          "durationTicks": 56,
          "midi": 73,
          "name": "C#5",
          "ticks": 105120,
          "time": 219,
          "velocity": 0.5905511811023622
        },
        {
          "duration": 0.11666666666667425,
          "durationTicks": 56,
          "midi": 71,
          "name": "B4",
          "ticks": 105180,
          "time": 219.125,
          "velocity": 0.5905511811023622
        },
        {
          "duration": 0.11666666666667425,
          "durationTicks": 56,
          "midi": 70,
          "name": "A#4",
          "ticks": 105240,
          "time": 219.25,
          "velocity": 0.5905511811023622
        },
        {
          "duration": 0.11666666666667425,
          "durationTicks": 56,
          "midi": 71,
          "name": "B4",
          "ticks": 105300,
          "time": 219.375,
          "velocity": 0.5905511811023622
        },
        {
          "duration": 0.03541666666666288,
          "durationTicks": 17,
          "midi": 71,
          "name": "B4",
          "ticks": 105360,
          "time": 219.5,
          "velocity": 0.5905511811023622
        },
        {
          "duration": 0.03541666666666288,
          "durationTicks": 17,
          "midi": 73,
          "name": "C#5",
          "ticks": 105379,
          "time": 219.53958333333333,
          "velocity": 0.5905511811023622
        },
        {
          "duration": 0.03541666666666288,
          "durationTicks": 17,
          "midi": 71,
          "name": "B4",
          "ticks": 105399,
          "time": 219.58125,
          "velocity": 0.5905511811023622
        },
        {
          "duration": 0.11666666666667425,
          "durationTicks": 56,
          "midi": 70,
          "name": "A#4",
          "ticks": 105420,
          "time": 219.625,
          "velocity": 0.5905511811023622
        },
        {
          "duration": 0.11666666666667425,
          "durationTicks": 56,
          "midi": 71,
          "name": "B4",
          "ticks": 105480,
          "time": 219.75,
          "velocity": 0.5905511811023622
        },
        {
          "duration": 0.11666666666667425,
          "durationTicks": 56,
          "midi": 73,
          "name": "C#5",
          "ticks": 105540,
          "time": 219.875,
          "velocity": 0.5905511811023622
        },
        {
          "duration": 0.4729166666666629,
          "durationTicks": 227,
          "midi": 68,
          "name": "G#4",
          "ticks": 105600,
          "time": 220,
          "velocity": 0.5905511811023622
        },
        {
          "duration": 0.4729166666666629,
          "durationTicks": 227,
          "midi": 67,
          "name": "G4",
          "ticks": 105840,
          "time": 220.5,
          "velocity": 0.5905511811023622
        },
        {
          "duration": 0.9479166666666572,
          "durationTicks": 455,
          "midi": 58,
          "name": "A#3",
          "ticks": 106080,
          "time": 221,
          "velocity": 0.5905511811023622
        },
        {
          "duration": 0.9479166666666572,
          "durationTicks": 455,
          "midi": 61,
          "name": "C#4",
          "ticks": 106080,
          "time": 221,
          "velocity": 0.5905511811023622
        },
        {
          "duration": 0.9479166666666572,
          "durationTicks": 455,
          "midi": 63,
          "name": "D#4",
          "ticks": 106080,
          "time": 221,
          "velocity": 0.5905511811023622
        },
        {
          "duration": 0.9479166666666572,
          "durationTicks": 455,
          "midi": 67,
          "name": "G4",
          "ticks": 106080,
          "time": 221,
          "velocity": 0.5905511811023622
        },
        {
          "duration": 0.23541666666667993,
          "durationTicks": 113,
          "midi": 67,
          "name": "G4",
          "ticks": 106680,
          "time": 222.25,
          "velocity": 0.5905511811023622
        },
        {
          "duration": 0.23541666666667993,
          "durationTicks": 113,
          "midi": 63,
          "name": "D#4",
          "ticks": 106800,
          "time": 222.5,
          "velocity": 0.5905511811023622
        },
        {
          "duration": 0.23541666666667993,
          "durationTicks": 113,
          "midi": 65,
          "name": "F4",
          "ticks": 106920,
          "time": 222.75,
          "velocity": 0.5905511811023622
        },
        {
          "duration": 0.23541666666667993,
          "durationTicks": 113,
          "midi": 67,
          "name": "G4",
          "ticks": 107040,
          "time": 223,
          "velocity": 0.5905511811023622
        },
        {
          "duration": 0.11666666666667425,
          "durationTicks": 56,
          "midi": 68,
          "name": "G#4",
          "ticks": 107160,
          "time": 223.25,
          "velocity": 0.5905511811023622
        },
        {
          "duration": 0.11666666666667425,
          "durationTicks": 56,
          "midi": 67,
          "name": "G4",
          "ticks": 107220,
          "time": 223.375,
          "velocity": 0.5905511811023622
        },
        {
          "duration": 0.23541666666667993,
          "durationTicks": 113,
          "midi": 65,
          "name": "F4",
          "ticks": 107280,
          "time": 223.5,
          "velocity": 0.5905511811023622
        },
        {
          "duration": 0.11666666666667425,
          "durationTicks": 56,
          "midi": 68,
          "name": "G#4",
          "ticks": 107400,
          "time": 223.75,
          "velocity": 0.5905511811023622
        },
        {
          "duration": 0.11666666666667425,
          "durationTicks": 56,
          "midi": 67,
          "name": "G4",
          "ticks": 107460,
          "time": 223.875,
          "velocity": 0.5905511811023622
        },
        {
          "duration": 0.11458333333334281,
          "durationTicks": 55,
          "midi": 68,
          "name": "G#4",
          "ticks": 107520,
          "time": 224,
          "velocity": 0.5905511811023622
        },
        {
          "duration": 0.11458333333334281,
          "durationTicks": 55,
          "midi": 67,
          "name": "G4",
          "ticks": 107580,
          "time": 224.125,
          "velocity": 0.5905511811023622
        },
        {
          "duration": 0.23541666666667993,
          "durationTicks": 113,
          "midi": 68,
          "name": "G#4",
          "ticks": 107640,
          "time": 224.25,
          "velocity": 0.5905511811023622
        },
        {
          "duration": 1.0666666666666629,
          "durationTicks": 512,
          "midi": 68,
          "name": "G#4",
          "ticks": 108000,
          "time": 225,
          "velocity": 0.5905511811023622
        },
        {
          "duration": 0.9479166666666572,
          "durationTicks": 455,
          "midi": 59,
          "name": "B3",
          "ticks": 108000,
          "time": 225,
          "velocity": 0.5905511811023622
        },
        {
          "duration": 0.9479166666666572,
          "durationTicks": 455,
          "midi": 64,
          "name": "E4",
          "ticks": 108000,
          "time": 225,
          "velocity": 0.5905511811023622
        },
        {
          "duration": 0.11666666666667425,
          "durationTicks": 56,
          "midi": 59,
          "name": "B3",
          "ticks": 108540,
          "time": 226.125,
          "velocity": 0.5905511811023622
        },
        {
          "duration": 0.11666666666667425,
          "durationTicks": 56,
          "midi": 61,
          "name": "C#4",
          "ticks": 108600,
          "time": 226.25,
          "velocity": 0.5905511811023622
        },
        {
          "duration": 0.11666666666667425,
          "durationTicks": 56,
          "midi": 63,
          "name": "D#4",
          "ticks": 108660,
          "time": 226.375,
          "velocity": 0.5905511811023622
        },
        {
          "duration": 0.11666666666667425,
          "durationTicks": 56,
          "midi": 64,
          "name": "E4",
          "ticks": 108720,
          "time": 226.5,
          "velocity": 0.5905511811023622
        },
        {
          "duration": 0.11666666666667425,
          "durationTicks": 56,
          "midi": 66,
          "name": "F#4",
          "ticks": 108780,
          "time": 226.625,
          "velocity": 0.5905511811023622
        },
        {
          "duration": 0.11666666666667425,
          "durationTicks": 56,
          "midi": 68,
          "name": "G#4",
          "ticks": 108840,
          "time": 226.75,
          "velocity": 0.5905511811023622
        },
        {
          "duration": 0.11666666666667425,
          "durationTicks": 56,
          "midi": 69,
          "name": "A4",
          "ticks": 108900,
          "time": 226.875,
          "velocity": 0.5905511811023622
        },
        {
          "duration": 0.23541666666667993,
          "durationTicks": 113,
          "midi": 71,
          "name": "B4",
          "ticks": 108960,
          "time": 227,
          "velocity": 0.5905511811023622
        },
        {
          "duration": 0.23541666666667993,
          "durationTicks": 113,
          "midi": 74,
          "name": "D5",
          "ticks": 109080,
          "time": 227.25,
          "velocity": 0.5905511811023622
        },
        {
          "duration": 0.23541666666667993,
          "durationTicks": 113,
          "midi": 73,
          "name": "C#5",
          "ticks": 109200,
          "time": 227.5,
          "velocity": 0.5905511811023622
        },
        {
          "duration": 0.11666666666667425,
          "durationTicks": 56,
          "midi": 76,
          "name": "E5",
          "ticks": 109320,
          "time": 227.75,
          "velocity": 0.5905511811023622
        },
        {
          "duration": 0.11666666666667425,
          "durationTicks": 56,
          "midi": 74,
          "name": "D5",
          "ticks": 109380,
          "time": 227.875,
          "velocity": 0.5905511811023622
        },
        {
          "duration": 0.11458333333334281,
          "durationTicks": 55,
          "midi": 74,
          "name": "D5",
          "ticks": 109440,
          "time": 228,
          "velocity": 0.5905511811023622
        },
        {
          "duration": 0.11458333333334281,
          "durationTicks": 55,
          "midi": 73,
          "name": "C#5",
          "ticks": 109500,
          "time": 228.125,
          "velocity": 0.5905511811023622
        },
        {
          "duration": 0.23541666666667993,
          "durationTicks": 113,
          "midi": 74,
          "name": "D5",
          "ticks": 109560,
          "time": 228.25,
          "velocity": 0.5905511811023622
        },
        {
          "duration": 0,
          "durationTicks": 0,
          "midi": 65,
          "name": "F4",
          "ticks": 109740,
          "time": 228.625,
          "velocity": 0.5905511811023622
        },
        {
          "duration": 1.3041666666666742,
          "durationTicks": 626,
          "midi": 65,
          "name": "F4",
          "ticks": 109740,
          "time": 228.625,
          "velocity": 0.5905511811023622
        },
        {
          "duration": 0,
          "durationTicks": 0,
          "midi": 68,
          "name": "G#4",
          "ticks": 109800,
          "time": 228.75,
          "velocity": 0.5905511811023622
        },
        {
          "duration": 1.1854166666666686,
          "durationTicks": 569,
          "midi": 68,
          "name": "G#4",
          "ticks": 109800,
          "time": 228.75,
          "velocity": 0.5905511811023622
        },
        {
          "duration": 0.11666666666667425,
          "durationTicks": 56,
          "midi": 71,
          "name": "B4",
          "ticks": 109860,
          "time": 228.875,
          "velocity": 0.5905511811023622
        },
        {
          "duration": 0.23541666666667993,
          "durationTicks": 113,
          "midi": 74,
          "name": "D5",
          "ticks": 109920,
          "time": 229,
          "velocity": 0.5905511811023622
        },
        {
          "duration": 0.7104166666666742,
          "durationTicks": 341,
          "midi": 73,
          "name": "C#5",
          "ticks": 110040,
          "time": 229.25,
          "velocity": 0.5905511811023622
        },
        {
          "duration": 0.4729166666666629,
          "durationTicks": 227,
          "midi": 71,
          "name": "B4",
          "ticks": 110640,
          "time": 230.5,
          "velocity": 0.5905511811023622
        },
        {
          "duration": 0.4729166666666629,
          "durationTicks": 227,
          "midi": 71,
          "name": "B4",
          "ticks": 110880,
          "time": 231,
          "velocity": 0.5905511811023622
        },
        {
          "duration": 0.4729166666666629,
          "durationTicks": 227,
          "midi": 69,
          "name": "A4",
          "ticks": 111120,
          "time": 231.5,
          "velocity": 0.5905511811023622
        },
        {
          "duration": 0.4729166666666629,
          "durationTicks": 227,
          "midi": 69,
          "name": "A4",
          "ticks": 111360,
          "time": 232,
          "velocity": 0.5905511811023622
        },
        {
          "duration": 0.4729166666666629,
          "durationTicks": 227,
          "midi": 68,
          "name": "G#4",
          "ticks": 111600,
          "time": 232.5,
          "velocity": 0.5905511811023622
        },
        {
          "duration": 0.11666666666667425,
          "durationTicks": 56,
          "midi": 68,
          "name": "G#4",
          "ticks": 111840,
          "time": 233,
          "velocity": 0.5905511811023622
        },
        {
          "duration": 0.11666666666667425,
          "durationTicks": 56,
          "midi": 69,
          "name": "A4",
          "ticks": 111900,
          "time": 233.125,
          "velocity": 0.5905511811023622
        },
        {
          "duration": 0.11666666666667425,
          "durationTicks": 56,
          "midi": 71,
          "name": "B4",
          "ticks": 111960,
          "time": 233.25,
          "velocity": 0.5905511811023622
        },
        {
          "duration": 0.11666666666667425,
          "durationTicks": 56,
          "midi": 73,
          "name": "C#5",
          "ticks": 112020,
          "time": 233.375,
          "velocity": 0.5905511811023622
        },
        {
          "duration": 0.11666666666667425,
          "durationTicks": 56,
          "midi": 74,
          "name": "D5",
          "ticks": 112080,
          "time": 233.5,
          "velocity": 0.5905511811023622
        },
        {
          "duration": 0.11666666666667425,
          "durationTicks": 56,
          "midi": 71,
          "name": "B4",
          "ticks": 112140,
          "time": 233.625,
          "velocity": 0.5905511811023622
        },
        {
          "duration": 0.056250000000005684,
          "durationTicks": 27,
          "midi": 68,
          "name": "G#4",
          "ticks": 112200,
          "time": 233.75,
          "velocity": 0.5905511811023622
        },
        {
          "duration": 0.056250000000005684,
          "durationTicks": 27,
          "midi": 65,
          "name": "F4",
          "ticks": 112230,
          "time": 233.8125,
          "velocity": 0.5905511811023622
        },
        {
          "duration": 0.11666666666667425,
          "durationTicks": 56,
          "midi": 66,
          "name": "F#4",
          "ticks": 112260,
          "time": 233.875,
          "velocity": 0.5905511811023622
        },
        {
          "duration": 0.4729166666666629,
          "durationTicks": 227,
          "midi": 66,
          "name": "F#4",
          "ticks": 112320,
          "time": 234,
          "velocity": 0.5905511811023622
        },
        {
          "duration": 0.9479166666666572,
          "durationTicks": 455,
          "midi": 62,
          "name": "D4",
          "ticks": 112320,
          "time": 234,
          "velocity": 0.5905511811023622
        },
        {
          "duration": 0.4729166666666629,
          "durationTicks": 227,
          "midi": 65,
          "name": "F4",
          "ticks": 112560,
          "time": 234.5,
          "velocity": 0.5905511811023622
        },
        {
          "duration": 0.11666666666667425,
          "durationTicks": 56,
          "midi": 65,
          "name": "F4",
          "ticks": 112860,
          "time": 235.125,
          "velocity": 0.5905511811023622
        },
        {
          "duration": 0.11666666666667425,
          "durationTicks": 56,
          "midi": 66,
          "name": "F#4",
          "ticks": 112920,
          "time": 235.25,
          "velocity": 0.5905511811023622
        },
        {
          "duration": 0.11666666666667425,
          "durationTicks": 56,
          "midi": 68,
          "name": "G#4",
          "ticks": 112980,
          "time": 235.375,
          "velocity": 0.5905511811023622
        },
        {
          "duration": 0.08541666666667425,
          "durationTicks": 41,
          "midi": 66,
          "name": "F#4",
          "ticks": 113040,
          "time": 235.5,
          "velocity": 0.5905511811023622
        },
        {
          "duration": 0.08541666666667425,
          "durationTicks": 41,
          "midi": 68,
          "name": "G#4",
          "ticks": 113085,
          "time": 235.59375,
          "velocity": 0.5905511811023622
        },
        {
          "duration": 0.08541666666667425,
          "durationTicks": 41,
          "midi": 66,
          "name": "F#4",
          "ticks": 113130,
          "time": 235.6875,
          "velocity": 0.5905511811023622
        },
        {
          "duration": 0.08541666666667425,
          "durationTicks": 41,
          "midi": 68,
          "name": "G#4",
          "ticks": 113175,
          "time": 235.78125,
          "velocity": 0.5905511811023622
        },
        {
          "duration": 0.11666666666667425,
          "durationTicks": 56,
          "midi": 65,
          "name": "F4",
          "ticks": 113220,
          "time": 235.875,
          "velocity": 0.5905511811023622
        },
        {
          "duration": 0,
          "durationTicks": 0,
          "midi": 71,
          "name": "B4",
          "ticks": 113280,
          "time": 236,
          "velocity": 0.5905511811023622
        },
        {
          "duration": 0.4729166666666629,
          "durationTicks": 227,
          "midi": 71,
          "name": "B4",
          "ticks": 113280,
          "time": 236,
          "velocity": 0.5905511811023622
        },
        {
          "duration": 0.11666666666667425,
          "durationTicks": 56,
          "midi": 73,
          "name": "C#5",
          "ticks": 113400,
          "time": 236.25,
          "velocity": 0.5905511811023622
        },
        {
          "duration": 0.11666666666667425,
          "durationTicks": 56,
          "midi": 74,
          "name": "D5",
          "ticks": 113460,
          "time": 236.375,
          "velocity": 0.5905511811023622
        },
        {
          "duration": 0.23541666666667993,
          "durationTicks": 113,
          "midi": 73,
          "name": "C#5",
          "ticks": 113520,
          "time": 236.5,
          "velocity": 0.5905511811023622
        },
        {
          "duration": 0.23541666666667993,
          "durationTicks": 113,
          "midi": 69,
          "name": "A4",
          "ticks": 113520,
          "time": 236.5,
          "velocity": 0.5905511811023622
        },
        {
          "duration": 0.23541666666667993,
          "durationTicks": 113,
          "midi": 71,
          "name": "B4",
          "ticks": 113640,
          "time": 236.75,
          "velocity": 0.5905511811023622
        },
        {
          "duration": 0.23541666666667993,
          "durationTicks": 113,
          "midi": 68,
          "name": "G#4",
          "ticks": 113640,
          "time": 236.75,
          "velocity": 0.5905511811023622
        },
        {
          "duration": 0.23541666666667993,
          "durationTicks": 113,
          "midi": 69,
          "name": "A4",
          "ticks": 113760,
          "time": 237,
          "velocity": 0.5905511811023622
        },
        {
          "duration": 0.4729166666666629,
          "durationTicks": 227,
          "midi": 66,
          "name": "F#4",
          "ticks": 113760,
          "time": 237,
          "velocity": 0.5905511811023622
        },
        {
          "duration": 0.11666666666667425,
          "durationTicks": 56,
          "midi": 68,
          "name": "G#4",
          "ticks": 113880,
          "time": 237.25,
          "velocity": 0.5905511811023622
        },
        {
          "duration": 0.11666666666667425,
          "durationTicks": 56,
          "midi": 71,
          "name": "B4",
          "ticks": 113940,
          "time": 237.375,
          "velocity": 0.5905511811023622
        },
        {
          "duration": 0.23541666666667993,
          "durationTicks": 113,
          "midi": 69,
          "name": "A4",
          "ticks": 114000,
          "time": 237.5,
          "velocity": 0.5905511811023622
        },
        {
          "duration": 0.4729166666666629,
          "durationTicks": 227,
          "midi": 65,
          "name": "F4",
          "ticks": 114000,
          "time": 237.5,
          "velocity": 0.5905511811023622
        },
        {
          "duration": 0.11666666666667425,
          "durationTicks": 56,
          "midi": 68,
          "name": "G#4",
          "ticks": 114120,
          "time": 237.75,
          "velocity": 0.5905511811023622
        },
        {
          "duration": 0.11666666666667425,
          "durationTicks": 56,
          "midi": 66,
          "name": "F#4",
          "ticks": 114180,
          "time": 237.875,
          "velocity": 0.5905511811023622
        },
        {
          "duration": 0.9479166666666572,
          "durationTicks": 455,
          "midi": 75,
          "name": "D#5",
          "ticks": 114240,
          "time": 238,
          "velocity": 0.5905511811023622
        },
        {
          "duration": 0.9479166666666572,
          "durationTicks": 455,
          "midi": 66,
          "name": "F#4",
          "ticks": 114240,
          "time": 238,
          "velocity": 0.5905511811023622
        },
        {
          "duration": 0.9479166666666572,
          "durationTicks": 455,
          "midi": 69,
          "name": "A4",
          "ticks": 114240,
          "time": 238,
          "velocity": 0.5905511811023622
        },
        {
          "duration": 0.11666666666667425,
          "durationTicks": 56,
          "midi": 76,
          "name": "E5",
          "ticks": 114780,
          "time": 239.125,
          "velocity": 0.5905511811023622
        },
        {
          "duration": 0.11666666666667425,
          "durationTicks": 56,
          "midi": 75,
          "name": "D#5",
          "ticks": 114840,
          "time": 239.25,
          "velocity": 0.5905511811023622
        },
        {
          "duration": 0.11666666666667425,
          "durationTicks": 56,
          "midi": 73,
          "name": "C#5",
          "ticks": 114900,
          "time": 239.375,
          "velocity": 0.5905511811023622
        },
        {
          "duration": 0.11666666666667425,
          "durationTicks": 56,
          "midi": 72,
          "name": "C5",
          "ticks": 114960,
          "time": 239.5,
          "velocity": 0.5905511811023622
        },
        {
          "duration": 0.11666666666667425,
          "durationTicks": 56,
          "midi": 73,
          "name": "C#5",
          "ticks": 115020,
          "time": 239.625,
          "velocity": 0.5905511811023622
        },
        {
          "duration": 0.11666666666667425,
          "durationTicks": 56,
          "midi": 75,
          "name": "D#5",
          "ticks": 115080,
          "time": 239.75,
          "velocity": 0.5905511811023622
        },
        {
          "duration": 0.11666666666667425,
          "durationTicks": 56,
          "midi": 78,
          "name": "F#5",
          "ticks": 115140,
          "time": 239.875,
          "velocity": 0.5905511811023622
        },
        {
          "duration": 0.4729166666666629,
          "durationTicks": 227,
          "midi": 81,
          "name": "A5",
          "ticks": 115200,
          "time": 240,
          "velocity": 0.5905511811023622
        },
        {
          "duration": 0.4729166666666629,
          "durationTicks": 227,
          "midi": 81,
          "name": "A5",
          "ticks": 115440,
          "time": 240.5,
          "velocity": 0.5905511811023622
        },
        {
          "duration": 0.11666666666667425,
          "durationTicks": 56,
          "midi": 72,
          "name": "C5",
          "ticks": 115680,
          "time": 241,
          "velocity": 0.5905511811023622
        },
        {
          "duration": 0.11666666666667425,
          "durationTicks": 56,
          "midi": 75,
          "name": "D#5",
          "ticks": 115740,
          "time": 241.125,
          "velocity": 0.5905511811023622
        },
        {
          "duration": 0.11666666666667425,
          "durationTicks": 56,
          "midi": 78,
          "name": "F#5",
          "ticks": 115800,
          "time": 241.25,
          "velocity": 0.5905511811023622
        },
        {
          "duration": 0.11666666666667425,
          "durationTicks": 56,
          "midi": 81,
          "name": "A5",
          "ticks": 115860,
          "time": 241.375,
          "velocity": 0.5905511811023622
        },
        {
          "duration": 0.23541666666667993,
          "durationTicks": 113,
          "midi": 80,
          "name": "G#5",
          "ticks": 115920,
          "time": 241.5,
          "velocity": 0.5905511811023622
        },
        {
          "duration": 0.11666666666667425,
          "durationTicks": 56,
          "midi": 81,
          "name": "A5",
          "ticks": 116040,
          "time": 241.75,
          "velocity": 0.5905511811023622
        },
        {
          "duration": 0.11666666666667425,
          "durationTicks": 56,
          "midi": 78,
          "name": "F#5",
          "ticks": 116100,
          "time": 241.875,
          "velocity": 0.5905511811023622
        },
        {
          "duration": 0.4729166666666629,
          "durationTicks": 227,
          "midi": 78,
          "name": "F#5",
          "ticks": 116160,
          "time": 242,
          "velocity": 0.5905511811023622
        },
        {
          "duration": 0.9479166666666572,
          "durationTicks": 455,
          "midi": 68,
          "name": "G#4",
          "ticks": 116160,
          "time": 242,
          "velocity": 0.5905511811023622
        },
        {
          "duration": 0.9479166666666572,
          "durationTicks": 455,
          "midi": 73,
          "name": "C#5",
          "ticks": 116160,
          "time": 242,
          "velocity": 0.5905511811023622
        },
        {
          "duration": 0.6312499999999943,
          "durationTicks": 303,
          "midi": 76,
          "name": "E5",
          "ticks": 116400,
          "time": 242.5,
          "velocity": 0.5905511811023622
        },
        {
          "duration": 0.15625,
          "durationTicks": 75,
          "midi": 73,
          "name": "C#5",
          "ticks": 116720,
          "time": 243.16666666666666,
          "velocity": 0.5905511811023622
        },
        {
          "duration": 0.15625,
          "durationTicks": 75,
          "midi": 72,
          "name": "C5",
          "ticks": 116800,
          "time": 243.33333333333334,
          "velocity": 0.5905511811023622
        },
        {
          "duration": 0.15625,
          "durationTicks": 75,
          "midi": 73,
          "name": "C#5",
          "ticks": 116880,
          "time": 243.5,
          "velocity": 0.5905511811023622
        },
        {
          "duration": 0.15625,
          "durationTicks": 75,
          "midi": 68,
          "name": "G#4",
          "ticks": 116960,
          "time": 243.66666666666666,
          "velocity": 0.5905511811023622
        },
        {
          "duration": 0.15625,
          "durationTicks": 75,
          "midi": 66,
          "name": "F#4",
          "ticks": 117040,
          "time": 243.83333333333334,
          "velocity": 0.5905511811023622
        },
        {
          "duration": 0.15625,
          "durationTicks": 75,
          "midi": 68,
          "name": "G#4",
          "ticks": 117120,
          "time": 244,
          "velocity": 0.5905511811023622
        },
        {
          "duration": 0.15625,
          "durationTicks": 75,
          "midi": 64,
          "name": "E4",
          "ticks": 117200,
          "time": 244.16666666666666,
          "velocity": 0.5905511811023622
        },
        {
          "duration": 0.15625,
          "durationTicks": 75,
          "midi": 63,
          "name": "D#4",
          "ticks": 117280,
          "time": 244.33333333333334,
          "velocity": 0.5905511811023622
        },
        {
          "duration": 0.15625,
          "durationTicks": 75,
          "midi": 64,
          "name": "E4",
          "ticks": 117360,
          "time": 244.5,
          "velocity": 0.5905511811023622
        },
        {
          "duration": 0.15625,
          "durationTicks": 75,
          "midi": 61,
          "name": "C#4",
          "ticks": 117440,
          "time": 244.66666666666666,
          "velocity": 0.5905511811023622
        },
        {
          "duration": 0.15625,
          "durationTicks": 75,
          "midi": 60,
          "name": "C4",
          "ticks": 117520,
          "time": 244.83333333333334,
          "velocity": 0.5905511811023622
        },
        {
          "duration": 0.15625,
          "durationTicks": 75,
          "midi": 61,
          "name": "C#4",
          "ticks": 117600,
          "time": 245,
          "velocity": 0.5905511811023622
        },
        {
          "duration": 0.15625,
          "durationTicks": 75,
          "midi": 64,
          "name": "E4",
          "ticks": 117680,
          "time": 245.16666666666666,
          "velocity": 0.5905511811023622
        },
        {
          "duration": 0.15625,
          "durationTicks": 75,
          "midi": 63,
          "name": "D#4",
          "ticks": 117760,
          "time": 245.33333333333334,
          "velocity": 0.5905511811023622
        },
        {
          "duration": 0.15625,
          "durationTicks": 75,
          "midi": 64,
          "name": "E4",
          "ticks": 117840,
          "time": 245.5,
          "velocity": 0.5905511811023622
        },
        {
          "duration": 0.15625,
          "durationTicks": 75,
          "midi": 69,
          "name": "A4",
          "ticks": 117920,
          "time": 245.66666666666666,
          "velocity": 0.5905511811023622
        },
        {
          "duration": 0.15625,
          "durationTicks": 75,
          "midi": 68,
          "name": "G#4",
          "ticks": 118000,
          "time": 245.83333333333334,
          "velocity": 0.5905511811023622
        },
        {
          "duration": 0.15625,
          "durationTicks": 75,
          "midi": 69,
          "name": "A4",
          "ticks": 118080,
          "time": 246,
          "velocity": 0.5905511811023622
        },
        {
          "duration": 0.15625,
          "durationTicks": 75,
          "midi": 73,
          "name": "C#5",
          "ticks": 118160,
          "time": 246.16666666666666,
          "velocity": 0.5905511811023622
        },
        {
          "duration": 0.15625,
          "durationTicks": 75,
          "midi": 71,
          "name": "B4",
          "ticks": 118240,
          "time": 246.33333333333334,
          "velocity": 0.5905511811023622
        },
        {
          "duration": 0.15625,
          "durationTicks": 75,
          "midi": 73,
          "name": "C#5",
          "ticks": 118320,
          "time": 246.5,
          "velocity": 0.5905511811023622
        },
        {
          "duration": 0.15625,
          "durationTicks": 75,
          "midi": 76,
          "name": "E5",
          "ticks": 118400,
          "time": 246.66666666666666,
          "velocity": 0.5905511811023622
        },
        {
          "duration": 0.15625,
          "durationTicks": 75,
          "midi": 74,
          "name": "D5",
          "ticks": 118480,
          "time": 246.83333333333334,
          "velocity": 0.5905511811023622
        },
        {
          "duration": 0.15625,
          "durationTicks": 75,
          "midi": 76,
          "name": "E5",
          "ticks": 118560,
          "time": 247,
          "velocity": 0.5905511811023622
        },
        {
          "duration": 0.15625,
          "durationTicks": 75,
          "midi": 78,
          "name": "F#5",
          "ticks": 118640,
          "time": 247.16666666666666,
          "velocity": 0.5905511811023622
        },
        {
          "duration": 0.15625,
          "durationTicks": 75,
          "midi": 79,
          "name": "G5",
          "ticks": 118720,
          "time": 247.33333333333334,
          "velocity": 0.5905511811023622
        },
        {
          "duration": 0.08541666666667425,
          "durationTicks": 41,
          "midi": 79,
          "name": "G5",
          "ticks": 118800,
          "time": 247.5,
          "velocity": 0.5905511811023622
        },
        {
          "duration": 0.08541666666667425,
          "durationTicks": 41,
          "midi": 81,
          "name": "A5",
          "ticks": 118845,
          "time": 247.59375,
          "velocity": 0.5905511811023622
        },
        {
          "duration": 0.08541666666667425,
          "durationTicks": 41,
          "midi": 79,
          "name": "G5",
          "ticks": 118890,
          "time": 247.6875,
          "velocity": 0.5905511811023622
        },
        {
          "duration": 0.08541666666667425,
          "durationTicks": 41,
          "midi": 81,
          "name": "A5",
          "ticks": 118935,
          "time": 247.78125,
          "velocity": 0.5905511811023622
        },
        {
          "duration": 0.037499999999994316,
          "durationTicks": 18,
          "midi": 78,
          "name": "F#5",
          "ticks": 118980,
          "time": 247.875,
          "velocity": 0.5905511811023622
        },
        {
          "duration": 0.03750000000002274,
          "durationTicks": 18,
          "midi": 79,
          "name": "G5",
          "ticks": 119000,
          "time": 247.91666666666666,
          "velocity": 0.5905511811023622
        },
        {
          "duration": 0.037499999999994316,
          "durationTicks": 18,
          "midi": 81,
          "name": "A5",
          "ticks": 119020,
          "time": 247.95833333333334,
          "velocity": 0.5905511811023622
        },
        {
          "duration": 0.23541666666667993,
          "durationTicks": 113,
          "midi": 75,
          "name": "D#5",
          "ticks": 119040,
          "time": 248,
          "velocity": 0.5905511811023622
        },
        {
          "duration": 1.1854166666666686,
          "durationTicks": 569,
          "midi": 74,
          "name": "D5",
          "ticks": 119160,
          "time": 248.25,
          "velocity": 0.5905511811023622
        },
        {
          "duration": 0.9479166666666572,
          "durationTicks": 455,
          "midi": 62,
          "name": "D4",
          "ticks": 119520,
          "time": 249,
          "velocity": 0.5905511811023622
        },
        {
          "duration": 0.9479166666666572,
          "durationTicks": 455,
          "midi": 66,
          "name": "F#4",
          "ticks": 119520,
          "time": 249,
          "velocity": 0.5905511811023622
        },
        {
          "duration": 0.9479166666666572,
          "durationTicks": 455,
          "midi": 69,
          "name": "A4",
          "ticks": 119520,
          "time": 249,
          "velocity": 0.5905511811023622
        },
        {
          "duration": 0.11666666666667425,
          "durationTicks": 56,
          "midi": 74,
          "name": "D5",
          "ticks": 119760,
          "time": 249.5,
          "velocity": 0.5905511811023622
        },
        {
          "duration": 0.11666666666667425,
          "durationTicks": 56,
          "midi": 74,
          "name": "D5",
          "ticks": 119820,
          "time": 249.625,
          "velocity": 0.5905511811023622
        },
        {
          "duration": 0.11666666666667425,
          "durationTicks": 56,
          "midi": 72,
          "name": "C5",
          "ticks": 119880,
          "time": 249.75,
          "velocity": 0.5905511811023622
        },
        {
          "duration": 0.11666666666667425,
          "durationTicks": 56,
          "midi": 70,
          "name": "A#4",
          "ticks": 119940,
          "time": 249.875,
          "velocity": 0.5905511811023622
        },
        {
          "duration": 0.11666666666667425,
          "durationTicks": 56,
          "midi": 69,
          "name": "A4",
          "ticks": 120000,
          "time": 250,
          "velocity": 0.5905511811023622
        },
        {
          "duration": 0.11666666666667425,
          "durationTicks": 56,
          "midi": 70,
          "name": "A#4",
          "ticks": 120060,
          "time": 250.125,
          "velocity": 0.5905511811023622
        },
        {
          "duration": 0.11666666666667425,
          "durationTicks": 56,
          "midi": 72,
          "name": "C5",
          "ticks": 120120,
          "time": 250.25,
          "velocity": 0.5905511811023622
        },
        {
          "duration": 0.11666666666667425,
          "durationTicks": 56,
          "midi": 75,
          "name": "D#5",
          "ticks": 120180,
          "time": 250.375,
          "velocity": 0.5905511811023622
        },
        {
          "duration": 0.11666666666667425,
          "durationTicks": 56,
          "midi": 72,
          "name": "C5",
          "ticks": 120240,
          "time": 250.5,
          "velocity": 0.5905511811023622
        },
        {
          "duration": 0.11666666666667425,
          "durationTicks": 56,
          "midi": 70,
          "name": "A#4",
          "ticks": 120300,
          "time": 250.625,
          "velocity": 0.5905511811023622
        },
        {
          "duration": 0.11666666666667425,
          "durationTicks": 56,
          "midi": 69,
          "name": "A4",
          "ticks": 120360,
          "time": 250.75,
          "velocity": 0.5905511811023622
        },
        {
          "duration": 0.11666666666667425,
          "durationTicks": 56,
          "midi": 67,
          "name": "G4",
          "ticks": 120420,
          "time": 250.875,
          "velocity": 0.5905511811023622
        },
        {
          "duration": 0.11666666666667425,
          "durationTicks": 56,
          "midi": 66,
          "name": "F#4",
          "ticks": 120480,
          "time": 251,
          "velocity": 0.5905511811023622
        },
        {
          "duration": 0.11666666666667425,
          "durationTicks": 56,
          "midi": 67,
          "name": "G4",
          "ticks": 120540,
          "time": 251.125,
          "velocity": 0.5905511811023622
        },
        {
          "duration": 0.11666666666667425,
          "durationTicks": 56,
          "midi": 69,
          "name": "A4",
          "ticks": 120600,
          "time": 251.25,
          "velocity": 0.5905511811023622
        },
        {
          "duration": 0.11666666666667425,
          "durationTicks": 56,
          "midi": 72,
          "name": "C5",
          "ticks": 120660,
          "time": 251.375,
          "velocity": 0.5905511811023622
        },
        {
          "duration": 0.11666666666667425,
          "durationTicks": 56,
          "midi": 69,
          "name": "A4",
          "ticks": 120720,
          "time": 251.5,
          "velocity": 0.5905511811023622
        },
        {
          "duration": 0.11666666666667425,
          "durationTicks": 56,
          "midi": 67,
          "name": "G4",
          "ticks": 120780,
          "time": 251.625,
          "velocity": 0.5905511811023622
        },
        {
          "duration": 0.11666666666667425,
          "durationTicks": 56,
          "midi": 66,
          "name": "F#4",
          "ticks": 120840,
          "time": 251.75,
          "velocity": 0.5905511811023622
        },
        {
          "duration": 0.11666666666667425,
          "durationTicks": 56,
          "midi": 64,
          "name": "E4",
          "ticks": 120900,
          "time": 251.875,
          "velocity": 0.5905511811023622
        },
        {
          "duration": 0.11666666666667425,
          "durationTicks": 56,
          "midi": 62,
          "name": "D4",
          "ticks": 120960,
          "time": 252,
          "velocity": 0.5905511811023622
        },
        {
          "duration": 0.11666666666667425,
          "durationTicks": 56,
          "midi": 64,
          "name": "E4",
          "ticks": 121020,
          "time": 252.125,
          "velocity": 0.5905511811023622
        },
        {
          "duration": 0.11666666666667425,
          "durationTicks": 56,
          "midi": 66,
          "name": "F#4",
          "ticks": 121080,
          "time": 252.25,
          "velocity": 0.5905511811023622
        },
        {
          "duration": 0.11666666666667425,
          "durationTicks": 56,
          "midi": 69,
          "name": "A4",
          "ticks": 121140,
          "time": 252.375,
          "velocity": 0.5905511811023622
        },
        {
          "duration": 0.11666666666667425,
          "durationTicks": 56,
          "midi": 67,
          "name": "G4",
          "ticks": 121200,
          "time": 252.5,
          "velocity": 0.5905511811023622
        },
        {
          "duration": 0.11666666666667425,
          "durationTicks": 56,
          "midi": 66,
          "name": "F#4",
          "ticks": 121260,
          "time": 252.625,
          "velocity": 0.5905511811023622
        },
        {
          "duration": 0.11666666666667425,
          "durationTicks": 56,
          "midi": 64,
          "name": "E4",
          "ticks": 121320,
          "time": 252.75,
          "velocity": 0.5905511811023622
        },
        {
          "duration": 0.11666666666667425,
          "durationTicks": 56,
          "midi": 62,
          "name": "D4",
          "ticks": 121380,
          "time": 252.875,
          "velocity": 0.5905511811023622
        },
        {
          "duration": 0.11666666666667425,
          "durationTicks": 56,
          "midi": 60,
          "name": "C4",
          "ticks": 121440,
          "time": 253,
          "velocity": 0.5905511811023622
        },
        {
          "duration": 0.11666666666667425,
          "durationTicks": 56,
          "midi": 62,
          "name": "D4",
          "ticks": 121500,
          "time": 253.125,
          "velocity": 0.5905511811023622
        },
        {
          "duration": 0.11666666666667425,
          "durationTicks": 56,
          "midi": 63,
          "name": "D#4",
          "ticks": 121560,
          "time": 253.25,
          "velocity": 0.5905511811023622
        },
        {
          "duration": 0.11666666666667425,
          "durationTicks": 56,
          "midi": 66,
          "name": "F#4",
          "ticks": 121620,
          "time": 253.375,
          "velocity": 0.5905511811023622
        },
        {
          "duration": 0.11666666666667425,
          "durationTicks": 56,
          "midi": 63,
          "name": "D#4",
          "ticks": 121680,
          "time": 253.5,
          "velocity": 0.5905511811023622
        },
        {
          "duration": 0.11666666666667425,
          "durationTicks": 56,
          "midi": 62,
          "name": "D4",
          "ticks": 121740,
          "time": 253.625,
          "velocity": 0.5905511811023622
        },
        {
          "duration": 0.11666666666667425,
          "durationTicks": 56,
          "midi": 60,
          "name": "C4",
          "ticks": 121800,
          "time": 253.75,
          "velocity": 0.5905511811023622
        },
        {
          "duration": 0.11666666666667425,
          "durationTicks": 56,
          "midi": 58,
          "name": "A#3",
          "ticks": 121860,
          "time": 253.875,
          "velocity": 0.5905511811023622
        },
        {
          "duration": 0.11666666666667425,
          "durationTicks": 56,
          "midi": 57,
          "name": "A3",
          "ticks": 121920,
          "time": 254,
          "velocity": 0.5905511811023622
        },
        {
          "duration": 0.11666666666667425,
          "durationTicks": 56,
          "midi": 58,
          "name": "A#3",
          "ticks": 121980,
          "time": 254.125,
          "velocity": 0.5905511811023622
        },
        {
          "duration": 0.11666666666667425,
          "durationTicks": 56,
          "midi": 60,
          "name": "C4",
          "ticks": 122040,
          "time": 254.25,
          "velocity": 0.5905511811023622
        },
        {
          "duration": 0.11666666666667425,
          "durationTicks": 56,
          "midi": 63,
          "name": "D#4",
          "ticks": 122100,
          "time": 254.375,
          "velocity": 0.5905511811023622
        },
        {
          "duration": 0.11666666666667425,
          "durationTicks": 56,
          "midi": 60,
          "name": "C4",
          "ticks": 122160,
          "time": 254.5,
          "velocity": 0.5905511811023622
        },
        {
          "duration": 0.11666666666667425,
          "durationTicks": 56,
          "midi": 58,
          "name": "A#3",
          "ticks": 122220,
          "time": 254.625,
          "velocity": 0.5905511811023622
        },
        {
          "duration": 0.11666666666667425,
          "durationTicks": 56,
          "midi": 57,
          "name": "A3",
          "ticks": 122280,
          "time": 254.75,
          "velocity": 0.5905511811023622
        },
        {
          "duration": 0.11666666666667425,
          "durationTicks": 56,
          "midi": 55,
          "name": "G3",
          "ticks": 122340,
          "time": 254.875,
          "velocity": 0.5905511811023622
        },
        {
          "duration": 0.11666666666667425,
          "durationTicks": 56,
          "midi": 54,
          "name": "F#3",
          "ticks": 122400,
          "time": 255,
          "velocity": 0.5905511811023622
        },
        {
          "duration": 0.11666666666667425,
          "durationTicks": 56,
          "midi": 55,
          "name": "G3",
          "ticks": 122460,
          "time": 255.125,
          "velocity": 0.5905511811023622
        },
        {
          "duration": 0.11666666666667425,
          "durationTicks": 56,
          "midi": 57,
          "name": "A3",
          "ticks": 122520,
          "time": 255.25,
          "velocity": 0.5905511811023622
        },
        {
          "duration": 0.11666666666667425,
          "durationTicks": 56,
          "midi": 60,
          "name": "C4",
          "ticks": 122580,
          "time": 255.375,
          "velocity": 0.5905511811023622
        },
        {
          "duration": 0.11666666666667425,
          "durationTicks": 56,
          "midi": 57,
          "name": "A3",
          "ticks": 122640,
          "time": 255.5,
          "velocity": 0.5905511811023622
        },
        {
          "duration": 0.11666666666667425,
          "durationTicks": 56,
          "midi": 55,
          "name": "G3",
          "ticks": 122700,
          "time": 255.625,
          "velocity": 0.5905511811023622
        },
        {
          "duration": 0.11666666666667425,
          "durationTicks": 56,
          "midi": 54,
          "name": "F#3",
          "ticks": 122760,
          "time": 255.75,
          "velocity": 0.5905511811023622
        },
        {
          "duration": 0.11666666666667425,
          "durationTicks": 56,
          "midi": 52,
          "name": "E3",
          "ticks": 122820,
          "time": 255.875,
          "velocity": 0.5905511811023622
        },
        {
          "duration": 0.11666666666667425,
          "durationTicks": 56,
          "midi": 57,
          "name": "A3",
          "ticks": 123120,
          "time": 256.5,
          "velocity": 0.5905511811023622
        },
        {
          "duration": 0.11666666666667425,
          "durationTicks": 56,
          "midi": 58,
          "name": "A#3",
          "ticks": 123180,
          "time": 256.625,
          "velocity": 0.5905511811023622
        },
        {
          "duration": 0.11666666666667425,
          "durationTicks": 56,
          "midi": 60,
          "name": "C4",
          "ticks": 123240,
          "time": 256.75,
          "velocity": 0.5905511811023622
        },
        {
          "duration": 0.11666666666667425,
          "durationTicks": 56,
          "midi": 57,
          "name": "A3",
          "ticks": 123300,
          "time": 256.875,
          "velocity": 0.5905511811023622
        },
        {
          "duration": 0.11666666666667425,
          "durationTicks": 56,
          "midi": 58,
          "name": "A#3",
          "ticks": 123360,
          "time": 257,
          "velocity": 0.5905511811023622
        },
        {
          "duration": 0.11666666666667425,
          "durationTicks": 56,
          "midi": 60,
          "name": "C4",
          "ticks": 123420,
          "time": 257.125,
          "velocity": 0.5905511811023622
        },
        {
          "duration": 0.11666666666667425,
          "durationTicks": 56,
          "midi": 54,
          "name": "F#3",
          "ticks": 123480,
          "time": 257.25,
          "velocity": 0.5905511811023622
        },
        {
          "duration": 0.11666666666667425,
          "durationTicks": 56,
          "midi": 55,
          "name": "G3",
          "ticks": 123540,
          "time": 257.375,
          "velocity": 0.5905511811023622
        },
        {
          "duration": 0.11666666666667425,
          "durationTicks": 56,
          "midi": 57,
          "name": "A3",
          "ticks": 123600,
          "time": 257.5,
          "velocity": 0.5905511811023622
        },
        {
          "duration": 0.11666666666667425,
          "durationTicks": 56,
          "midi": 58,
          "name": "A#3",
          "ticks": 123660,
          "time": 257.625,
          "velocity": 0.5905511811023622
        },
        {
          "duration": 0.11666666666667425,
          "durationTicks": 56,
          "midi": 60,
          "name": "C4",
          "ticks": 123720,
          "time": 257.75,
          "velocity": 0.5905511811023622
        },
        {
          "duration": 0.11666666666667425,
          "durationTicks": 56,
          "midi": 62,
          "name": "D4",
          "ticks": 123780,
          "time": 257.875,
          "velocity": 0.5905511811023622
        },
        {
          "duration": 0.11666666666667425,
          "durationTicks": 56,
          "midi": 63,
          "name": "D#4",
          "ticks": 123840,
          "time": 258,
          "velocity": 0.5905511811023622
        },
        {
          "duration": 0.11666666666667425,
          "durationTicks": 56,
          "midi": 60,
          "name": "C4",
          "ticks": 123900,
          "time": 258.125,
          "velocity": 0.5905511811023622
        },
        {
          "duration": 0.11666666666667425,
          "durationTicks": 56,
          "midi": 62,
          "name": "D4",
          "ticks": 123960,
          "time": 258.25,
          "velocity": 0.5905511811023622
        },
        {
          "duration": 0.11666666666667425,
          "durationTicks": 56,
          "midi": 63,
          "name": "D#4",
          "ticks": 124020,
          "time": 258.375,
          "velocity": 0.5905511811023622
        },
        {
          "duration": 0.11666666666667425,
          "durationTicks": 56,
          "midi": 57,
          "name": "A3",
          "ticks": 124080,
          "time": 258.5,
          "velocity": 0.5905511811023622
        },
        {
          "duration": 0.11666666666667425,
          "durationTicks": 56,
          "midi": 58,
          "name": "A#3",
          "ticks": 124140,
          "time": 258.625,
          "velocity": 0.5905511811023622
        },
        {
          "duration": 0.11666666666667425,
          "durationTicks": 56,
          "midi": 60,
          "name": "C4",
          "ticks": 124200,
          "time": 258.75,
          "velocity": 0.5905511811023622
        },
        {
          "duration": 0.11666666666667425,
          "durationTicks": 56,
          "midi": 62,
          "name": "D4",
          "ticks": 124260,
          "time": 258.875,
          "velocity": 0.5905511811023622
        },
        {
          "duration": 0.11666666666667425,
          "durationTicks": 56,
          "midi": 64,
          "name": "E4",
          "ticks": 124320,
          "time": 259,
          "velocity": 0.5905511811023622
        },
        {
          "duration": 0.11666666666667425,
          "durationTicks": 56,
          "midi": 66,
          "name": "F#4",
          "ticks": 124380,
          "time": 259.125,
          "velocity": 0.5905511811023622
        },
        {
          "duration": 0.11666666666667425,
          "durationTicks": 56,
          "midi": 67,
          "name": "G4",
          "ticks": 124440,
          "time": 259.25,
          "velocity": 0.5905511811023622
        },
        {
          "duration": 0.11666666666667425,
          "durationTicks": 56,
          "midi": 69,
          "name": "A4",
          "ticks": 124500,
          "time": 259.375,
          "velocity": 0.5905511811023622
        },
        {
          "duration": 0.11666666666667425,
          "durationTicks": 56,
          "midi": 66,
          "name": "F#4",
          "ticks": 124560,
          "time": 259.5,
          "velocity": 0.5905511811023622
        },
        {
          "duration": 0.11666666666667425,
          "durationTicks": 56,
          "midi": 67,
          "name": "G4",
          "ticks": 124620,
          "time": 259.625,
          "velocity": 0.5905511811023622
        },
        {
          "duration": 0.11666666666667425,
          "durationTicks": 56,
          "midi": 69,
          "name": "A4",
          "ticks": 124680,
          "time": 259.75,
          "velocity": 0.5905511811023622
        },
        {
          "duration": 0.11666666666667425,
          "durationTicks": 56,
          "midi": 62,
          "name": "D4",
          "ticks": 124740,
          "time": 259.875,
          "velocity": 0.5905511811023622
        },
        {
          "duration": 0.11666666666667425,
          "durationTicks": 56,
          "midi": 64,
          "name": "E4",
          "ticks": 124800,
          "time": 260,
          "velocity": 0.5905511811023622
        },
        {
          "duration": 0.11666666666667425,
          "durationTicks": 56,
          "midi": 66,
          "name": "F#4",
          "ticks": 124860,
          "time": 260.125,
          "velocity": 0.5905511811023622
        },
        {
          "duration": 0.11666666666667425,
          "durationTicks": 56,
          "midi": 67,
          "name": "G4",
          "ticks": 124920,
          "time": 260.25,
          "velocity": 0.5905511811023622
        },
        {
          "duration": 0.11666666666667425,
          "durationTicks": 56,
          "midi": 69,
          "name": "A4",
          "ticks": 124980,
          "time": 260.375,
          "velocity": 0.5905511811023622
        },
        {
          "duration": 0.11666666666667425,
          "durationTicks": 56,
          "midi": 70,
          "name": "A#4",
          "ticks": 125040,
          "time": 260.5,
          "velocity": 0.5905511811023622
        },
        {
          "duration": 0.11666666666667425,
          "durationTicks": 56,
          "midi": 72,
          "name": "C5",
          "ticks": 125100,
          "time": 260.625,
          "velocity": 0.5905511811023622
        },
        {
          "duration": 0.11666666666667425,
          "durationTicks": 56,
          "midi": 69,
          "name": "A4",
          "ticks": 125160,
          "time": 260.75,
          "velocity": 0.5905511811023622
        },
        {
          "duration": 0.11666666666667425,
          "durationTicks": 56,
          "midi": 70,
          "name": "A#4",
          "ticks": 125220,
          "time": 260.875,
          "velocity": 0.5905511811023622
        },
        {
          "duration": 0.11666666666667425,
          "durationTicks": 56,
          "midi": 72,
          "name": "C5",
          "ticks": 125280,
          "time": 261,
          "velocity": 0.5905511811023622
        },
        {
          "duration": 0.11666666666667425,
          "durationTicks": 56,
          "midi": 66,
          "name": "F#4",
          "ticks": 125340,
          "time": 261.125,
          "velocity": 0.5905511811023622
        },
        {
          "duration": 0.11666666666667425,
          "durationTicks": 56,
          "midi": 67,
          "name": "G4",
          "ticks": 125400,
          "time": 261.25,
          "velocity": 0.5905511811023622
        },
        {
          "duration": 0.11666666666667425,
          "durationTicks": 56,
          "midi": 69,
          "name": "A4",
          "ticks": 125460,
          "time": 261.375,
          "velocity": 0.5905511811023622
        },
        {
          "duration": 0.11666666666667425,
          "durationTicks": 56,
          "midi": 70,
          "name": "A#4",
          "ticks": 125520,
          "time": 261.5,
          "velocity": 0.5905511811023622
        },
        {
          "duration": 0.11666666666667425,
          "durationTicks": 56,
          "midi": 72,
          "name": "C5",
          "ticks": 125580,
          "time": 261.625,
          "velocity": 0.5905511811023622
        },
        {
          "duration": 0.11666666666667425,
          "durationTicks": 56,
          "midi": 74,
          "name": "D5",
          "ticks": 125640,
          "time": 261.75,
          "velocity": 0.5905511811023622
        },
        {
          "duration": 0.11666666666667425,
          "durationTicks": 56,
          "midi": 75,
          "name": "D#5",
          "ticks": 125700,
          "time": 261.875,
          "velocity": 0.5905511811023622
        },
        {
          "duration": 0.11666666666667425,
          "durationTicks": 56,
          "midi": 72,
          "name": "C5",
          "ticks": 125760,
          "time": 262,
          "velocity": 0.5905511811023622
        },
        {
          "duration": 0.11666666666667425,
          "durationTicks": 56,
          "midi": 74,
          "name": "D5",
          "ticks": 125820,
          "time": 262.125,
          "velocity": 0.5905511811023622
        },
        {
          "duration": 0.11666666666667425,
          "durationTicks": 56,
          "midi": 75,
          "name": "D#5",
          "ticks": 125880,
          "time": 262.25,
          "velocity": 0.5905511811023622
        },
        {
          "duration": 0.11666666666667425,
          "durationTicks": 56,
          "midi": 69,
          "name": "A4",
          "ticks": 125940,
          "time": 262.375,
          "velocity": 0.5905511811023622
        },
        {
          "duration": 0.11666666666667425,
          "durationTicks": 56,
          "midi": 70,
          "name": "A#4",
          "ticks": 126000,
          "time": 262.5,
          "velocity": 0.5905511811023622
        },
        {
          "duration": 0.11666666666667425,
          "durationTicks": 56,
          "midi": 72,
          "name": "C5",
          "ticks": 126060,
          "time": 262.625,
          "velocity": 0.5905511811023622
        },
        {
          "duration": 0.11666666666667425,
          "durationTicks": 56,
          "midi": 74,
          "name": "D5",
          "ticks": 126120,
          "time": 262.75,
          "velocity": 0.5905511811023622
        },
        {
          "duration": 0.11666666666667425,
          "durationTicks": 56,
          "midi": 76,
          "name": "E5",
          "ticks": 126180,
          "time": 262.875,
          "velocity": 0.5905511811023622
        },
        {
          "duration": 0.11666666666667425,
          "durationTicks": 56,
          "midi": 78,
          "name": "F#5",
          "ticks": 126240,
          "time": 263,
          "velocity": 0.5905511811023622
        },
        {
          "duration": 0.11666666666667425,
          "durationTicks": 56,
          "midi": 79,
          "name": "G5",
          "ticks": 126300,
          "time": 263.125,
          "velocity": 0.5905511811023622
        },
        {
          "duration": 0.11666666666667425,
          "durationTicks": 56,
          "midi": 81,
          "name": "A5",
          "ticks": 126360,
          "time": 263.25,
          "velocity": 0.5905511811023622
        },
        {
          "duration": 0.11666666666667425,
          "durationTicks": 56,
          "midi": 78,
          "name": "F#5",
          "ticks": 126420,
          "time": 263.375,
          "velocity": 0.5905511811023622
        },
        {
          "duration": 0.11666666666667425,
          "durationTicks": 56,
          "midi": 79,
          "name": "G5",
          "ticks": 126480,
          "time": 263.5,
          "velocity": 0.5905511811023622
        },
        {
          "duration": 0.11666666666667425,
          "durationTicks": 56,
          "midi": 81,
          "name": "A5",
          "ticks": 126540,
          "time": 263.625,
          "velocity": 0.5905511811023622
        },
        {
          "duration": 0.11666666666667425,
          "durationTicks": 56,
          "midi": 74,
          "name": "D5",
          "ticks": 126600,
          "time": 263.75,
          "velocity": 0.5905511811023622
        },
        {
          "duration": 0.11666666666667425,
          "durationTicks": 56,
          "midi": 76,
          "name": "E5",
          "ticks": 126660,
          "time": 263.875,
          "velocity": 0.5905511811023622
        },
        {
          "duration": 0.11666666666667425,
          "durationTicks": 56,
          "midi": 78,
          "name": "F#5",
          "ticks": 126720,
          "time": 264,
          "velocity": 0.5905511811023622
        },
        {
          "duration": 0.11666666666667425,
          "durationTicks": 56,
          "midi": 79,
          "name": "G5",
          "ticks": 126780,
          "time": 264.125,
          "velocity": 0.5905511811023622
        },
        {
          "duration": 0.11666666666667425,
          "durationTicks": 56,
          "midi": 81,
          "name": "A5",
          "ticks": 126840,
          "time": 264.25,
          "velocity": 0.5905511811023622
        },
        {
          "duration": 0.11666666666667425,
          "durationTicks": 56,
          "midi": 82,
          "name": "A#5",
          "ticks": 126900,
          "time": 264.375,
          "velocity": 0.5905511811023622
        },
        {
          "duration": 0.11666666666667425,
          "durationTicks": 56,
          "midi": 84,
          "name": "C6",
          "ticks": 126960,
          "time": 264.5,
          "velocity": 0.5905511811023622
        },
        {
          "duration": 0.11666666666667425,
          "durationTicks": 56,
          "midi": 82,
          "name": "A#5",
          "ticks": 127020,
          "time": 264.625,
          "velocity": 0.5905511811023622
        },
        {
          "duration": 0.11666666666667425,
          "durationTicks": 56,
          "midi": 81,
          "name": "A5",
          "ticks": 127080,
          "time": 264.75,
          "velocity": 0.5905511811023622
        },
        {
          "duration": 0.11666666666667425,
          "durationTicks": 56,
          "midi": 79,
          "name": "G5",
          "ticks": 127140,
          "time": 264.875,
          "velocity": 0.5905511811023622
        },
        {
          "duration": 0.11666666666667425,
          "durationTicks": 56,
          "midi": 78,
          "name": "F#5",
          "ticks": 127200,
          "time": 265,
          "velocity": 0.5905511811023622
        },
        {
          "duration": 0.11666666666667425,
          "durationTicks": 56,
          "midi": 76,
          "name": "E5",
          "ticks": 127260,
          "time": 265.125,
          "velocity": 0.5905511811023622
        },
        {
          "duration": 0.11666666666667425,
          "durationTicks": 56,
          "midi": 74,
          "name": "D5",
          "ticks": 127320,
          "time": 265.25,
          "velocity": 0.5905511811023622
        },
        {
          "duration": 0.11666666666667425,
          "durationTicks": 56,
          "midi": 72,
          "name": "C5",
          "ticks": 127380,
          "time": 265.375,
          "velocity": 0.5905511811023622
        },
        {
          "duration": 0.11666666666667425,
          "durationTicks": 56,
          "midi": 70,
          "name": "A#4",
          "ticks": 127440,
          "time": 265.5,
          "velocity": 0.5905511811023622
        },
        {
          "duration": 0.11666666666667425,
          "durationTicks": 56,
          "midi": 69,
          "name": "A4",
          "ticks": 127500,
          "time": 265.625,
          "velocity": 0.5905511811023622
        },
        {
          "duration": 0.11666666666667425,
          "durationTicks": 56,
          "midi": 67,
          "name": "G4",
          "ticks": 127560,
          "time": 265.75,
          "velocity": 0.5905511811023622
        },
        {
          "duration": 0.11666666666667425,
          "durationTicks": 56,
          "midi": 66,
          "name": "F#4",
          "ticks": 127620,
          "time": 265.875,
          "velocity": 0.5905511811023622
        },
        {
          "duration": 0.11666666666667425,
          "durationTicks": 56,
          "midi": 64,
          "name": "E4",
          "ticks": 127680,
          "time": 266,
          "velocity": 0.5905511811023622
        },
        {
          "duration": 0.11666666666667425,
          "durationTicks": 56,
          "midi": 62,
          "name": "D4",
          "ticks": 127740,
          "time": 266.125,
          "velocity": 0.5905511811023622
        },
        {
          "duration": 0.11666666666667425,
          "durationTicks": 56,
          "midi": 60,
          "name": "C4",
          "ticks": 127800,
          "time": 266.25,
          "velocity": 0.5905511811023622
        },
        {
          "duration": 0.11666666666667425,
          "durationTicks": 56,
          "midi": 58,
          "name": "A#3",
          "ticks": 127860,
          "time": 266.375,
          "velocity": 0.5905511811023622
        },
        {
          "duration": 0.11666666666667425,
          "durationTicks": 56,
          "midi": 57,
          "name": "A3",
          "ticks": 127920,
          "time": 266.5,
          "velocity": 0.5905511811023622
        },
        {
          "duration": 0.2354166666666515,
          "durationTicks": 113,
          "midi": 50,
          "name": "D3",
          "ticks": 128160,
          "time": 267,
          "velocity": 0.5905511811023622
        },
        {
          "duration": 0.2354166666666515,
          "durationTicks": 113,
          "midi": 72,
          "name": "C5",
          "ticks": 128280,
          "time": 267.25,
          "velocity": 0.5905511811023622
        },
        {
          "duration": 0.2354166666666515,
          "durationTicks": 113,
          "midi": 70,
          "name": "A#4",
          "ticks": 128400,
          "time": 267.5,
          "velocity": 0.5905511811023622
        },
        {
          "duration": 0.4729166666666629,
          "durationTicks": 227,
          "midi": 62,
          "name": "D4",
          "ticks": 128400,
          "time": 267.5,
          "velocity": 0.5905511811023622
        },
        {
          "duration": 0.4729166666666629,
          "durationTicks": 227,
          "midi": 66,
          "name": "F#4",
          "ticks": 128400,
          "time": 267.5,
          "velocity": 0.5905511811023622
        },
        {
          "duration": 0.11666666666667425,
          "durationTicks": 56,
          "midi": 72,
          "name": "C5",
          "ticks": 128520,
          "time": 267.75,
          "velocity": 0.5905511811023622
        },
        {
          "duration": 0.11666666666667425,
          "durationTicks": 56,
          "midi": 69,
          "name": "A4",
          "ticks": 128580,
          "time": 267.875,
          "velocity": 0.5905511811023622
        },
        {
          "duration": 1.0666666666666629,
          "durationTicks": 512,
          "midi": 70,
          "name": "A#4",
          "ticks": 128640,
          "time": 268,
          "velocity": 0.5905511811023622
        },
        {
          "duration": 0.9479166666666856,
          "durationTicks": 455,
          "midi": 62,
          "name": "D4",
          "ticks": 128640,
          "time": 268,
          "velocity": 0.5905511811023622
        },
        {
          "duration": 0.9479166666666856,
          "durationTicks": 455,
          "midi": 67,
          "name": "G4",
          "ticks": 128640,
          "time": 268,
          "velocity": 0.5905511811023622
        },
        {
          "duration": 0.11666666666667425,
          "durationTicks": 56,
          "midi": 70,
          "name": "A#4",
          "ticks": 129180,
          "time": 269.125,
          "velocity": 0.5905511811023622
        },
        {
          "duration": 0.11666666666667425,
          "durationTicks": 56,
          "midi": 72,
          "name": "C5",
          "ticks": 129240,
          "time": 269.25,
          "velocity": 0.5905511811023622
        },
        {
          "duration": 0.11666666666667425,
          "durationTicks": 56,
          "midi": 74,
          "name": "D5",
          "ticks": 129300,
          "time": 269.375,
          "velocity": 0.5905511811023622
        },
        {
          "duration": 0.08541666666667425,
          "durationTicks": 41,
          "midi": 74,
          "name": "D5",
          "ticks": 129360,
          "time": 269.5,
          "velocity": 0.5905511811023622
        },
        {
          "duration": 0.08541666666667425,
          "durationTicks": 41,
          "midi": 76,
          "name": "E5",
          "ticks": 129405,
          "time": 269.59375,
          "velocity": 0.5905511811023622
        },
        {
          "duration": 0.08541666666667425,
          "durationTicks": 41,
          "midi": 74,
          "name": "D5",
          "ticks": 129450,
          "time": 269.6875,
          "velocity": 0.5905511811023622
        },
        {
          "duration": 0.08541666666667425,
          "durationTicks": 41,
          "midi": 76,
          "name": "E5",
          "ticks": 129495,
          "time": 269.78125,
          "velocity": 0.5905511811023622
        },
        {
          "duration": 0.05624999999997726,
          "durationTicks": 27,
          "midi": 72,
          "name": "C5",
          "ticks": 129540,
          "time": 269.875,
          "velocity": 0.5905511811023622
        },
        {
          "duration": 0.05624999999997726,
          "durationTicks": 27,
          "midi": 74,
          "name": "D5",
          "ticks": 129570,
          "time": 269.9375,
          "velocity": 0.5905511811023622
        },
        {
          "duration": 0.2354166666666515,
          "durationTicks": 113,
          "midi": 75,
          "name": "D#5",
          "ticks": 129600,
          "time": 270,
          "velocity": 0.5905511811023622
        },
        {
          "duration": 0.11666666666667425,
          "durationTicks": 56,
          "midi": 69,
          "name": "A4",
          "ticks": 129720,
          "time": 270.25,
          "velocity": 0.5905511811023622
        },
        {
          "duration": 0.11666666666667425,
          "durationTicks": 56,
          "midi": 70,
          "name": "A#4",
          "ticks": 129780,
          "time": 270.375,
          "velocity": 0.5905511811023622
        },
        {
          "duration": 0.08541666666667425,
          "durationTicks": 41,
          "midi": 70,
          "name": "A#4",
          "ticks": 129840,
          "time": 270.5,
          "velocity": 0.5905511811023622
        },
        {
          "duration": 0.08541666666667425,
          "durationTicks": 41,
          "midi": 72,
          "name": "C5",
          "ticks": 129885,
          "time": 270.59375,
          "velocity": 0.5905511811023622
        },
        {
          "duration": 0.08541666666667425,
          "durationTicks": 41,
          "midi": 70,
          "name": "A#4",
          "ticks": 129930,
          "time": 270.6875,
          "velocity": 0.5905511811023622
        },
        {
          "duration": 0.08541666666667425,
          "durationTicks": 41,
          "midi": 72,
          "name": "C5",
          "ticks": 129975,
          "time": 270.78125,
          "velocity": 0.5905511811023622
        },
        {
          "duration": 0.05624999999997726,
          "durationTicks": 27,
          "midi": 69,
          "name": "A4",
          "ticks": 130020,
          "time": 270.875,
          "velocity": 0.5905511811023622
        },
        {
          "duration": 0.05624999999997726,
          "durationTicks": 27,
          "midi": 70,
          "name": "A#4",
          "ticks": 130050,
          "time": 270.9375,
          "velocity": 0.5905511811023622
        },
        {
          "duration": 0.2354166666666515,
          "durationTicks": 113,
          "midi": 72,
          "name": "C5",
          "ticks": 130080,
          "time": 271,
          "velocity": 0.5905511811023622
        },
        {
          "duration": 0.11666666666667425,
          "durationTicks": 56,
          "midi": 66,
          "name": "F#4",
          "ticks": 130200,
          "time": 271.25,
          "velocity": 0.5905511811023622
        },
        {
          "duration": 0.11666666666667425,
          "durationTicks": 56,
          "midi": 67,
          "name": "G4",
          "ticks": 130260,
          "time": 271.375,
          "velocity": 0.5905511811023622
        },
        {
          "duration": 0.08541666666667425,
          "durationTicks": 41,
          "midi": 67,
          "name": "G4",
          "ticks": 130320,
          "time": 271.5,
          "velocity": 0.5905511811023622
        },
        {
          "duration": 0.08541666666667425,
          "durationTicks": 41,
          "midi": 69,
          "name": "A4",
          "ticks": 130365,
          "time": 271.59375,
          "velocity": 0.5905511811023622
        },
        {
          "duration": 0.08541666666667425,
          "durationTicks": 41,
          "midi": 67,
          "name": "G4",
          "ticks": 130410,
          "time": 271.6875,
          "velocity": 0.5905511811023622
        },
        {
          "duration": 0.08541666666667425,
          "durationTicks": 41,
          "midi": 69,
          "name": "A4",
          "ticks": 130455,
          "time": 271.78125,
          "velocity": 0.5905511811023622
        },
        {
          "duration": 0.05624999999997726,
          "durationTicks": 27,
          "midi": 66,
          "name": "F#4",
          "ticks": 130500,
          "time": 271.875,
          "velocity": 0.5905511811023622
        },
        {
          "duration": 0.05624999999997726,
          "durationTicks": 27,
          "midi": 67,
          "name": "G4",
          "ticks": 130530,
          "time": 271.9375,
          "velocity": 0.5905511811023622
        },
        {
          "duration": 0.7104166666666742,
          "durationTicks": 341,
          "midi": 69,
          "name": "A4",
          "ticks": 130560,
          "time": 272,
          "velocity": 0.5905511811023622
        },
        {
          "duration": 0.4729166666666629,
          "durationTicks": 227,
          "midi": 63,
          "name": "D#4",
          "ticks": 130800,
          "time": 272.5,
          "velocity": 0.5905511811023622
        },
        {
          "duration": 0.4729166666666629,
          "durationTicks": 227,
          "midi": 66,
          "name": "F#4",
          "ticks": 130800,
          "time": 272.5,
          "velocity": 0.5905511811023622
        },
        {
          "duration": 0.11666666666667425,
          "durationTicks": 56,
          "midi": 69,
          "name": "A4",
          "ticks": 130920,
          "time": 272.75,
          "velocity": 0.5905511811023622
        },
        {
          "duration": 0.11666666666667425,
          "durationTicks": 56,
          "midi": 72,
          "name": "C5",
          "ticks": 130980,
          "time": 272.875,
          "velocity": 0.5905511811023622
        },
        {
          "duration": 0.2354166666666515,
          "durationTicks": 113,
          "midi": 70,
          "name": "A#4",
          "ticks": 131040,
          "time": 273,
          "velocity": 0.5905511811023622
        },
        {
          "duration": 0.2354166666666515,
          "durationTicks": 113,
          "midi": 69,
          "name": "A4",
          "ticks": 131160,
          "time": 273.25,
          "velocity": 0.5905511811023622
        },
        {
          "duration": 0.2354166666666515,
          "durationTicks": 113,
          "midi": 67,
          "name": "G4",
          "ticks": 131280,
          "time": 273.5,
          "velocity": 0.5905511811023622
        },
        {
          "duration": 0.11666666666667425,
          "durationTicks": 56,
          "midi": 69,
          "name": "A4",
          "ticks": 131400,
          "time": 273.75,
          "velocity": 0.5905511811023622
        },
        {
          "duration": 0.11666666666667425,
          "durationTicks": 56,
          "midi": 66,
          "name": "F#4",
          "ticks": 131460,
          "time": 273.875,
          "velocity": 0.5905511811023622
        },
        {
          "duration": 0.9479166666666856,
          "durationTicks": 455,
          "midi": 67,
          "name": "G4",
          "ticks": 131520,
          "time": 274,
          "velocity": 0.5905511811023622
        },
        {
          "duration": 0.9479166666666856,
          "durationTicks": 455,
          "midi": 64,
          "name": "E4",
          "ticks": 131520,
          "time": 274,
          "velocity": 0.5905511811023622
        },
        {
          "duration": 0.11666666666667425,
          "durationTicks": 56,
          "midi": 69,
          "name": "A4",
          "ticks": 132060,
          "time": 275.125,
          "velocity": 0.5905511811023622
        },
        {
          "duration": 0.11666666666667425,
          "durationTicks": 56,
          "midi": 71,
          "name": "B4",
          "ticks": 132120,
          "time": 275.25,
          "velocity": 0.5905511811023622
        },
        {
          "duration": 0.11666666666667425,
          "durationTicks": 56,
          "midi": 73,
          "name": "C#5",
          "ticks": 132180,
          "time": 275.375,
          "velocity": 0.5905511811023622
        },
        {
          "duration": 0.05624999999997726,
          "durationTicks": 27,
          "midi": 74,
          "name": "D5",
          "ticks": 132240,
          "time": 275.5,
          "velocity": 0.5905511811023622
        },
        {
          "duration": 0.05624999999997726,
          "durationTicks": 27,
          "midi": 76,
          "name": "E5",
          "ticks": 132270,
          "time": 275.5625,
          "velocity": 0.5905511811023622
        },
        {
          "duration": 0.05624999999997726,
          "durationTicks": 27,
          "midi": 77,
          "name": "F5",
          "ticks": 132300,
          "time": 275.625,
          "velocity": 0.5905511811023622
        },
        {
          "duration": 0.05624999999997726,
          "durationTicks": 27,
          "midi": 79,
          "name": "G5",
          "ticks": 132330,
          "time": 275.6875,
          "velocity": 0.5905511811023622
        },
        {
          "duration": 0.11666666666667425,
          "durationTicks": 56,
          "midi": 77,
          "name": "F5",
          "ticks": 132360,
          "time": 275.75,
          "velocity": 0.5905511811023622
        },
        {
          "duration": 0.05624999999997726,
          "durationTicks": 27,
          "midi": 79,
          "name": "G5",
          "ticks": 132420,
          "time": 275.875,
          "velocity": 0.5905511811023622
        },
        {
          "duration": 0.05624999999997726,
          "durationTicks": 27,
          "midi": 76,
          "name": "E5",
          "ticks": 132450,
          "time": 275.9375,
          "velocity": 0.5905511811023622
        },
        {
          "duration": 0.2354166666666515,
          "durationTicks": 113,
          "midi": 77,
          "name": "F5",
          "ticks": 132480,
          "time": 276,
          "velocity": 0.5905511811023622
        },
        {
          "duration": 0,
          "durationTicks": 0,
          "midi": 74,
          "name": "D5",
          "ticks": 132600,
          "time": 276.25,
          "velocity": 0.5905511811023622
        },
        {
          "duration": 0.2354166666666515,
          "durationTicks": 113,
          "midi": 74,
          "name": "D5",
          "ticks": 132600,
          "time": 276.25,
          "velocity": 0.5905511811023622
        },
        {
          "duration": 0.11666666666667425,
          "durationTicks": 56,
          "midi": 76,
          "name": "E5",
          "ticks": 132660,
          "time": 276.375,
          "velocity": 0.5905511811023622
        },
        {
          "duration": 0.17500000000001137,
          "durationTicks": 84,
          "midi": 77,
          "name": "F5",
          "ticks": 132720,
          "time": 276.5,
          "velocity": 0.5905511811023622
        },
        {
          "duration": 0.4729166666666629,
          "durationTicks": 227,
          "midi": 74,
          "name": "D5",
          "ticks": 132720,
          "time": 276.5,
          "velocity": 0.5905511811023622
        },
        {
          "duration": 0.05624999999997726,
          "durationTicks": 27,
          "midi": 79,
          "name": "G5",
          "ticks": 132810,
          "time": 276.6875,
          "velocity": 0.5905511811023622
        },
        {
          "duration": 0.05624999999997726,
          "durationTicks": 27,
          "midi": 77,
          "name": "F5",
          "ticks": 132840,
          "time": 276.75,
          "velocity": 0.5905511811023622
        },
        {
          "duration": 0.05624999999997726,
          "durationTicks": 27,
          "midi": 76,
          "name": "E5",
          "ticks": 132870,
          "time": 276.8125,
          "velocity": 0.5905511811023622
        },
        {
          "duration": 0.05624999999997726,
          "durationTicks": 27,
          "midi": 77,
          "name": "F5",
          "ticks": 132900,
          "time": 276.875,
          "velocity": 0.5905511811023622
        },
        {
          "duration": 0.05624999999997726,
          "durationTicks": 27,
          "midi": 79,
          "name": "G5",
          "ticks": 132930,
          "time": 276.9375,
          "velocity": 0.5905511811023622
        },
        {
          "duration": 0.11458333333331439,
          "durationTicks": 55,
          "midi": 79,
          "name": "G5",
          "ticks": 132960,
          "time": 277,
          "velocity": 0.5905511811023622
        },
        {
          "duration": 0.9479166666666856,
          "durationTicks": 455,
          "midi": 74,
          "name": "D5",
          "ticks": 132960,
          "time": 277,
          "velocity": 0.5905511811023622
        },
        {
          "duration": 0.11458333333337123,
          "durationTicks": 55,
          "midi": 81,
          "name": "A5",
          "ticks": 133019,
          "time": 277.12291666666664,
          "velocity": 0.5905511811023622
        },
        {
          "duration": 0.11458333333337123,
          "durationTicks": 55,
          "midi": 79,
          "name": "G5",
          "ticks": 133079,
          "time": 277.24791666666664,
          "velocity": 0.5905511811023622
        },
        {
          "duration": 0.11458333333331439,
          "durationTicks": 55,
          "midi": 81,
          "name": "A5",
          "ticks": 133140,
          "time": 277.375,
          "velocity": 0.5905511811023622
        },
        {
          "duration": 0.11458333333337123,
          "durationTicks": 55,
          "midi": 79,
          "name": "G5",
          "ticks": 133199,
          "time": 277.49791666666664,
          "velocity": 0.5905511811023622
        },
        {
          "duration": 0.11458333333337123,
          "durationTicks": 55,
          "midi": 81,
          "name": "A5",
          "ticks": 133259,
          "time": 277.62291666666664,
          "velocity": 0.5905511811023622
        },
        {
          "duration": 0.11666666666667425,
          "durationTicks": 56,
          "midi": 77,
          "name": "F5",
          "ticks": 133320,
          "time": 277.75,
          "velocity": 0.5905511811023622
        },
        {
          "duration": 0.11666666666667425,
          "durationTicks": 56,
          "midi": 79,
          "name": "G5",
          "ticks": 133380,
          "time": 277.875,
          "velocity": 0.5905511811023622
        },
        {
          "duration": 1.1854166666666401,
          "durationTicks": 569,
          "midi": 81,
          "name": "A5",
          "ticks": 133440,
          "time": 278,
          "velocity": 0.5905511811023622
        },
        {
          "duration": 0.9479166666666856,
          "durationTicks": 455,
          "midi": 69,
          "name": "A4",
          "ticks": 133440,
          "time": 278,
          "velocity": 0.5905511811023622
        },
        {
          "duration": 0.9479166666666856,
          "durationTicks": 455,
          "midi": 73,
          "name": "C#5",
          "ticks": 133440,
          "time": 278,
          "velocity": 0.5905511811023622
        },
        {
          "duration": 0.9479166666666856,
          "durationTicks": 455,
          "midi": 76,
          "name": "E5",
          "ticks": 133440,
          "time": 278,
          "velocity": 0.5905511811023622
        },
        {
          "duration": 0.11666666666667425,
          "durationTicks": 56,
          "midi": 82,
          "name": "A#5",
          "ticks": 134040,
          "time": 279.25,
          "velocity": 0.5905511811023622
        },
        {
          "duration": 0.11666666666667425,
          "durationTicks": 56,
          "midi": 81,
          "name": "A5",
          "ticks": 134100,
          "time": 279.375,
          "velocity": 0.5905511811023622
        },
        {
          "duration": 0.11666666666667425,
          "durationTicks": 56,
          "midi": 79,
          "name": "G5",
          "ticks": 134160,
          "time": 279.5,
          "velocity": 0.5905511811023622
        },
        {
          "duration": 0.11666666666667425,
          "durationTicks": 56,
          "midi": 77,
          "name": "F5",
          "ticks": 134220,
          "time": 279.625,
          "velocity": 0.5905511811023622
        },
        {
          "duration": 0.11666666666667425,
          "durationTicks": 56,
          "midi": 76,
          "name": "E5",
          "ticks": 134280,
          "time": 279.75,
          "velocity": 0.5905511811023622
        },
        {
          "duration": 0.11666666666667425,
          "durationTicks": 56,
          "midi": 74,
          "name": "D5",
          "ticks": 134340,
          "time": 279.875,
          "velocity": 0.5905511811023622
        },
        {
          "duration": 0.11666666666667425,
          "durationTicks": 56,
          "midi": 73,
          "name": "C#5",
          "ticks": 134400,
          "time": 280,
          "velocity": 0.5905511811023622
        },
        {
          "duration": 0.11666666666667425,
          "durationTicks": 56,
          "midi": 71,
          "name": "B4",
          "ticks": 134460,
          "time": 280.125,
          "velocity": 0.5905511811023622
        },
        {
          "duration": 0.11666666666667425,
          "durationTicks": 56,
          "midi": 69,
          "name": "A4",
          "ticks": 134520,
          "time": 280.25,
          "velocity": 0.5905511811023622
        },
        {
          "duration": 0.11666666666667425,
          "durationTicks": 56,
          "midi": 71,
          "name": "B4",
          "ticks": 134580,
          "time": 280.375,
          "velocity": 0.5905511811023622
        },
        {
          "duration": 0.11666666666667425,
          "durationTicks": 56,
          "midi": 73,
          "name": "C#5",
          "ticks": 134640,
          "time": 280.5,
          "velocity": 0.5905511811023622
        },
        {
          "duration": 0.11666666666667425,
          "durationTicks": 56,
          "midi": 74,
          "name": "D5",
          "ticks": 134700,
          "time": 280.625,
          "velocity": 0.5905511811023622
        },
        {
          "duration": 0.11666666666667425,
          "durationTicks": 56,
          "midi": 76,
          "name": "E5",
          "ticks": 134760,
          "time": 280.75,
          "velocity": 0.5905511811023622
        },
        {
          "duration": 0.11666666666667425,
          "durationTicks": 56,
          "midi": 77,
          "name": "F5",
          "ticks": 134820,
          "time": 280.875,
          "velocity": 0.5905511811023622
        },
        {
          "duration": 0.2354166666666515,
          "durationTicks": 113,
          "midi": 79,
          "name": "G5",
          "ticks": 134880,
          "time": 281,
          "velocity": 0.5905511811023622
        },
        {
          "duration": 0.2354166666666515,
          "durationTicks": 113,
          "midi": 76,
          "name": "E5",
          "ticks": 135000,
          "time": 281.25,
          "velocity": 0.5905511811023622
        },
        {
          "duration": 0.2354166666666515,
          "durationTicks": 113,
          "midi": 73,
          "name": "C#5",
          "ticks": 135120,
          "time": 281.5,
          "velocity": 0.5905511811023622
        },
        {
          "duration": 0.2354166666666515,
          "durationTicks": 113,
          "midi": 70,
          "name": "A#4",
          "ticks": 135240,
          "time": 281.75,
          "velocity": 0.5905511811023622
        },
        {
          "duration": 0.2354166666666515,
          "durationTicks": 113,
          "midi": 67,
          "name": "G4",
          "ticks": 135360,
          "time": 282,
          "velocity": 0.5905511811023622
        },
        {
          "duration": 0.2354166666666515,
          "durationTicks": 113,
          "midi": 64,
          "name": "E4",
          "ticks": 135480,
          "time": 282.25,
          "velocity": 0.5905511811023622
        },
        {
          "duration": 0.2354166666666515,
          "durationTicks": 113,
          "midi": 61,
          "name": "C#4",
          "ticks": 135600,
          "time": 282.5,
          "velocity": 0.5905511811023622
        },
        {
          "duration": 0.2354166666666515,
          "durationTicks": 113,
          "midi": 58,
          "name": "A#3",
          "ticks": 135720,
          "time": 282.75,
          "velocity": 0.5905511811023622
        },
        {
          "duration": 0.4729166666666629,
          "durationTicks": 227,
          "midi": 75,
          "name": "D#5",
          "ticks": 136800,
          "time": 285,
          "velocity": 0.5905511811023622
        },
        {
          "duration": 0.9479166666666856,
          "durationTicks": 455,
          "midi": 66,
          "name": "F#4",
          "ticks": 136800,
          "time": 285,
          "velocity": 0.5905511811023622
        },
        {
          "duration": 0.9479166666666856,
          "durationTicks": 455,
          "midi": 69,
          "name": "A4",
          "ticks": 136800,
          "time": 285,
          "velocity": 0.5905511811023622
        },
        {
          "duration": 0.9479166666666856,
          "durationTicks": 455,
          "midi": 72,
          "name": "C5",
          "ticks": 136800,
          "time": 285,
          "velocity": 0.5905511811023622
        },
        {
          "duration": 0.4729166666666629,
          "durationTicks": 227,
          "midi": 74,
          "name": "D5",
          "ticks": 137040,
          "time": 285.5,
          "velocity": 0.5905511811023622
        },
        {
          "duration": 0.11666666666667425,
          "durationTicks": 56,
          "midi": 60,
          "name": "C4",
          "ticks": 137760,
          "time": 287,
          "velocity": 0.5905511811023622
        },
        {
          "duration": 0.11666666666667425,
          "durationTicks": 56,
          "midi": 62,
          "name": "D4",
          "ticks": 137820,
          "time": 287.125,
          "velocity": 0.5905511811023622
        },
        {
          "duration": 0.11666666666667425,
          "durationTicks": 56,
          "midi": 63,
          "name": "D#4",
          "ticks": 137880,
          "time": 287.25,
          "velocity": 0.5905511811023622
        },
        {
          "duration": 0.11666666666667425,
          "durationTicks": 56,
          "midi": 62,
          "name": "D4",
          "ticks": 137940,
          "time": 287.375,
          "velocity": 0.5905511811023622
        },
        {
          "duration": 0.11666666666667425,
          "durationTicks": 56,
          "midi": 60,
          "name": "C4",
          "ticks": 138000,
          "time": 287.5,
          "velocity": 0.5905511811023622
        },
        {
          "duration": 0.11666666666667425,
          "durationTicks": 56,
          "midi": 58,
          "name": "A#3",
          "ticks": 138060,
          "time": 287.625,
          "velocity": 0.5905511811023622
        },
        {
          "duration": 0.11666666666667425,
          "durationTicks": 56,
          "midi": 57,
          "name": "A3",
          "ticks": 138120,
          "time": 287.75,
          "velocity": 0.5905511811023622
        },
        {
          "duration": 0.11666666666667425,
          "durationTicks": 56,
          "midi": 55,
          "name": "G3",
          "ticks": 138180,
          "time": 287.875,
          "velocity": 0.5905511811023622
        },
        {
          "duration": 0.2354166666666515,
          "durationTicks": 113,
          "midi": 66,
          "name": "F#4",
          "ticks": 138720,
          "time": 289,
          "velocity": 0.5905511811023622
        },
        {
          "duration": 0.2354166666666515,
          "durationTicks": 113,
          "midi": 69,
          "name": "A4",
          "ticks": 138840,
          "time": 289.25,
          "velocity": 0.5905511811023622
        },
        {
          "duration": 0.2354166666666515,
          "durationTicks": 113,
          "midi": 72,
          "name": "C5",
          "ticks": 138960,
          "time": 289.5,
          "velocity": 0.5905511811023622
        },
        {
          "duration": 0.2354166666666515,
          "durationTicks": 113,
          "midi": 75,
          "name": "D#5",
          "ticks": 139080,
          "time": 289.75,
          "velocity": 0.5905511811023622
        },
        {
          "duration": 0.2354166666666515,
          "durationTicks": 113,
          "midi": 78,
          "name": "F#5",
          "ticks": 139200,
          "time": 290,
          "velocity": 0.5905511811023622
        },
        {
          "duration": 0.2354166666666515,
          "durationTicks": 113,
          "midi": 81,
          "name": "A5",
          "ticks": 139320,
          "time": 290.25,
          "velocity": 0.5905511811023622
        },
        {
          "duration": 0.2354166666666515,
          "durationTicks": 113,
          "midi": 84,
          "name": "C6",
          "ticks": 139440,
          "time": 290.5,
          "velocity": 0.5905511811023622
        },
        {
          "duration": 0.2354166666666515,
          "durationTicks": 113,
          "midi": 81,
          "name": "A5",
          "ticks": 139560,
          "time": 290.75,
          "velocity": 0.5905511811023622
        },
        {
          "duration": 0.2354166666666515,
          "durationTicks": 113,
          "midi": 78,
          "name": "F#5",
          "ticks": 139680,
          "time": 291,
          "velocity": 0.5905511811023622
        },
        {
          "duration": 0.11666666666667425,
          "durationTicks": 56,
          "midi": 81,
          "name": "A5",
          "ticks": 139800,
          "time": 291.25,
          "velocity": 0.5905511811023622
        },
        {
          "duration": 0.11666666666667425,
          "durationTicks": 56,
          "midi": 78,
          "name": "F#5",
          "ticks": 139860,
          "time": 291.375,
          "velocity": 0.5905511811023622
        },
        {
          "duration": 0.2354166666666515,
          "durationTicks": 113,
          "midi": 74,
          "name": "D5",
          "ticks": 139920,
          "time": 291.5,
          "velocity": 0.5905511811023622
        },
        {
          "duration": 0.11666666666667425,
          "durationTicks": 56,
          "midi": 78,
          "name": "F#5",
          "ticks": 140040,
          "time": 291.75,
          "velocity": 0.5905511811023622
        },
        {
          "duration": 0.11666666666667425,
          "durationTicks": 56,
          "midi": 74,
          "name": "D5",
          "ticks": 140100,
          "time": 291.875,
          "velocity": 0.5905511811023622
        },
        {
          "duration": 0.4729166666666629,
          "durationTicks": 227,
          "midi": 72,
          "name": "C5",
          "ticks": 140160,
          "time": 292,
          "velocity": 0.5905511811023622
        },
        {
          "duration": 0.4729166666666629,
          "durationTicks": 227,
          "midi": 71,
          "name": "B4",
          "ticks": 140400,
          "time": 292.5,
          "velocity": 0.5905511811023622
        },
        {
          "duration": 0.3541666666666856,
          "durationTicks": 170,
          "midi": 71,
          "name": "B4",
          "ticks": 140640,
          "time": 293,
          "velocity": 0.5905511811023622
        },
        {
          "duration": 0.4729166666666629,
          "durationTicks": 227,
          "midi": 62,
          "name": "D4",
          "ticks": 140640,
          "time": 293,
          "velocity": 0.5905511811023622
        },
        {
          "duration": 0.4729166666666629,
          "durationTicks": 227,
          "midi": 67,
          "name": "G4",
          "ticks": 140640,
          "time": 293,
          "velocity": 0.5905511811023622
        },
        {
          "duration": 0.11666666666667425,
          "durationTicks": 56,
          "midi": 71,
          "name": "B4",
          "ticks": 140820,
          "time": 293.375,
          "velocity": 0.5905511811023622
        },
        {
          "duration": 0.11666666666667425,
          "durationTicks": 56,
          "midi": 73,
          "name": "C#5",
          "ticks": 140880,
          "time": 293.5,
          "velocity": 0.5905511811023622
        },
        {
          "duration": 0.11666666666667425,
          "durationTicks": 56,
          "midi": 74,
          "name": "D5",
          "ticks": 140940,
          "time": 293.625,
          "velocity": 0.5905511811023622
        },
        {
          "duration": 0.11666666666667425,
          "durationTicks": 56,
          "midi": 76,
          "name": "E5",
          "ticks": 141000,
          "time": 293.75,
          "velocity": 0.5905511811023622
        },
        {
          "duration": 0.11666666666667425,
          "durationTicks": 56,
          "midi": 77,
          "name": "F5",
          "ticks": 141060,
          "time": 293.875,
          "velocity": 0.5905511811023622
        },
        {
          "duration": 0.4729166666666629,
          "durationTicks": 227,
          "midi": 67,
          "name": "G4",
          "ticks": 141120,
          "time": 294,
          "velocity": 0.5905511811023622
        },
        {
          "duration": 0.4729166666666629,
          "durationTicks": 227,
          "midi": 73,
          "name": "C#5",
          "ticks": 141120,
          "time": 294,
          "velocity": 0.5905511811023622
        },
        {
          "duration": 0.4729166666666629,
          "durationTicks": 227,
          "midi": 76,
          "name": "E5",
          "ticks": 141120,
          "time": 294,
          "velocity": 0.5905511811023622
        },
        {
          "duration": 0.4729166666666629,
          "durationTicks": 227,
          "midi": 79,
          "name": "G5",
          "ticks": 141120,
          "time": 294,
          "velocity": 0.5905511811023622
        },
        {
          "duration": 0.4729166666666629,
          "durationTicks": 227,
          "midi": 61,
          "name": "C#4",
          "ticks": 141120,
          "time": 294,
          "velocity": 0.5905511811023622
        },
        {
          "duration": 0.4729166666666629,
          "durationTicks": 227,
          "midi": 69,
          "name": "A4",
          "ticks": 141360,
          "time": 294.5,
          "velocity": 0.5905511811023622
        },
        {
          "duration": 0.4729166666666629,
          "durationTicks": 227,
          "midi": 74,
          "name": "D5",
          "ticks": 141360,
          "time": 294.5,
          "velocity": 0.5905511811023622
        },
        {
          "duration": 0.4729166666666629,
          "durationTicks": 227,
          "midi": 77,
          "name": "F5",
          "ticks": 141360,
          "time": 294.5,
          "velocity": 0.5905511811023622
        },
        {
          "duration": 0.4729166666666629,
          "durationTicks": 227,
          "midi": 81,
          "name": "A5",
          "ticks": 141360,
          "time": 294.5,
          "velocity": 0.5905511811023622
        },
        {
          "duration": 0.4729166666666629,
          "durationTicks": 227,
          "midi": 62,
          "name": "D4",
          "ticks": 141360,
          "time": 294.5,
          "velocity": 0.5905511811023622
        },
        {
          "duration": 0.4729166666666629,
          "durationTicks": 227,
          "midi": 77,
          "name": "F5",
          "ticks": 141600,
          "time": 295,
          "velocity": 0.5905511811023622
        },
        {
          "duration": 0.4729166666666629,
          "durationTicks": 227,
          "midi": 69,
          "name": "A4",
          "ticks": 141600,
          "time": 295,
          "velocity": 0.5905511811023622
        },
        {
          "duration": 0.4729166666666629,
          "durationTicks": 227,
          "midi": 74,
          "name": "D5",
          "ticks": 141600,
          "time": 295,
          "velocity": 0.5905511811023622
        },
        {
          "duration": 0.2354166666666515,
          "durationTicks": 113,
          "midi": 76,
          "name": "E5",
          "ticks": 141840,
          "time": 295.5,
          "velocity": 0.5905511811023622
        },
        {
          "duration": 0.9479166666666856,
          "durationTicks": 455,
          "midi": 67,
          "name": "G4",
          "ticks": 141840,
          "time": 295.5,
          "velocity": 0.5905511811023622
        },
        {
          "duration": 0.4729166666666629,
          "durationTicks": 227,
          "midi": 73,
          "name": "C#5",
          "ticks": 141840,
          "time": 295.5,
          "velocity": 0.5905511811023622
        },
        {
          "duration": 0.2354166666666515,
          "durationTicks": 113,
          "midi": 74,
          "name": "D5",
          "ticks": 141960,
          "time": 295.75,
          "velocity": 0.5905511811023622
        },
        {
          "duration": 0.9479166666666856,
          "durationTicks": 455,
          "midi": 74,
          "name": "D5",
          "ticks": 142080,
          "time": 296,
          "velocity": 0.5905511811023622
        },
        {
          "duration": 0.9479166666666856,
          "durationTicks": 455,
          "midi": 69,
          "name": "A4",
          "ticks": 142080,
          "time": 296,
          "velocity": 0.5905511811023622
        },
        {
          "duration": 0.4729166666666629,
          "durationTicks": 227,
          "midi": 66,
          "name": "F#4",
          "ticks": 142320,
          "time": 296.5,
          "velocity": 0.5905511811023622
        },
        {
          "duration": 0.9479166666666856,
          "durationTicks": 455,
          "midi": 62,
          "name": "D4",
          "ticks": 142560,
          "time": 297,
          "velocity": 0.5905511811023622
        },
        {
          "duration": 0.9479166666666856,
          "durationTicks": 455,
          "midi": 67,
          "name": "G4",
          "ticks": 142560,
          "time": 297,
          "velocity": 0.5905511811023622
        },
        {
          "duration": 0.2354166666666515,
          "durationTicks": 113,
          "midi": 74,
          "name": "D5",
          "ticks": 142680,
          "time": 297.25,
          "velocity": 0.5905511811023622
        },
        {
          "duration": 0.2354166666666515,
          "durationTicks": 113,
          "midi": 79,
          "name": "G5",
          "ticks": 142800,
          "time": 297.5,
          "velocity": 0.5905511811023622
        },
        {
          "duration": 0.2354166666666515,
          "durationTicks": 113,
          "midi": 82,
          "name": "A#5",
          "ticks": 142920,
          "time": 297.75,
          "velocity": 0.5905511811023622
        },
        {
          "duration": 0.4729166666666629,
          "durationTicks": 227,
          "midi": 74,
          "name": "D5",
          "ticks": 143040,
          "time": 298,
          "velocity": 0.5905511811023622
        },
        {
          "duration": 0.9479166666666856,
          "durationTicks": 455,
          "midi": 64,
          "name": "E4",
          "ticks": 143040,
          "time": 298,
          "velocity": 0.5905511811023622
        },
        {
          "duration": 0.9479166666666856,
          "durationTicks": 455,
          "midi": 67,
          "name": "G4",
          "ticks": 143040,
          "time": 298,
          "velocity": 0.5905511811023622
        },
        {
          "duration": 0.4729166666666629,
          "durationTicks": 227,
          "midi": 73,
          "name": "C#5",
          "ticks": 143280,
          "time": 298.5,
          "velocity": 0.5905511811023622
        },
        {
          "duration": 0.9479166666666856,
          "durationTicks": 455,
          "midi": 63,
          "name": "D#4",
          "ticks": 143520,
          "time": 299,
          "velocity": 0.5905511811023622
        },
        {
          "duration": 0.9479166666666856,
          "durationTicks": 455,
          "midi": 66,
          "name": "F#4",
          "ticks": 143520,
          "time": 299,
          "velocity": 0.5905511811023622
        },
        {
          "duration": 0.11666666666667425,
          "durationTicks": 56,
          "midi": 72,
          "name": "C5",
          "ticks": 143640,
          "time": 299.25,
          "velocity": 0.5905511811023622
        },
        {
          "duration": 0.11666666666667425,
          "durationTicks": 56,
          "midi": 71,
          "name": "B4",
          "ticks": 143700,
          "time": 299.375,
          "velocity": 0.5905511811023622
        },
        {
          "duration": 0.11666666666667425,
          "durationTicks": 56,
          "midi": 72,
          "name": "C5",
          "ticks": 143760,
          "time": 299.5,
          "velocity": 0.5905511811023622
        },
        {
          "duration": 0.11666666666667425,
          "durationTicks": 56,
          "midi": 78,
          "name": "F#5",
          "ticks": 143820,
          "time": 299.625,
          "velocity": 0.5905511811023622
        },
        {
          "duration": 0.2354166666666515,
          "durationTicks": 113,
          "midi": 81,
          "name": "A5",
          "ticks": 143880,
          "time": 299.75,
          "velocity": 0.5905511811023622
        },
        {
          "duration": 0.4729166666666629,
          "durationTicks": 227,
          "midi": 72,
          "name": "C5",
          "ticks": 144000,
          "time": 300,
          "velocity": 0.5905511811023622
        },
        {
          "duration": 0.9479166666666856,
          "durationTicks": 455,
          "midi": 62,
          "name": "D4",
          "ticks": 144000,
          "time": 300,
          "velocity": 0.5905511811023622
        },
        {
          "duration": 0.9479166666666856,
          "durationTicks": 455,
          "midi": 65,
          "name": "F4",
          "ticks": 144000,
          "time": 300,
          "velocity": 0.5905511811023622
        },
        {
          "duration": 0.4729166666666629,
          "durationTicks": 227,
          "midi": 71,
          "name": "B4",
          "ticks": 144240,
          "time": 300.5,
          "velocity": 0.5905511811023622
        },
        {
          "duration": 0.9479166666666856,
          "durationTicks": 455,
          "midi": 61,
          "name": "C#4",
          "ticks": 144480,
          "time": 301,
          "velocity": 0.5905511811023622
        },
        {
          "duration": 0.9479166666666856,
          "durationTicks": 455,
          "midi": 64,
          "name": "E4",
          "ticks": 144480,
          "time": 301,
          "velocity": 0.5905511811023622
        },
        {
          "duration": 0.2354166666666515,
          "durationTicks": 113,
          "midi": 70,
          "name": "A#4",
          "ticks": 144600,
          "time": 301.25,
          "velocity": 0.5905511811023622
        },
        {
          "duration": 0.11666666666667425,
          "durationTicks": 56,
          "midi": 73,
          "name": "C#5",
          "ticks": 144720,
          "time": 301.5,
          "velocity": 0.5905511811023622
        },
        {
          "duration": 0.11666666666667425,
          "durationTicks": 56,
          "midi": 76,
          "name": "E5",
          "ticks": 144780,
          "time": 301.625,
          "velocity": 0.5905511811023622
        },
        {
          "duration": 0.2354166666666515,
          "durationTicks": 113,
          "midi": 79,
          "name": "G5",
          "ticks": 144840,
          "time": 301.75,
          "velocity": 0.5905511811023622
        },
        {
          "duration": 0.4729166666666629,
          "durationTicks": 227,
          "midi": 70,
          "name": "A#4",
          "ticks": 144960,
          "time": 302,
          "velocity": 0.5905511811023622
        },
        {
          "duration": 0.9479166666666856,
          "durationTicks": 455,
          "midi": 60,
          "name": "C4",
          "ticks": 144960,
          "time": 302,
          "velocity": 0.5905511811023622
        },
        {
          "duration": 0.9479166666666856,
          "durationTicks": 455,
          "midi": 63,
          "name": "D#4",
          "ticks": 144960,
          "time": 302,
          "velocity": 0.5905511811023622
        },
        {
          "duration": 0.4729166666666629,
          "durationTicks": 227,
          "midi": 69,
          "name": "A4",
          "ticks": 145200,
          "time": 302.5,
          "velocity": 0.5905511811023622
        },
        {
          "duration": 0.9479166666666856,
          "durationTicks": 455,
          "midi": 62,
          "name": "D4",
          "ticks": 145440,
          "time": 303,
          "velocity": 0.5905511811023622
        },
        {
          "duration": 0.11666666666667425,
          "durationTicks": 56,
          "midi": 69,
          "name": "A4",
          "ticks": 145500,
          "time": 303.125,
          "velocity": 0.5905511811023622
        },
        {
          "duration": 0.11666666666667425,
          "durationTicks": 56,
          "midi": 74,
          "name": "D5",
          "ticks": 145560,
          "time": 303.25,
          "velocity": 0.5905511811023622
        },
        {
          "duration": 0.11666666666667425,
          "durationTicks": 56,
          "midi": 73,
          "name": "C#5",
          "ticks": 145620,
          "time": 303.375,
          "velocity": 0.5905511811023622
        },
        {
          "duration": 0.11666666666667425,
          "durationTicks": 56,
          "midi": 74,
          "name": "D5",
          "ticks": 145680,
          "time": 303.5,
          "velocity": 0.5905511811023622
        },
        {
          "duration": 0.11666666666667425,
          "durationTicks": 56,
          "midi": 76,
          "name": "E5",
          "ticks": 145740,
          "time": 303.625,
          "velocity": 0.5905511811023622
        },
        {
          "duration": 0.2354166666666515,
          "durationTicks": 113,
          "midi": 77,
          "name": "F5",
          "ticks": 145800,
          "time": 303.75,
          "velocity": 0.5905511811023622
        },
        {
          "duration": 0.4729166666666629,
          "durationTicks": 227,
          "midi": 69,
          "name": "A4",
          "ticks": 145920,
          "time": 304,
          "velocity": 0.5905511811023622
        },
        {
          "duration": 0.9479166666666856,
          "durationTicks": 455,
          "midi": 59,
          "name": "B3",
          "ticks": 145920,
          "time": 304,
          "velocity": 0.5905511811023622
        },
        {
          "duration": 0.9479166666666856,
          "durationTicks": 455,
          "midi": 62,
          "name": "D4",
          "ticks": 145920,
          "time": 304,
          "velocity": 0.5905511811023622
        },
        {
          "duration": 0.4729166666666629,
          "durationTicks": 227,
          "midi": 68,
          "name": "G#4",
          "ticks": 146160,
          "time": 304.5,
          "velocity": 0.5905511811023622
        },
        {
          "duration": 0.9479166666666856,
          "durationTicks": 455,
          "midi": 58,
          "name": "A#3",
          "ticks": 146400,
          "time": 305,
          "velocity": 0.5905511811023622
        },
        {
          "duration": 0.9479166666666856,
          "durationTicks": 455,
          "midi": 61,
          "name": "C#4",
          "ticks": 146400,
          "time": 305,
          "velocity": 0.5905511811023622
        },
        {
          "duration": 0.11666666666667425,
          "durationTicks": 56,
          "midi": 67,
          "name": "G4",
          "ticks": 146520,
          "time": 305.25,
          "velocity": 0.5905511811023622
        },
        {
          "duration": 0.11666666666667425,
          "durationTicks": 56,
          "midi": 69,
          "name": "A4",
          "ticks": 146580,
          "time": 305.375,
          "velocity": 0.5905511811023622
        },
        {
          "duration": 0.11666666666667425,
          "durationTicks": 56,
          "midi": 70,
          "name": "A#4",
          "ticks": 146640,
          "time": 305.5,
          "velocity": 0.5905511811023622
        },
        {
          "duration": 0.11666666666667425,
          "durationTicks": 56,
          "midi": 73,
          "name": "C#5",
          "ticks": 146700,
          "time": 305.625,
          "velocity": 0.5905511811023622
        },
        {
          "duration": 0.11666666666667425,
          "durationTicks": 56,
          "midi": 74,
          "name": "D5",
          "ticks": 146760,
          "time": 305.75,
          "velocity": 0.5905511811023622
        },
        {
          "duration": 0.11666666666667425,
          "durationTicks": 56,
          "midi": 76,
          "name": "E5",
          "ticks": 146820,
          "time": 305.875,
          "velocity": 0.5905511811023622
        },
        {
          "duration": 0.4729166666666629,
          "durationTicks": 227,
          "midi": 67,
          "name": "G4",
          "ticks": 146880,
          "time": 306,
          "velocity": 0.5905511811023622
        },
        {
          "duration": 0.9479166666666856,
          "durationTicks": 455,
          "midi": 57,
          "name": "A3",
          "ticks": 146880,
          "time": 306,
          "velocity": 0.5905511811023622
        },
        {
          "duration": 0.9479166666666856,
          "durationTicks": 455,
          "midi": 60,
          "name": "C4",
          "ticks": 146880,
          "time": 306,
          "velocity": 0.5905511811023622
        },
        {
          "duration": 0.4729166666666629,
          "durationTicks": 227,
          "midi": 66,
          "name": "F#4",
          "ticks": 147120,
          "time": 306.5,
          "velocity": 0.5905511811023622
        },
        {
          "duration": 0.9479166666666856,
          "durationTicks": 455,
          "midi": 56,
          "name": "G#3",
          "ticks": 147360,
          "time": 307,
          "velocity": 0.5905511811023622
        },
        {
          "duration": 0.9479166666666856,
          "durationTicks": 455,
          "midi": 59,
          "name": "B3",
          "ticks": 147360,
          "time": 307,
          "velocity": 0.5905511811023622
        },
        {
          "duration": 0.11666666666667425,
          "durationTicks": 56,
          "midi": 74,
          "name": "D5",
          "ticks": 147480,
          "time": 307.25,
          "velocity": 0.5905511811023622
        },
        {
          "duration": 0.11666666666667425,
          "durationTicks": 56,
          "midi": 71,
          "name": "B4",
          "ticks": 147540,
          "time": 307.375,
          "velocity": 0.5905511811023622
        },
        {
          "duration": 0.11666666666667425,
          "durationTicks": 56,
          "midi": 68,
          "name": "G#4",
          "ticks": 147600,
          "time": 307.5,
          "velocity": 0.5905511811023622
        },
        {
          "duration": 0.11666666666667425,
          "durationTicks": 56,
          "midi": 69,
          "name": "A4",
          "ticks": 147660,
          "time": 307.625,
          "velocity": 0.5905511811023622
        },
        {
          "duration": 0.2354166666666515,
          "durationTicks": 113,
          "midi": 71,
          "name": "B4",
          "ticks": 147720,
          "time": 307.75,
          "velocity": 0.5905511811023622
        },
        {
          "duration": 0.2354166666666515,
          "durationTicks": 113,
          "midi": 65,
          "name": "F4",
          "ticks": 147840,
          "time": 308,
          "velocity": 0.5905511811023622
        },
        {
          "duration": 0.9479166666666856,
          "durationTicks": 455,
          "midi": 55,
          "name": "G3",
          "ticks": 147840,
          "time": 308,
          "velocity": 0.5905511811023622
        },
        {
          "duration": 0.9479166666666856,
          "durationTicks": 455,
          "midi": 58,
          "name": "A#3",
          "ticks": 147840,
          "time": 308,
          "velocity": 0.5905511811023622
        },
        {
          "duration": 0.2354166666666515,
          "durationTicks": 113,
          "midi": 62,
          "name": "D4",
          "ticks": 147960,
          "time": 308.25,
          "velocity": 0.5905511811023622
        },
        {
          "duration": 0.11458333333331439,
          "durationTicks": 55,
          "midi": 64,
          "name": "E4",
          "ticks": 148080,
          "time": 308.5,
          "velocity": 0.5905511811023622
        },
        {
          "duration": 0.11458333333331439,
          "durationTicks": 55,
          "midi": 62,
          "name": "D4",
          "ticks": 148140,
          "time": 308.625,
          "velocity": 0.5905511811023622
        },
        {
          "duration": 0.2354166666666515,
          "durationTicks": 113,
          "midi": 64,
          "name": "E4",
          "ticks": 148200,
          "time": 308.75,
          "velocity": 0.5905511811023622
        },
        {
          "duration": 0.9479166666666856,
          "durationTicks": 455,
          "midi": 57,
          "name": "A3",
          "ticks": 148320,
          "time": 309,
          "velocity": 0.5905511811023622
        },
        {
          "duration": 0.11666666666667425,
          "durationTicks": 56,
          "midi": 75,
          "name": "D#5",
          "ticks": 148380,
          "time": 309.125,
          "velocity": 0.5905511811023622
        },
        {
          "duration": 0.11666666666667425,
          "durationTicks": 56,
          "midi": 72,
          "name": "C5",
          "ticks": 148440,
          "time": 309.25,
          "velocity": 0.5905511811023622
        },
        {
          "duration": 0.11666666666667425,
          "durationTicks": 56,
          "midi": 69,
          "name": "A4",
          "ticks": 148500,
          "time": 309.375,
          "velocity": 0.5905511811023622
        },
        {
          "duration": 0.11666666666667425,
          "durationTicks": 56,
          "midi": 66,
          "name": "F#4",
          "ticks": 148560,
          "time": 309.5,
          "velocity": 0.5905511811023622
        },
        {
          "duration": 0.11666666666667425,
          "durationTicks": 56,
          "midi": 69,
          "name": "A4",
          "ticks": 148620,
          "time": 309.625,
          "velocity": 0.5905511811023622
        },
        {
          "duration": 0.2354166666666515,
          "durationTicks": 113,
          "midi": 63,
          "name": "D#4",
          "ticks": 148680,
          "time": 309.75,
          "velocity": 0.5905511811023622
        },
        {
          "duration": 0.4729166666666629,
          "durationTicks": 227,
          "midi": 63,
          "name": "D#4",
          "ticks": 148800,
          "time": 310,
          "velocity": 0.5905511811023622
        },
        {
          "duration": 0.9479166666666856,
          "durationTicks": 455,
          "midi": 56,
          "name": "G#3",
          "ticks": 148800,
          "time": 310,
          "velocity": 0.5905511811023622
        },
        {
          "duration": 0.4729166666666629,
          "durationTicks": 227,
          "midi": 62,
          "name": "D4",
          "ticks": 149040,
          "time": 310.5,
          "velocity": 0.5905511811023622
        },
        {
          "duration": 0.9479166666666856,
          "durationTicks": 455,
          "midi": 55,
          "name": "G3",
          "ticks": 149280,
          "time": 311,
          "velocity": 0.5905511811023622
        },
        {
          "duration": 0.05624999999997726,
          "durationTicks": 27,
          "midi": 62,
          "name": "D4",
          "ticks": 149340,
          "time": 311.125,
          "velocity": 0.5905511811023622
        },
        {
          "duration": 0.05624999999997726,
          "durationTicks": 27,
          "midi": 64,
          "name": "E4",
          "ticks": 149370,
          "time": 311.1875,
          "velocity": 0.5905511811023622
        },
        {
          "duration": 0.05624999999997726,
          "durationTicks": 27,
          "midi": 66,
          "name": "F#4",
          "ticks": 149400,
          "time": 311.25,
          "velocity": 0.5905511811023622
        },
        {
          "duration": 0.05624999999997726,
          "durationTicks": 27,
          "midi": 67,
          "name": "G4",
          "ticks": 149430,
          "time": 311.3125,
          "velocity": 0.5905511811023622
        },
        {
          "duration": 0.05624999999997726,
          "durationTicks": 27,
          "midi": 69,
          "name": "A4",
          "ticks": 149460,
          "time": 311.375,
          "velocity": 0.5905511811023622
        },
        {
          "duration": 0.05624999999997726,
          "durationTicks": 27,
          "midi": 70,
          "name": "A#4",
          "ticks": 149490,
          "time": 311.4375,
          "velocity": 0.5905511811023622
        },
        {
          "duration": 0.05624999999997726,
          "durationTicks": 27,
          "midi": 69,
          "name": "A4",
          "ticks": 149520,
          "time": 311.5,
          "velocity": 0.5905511811023622
        },
        {
          "duration": 0.05624999999997726,
          "durationTicks": 27,
          "midi": 67,
          "name": "G4",
          "ticks": 149550,
          "time": 311.5625,
          "velocity": 0.5905511811023622
        },
        {
          "duration": 0.11666666666667425,
          "durationTicks": 56,
          "midi": 65,
          "name": "F4",
          "ticks": 149580,
          "time": 311.625,
          "velocity": 0.5905511811023622
        },
        {
          "duration": 0.11666666666667425,
          "durationTicks": 56,
          "midi": 64,
          "name": "E4",
          "ticks": 149640,
          "time": 311.75,
          "velocity": 0.5905511811023622
        },
        {
          "duration": 0.05624999999997726,
          "durationTicks": 27,
          "midi": 65,
          "name": "F4",
          "ticks": 149700,
          "time": 311.875,
          "velocity": 0.5905511811023622
        },
        {
          "duration": 0.05624999999997726,
          "durationTicks": 27,
          "midi": 67,
          "name": "G4",
          "ticks": 149730,
          "time": 311.9375,
          "velocity": 0.5905511811023622
        },
        {
          "duration": 0.4729166666666629,
          "durationTicks": 227,
          "midi": 62,
          "name": "D4",
          "ticks": 149760,
          "time": 312,
          "velocity": 0.5905511811023622
        },
        {
          "duration": 0.4729166666666629,
          "durationTicks": 227,
          "midi": 61,
          "name": "C#4",
          "ticks": 150000,
          "time": 312.5,
          "velocity": 0.5905511811023622
        },
        {
          "duration": 0.11458333333331439,
          "durationTicks": 55,
          "midi": 61,
          "name": "C#4",
          "ticks": 150240,
          "time": 313,
          "velocity": 0.5905511811023622
        },
        {
          "duration": 0.11458333333337123,
          "durationTicks": 55,
          "midi": 62,
          "name": "D4",
          "ticks": 150299,
          "time": 313.12291666666664,
          "velocity": 0.5905511811023622
        },
        {
          "duration": 0.11458333333337123,
          "durationTicks": 55,
          "midi": 61,
          "name": "C#4",
          "ticks": 150359,
          "time": 313.24791666666664,
          "velocity": 0.5905511811023622
        },
        {
          "duration": 0.11458333333331439,
          "durationTicks": 55,
          "midi": 62,
          "name": "D4",
          "ticks": 150420,
          "time": 313.375,
          "velocity": 0.5905511811023622
        },
        {
          "duration": 0.11458333333337123,
          "durationTicks": 55,
          "midi": 61,
          "name": "C#4",
          "ticks": 150479,
          "time": 313.49791666666664,
          "velocity": 0.5905511811023622
        },
        {
          "duration": 0.11458333333337123,
          "durationTicks": 55,
          "midi": 62,
          "name": "D4",
          "ticks": 150539,
          "time": 313.62291666666664,
          "velocity": 0.5905511811023622
        },
        {
          "duration": 0.11666666666667425,
          "durationTicks": 56,
          "midi": 59,
          "name": "B3",
          "ticks": 150600,
          "time": 313.75,
          "velocity": 0.5905511811023622
        },
        {
          "duration": 0.11666666666667425,
          "durationTicks": 56,
          "midi": 61,
          "name": "C#4",
          "ticks": 150660,
          "time": 313.875,
          "velocity": 0.5905511811023622
        },
        {
          "duration": 1.8979166666666742,
          "durationTicks": 911,
          "midi": 62,
          "name": "D4",
          "ticks": 150720,
          "time": 314,
          "velocity": 0.5905511811023622
        },
        {
          "duration": 1.8979166666666742,
          "durationTicks": 911,
          "midi": 57,
          "name": "A3",
          "ticks": 150720,
          "time": 314,
          "velocity": 0.5905511811023622
        },
        {
          "duration": 0.5416670729166526,
          "durationTicks": 455,
          "midi": 69,
          "name": "A4",
          "ticks": 151680,
          "time": 316,
          "velocity": 0.5905511811023622
        },
        {
          "duration": 0.5416670729166526,
          "durationTicks": 455,
          "midi": 70,
          "name": "A#4",
          "ticks": 152160,
          "time": 316.571429,
          "velocity": 0.5905511811023622
        },
        {
          "duration": 0.5416670729166526,
          "durationTicks": 455,
          "midi": 71,
          "name": "B4",
          "ticks": 152640,
          "time": 317.142858,
          "velocity": 0.5905511811023622
        },
        {
          "duration": 0.5416670729166526,
          "durationTicks": 455,
          "midi": 72,
          "name": "C5",
          "ticks": 153120,
          "time": 317.714287,
          "velocity": 0.5905511811023622
        },
        {
          "duration": 0.2702382979167055,
          "durationTicks": 227,
          "midi": 72,
          "name": "C5",
          "ticks": 153600,
          "time": 318.285716,
          "velocity": 0.5905511811023622
        },
        {
          "duration": 0.27023829791664866,
          "durationTicks": 227,
          "midi": 71,
          "name": "B4",
          "ticks": 153840,
          "time": 318.5714305,
          "velocity": 0.5905511811023622
        },
        {
          "duration": 0.5416670729166526,
          "durationTicks": 455,
          "midi": 72,
          "name": "C5",
          "ticks": 154080,
          "time": 318.857145,
          "velocity": 0.5905511811023622
        },
        {
          "duration": 0.5416670729166526,
          "durationTicks": 455,
          "midi": 64,
          "name": "E4",
          "ticks": 154560,
          "time": 319.428574,
          "velocity": 0.5905511811023622
        },
        {
          "duration": 0.5416670729166526,
          "durationTicks": 455,
          "midi": 65,
          "name": "F4",
          "ticks": 155040,
          "time": 320.000003,
          "velocity": 0.5905511811023622
        },
        {
          "duration": 0.5416670729166526,
          "durationTicks": 455,
          "midi": 66,
          "name": "F#4",
          "ticks": 155520,
          "time": 320.571432,
          "velocity": 0.5905511811023622
        },
        {
          "duration": 0.5416670729167095,
          "durationTicks": 455,
          "midi": 67,
          "name": "G4",
          "ticks": 156000,
          "time": 321.142861,
          "velocity": 0.5905511811023622
        },
        {
          "duration": 0.27023829791664866,
          "durationTicks": 227,
          "midi": 67,
          "name": "G4",
          "ticks": 156480,
          "time": 321.71429,
          "velocity": 0.5905511811023622
        },
        {
          "duration": 0.2702382979167055,
          "durationTicks": 227,
          "midi": 66,
          "name": "F#4",
          "ticks": 156720,
          "time": 322.0000045,
          "velocity": 0.5905511811023622
        },
        {
          "duration": 0.2702382979167055,
          "durationTicks": 227,
          "midi": 67,
          "name": "G4",
          "ticks": 156960,
          "time": 322.285719,
          "velocity": 0.5905511811023622
        },
        {
          "duration": 0.27023829791664866,
          "durationTicks": 227,
          "midi": 69,
          "name": "A4",
          "ticks": 157200,
          "time": 322.5714335,
          "velocity": 0.5905511811023622
        },
        {
          "duration": 0.5416670729166526,
          "durationTicks": 455,
          "midi": 70,
          "name": "A#4",
          "ticks": 157440,
          "time": 322.857148,
          "velocity": 0.5905511811023622
        },
        {
          "duration": 0.5416670729166526,
          "durationTicks": 455,
          "midi": 69,
          "name": "A4",
          "ticks": 157920,
          "time": 323.428577,
          "velocity": 0.5905511811023622
        },
        {
          "duration": 0.5416670729166526,
          "durationTicks": 455,
          "midi": 67,
          "name": "G4",
          "ticks": 158400,
          "time": 324.000006,
          "velocity": 0.5905511811023622
        },
        {
          "duration": 0.5416670729166526,
          "durationTicks": 455,
          "midi": 65,
          "name": "F4",
          "ticks": 158880,
          "time": 324.571435,
          "velocity": 0.5905511811023622
        },
        {
          "duration": 0.2702382979167055,
          "durationTicks": 227,
          "midi": 67,
          "name": "G4",
          "ticks": 159360,
          "time": 325.142864,
          "velocity": 0.5905511811023622
        },
        {
          "duration": 0.27023829791664866,
          "durationTicks": 227,
          "midi": 65,
          "name": "F4",
          "ticks": 159600,
          "time": 325.4285785,
          "velocity": 0.5905511811023622
        },
        {
          "duration": 0.27023829791664866,
          "durationTicks": 227,
          "midi": 64,
          "name": "E4",
          "ticks": 159840,
          "time": 325.714293,
          "velocity": 0.5905511811023622
        },
        {
          "duration": 0.2702382979167055,
          "durationTicks": 227,
          "midi": 62,
          "name": "D4",
          "ticks": 160080,
          "time": 326.0000075,
          "velocity": 0.5905511811023622
        },
        {
          "duration": 0.5416670729166526,
          "durationTicks": 455,
          "midi": 64,
          "name": "E4",
          "ticks": 160320,
          "time": 326.285722,
          "velocity": 0.5905511811023622
        },
        {
          "duration": 0.5416670729166526,
          "durationTicks": 455,
          "midi": 57,
          "name": "A3",
          "ticks": 160800,
          "time": 326.857151,
          "velocity": 0.5905511811023622
        },
        {
          "duration": 0.5416670729166526,
          "durationTicks": 455,
          "midi": 61,
          "name": "C#4",
          "ticks": 161280,
          "time": 327.42858,
          "velocity": 0.5905511811023622
        },
        {
          "duration": 0.2702382979167055,
          "durationTicks": 227,
          "midi": 62,
          "name": "D4",
          "ticks": 161760,
          "time": 328.000009,
          "velocity": 0.5905511811023622
        },
        {
          "duration": 0.13452391041664669,
          "durationTicks": 113,
          "midi": 62,
          "name": "D4",
          "ticks": 162000,
          "time": 328.2857235,
          "velocity": 0.5905511811023622
        },
        {
          "duration": 0.13452391041670353,
          "durationTicks": 113,
          "midi": 64,
          "name": "E4",
          "ticks": 162120,
          "time": 328.42858075,
          "velocity": 0.5905511811023622
        },
        {
          "duration": 0.27023829791664866,
          "durationTicks": 227,
          "midi": 65,
          "name": "F4",
          "ticks": 162240,
          "time": 328.571438,
          "velocity": 0.5905511811023622
        },
        {
          "duration": 0.13452391041670353,
          "durationTicks": 113,
          "midi": 65,
          "name": "F4",
          "ticks": 162480,
          "time": 328.8571525,
          "velocity": 0.5905511811023622
        },
        {
          "duration": 0.13452391041664669,
          "durationTicks": 113,
          "midi": 67,
          "name": "G4",
          "ticks": 162600,
          "time": 329.00000975,
          "velocity": 0.5905511811023622
        },
        {
          "duration": 0.27023829791664866,
          "durationTicks": 227,
          "midi": 69,
          "name": "A4",
          "ticks": 162720,
          "time": 329.142867,
          "velocity": 0.5905511811023622
        },
        {
          "duration": 0.13452391041664669,
          "durationTicks": 113,
          "midi": 69,
          "name": "A4",
          "ticks": 162960,
          "time": 329.4285815,
          "velocity": 0.5905511811023622
        },
        {
          "duration": 0.13452391041670353,
          "durationTicks": 113,
          "midi": 71,
          "name": "B4",
          "ticks": 163080,
          "time": 329.57143874999997,
          "velocity": 0.5905511811023622
        },
        {
          "duration": 0.40595268541665064,
          "durationTicks": 341,
          "midi": 62,
          "name": "D4",
          "ticks": 163200,
          "time": 329.714296,
          "velocity": 0.5905511811023622
        },
        {
          "duration": 1.1428579999999897,
          "durationTicks": 960,
          "midi": 72,
          "name": "C5",
          "ticks": 163200,
          "time": 329.714296,
          "velocity": 0.5905511811023622
        },
        {
          "duration": 0.13452391041664669,
          "durationTicks": 113,
          "midi": 64,
          "name": "E4",
          "ticks": 163560,
          "time": 330.14286775,
          "velocity": 0.5905511811023622
        },
        {
          "duration": 0.5416670729166526,
          "durationTicks": 455,
          "midi": 65,
          "name": "F4",
          "ticks": 163680,
          "time": 330.285725,
          "velocity": 0.5905511811023622
        },
        {
          "duration": 0.5416670729167095,
          "durationTicks": 455,
          "midi": 66,
          "name": "F#4",
          "ticks": 164160,
          "time": 330.857154,
          "velocity": 0.5905511811023622
        },
        {
          "duration": 0.5416670729167095,
          "durationTicks": 455,
          "midi": 72,
          "name": "C5",
          "ticks": 164160,
          "time": 330.857154,
          "velocity": 0.5905511811023622
        },
        {
          "duration": 0.5416670729166526,
          "durationTicks": 455,
          "midi": 67,
          "name": "G4",
          "ticks": 164640,
          "time": 331.428583,
          "velocity": 0.5905511811023622
        },
        {
          "duration": 0.13452391041670353,
          "durationTicks": 113,
          "midi": 69,
          "name": "A4",
          "ticks": 164880,
          "time": 331.7142975,
          "velocity": 0.5905511811023622
        },
        {
          "duration": 0.13452391041664669,
          "durationTicks": 113,
          "midi": 70,
          "name": "A#4",
          "ticks": 165000,
          "time": 331.85715475,
          "velocity": 0.5905511811023622
        },
        {
          "duration": 0.2702382979167055,
          "durationTicks": 227,
          "midi": 67,
          "name": "G4",
          "ticks": 165120,
          "time": 332.00001199999997,
          "velocity": 0.5905511811023622
        },
        {
          "duration": 0.2702382979167055,
          "durationTicks": 227,
          "midi": 72,
          "name": "C5",
          "ticks": 165120,
          "time": 332.00001199999997,
          "velocity": 0.5905511811023622
        },
        {
          "duration": 0.27023829791664866,
          "durationTicks": 227,
          "midi": 66,
          "name": "F#4",
          "ticks": 165360,
          "time": 332.2857265,
          "velocity": 0.5905511811023622
        },
        {
          "duration": 0.13452391041664669,
          "durationTicks": 113,
          "midi": 72,
          "name": "C5",
          "ticks": 165360,
          "time": 332.2857265,
          "velocity": 0.5905511811023622
        },
        {
          "duration": 0.13452391041670353,
          "durationTicks": 113,
          "midi": 74,
          "name": "D5",
          "ticks": 165480,
          "time": 332.42858375,
          "velocity": 0.5905511811023622
        },
        {
          "duration": 0.5416670729166526,
          "durationTicks": 455,
          "midi": 67,
          "name": "G4",
          "ticks": 165600,
          "time": 332.571441,
          "velocity": 0.5905511811023622
        },
        {
          "duration": 0.27023829791664866,
          "durationTicks": 227,
          "midi": 76,
          "name": "E5",
          "ticks": 165600,
          "time": 332.571441,
          "velocity": 0.5905511811023622
        },
        {
          "duration": 0.13452391041670353,
          "durationTicks": 113,
          "midi": 76,
          "name": "E5",
          "ticks": 165840,
          "time": 332.8571555,
          "velocity": 0.5905511811023622
        },
        {
          "duration": 0.13452391041664669,
          "durationTicks": 113,
          "midi": 78,
          "name": "F#5",
          "ticks": 165960,
          "time": 333.00001275,
          "velocity": 0.5905511811023622
        },
        {
          "duration": 0.5416670729166526,
          "durationTicks": 455,
          "midi": 59,
          "name": "B3",
          "ticks": 166080,
          "time": 333.14287,
          "velocity": 0.5905511811023622
        },
        {
          "duration": 1.1428579999999897,
          "durationTicks": 960,
          "midi": 79,
          "name": "G5",
          "ticks": 166080,
          "time": 333.14287,
          "velocity": 0.5905511811023622
        },
        {
          "duration": 0.5416670729167095,
          "durationTicks": 455,
          "midi": 60,
          "name": "C4",
          "ticks": 166560,
          "time": 333.714299,
          "velocity": 0.5905511811023622
        },
        {
          "duration": 0.5416670729166526,
          "durationTicks": 455,
          "midi": 61,
          "name": "C#4",
          "ticks": 167040,
          "time": 334.285728,
          "velocity": 0.5905511811023622
        },
        {
          "duration": 0.5416670729166526,
          "durationTicks": 455,
          "midi": 79,
          "name": "G5",
          "ticks": 167040,
          "time": 334.285728,
          "velocity": 0.5905511811023622
        },
        {
          "duration": 0.5416670729167095,
          "durationTicks": 455,
          "midi": 62,
          "name": "D4",
          "ticks": 167520,
          "time": 334.857157,
          "velocity": 0.5905511811023622
        },
        {
          "duration": 0.13452391041664669,
          "durationTicks": 113,
          "midi": 81,
          "name": "A5",
          "ticks": 167760,
          "time": 335.1428715,
          "velocity": 0.5905511811023622
        },
        {
          "duration": 0.13452391041670353,
          "durationTicks": 113,
          "midi": 79,
          "name": "G5",
          "ticks": 167880,
          "time": 335.28572875,
          "velocity": 0.5905511811023622
        },
        {
          "duration": 0.27023829791664866,
          "durationTicks": 227,
          "midi": 62,
          "name": "D4",
          "ticks": 168000,
          "time": 335.428586,
          "velocity": 0.5905511811023622
        },
        {
          "duration": 0.27023829791664866,
          "durationTicks": 227,
          "midi": 77,
          "name": "F5",
          "ticks": 168000,
          "time": 335.428586,
          "velocity": 0.5905511811023622
        },
        {
          "duration": 0.2702382979167055,
          "durationTicks": 227,
          "midi": 61,
          "name": "C#4",
          "ticks": 168240,
          "time": 335.7143005,
          "velocity": 0.5905511811023622
        },
        {
          "duration": 0.13452391041670353,
          "durationTicks": 113,
          "midi": 77,
          "name": "F5",
          "ticks": 168240,
          "time": 335.7143005,
          "velocity": 0.5905511811023622
        },
        {
          "duration": 0.13452391041664669,
          "durationTicks": 113,
          "midi": 76,
          "name": "E5",
          "ticks": 168360,
          "time": 335.85715775,
          "velocity": 0.5905511811023622
        },
        {
          "duration": 0.27023829791664866,
          "durationTicks": 227,
          "midi": 62,
          "name": "D4",
          "ticks": 168480,
          "time": 336.000015,
          "velocity": 0.5905511811023622
        },
        {
          "duration": 0.27023829791664866,
          "durationTicks": 227,
          "midi": 74,
          "name": "D5",
          "ticks": 168480,
          "time": 336.000015,
          "velocity": 0.5905511811023622
        },
        {
          "duration": 0.27023829791664866,
          "durationTicks": 227,
          "midi": 64,
          "name": "E4",
          "ticks": 168720,
          "time": 336.2857295,
          "velocity": 0.5905511811023622
        },
        {
          "duration": 0.13452391041664669,
          "durationTicks": 113,
          "midi": 72,
          "name": "C5",
          "ticks": 168720,
          "time": 336.2857295,
          "velocity": 0.5905511811023622
        },
        {
          "duration": 0.13452391041664669,
          "durationTicks": 113,
          "midi": 71,
          "name": "B4",
          "ticks": 168840,
          "time": 336.42858675,
          "velocity": 0.5905511811023622
        },
        {
          "duration": 0.5416670729166526,
          "durationTicks": 455,
          "midi": 65,
          "name": "F4",
          "ticks": 168960,
          "time": 336.571444,
          "velocity": 0.5905511811023622
        },
        {
          "duration": 0.06547623958334725,
          "durationTicks": 55,
          "midi": 80,
          "name": "G#5",
          "ticks": 168960,
          "time": 336.571444,
          "velocity": 0.5905511811023622
        },
        {
          "duration": 0.06547623958334725,
          "durationTicks": 55,
          "midi": 81,
          "name": "A5",
          "ticks": 169020,
          "time": 336.642872625,
          "velocity": 0.5905511811023622
        },
        {
          "duration": 0.06547623958334725,
          "durationTicks": 55,
          "midi": 80,
          "name": "G#5",
          "ticks": 169080,
          "time": 336.71430125,
          "velocity": 0.5905511811023622
        },
        {
          "duration": 0.06547623958329041,
          "durationTicks": 55,
          "midi": 81,
          "name": "A5",
          "ticks": 169140,
          "time": 336.785729875,
          "velocity": 0.5905511811023622
        },
        {
          "duration": 0.06547623958334725,
          "durationTicks": 55,
          "midi": 80,
          "name": "G#5",
          "ticks": 169200,
          "time": 336.85715849999997,
          "velocity": 0.5905511811023622
        },
        {
          "duration": 0.06547623958334725,
          "durationTicks": 55,
          "midi": 81,
          "name": "A5",
          "ticks": 169260,
          "time": 336.928587125,
          "velocity": 0.5905511811023622
        },
        {
          "duration": 0.06547623958334725,
          "durationTicks": 55,
          "midi": 80,
          "name": "G#5",
          "ticks": 169320,
          "time": 337.00001575,
          "velocity": 0.5905511811023622
        },
        {
          "duration": 0.06547623958334725,
          "durationTicks": 55,
          "midi": 81,
          "name": "A5",
          "ticks": 169380,
          "time": 337.071444375,
          "velocity": 0.5905511811023622
        },
        {
          "duration": 0.06547623958334725,
          "durationTicks": 55,
          "midi": 80,
          "name": "G#5",
          "ticks": 169440,
          "time": 337.142873,
          "velocity": 0.5905511811023622
        },
        {
          "duration": 0.5416670729166526,
          "durationTicks": 455,
          "midi": 64,
          "name": "E4",
          "ticks": 169440,
          "time": 337.142873,
          "velocity": 0.5905511811023622
        },
        {
          "duration": 0.06547623958329041,
          "durationTicks": 55,
          "midi": 81,
          "name": "A5",
          "ticks": 169500,
          "time": 337.214301625,
          "velocity": 0.5905511811023622
        },
        {
          "duration": 0.06547623958329041,
          "durationTicks": 55,
          "midi": 80,
          "name": "G#5",
          "ticks": 169560,
          "time": 337.28573025000003,
          "velocity": 0.5905511811023622
        },
        {
          "duration": 0.06547623958334725,
          "durationTicks": 55,
          "midi": 81,
          "name": "A5",
          "ticks": 169620,
          "time": 337.357158875,
          "velocity": 0.5905511811023622
        },
        {
          "duration": 0.06547623958334725,
          "durationTicks": 55,
          "midi": 80,
          "name": "G#5",
          "ticks": 169680,
          "time": 337.4285875,
          "velocity": 0.5905511811023622
        },
        {
          "duration": 0.06547623958334725,
          "durationTicks": 55,
          "midi": 81,
          "name": "A5",
          "ticks": 169740,
          "time": 337.500016125,
          "velocity": 0.5905511811023622
        },
        {
          "duration": 0.06547623958334725,
          "durationTicks": 55,
          "midi": 80,
          "name": "G#5",
          "ticks": 169800,
          "time": 337.57144475,
          "velocity": 0.5905511811023622
        },
        {
          "duration": 0.06547623958329041,
          "durationTicks": 55,
          "midi": 81,
          "name": "A5",
          "ticks": 169860,
          "time": 337.642873375,
          "velocity": 0.5905511811023622
        },
        {
          "duration": 0.06547623958334725,
          "durationTicks": 55,
          "midi": 80,
          "name": "G#5",
          "ticks": 169920,
          "time": 337.714302,
          "velocity": 0.5905511811023622
        },
        {
          "duration": 0.5416670729167095,
          "durationTicks": 455,
          "midi": 62,
          "name": "D4",
          "ticks": 169920,
          "time": 337.714302,
          "velocity": 0.5905511811023622
        },
        {
          "duration": 0.06547623958334725,
          "durationTicks": 55,
          "midi": 81,
          "name": "A5",
          "ticks": 169980,
          "time": 337.785730625,
          "velocity": 0.5905511811023622
        },
        {
          "duration": 0.06547623958334725,
          "durationTicks": 55,
          "midi": 80,
          "name": "G#5",
          "ticks": 170040,
          "time": 337.85715925,
          "velocity": 0.5905511811023622
        },
        {
          "duration": 0.06547623958334725,
          "durationTicks": 55,
          "midi": 81,
          "name": "A5",
          "ticks": 170100,
          "time": 337.928587875,
          "velocity": 0.5905511811023622
        },
        {
          "duration": 0.06547623958329041,
          "durationTicks": 55,
          "midi": 80,
          "name": "G#5",
          "ticks": 170160,
          "time": 338.0000165,
          "velocity": 0.5905511811023622
        },
        {
          "duration": 0.06547623958329041,
          "durationTicks": 55,
          "midi": 81,
          "name": "A5",
          "ticks": 170220,
          "time": 338.071445125,
          "velocity": 0.5905511811023622
        },
        {
          "duration": 0.06547623958334725,
          "durationTicks": 55,
          "midi": 80,
          "name": "G#5",
          "ticks": 170280,
          "time": 338.14287375,
          "velocity": 0.5905511811023622
        },
        {
          "duration": 0.06547623958334725,
          "durationTicks": 55,
          "midi": 81,
          "name": "A5",
          "ticks": 170340,
          "time": 338.214302375,
          "velocity": 0.5905511811023622
        },
        {
          "duration": 1.1428579999999897,
          "durationTicks": 960,
          "midi": 81,
          "name": "A5",
          "ticks": 170400,
          "time": 338.285731,
          "velocity": 0.5905511811023622
        },
        {
          "duration": 0.5416670729166526,
          "durationTicks": 455,
          "midi": 81,
          "name": "A5",
          "ticks": 171360,
          "time": 339.428589,
          "velocity": 0.5905511811023622
        },
        {
          "duration": 0.13452391041664669,
          "durationTicks": 113,
          "midi": 83,
          "name": "B5",
          "ticks": 172080,
          "time": 340.2857325,
          "velocity": 0.5905511811023622
        },
        {
          "duration": 0.13452391041664669,
          "durationTicks": 113,
          "midi": 81,
          "name": "A5",
          "ticks": 172200,
          "time": 340.42858975,
          "velocity": 0.5905511811023622
        },
        {
          "duration": 0.2702382979167055,
          "durationTicks": 227,
          "midi": 80,
          "name": "G#5",
          "ticks": 172320,
          "time": 340.571447,
          "velocity": 0.5905511811023622
        },
        {
          "duration": 0.13452391041664669,
          "durationTicks": 113,
          "midi": 80,
          "name": "G#5",
          "ticks": 172560,
          "time": 340.8571615,
          "velocity": 0.5905511811023622
        },
        {
          "duration": 0.13452391041670353,
          "durationTicks": 113,
          "midi": 78,
          "name": "F#5",
          "ticks": 172680,
          "time": 341.00001875,
          "velocity": 0.5905511811023622
        },
        {
          "duration": 0.27023829791664866,
          "durationTicks": 227,
          "midi": 76,
          "name": "E5",
          "ticks": 172800,
          "time": 341.142876,
          "velocity": 0.5905511811023622
        },
        {
          "duration": 0.13452391041670353,
          "durationTicks": 113,
          "midi": 76,
          "name": "E5",
          "ticks": 173040,
          "time": 341.4285905,
          "velocity": 0.5905511811023622
        },
        {
          "duration": 0.13452391041664669,
          "durationTicks": 113,
          "midi": 74,
          "name": "D5",
          "ticks": 173160,
          "time": 341.57144775,
          "velocity": 0.5905511811023622
        },
        {
          "duration": 0.27023829791664866,
          "durationTicks": 227,
          "midi": 72,
          "name": "C5",
          "ticks": 173280,
          "time": 341.714305,
          "velocity": 0.5905511811023622
        },
        {
          "duration": 0.27023829791664866,
          "durationTicks": 227,
          "midi": 64,
          "name": "E4",
          "ticks": 173520,
          "time": 342.0000195,
          "velocity": 0.5905511811023622
        },
        {
          "duration": 0.2702382979167055,
          "durationTicks": 227,
          "midi": 69,
          "name": "A4",
          "ticks": 173760,
          "time": 342.285734,
          "velocity": 0.5905511811023622
        },
        {
          "duration": 0.2702382979167055,
          "durationTicks": 227,
          "midi": 60,
          "name": "C4",
          "ticks": 173760,
          "time": 342.285734,
          "velocity": 0.5905511811023622
        },
        {
          "duration": 0.13452391041670353,
          "durationTicks": 113,
          "midi": 69,
          "name": "A4",
          "ticks": 174000,
          "time": 342.5714485,
          "velocity": 0.5905511811023622
        },
        {
          "duration": 0.13452391041670353,
          "durationTicks": 113,
          "midi": 60,
          "name": "C4",
          "ticks": 174000,
          "time": 342.5714485,
          "velocity": 0.5905511811023622
        },
        {
          "duration": 0.13452391041664669,
          "durationTicks": 113,
          "midi": 71,
          "name": "B4",
          "ticks": 174120,
          "time": 342.71430575,
          "velocity": 0.5905511811023622
        },
        {
          "duration": 0.13452391041664669,
          "durationTicks": 113,
          "midi": 62,
          "name": "D4",
          "ticks": 174120,
          "time": 342.71430575,
          "velocity": 0.5905511811023622
        },
        {
          "duration": 0.6773814604166546,
          "durationTicks": 569,
          "midi": 72,
          "name": "C5",
          "ticks": 174240,
          "time": 342.857163,
          "velocity": 0.5905511811023622
        },
        {
          "duration": 0.27023829791664866,
          "durationTicks": 227,
          "midi": 64,
          "name": "E4",
          "ticks": 174240,
          "time": 342.857163,
          "velocity": 0.5905511811023622
        },
        {
          "duration": 0.13452391041664669,
          "durationTicks": 113,
          "midi": 64,
          "name": "E4",
          "ticks": 174480,
          "time": 343.1428775,
          "velocity": 0.5905511811023622
        },
        {
          "duration": 0.13452391041664669,
          "durationTicks": 113,
          "midi": 66,
          "name": "F#4",
          "ticks": 174600,
          "time": 343.28573475,
          "velocity": 0.5905511811023622
        },
        {
          "duration": 1.1428580000000466,
          "durationTicks": 960,
          "midi": 67,
          "name": "G4",
          "ticks": 174720,
          "time": 343.428592,
          "velocity": 0.5905511811023622
        },
        {
          "duration": 0.13452391041664669,
          "durationTicks": 113,
          "midi": 70,
          "name": "A#4",
          "ticks": 174840,
          "time": 343.57144925,
          "velocity": 0.5905511811023622
        },
        {
          "duration": 0.13452391041664669,
          "durationTicks": 113,
          "midi": 69,
          "name": "A4",
          "ticks": 174960,
          "time": 343.7143065,
          "velocity": 0.5905511811023622
        },
        {
          "duration": 0.13452391041670353,
          "durationTicks": 113,
          "midi": 70,
          "name": "A#4",
          "ticks": 175080,
          "time": 343.85716375,
          "velocity": 0.5905511811023622
        },
        {
          "duration": 0.13452391041664669,
          "durationTicks": 113,
          "midi": 72,
          "name": "C5",
          "ticks": 175200,
          "time": 344.000021,
          "velocity": 0.5905511811023622
        },
        {
          "duration": 0.13452391041664669,
          "durationTicks": 113,
          "midi": 74,
          "name": "D5",
          "ticks": 175320,
          "time": 344.14287825,
          "velocity": 0.5905511811023622
        },
        {
          "duration": 0.13452391041670353,
          "durationTicks": 113,
          "midi": 75,
          "name": "D#5",
          "ticks": 175440,
          "time": 344.2857355,
          "velocity": 0.5905511811023622
        },
        {
          "duration": 0.13452391041664669,
          "durationTicks": 113,
          "midi": 74,
          "name": "D5",
          "ticks": 175560,
          "time": 344.42859275,
          "velocity": 0.5905511811023622
        },
        {
          "duration": 0.13452391041664669,
          "durationTicks": 113,
          "midi": 72,
          "name": "C5",
          "ticks": 175680,
          "time": 344.57145,
          "velocity": 0.5905511811023622
        },
        {
          "duration": 0.5416670729166526,
          "durationTicks": 455,
          "midi": 67,
          "name": "G4",
          "ticks": 175680,
          "time": 344.57145,
          "velocity": 0.5905511811023622
        },
        {
          "duration": 0.13452391041670353,
          "durationTicks": 113,
          "midi": 70,
          "name": "A#4",
          "ticks": 175800,
          "time": 344.71430725,
          "velocity": 0.5905511811023622
        },
        {
          "duration": 0.13452391041664669,
          "durationTicks": 113,
          "midi": 72,
          "name": "C5",
          "ticks": 175920,
          "time": 344.8571645,
          "velocity": 0.5905511811023622
        },
        {
          "duration": 0.13452391041670353,
          "durationTicks": 113,
          "midi": 69,
          "name": "A4",
          "ticks": 176040,
          "time": 345.00002175,
          "velocity": 0.5905511811023622
        },
        {
          "duration": 0.27023829791664866,
          "durationTicks": 227,
          "midi": 70,
          "name": "A#4",
          "ticks": 176160,
          "time": 345.142879,
          "velocity": 0.5905511811023622
        },
        {
          "duration": 0.2702382979167055,
          "durationTicks": 227,
          "midi": 62,
          "name": "D4",
          "ticks": 176400,
          "time": 345.4285935,
          "velocity": 0.5905511811023622
        },
        {
          "duration": 0.13452391041670353,
          "durationTicks": 113,
          "midi": 55,
          "name": "G3",
          "ticks": 176400,
          "time": 345.4285935,
          "velocity": 0.5905511811023622
        },
        {
          "duration": 0.13452391041664669,
          "durationTicks": 113,
          "midi": 57,
          "name": "A3",
          "ticks": 176520,
          "time": 345.57145075,
          "velocity": 0.5905511811023622
        },
        {
          "duration": 0.27023829791664866,
          "durationTicks": 227,
          "midi": 67,
          "name": "G4",
          "ticks": 176640,
          "time": 345.714308,
          "velocity": 0.5905511811023622
        },
        {
          "duration": 0.27023829791664866,
          "durationTicks": 227,
          "midi": 58,
          "name": "A#3",
          "ticks": 176640,
          "time": 345.714308,
          "velocity": 0.5905511811023622
        },
        {
          "duration": 0.13452391041664669,
          "durationTicks": 113,
          "midi": 67,
          "name": "G4",
          "ticks": 176880,
          "time": 346.0000225,
          "velocity": 0.5905511811023622
        },
        {
          "duration": 0.13452391041664669,
          "durationTicks": 113,
          "midi": 58,
          "name": "A#3",
          "ticks": 176880,
          "time": 346.0000225,
          "velocity": 0.5905511811023622
        },
        {
          "duration": 0.13452391041664669,
          "durationTicks": 113,
          "midi": 69,
          "name": "A4",
          "ticks": 177000,
          "time": 346.14287975,
          "velocity": 0.5905511811023622
        },
        {
          "duration": 0.13452391041664669,
          "durationTicks": 113,
          "midi": 60,
          "name": "C4",
          "ticks": 177000,
          "time": 346.14287975,
          "velocity": 0.5905511811023622
        },
        {
          "duration": 0.2702382979167055,
          "durationTicks": 227,
          "midi": 70,
          "name": "A#4",
          "ticks": 177120,
          "time": 346.285737,
          "velocity": 0.5905511811023622
        },
        {
          "duration": 0.2702382979167055,
          "durationTicks": 227,
          "midi": 62,
          "name": "D4",
          "ticks": 177120,
          "time": 346.285737,
          "velocity": 0.5905511811023622
        },
        {
          "duration": 0.13452391041664669,
          "durationTicks": 113,
          "midi": 72,
          "name": "C5",
          "ticks": 177360,
          "time": 346.5714515,
          "velocity": 0.5905511811023622
        },
        {
          "duration": 0.13452391041664669,
          "durationTicks": 113,
          "midi": 62,
          "name": "D4",
          "ticks": 177360,
          "time": 346.5714515,
          "velocity": 0.5905511811023622
        },
        {
          "duration": 0.13452391041670353,
          "durationTicks": 113,
          "midi": 70,
          "name": "A#4",
          "ticks": 177480,
          "time": 346.71430875,
          "velocity": 0.5905511811023622
        },
        {
          "duration": 0.13452391041670353,
          "durationTicks": 113,
          "midi": 64,
          "name": "E4",
          "ticks": 177480,
          "time": 346.71430875,
          "velocity": 0.5905511811023622
        },
        {
          "duration": 0.27023829791664866,
          "durationTicks": 227,
          "midi": 69,
          "name": "A4",
          "ticks": 177600,
          "time": 346.857166,
          "velocity": 0.5905511811023622
        },
        {
          "duration": 1.1428579999999897,
          "durationTicks": 960,
          "midi": 65,
          "name": "F4",
          "ticks": 177600,
          "time": 346.857166,
          "velocity": 0.5905511811023622
        },
        {
          "duration": 0.13452391041670353,
          "durationTicks": 113,
          "midi": 70,
          "name": "A#4",
          "ticks": 177840,
          "time": 347.1428805,
          "velocity": 0.5905511811023622
        },
        {
          "duration": 0.13452391041664669,
          "durationTicks": 113,
          "midi": 72,
          "name": "C5",
          "ticks": 177960,
          "time": 347.28573775,
          "velocity": 0.5905511811023622
        },
        {
          "duration": 0.13452391041670353,
          "durationTicks": 113,
          "midi": 74,
          "name": "D5",
          "ticks": 178080,
          "time": 347.428595,
          "velocity": 0.5905511811023622
        },
        {
          "duration": 0.13452391041664669,
          "durationTicks": 113,
          "midi": 75,
          "name": "D#5",
          "ticks": 178200,
          "time": 347.57145225,
          "velocity": 0.5905511811023622
        },
        {
          "duration": 0.13452391041664669,
          "durationTicks": 113,
          "midi": 74,
          "name": "D5",
          "ticks": 178320,
          "time": 347.7143095,
          "velocity": 0.5905511811023622
        },
        {
          "duration": 0.13452391041670353,
          "durationTicks": 113,
          "midi": 72,
          "name": "C5",
          "ticks": 178440,
          "time": 347.85716675,
          "velocity": 0.5905511811023622
        },
        {
          "duration": 0.13452391041664669,
          "durationTicks": 113,
          "midi": 74,
          "name": "D5",
          "ticks": 178560,
          "time": 348.000024,
          "velocity": 0.5905511811023622
        },
        {
          "duration": 0.5416670729166526,
          "durationTicks": 455,
          "midi": 65,
          "name": "F4",
          "ticks": 178560,
          "time": 348.000024,
          "velocity": 0.5905511811023622
        },
        {
          "duration": 0.13452391041664669,
          "durationTicks": 113,
          "midi": 71,
          "name": "B4",
          "ticks": 178680,
          "time": 348.14288125,
          "velocity": 0.5905511811023622
        },
        {
          "duration": 0.13452391041670353,
          "durationTicks": 113,
          "midi": 72,
          "name": "C5",
          "ticks": 178800,
          "time": 348.2857385,
          "velocity": 0.5905511811023622
        },
        {
          "duration": 0.13452391041664669,
          "durationTicks": 113,
          "midi": 74,
          "name": "D5",
          "ticks": 178920,
          "time": 348.42859575,
          "velocity": 0.5905511811023622
        },
        {
          "duration": 0.5416670729166526,
          "durationTicks": 455,
          "midi": 67,
          "name": "G4",
          "ticks": 179040,
          "time": 348.571453,
          "velocity": 0.5905511811023622
        },
        {
          "duration": 0.13452391041664669,
          "durationTicks": 113,
          "midi": 62,
          "name": "D4",
          "ticks": 179280,
          "time": 348.8571675,
          "velocity": 0.5905511811023622
        },
        {
          "duration": 0.13452391041664669,
          "durationTicks": 113,
          "midi": 64,
          "name": "E4",
          "ticks": 179400,
          "time": 349.00002475,
          "velocity": 0.5905511811023622
        },
        {
          "duration": 0.27023829791664866,
          "durationTicks": 227,
          "midi": 65,
          "name": "F4",
          "ticks": 179520,
          "time": 349.142882,
          "velocity": 0.5905511811023622
        },
        {
          "duration": 0.13452391041664669,
          "durationTicks": 113,
          "midi": 65,
          "name": "F4",
          "ticks": 179760,
          "time": 349.4285965,
          "velocity": 0.5905511811023622
        },
        {
          "duration": 0.13452391041670353,
          "durationTicks": 113,
          "midi": 67,
          "name": "G4",
          "ticks": 179880,
          "time": 349.57145375,
          "velocity": 0.5905511811023622
        },
        {
          "duration": 0.27023829791664866,
          "durationTicks": 227,
          "midi": 69,
          "name": "A4",
          "ticks": 180000,
          "time": 349.714311,
          "velocity": 0.5905511811023622
        },
        {
          "duration": 0.13452391041664669,
          "durationTicks": 113,
          "midi": 69,
          "name": "A4",
          "ticks": 180240,
          "time": 350.0000255,
          "velocity": 0.5905511811023622
        },
        {
          "duration": 0.13452391041664669,
          "durationTicks": 113,
          "midi": 71,
          "name": "B4",
          "ticks": 180360,
          "time": 350.14288275,
          "velocity": 0.5905511811023622
        },
        {
          "duration": 1.1428580000000466,
          "durationTicks": 960,
          "midi": 72,
          "name": "C5",
          "ticks": 180480,
          "time": 350.28574,
          "velocity": 0.5905511811023622
        },
        {
          "duration": 0.13452391041664669,
          "durationTicks": 113,
          "midi": 67,
          "name": "G4",
          "ticks": 180600,
          "time": 350.42859725,
          "velocity": 0.5905511811023622
        },
        {
          "duration": 0.13452391041664669,
          "durationTicks": 113,
          "midi": 69,
          "name": "A4",
          "ticks": 180720,
          "time": 350.5714545,
          "velocity": 0.5905511811023622
        },
        {
          "duration": 0.13452391041670353,
          "durationTicks": 113,
          "midi": 70,
          "name": "A#4",
          "ticks": 180840,
          "time": 350.71431175,
          "velocity": 0.5905511811023622
        },
        {
          "duration": 0.13452391041664669,
          "durationTicks": 113,
          "midi": 69,
          "name": "A4",
          "ticks": 180960,
          "time": 350.857169,
          "velocity": 0.5905511811023622
        },
        {
          "duration": 0.13452391041664669,
          "durationTicks": 113,
          "midi": 70,
          "name": "A#4",
          "ticks": 181080,
          "time": 351.00002625,
          "velocity": 0.5905511811023622
        },
        {
          "duration": 0.13452391041670353,
          "durationTicks": 113,
          "midi": 69,
          "name": "A4",
          "ticks": 181200,
          "time": 351.1428835,
          "velocity": 0.5905511811023622
        },
        {
          "duration": 0.13452391041664669,
          "durationTicks": 113,
          "midi": 67,
          "name": "G4",
          "ticks": 181320,
          "time": 351.28574075,
          "velocity": 0.5905511811023622
        },
        {
          "duration": 0.13452391041664669,
          "durationTicks": 113,
          "midi": 69,
          "name": "A4",
          "ticks": 181440,
          "time": 351.428598,
          "velocity": 0.5905511811023622
        },
        {
          "duration": 0.5416670729166526,
          "durationTicks": 455,
          "midi": 72,
          "name": "C5",
          "ticks": 181440,
          "time": 351.428598,
          "velocity": 0.5905511811023622
        },
        {
          "duration": 0.13452391041664669,
          "durationTicks": 113,
          "midi": 66,
          "name": "F#4",
          "ticks": 181560,
          "time": 351.57145525,
          "velocity": 0.5905511811023622
        },
        {
          "duration": 0.13452391041664669,
          "durationTicks": 113,
          "midi": 67,
          "name": "G4",
          "ticks": 181680,
          "time": 351.7143125,
          "velocity": 0.5905511811023622
        },
        {
          "duration": 0.13452391041664669,
          "durationTicks": 113,
          "midi": 69,
          "name": "A4",
          "ticks": 181800,
          "time": 351.85716975,
          "velocity": 0.5905511811023622
        },
        {
          "duration": 0.5416670729166526,
          "durationTicks": 455,
          "midi": 62,
          "name": "D4",
          "ticks": 181920,
          "time": 352.000027,
          "velocity": 0.5905511811023622
        },
        {
          "duration": 0.13452391041670353,
          "durationTicks": 113,
          "midi": 74,
          "name": "D5",
          "ticks": 182160,
          "time": 352.2857415,
          "velocity": 0.5905511811023622
        },
        {
          "duration": 0.13452391041664669,
          "durationTicks": 113,
          "midi": 72,
          "name": "C5",
          "ticks": 182280,
          "time": 352.42859875,
          "velocity": 0.5905511811023622
        },
        {
          "duration": 1.0845246229166605,
          "durationTicks": 911,
          "midi": 74,
          "name": "D5",
          "ticks": 182400,
          "time": 352.571456,
          "velocity": 0.5905511811023622
        },
        {
          "duration": 0.27023829791664866,
          "durationTicks": 227,
          "midi": 70,
          "name": "A#4",
          "ticks": 182400,
          "time": 352.571456,
          "velocity": 0.5905511811023622
        },
        {
          "duration": 0.13452391041664669,
          "durationTicks": 113,
          "midi": 70,
          "name": "A#4",
          "ticks": 182640,
          "time": 352.8571705,
          "velocity": 0.5905511811023622
        },
        {
          "duration": 0.13452391041664669,
          "durationTicks": 113,
          "midi": 69,
          "name": "A4",
          "ticks": 182760,
          "time": 353.00002775,
          "velocity": 0.5905511811023622
        },
        {
          "duration": 0.2702382979167055,
          "durationTicks": 227,
          "midi": 67,
          "name": "G4",
          "ticks": 182880,
          "time": 353.142885,
          "velocity": 0.5905511811023622
        },
        {
          "duration": 0.13452391041664669,
          "durationTicks": 113,
          "midi": 65,
          "name": "F4",
          "ticks": 183120,
          "time": 353.4285995,
          "velocity": 0.5905511811023622
        },
        {
          "duration": 0.13452391041670353,
          "durationTicks": 113,
          "midi": 64,
          "name": "E4",
          "ticks": 183240,
          "time": 353.57145675,
          "velocity": 0.5905511811023622
        },
        {
          "duration": 1.6273821729166684,
          "durationTicks": 1367,
          "midi": 76,
          "name": "E5",
          "ticks": 183360,
          "time": 353.714314,
          "velocity": 0.5905511811023622
        },
        {
          "duration": 0.06547623958334725,
          "durationTicks": 55,
          "midi": 73,
          "name": "C#5",
          "ticks": 183360,
          "time": 353.714314,
          "velocity": 0.5905511811023622
        },
        {
          "duration": 0.06547623958329041,
          "durationTicks": 55,
          "midi": 74,
          "name": "D5",
          "ticks": 183420,
          "time": 353.785742625,
          "velocity": 0.5905511811023622
        },
        {
          "duration": 0.06547623958329041,
          "durationTicks": 55,
          "midi": 73,
          "name": "C#5",
          "ticks": 183480,
          "time": 353.85717125,
          "velocity": 0.5905511811023622
        },
        {
          "duration": 0.06547623958334725,
          "durationTicks": 55,
          "midi": 74,
          "name": "D5",
          "ticks": 183540,
          "time": 353.928599875,
          "velocity": 0.5905511811023622
        },
        {
          "duration": 0.06547623958334725,
          "durationTicks": 55,
          "midi": 73,
          "name": "C#5",
          "ticks": 183600,
          "time": 354.0000285,
          "velocity": 0.5905511811023622
        },
        {
          "duration": 0.06547623958334725,
          "durationTicks": 55,
          "midi": 74,
          "name": "D5",
          "ticks": 183660,
          "time": 354.071457125,
          "velocity": 0.5905511811023622
        },
        {
          "duration": 0.06547623958334725,
          "durationTicks": 55,
          "midi": 73,
          "name": "C#5",
          "ticks": 183720,
          "time": 354.14288575,
          "velocity": 0.5905511811023622
        },
        {
          "duration": 0.06547623958329041,
          "durationTicks": 55,
          "midi": 74,
          "name": "D5",
          "ticks": 183780,
          "time": 354.214314375,
          "velocity": 0.5905511811023622
        },
        {
          "duration": 0.06547623958329041,
          "durationTicks": 55,
          "midi": 73,
          "name": "C#5",
          "ticks": 183840,
          "time": 354.285743,
          "velocity": 0.5905511811023622
        },
        {
          "duration": 0.06547623958334725,
          "durationTicks": 55,
          "midi": 74,
          "name": "D5",
          "ticks": 183900,
          "time": 354.357171625,
          "velocity": 0.5905511811023622
        },
        {
          "duration": 0.06547623958334725,
          "durationTicks": 55,
          "midi": 73,
          "name": "C#5",
          "ticks": 183960,
          "time": 354.42860025,
          "velocity": 0.5905511811023622
        },
        {
          "duration": 0.06547623958334725,
          "durationTicks": 55,
          "midi": 74,
          "name": "D5",
          "ticks": 184020,
          "time": 354.500028875,
          "velocity": 0.5905511811023622
        },
        {
          "duration": 0.06547623958334725,
          "durationTicks": 55,
          "midi": 73,
          "name": "C#5",
          "ticks": 184080,
          "time": 354.5714575,
          "velocity": 0.5905511811023622
        },
        {
          "duration": 0.06547623958329041,
          "durationTicks": 55,
          "midi": 74,
          "name": "D5",
          "ticks": 184140,
          "time": 354.642886125,
          "velocity": 0.5905511811023622
        },
        {
          "duration": 0.06547623958334725,
          "durationTicks": 55,
          "midi": 73,
          "name": "C#5",
          "ticks": 184200,
          "time": 354.71431474999997,
          "velocity": 0.5905511811023622
        },
        {
          "duration": 0.06547623958334725,
          "durationTicks": 55,
          "midi": 74,
          "name": "D5",
          "ticks": 184260,
          "time": 354.785743375,
          "velocity": 0.5905511811023622
        },
        {
          "duration": 0.06547623958334725,
          "durationTicks": 55,
          "midi": 73,
          "name": "C#5",
          "ticks": 184320,
          "time": 354.857172,
          "velocity": 0.5905511811023622
        },
        {
          "duration": 0.06547623958334725,
          "durationTicks": 55,
          "midi": 74,
          "name": "D5",
          "ticks": 184380,
          "time": 354.928600625,
          "velocity": 0.5905511811023622
        },
        {
          "duration": 0.06547623958329041,
          "durationTicks": 55,
          "midi": 73,
          "name": "C#5",
          "ticks": 184440,
          "time": 355.00002925,
          "velocity": 0.5905511811023622
        },
        {
          "duration": 0.06547623958329041,
          "durationTicks": 55,
          "midi": 74,
          "name": "D5",
          "ticks": 184500,
          "time": 355.071457875,
          "velocity": 0.5905511811023622
        },
        {
          "duration": 0.06547623958334725,
          "durationTicks": 55,
          "midi": 73,
          "name": "C#5",
          "ticks": 184560,
          "time": 355.1428865,
          "velocity": 0.5905511811023622
        },
        {
          "duration": 0.06547623958334725,
          "durationTicks": 55,
          "midi": 74,
          "name": "D5",
          "ticks": 184620,
          "time": 355.214315125,
          "velocity": 0.5905511811023622
        },
        {
          "duration": 0.06547623958334725,
          "durationTicks": 55,
          "midi": 73,
          "name": "C#5",
          "ticks": 184680,
          "time": 355.28574375,
          "velocity": 0.5905511811023622
        },
        {
          "duration": 0.06547623958334725,
          "durationTicks": 55,
          "midi": 74,
          "name": "D5",
          "ticks": 184740,
          "time": 355.357172375,
          "velocity": 0.5905511811023622
        },
        {
          "duration": 0.13452391041664669,
          "durationTicks": 113,
          "midi": 77,
          "name": "F5",
          "ticks": 184800,
          "time": 355.428601,
          "velocity": 0.5905511811023622
        },
        {
          "duration": 1.1428579999999897,
          "durationTicks": 960,
          "midi": 74,
          "name": "D5",
          "ticks": 184800,
          "time": 355.428601,
          "velocity": 0.5905511811023622
        },
        {
          "duration": 0.13452391041670353,
          "durationTicks": 113,
          "midi": 81,
          "name": "A5",
          "ticks": 184920,
          "time": 355.57145825,
          "velocity": 0.5905511811023622
        },
        {
          "duration": 0.13452391041664669,
          "durationTicks": 113,
          "midi": 79,
          "name": "G5",
          "ticks": 185040,
          "time": 355.7143155,
          "velocity": 0.5905511811023622
        },
        {
          "duration": 0.13452391041664669,
          "durationTicks": 113,
          "midi": 77,
          "name": "F5",
          "ticks": 185160,
          "time": 355.85717275,
          "velocity": 0.5905511811023622
        },
        {
          "duration": 0.13452391041670353,
          "durationTicks": 113,
          "midi": 76,
          "name": "E5",
          "ticks": 185280,
          "time": 356.00003,
          "velocity": 0.5905511811023622
        },
        {
          "duration": 0.13452391041664669,
          "durationTicks": 113,
          "midi": 77,
          "name": "F5",
          "ticks": 185400,
          "time": 356.14288725,
          "velocity": 0.5905511811023622
        },
        {
          "duration": 0.13452391041664669,
          "durationTicks": 113,
          "midi": 76,
          "name": "E5",
          "ticks": 185520,
          "time": 356.2857445,
          "velocity": 0.5905511811023622
        },
        {
          "duration": 0.13452391041670353,
          "durationTicks": 113,
          "midi": 77,
          "name": "F5",
          "ticks": 185640,
          "time": 356.42860175,
          "velocity": 0.5905511811023622
        },
        {
          "duration": 0.06547623958334725,
          "durationTicks": 55,
          "midi": 77,
          "name": "F5",
          "ticks": 185760,
          "time": 356.571459,
          "velocity": 0.5905511811023622
        },
        {
          "duration": 0.5416670729166526,
          "durationTicks": 455,
          "midi": 74,
          "name": "D5",
          "ticks": 185760,
          "time": 356.571459,
          "velocity": 0.5905511811023622
        },
        {
          "duration": 0.06547623958334725,
          "durationTicks": 55,
          "midi": 79,
          "name": "G5",
          "ticks": 185819,
          "time": 356.64169714791666,
          "velocity": 0.5905511811023622
        },
        {
          "duration": 0.06547623958334725,
          "durationTicks": 55,
          "midi": 77,
          "name": "F5",
          "ticks": 185879,
          "time": 356.71312577291667,
          "velocity": 0.5905511811023622
        },
        {
          "duration": 0.06547623958334725,
          "durationTicks": 55,
          "midi": 79,
          "name": "G5",
          "ticks": 185940,
          "time": 356.785744875,
          "velocity": 0.5905511811023622
        },
        {
          "duration": 0.06547623958329041,
          "durationTicks": 55,
          "midi": 77,
          "name": "F5",
          "ticks": 185999,
          "time": 356.8559830229167,
          "velocity": 0.5905511811023622
        },
        {
          "duration": 0.06547623958334725,
          "durationTicks": 55,
          "midi": 79,
          "name": "G5",
          "ticks": 186059,
          "time": 356.92741164791664,
          "velocity": 0.5905511811023622
        },
        {
          "duration": 0.0666667166666457,
          "durationTicks": 56,
          "midi": 76,
          "name": "E5",
          "ticks": 186120,
          "time": 357.00003075,
          "velocity": 0.5905511811023622
        },
        {
          "duration": 0.0666667166666457,
          "durationTicks": 56,
          "midi": 77,
          "name": "F5",
          "ticks": 186180,
          "time": 357.071459375,
          "velocity": 0.5905511811023622
        },
        {
          "duration": 0.5416670729167095,
          "durationTicks": 455,
          "midi": 79,
          "name": "G5",
          "ticks": 186240,
          "time": 357.14288799999997,
          "velocity": 0.5905511811023622
        },
        {
          "duration": 0.13452391041664669,
          "durationTicks": 113,
          "midi": 76,
          "name": "E5",
          "ticks": 186480,
          "time": 357.4286025,
          "velocity": 0.5905511811023622
        },
        {
          "duration": 0.13452391041670353,
          "durationTicks": 113,
          "midi": 74,
          "name": "D5",
          "ticks": 186600,
          "time": 357.57145975,
          "velocity": 0.5905511811023622
        },
        {
          "duration": 0.5714290000000233,
          "durationTicks": 480,
          "midi": 76,
          "name": "E5",
          "ticks": 186720,
          "time": 357.714317,
          "velocity": 0.5905511811023622
        },
        {
          "duration": 0.27023829791664866,
          "durationTicks": 227,
          "midi": 73,
          "name": "C#5",
          "ticks": 186720,
          "time": 357.714317,
          "velocity": 0.5905511811023622
        },
        {
          "duration": 0.13452391041670353,
          "durationTicks": 113,
          "midi": 73,
          "name": "C#5",
          "ticks": 186960,
          "time": 358.0000315,
          "velocity": 0.5905511811023622
        },
        {
          "duration": 0.13452391041664669,
          "durationTicks": 113,
          "midi": 71,
          "name": "B4",
          "ticks": 187080,
          "time": 358.14288875,
          "velocity": 0.5905511811023622
        },
        {
          "duration": 0.5416670729166526,
          "durationTicks": 455,
          "midi": 76,
          "name": "E5",
          "ticks": 187200,
          "time": 358.285746,
          "velocity": 0.5905511811023622
        },
        {
          "duration": 0.27023829791664866,
          "durationTicks": 227,
          "midi": 69,
          "name": "A4",
          "ticks": 187200,
          "time": 358.285746,
          "velocity": 0.5905511811023622
        },
        {
          "duration": 0.13452391041664669,
          "durationTicks": 113,
          "midi": 69,
          "name": "A4",
          "ticks": 187440,
          "time": 358.5714605,
          "velocity": 0.5905511811023622
        },
        {
          "duration": 0.13452391041664669,
          "durationTicks": 113,
          "midi": 67,
          "name": "G4",
          "ticks": 187560,
          "time": 358.71431775,
          "velocity": 0.5905511811023622
        },
        {
          "duration": 1.1428579999999897,
          "durationTicks": 960,
          "midi": 65,
          "name": "F4",
          "ticks": 187680,
          "time": 358.857175,
          "velocity": 0.5905511811023622
        },
        {
          "duration": 0.13452391041664669,
          "durationTicks": 113,
          "midi": 77,
          "name": "F5",
          "ticks": 187920,
          "time": 359.1428895,
          "velocity": 0.5905511811023622
        },
        {
          "duration": 0.13452391041670353,
          "durationTicks": 113,
          "midi": 76,
          "name": "E5",
          "ticks": 188040,
          "time": 359.28574675,
          "velocity": 0.5905511811023622
        },
        {
          "duration": 0.27023829791664866,
          "durationTicks": 227,
          "midi": 74,
          "name": "D5",
          "ticks": 188160,
          "time": 359.428604,
          "velocity": 0.5905511811023622
        },
        {
          "duration": 0.13452391041664669,
          "durationTicks": 113,
          "midi": 74,
          "name": "D5",
          "ticks": 188400,
          "time": 359.7143185,
          "velocity": 0.5905511811023622
        },
        {
          "duration": 0.13452391041664669,
          "durationTicks": 113,
          "midi": 72,
          "name": "C5",
          "ticks": 188520,
          "time": 359.85717575,
          "velocity": 0.5905511811023622
        },
        {
          "duration": 0.2702382979167055,
          "durationTicks": 227,
          "midi": 70,
          "name": "A#4",
          "ticks": 188640,
          "time": 360.000033,
          "velocity": 0.5905511811023622
        },
        {
          "duration": 0.5416670729167095,
          "durationTicks": 455,
          "midi": 65,
          "name": "F4",
          "ticks": 188640,
          "time": 360.000033,
          "velocity": 0.5905511811023622
        },
        {
          "duration": 0.13452391041664669,
          "durationTicks": 113,
          "midi": 70,
          "name": "A#4",
          "ticks": 188880,
          "time": 360.2857475,
          "velocity": 0.5905511811023622
        },
        {
          "duration": 0.13452391041670353,
          "durationTicks": 113,
          "midi": 69,
          "name": "A4",
          "ticks": 189000,
          "time": 360.42860475,
          "velocity": 0.5905511811023622
        },
        {
          "duration": 1.0845246229166605,
          "durationTicks": 911,
          "midi": 67,
          "name": "G4",
          "ticks": 189120,
          "time": 360.571462,
          "velocity": 0.5905511811023622
        },
        {
          "duration": 0.2702382979167055,
          "durationTicks": 227,
          "midi": 59,
          "name": "B3",
          "ticks": 189360,
          "time": 360.8571765,
          "velocity": 0.5905511811023622
        },
        {
          "duration": 0.27023829791664866,
          "durationTicks": 227,
          "midi": 60,
          "name": "C4",
          "ticks": 189600,
          "time": 361.142891,
          "velocity": 0.5905511811023622
        },
        {
          "duration": 0.27023829791664866,
          "durationTicks": 227,
          "midi": 62,
          "name": "D4",
          "ticks": 189840,
          "time": 361.4286055,
          "velocity": 0.5905511811023622
        },
        {
          "duration": 0.8130958479166566,
          "durationTicks": 683,
          "midi": 64,
          "name": "E4",
          "ticks": 190080,
          "time": 361.71432,
          "velocity": 0.5905511811023622
        },
        {
          "duration": 0.2702382979167055,
          "durationTicks": 227,
          "midi": 67,
          "name": "G4",
          "ticks": 190320,
          "time": 362.00003449999997,
          "velocity": 0.5905511811023622
        },
        {
          "duration": 1.0845246229166605,
          "durationTicks": 911,
          "midi": 72,
          "name": "C5",
          "ticks": 190560,
          "time": 362.285749,
          "velocity": 0.5905511811023622
        },
        {
          "duration": 0.27023829791664866,
          "durationTicks": 227,
          "midi": 64,
          "name": "E4",
          "ticks": 190800,
          "time": 362.5714635,
          "velocity": 0.5905511811023622
        },
        {
          "duration": 0.2702382979167055,
          "durationTicks": 227,
          "midi": 65,
          "name": "F4",
          "ticks": 191040,
          "time": 362.857178,
          "velocity": 0.5905511811023622
        },
        {
          "duration": 0.27023829791664866,
          "durationTicks": 227,
          "midi": 67,
          "name": "G4",
          "ticks": 191280,
          "time": 363.1428925,
          "velocity": 0.5905511811023622
        },
        {
          "duration": 0.8130958479166566,
          "durationTicks": 683,
          "midi": 69,
          "name": "A4",
          "ticks": 191520,
          "time": 363.428607,
          "velocity": 0.5905511811023622
        },
        {
          "duration": 0.27023829791664866,
          "durationTicks": 227,
          "midi": 72,
          "name": "C5",
          "ticks": 191760,
          "time": 363.7143215,
          "velocity": 0.5905511811023622
        },
        {
          "duration": 1.0845246229166605,
          "durationTicks": 911,
          "midi": 77,
          "name": "F5",
          "ticks": 192000,
          "time": 364.000036,
          "velocity": 0.5905511811023622
        },
        {
          "duration": 0.27023829791664866,
          "durationTicks": 227,
          "midi": 69,
          "name": "A4",
          "ticks": 192240,
          "time": 364.2857505,
          "velocity": 0.5905511811023622
        },
        {
          "duration": 0.27023829791664866,
          "durationTicks": 227,
          "midi": 70,
          "name": "A#4",
          "ticks": 192480,
          "time": 364.571465,
          "velocity": 0.5905511811023622
        },
        {
          "duration": 0.2702382979167055,
          "durationTicks": 227,
          "midi": 72,
          "name": "C5",
          "ticks": 192720,
          "time": 364.8571795,
          "velocity": 0.5905511811023622
        },
        {
          "duration": 0.8130958479166566,
          "durationTicks": 683,
          "midi": 74,
          "name": "D5",
          "ticks": 192960,
          "time": 365.142894,
          "velocity": 0.5905511811023622
        },
        {
          "duration": 0.27023829791664866,
          "durationTicks": 227,
          "midi": 77,
          "name": "F5",
          "ticks": 193200,
          "time": 365.4286085,
          "velocity": 0.5905511811023622
        },
        {
          "duration": 1.1428579999999897,
          "durationTicks": 960,
          "midi": 82,
          "name": "A#5",
          "ticks": 193440,
          "time": 365.714323,
          "velocity": 0.5905511811023622
        },
        {
          "duration": 0.27023829791664866,
          "durationTicks": 227,
          "midi": 74,
          "name": "D5",
          "ticks": 193680,
          "time": 366.0000375,
          "velocity": 0.5905511811023622
        },
        {
          "duration": 0.27023829791664866,
          "durationTicks": 227,
          "midi": 76,
          "name": "E5",
          "ticks": 193920,
          "time": 366.285752,
          "velocity": 0.5905511811023622
        },
        {
          "duration": 0.2702382979167055,
          "durationTicks": 227,
          "midi": 77,
          "name": "F5",
          "ticks": 194160,
          "time": 366.5714665,
          "velocity": 0.5905511811023622
        },
        {
          "duration": 0.5416670729167095,
          "durationTicks": 455,
          "midi": 82,
          "name": "A#5",
          "ticks": 194400,
          "time": 366.85718099999997,
          "velocity": 0.5905511811023622
        },
        {
          "duration": 0.2702382979167055,
          "durationTicks": 227,
          "midi": 79,
          "name": "G5",
          "ticks": 194400,
          "time": 366.85718099999997,
          "velocity": 0.5905511811023622
        },
        {
          "duration": 0.27023829791664866,
          "durationTicks": 227,
          "midi": 77,
          "name": "F5",
          "ticks": 194640,
          "time": 367.1428955,
          "velocity": 0.5905511811023622
        },
        {
          "duration": 0.5416670729166526,
          "durationTicks": 455,
          "midi": 76,
          "name": "E5",
          "ticks": 194880,
          "time": 367.42861,
          "velocity": 0.5905511811023622
        },
        {
          "duration": 0.13452391041670353,
          "durationTicks": 113,
          "midi": 84,
          "name": "C6",
          "ticks": 195120,
          "time": 367.7143245,
          "velocity": 0.5905511811023622
        },
        {
          "duration": 0.13452391041664669,
          "durationTicks": 113,
          "midi": 82,
          "name": "A#5",
          "ticks": 195240,
          "time": 367.85718175,
          "velocity": 0.5905511811023622
        },
        {
          "duration": 0.27023829791664866,
          "durationTicks": 227,
          "midi": 81,
          "name": "A5",
          "ticks": 195360,
          "time": 368.000039,
          "velocity": 0.5905511811023622
        },
        {
          "duration": 0.13452391041664669,
          "durationTicks": 113,
          "midi": 81,
          "name": "A5",
          "ticks": 195600,
          "time": 368.2857535,
          "velocity": 0.5905511811023622
        },
        {
          "duration": 0.13452391041664669,
          "durationTicks": 113,
          "midi": 79,
          "name": "G5",
          "ticks": 195720,
          "time": 368.42861075,
          "velocity": 0.5905511811023622
        },
        {
          "duration": 0.27023829791664866,
          "durationTicks": 227,
          "midi": 77,
          "name": "F5",
          "ticks": 195840,
          "time": 368.571468,
          "velocity": 0.5905511811023622
        },
        {
          "duration": 0.13452391041664669,
          "durationTicks": 113,
          "midi": 77,
          "name": "F5",
          "ticks": 196080,
          "time": 368.8571825,
          "velocity": 0.5905511811023622
        },
        {
          "duration": 0.13452391041670353,
          "durationTicks": 113,
          "midi": 75,
          "name": "D#5",
          "ticks": 196200,
          "time": 369.00003975,
          "velocity": 0.5905511811023622
        },
        {
          "duration": 0.27023829791664866,
          "durationTicks": 227,
          "midi": 74,
          "name": "D5",
          "ticks": 196320,
          "time": 369.142897,
          "velocity": 0.5905511811023622
        },
        {
          "duration": 0.13452391041664669,
          "durationTicks": 113,
          "midi": 77,
          "name": "F5",
          "ticks": 196560,
          "time": 369.4286115,
          "velocity": 0.5905511811023622
        },
        {
          "duration": 0.13452391041664669,
          "durationTicks": 113,
          "midi": 75,
          "name": "D#5",
          "ticks": 196680,
          "time": 369.57146875,
          "velocity": 0.5905511811023622
        },
        {
          "duration": 0.27023829791664866,
          "durationTicks": 227,
          "midi": 74,
          "name": "D5",
          "ticks": 196800,
          "time": 369.714326,
          "velocity": 0.5905511811023622
        },
        {
          "duration": 0.13452391041664669,
          "durationTicks": 113,
          "midi": 74,
          "name": "D5",
          "ticks": 197040,
          "time": 370.0000405,
          "velocity": 0.5905511811023622
        },
        {
          "duration": 0.13452391041670353,
          "durationTicks": 113,
          "midi": 72,
          "name": "C5",
          "ticks": 197160,
          "time": 370.14289775,
          "velocity": 0.5905511811023622
        },
        {
          "duration": 0.27023829791664866,
          "durationTicks": 227,
          "midi": 70,
          "name": "A#4",
          "ticks": 197280,
          "time": 370.285755,
          "velocity": 0.5905511811023622
        },
        {
          "duration": 0.13452391041670353,
          "durationTicks": 113,
          "midi": 70,
          "name": "A#4",
          "ticks": 197520,
          "time": 370.5714695,
          "velocity": 0.5905511811023622
        },
        {
          "duration": 0.13452391041664669,
          "durationTicks": 113,
          "midi": 69,
          "name": "A4",
          "ticks": 197640,
          "time": 370.71432675,
          "velocity": 0.5905511811023622
        },
        {
          "duration": 0.27023829791664866,
          "durationTicks": 227,
          "midi": 67,
          "name": "G4",
          "ticks": 197760,
          "time": 370.857184,
          "velocity": 0.5905511811023622
        },
        {
          "duration": 0.13452391041664669,
          "durationTicks": 113,
          "midi": 74,
          "name": "D5",
          "ticks": 198000,
          "time": 371.1428985,
          "velocity": 0.5905511811023622
        },
        {
          "duration": 0.13452391041664669,
          "durationTicks": 113,
          "midi": 72,
          "name": "C5",
          "ticks": 198120,
          "time": 371.28575575,
          "velocity": 0.5905511811023622
        },
        {
          "duration": 0.2702382979167055,
          "durationTicks": 227,
          "midi": 70,
          "name": "A#4",
          "ticks": 198240,
          "time": 371.428613,
          "velocity": 0.5905511811023622
        },
        {
          "duration": 0.13452391041670353,
          "durationTicks": 113,
          "midi": 70,
          "name": "A#4",
          "ticks": 198480,
          "time": 371.71432749999997,
          "velocity": 0.5905511811023622
        },
        {
          "duration": 0.13452391041664669,
          "durationTicks": 113,
          "midi": 69,
          "name": "A4",
          "ticks": 198600,
          "time": 371.85718475,
          "velocity": 0.5905511811023622
        },
        {
          "duration": 0.27023829791664866,
          "durationTicks": 227,
          "midi": 67,
          "name": "G4",
          "ticks": 198720,
          "time": 372.000042,
          "velocity": 0.5905511811023622
        },
        {
          "duration": 0.13452391041670353,
          "durationTicks": 113,
          "midi": 67,
          "name": "G4",
          "ticks": 198960,
          "time": 372.2857565,
          "velocity": 0.5905511811023622
        },
        {
          "duration": 0.13452391041664669,
          "durationTicks": 113,
          "midi": 65,
          "name": "F4",
          "ticks": 199080,
          "time": 372.42861375,
          "velocity": 0.5905511811023622
        },
        {
          "duration": 0.13452391041670353,
          "durationTicks": 113,
          "midi": 64,
          "name": "E4",
          "ticks": 199200,
          "time": 372.571471,
          "velocity": 0.5905511811023622
        },
        {
          "duration": 0.13452391041664669,
          "durationTicks": 113,
          "midi": 60,
          "name": "C4",
          "ticks": 199320,
          "time": 372.71432825,
          "velocity": 0.5905511811023622
        },
        {
          "duration": 0.13452391041664669,
          "durationTicks": 113,
          "midi": 62,
          "name": "D4",
          "ticks": 199440,
          "time": 372.8571855,
          "velocity": 0.5905511811023622
        },
        {
          "duration": 0.13452391041670353,
          "durationTicks": 113,
          "midi": 64,
          "name": "E4",
          "ticks": 199560,
          "time": 373.00004275,
          "velocity": 0.5905511811023622
        },
        {
          "duration": 0.13452391041664669,
          "durationTicks": 113,
          "midi": 65,
          "name": "F4",
          "ticks": 199680,
          "time": 373.1429,
          "velocity": 0.5905511811023622
        },
        {
          "duration": 0.13452391041664669,
          "durationTicks": 113,
          "midi": 67,
          "name": "G4",
          "ticks": 199800,
          "time": 373.28575725,
          "velocity": 0.5905511811023622
        },
        {
          "duration": 0.13452391041670353,
          "durationTicks": 113,
          "midi": 69,
          "name": "A4",
          "ticks": 199920,
          "time": 373.4286145,
          "velocity": 0.5905511811023622
        },
        {
          "duration": 0.13452391041664669,
          "durationTicks": 113,
          "midi": 70,
          "name": "A#4",
          "ticks": 200040,
          "time": 373.57147175,
          "velocity": 0.5905511811023622
        },
        {
          "duration": 0.13452391041664669,
          "durationTicks": 113,
          "midi": 72,
          "name": "C5",
          "ticks": 200160,
          "time": 373.714329,
          "velocity": 0.5905511811023622
        },
        {
          "duration": 0.13452391041670353,
          "durationTicks": 113,
          "midi": 70,
          "name": "A#4",
          "ticks": 200280,
          "time": 373.85718625,
          "velocity": 0.5905511811023622
        },
        {
          "duration": 0.13452391041664669,
          "durationTicks": 113,
          "midi": 74,
          "name": "D5",
          "ticks": 200400,
          "time": 374.0000435,
          "velocity": 0.5905511811023622
        },
        {
          "duration": 0.13452391041670353,
          "durationTicks": 113,
          "midi": 72,
          "name": "C5",
          "ticks": 200520,
          "time": 374.14290074999997,
          "velocity": 0.5905511811023622
        },
        {
          "duration": 0.13452391041664669,
          "durationTicks": 113,
          "midi": 72,
          "name": "C5",
          "ticks": 200640,
          "time": 374.285758,
          "velocity": 0.5905511811023622
        },
        {
          "duration": 0.13452391041664669,
          "durationTicks": 113,
          "midi": 70,
          "name": "A#4",
          "ticks": 200760,
          "time": 374.42861525,
          "velocity": 0.5905511811023622
        },
        {
          "duration": 0.13452391041664669,
          "durationTicks": 113,
          "midi": 72,
          "name": "C5",
          "ticks": 200880,
          "time": 374.5714725,
          "velocity": 0.5905511811023622
        },
        {
          "duration": 0.13452391041670353,
          "durationTicks": 113,
          "midi": 74,
          "name": "D5",
          "ticks": 201000,
          "time": 374.71432975,
          "velocity": 0.5905511811023622
        },
        {
          "duration": 0.06547623958334725,
          "durationTicks": 55,
          "midi": 67,
          "name": "G4",
          "ticks": 201120,
          "time": 374.857187,
          "velocity": 0.5905511811023622
        },
        {
          "duration": 0.06547623958329041,
          "durationTicks": 55,
          "midi": 69,
          "name": "A4",
          "ticks": 201180,
          "time": 374.928615625,
          "velocity": 0.5905511811023622
        },
        {
          "duration": 0.06547623958334725,
          "durationTicks": 55,
          "midi": 67,
          "name": "G4",
          "ticks": 201240,
          "time": 375.00004425,
          "velocity": 0.5905511811023622
        },
        {
          "duration": 0.06547623958334725,
          "durationTicks": 55,
          "midi": 69,
          "name": "A4",
          "ticks": 201300,
          "time": 375.071472875,
          "velocity": 0.5905511811023622
        },
        {
          "duration": 0.06547623958334725,
          "durationTicks": 55,
          "midi": 67,
          "name": "G4",
          "ticks": 201360,
          "time": 375.1429015,
          "velocity": 0.5905511811023622
        },
        {
          "duration": 0.06547623958334725,
          "durationTicks": 55,
          "midi": 69,
          "name": "A4",
          "ticks": 201420,
          "time": 375.214330125,
          "velocity": 0.5905511811023622
        },
        {
          "duration": 0.06547623958329041,
          "durationTicks": 55,
          "midi": 67,
          "name": "G4",
          "ticks": 201480,
          "time": 375.28575875,
          "velocity": 0.5905511811023622
        },
        {
          "duration": 0.06547623958334725,
          "durationTicks": 55,
          "midi": 69,
          "name": "A4",
          "ticks": 201540,
          "time": 375.35718737499997,
          "velocity": 0.5905511811023622
        },
        {
          "duration": 0.06547623958334725,
          "durationTicks": 55,
          "midi": 67,
          "name": "G4",
          "ticks": 201600,
          "time": 375.428616,
          "velocity": 0.5905511811023622
        },
        {
          "duration": 0.06547623958334725,
          "durationTicks": 55,
          "midi": 69,
          "name": "A4",
          "ticks": 201660,
          "time": 375.500044625,
          "velocity": 0.5905511811023622
        },
        {
          "duration": 0.06547623958334725,
          "durationTicks": 55,
          "midi": 67,
          "name": "G4",
          "ticks": 201720,
          "time": 375.57147325,
          "velocity": 0.5905511811023622
        },
        {
          "duration": 0.06547623958329041,
          "durationTicks": 55,
          "midi": 69,
          "name": "A4",
          "ticks": 201780,
          "time": 375.642901875,
          "velocity": 0.5905511811023622
        },
        {
          "duration": 0.13452391041664669,
          "durationTicks": 113,
          "midi": 65,
          "name": "F4",
          "ticks": 201840,
          "time": 375.7143305,
          "velocity": 0.5905511811023622
        },
        {
          "duration": 0.13452391041670353,
          "durationTicks": 113,
          "midi": 67,
          "name": "G4",
          "ticks": 201960,
          "time": 375.85718775,
          "velocity": 0.5905511811023622
        },
        {
          "duration": 1.1428579999999897,
          "durationTicks": 960,
          "midi": 65,
          "name": "F4",
          "ticks": 202080,
          "time": 376.000045,
          "velocity": 0.5905511811023622
        },
        {
          "duration": 0.5416670729166526,
          "durationTicks": 455,
          "midi": 65,
          "name": "F4",
          "ticks": 203040,
          "time": 377.142903,
          "velocity": 0.5905511811023622
        },
        {
          "duration": 0.5416670729166526,
          "durationTicks": 455,
          "midi": 60,
          "name": "C4",
          "ticks": 203520,
          "time": 377.714332,
          "velocity": 0.5905511811023622
        },
        {
          "duration": 0.13452391041670353,
          "durationTicks": 113,
          "midi": 65,
          "name": "F4",
          "ticks": 203640,
          "time": 377.85718925,
          "velocity": 0.5905511811023622
        },
        {
          "duration": 0.13452391041664669,
          "durationTicks": 113,
          "midi": 64,
          "name": "E4",
          "ticks": 203760,
          "time": 378.0000465,
          "velocity": 0.5905511811023622
        },
        {
          "duration": 0.13452391041664669,
          "durationTicks": 113,
          "midi": 62,
          "name": "D4",
          "ticks": 203880,
          "time": 378.14290375,
          "velocity": 0.5905511811023622
        },
        {
          "duration": 0.5416670729167095,
          "durationTicks": 455,
          "midi": 64,
          "name": "E4",
          "ticks": 204000,
          "time": 378.285761,
          "velocity": 0.5905511811023622
        },
        {
          "duration": 0.13452391041664669,
          "durationTicks": 113,
          "midi": 62,
          "name": "D4",
          "ticks": 204120,
          "time": 378.42861825,
          "velocity": 0.5905511811023622
        },
        {
          "duration": 0.13452391041664669,
          "durationTicks": 113,
          "midi": 60,
          "name": "C4",
          "ticks": 204240,
          "time": 378.5714755,
          "velocity": 0.5905511811023622
        },
        {
          "duration": 0.13452391041670353,
          "durationTicks": 113,
          "midi": 58,
          "name": "A#3",
          "ticks": 204360,
          "time": 378.71433275,
          "velocity": 0.5905511811023622
        },
        {
          "duration": 0.13452391041664669,
          "durationTicks": 113,
          "midi": 57,
          "name": "A3",
          "ticks": 204480,
          "time": 378.85719,
          "velocity": 0.5905511811023622
        },
        {
          "duration": 0.13452391041670353,
          "durationTicks": 113,
          "midi": 58,
          "name": "A#3",
          "ticks": 204600,
          "time": 379.00004724999997,
          "velocity": 0.5905511811023622
        },
        {
          "duration": 0.40595268541665064,
          "durationTicks": 341,
          "midi": 60,
          "name": "C4",
          "ticks": 204720,
          "time": 379.1429045,
          "velocity": 0.5905511811023622
        },
        {
          "duration": 0.13452391041664669,
          "durationTicks": 113,
          "midi": 66,
          "name": "F#4",
          "ticks": 204840,
          "time": 379.28576175,
          "velocity": 0.5905511811023622
        },
        {
          "duration": 0.6773814604166546,
          "durationTicks": 569,
          "midi": 67,
          "name": "G4",
          "ticks": 204960,
          "time": 379.428619,
          "velocity": 0.5905511811023622
        },
        {
          "duration": 0.13452391041670353,
          "durationTicks": 113,
          "midi": 60,
          "name": "C4",
          "ticks": 205080,
          "time": 379.57147625,
          "velocity": 0.5905511811023622
        },
        {
          "duration": 0.13452391041664669,
          "durationTicks": 113,
          "midi": 59,
          "name": "B3",
          "ticks": 205200,
          "time": 379.7143335,
          "velocity": 0.5905511811023622
        },
        {
          "duration": 0.13452391041670353,
          "durationTicks": 113,
          "midi": 57,
          "name": "A3",
          "ticks": 205320,
          "time": 379.85719075,
          "velocity": 0.5905511811023622
        },
        {
          "duration": 0.5416670729166526,
          "durationTicks": 455,
          "midi": 59,
          "name": "B3",
          "ticks": 205440,
          "time": 380.000048,
          "velocity": 0.5905511811023622
        },
        {
          "duration": 0.13452391041664669,
          "durationTicks": 113,
          "midi": 69,
          "name": "A4",
          "ticks": 205560,
          "time": 380.14290525,
          "velocity": 0.5905511811023622
        },
        {
          "duration": 0.13452391041670353,
          "durationTicks": 113,
          "midi": 67,
          "name": "G4",
          "ticks": 205680,
          "time": 380.2857625,
          "velocity": 0.5905511811023622
        },
        {
          "duration": 0.13452391041664669,
          "durationTicks": 113,
          "midi": 65,
          "name": "F4",
          "ticks": 205800,
          "time": 380.42861975,
          "velocity": 0.5905511811023622
        },
        {
          "duration": 0.13452391041664669,
          "durationTicks": 113,
          "midi": 64,
          "name": "E4",
          "ticks": 205920,
          "time": 380.571477,
          "velocity": 0.5905511811023622
        },
        {
          "duration": 0.13452391041670353,
          "durationTicks": 113,
          "midi": 69,
          "name": "A4",
          "ticks": 206040,
          "time": 380.71433425,
          "velocity": 0.5905511811023622
        },
        {
          "duration": 0.13452391041664669,
          "durationTicks": 113,
          "midi": 67,
          "name": "G4",
          "ticks": 206160,
          "time": 380.8571915,
          "velocity": 0.5905511811023622
        },
        {
          "duration": 0.27023829791664866,
          "durationTicks": 227,
          "midi": 61,
          "name": "C#4",
          "ticks": 206160,
          "time": 380.8571915,
          "velocity": 0.5905511811023622
        },
        {
          "duration": 0.13452391041664669,
          "durationTicks": 113,
          "midi": 69,
          "name": "A4",
          "ticks": 206280,
          "time": 381.00004875,
          "velocity": 0.5905511811023622
        },
        {
          "duration": 0.13452391041670353,
          "durationTicks": 113,
          "midi": 65,
          "name": "F4",
          "ticks": 206400,
          "time": 381.142906,
          "velocity": 0.5905511811023622
        },
        {
          "duration": 0.5416670729167095,
          "durationTicks": 455,
          "midi": 62,
          "name": "D4",
          "ticks": 206400,
          "time": 381.142906,
          "velocity": 0.5905511811023622
        },
        {
          "duration": 0.13452391041664669,
          "durationTicks": 113,
          "midi": 69,
          "name": "A4",
          "ticks": 206520,
          "time": 381.28576325,
          "velocity": 0.5905511811023622
        },
        {
          "duration": 0.13452391041670353,
          "durationTicks": 113,
          "midi": 71,
          "name": "B4",
          "ticks": 206640,
          "time": 381.42862049999997,
          "velocity": 0.5905511811023622
        },
        {
          "duration": 0.13452391041664669,
          "durationTicks": 113,
          "midi": 73,
          "name": "C#5",
          "ticks": 206760,
          "time": 381.57147775,
          "velocity": 0.5905511811023622
        },
        {
          "duration": 0.5714289999999664,
          "durationTicks": 480,
          "midi": 74,
          "name": "D5",
          "ticks": 206880,
          "time": 381.714335,
          "velocity": 0.5905511811023622
        },
        {
          "duration": 0.13452391041664669,
          "durationTicks": 113,
          "midi": 64,
          "name": "E4",
          "ticks": 207000,
          "time": 381.85719225,
          "velocity": 0.5905511811023622
        },
        {
          "duration": 0.13452391041670353,
          "durationTicks": 113,
          "midi": 62,
          "name": "D4",
          "ticks": 207120,
          "time": 382.0000495,
          "velocity": 0.5905511811023622
        },
        {
          "duration": 0.13452391041664669,
          "durationTicks": 113,
          "midi": 60,
          "name": "C4",
          "ticks": 207240,
          "time": 382.14290675,
          "velocity": 0.5905511811023622
        },
        {
          "duration": 0.5416670729167095,
          "durationTicks": 455,
          "midi": 74,
          "name": "D5",
          "ticks": 207360,
          "time": 382.285764,
          "velocity": 0.5905511811023622
        },
        {
          "duration": 0.13452391041670353,
          "durationTicks": 113,
          "midi": 59,
          "name": "B3",
          "ticks": 207360,
          "time": 382.285764,
          "velocity": 0.5905511811023622
        },
        {
          "duration": 0.13452391041664669,
          "durationTicks": 113,
          "midi": 64,
          "name": "E4",
          "ticks": 207480,
          "time": 382.42862125,
          "velocity": 0.5905511811023622
        },
        {
          "duration": 0.13452391041664669,
          "durationTicks": 113,
          "midi": 62,
          "name": "D4",
          "ticks": 207600,
          "time": 382.5714785,
          "velocity": 0.5905511811023622
        },
        {
          "duration": 0.13452391041670353,
          "durationTicks": 113,
          "midi": 64,
          "name": "E4",
          "ticks": 207720,
          "time": 382.71433575,
          "velocity": 0.5905511811023622
        },
        {
          "duration": 0,
          "durationTicks": 0,
          "midi": 57,
          "name": "A3",
          "ticks": 207840,
          "time": 382.857193,
          "velocity": 0.5905511811023622
        },
        {
          "duration": 0.13452391041664669,
          "durationTicks": 113,
          "midi": 74,
          "name": "D5",
          "ticks": 207960,
          "time": 383.00005025,
          "velocity": 0.5905511811023622
        },
        {
          "duration": 0.13452391041670353,
          "durationTicks": 113,
          "midi": 72,
          "name": "C5",
          "ticks": 208080,
          "time": 383.1429075,
          "velocity": 0.5905511811023622
        },
        {
          "duration": 0.27023829791664866,
          "durationTicks": 227,
          "midi": 64,
          "name": "E4",
          "ticks": 208080,
          "time": 383.1429075,
          "velocity": 0.5905511811023622
        },
        {
          "duration": 0.13452391041664669,
          "durationTicks": 113,
          "midi": 71,
          "name": "B4",
          "ticks": 208200,
          "time": 383.28576475,
          "velocity": 0.5905511811023622
        },
        {
          "duration": 0.5416670729166526,
          "durationTicks": 455,
          "midi": 72,
          "name": "C5",
          "ticks": 208320,
          "time": 383.428622,
          "velocity": 0.5905511811023622
        },
        {
          "duration": 0.5714289999999664,
          "durationTicks": 480,
          "midi": 69,
          "name": "A4",
          "ticks": 208320,
          "time": 383.428622,
          "velocity": 0.5905511811023622
        },
        {
          "duration": 1.6273821729166684,
          "durationTicks": 1367,
          "midi": 74,
          "name": "D5",
          "ticks": 208800,
          "time": 384.000051,
          "velocity": 0.5905511811023622
        },
        {
          "duration": 0.5416670729166526,
          "durationTicks": 455,
          "midi": 69,
          "name": "A4",
          "ticks": 208800,
          "time": 384.000051,
          "velocity": 0.5905511811023622
        },
        {
          "duration": 0.13452391041664669,
          "durationTicks": 113,
          "midi": 71,
          "name": "B4",
          "ticks": 209520,
          "time": 384.8571945,
          "velocity": 0.5905511811023622
        },
        {
          "duration": 0.13452391041664669,
          "durationTicks": 113,
          "midi": 69,
          "name": "A4",
          "ticks": 209640,
          "time": 385.00005175,
          "velocity": 0.5905511811023622
        },
        {
          "duration": 0.2702382979167055,
          "durationTicks": 227,
          "midi": 68,
          "name": "G#4",
          "ticks": 209760,
          "time": 385.142909,
          "velocity": 0.5905511811023622
        },
        {
          "duration": 0.13452391041664669,
          "durationTicks": 113,
          "midi": 68,
          "name": "G#4",
          "ticks": 210000,
          "time": 385.4286235,
          "velocity": 0.5905511811023622
        },
        {
          "duration": 0.13452391041670353,
          "durationTicks": 113,
          "midi": 66,
          "name": "F#4",
          "ticks": 210120,
          "time": 385.57148075,
          "velocity": 0.5905511811023622
        },
        {
          "duration": 1.0845246229166605,
          "durationTicks": 911,
          "midi": 64,
          "name": "E4",
          "ticks": 210240,
          "time": 385.714338,
          "velocity": 0.5905511811023622
        },
        {
          "duration": 0.2702382979167055,
          "durationTicks": 227,
          "midi": 74,
          "name": "D5",
          "ticks": 210480,
          "time": 386.0000525,
          "velocity": 0.5905511811023622
        },
        {
          "duration": 0.2702382979167055,
          "durationTicks": 227,
          "midi": 72,
          "name": "C5",
          "ticks": 210720,
          "time": 386.28576699999996,
          "velocity": 0.5905511811023622
        },
        {
          "duration": 0.13452391041664669,
          "durationTicks": 113,
          "midi": 76,
          "name": "E5",
          "ticks": 210960,
          "time": 386.5714815,
          "velocity": 0.5905511811023622
        },
        {
          "duration": 0.13452391041664669,
          "durationTicks": 113,
          "midi": 74,
          "name": "D5",
          "ticks": 211080,
          "time": 386.71433875,
          "velocity": 0.5905511811023622
        },
        {
          "duration": 0.2702382979167055,
          "durationTicks": 227,
          "midi": 72,
          "name": "C5",
          "ticks": 211200,
          "time": 386.857196,
          "velocity": 0.5905511811023622
        },
        {
          "duration": 0.5416670729167095,
          "durationTicks": 455,
          "midi": 65,
          "name": "F4",
          "ticks": 211200,
          "time": 386.857196,
          "velocity": 0.5905511811023622
        },
        {
          "duration": 0.13452391041670353,
          "durationTicks": 113,
          "midi": 72,
          "name": "C5",
          "ticks": 211440,
          "time": 387.14291049999997,
          "velocity": 0.5905511811023622
        },
        {
          "duration": 0.13452391041664669,
          "durationTicks": 113,
          "midi": 71,
          "name": "B4",
          "ticks": 211560,
          "time": 387.28576775,
          "velocity": 0.5905511811023622
        },
        {
          "duration": 0.27023829791664866,
          "durationTicks": 227,
          "midi": 69,
          "name": "A4",
          "ticks": 211680,
          "time": 387.428625,
          "velocity": 0.5905511811023622
        },
        {
          "duration": 0.5416670729166526,
          "durationTicks": 455,
          "midi": 66,
          "name": "F#4",
          "ticks": 211680,
          "time": 387.428625,
          "velocity": 0.5905511811023622
        },
        {
          "duration": 0.0666667166666457,
          "durationTicks": 56,
          "midi": 69,
          "name": "A4",
          "ticks": 211920,
          "time": 387.7143395,
          "velocity": 0.5905511811023622
        },
        {
          "duration": 0.0666667166666457,
          "durationTicks": 56,
          "midi": 71,
          "name": "B4",
          "ticks": 211980,
          "time": 387.785768125,
          "velocity": 0.5905511811023622
        },
        {
          "duration": 0.13452391041664669,
          "durationTicks": 113,
          "midi": 72,
          "name": "C5",
          "ticks": 212040,
          "time": 387.85719675,
          "velocity": 0.5905511811023622
        },
        {
          "duration": 0.27023829791664866,
          "durationTicks": 227,
          "midi": 71,
          "name": "B4",
          "ticks": 212160,
          "time": 388.000054,
          "velocity": 0.5905511811023622
        },
        {
          "duration": 0.5416670729166526,
          "durationTicks": 455,
          "midi": 67,
          "name": "G4",
          "ticks": 212160,
          "time": 388.000054,
          "velocity": 0.5905511811023622
        },
        {
          "duration": 0.13452391041664669,
          "durationTicks": 113,
          "midi": 69,
          "name": "A4",
          "ticks": 212400,
          "time": 388.2857685,
          "velocity": 0.5905511811023622
        },
        {
          "duration": 0.13452391041670353,
          "durationTicks": 113,
          "midi": 71,
          "name": "B4",
          "ticks": 212520,
          "time": 388.42862575,
          "velocity": 0.5905511811023622
        },
        {
          "duration": 0.27023829791664866,
          "durationTicks": 227,
          "midi": 72,
          "name": "C5",
          "ticks": 212640,
          "time": 388.571483,
          "velocity": 0.5905511811023622
        },
        {
          "duration": 0.27023829791664866,
          "durationTicks": 227,
          "midi": 67,
          "name": "G4",
          "ticks": 212640,
          "time": 388.571483,
          "velocity": 0.5905511811023622
        },
        {
          "duration": 0.13452391041664669,
          "durationTicks": 113,
          "midi": 72,
          "name": "C5",
          "ticks": 212880,
          "time": 388.8571975,
          "velocity": 0.5905511811023622
        },
        {
          "duration": 0.27023829791664866,
          "durationTicks": 227,
          "midi": 66,
          "name": "F#4",
          "ticks": 212880,
          "time": 388.8571975,
          "velocity": 0.5905511811023622
        },
        {
          "duration": 0.13452391041664669,
          "durationTicks": 113,
          "midi": 74,
          "name": "D5",
          "ticks": 213000,
          "time": 389.00005475,
          "velocity": 0.5905511811023622
        },
        {
          "duration": 0.27023829791664866,
          "durationTicks": 227,
          "midi": 76,
          "name": "E5",
          "ticks": 213120,
          "time": 389.142912,
          "velocity": 0.5905511811023622
        },
        {
          "duration": 0.5416670729166526,
          "durationTicks": 455,
          "midi": 67,
          "name": "G4",
          "ticks": 213120,
          "time": 389.142912,
          "velocity": 0.5905511811023622
        },
        {
          "duration": 0.13452391041664669,
          "durationTicks": 113,
          "midi": 76,
          "name": "E5",
          "ticks": 213360,
          "time": 389.4286265,
          "velocity": 0.5905511811023622
        },
        {
          "duration": 0.13452391041670353,
          "durationTicks": 113,
          "midi": 78,
          "name": "F#5",
          "ticks": 213480,
          "time": 389.57148374999997,
          "velocity": 0.5905511811023622
        },
        {
          "duration": 1.1428579999999897,
          "durationTicks": 960,
          "midi": 79,
          "name": "G5",
          "ticks": 213600,
          "time": 389.714341,
          "velocity": 0.5905511811023622
        },
        {
          "duration": 0.5416670729166526,
          "durationTicks": 455,
          "midi": 59,
          "name": "B3",
          "ticks": 213600,
          "time": 389.714341,
          "velocity": 0.5905511811023622
        },
        {
          "duration": 0.5416670729166526,
          "durationTicks": 455,
          "midi": 60,
          "name": "C4",
          "ticks": 214080,
          "time": 390.28577,
          "velocity": 0.5905511811023622
        },
        {
          "duration": 0.5416670729167095,
          "durationTicks": 455,
          "midi": 79,
          "name": "G5",
          "ticks": 214560,
          "time": 390.857199,
          "velocity": 0.5905511811023622
        },
        {
          "duration": 0.5416670729167095,
          "durationTicks": 455,
          "midi": 61,
          "name": "C#4",
          "ticks": 214560,
          "time": 390.857199,
          "velocity": 0.5905511811023622
        },
        {
          "duration": 0.5416670729166526,
          "durationTicks": 455,
          "midi": 62,
          "name": "D4",
          "ticks": 215040,
          "time": 391.428628,
          "velocity": 0.5905511811023622
        },
        {
          "duration": 0.13452391041670353,
          "durationTicks": 113,
          "midi": 81,
          "name": "A5",
          "ticks": 215280,
          "time": 391.7143425,
          "velocity": 0.5905511811023622
        },
        {
          "duration": 0.13452391041664669,
          "durationTicks": 113,
          "midi": 79,
          "name": "G5",
          "ticks": 215400,
          "time": 391.85719975,
          "velocity": 0.5905511811023622
        },
        {
          "duration": 0.2702382979167055,
          "durationTicks": 227,
          "midi": 77,
          "name": "F5",
          "ticks": 215520,
          "time": 392.00005699999997,
          "velocity": 0.5905511811023622
        },
        {
          "duration": 0.2702382979167055,
          "durationTicks": 227,
          "midi": 62,
          "name": "D4",
          "ticks": 215520,
          "time": 392.00005699999997,
          "velocity": 0.5905511811023622
        },
        {
          "duration": 0.13452391041664669,
          "durationTicks": 113,
          "midi": 77,
          "name": "F5",
          "ticks": 215760,
          "time": 392.2857715,
          "velocity": 0.5905511811023622
        },
        {
          "duration": 0.27023829791664866,
          "durationTicks": 227,
          "midi": 61,
          "name": "C#4",
          "ticks": 215760,
          "time": 392.2857715,
          "velocity": 0.5905511811023622
        },
        {
          "duration": 0.13452391041664669,
          "durationTicks": 113,
          "midi": 76,
          "name": "E5",
          "ticks": 215880,
          "time": 392.42862875000003,
          "velocity": 0.5905511811023622
        },
        {
          "duration": 0.27023829791664866,
          "durationTicks": 227,
          "midi": 74,
          "name": "D5",
          "ticks": 216000,
          "time": 392.571486,
          "velocity": 0.5905511811023622
        },
        {
          "duration": 0.27023829791664866,
          "durationTicks": 227,
          "midi": 62,
          "name": "D4",
          "ticks": 216000,
          "time": 392.571486,
          "velocity": 0.5905511811023622
        },
        {
          "duration": 0.13452391041670353,
          "durationTicks": 113,
          "midi": 74,
          "name": "D5",
          "ticks": 216240,
          "time": 392.8572005,
          "velocity": 0.5905511811023622
        },
        {
          "duration": 0.27023829791664866,
          "durationTicks": 227,
          "midi": 64,
          "name": "E4",
          "ticks": 216240,
          "time": 392.8572005,
          "velocity": 0.5905511811023622
        },
        {
          "duration": 0.13452391041664669,
          "durationTicks": 113,
          "midi": 72,
          "name": "C5",
          "ticks": 216360,
          "time": 393.00005775,
          "velocity": 0.5905511811023622
        },
        {
          "duration": 1.1428579999999897,
          "durationTicks": 960,
          "midi": 71,
          "name": "B4",
          "ticks": 216480,
          "time": 393.142915,
          "velocity": 0.5905511811023622
        },
        {
          "duration": 0.06547623958329041,
          "durationTicks": 55,
          "midi": 65,
          "name": "F4",
          "ticks": 216480,
          "time": 393.142915,
          "velocity": 0.5905511811023622
        },
        {
          "duration": 0.06547623958334725,
          "durationTicks": 55,
          "midi": 67,
          "name": "G4",
          "ticks": 216540,
          "time": 393.21434362499997,
          "velocity": 0.5905511811023622
        },
        {
          "duration": 0.4047622083333522,
          "durationTicks": 340,
          "midi": 65,
          "name": "F4",
          "ticks": 216600,
          "time": 393.28577225,
          "velocity": 0.5905511811023622
        },
        {
          "duration": 0.27023829791664866,
          "durationTicks": 227,
          "midi": 65,
          "name": "F4",
          "ticks": 216960,
          "time": 393.714344,
          "velocity": 0.5905511811023622
        },
        {
          "duration": 0.27023829791664866,
          "durationTicks": 227,
          "midi": 64,
          "name": "E4",
          "ticks": 217200,
          "time": 394.0000585,
          "velocity": 0.5905511811023622
        },
        {
          "duration": 0.5416670729166526,
          "durationTicks": 455,
          "midi": 71,
          "name": "B4",
          "ticks": 217440,
          "time": 394.285773,
          "velocity": 0.5905511811023622
        },
        {
          "duration": 0.27023829791664866,
          "durationTicks": 227,
          "midi": 64,
          "name": "E4",
          "ticks": 217440,
          "time": 394.285773,
          "velocity": 0.5905511811023622
        },
        {
          "duration": 0.27023829791664866,
          "durationTicks": 227,
          "midi": 62,
          "name": "D4",
          "ticks": 217680,
          "time": 394.5714875,
          "velocity": 0.5905511811023622
        },
        {
          "duration": 0.27023829791664866,
          "durationTicks": 227,
          "midi": 62,
          "name": "D4",
          "ticks": 217920,
          "time": 394.85720200000003,
          "velocity": 0.5905511811023622
        },
        {
          "duration": 0.13452391041664669,
          "durationTicks": 113,
          "midi": 81,
          "name": "A5",
          "ticks": 218160,
          "time": 395.1429165,
          "velocity": 0.5905511811023622
        },
        {
          "duration": 0.27023829791664866,
          "durationTicks": 227,
          "midi": 60,
          "name": "C4",
          "ticks": 218160,
          "time": 395.1429165,
          "velocity": 0.5905511811023622
        },
        {
          "duration": 0.13452391041670353,
          "durationTicks": 113,
          "midi": 79,
          "name": "G5",
          "ticks": 218280,
          "time": 395.28577375,
          "velocity": 0.5905511811023622
        },
        {
          "duration": 0.27023829791664866,
          "durationTicks": 227,
          "midi": 77,
          "name": "F5",
          "ticks": 218400,
          "time": 395.428631,
          "velocity": 0.5905511811023622
        },
        {
          "duration": 0.27023829791664866,
          "durationTicks": 227,
          "midi": 62,
          "name": "D4",
          "ticks": 218400,
          "time": 395.428631,
          "velocity": 0.5905511811023622
        },
        {
          "duration": 0.13452391041670353,
          "durationTicks": 113,
          "midi": 77,
          "name": "F5",
          "ticks": 218640,
          "time": 395.7143455,
          "velocity": 0.5905511811023622
        },
        {
          "duration": 0.2702382979167055,
          "durationTicks": 227,
          "midi": 60,
          "name": "C4",
          "ticks": 218640,
          "time": 395.7143455,
          "velocity": 0.5905511811023622
        },
        {
          "duration": 0.13452391041670353,
          "durationTicks": 113,
          "midi": 76,
          "name": "E5",
          "ticks": 218760,
          "time": 395.85720275,
          "velocity": 0.5905511811023622
        },
        {
          "duration": 0.2702382979167055,
          "durationTicks": 227,
          "midi": 74,
          "name": "D5",
          "ticks": 218880,
          "time": 396.00005999999996,
          "velocity": 0.5905511811023622
        },
        {
          "duration": 0.2702382979167055,
          "durationTicks": 227,
          "midi": 59,
          "name": "B3",
          "ticks": 218880,
          "time": 396.00005999999996,
          "velocity": 0.5905511811023622
        },
        {
          "duration": 0.13452391041664669,
          "durationTicks": 113,
          "midi": 74,
          "name": "D5",
          "ticks": 219120,
          "time": 396.2857745,
          "velocity": 0.5905511811023622
        },
        {
          "duration": 0.7416672229166466,
          "durationTicks": 623,
          "midi": 57,
          "name": "A3",
          "ticks": 219120,
          "time": 396.2857745,
          "velocity": 0.5905511811023622
        },
        {
          "duration": 0.13452391041664669,
          "durationTicks": 113,
          "midi": 72,
          "name": "C5",
          "ticks": 219240,
          "time": 396.42863175,
          "velocity": 0.5905511811023622
        },
        {
          "duration": 0.2702382979167055,
          "durationTicks": 227,
          "midi": 74,
          "name": "D5",
          "ticks": 219360,
          "time": 396.571489,
          "velocity": 0.5905511811023622
        },
        {
          "duration": 0.13452391041670353,
          "durationTicks": 113,
          "midi": 74,
          "name": "D5",
          "ticks": 219600,
          "time": 396.85720349999997,
          "velocity": 0.5905511811023622
        },
        {
          "duration": 0.13452391041664669,
          "durationTicks": 113,
          "midi": 77,
          "name": "F5",
          "ticks": 219720,
          "time": 397.00006075,
          "velocity": 0.5905511811023622
        },
        {
          "duration": 0.27023829791664866,
          "durationTicks": 227,
          "midi": 76,
          "name": "E5",
          "ticks": 219840,
          "time": 397.142918,
          "velocity": 0.5905511811023622
        },
        {
          "duration": 0.13452391041670353,
          "durationTicks": 113,
          "midi": 76,
          "name": "E5",
          "ticks": 220080,
          "time": 397.4286325,
          "velocity": 0.5905511811023622
        },
        {
          "duration": 0.13452391041664669,
          "durationTicks": 113,
          "midi": 74,
          "name": "D5",
          "ticks": 220200,
          "time": 397.57148975,
          "velocity": 0.5905511811023622
        },
        {
          "duration": 0.2702382979167055,
          "durationTicks": 227,
          "midi": 72,
          "name": "C5",
          "ticks": 220320,
          "time": 397.714347,
          "velocity": 0.5905511811023622
        },
        {
          "duration": 0.13452391041664669,
          "durationTicks": 113,
          "midi": 72,
          "name": "C5",
          "ticks": 220560,
          "time": 398.0000615,
          "velocity": 0.5905511811023622
        },
        {
          "duration": 0.13452391041670353,
          "durationTicks": 113,
          "midi": 71,
          "name": "B4",
          "ticks": 220680,
          "time": 398.14291875,
          "velocity": 0.5905511811023622
        },
        {
          "duration": 1.0845246229166605,
          "durationTicks": 911,
          "midi": 72,
          "name": "C5",
          "ticks": 220800,
          "time": 398.285776,
          "velocity": 0.5905511811023622
        },
        {
          "duration": 0.13452391041670353,
          "durationTicks": 113,
          "midi": 69,
          "name": "A4",
          "ticks": 220920,
          "time": 398.42863324999996,
          "velocity": 0.5905511811023622
        },
        {
          "duration": 0.13452391041670353,
          "durationTicks": 113,
          "midi": 64,
          "name": "E4",
          "ticks": 221040,
          "time": 398.5714905,
          "velocity": 0.5905511811023622
        },
        {
          "duration": 0.13452391041664669,
          "durationTicks": 113,
          "midi": 60,
          "name": "C4",
          "ticks": 221160,
          "time": 398.71434775,
          "velocity": 0.5905511811023622
        },
        {
          "duration": 0.13452391041664669,
          "durationTicks": 113,
          "midi": 57,
          "name": "A3",
          "ticks": 221280,
          "time": 398.857205,
          "velocity": 0.5905511811023622
        },
        {
          "duration": 0.13452391041664669,
          "durationTicks": 113,
          "midi": 62,
          "name": "D4",
          "ticks": 221880,
          "time": 399.57149125,
          "velocity": 0.5905511811023622
        },
        {
          "duration": 0.13452391041664669,
          "durationTicks": 113,
          "midi": 69,
          "name": "A4",
          "ticks": 222000,
          "time": 399.7143485,
          "velocity": 0.5905511811023622
        },
        {
          "duration": 0.13452391041670353,
          "durationTicks": 113,
          "midi": 72,
          "name": "C5",
          "ticks": 222120,
          "time": 399.85720575,
          "velocity": 0.5905511811023622
        },
        {
          "duration": 1.0845246229166605,
          "durationTicks": 911,
          "midi": 71,
          "name": "B4",
          "ticks": 222240,
          "time": 400.000063,
          "velocity": 0.5905511811023622
        },
        {
          "duration": 0.13452391041670353,
          "durationTicks": 113,
          "midi": 67,
          "name": "G4",
          "ticks": 222360,
          "time": 400.14292025,
          "velocity": 0.5905511811023622
        },
        {
          "duration": 0.13452391041664669,
          "durationTicks": 113,
          "midi": 62,
          "name": "D4",
          "ticks": 222480,
          "time": 400.2857775,
          "velocity": 0.5905511811023622
        },
        {
          "duration": 0.13452391041664669,
          "durationTicks": 113,
          "midi": 59,
          "name": "B3",
          "ticks": 222600,
          "time": 400.42863475,
          "velocity": 0.5905511811023622
        },
        {
          "duration": 0.13452391041670353,
          "durationTicks": 113,
          "midi": 55,
          "name": "G3",
          "ticks": 222720,
          "time": 400.571492,
          "velocity": 0.5905511811023622
        },
        {
          "duration": 0.13452391041664669,
          "durationTicks": 113,
          "midi": 60,
          "name": "C4",
          "ticks": 223320,
          "time": 401.28577825,
          "velocity": 0.5905511811023622
        },
        {
          "duration": 0.13452391041670353,
          "durationTicks": 113,
          "midi": 67,
          "name": "G4",
          "ticks": 223440,
          "time": 401.4286355,
          "velocity": 0.5905511811023622
        },
        {
          "duration": 0.13452391041664669,
          "durationTicks": 113,
          "midi": 70,
          "name": "A#4",
          "ticks": 223560,
          "time": 401.57149275,
          "velocity": 0.5905511811023622
        },
        {
          "duration": 0.13452391041670353,
          "durationTicks": 113,
          "midi": 69,
          "name": "A4",
          "ticks": 223680,
          "time": 401.71434999999997,
          "velocity": 0.5905511811023622
        },
        {
          "duration": 0.13452391041664669,
          "durationTicks": 113,
          "midi": 65,
          "name": "F4",
          "ticks": 223800,
          "time": 401.85720725,
          "velocity": 0.5905511811023622
        },
        {
          "duration": 0.13452391041664669,
          "durationTicks": 113,
          "midi": 69,
          "name": "A4",
          "ticks": 223920,
          "time": 402.0000645,
          "velocity": 0.5905511811023622
        },
        {
          "duration": 0.13452391041664669,
          "durationTicks": 113,
          "midi": 72,
          "name": "C5",
          "ticks": 224040,
          "time": 402.14292175,
          "velocity": 0.5905511811023622
        },
        {
          "duration": 0.27023829791664866,
          "durationTicks": 227,
          "midi": 77,
          "name": "F5",
          "ticks": 224160,
          "time": 402.285779,
          "velocity": 0.5905511811023622
        },
        {
          "duration": 0.13452391041664669,
          "durationTicks": 113,
          "midi": 69,
          "name": "A4",
          "ticks": 224280,
          "time": 402.42863625,
          "velocity": 0.5905511811023622
        },
        {
          "duration": 0.13452391041670353,
          "durationTicks": 113,
          "midi": 65,
          "name": "F4",
          "ticks": 224400,
          "time": 402.5714935,
          "velocity": 0.5905511811023622
        },
        {
          "duration": 0.13452391041664669,
          "durationTicks": 113,
          "midi": 62,
          "name": "D4",
          "ticks": 224520,
          "time": 402.71435075,
          "velocity": 0.5905511811023622
        },
        {
          "duration": 0.27023829791664866,
          "durationTicks": 227,
          "midi": 59,
          "name": "B3",
          "ticks": 224640,
          "time": 402.857208,
          "velocity": 0.5905511811023622
        },
        {
          "duration": 0.13452391041670353,
          "durationTicks": 113,
          "midi": 67,
          "name": "G4",
          "ticks": 224760,
          "time": 403.00006525,
          "velocity": 0.5905511811023622
        },
        {
          "duration": 0.13452391041670353,
          "durationTicks": 113,
          "midi": 74,
          "name": "D5",
          "ticks": 224880,
          "time": 403.1429225,
          "velocity": 0.5905511811023622
        },
        {
          "duration": 0.27023829791664866,
          "durationTicks": 227,
          "midi": 57,
          "name": "A3",
          "ticks": 224880,
          "time": 403.1429225,
          "velocity": 0.5905511811023622
        },
        {
          "duration": 0.13452391041670353,
          "durationTicks": 113,
          "midi": 77,
          "name": "F5",
          "ticks": 225000,
          "time": 403.28577974999996,
          "velocity": 0.5905511811023622
        },
        {
          "duration": 0.13452391041670353,
          "durationTicks": 113,
          "midi": 76,
          "name": "E5",
          "ticks": 225120,
          "time": 403.428637,
          "velocity": 0.5905511811023622
        },
        {
          "duration": 0.27023829791664866,
          "durationTicks": 227,
          "midi": 60,
          "name": "C4",
          "ticks": 225120,
          "time": 403.428637,
          "velocity": 0.5905511811023622
        },
        {
          "duration": 0.13452391041664669,
          "durationTicks": 113,
          "midi": 67,
          "name": "G4",
          "ticks": 225240,
          "time": 403.57149425,
          "velocity": 0.5905511811023622
        },
        {
          "duration": 0.13452391041664669,
          "durationTicks": 113,
          "midi": 72,
          "name": "C5",
          "ticks": 225360,
          "time": 403.7143515,
          "velocity": 0.5905511811023622
        },
        {
          "duration": 0.13452391041670353,
          "durationTicks": 113,
          "midi": 76,
          "name": "E5",
          "ticks": 225480,
          "time": 403.85720875,
          "velocity": 0.5905511811023622
        },
        {
          "duration": 0.27023829791664866,
          "durationTicks": 227,
          "midi": 79,
          "name": "G5",
          "ticks": 225600,
          "time": 404.000066,
          "velocity": 0.5905511811023622
        },
        {
          "duration": 0.13452391041670353,
          "durationTicks": 113,
          "midi": 70,
          "name": "A#4",
          "ticks": 225720,
          "time": 404.14292324999997,
          "velocity": 0.5905511811023622
        },
        {
          "duration": 0.13452391041664669,
          "durationTicks": 113,
          "midi": 67,
          "name": "G4",
          "ticks": 225840,
          "time": 404.2857805,
          "velocity": 0.5905511811023622
        },
        {
          "duration": 0.13452391041664669,
          "durationTicks": 113,
          "midi": 64,
          "name": "E4",
          "ticks": 225960,
          "time": 404.42863775,
          "velocity": 0.5905511811023622
        },
        {
          "duration": 0.27023829791664866,
          "durationTicks": 227,
          "midi": 61,
          "name": "C#4",
          "ticks": 226080,
          "time": 404.571495,
          "velocity": 0.5905511811023622
        },
        {
          "duration": 0.13452391041670353,
          "durationTicks": 113,
          "midi": 69,
          "name": "A4",
          "ticks": 226200,
          "time": 404.71435225,
          "velocity": 0.5905511811023622
        },
        {
          "duration": 0.13452391041664669,
          "durationTicks": 113,
          "midi": 76,
          "name": "E5",
          "ticks": 226320,
          "time": 404.8572095,
          "velocity": 0.5905511811023622
        },
        {
          "duration": 0.27023829791664866,
          "durationTicks": 227,
          "midi": 57,
          "name": "A3",
          "ticks": 226320,
          "time": 404.8572095,
          "velocity": 0.5905511811023622
        },
        {
          "duration": 0.13452391041670353,
          "durationTicks": 113,
          "midi": 79,
          "name": "G5",
          "ticks": 226440,
          "time": 405.00006675,
          "velocity": 0.5905511811023622
        },
        {
          "duration": 1.1428579999999897,
          "durationTicks": 960,
          "midi": 77,
          "name": "F5",
          "ticks": 226560,
          "time": 405.142924,
          "velocity": 0.5905511811023622
        },
        {
          "duration": 0.13452391041664669,
          "durationTicks": 113,
          "midi": 74,
          "name": "D5",
          "ticks": 226680,
          "time": 405.28578125,
          "velocity": 0.5905511811023622
        },
        {
          "duration": 0.13452391041670353,
          "durationTicks": 113,
          "midi": 72,
          "name": "C5",
          "ticks": 226800,
          "time": 405.4286385,
          "velocity": 0.5905511811023622
        },
        {
          "duration": 0.13452391041670353,
          "durationTicks": 113,
          "midi": 70,
          "name": "A#4",
          "ticks": 226920,
          "time": 405.57149575,
          "velocity": 0.5905511811023622
        },
        {
          "duration": 0.13452391041670353,
          "durationTicks": 113,
          "midi": 69,
          "name": "A4",
          "ticks": 227040,
          "time": 405.71435299999996,
          "velocity": 0.5905511811023622
        },
        {
          "duration": 0.13452391041670353,
          "durationTicks": 113,
          "midi": 67,
          "name": "G4",
          "ticks": 227160,
          "time": 405.85721025,
          "velocity": 0.5905511811023622
        },
        {
          "duration": 0.13452391041664669,
          "durationTicks": 113,
          "midi": 65,
          "name": "F4",
          "ticks": 227280,
          "time": 406.0000675,
          "velocity": 0.5905511811023622
        },
        {
          "duration": 0.13452391041664669,
          "durationTicks": 113,
          "midi": 64,
          "name": "E4",
          "ticks": 227400,
          "time": 406.14292475,
          "velocity": 0.5905511811023622
        },
        {
          "duration": 1.0845246229167174,
          "durationTicks": 911,
          "midi": 77,
          "name": "F5",
          "ticks": 227520,
          "time": 406.285782,
          "velocity": 0.5905511811023622
        },
        {
          "duration": 0.13452391041670353,
          "durationTicks": 113,
          "midi": 62,
          "name": "D4",
          "ticks": 227520,
          "time": 406.285782,
          "velocity": 0.5905511811023622
        },
        {
          "duration": 0.13452391041664669,
          "durationTicks": 113,
          "midi": 65,
          "name": "F4",
          "ticks": 227640,
          "time": 406.42863925,
          "velocity": 0.5905511811023622
        },
        {
          "duration": 0.13452391041670353,
          "durationTicks": 113,
          "midi": 60,
          "name": "C4",
          "ticks": 227760,
          "time": 406.57149649999997,
          "velocity": 0.5905511811023622
        },
        {
          "duration": 0.13452391041664669,
          "durationTicks": 113,
          "midi": 65,
          "name": "F4",
          "ticks": 227880,
          "time": 406.71435375,
          "velocity": 0.5905511811023622
        },
        {
          "duration": 1.0845246229166605,
          "durationTicks": 911,
          "midi": 77,
          "name": "F5",
          "ticks": 228960,
          "time": 408.000069,
          "velocity": 0.5905511811023622
        },
        {
          "duration": 0.13452391041664669,
          "durationTicks": 113,
          "midi": 76,
          "name": "E5",
          "ticks": 230040,
          "time": 409.28578425,
          "velocity": 0.5905511811023622
        },
        {
          "duration": 0.13452391041664669,
          "durationTicks": 113,
          "midi": 74,
          "name": "D5",
          "ticks": 230160,
          "time": 409.4286415,
          "velocity": 0.5905511811023622
        },
        {
          "duration": 0.13452391041670353,
          "durationTicks": 113,
          "midi": 72,
          "name": "C5",
          "ticks": 230280,
          "time": 409.57149875,
          "velocity": 0.5905511811023622
        },
        {
          "duration": 0.13452391041664669,
          "durationTicks": 113,
          "midi": 71,
          "name": "B4",
          "ticks": 230400,
          "time": 409.714356,
          "velocity": 0.5905511811023622
        },
        {
          "duration": 0.13452391041670353,
          "durationTicks": 113,
          "midi": 74,
          "name": "D5",
          "ticks": 230520,
          "time": 409.85721325,
          "velocity": 0.5905511811023622
        },
        {
          "duration": 0.13452391041664669,
          "durationTicks": 113,
          "midi": 69,
          "name": "A4",
          "ticks": 230640,
          "time": 410.0000705,
          "velocity": 0.5905511811023622
        },
        {
          "duration": 0.13452391041664669,
          "durationTicks": 113,
          "midi": 74,
          "name": "D5",
          "ticks": 230760,
          "time": 410.14292775,
          "velocity": 0.5905511811023622
        },
        {
          "duration": 0.13452391041670353,
          "durationTicks": 113,
          "midi": 68,
          "name": "G#4",
          "ticks": 230880,
          "time": 410.285785,
          "velocity": 0.5905511811023622
        },
        {
          "duration": 0.13452391041670353,
          "durationTicks": 113,
          "midi": 71,
          "name": "B4",
          "ticks": 231000,
          "time": 410.42864225,
          "velocity": 0.5905511811023622
        },
        {
          "duration": 0.13452391041670353,
          "durationTicks": 113,
          "midi": 72,
          "name": "C5",
          "ticks": 231120,
          "time": 410.57149949999996,
          "velocity": 0.5905511811023622
        },
        {
          "duration": 0.13452391041670353,
          "durationTicks": 113,
          "midi": 76,
          "name": "E5",
          "ticks": 231240,
          "time": 410.71435675,
          "velocity": 0.5905511811023622
        },
        {
          "duration": 0.13452391041664669,
          "durationTicks": 113,
          "midi": 74,
          "name": "D5",
          "ticks": 231360,
          "time": 410.857214,
          "velocity": 0.5905511811023622
        },
        {
          "duration": 0.13452391041664669,
          "durationTicks": 113,
          "midi": 72,
          "name": "C5",
          "ticks": 231480,
          "time": 411.00007125,
          "velocity": 0.5905511811023622
        },
        {
          "duration": 0.13452391041670353,
          "durationTicks": 113,
          "midi": 71,
          "name": "B4",
          "ticks": 231600,
          "time": 411.1429285,
          "velocity": 0.5905511811023622
        },
        {
          "duration": 0.13452391041664669,
          "durationTicks": 113,
          "midi": 69,
          "name": "A4",
          "ticks": 231720,
          "time": 411.28578575,
          "velocity": 0.5905511811023622
        },
        {
          "duration": 0.13452391041670353,
          "durationTicks": 113,
          "midi": 68,
          "name": "G#4",
          "ticks": 231840,
          "time": 411.42864299999997,
          "velocity": 0.5905511811023622
        },
        {
          "duration": 0.13452391041670353,
          "durationTicks": 113,
          "midi": 71,
          "name": "B4",
          "ticks": 231960,
          "time": 411.57150025,
          "velocity": 0.5905511811023622
        },
        {
          "duration": 0.13452391041664669,
          "durationTicks": 113,
          "midi": 65,
          "name": "F4",
          "ticks": 232080,
          "time": 411.7143575,
          "velocity": 0.5905511811023622
        },
        {
          "duration": 0.13452391041664669,
          "durationTicks": 113,
          "midi": 71,
          "name": "B4",
          "ticks": 232200,
          "time": 411.85721475,
          "velocity": 0.5905511811023622
        },
        {
          "duration": 0.13452391041670353,
          "durationTicks": 113,
          "midi": 64,
          "name": "E4",
          "ticks": 232320,
          "time": 412.000072,
          "velocity": 0.5905511811023622
        },
        {
          "duration": 0.13452391041664669,
          "durationTicks": 113,
          "midi": 68,
          "name": "G#4",
          "ticks": 232440,
          "time": 412.14292925,
          "velocity": 0.5905511811023622
        },
        {
          "duration": 0.13452391041670353,
          "durationTicks": 113,
          "midi": 69,
          "name": "A4",
          "ticks": 232560,
          "time": 412.2857865,
          "velocity": 0.5905511811023622
        },
        {
          "duration": 0.13452391041664669,
          "durationTicks": 113,
          "midi": 72,
          "name": "C5",
          "ticks": 232680,
          "time": 412.42864375,
          "velocity": 0.5905511811023622
        },
        {
          "duration": 0.13452391041664669,
          "durationTicks": 113,
          "midi": 66,
          "name": "F#4",
          "ticks": 232800,
          "time": 412.571501,
          "velocity": 0.5905511811023622
        },
        {
          "duration": 0.13452391041670353,
          "durationTicks": 113,
          "midi": 69,
          "name": "A4",
          "ticks": 232920,
          "time": 412.71435825,
          "velocity": 0.5905511811023622
        },
        {
          "duration": 0.13452391041670353,
          "durationTicks": 113,
          "midi": 71,
          "name": "B4",
          "ticks": 233040,
          "time": 412.8572155,
          "velocity": 0.5905511811023622
        },
        {
          "duration": 0.13452391041664669,
          "durationTicks": 113,
          "midi": 74,
          "name": "D5",
          "ticks": 233160,
          "time": 413.00007275,
          "velocity": 0.5905511811023622
        },
        {
          "duration": 0.13452391041670353,
          "durationTicks": 113,
          "midi": 68,
          "name": "G#4",
          "ticks": 233280,
          "time": 413.14293,
          "velocity": 0.5905511811023622
        },
        {
          "duration": 0.13452391041664669,
          "durationTicks": 113,
          "midi": 71,
          "name": "B4",
          "ticks": 233400,
          "time": 413.28578725,
          "velocity": 0.5905511811023622
        },
        {
          "duration": 0.13452391041664669,
          "durationTicks": 113,
          "midi": 72,
          "name": "C5",
          "ticks": 233520,
          "time": 413.4286445,
          "velocity": 0.5905511811023622
        },
        {
          "duration": 0.13452391041670353,
          "durationTicks": 113,
          "midi": 76,
          "name": "E5",
          "ticks": 233640,
          "time": 413.57150175,
          "velocity": 0.5905511811023622
        },
        {
          "duration": 0.13452391041664669,
          "durationTicks": 113,
          "midi": 69,
          "name": "A4",
          "ticks": 233760,
          "time": 413.714359,
          "velocity": 0.5905511811023622
        },
        {
          "duration": 0.13452391041670353,
          "durationTicks": 113,
          "midi": 71,
          "name": "B4",
          "ticks": 233880,
          "time": 413.85721624999996,
          "velocity": 0.5905511811023622
        },
        {
          "duration": 0.13452391041670353,
          "durationTicks": 113,
          "midi": 72,
          "name": "C5",
          "ticks": 234000,
          "time": 414.0000735,
          "velocity": 0.5905511811023622
        },
        {
          "duration": 0.13452391041664669,
          "durationTicks": 113,
          "midi": 76,
          "name": "E5",
          "ticks": 234120,
          "time": 414.14293075,
          "velocity": 0.5905511811023622
        },
        {
          "duration": 0.13452391041664669,
          "durationTicks": 113,
          "midi": 71,
          "name": "B4",
          "ticks": 234240,
          "time": 414.285788,
          "velocity": 0.5905511811023622
        },
        {
          "duration": 0.13452391041670353,
          "durationTicks": 113,
          "midi": 72,
          "name": "C5",
          "ticks": 234360,
          "time": 414.42864525,
          "velocity": 0.5905511811023622
        },
        {
          "duration": 0.13452391041664669,
          "durationTicks": 113,
          "midi": 74,
          "name": "D5",
          "ticks": 234480,
          "time": 414.5715025,
          "velocity": 0.5905511811023622
        },
        {
          "duration": 0.13452391041670353,
          "durationTicks": 113,
          "midi": 77,
          "name": "F5",
          "ticks": 234600,
          "time": 414.71435974999997,
          "velocity": 0.5905511811023622
        },
        {
          "duration": 0.13452391041664669,
          "durationTicks": 113,
          "midi": 76,
          "name": "E5",
          "ticks": 234720,
          "time": 414.857217,
          "velocity": 0.5905511811023622
        },
        {
          "duration": 0.13452391041664669,
          "durationTicks": 113,
          "midi": 74,
          "name": "D5",
          "ticks": 234840,
          "time": 415.00007425,
          "velocity": 0.5905511811023622
        },
        {
          "duration": 0.13452391041670353,
          "durationTicks": 113,
          "midi": 72,
          "name": "C5",
          "ticks": 234960,
          "time": 415.1429315,
          "velocity": 0.5905511811023622
        },
        {
          "duration": 0.13452391041670353,
          "durationTicks": 113,
          "midi": 71,
          "name": "B4",
          "ticks": 235080,
          "time": 415.28578875,
          "velocity": 0.5905511811023622
        },
        {
          "duration": 0.13452391041664669,
          "durationTicks": 113,
          "midi": 72,
          "name": "C5",
          "ticks": 235200,
          "time": 415.428646,
          "velocity": 0.5905511811023622
        },
        {
          "duration": 0.13452391041670353,
          "durationTicks": 113,
          "midi": 76,
          "name": "E5",
          "ticks": 235320,
          "time": 415.57150325,
          "velocity": 0.5905511811023622
        },
        {
          "duration": 0.13452391041664669,
          "durationTicks": 113,
          "midi": 81,
          "name": "A5",
          "ticks": 235440,
          "time": 415.7143605,
          "velocity": 0.5905511811023622
        },
        {
          "duration": 0.13452391041664669,
          "durationTicks": 113,
          "midi": 80,
          "name": "G#5",
          "ticks": 235560,
          "time": 415.85721775,
          "velocity": 0.5905511811023622
        },
        {
          "duration": 0.13452391041670353,
          "durationTicks": 113,
          "midi": 81,
          "name": "A5",
          "ticks": 235680,
          "time": 416.000075,
          "velocity": 0.5905511811023622
        },
        {
          "duration": 0.13452391041664669,
          "durationTicks": 113,
          "midi": 74,
          "name": "D5",
          "ticks": 235800,
          "time": 416.14293225,
          "velocity": 0.5905511811023622
        },
        {
          "duration": 0.13452391041670353,
          "durationTicks": 113,
          "midi": 76,
          "name": "E5",
          "ticks": 235920,
          "time": 416.28578949999996,
          "velocity": 0.5905511811023622
        },
        {
          "duration": 0.13452391041670353,
          "durationTicks": 113,
          "midi": 77,
          "name": "F5",
          "ticks": 236040,
          "time": 416.42864675,
          "velocity": 0.5905511811023622
        },
        {
          "duration": 0.13452391041664669,
          "durationTicks": 113,
          "midi": 68,
          "name": "G#4",
          "ticks": 236160,
          "time": 416.571504,
          "velocity": 0.5905511811023622
        },
        {
          "duration": 0.13452391041664669,
          "durationTicks": 113,
          "midi": 71,
          "name": "B4",
          "ticks": 236280,
          "time": 416.71436125,
          "velocity": 0.5905511811023622
        },
        {
          "duration": 0.13452391041670353,
          "durationTicks": 113,
          "midi": 76,
          "name": "E5",
          "ticks": 236400,
          "time": 416.8572185,
          "velocity": 0.5905511811023622
        },
        {
          "duration": 0.13452391041664669,
          "durationTicks": 113,
          "midi": 74,
          "name": "D5",
          "ticks": 236520,
          "time": 417.00007575,
          "velocity": 0.5905511811023622
        },
        {
          "duration": 0.13452391041670353,
          "durationTicks": 113,
          "midi": 72,
          "name": "C5",
          "ticks": 236640,
          "time": 417.14293299999997,
          "velocity": 0.5905511811023622
        },
        {
          "duration": 0.5416670729166526,
          "durationTicks": 455,
          "midi": 69,
          "name": "A4",
          "ticks": 236640,
          "time": 417.14293299999997,
          "velocity": 0.5905511811023622
        },
        {
          "duration": 0.13452391041664669,
          "durationTicks": 113,
          "midi": 76,
          "name": "E5",
          "ticks": 236760,
          "time": 417.28579025,
          "velocity": 0.5905511811023622
        },
        {
          "duration": 0.13452391041664669,
          "durationTicks": 113,
          "midi": 80,
          "name": "G#5",
          "ticks": 236880,
          "time": 417.4286475,
          "velocity": 0.5905511811023622
        },
        {
          "duration": 0.13452391041670353,
          "durationTicks": 113,
          "midi": 81,
          "name": "A5",
          "ticks": 237000,
          "time": 417.57150475,
          "velocity": 0.5905511811023622
        },
        {
          "duration": 0.5416670729166526,
          "durationTicks": 455,
          "midi": 70,
          "name": "A#4",
          "ticks": 237120,
          "time": 417.714362,
          "velocity": 0.5905511811023622
        },
        {
          "duration": 0.13452391041664669,
          "durationTicks": 113,
          "midi": 74,
          "name": "D5",
          "ticks": 237240,
          "time": 417.85721925,
          "velocity": 0.5905511811023622
        },
        {
          "duration": 0.13452391041670353,
          "durationTicks": 113,
          "midi": 77,
          "name": "F5",
          "ticks": 237360,
          "time": 418.0000765,
          "velocity": 0.5905511811023622
        },
        {
          "duration": 0.13452391041664669,
          "durationTicks": 113,
          "midi": 81,
          "name": "A5",
          "ticks": 237480,
          "time": 418.14293375,
          "velocity": 0.5905511811023622
        },
        {
          "duration": 0.5416670729166526,
          "durationTicks": 455,
          "midi": 71,
          "name": "B4",
          "ticks": 237600,
          "time": 418.285791,
          "velocity": 0.5905511811023622
        },
        {
          "duration": 0.13452391041670353,
          "durationTicks": 113,
          "midi": 74,
          "name": "D5",
          "ticks": 237720,
          "time": 418.42864825,
          "velocity": 0.5905511811023622
        },
        {
          "duration": 0.13452391041664669,
          "durationTicks": 113,
          "midi": 77,
          "name": "F5",
          "ticks": 237840,
          "time": 418.5715055,
          "velocity": 0.5905511811023622
        },
        {
          "duration": 0.13452391041670353,
          "durationTicks": 113,
          "midi": 80,
          "name": "G#5",
          "ticks": 237960,
          "time": 418.71436274999996,
          "velocity": 0.5905511811023622
        },
        {
          "duration": 0.5416670729166526,
          "durationTicks": 455,
          "midi": 81,
          "name": "A5",
          "ticks": 238080,
          "time": 418.85722,
          "velocity": 0.5905511811023622
        },
        {
          "duration": 0.5416670729166526,
          "durationTicks": 455,
          "midi": 72,
          "name": "C5",
          "ticks": 238080,
          "time": 418.85722,
          "velocity": 0.5905511811023622
        },
        {
          "duration": 0.27023829791664866,
          "durationTicks": 227,
          "midi": 81,
          "name": "A5",
          "ticks": 238560,
          "time": 419.428649,
          "velocity": 0.5905511811023622
        },
        {
          "duration": 0.27023829791664866,
          "durationTicks": 227,
          "midi": 72,
          "name": "C5",
          "ticks": 238560,
          "time": 419.428649,
          "velocity": 0.5905511811023622
        },
        {
          "duration": 0.27023829791664866,
          "durationTicks": 227,
          "midi": 80,
          "name": "G#5",
          "ticks": 238800,
          "time": 419.7143635,
          "velocity": 0.5905511811023622
        },
        {
          "duration": 0.27023829791664866,
          "durationTicks": 227,
          "midi": 71,
          "name": "B4",
          "ticks": 238800,
          "time": 419.7143635,
          "velocity": 0.5905511811023622
        },
        {
          "duration": 0.5416670729167095,
          "durationTicks": 455,
          "midi": 81,
          "name": "A5",
          "ticks": 239040,
          "time": 420.000078,
          "velocity": 0.5905511811023622
        },
        {
          "duration": 0.5416670729167095,
          "durationTicks": 455,
          "midi": 72,
          "name": "C5",
          "ticks": 239040,
          "time": 420.000078,
          "velocity": 0.5905511811023622
        },
        {
          "duration": 0.5416670729166526,
          "durationTicks": 455,
          "midi": 64,
          "name": "E4",
          "ticks": 239520,
          "time": 420.571507,
          "velocity": 0.5905511811023622
        },
        {
          "duration": 0.13452391041664669,
          "durationTicks": 113,
          "midi": 74,
          "name": "D5",
          "ticks": 239640,
          "time": 420.71436425,
          "velocity": 0.5905511811023622
        },
        {
          "duration": 0.13452391041670353,
          "durationTicks": 113,
          "midi": 76,
          "name": "E5",
          "ticks": 239760,
          "time": 420.8572215,
          "velocity": 0.5905511811023622
        },
        {
          "duration": 0.13452391041664669,
          "durationTicks": 113,
          "midi": 83,
          "name": "B5",
          "ticks": 239880,
          "time": 421.00007875,
          "velocity": 0.5905511811023622
        },
        {
          "duration": 0.5416670729167095,
          "durationTicks": 455,
          "midi": 65,
          "name": "F4",
          "ticks": 240000,
          "time": 421.14293599999996,
          "velocity": 0.5905511811023622
        },
        {
          "duration": 0.13452391041670353,
          "durationTicks": 113,
          "midi": 72,
          "name": "C5",
          "ticks": 240120,
          "time": 421.28579325,
          "velocity": 0.5905511811023622
        },
        {
          "duration": 0.13452391041664669,
          "durationTicks": 113,
          "midi": 76,
          "name": "E5",
          "ticks": 240240,
          "time": 421.4286505,
          "velocity": 0.5905511811023622
        },
        {
          "duration": 0.13452391041664669,
          "durationTicks": 113,
          "midi": 81,
          "name": "A5",
          "ticks": 240360,
          "time": 421.57150775,
          "velocity": 0.5905511811023622
        },
        {
          "duration": 0.5416670729166526,
          "durationTicks": 455,
          "midi": 66,
          "name": "F#4",
          "ticks": 240480,
          "time": 421.714365,
          "velocity": 0.5905511811023622
        },
        {
          "duration": 0.13452391041664669,
          "durationTicks": 113,
          "midi": 69,
          "name": "A4",
          "ticks": 240600,
          "time": 421.85722225,
          "velocity": 0.5905511811023622
        },
        {
          "duration": 0.13452391041670353,
          "durationTicks": 113,
          "midi": 72,
          "name": "C5",
          "ticks": 240720,
          "time": 422.00007949999997,
          "velocity": 0.5905511811023622
        },
        {
          "duration": 0.13452391041664669,
          "durationTicks": 113,
          "midi": 75,
          "name": "D#5",
          "ticks": 240840,
          "time": 422.14293675,
          "velocity": 0.5905511811023622
        },
        {
          "duration": 0.5416670729166526,
          "durationTicks": 455,
          "midi": 76,
          "name": "E5",
          "ticks": 240960,
          "time": 422.285794,
          "velocity": 0.5905511811023622
        },
        {
          "duration": 0.5416670729166526,
          "durationTicks": 455,
          "midi": 67,
          "name": "G4",
          "ticks": 240960,
          "time": 422.285794,
          "velocity": 0.5905511811023622
        },
        {
          "duration": 0.27023829791664866,
          "durationTicks": 227,
          "midi": 76,
          "name": "E5",
          "ticks": 241440,
          "time": 422.857223,
          "velocity": 0.5905511811023622
        },
        {
          "duration": 0.27023829791664866,
          "durationTicks": 227,
          "midi": 67,
          "name": "G4",
          "ticks": 241440,
          "time": 422.857223,
          "velocity": 0.5905511811023622
        },
        {
          "duration": 0.27023829791664866,
          "durationTicks": 227,
          "midi": 75,
          "name": "D#5",
          "ticks": 241680,
          "time": 423.1429375,
          "velocity": 0.5905511811023622
        },
        {
          "duration": 0.27023829791664866,
          "durationTicks": 227,
          "midi": 66,
          "name": "F#4",
          "ticks": 241680,
          "time": 423.1429375,
          "velocity": 0.5905511811023622
        },
        {
          "duration": 0.5416670729166526,
          "durationTicks": 455,
          "midi": 76,
          "name": "E5",
          "ticks": 241920,
          "time": 423.428652,
          "velocity": 0.5905511811023622
        },
        {
          "duration": 0.5416670729166526,
          "durationTicks": 455,
          "midi": 67,
          "name": "G4",
          "ticks": 241920,
          "time": 423.428652,
          "velocity": 0.5905511811023622
        },
        {
          "duration": 1.1428579999999897,
          "durationTicks": 960,
          "midi": 76,
          "name": "E5",
          "ticks": 242400,
          "time": 424.000081,
          "velocity": 0.5905511811023622
        },
        {
          "duration": 0.13452391041664669,
          "durationTicks": 113,
          "midi": 67,
          "name": "G4",
          "ticks": 242400,
          "time": 424.000081,
          "velocity": 0.5905511811023622
        },
        {
          "duration": 0.13452391041670353,
          "durationTicks": 113,
          "midi": 69,
          "name": "A4",
          "ticks": 242520,
          "time": 424.14293825,
          "velocity": 0.5905511811023622
        },
        {
          "duration": 0.27023829791664866,
          "durationTicks": 227,
          "midi": 70,
          "name": "A#4",
          "ticks": 242640,
          "time": 424.2857955,
          "velocity": 0.5905511811023622
        },
        {
          "duration": 0.27023829791664866,
          "durationTicks": 227,
          "midi": 70,
          "name": "A#4",
          "ticks": 242880,
          "time": 424.57151,
          "velocity": 0.5905511811023622
        },
        {
          "duration": 0.2702382979167055,
          "durationTicks": 227,
          "midi": 69,
          "name": "A4",
          "ticks": 243120,
          "time": 424.8572245,
          "velocity": 0.5905511811023622
        },
        {
          "duration": 0.5416670729166526,
          "durationTicks": 455,
          "midi": 76,
          "name": "E5",
          "ticks": 243360,
          "time": 425.142939,
          "velocity": 0.5905511811023622
        },
        {
          "duration": 0.27023829791664866,
          "durationTicks": 227,
          "midi": 69,
          "name": "A4",
          "ticks": 243360,
          "time": 425.142939,
          "velocity": 0.5905511811023622
        },
        {
          "duration": 0.27023829791664866,
          "durationTicks": 227,
          "midi": 67,
          "name": "G4",
          "ticks": 243600,
          "time": 425.4286535,
          "velocity": 0.5905511811023622
        },
        {
          "duration": 0.2702382979167055,
          "durationTicks": 227,
          "midi": 67,
          "name": "G4",
          "ticks": 243840,
          "time": 425.714368,
          "velocity": 0.5905511811023622
        },
        {
          "duration": 0.13452391041670353,
          "durationTicks": 113,
          "midi": 73,
          "name": "C#5",
          "ticks": 244080,
          "time": 426.00008249999996,
          "velocity": 0.5905511811023622
        },
        {
          "duration": 0.2702382979167055,
          "durationTicks": 227,
          "midi": 65,
          "name": "F4",
          "ticks": 244080,
          "time": 426.00008249999996,
          "velocity": 0.5905511811023622
        },
        {
          "duration": 0.13452391041670353,
          "durationTicks": 113,
          "midi": 74,
          "name": "D5",
          "ticks": 244200,
          "time": 426.14293975,
          "velocity": 0.5905511811023622
        },
        {
          "duration": 0.27023829791664866,
          "durationTicks": 227,
          "midi": 76,
          "name": "E5",
          "ticks": 244320,
          "time": 426.285797,
          "velocity": 0.5905511811023622
        },
        {
          "duration": 0.27023829791664866,
          "durationTicks": 227,
          "midi": 67,
          "name": "G4",
          "ticks": 244320,
          "time": 426.285797,
          "velocity": 0.5905511811023622
        },
        {
          "duration": 0.13452391041670353,
          "durationTicks": 113,
          "midi": 76,
          "name": "E5",
          "ticks": 244560,
          "time": 426.5715115,
          "velocity": 0.5905511811023622
        },
        {
          "duration": 0.2702382979167055,
          "durationTicks": 227,
          "midi": 65,
          "name": "F4",
          "ticks": 244560,
          "time": 426.5715115,
          "velocity": 0.5905511811023622
        },
        {
          "duration": 0.13452391041664669,
          "durationTicks": 113,
          "midi": 77,
          "name": "F5",
          "ticks": 244680,
          "time": 426.71436875,
          "velocity": 0.5905511811023622
        },
        {
          "duration": 0.2702382979167055,
          "durationTicks": 227,
          "midi": 79,
          "name": "G5",
          "ticks": 244800,
          "time": 426.85722599999997,
          "velocity": 0.5905511811023622
        },
        {
          "duration": 0.2702382979167055,
          "durationTicks": 227,
          "midi": 64,
          "name": "E4",
          "ticks": 244800,
          "time": 426.85722599999997,
          "velocity": 0.5905511811023622
        },
        {
          "duration": 0.13452391041664669,
          "durationTicks": 113,
          "midi": 79,
          "name": "G5",
          "ticks": 245040,
          "time": 427.1429405,
          "velocity": 0.5905511811023622
        },
        {
          "duration": 0.27023829791664866,
          "durationTicks": 227,
          "midi": 62,
          "name": "D4",
          "ticks": 245040,
          "time": 427.1429405,
          "velocity": 0.5905511811023622
        },
        {
          "duration": 0.13452391041670353,
          "durationTicks": 113,
          "midi": 81,
          "name": "A5",
          "ticks": 245160,
          "time": 427.28579775,
          "velocity": 0.5905511811023622
        },
        {
          "duration": 0.5416670729166526,
          "durationTicks": 455,
          "midi": 82,
          "name": "A#5",
          "ticks": 245280,
          "time": 427.428655,
          "velocity": 0.5905511811023622
        },
        {
          "duration": 0.06547623958334725,
          "durationTicks": 55,
          "midi": 64,
          "name": "E4",
          "ticks": 245280,
          "time": 427.428655,
          "velocity": 0.5905511811023622
        },
        {
          "duration": 0.06547623958334725,
          "durationTicks": 55,
          "midi": 65,
          "name": "F4",
          "ticks": 245340,
          "time": 427.500083625,
          "velocity": 0.5905511811023622
        },
        {
          "duration": 0.4047622083333522,
          "durationTicks": 340,
          "midi": 64,
          "name": "E4",
          "ticks": 245400,
          "time": 427.57151225,
          "velocity": 0.5905511811023622
        },
        {
          "duration": 0.27023829791664866,
          "durationTicks": 227,
          "midi": 82,
          "name": "A#5",
          "ticks": 245760,
          "time": 428.000084,
          "velocity": 0.5905511811023622
        },
        {
          "duration": 1.6273821729166684,
          "durationTicks": 1367,
          "midi": 76,
          "name": "E5",
          "ticks": 245760,
          "time": 428.000084,
          "velocity": 0.5905511811023622
        },
        {
          "duration": 0.27023829791664866,
          "durationTicks": 227,
          "midi": 81,
          "name": "A5",
          "ticks": 246000,
          "time": 428.2857985,
          "velocity": 0.5905511811023622
        },
        {
          "duration": 0.27023829791664866,
          "durationTicks": 227,
          "midi": 81,
          "name": "A5",
          "ticks": 246240,
          "time": 428.571513,
          "velocity": 0.5905511811023622
        },
        {
          "duration": 0.27023829791664866,
          "durationTicks": 227,
          "midi": 79,
          "name": "G5",
          "ticks": 246480,
          "time": 428.8572275,
          "velocity": 0.5905511811023622
        },
        {
          "duration": 0.27023829791664866,
          "durationTicks": 227,
          "midi": 79,
          "name": "G5",
          "ticks": 246720,
          "time": 429.142942,
          "velocity": 0.5905511811023622
        },
        {
          "duration": 0.27023829791664866,
          "durationTicks": 227,
          "midi": 77,
          "name": "F5",
          "ticks": 246960,
          "time": 429.4286565,
          "velocity": 0.5905511811023622
        },
        {
          "duration": 0.27023829791664866,
          "durationTicks": 227,
          "midi": 79,
          "name": "G5",
          "ticks": 247200,
          "time": 429.714371,
          "velocity": 0.5905511811023622
        },
        {
          "duration": 0.8571434999999497,
          "durationTicks": 720,
          "midi": 74,
          "name": "D5",
          "ticks": 247200,
          "time": 429.714371,
          "velocity": 0.5905511811023622
        },
        {
          "duration": 0.27023829791664866,
          "durationTicks": 227,
          "midi": 77,
          "name": "F5",
          "ticks": 247440,
          "time": 430.0000855,
          "velocity": 0.5905511811023622
        },
        {
          "duration": 0.27023829791664866,
          "durationTicks": 227,
          "midi": 76,
          "name": "E5",
          "ticks": 247680,
          "time": 430.2858,
          "velocity": 0.5905511811023622
        },
        {
          "duration": 0.7702386729166619,
          "durationTicks": 647,
          "midi": 74,
          "name": "D5",
          "ticks": 247920,
          "time": 430.5715145,
          "velocity": 0.5905511811023622
        },
        {
          "duration": 0.5416670729167095,
          "durationTicks": 455,
          "midi": 76,
          "name": "E5",
          "ticks": 248160,
          "time": 430.85722899999996,
          "velocity": 0.5905511811023622
        },
        {
          "duration": 1.6273821729166684,
          "durationTicks": 1367,
          "midi": 72,
          "name": "C5",
          "ticks": 248640,
          "time": 431.428658,
          "velocity": 0.5905511811023622
        },
        {
          "duration": 0.2702382979167055,
          "durationTicks": 227,
          "midi": 76,
          "name": "E5",
          "ticks": 248880,
          "time": 431.71437249999997,
          "velocity": 0.5905511811023622
        },
        {
          "duration": 0.13452391041664669,
          "durationTicks": 113,
          "midi": 81,
          "name": "A5",
          "ticks": 249120,
          "time": 432.000087,
          "velocity": 0.5905511811023622
        },
        {
          "duration": 0.13452391041664669,
          "durationTicks": 113,
          "midi": 79,
          "name": "G5",
          "ticks": 249240,
          "time": 432.14294425,
          "velocity": 0.5905511811023622
        },
        {
          "duration": 0.27023829791664866,
          "durationTicks": 227,
          "midi": 81,
          "name": "A5",
          "ticks": 249360,
          "time": 432.2858015,
          "velocity": 0.5905511811023622
        },
        {
          "duration": 0.5416670729166526,
          "durationTicks": 455,
          "midi": 74,
          "name": "D5",
          "ticks": 249600,
          "time": 432.571516,
          "velocity": 0.5905511811023622
        },
        {
          "duration": 0.5714290000000233,
          "durationTicks": 480,
          "midi": 70,
          "name": "A#4",
          "ticks": 250080,
          "time": 433.142945,
          "velocity": 0.5905511811023622
        },
        {
          "duration": 0.13452391041670353,
          "durationTicks": 113,
          "midi": 74,
          "name": "D5",
          "ticks": 250200,
          "time": 433.28580224999996,
          "velocity": 0.5905511811023622
        },
        {
          "duration": 0.13452391041670353,
          "durationTicks": 113,
          "midi": 76,
          "name": "E5",
          "ticks": 250320,
          "time": 433.4286595,
          "velocity": 0.5905511811023622
        },
        {
          "duration": 0.13452391041664669,
          "durationTicks": 113,
          "midi": 77,
          "name": "F5",
          "ticks": 250440,
          "time": 433.57151675,
          "velocity": 0.5905511811023622
        },
        {
          "duration": 0.13452391041664669,
          "durationTicks": 113,
          "midi": 79,
          "name": "G5",
          "ticks": 250560,
          "time": 433.714374,
          "velocity": 0.5905511811023622
        },
        {
          "duration": 0.5416670729166526,
          "durationTicks": 455,
          "midi": 70,
          "name": "A#4",
          "ticks": 250560,
          "time": 433.714374,
          "velocity": 0.5905511811023622
        },
        {
          "duration": 0.13452391041670353,
          "durationTicks": 113,
          "midi": 76,
          "name": "E5",
          "ticks": 250680,
          "time": 433.85723125,
          "velocity": 0.5905511811023622
        },
        {
          "duration": 0.13452391041664669,
          "durationTicks": 113,
          "midi": 77,
          "name": "F5",
          "ticks": 250800,
          "time": 434.0000885,
          "velocity": 0.5905511811023622
        },
        {
          "duration": 0.13452391041670353,
          "durationTicks": 113,
          "midi": 79,
          "name": "G5",
          "ticks": 250920,
          "time": 434.14294574999997,
          "velocity": 0.5905511811023622
        },
        {
          "duration": 1.6273821729166684,
          "durationTicks": 1367,
          "midi": 73,
          "name": "C#5",
          "ticks": 251040,
          "time": 434.285803,
          "velocity": 0.5905511811023622
        },
        {
          "duration": 0.13452391041664669,
          "durationTicks": 113,
          "midi": 70,
          "name": "A#4",
          "ticks": 251280,
          "time": 434.5715175,
          "velocity": 0.5905511811023622
        },
        {
          "duration": 0.13452391041670353,
          "durationTicks": 113,
          "midi": 69,
          "name": "A4",
          "ticks": 251400,
          "time": 434.71437475,
          "velocity": 0.5905511811023622
        },
        {
          "duration": 0.27023829791664866,
          "durationTicks": 227,
          "midi": 67,
          "name": "G4",
          "ticks": 251520,
          "time": 434.857232,
          "velocity": 0.5905511811023622
        },
        {
          "duration": 0.13452391041664669,
          "durationTicks": 113,
          "midi": 67,
          "name": "G4",
          "ticks": 251760,
          "time": 435.1429465,
          "velocity": 0.5905511811023622
        },
        {
          "duration": 0.13452391041664669,
          "durationTicks": 113,
          "midi": 65,
          "name": "F4",
          "ticks": 251880,
          "time": 435.28580375,
          "velocity": 0.5905511811023622
        },
        {
          "duration": 0.2702382979167055,
          "durationTicks": 227,
          "midi": 64,
          "name": "E4",
          "ticks": 252000,
          "time": 435.428661,
          "velocity": 0.5905511811023622
        },
        {
          "duration": 0.13452391041670353,
          "durationTicks": 113,
          "midi": 64,
          "name": "E4",
          "ticks": 252240,
          "time": 435.71437549999996,
          "velocity": 0.5905511811023622
        },
        {
          "duration": 0.13452391041670353,
          "durationTicks": 113,
          "midi": 67,
          "name": "G4",
          "ticks": 252360,
          "time": 435.85723275,
          "velocity": 0.5905511811023622
        },
        {
          "duration": 1.6273821729166684,
          "durationTicks": 1367,
          "midi": 74,
          "name": "D5",
          "ticks": 252480,
          "time": 436.00009,
          "velocity": 0.5905511811023622
        },
        {
          "duration": 0.13452391041664669,
          "durationTicks": 113,
          "midi": 65,
          "name": "F4",
          "ticks": 252480,
          "time": 436.00009,
          "velocity": 0.5905511811023622
        },
        {
          "duration": 0.13452391041664669,
          "durationTicks": 113,
          "midi": 69,
          "name": "A4",
          "ticks": 252600,
          "time": 436.14294725,
          "velocity": 0.5905511811023622
        },
        {
          "duration": 0.13452391041670353,
          "durationTicks": 113,
          "midi": 62,
          "name": "D4",
          "ticks": 252720,
          "time": 436.2858045,
          "velocity": 0.5905511811023622
        },
        {
          "duration": 0.13452391041664669,
          "durationTicks": 113,
          "midi": 64,
          "name": "E4",
          "ticks": 252840,
          "time": 436.42866175,
          "velocity": 0.5905511811023622
        },
        {
          "duration": 0.13452391041670353,
          "durationTicks": 113,
          "midi": 65,
          "name": "F4",
          "ticks": 252960,
          "time": 436.57151899999997,
          "velocity": 0.5905511811023622
        },
        {
          "duration": 0.13452391041664669,
          "durationTicks": 113,
          "midi": 67,
          "name": "G4",
          "ticks": 253080,
          "time": 436.71437625,
          "velocity": 0.5905511811023622
        },
        {
          "duration": 0.13452391041664669,
          "durationTicks": 113,
          "midi": 65,
          "name": "F4",
          "ticks": 253200,
          "time": 436.8572335,
          "velocity": 0.5905511811023622
        },
        {
          "duration": 0.13452391041664669,
          "durationTicks": 113,
          "midi": 67,
          "name": "G4",
          "ticks": 253320,
          "time": 437.00009075,
          "velocity": 0.5905511811023622
        },
        {
          "duration": 0.06547623958334725,
          "durationTicks": 55,
          "midi": 67,
          "name": "G4",
          "ticks": 253440,
          "time": 437.142948,
          "velocity": 0.5905511811023622
        },
        {
          "duration": 0.06547623958334725,
          "durationTicks": 55,
          "midi": 69,
          "name": "A4",
          "ticks": 253499,
          "time": 437.21318614791664,
          "velocity": 0.5905511811023622
        },
        {
          "duration": 0.06547623958334725,
          "durationTicks": 55,
          "midi": 67,
          "name": "G4",
          "ticks": 253559,
          "time": 437.28461477291665,
          "velocity": 0.5905511811023622
        },
        {
          "duration": 0.06547623958329041,
          "durationTicks": 55,
          "midi": 69,
          "name": "A4",
          "ticks": 253620,
          "time": 437.357233875,
          "velocity": 0.5905511811023622
        },
        {
          "duration": 0.06547623958334725,
          "durationTicks": 55,
          "midi": 67,
          "name": "G4",
          "ticks": 253679,
          "time": 437.4274720229167,
          "velocity": 0.5905511811023622
        },
        {
          "duration": 0.06547623958329041,
          "durationTicks": 55,
          "midi": 69,
          "name": "A4",
          "ticks": 253739,
          "time": 437.4989006479167,
          "velocity": 0.5905511811023622
        },
        {
          "duration": 0.0666667166666457,
          "durationTicks": 56,
          "midi": 65,
          "name": "F4",
          "ticks": 253800,
          "time": 437.57151975,
          "velocity": 0.5905511811023622
        },
        {
          "duration": 0.0666667166666457,
          "durationTicks": 56,
          "midi": 67,
          "name": "G4",
          "ticks": 253860,
          "time": 437.642948375,
          "velocity": 0.5905511811023622
        },
        {
          "duration": 0.40595268541665064,
          "durationTicks": 341,
          "midi": 72,
          "name": "C5",
          "ticks": 253920,
          "time": 437.714377,
          "velocity": 0.5905511811023622
        },
        {
          "duration": 0.27023829791664866,
          "durationTicks": 227,
          "midi": 69,
          "name": "A4",
          "ticks": 253920,
          "time": 437.714377,
          "velocity": 0.5905511811023622
        },
        {
          "duration": 0.13452391041670353,
          "durationTicks": 113,
          "midi": 69,
          "name": "A4",
          "ticks": 254160,
          "time": 438.0000915,
          "velocity": 0.5905511811023622
        },
        {
          "duration": 0.13452391041670353,
          "durationTicks": 113,
          "midi": 74,
          "name": "D5",
          "ticks": 254280,
          "time": 438.14294874999996,
          "velocity": 0.5905511811023622
        },
        {
          "duration": 0.13452391041670353,
          "durationTicks": 113,
          "midi": 70,
          "name": "A#4",
          "ticks": 254280,
          "time": 438.14294874999996,
          "velocity": 0.5905511811023622
        },
        {
          "duration": 0.5416670729166526,
          "durationTicks": 455,
          "midi": 76,
          "name": "E5",
          "ticks": 254400,
          "time": 438.285806,
          "velocity": 0.5905511811023622
        },
        {
          "duration": 0.27023829791664866,
          "durationTicks": 227,
          "midi": 72,
          "name": "C5",
          "ticks": 254400,
          "time": 438.285806,
          "velocity": 0.5905511811023622
        },
        {
          "duration": 0.13452391041664669,
          "durationTicks": 113,
          "midi": 72,
          "name": "C5",
          "ticks": 254640,
          "time": 438.5715205,
          "velocity": 0.5905511811023622
        },
        {
          "duration": 0.13452391041670353,
          "durationTicks": 113,
          "midi": 70,
          "name": "A#4",
          "ticks": 254760,
          "time": 438.71437775,
          "velocity": 0.5905511811023622
        },
        {
          "duration": 0.5416670729166526,
          "durationTicks": 455,
          "midi": 78,
          "name": "F#5",
          "ticks": 254880,
          "time": 438.857235,
          "velocity": 0.5905511811023622
        },
        {
          "duration": 0.27023829791664866,
          "durationTicks": 227,
          "midi": 69,
          "name": "A4",
          "ticks": 254880,
          "time": 438.857235,
          "velocity": 0.5905511811023622
        },
        {
          "duration": 0.13452391041664669,
          "durationTicks": 113,
          "midi": 74,
          "name": "D5",
          "ticks": 255120,
          "time": 439.1429495,
          "velocity": 0.5905511811023622
        },
        {
          "duration": 0.13452391041664669,
          "durationTicks": 113,
          "midi": 72,
          "name": "C5",
          "ticks": 255240,
          "time": 439.28580675,
          "velocity": 0.5905511811023622
        },
        {
          "duration": 0.8130958479166566,
          "durationTicks": 683,
          "midi": 79,
          "name": "G5",
          "ticks": 255360,
          "time": 439.428664,
          "velocity": 0.5905511811023622
        },
        {
          "duration": 0.27023829791664866,
          "durationTicks": 227,
          "midi": 70,
          "name": "A#4",
          "ticks": 255360,
          "time": 439.428664,
          "velocity": 0.5905511811023622
        },
        {
          "duration": 0.13452391041664669,
          "durationTicks": 113,
          "midi": 74,
          "name": "D5",
          "ticks": 255600,
          "time": 439.7143785,
          "velocity": 0.5905511811023622
        },
        {
          "duration": 0.13452391041670353,
          "durationTicks": 113,
          "midi": 72,
          "name": "C5",
          "ticks": 255720,
          "time": 439.85723575,
          "velocity": 0.5905511811023622
        },
        {
          "duration": 0.27023829791664866,
          "durationTicks": 227,
          "midi": 70,
          "name": "A#4",
          "ticks": 255840,
          "time": 440.000093,
          "velocity": 0.5905511811023622
        },
        {
          "duration": 0.13452391041670353,
          "durationTicks": 113,
          "midi": 79,
          "name": "G5",
          "ticks": 256080,
          "time": 440.2858075,
          "velocity": 0.5905511811023622
        },
        {
          "duration": 0.13452391041670353,
          "durationTicks": 113,
          "midi": 70,
          "name": "A#4",
          "ticks": 256080,
          "time": 440.2858075,
          "velocity": 0.5905511811023622
        },
        {
          "duration": 0.13452391041670353,
          "durationTicks": 113,
          "midi": 78,
          "name": "F#5",
          "ticks": 256200,
          "time": 440.42866475,
          "velocity": 0.5905511811023622
        },
        {
          "duration": 0.13452391041670353,
          "durationTicks": 113,
          "midi": 69,
          "name": "A4",
          "ticks": 256200,
          "time": 440.42866475,
          "velocity": 0.5905511811023622
        },
        {
          "duration": 0.8130958479167134,
          "durationTicks": 683,
          "midi": 79,
          "name": "G5",
          "ticks": 256320,
          "time": 440.57152199999996,
          "velocity": 0.5905511811023622
        },
        {
          "duration": 0.13452391041670353,
          "durationTicks": 113,
          "midi": 70,
          "name": "A#4",
          "ticks": 256320,
          "time": 440.57152199999996,
          "velocity": 0.5905511811023622
        },
        {
          "duration": 0.13452391041670353,
          "durationTicks": 113,
          "midi": 72,
          "name": "C5",
          "ticks": 256440,
          "time": 440.71437925,
          "velocity": 0.5905511811023622
        },
        {
          "duration": 0.13452391041664669,
          "durationTicks": 113,
          "midi": 74,
          "name": "D5",
          "ticks": 256560,
          "time": 440.8572365,
          "velocity": 0.5905511811023622
        },
        {
          "duration": 0.13452391041664669,
          "durationTicks": 113,
          "midi": 70,
          "name": "A#4",
          "ticks": 256680,
          "time": 441.00009375,
          "velocity": 0.5905511811023622
        },
        {
          "duration": 0.4059526854167075,
          "durationTicks": 341,
          "midi": 67,
          "name": "G4",
          "ticks": 256800,
          "time": 441.142951,
          "velocity": 0.5905511811023622
        },
        {
          "duration": 0.13452391041670353,
          "durationTicks": 113,
          "midi": 76,
          "name": "E5",
          "ticks": 257040,
          "time": 441.42866549999997,
          "velocity": 0.5905511811023622
        },
        {
          "duration": 0.13452391041664669,
          "durationTicks": 113,
          "midi": 77,
          "name": "F5",
          "ticks": 257160,
          "time": 441.57152275,
          "velocity": 0.5905511811023622
        },
        {
          "duration": 0.13452391041664669,
          "durationTicks": 113,
          "midi": 69,
          "name": "A4",
          "ticks": 257160,
          "time": 441.57152275,
          "velocity": 0.5905511811023622
        },
        {
          "duration": 0.27023829791664866,
          "durationTicks": 227,
          "midi": 79,
          "name": "G5",
          "ticks": 257280,
          "time": 441.71438,
          "velocity": 0.5905511811023622
        },
        {
          "duration": 0.5416670729166526,
          "durationTicks": 455,
          "midi": 71,
          "name": "B4",
          "ticks": 257280,
          "time": 441.71438,
          "velocity": 0.5905511811023622
        },
        {
          "duration": 0.13452391041670353,
          "durationTicks": 113,
          "midi": 79,
          "name": "G5",
          "ticks": 257520,
          "time": 442.0000945,
          "velocity": 0.5905511811023622
        },
        {
          "duration": 0.13452391041664669,
          "durationTicks": 113,
          "midi": 77,
          "name": "F5",
          "ticks": 257640,
          "time": 442.14295175,
          "velocity": 0.5905511811023622
        },
        {
          "duration": 0.2702382979167055,
          "durationTicks": 227,
          "midi": 76,
          "name": "E5",
          "ticks": 257760,
          "time": 442.285809,
          "velocity": 0.5905511811023622
        },
        {
          "duration": 0.5416670729166526,
          "durationTicks": 455,
          "midi": 73,
          "name": "C#5",
          "ticks": 257760,
          "time": 442.285809,
          "velocity": 0.5905511811023622
        },
        {
          "duration": 0.13452391041664669,
          "durationTicks": 113,
          "midi": 81,
          "name": "A5",
          "ticks": 258000,
          "time": 442.5715235,
          "velocity": 0.5905511811023622
        },
        {
          "duration": 0.13452391041670353,
          "durationTicks": 113,
          "midi": 79,
          "name": "G5",
          "ticks": 258120,
          "time": 442.71438075,
          "velocity": 0.5905511811023622
        },
        {
          "duration": 0.27023829791664866,
          "durationTicks": 227,
          "midi": 77,
          "name": "F5",
          "ticks": 258240,
          "time": 442.857238,
          "velocity": 0.5905511811023622
        },
        {
          "duration": 0.8130958479166566,
          "durationTicks": 683,
          "midi": 74,
          "name": "D5",
          "ticks": 258240,
          "time": 442.857238,
          "velocity": 0.5905511811023622
        },
        {
          "duration": 0.13452391041670353,
          "durationTicks": 113,
          "midi": 81,
          "name": "A5",
          "ticks": 258480,
          "time": 443.1429525,
          "velocity": 0.5905511811023622
        },
        {
          "duration": 0.13452391041664669,
          "durationTicks": 113,
          "midi": 79,
          "name": "G5",
          "ticks": 258600,
          "time": 443.28580975,
          "velocity": 0.5905511811023622
        },
        {
          "duration": 0.27023829791664866,
          "durationTicks": 227,
          "midi": 77,
          "name": "F5",
          "ticks": 258720,
          "time": 443.428667,
          "velocity": 0.5905511811023622
        },
        {
          "duration": 0.13452391041664669,
          "durationTicks": 113,
          "midi": 77,
          "name": "F5",
          "ticks": 258960,
          "time": 443.7143815,
          "velocity": 0.5905511811023622
        },
        {
          "duration": 0.13452391041664669,
          "durationTicks": 113,
          "midi": 74,
          "name": "D5",
          "ticks": 258960,
          "time": 443.7143815,
          "velocity": 0.5905511811023622
        },
        {
          "duration": 0.13452391041670353,
          "durationTicks": 113,
          "midi": 76,
          "name": "E5",
          "ticks": 259080,
          "time": 443.85723874999996,
          "velocity": 0.5905511811023622
        },
        {
          "duration": 0.13452391041670353,
          "durationTicks": 113,
          "midi": 73,
          "name": "C#5",
          "ticks": 259080,
          "time": 443.85723874999996,
          "velocity": 0.5905511811023622
        },
        {
          "duration": 0.13452391041664669,
          "durationTicks": 113,
          "midi": 77,
          "name": "F5",
          "ticks": 259200,
          "time": 444.000096,
          "velocity": 0.5905511811023622
        },
        {
          "duration": 0.5416670729166526,
          "durationTicks": 455,
          "midi": 74,
          "name": "D5",
          "ticks": 259200,
          "time": 444.000096,
          "velocity": 0.5905511811023622
        },
        {
          "duration": 0.13452391041664669,
          "durationTicks": 113,
          "midi": 79,
          "name": "G5",
          "ticks": 259320,
          "time": 444.14295325,
          "velocity": 0.5905511811023622
        },
        {
          "duration": 0.13452391041664669,
          "durationTicks": 113,
          "midi": 81,
          "name": "A5",
          "ticks": 259440,
          "time": 444.2858105,
          "velocity": 0.5905511811023622
        },
        {
          "duration": 0.13452391041670353,
          "durationTicks": 113,
          "midi": 77,
          "name": "F5",
          "ticks": 259560,
          "time": 444.42866775,
          "velocity": 0.5905511811023622
        },
        {
          "duration": 1.0845246229167174,
          "durationTicks": 911,
          "midi": 74,
          "name": "D5",
          "ticks": 259680,
          "time": 444.57152499999995,
          "velocity": 0.5905511811023622
        },
        {
          "duration": 0.13452391041670353,
          "durationTicks": 113,
          "midi": 69,
          "name": "A4",
          "ticks": 259800,
          "time": 444.71438224999997,
          "velocity": 0.5905511811023622
        },
        {
          "duration": 0.13452391041664669,
          "durationTicks": 113,
          "midi": 71,
          "name": "B4",
          "ticks": 259920,
          "time": 444.8572395,
          "velocity": 0.5905511811023622
        },
        {
          "duration": 0.13452391041664669,
          "durationTicks": 113,
          "midi": 72,
          "name": "C5",
          "ticks": 260040,
          "time": 445.00009675,
          "velocity": 0.5905511811023622
        },
        {
          "duration": 0.13452391041664669,
          "durationTicks": 113,
          "midi": 71,
          "name": "B4",
          "ticks": 260160,
          "time": 445.14295400000003,
          "velocity": 0.5905511811023622
        },
        {
          "duration": 0.13452391041670353,
          "durationTicks": 113,
          "midi": 69,
          "name": "A4",
          "ticks": 260280,
          "time": 445.28581125,
          "velocity": 0.5905511811023622
        },
        {
          "duration": 0.13452391041670353,
          "durationTicks": 113,
          "midi": 67,
          "name": "G4",
          "ticks": 260400,
          "time": 445.42866849999996,
          "velocity": 0.5905511811023622
        },
        {
          "duration": 0.13452391041664669,
          "durationTicks": 113,
          "midi": 65,
          "name": "F4",
          "ticks": 260520,
          "time": 445.57152575,
          "velocity": 0.5905511811023622
        },
        {
          "duration": 1.6273821729166684,
          "durationTicks": 1367,
          "midi": 64,
          "name": "E4",
          "ticks": 260640,
          "time": 445.714383,
          "velocity": 0.5905511811023622
        },
        {
          "duration": 0.13452391041664669,
          "durationTicks": 113,
          "midi": 68,
          "name": "G#4",
          "ticks": 260760,
          "time": 445.85724025,
          "velocity": 0.5905511811023622
        },
        {
          "duration": 0.13452391041670353,
          "durationTicks": 113,
          "midi": 71,
          "name": "B4",
          "ticks": 260880,
          "time": 446.0000975,
          "velocity": 0.5905511811023622
        },
        {
          "duration": 0.13452391041670353,
          "durationTicks": 113,
          "midi": 74,
          "name": "D5",
          "ticks": 261000,
          "time": 446.14295475,
          "velocity": 0.5905511811023622
        },
        {
          "duration": 0.13452391041670353,
          "durationTicks": 113,
          "midi": 72,
          "name": "C5",
          "ticks": 261120,
          "time": 446.28581199999996,
          "velocity": 0.5905511811023622
        },
        {
          "duration": 0.13452391041664669,
          "durationTicks": 113,
          "midi": 81,
          "name": "A5",
          "ticks": 261240,
          "time": 446.42866925,
          "velocity": 0.5905511811023622
        },
        {
          "duration": 0.13452391041664669,
          "durationTicks": 113,
          "midi": 79,
          "name": "G5",
          "ticks": 261360,
          "time": 446.5715265,
          "velocity": 0.5905511811023622
        },
        {
          "duration": 0.13452391041664669,
          "durationTicks": 113,
          "midi": 77,
          "name": "F5",
          "ticks": 261480,
          "time": 446.71438375,
          "velocity": 0.5905511811023622
        },
        {
          "duration": 0.13452391041670353,
          "durationTicks": 113,
          "midi": 76,
          "name": "E5",
          "ticks": 261600,
          "time": 446.857241,
          "velocity": 0.5905511811023622
        },
        {
          "duration": 0.13452391041670353,
          "durationTicks": 113,
          "midi": 74,
          "name": "D5",
          "ticks": 261720,
          "time": 447.00009824999995,
          "velocity": 0.5905511811023622
        },
        {
          "duration": 0.13452391041670353,
          "durationTicks": 113,
          "midi": 72,
          "name": "C5",
          "ticks": 261840,
          "time": 447.14295549999997,
          "velocity": 0.5905511811023622
        },
        {
          "duration": 0.13452391041664669,
          "durationTicks": 113,
          "midi": 71,
          "name": "B4",
          "ticks": 261960,
          "time": 447.28581275,
          "velocity": 0.5905511811023622
        },
        {
          "duration": 0.13452391041664669,
          "durationTicks": 113,
          "midi": 69,
          "name": "A4",
          "ticks": 262080,
          "time": 447.42867,
          "velocity": 0.5905511811023622
        },
        {
          "duration": 0.13452391041664669,
          "durationTicks": 113,
          "midi": 68,
          "name": "G#4",
          "ticks": 262200,
          "time": 447.57152725000003,
          "velocity": 0.5905511811023622
        },
        {
          "duration": 0.13452391041670353,
          "durationTicks": 113,
          "midi": 66,
          "name": "F#4",
          "ticks": 262320,
          "time": 447.7143845,
          "velocity": 0.5905511811023622
        },
        {
          "duration": 0.13452391041670353,
          "durationTicks": 113,
          "midi": 64,
          "name": "E4",
          "ticks": 262440,
          "time": 447.85724174999996,
          "velocity": 0.5905511811023622
        },
        {
          "duration": 1.0845246229166605,
          "durationTicks": 911,
          "midi": 69,
          "name": "A4",
          "ticks": 262560,
          "time": 448.000099,
          "velocity": 0.5905511811023622
        },
        {
          "duration": 0.13452391041664669,
          "durationTicks": 113,
          "midi": 64,
          "name": "E4",
          "ticks": 262680,
          "time": 448.14295625,
          "velocity": 0.5905511811023622
        },
        {
          "duration": 0.13452391041664669,
          "durationTicks": 113,
          "midi": 66,
          "name": "F#4",
          "ticks": 262800,
          "time": 448.2858135,
          "velocity": 0.5905511811023622
        },
        {
          "duration": 0.13452391041670353,
          "durationTicks": 113,
          "midi": 67,
          "name": "G4",
          "ticks": 262920,
          "time": 448.42867075,
          "velocity": 0.5905511811023622
        },
        {
          "duration": 0.13452391041670353,
          "durationTicks": 113,
          "midi": 66,
          "name": "F#4",
          "ticks": 263040,
          "time": 448.571528,
          "velocity": 0.5905511811023622
        },
        {
          "duration": 0.13452391041670353,
          "durationTicks": 113,
          "midi": 64,
          "name": "E4",
          "ticks": 263160,
          "time": 448.71438524999996,
          "velocity": 0.5905511811023622
        },
        {
          "duration": 0.13452391041664669,
          "durationTicks": 113,
          "midi": 62,
          "name": "D4",
          "ticks": 263280,
          "time": 448.8572425,
          "velocity": 0.5905511811023622
        },
        {
          "duration": 0.13452391041664669,
          "durationTicks": 113,
          "midi": 60,
          "name": "C4",
          "ticks": 263400,
          "time": 449.00009975,
          "velocity": 0.5905511811023622
        },
        {
          "duration": 1.6273821729166684,
          "durationTicks": 1367,
          "midi": 59,
          "name": "B3",
          "ticks": 263520,
          "time": 449.142957,
          "velocity": 0.5905511811023622
        },
        {
          "duration": 0.13452391041670353,
          "durationTicks": 113,
          "midi": 63,
          "name": "D#4",
          "ticks": 263640,
          "time": 449.28581425,
          "velocity": 0.5905511811023622
        },
        {
          "duration": 0.13452391041670353,
          "durationTicks": 113,
          "midi": 66,
          "name": "F#4",
          "ticks": 263760,
          "time": 449.42867149999995,
          "velocity": 0.5905511811023622
        },
        {
          "duration": 0.13452391041670353,
          "durationTicks": 113,
          "midi": 69,
          "name": "A4",
          "ticks": 263880,
          "time": 449.57152874999997,
          "velocity": 0.5905511811023622
        },
        {
          "duration": 0.13452391041664669,
          "durationTicks": 113,
          "midi": 67,
          "name": "G4",
          "ticks": 264000,
          "time": 449.714386,
          "velocity": 0.5905511811023622
        },
        {
          "duration": 0.13452391041664669,
          "durationTicks": 113,
          "midi": 76,
          "name": "E5",
          "ticks": 264120,
          "time": 449.85724325,
          "velocity": 0.5905511811023622
        },
        {
          "duration": 0.13452391041664669,
          "durationTicks": 113,
          "midi": 74,
          "name": "D5",
          "ticks": 264240,
          "time": 450.00010050000003,
          "velocity": 0.5905511811023622
        },
        {
          "duration": 0.13452391041670353,
          "durationTicks": 113,
          "midi": 72,
          "name": "C5",
          "ticks": 264360,
          "time": 450.14295775,
          "velocity": 0.5905511811023622
        },
        {
          "duration": 0.13452391041670353,
          "durationTicks": 113,
          "midi": 71,
          "name": "B4",
          "ticks": 264480,
          "time": 450.28581499999996,
          "velocity": 0.5905511811023622
        },
        {
          "duration": 0.13452391041664669,
          "durationTicks": 113,
          "midi": 69,
          "name": "A4",
          "ticks": 264600,
          "time": 450.42867225,
          "velocity": 0.5905511811023622
        },
        {
          "duration": 0.13452391041664669,
          "durationTicks": 113,
          "midi": 67,
          "name": "G4",
          "ticks": 264720,
          "time": 450.5715295,
          "velocity": 0.5905511811023622
        },
        {
          "duration": 0.13452391041664669,
          "durationTicks": 113,
          "midi": 66,
          "name": "F#4",
          "ticks": 264840,
          "time": 450.71438675,
          "velocity": 0.5905511811023622
        },
        {
          "duration": 0.13452391041670353,
          "durationTicks": 113,
          "midi": 64,
          "name": "E4",
          "ticks": 264960,
          "time": 450.857244,
          "velocity": 0.5905511811023622
        },
        {
          "duration": 0.13452391041670353,
          "durationTicks": 113,
          "midi": 62,
          "name": "D4",
          "ticks": 265080,
          "time": 451.00010125,
          "velocity": 0.5905511811023622
        },
        {
          "duration": 0.13452391041670353,
          "durationTicks": 113,
          "midi": 61,
          "name": "C#4",
          "ticks": 265200,
          "time": 451.14295849999996,
          "velocity": 0.5905511811023622
        },
        {
          "duration": 0.13452391041664669,
          "durationTicks": 113,
          "midi": 59,
          "name": "B3",
          "ticks": 265320,
          "time": 451.28581575,
          "velocity": 0.5905511811023622
        },
        {
          "duration": 0.06547623958329041,
          "durationTicks": 55,
          "midi": 70,
          "name": "A#4",
          "ticks": 265440,
          "time": 451.428673,
          "velocity": 0.5905511811023622
        },
        {
          "duration": 0.0654762395834041,
          "durationTicks": 55,
          "midi": 72,
          "name": "C5",
          "ticks": 265500,
          "time": 451.50010162499996,
          "velocity": 0.5905511811023622
        },
        {
          "duration": 0.06547623958329041,
          "durationTicks": 55,
          "midi": 70,
          "name": "A#4",
          "ticks": 265560,
          "time": 451.57153025,
          "velocity": 0.5905511811023622
        },
        {
          "duration": 0.06547623958334725,
          "durationTicks": 55,
          "midi": 72,
          "name": "C5",
          "ticks": 265620,
          "time": 451.642958875,
          "velocity": 0.5905511811023622
        },
        {
          "duration": 0.06547623958334725,
          "durationTicks": 55,
          "midi": 70,
          "name": "A#4",
          "ticks": 265680,
          "time": 451.7143875,
          "velocity": 0.5905511811023622
        },
        {
          "duration": 0.06547623958334725,
          "durationTicks": 55,
          "midi": 72,
          "name": "C5",
          "ticks": 265740,
          "time": 451.785816125,
          "velocity": 0.5905511811023622
        },
        {
          "duration": 0.0654762395834041,
          "durationTicks": 55,
          "midi": 70,
          "name": "A#4",
          "ticks": 265800,
          "time": 451.85724474999995,
          "velocity": 0.5905511811023622
        },
        {
          "duration": 0.06547623958329041,
          "durationTicks": 55,
          "midi": 72,
          "name": "C5",
          "ticks": 265860,
          "time": 451.928673375,
          "velocity": 0.5905511811023622
        },
        {
          "duration": 0.06547623958334725,
          "durationTicks": 55,
          "midi": 70,
          "name": "A#4",
          "ticks": 265920,
          "time": 452.00010199999997,
          "velocity": 0.5905511811023622
        },
        {
          "duration": 0.06547623958334725,
          "durationTicks": 55,
          "midi": 72,
          "name": "C5",
          "ticks": 265980,
          "time": 452.071530625,
          "velocity": 0.5905511811023622
        },
        {
          "duration": 0.06547623958334725,
          "durationTicks": 55,
          "midi": 70,
          "name": "A#4",
          "ticks": 266040,
          "time": 452.14295925,
          "velocity": 0.5905511811023622
        },
        {
          "duration": 0.06547623958334725,
          "durationTicks": 55,
          "midi": 72,
          "name": "C5",
          "ticks": 266100,
          "time": 452.214387875,
          "velocity": 0.5905511811023622
        },
        {
          "duration": 0.06547623958329041,
          "durationTicks": 55,
          "midi": 70,
          "name": "A#4",
          "ticks": 266160,
          "time": 452.2858165,
          "velocity": 0.5905511811023622
        },
        {
          "duration": 0.0654762395834041,
          "durationTicks": 55,
          "midi": 72,
          "name": "C5",
          "ticks": 266220,
          "time": 452.35724512499996,
          "velocity": 0.5905511811023622
        },
        {
          "duration": 0.06547623958329041,
          "durationTicks": 55,
          "midi": 70,
          "name": "A#4",
          "ticks": 266280,
          "time": 452.42867375000003,
          "velocity": 0.5905511811023622
        },
        {
          "duration": 0.06547623958334725,
          "durationTicks": 55,
          "midi": 72,
          "name": "C5",
          "ticks": 266340,
          "time": 452.500102375,
          "velocity": 0.5905511811023622
        },
        {
          "duration": 0.06547623958334725,
          "durationTicks": 55,
          "midi": 70,
          "name": "A#4",
          "ticks": 266400,
          "time": 452.571531,
          "velocity": 0.5905511811023622
        },
        {
          "duration": 0.06547623958329041,
          "durationTicks": 55,
          "midi": 72,
          "name": "C5",
          "ticks": 266460,
          "time": 452.642959625,
          "velocity": 0.5905511811023622
        },
        {
          "duration": 0.0654762395834041,
          "durationTicks": 55,
          "midi": 70,
          "name": "A#4",
          "ticks": 266520,
          "time": 452.71438824999996,
          "velocity": 0.5905511811023622
        },
        {
          "duration": 0.06547623958329041,
          "durationTicks": 55,
          "midi": 72,
          "name": "C5",
          "ticks": 266580,
          "time": 452.785816875,
          "velocity": 0.5905511811023622
        },
        {
          "duration": 0.06547623958334725,
          "durationTicks": 55,
          "midi": 70,
          "name": "A#4",
          "ticks": 266640,
          "time": 452.8572455,
          "velocity": 0.5905511811023622
        },
        {
          "duration": 0.06547623958334725,
          "durationTicks": 55,
          "midi": 72,
          "name": "C5",
          "ticks": 266700,
          "time": 452.928674125,
          "velocity": 0.5905511811023622
        },
        {
          "duration": 0.06547623958334725,
          "durationTicks": 55,
          "midi": 70,
          "name": "A#4",
          "ticks": 266760,
          "time": 453.00010275,
          "velocity": 0.5905511811023622
        },
        {
          "duration": 0.0654762395834041,
          "durationTicks": 55,
          "midi": 72,
          "name": "C5",
          "ticks": 266820,
          "time": 453.07153137499995,
          "velocity": 0.5905511811023622
        },
        {
          "duration": 1.6273821729166684,
          "durationTicks": 1367,
          "midi": 71,
          "name": "B4",
          "ticks": 266880,
          "time": 453.14296,
          "velocity": 0.5905511811023622
        },
        {
          "duration": 0.13452391041670353,
          "durationTicks": 113,
          "midi": 66,
          "name": "F#4",
          "ticks": 267120,
          "time": 453.4286745,
          "velocity": 0.5905511811023622
        },
        {
          "duration": 0.13452391041670353,
          "durationTicks": 113,
          "midi": 69,
          "name": "A4",
          "ticks": 267240,
          "time": 453.57153174999996,
          "velocity": 0.5905511811023622
        },
        {
          "duration": 0.27023829791664866,
          "durationTicks": 227,
          "midi": 67,
          "name": "G4",
          "ticks": 267360,
          "time": 453.714389,
          "velocity": 0.5905511811023622
        },
        {
          "duration": 0.13452391041664669,
          "durationTicks": 113,
          "midi": 67,
          "name": "G4",
          "ticks": 267600,
          "time": 454.0001035,
          "velocity": 0.5905511811023622
        },
        {
          "duration": 0.13452391041670353,
          "durationTicks": 113,
          "midi": 66,
          "name": "F#4",
          "ticks": 267720,
          "time": 454.14296075,
          "velocity": 0.5905511811023622
        },
        {
          "duration": 0.2702382979167055,
          "durationTicks": 227,
          "midi": 64,
          "name": "E4",
          "ticks": 267840,
          "time": 454.28581799999995,
          "velocity": 0.5905511811023622
        },
        {
          "duration": 0.13452391041664669,
          "durationTicks": 113,
          "midi": 64,
          "name": "E4",
          "ticks": 268080,
          "time": 454.5715325,
          "velocity": 0.5905511811023622
        },
        {
          "duration": 0.13452391041664669,
          "durationTicks": 113,
          "midi": 62,
          "name": "D4",
          "ticks": 268200,
          "time": 454.71438975,
          "velocity": 0.5905511811023622
        },
        {
          "duration": 0.27023829791664866,
          "durationTicks": 227,
          "midi": 64,
          "name": "E4",
          "ticks": 268320,
          "time": 454.85724700000003,
          "velocity": 0.5905511811023622
        },
        {
          "duration": 0.13452391041670353,
          "durationTicks": 113,
          "midi": 76,
          "name": "E5",
          "ticks": 268560,
          "time": 455.14296149999996,
          "velocity": 0.5905511811023622
        },
        {
          "duration": 0.13452391041670353,
          "durationTicks": 113,
          "midi": 79,
          "name": "G5",
          "ticks": 268680,
          "time": 455.28581875,
          "velocity": 0.5905511811023622
        },
        {
          "duration": 0.27023829791664866,
          "durationTicks": 227,
          "midi": 78,
          "name": "F#5",
          "ticks": 268800,
          "time": 455.428676,
          "velocity": 0.5905511811023622
        },
        {
          "duration": 0.13452391041670353,
          "durationTicks": 113,
          "midi": 78,
          "name": "F#5",
          "ticks": 269040,
          "time": 455.7143905,
          "velocity": 0.5905511811023622
        },
        {
          "duration": 0.13452391041670353,
          "durationTicks": 113,
          "midi": 76,
          "name": "E5",
          "ticks": 269160,
          "time": 455.85724775,
          "velocity": 0.5905511811023622
        },
        {
          "duration": 0.2702382979167055,
          "durationTicks": 227,
          "midi": 74,
          "name": "D5",
          "ticks": 269280,
          "time": 456.00010499999996,
          "velocity": 0.5905511811023622
        },
        {
          "duration": 1.0845246229166605,
          "durationTicks": 911,
          "midi": 66,
          "name": "F#4",
          "ticks": 269280,
          "time": 456.00010499999996,
          "velocity": 0.5905511811023622
        },
        {
          "duration": 0.13452391041664669,
          "durationTicks": 113,
          "midi": 74,
          "name": "D5",
          "ticks": 269520,
          "time": 456.2858195,
          "velocity": 0.5905511811023622
        },
        {
          "duration": 0.13452391041664669,
          "durationTicks": 113,
          "midi": 73,
          "name": "C#5",
          "ticks": 269640,
          "time": 456.42867675,
          "velocity": 0.5905511811023622
        },
        {
          "duration": 0.2702382979167055,
          "durationTicks": 227,
          "midi": 74,
          "name": "D5",
          "ticks": 269760,
          "time": 456.571534,
          "velocity": 0.5905511811023622
        },
        {
          "duration": 0.13452391041670353,
          "durationTicks": 113,
          "midi": 71,
          "name": "B4",
          "ticks": 270000,
          "time": 456.85724849999997,
          "velocity": 0.5905511811023622
        },
        {
          "duration": 0.13452391041664669,
          "durationTicks": 113,
          "midi": 73,
          "name": "C#5",
          "ticks": 270120,
          "time": 457.00010575,
          "velocity": 0.5905511811023622
        },
        {
          "duration": 0.27023829791664866,
          "durationTicks": 227,
          "midi": 74,
          "name": "D5",
          "ticks": 270240,
          "time": 457.142963,
          "velocity": 0.5905511811023622
        },
        {
          "duration": 0.13452391041670353,
          "durationTicks": 113,
          "midi": 74,
          "name": "D5",
          "ticks": 270480,
          "time": 457.4286775,
          "velocity": 0.5905511811023622
        },
        {
          "duration": 0.13452391041670353,
          "durationTicks": 113,
          "midi": 76,
          "name": "E5",
          "ticks": 270600,
          "time": 457.57153474999996,
          "velocity": 0.5905511811023622
        },
        {
          "duration": 0.27023829791664866,
          "durationTicks": 227,
          "midi": 78,
          "name": "F#5",
          "ticks": 270720,
          "time": 457.714392,
          "velocity": 0.5905511811023622
        },
        {
          "duration": 0.13452391041664669,
          "durationTicks": 113,
          "midi": 78,
          "name": "F#5",
          "ticks": 270960,
          "time": 458.0001065,
          "velocity": 0.5905511811023622
        },
        {
          "duration": 0.13452391041670353,
          "durationTicks": 113,
          "midi": 80,
          "name": "G#5",
          "ticks": 271080,
          "time": 458.14296375,
          "velocity": 0.5905511811023622
        },
        {
          "duration": 0.5416670729166526,
          "durationTicks": 455,
          "midi": 81,
          "name": "A5",
          "ticks": 271200,
          "time": 458.285821,
          "velocity": 0.5905511811023622
        },
        {
          "duration": 0.13452391041664669,
          "durationTicks": 113,
          "midi": 66,
          "name": "F#4",
          "ticks": 271440,
          "time": 458.5715355,
          "velocity": 0.5905511811023622
        },
        {
          "duration": 0.13452391041664669,
          "durationTicks": 113,
          "midi": 68,
          "name": "G#4",
          "ticks": 271560,
          "time": 458.71439275,
          "velocity": 0.5905511811023622
        },
        {
          "duration": 0.27023829791664866,
          "durationTicks": 227,
          "midi": 69,
          "name": "A4",
          "ticks": 271680,
          "time": 458.85725,
          "velocity": 0.5905511811023622
        },
        {
          "duration": 0.13452391041664669,
          "durationTicks": 113,
          "midi": 81,
          "name": "A5",
          "ticks": 271920,
          "time": 459.1429645,
          "velocity": 0.5905511811023622
        },
        {
          "duration": 0.13452391041664669,
          "durationTicks": 113,
          "midi": 69,
          "name": "A4",
          "ticks": 271920,
          "time": 459.1429645,
          "velocity": 0.5905511811023622
        },
        {
          "duration": 0.13452391041670353,
          "durationTicks": 113,
          "midi": 80,
          "name": "G#5",
          "ticks": 272040,
          "time": 459.28582174999997,
          "velocity": 0.5905511811023622
        },
        {
          "duration": 0.13452391041670353,
          "durationTicks": 113,
          "midi": 71,
          "name": "B4",
          "ticks": 272040,
          "time": 459.28582174999997,
          "velocity": 0.5905511811023622
        },
        {
          "duration": 0.27023829791664866,
          "durationTicks": 227,
          "midi": 81,
          "name": "A5",
          "ticks": 272160,
          "time": 459.428679,
          "velocity": 0.5905511811023622
        },
        {
          "duration": 0.27023829791664866,
          "durationTicks": 227,
          "midi": 73,
          "name": "C#5",
          "ticks": 272160,
          "time": 459.428679,
          "velocity": 0.5905511811023622
        },
        {
          "duration": 0.13452391041664669,
          "durationTicks": 113,
          "midi": 83,
          "name": "B5",
          "ticks": 272400,
          "time": 459.7143935,
          "velocity": 0.5905511811023622
        },
        {
          "duration": 0.13452391041664669,
          "durationTicks": 113,
          "midi": 73,
          "name": "C#5",
          "ticks": 272400,
          "time": 459.7143935,
          "velocity": 0.5905511811023622
        },
        {
          "duration": 0.13452391041670353,
          "durationTicks": 113,
          "midi": 81,
          "name": "A5",
          "ticks": 272520,
          "time": 459.85725075,
          "velocity": 0.5905511811023622
        },
        {
          "duration": 0.13452391041670353,
          "durationTicks": 113,
          "midi": 75,
          "name": "D#5",
          "ticks": 272520,
          "time": 459.85725075,
          "velocity": 0.5905511811023622
        },
        {
          "duration": 0.5416670729167095,
          "durationTicks": 455,
          "midi": 79,
          "name": "G5",
          "ticks": 272640,
          "time": 460.00010799999995,
          "velocity": 0.5905511811023622
        },
        {
          "duration": 0.2702382979167055,
          "durationTicks": 227,
          "midi": 76,
          "name": "E5",
          "ticks": 272640,
          "time": 460.00010799999995,
          "velocity": 0.5905511811023622
        },
        {
          "duration": 0.27023829791664866,
          "durationTicks": 227,
          "midi": 71,
          "name": "B4",
          "ticks": 272880,
          "time": 460.2858225,
          "velocity": 0.5905511811023622
        },
        {
          "duration": 0.2702382979167055,
          "durationTicks": 227,
          "midi": 76,
          "name": "E5",
          "ticks": 273120,
          "time": 460.571537,
          "velocity": 0.5905511811023622
        },
        {
          "duration": 0.13452391041670353,
          "durationTicks": 113,
          "midi": 79,
          "name": "G5",
          "ticks": 273360,
          "time": 460.85725149999996,
          "velocity": 0.5905511811023622
        },
        {
          "duration": 0.13452391041670353,
          "durationTicks": 113,
          "midi": 76,
          "name": "E5",
          "ticks": 273360,
          "time": 460.85725149999996,
          "velocity": 0.5905511811023622
        },
        {
          "duration": 0.13452391041664669,
          "durationTicks": 113,
          "midi": 78,
          "name": "F#5",
          "ticks": 273480,
          "time": 461.00010875,
          "velocity": 0.5905511811023622
        },
        {
          "duration": 0.13452391041664669,
          "durationTicks": 113,
          "midi": 75,
          "name": "D#5",
          "ticks": 273480,
          "time": 461.00010875,
          "velocity": 0.5905511811023622
        },
        {
          "duration": 0.27023829791664866,
          "durationTicks": 227,
          "midi": 79,
          "name": "G5",
          "ticks": 273600,
          "time": 461.142966,
          "velocity": 0.5905511811023622
        },
        {
          "duration": 0.8130958479166566,
          "durationTicks": 683,
          "midi": 76,
          "name": "E5",
          "ticks": 273600,
          "time": 461.142966,
          "velocity": 0.5905511811023622
        },
        {
          "duration": 0.13452391041670353,
          "durationTicks": 113,
          "midi": 81,
          "name": "A5",
          "ticks": 273840,
          "time": 461.4286805,
          "velocity": 0.5905511811023622
        },
        {
          "duration": 0.13452391041664669,
          "durationTicks": 113,
          "midi": 79,
          "name": "G5",
          "ticks": 273960,
          "time": 461.57153775,
          "velocity": 0.5905511811023622
        },
        {
          "duration": 0.5416670729166526,
          "durationTicks": 455,
          "midi": 78,
          "name": "F#5",
          "ticks": 274080,
          "time": 461.71439499999997,
          "velocity": 0.5905511811023622
        },
        {
          "duration": 0.27023829791664866,
          "durationTicks": 227,
          "midi": 69,
          "name": "A4",
          "ticks": 274320,
          "time": 462.0001095,
          "velocity": 0.5905511811023622
        },
        {
          "duration": 0.2702382979167055,
          "durationTicks": 227,
          "midi": 74,
          "name": "D5",
          "ticks": 274560,
          "time": 462.285824,
          "velocity": 0.5905511811023622
        },
        {
          "duration": 0.13452391041664669,
          "durationTicks": 113,
          "midi": 78,
          "name": "F#5",
          "ticks": 274800,
          "time": 462.5715385,
          "velocity": 0.5905511811023622
        },
        {
          "duration": 0.13452391041664669,
          "durationTicks": 113,
          "midi": 74,
          "name": "D5",
          "ticks": 274800,
          "time": 462.5715385,
          "velocity": 0.5905511811023622
        },
        {
          "duration": 0.13452391041664669,
          "durationTicks": 113,
          "midi": 76,
          "name": "E5",
          "ticks": 274920,
          "time": 462.71439575,
          "velocity": 0.5905511811023622
        },
        {
          "duration": 0.13452391041664669,
          "durationTicks": 113,
          "midi": 73,
          "name": "C#5",
          "ticks": 274920,
          "time": 462.71439575,
          "velocity": 0.5905511811023622
        },
        {
          "duration": 0.27023829791664866,
          "durationTicks": 227,
          "midi": 77,
          "name": "F5",
          "ticks": 275040,
          "time": 462.857253,
          "velocity": 0.5905511811023622
        },
        {
          "duration": 1.0845246229166605,
          "durationTicks": 911,
          "midi": 74,
          "name": "D5",
          "ticks": 275040,
          "time": 462.857253,
          "velocity": 0.5905511811023622
        },
        {
          "duration": 0.13452391041664669,
          "durationTicks": 113,
          "midi": 79,
          "name": "G5",
          "ticks": 275280,
          "time": 463.1429675,
          "velocity": 0.5905511811023622
        },
        {
          "duration": 0.13452391041664669,
          "durationTicks": 113,
          "midi": 77,
          "name": "F5",
          "ticks": 275400,
          "time": 463.28582474999996,
          "velocity": 0.5905511811023622
        },
        {
          "duration": 1.0845246229166605,
          "durationTicks": 911,
          "midi": 76,
          "name": "E5",
          "ticks": 275520,
          "time": 463.428682,
          "velocity": 0.5905511811023622
        },
        {
          "duration": 0.5416670729166526,
          "durationTicks": 455,
          "midi": 67,
          "name": "G4",
          "ticks": 276000,
          "time": 464.000111,
          "velocity": 0.5905511811023622
        },
        {
          "duration": 0.5416670729166526,
          "durationTicks": 455,
          "midi": 76,
          "name": "E5",
          "ticks": 276480,
          "time": 464.57154,
          "velocity": 0.5905511811023622
        },
        {
          "duration": 1.0845246229166605,
          "durationTicks": 911,
          "midi": 72,
          "name": "C5",
          "ticks": 276480,
          "time": 464.57154,
          "velocity": 0.5905511811023622
        },
        {
          "duration": 0.5416670729166526,
          "durationTicks": 455,
          "midi": 75,
          "name": "D#5",
          "ticks": 276960,
          "time": 465.142969,
          "velocity": 0.5905511811023622
        },
        {
          "duration": 1.0845246229166605,
          "durationTicks": 911,
          "midi": 74,
          "name": "D5",
          "ticks": 277440,
          "time": 465.71439799999996,
          "velocity": 0.5905511811023622
        },
        {
          "duration": 0.5416670729167095,
          "durationTicks": 455,
          "midi": 66,
          "name": "F#4",
          "ticks": 277440,
          "time": 465.71439799999996,
          "velocity": 0.5905511811023622
        },
        {
          "duration": 1.0845246229167174,
          "durationTicks": 911,
          "midi": 71,
          "name": "B4",
          "ticks": 277920,
          "time": 466.285827,
          "velocity": 0.5905511811023622
        },
        {
          "duration": 0.5416670729166526,
          "durationTicks": 455,
          "midi": 73,
          "name": "C#5",
          "ticks": 278400,
          "time": 466.857256,
          "velocity": 0.5905511811023622
        },
        {
          "duration": 1.0845246229166605,
          "durationTicks": 911,
          "midi": 72,
          "name": "C5",
          "ticks": 278880,
          "time": 467.428685,
          "velocity": 0.5905511811023622
        },
        {
          "duration": 0.5416670729166526,
          "durationTicks": 455,
          "midi": 64,
          "name": "E4",
          "ticks": 278880,
          "time": 467.428685,
          "velocity": 0.5905511811023622
        },
        {
          "duration": 0.6773814604166546,
          "durationTicks": 569,
          "midi": 69,
          "name": "A4",
          "ticks": 279360,
          "time": 468.000114,
          "velocity": 0.5905511811023622
        },
        {
          "duration": 0.5416670729166526,
          "durationTicks": 455,
          "midi": 71,
          "name": "B4",
          "ticks": 279840,
          "time": 468.571543,
          "velocity": 0.5905511811023622
        },
        {
          "duration": 0.13452391041670353,
          "durationTicks": 113,
          "midi": 67,
          "name": "G4",
          "ticks": 279960,
          "time": 468.71440025,
          "velocity": 0.5905511811023622
        },
        {
          "duration": 0.13452391041664669,
          "durationTicks": 113,
          "midi": 66,
          "name": "F#4",
          "ticks": 280080,
          "time": 468.8572575,
          "velocity": 0.5905511811023622
        },
        {
          "duration": 0.13452391041664669,
          "durationTicks": 113,
          "midi": 69,
          "name": "A4",
          "ticks": 280200,
          "time": 469.00011474999997,
          "velocity": 0.5905511811023622
        },
        {
          "duration": 0.5416670729166526,
          "durationTicks": 455,
          "midi": 72,
          "name": "C5",
          "ticks": 280320,
          "time": 469.142972,
          "velocity": 0.5905511811023622
        },
        {
          "duration": 0.13452391041664669,
          "durationTicks": 113,
          "midi": 67,
          "name": "G4",
          "ticks": 280320,
          "time": 469.142972,
          "velocity": 0.5905511811023622
        },
        {
          "duration": 0.13452391041664669,
          "durationTicks": 113,
          "midi": 69,
          "name": "A4",
          "ticks": 280440,
          "time": 469.28582925,
          "velocity": 0.5905511811023622
        },
        {
          "duration": 0.13452391041664669,
          "durationTicks": 113,
          "midi": 71,
          "name": "B4",
          "ticks": 280560,
          "time": 469.4286865,
          "velocity": 0.5905511811023622
        },
        {
          "duration": 0.13452391041664669,
          "durationTicks": 113,
          "midi": 69,
          "name": "A4",
          "ticks": 280680,
          "time": 469.57154375,
          "velocity": 0.5905511811023622
        },
        {
          "duration": 0.5416670729167095,
          "durationTicks": 455,
          "midi": 73,
          "name": "C#5",
          "ticks": 280800,
          "time": 469.71440099999995,
          "velocity": 0.5905511811023622
        },
        {
          "duration": 0.13452391041670353,
          "durationTicks": 113,
          "midi": 67,
          "name": "G4",
          "ticks": 280800,
          "time": 469.71440099999995,
          "velocity": 0.5905511811023622
        },
        {
          "duration": 0.13452391041664669,
          "durationTicks": 113,
          "midi": 66,
          "name": "F#4",
          "ticks": 280920,
          "time": 469.85725825,
          "velocity": 0.5905511811023622
        },
        {
          "duration": 0.13452391041664669,
          "durationTicks": 113,
          "midi": 64,
          "name": "E4",
          "ticks": 281040,
          "time": 470.0001155,
          "velocity": 0.5905511811023622
        },
        {
          "duration": 0.13452391041664669,
          "durationTicks": 113,
          "midi": 67,
          "name": "G4",
          "ticks": 281160,
          "time": 470.14297275,
          "velocity": 0.5905511811023622
        },
        {
          "duration": 0.5416670729166526,
          "durationTicks": 455,
          "midi": 74,
          "name": "D5",
          "ticks": 281280,
          "time": 470.28583000000003,
          "velocity": 0.5905511811023622
        },
        {
          "duration": 0.13452391041664669,
          "durationTicks": 113,
          "midi": 66,
          "name": "F#4",
          "ticks": 281280,
          "time": 470.28583000000003,
          "velocity": 0.5905511811023622
        },
        {
          "duration": 0.13452391041664669,
          "durationTicks": 113,
          "midi": 71,
          "name": "B4",
          "ticks": 281400,
          "time": 470.42868725,
          "velocity": 0.5905511811023622
        },
        {
          "duration": 0.13452391041670353,
          "durationTicks": 113,
          "midi": 69,
          "name": "A4",
          "ticks": 281520,
          "time": 470.57154449999996,
          "velocity": 0.5905511811023622
        },
        {
          "duration": 0.13452391041664669,
          "durationTicks": 113,
          "midi": 67,
          "name": "G4",
          "ticks": 281640,
          "time": 470.71440175,
          "velocity": 0.5905511811023622
        },
        {
          "duration": 0.27023829791664866,
          "durationTicks": 227,
          "midi": 74,
          "name": "D5",
          "ticks": 281760,
          "time": 470.857259,
          "velocity": 0.5905511811023622
        },
        {
          "duration": 0.13452391041664669,
          "durationTicks": 113,
          "midi": 66,
          "name": "F#4",
          "ticks": 281760,
          "time": 470.857259,
          "velocity": 0.5905511811023622
        },
        {
          "duration": 0.13452391041664669,
          "durationTicks": 113,
          "midi": 71,
          "name": "B4",
          "ticks": 281880,
          "time": 471.00011625,
          "velocity": 0.5905511811023622
        },
        {
          "duration": 0.2702382979167055,
          "durationTicks": 227,
          "midi": 73,
          "name": "C#5",
          "ticks": 282000,
          "time": 471.1429735,
          "velocity": 0.5905511811023622
        },
        {
          "duration": 0.13452391041670353,
          "durationTicks": 113,
          "midi": 64,
          "name": "E4",
          "ticks": 282000,
          "time": 471.1429735,
          "velocity": 0.5905511811023622
        },
        {
          "duration": 0.13452391041664669,
          "durationTicks": 113,
          "midi": 70,
          "name": "A#4",
          "ticks": 282120,
          "time": 471.28583075,
          "velocity": 0.5905511811023622
        },
        {
          "duration": 0.5416670729167095,
          "durationTicks": 455,
          "midi": 74,
          "name": "D5",
          "ticks": 282240,
          "time": 471.42868799999997,
          "velocity": 0.5905511811023622
        },
        {
          "duration": 0.13452391041664669,
          "durationTicks": 113,
          "midi": 66,
          "name": "F#4",
          "ticks": 282240,
          "time": 471.42868799999997,
          "velocity": 0.5905511811023622
        },
        {
          "duration": 0.13452391041664669,
          "durationTicks": 113,
          "midi": 71,
          "name": "B4",
          "ticks": 282360,
          "time": 471.57154525,
          "velocity": 0.5905511811023622
        },
        {
          "duration": 0.13452391041664669,
          "durationTicks": 113,
          "midi": 66,
          "name": "F#4",
          "ticks": 282480,
          "time": 471.7144025,
          "velocity": 0.5905511811023622
        },
        {
          "duration": 0.13452391041664669,
          "durationTicks": 113,
          "midi": 64,
          "name": "E4",
          "ticks": 282600,
          "time": 471.85725975,
          "velocity": 0.5905511811023622
        },
        {
          "duration": 0.5416670729167095,
          "durationTicks": 455,
          "midi": 66,
          "name": "F#4",
          "ticks": 282720,
          "time": 472.000117,
          "velocity": 0.5905511811023622
        },
        {
          "duration": 0.13452391041664669,
          "durationTicks": 113,
          "midi": 62,
          "name": "D4",
          "ticks": 282720,
          "time": 472.000117,
          "velocity": 0.5905511811023622
        },
        {
          "duration": 0.13452391041670353,
          "durationTicks": 113,
          "midi": 64,
          "name": "E4",
          "ticks": 282840,
          "time": 472.14297424999995,
          "velocity": 0.5905511811023622
        },
        {
          "duration": 0.13452391041664669,
          "durationTicks": 113,
          "midi": 62,
          "name": "D4",
          "ticks": 282960,
          "time": 472.2858315,
          "velocity": 0.5905511811023622
        },
        {
          "duration": 0.13452391041664669,
          "durationTicks": 113,
          "midi": 61,
          "name": "C#4",
          "ticks": 283080,
          "time": 472.42868875,
          "velocity": 0.5905511811023622
        },
        {
          "duration": 0.5416670729166526,
          "durationTicks": 455,
          "midi": 67,
          "name": "G4",
          "ticks": 283200,
          "time": 472.571546,
          "velocity": 0.5905511811023622
        },
        {
          "duration": 0.13452391041664669,
          "durationTicks": 113,
          "midi": 59,
          "name": "B3",
          "ticks": 283200,
          "time": 472.571546,
          "velocity": 0.5905511811023622
        },
        {
          "duration": 0.13452391041664669,
          "durationTicks": 113,
          "midi": 62,
          "name": "D4",
          "ticks": 283320,
          "time": 472.71440325000003,
          "velocity": 0.5905511811023622
        },
        {
          "duration": 0.13452391041664669,
          "durationTicks": 113,
          "midi": 61,
          "name": "C#4",
          "ticks": 283440,
          "time": 472.8572605,
          "velocity": 0.5905511811023622
        },
        {
          "duration": 0.13452391041670353,
          "durationTicks": 113,
          "midi": 59,
          "name": "B3",
          "ticks": 283560,
          "time": 473.00011774999996,
          "velocity": 0.5905511811023622
        },
        {
          "duration": 0.5416670729166526,
          "durationTicks": 455,
          "midi": 68,
          "name": "G#4",
          "ticks": 283680,
          "time": 473.142975,
          "velocity": 0.5905511811023622
        },
        {
          "duration": 0.13452391041664669,
          "durationTicks": 113,
          "midi": 64,
          "name": "E4",
          "ticks": 283680,
          "time": 473.142975,
          "velocity": 0.5905511811023622
        },
        {
          "duration": 0.13452391041664669,
          "durationTicks": 113,
          "midi": 65,
          "name": "F4",
          "ticks": 283800,
          "time": 473.28583225,
          "velocity": 0.5905511811023622
        },
        {
          "duration": 0.13452391041664669,
          "durationTicks": 113,
          "midi": 64,
          "name": "E4",
          "ticks": 283920,
          "time": 473.4286895,
          "velocity": 0.5905511811023622
        },
        {
          "duration": 0.13452391041670353,
          "durationTicks": 113,
          "midi": 62,
          "name": "D4",
          "ticks": 284040,
          "time": 473.57154675,
          "velocity": 0.5905511811023622
        },
        {
          "duration": 0.5416670729166526,
          "durationTicks": 455,
          "midi": 69,
          "name": "A4",
          "ticks": 284160,
          "time": 473.714404,
          "velocity": 0.5905511811023622
        },
        {
          "duration": 0.13452391041664669,
          "durationTicks": 113,
          "midi": 61,
          "name": "C#4",
          "ticks": 284160,
          "time": 473.714404,
          "velocity": 0.5905511811023622
        },
        {
          "duration": 0.13452391041664669,
          "durationTicks": 113,
          "midi": 64,
          "name": "E4",
          "ticks": 284280,
          "time": 473.85726124999997,
          "velocity": 0.5905511811023622
        },
        {
          "duration": 0.13452391041664669,
          "durationTicks": 113,
          "midi": 62,
          "name": "D4",
          "ticks": 284400,
          "time": 474.0001185,
          "velocity": 0.5905511811023622
        },
        {
          "duration": 0.13452391041664669,
          "durationTicks": 113,
          "midi": 61,
          "name": "C#4",
          "ticks": 284520,
          "time": 474.14297575,
          "velocity": 0.5905511811023622
        },
        {
          "duration": 0.27023829791664866,
          "durationTicks": 227,
          "midi": 69,
          "name": "A4",
          "ticks": 284640,
          "time": 474.285833,
          "velocity": 0.5905511811023622
        },
        {
          "duration": 0.13452391041664669,
          "durationTicks": 113,
          "midi": 66,
          "name": "F#4",
          "ticks": 284640,
          "time": 474.285833,
          "velocity": 0.5905511811023622
        },
        {
          "duration": 0.13452391041664669,
          "durationTicks": 113,
          "midi": 67,
          "name": "G4",
          "ticks": 284760,
          "time": 474.42869025,
          "velocity": 0.5905511811023622
        },
        {
          "duration": 0.2702382979167055,
          "durationTicks": 227,
          "midi": 68,
          "name": "G#4",
          "ticks": 284880,
          "time": 474.57154749999995,
          "velocity": 0.5905511811023622
        },
        {
          "duration": 0.13452391041670353,
          "durationTicks": 113,
          "midi": 66,
          "name": "F#4",
          "ticks": 284880,
          "time": 474.57154749999995,
          "velocity": 0.5905511811023622
        },
        {
          "duration": 0.13452391041664669,
          "durationTicks": 113,
          "midi": 64,
          "name": "E4",
          "ticks": 285000,
          "time": 474.71440474999997,
          "velocity": 0.5905511811023622
        },
        {
          "duration": 0.5416670729166526,
          "durationTicks": 455,
          "midi": 69,
          "name": "A4",
          "ticks": 285120,
          "time": 474.857262,
          "velocity": 0.5905511811023622
        },
        {
          "duration": 0.13452391041664669,
          "durationTicks": 113,
          "midi": 63,
          "name": "D#4",
          "ticks": 285120,
          "time": 474.857262,
          "velocity": 0.5905511811023622
        },
        {
          "duration": 0.13452391041664669,
          "durationTicks": 113,
          "midi": 64,
          "name": "E4",
          "ticks": 285240,
          "time": 475.00011925,
          "velocity": 0.5905511811023622
        },
        {
          "duration": 0.13452391041664669,
          "durationTicks": 113,
          "midi": 63,
          "name": "D#4",
          "ticks": 285360,
          "time": 475.14297650000003,
          "velocity": 0.5905511811023622
        },
        {
          "duration": 0.13452391041664669,
          "durationTicks": 113,
          "midi": 61,
          "name": "C#4",
          "ticks": 285480,
          "time": 475.28583375,
          "velocity": 0.5905511811023622
        },
        {
          "duration": 0.5416670729167095,
          "durationTicks": 455,
          "midi": 72,
          "name": "C5",
          "ticks": 285600,
          "time": 475.42869099999996,
          "velocity": 0.5905511811023622
        },
        {
          "duration": 0.5416670729167095,
          "durationTicks": 455,
          "midi": 63,
          "name": "D#4",
          "ticks": 285600,
          "time": 475.42869099999996,
          "velocity": 0.5905511811023622
        },
        {
          "duration": 0.5416670729167095,
          "durationTicks": 455,
          "midi": 66,
          "name": "F#4",
          "ticks": 285600,
          "time": 475.42869099999996,
          "velocity": 0.5905511811023622
        },
        {
          "duration": 0.5416670729167095,
          "durationTicks": 455,
          "midi": 69,
          "name": "A4",
          "ticks": 285600,
          "time": 475.42869099999996,
          "velocity": 0.5905511811023622
        },
        {
          "duration": 0.5416670729167095,
          "durationTicks": 455,
          "midi": 71,
          "name": "B4",
          "ticks": 286080,
          "time": 476.00012,
          "velocity": 0.5905511811023622
        },
        {
          "duration": 0.5416670729167095,
          "durationTicks": 455,
          "midi": 64,
          "name": "E4",
          "ticks": 286080,
          "time": 476.00012,
          "velocity": 0.5905511811023622
        },
        {
          "duration": 0.5416670729167095,
          "durationTicks": 455,
          "midi": 67,
          "name": "G4",
          "ticks": 286080,
          "time": 476.00012,
          "velocity": 0.5905511811023622
        },
        {
          "duration": 0.5416670729166526,
          "durationTicks": 455,
          "midi": 69,
          "name": "A4",
          "ticks": 286560,
          "time": 476.571549,
          "velocity": 0.5905511811023622
        },
        {
          "duration": 0.5416670729166526,
          "durationTicks": 455,
          "midi": 59,
          "name": "B3",
          "ticks": 286560,
          "time": 476.571549,
          "velocity": 0.5905511811023622
        },
        {
          "duration": 0.5416670729166526,
          "durationTicks": 455,
          "midi": 66,
          "name": "F#4",
          "ticks": 286560,
          "time": 476.571549,
          "velocity": 0.5905511811023622
        },
        {
          "duration": 0.5416670729167095,
          "durationTicks": 455,
          "midi": 67,
          "name": "G4",
          "ticks": 287040,
          "time": 477.14297799999997,
          "velocity": 0.5905511811023622
        },
        {
          "duration": 1.1428580000000466,
          "durationTicks": 960,
          "midi": 64,
          "name": "E4",
          "ticks": 287040,
          "time": 477.14297799999997,
          "velocity": 0.5905511811023622
        },
        {
          "duration": 0.27023829791664866,
          "durationTicks": 227,
          "midi": 69,
          "name": "A4",
          "ticks": 287520,
          "time": 477.714407,
          "velocity": 0.5905511811023622
        },
        {
          "duration": 0.27023829791664866,
          "durationTicks": 227,
          "midi": 67,
          "name": "G4",
          "ticks": 287760,
          "time": 478.0001215,
          "velocity": 0.5905511811023622
        },
        {
          "duration": 0.27023829791664866,
          "durationTicks": 227,
          "midi": 66,
          "name": "F#4",
          "ticks": 288000,
          "time": 478.285836,
          "velocity": 0.5905511811023622
        },
        {
          "duration": 0.2857144999999832,
          "durationTicks": 240,
          "midi": 64,
          "name": "E4",
          "ticks": 288000,
          "time": 478.285836,
          "velocity": 0.5905511811023622
        },
        {
          "duration": 0.7988101229166773,
          "durationTicks": 671,
          "midi": 64,
          "name": "E4",
          "ticks": 288240,
          "time": 478.5715505,
          "velocity": 0.5905511811023622
        },
        {
          "duration": 0.13452391041664669,
          "durationTicks": 113,
          "midi": 66,
          "name": "F#4",
          "ticks": 288480,
          "time": 478.857265,
          "velocity": 0.5905511811023622
        },
        {
          "duration": 0.13452391041664669,
          "durationTicks": 113,
          "midi": 67,
          "name": "G4",
          "ticks": 288600,
          "time": 479.00012225,
          "velocity": 0.5905511811023622
        },
        {
          "duration": 0.13452391041664669,
          "durationTicks": 113,
          "midi": 69,
          "name": "A4",
          "ticks": 288720,
          "time": 479.1429795,
          "velocity": 0.5905511811023622
        },
        {
          "duration": 0.13452391041664669,
          "durationTicks": 113,
          "midi": 71,
          "name": "B4",
          "ticks": 288840,
          "time": 479.28583675,
          "velocity": 0.5905511811023622
        },
        {
          "duration": 0.13452391041670353,
          "durationTicks": 113,
          "midi": 72,
          "name": "C5",
          "ticks": 288960,
          "time": 479.42869399999995,
          "velocity": 0.5905511811023622
        },
        {
          "duration": 0.13452391041664669,
          "durationTicks": 113,
          "midi": 69,
          "name": "A4",
          "ticks": 289080,
          "time": 479.57155124999997,
          "velocity": 0.5905511811023622
        },
        {
          "duration": 0.13452391041664669,
          "durationTicks": 113,
          "midi": 71,
          "name": "B4",
          "ticks": 289200,
          "time": 479.7144085,
          "velocity": 0.5905511811023622
        },
        {
          "duration": 0.13452391041664669,
          "durationTicks": 113,
          "midi": 72,
          "name": "C5",
          "ticks": 289320,
          "time": 479.85726575,
          "velocity": 0.5905511811023622
        },
        {
          "duration": 0.5416670729166526,
          "durationTicks": 455,
          "midi": 63,
          "name": "D#4",
          "ticks": 289440,
          "time": 480.00012300000003,
          "velocity": 0.5905511811023622
        },
        {
          "duration": 0.13452391041664669,
          "durationTicks": 113,
          "midi": 72,
          "name": "C5",
          "ticks": 289560,
          "time": 480.14298025,
          "velocity": 0.5905511811023622
        },
        {
          "duration": 0.13452391041670353,
          "durationTicks": 113,
          "midi": 71,
          "name": "B4",
          "ticks": 289680,
          "time": 480.28583749999996,
          "velocity": 0.5905511811023622
        },
        {
          "duration": 0.13452391041664669,
          "durationTicks": 113,
          "midi": 69,
          "name": "A4",
          "ticks": 289800,
          "time": 480.42869475,
          "velocity": 0.5905511811023622
        },
        {
          "duration": 1.0845246229166605,
          "durationTicks": 911,
          "midi": 67,
          "name": "G4",
          "ticks": 289920,
          "time": 480.571552,
          "velocity": 0.5905511811023622
        },
        {
          "duration": 0.13452391041670353,
          "durationTicks": 113,
          "midi": 57,
          "name": "A3",
          "ticks": 291000,
          "time": 481.85726724999995,
          "velocity": 0.5905511811023622
        },
        {
          "duration": 0.13452391041664669,
          "durationTicks": 113,
          "midi": 64,
          "name": "E4",
          "ticks": 291120,
          "time": 482.00012449999997,
          "velocity": 0.5905511811023622
        },
        {
          "duration": 0.13452391041664669,
          "durationTicks": 113,
          "midi": 67,
          "name": "G4",
          "ticks": 291240,
          "time": 482.14298175,
          "velocity": 0.5905511811023622
        },
        {
          "duration": 1.0845246229166605,
          "durationTicks": 911,
          "midi": 66,
          "name": "F#4",
          "ticks": 291360,
          "time": 482.285839,
          "velocity": 0.5905511811023622
        },
        {
          "duration": 0.13452391041664669,
          "durationTicks": 113,
          "midi": 55,
          "name": "G3",
          "ticks": 292440,
          "time": 483.57155424999996,
          "velocity": 0.5905511811023622
        },
        {
          "duration": 0.13452391041664669,
          "durationTicks": 113,
          "midi": 62,
          "name": "D4",
          "ticks": 292560,
          "time": 483.7144115,
          "velocity": 0.5905511811023622
        },
        {
          "duration": 0.13452391041664669,
          "durationTicks": 113,
          "midi": 65,
          "name": "F4",
          "ticks": 292680,
          "time": 483.85726875,
          "velocity": 0.5905511811023622
        },
        {
          "duration": 0.13452391041664669,
          "durationTicks": 113,
          "midi": 64,
          "name": "E4",
          "ticks": 292800,
          "time": 484.000126,
          "velocity": 0.5905511811023622
        },
        {
          "duration": 0.13452391041670353,
          "durationTicks": 113,
          "midi": 60,
          "name": "C4",
          "ticks": 292920,
          "time": 484.14298325,
          "velocity": 0.5905511811023622
        },
        {
          "duration": 0.13452391041670353,
          "durationTicks": 113,
          "midi": 64,
          "name": "E4",
          "ticks": 293040,
          "time": 484.28584049999995,
          "velocity": 0.5905511811023622
        },
        {
          "duration": 0.13452391041664669,
          "durationTicks": 113,
          "midi": 67,
          "name": "G4",
          "ticks": 293160,
          "time": 484.42869774999997,
          "velocity": 0.5905511811023622
        },
        {
          "duration": 0.27023829791664866,
          "durationTicks": 227,
          "midi": 72,
          "name": "C5",
          "ticks": 293280,
          "time": 484.571555,
          "velocity": 0.5905511811023622
        },
        {
          "duration": 0.13452391041664669,
          "durationTicks": 113,
          "midi": 62,
          "name": "D4",
          "ticks": 293880,
          "time": 485.28584125,
          "velocity": 0.5905511811023622
        },
        {
          "duration": 0.13452391041664669,
          "durationTicks": 113,
          "midi": 69,
          "name": "A4",
          "ticks": 294000,
          "time": 485.4286985,
          "velocity": 0.5905511811023622
        },
        {
          "duration": 0.13452391041664669,
          "durationTicks": 113,
          "midi": 72,
          "name": "C5",
          "ticks": 294120,
          "time": 485.57155575,
          "velocity": 0.5905511811023622
        },
        {
          "duration": 0.13452391041670353,
          "durationTicks": 113,
          "midi": 71,
          "name": "B4",
          "ticks": 294240,
          "time": 485.714413,
          "velocity": 0.5905511811023622
        },
        {
          "duration": 0.13452391041664669,
          "durationTicks": 113,
          "midi": 62,
          "name": "D4",
          "ticks": 294360,
          "time": 485.85727025,
          "velocity": 0.5905511811023622
        },
        {
          "duration": 0.13452391041664669,
          "durationTicks": 113,
          "midi": 67,
          "name": "G4",
          "ticks": 294480,
          "time": 486.00012749999996,
          "velocity": 0.5905511811023622
        },
        {
          "duration": 0.13452391041664669,
          "durationTicks": 113,
          "midi": 71,
          "name": "B4",
          "ticks": 294600,
          "time": 486.14298475,
          "velocity": 0.5905511811023622
        },
        {
          "duration": 0.27023829791664866,
          "durationTicks": 227,
          "midi": 74,
          "name": "D5",
          "ticks": 294720,
          "time": 486.285842,
          "velocity": 0.5905511811023622
        },
        {
          "duration": 0.13452391041664669,
          "durationTicks": 113,
          "midi": 64,
          "name": "E4",
          "ticks": 295320,
          "time": 487.00012825,
          "velocity": 0.5905511811023622
        },
        {
          "duration": 0.13452391041664669,
          "durationTicks": 113,
          "midi": 71,
          "name": "B4",
          "ticks": 295440,
          "time": 487.1429855,
          "velocity": 0.5905511811023622
        },
        {
          "duration": 0.13452391041664669,
          "durationTicks": 113,
          "midi": 74,
          "name": "D5",
          "ticks": 295560,
          "time": 487.28584275000003,
          "velocity": 0.5905511811023622
        },
        {
          "duration": 1.1428579999999897,
          "durationTicks": 960,
          "midi": 72,
          "name": "C5",
          "ticks": 295680,
          "time": 487.4287,
          "velocity": 0.5905511811023622
        },
        {
          "duration": 0.13452391041670353,
          "durationTicks": 113,
          "midi": 69,
          "name": "A4",
          "ticks": 295800,
          "time": 487.57155724999996,
          "velocity": 0.5905511811023622
        },
        {
          "duration": 0.13452391041664669,
          "durationTicks": 113,
          "midi": 67,
          "name": "G4",
          "ticks": 295920,
          "time": 487.7144145,
          "velocity": 0.5905511811023622
        },
        {
          "duration": 0.13452391041664669,
          "durationTicks": 113,
          "midi": 65,
          "name": "F4",
          "ticks": 296040,
          "time": 487.85727175,
          "velocity": 0.5905511811023622
        },
        {
          "duration": 0.13452391041664669,
          "durationTicks": 113,
          "midi": 64,
          "name": "E4",
          "ticks": 296160,
          "time": 488.000129,
          "velocity": 0.5905511811023622
        },
        {
          "duration": 0.13452391041670353,
          "durationTicks": 113,
          "midi": 62,
          "name": "D4",
          "ticks": 296280,
          "time": 488.14298625,
          "velocity": 0.5905511811023622
        },
        {
          "duration": 0.13452391041664669,
          "durationTicks": 113,
          "midi": 60,
          "name": "C4",
          "ticks": 296400,
          "time": 488.2858435,
          "velocity": 0.5905511811023622
        },
        {
          "duration": 0.13452391041664669,
          "durationTicks": 113,
          "midi": 59,
          "name": "B3",
          "ticks": 296520,
          "time": 488.42870074999996,
          "velocity": 0.5905511811023622
        },
        {
          "duration": 1.0845246229166605,
          "durationTicks": 911,
          "midi": 72,
          "name": "C5",
          "ticks": 296640,
          "time": 488.571558,
          "velocity": 0.5905511811023622
        },
        {
          "duration": 0.5416670729166526,
          "durationTicks": 455,
          "midi": 72,
          "name": "C5",
          "ticks": 298080,
          "time": 490.285845,
          "velocity": 0.5905511811023622
        },
        {
          "duration": 0.13452391041664669,
          "durationTicks": 113,
          "midi": 69,
          "name": "A4",
          "ticks": 298680,
          "time": 491.00013125,
          "velocity": 0.5905511811023622
        },
        {
          "duration": 0.13452391041664669,
          "durationTicks": 113,
          "midi": 70,
          "name": "A#4",
          "ticks": 298800,
          "time": 491.1429885,
          "velocity": 0.5905511811023622
        },
        {
          "duration": 0.13452391041664669,
          "durationTicks": 113,
          "midi": 74,
          "name": "D5",
          "ticks": 298920,
          "time": 491.28584575,
          "velocity": 0.5905511811023622
        },
        {
          "duration": 0.13452391041670353,
          "durationTicks": 113,
          "midi": 72,
          "name": "C5",
          "ticks": 299040,
          "time": 491.428703,
          "velocity": 0.5905511811023622
        },
        {
          "duration": 0.13452391041670353,
          "durationTicks": 113,
          "midi": 70,
          "name": "A#4",
          "ticks": 299160,
          "time": 491.57156024999995,
          "velocity": 0.5905511811023622
        },
        {
          "duration": 0.13452391041664669,
          "durationTicks": 113,
          "midi": 69,
          "name": "A4",
          "ticks": 299280,
          "time": 491.71441749999997,
          "velocity": 0.5905511811023622
        },
        {
          "duration": 0.13452391041664669,
          "durationTicks": 113,
          "midi": 67,
          "name": "G4",
          "ticks": 299400,
          "time": 491.85727475,
          "velocity": 0.5905511811023622
        },
        {
          "duration": 0.13452391041664669,
          "durationTicks": 113,
          "midi": 66,
          "name": "F#4",
          "ticks": 299520,
          "time": 492.000132,
          "velocity": 0.5905511811023622
        },
        {
          "duration": 0.13452391041664669,
          "durationTicks": 113,
          "midi": 69,
          "name": "A4",
          "ticks": 299640,
          "time": 492.14298925,
          "velocity": 0.5905511811023622
        },
        {
          "duration": 0.13452391041664669,
          "durationTicks": 113,
          "midi": 63,
          "name": "D#4",
          "ticks": 299760,
          "time": 492.2858465,
          "velocity": 0.5905511811023622
        },
        {
          "duration": 0.13452391041670353,
          "durationTicks": 113,
          "midi": 69,
          "name": "A4",
          "ticks": 299880,
          "time": 492.42870374999995,
          "velocity": 0.5905511811023622
        },
        {
          "duration": 0.13452391041664669,
          "durationTicks": 113,
          "midi": 62,
          "name": "D4",
          "ticks": 300000,
          "time": 492.571561,
          "velocity": 0.5905511811023622
        },
        {
          "duration": 0.13452391041664669,
          "durationTicks": 113,
          "midi": 66,
          "name": "F#4",
          "ticks": 300120,
          "time": 492.71441825,
          "velocity": 0.5905511811023622
        },
        {
          "duration": 0.13452391041664669,
          "durationTicks": 113,
          "midi": 67,
          "name": "G4",
          "ticks": 300240,
          "time": 492.8572755,
          "velocity": 0.5905511811023622
        },
        {
          "duration": 0.13452391041670353,
          "durationTicks": 113,
          "midi": 70,
          "name": "A#4",
          "ticks": 300360,
          "time": 493.00013275,
          "velocity": 0.5905511811023622
        },
        {
          "duration": 0.13452391041664669,
          "durationTicks": 113,
          "midi": 64,
          "name": "E4",
          "ticks": 300480,
          "time": 493.14299,
          "velocity": 0.5905511811023622
        },
        {
          "duration": 0.13452391041664669,
          "durationTicks": 113,
          "midi": 67,
          "name": "G4",
          "ticks": 300600,
          "time": 493.28584724999996,
          "velocity": 0.5905511811023622
        },
        {
          "duration": 0.13452391041664669,
          "durationTicks": 113,
          "midi": 69,
          "name": "A4",
          "ticks": 300720,
          "time": 493.4287045,
          "velocity": 0.5905511811023622
        },
        {
          "duration": 0.13452391041664669,
          "durationTicks": 113,
          "midi": 72,
          "name": "C5",
          "ticks": 300840,
          "time": 493.57156175,
          "velocity": 0.5905511811023622
        },
        {
          "duration": 0.13452391041664669,
          "durationTicks": 113,
          "midi": 66,
          "name": "F#4",
          "ticks": 300960,
          "time": 493.714419,
          "velocity": 0.5905511811023622
        },
        {
          "duration": 0.13452391041670353,
          "durationTicks": 113,
          "midi": 69,
          "name": "A4",
          "ticks": 301080,
          "time": 493.85727625,
          "velocity": 0.5905511811023622
        },
        {
          "duration": 0.13452391041670353,
          "durationTicks": 113,
          "midi": 70,
          "name": "A#4",
          "ticks": 301200,
          "time": 494.00013349999995,
          "velocity": 0.5905511811023622
        },
        {
          "duration": 0.13452391041664669,
          "durationTicks": 113,
          "midi": 74,
          "name": "D5",
          "ticks": 301320,
          "time": 494.14299074999997,
          "velocity": 0.5905511811023622
        },
        {
          "duration": 0.13452391041664669,
          "durationTicks": 113,
          "midi": 67,
          "name": "G4",
          "ticks": 301440,
          "time": 494.285848,
          "velocity": 0.5905511811023622
        },
        {
          "duration": 0.13452391041664669,
          "durationTicks": 113,
          "midi": 70,
          "name": "A#4",
          "ticks": 301560,
          "time": 494.42870525,
          "velocity": 0.5905511811023622
        },
        {
          "duration": 0.13452391041664669,
          "durationTicks": 113,
          "midi": 72,
          "name": "C5",
          "ticks": 301680,
          "time": 494.5715625,
          "velocity": 0.5905511811023622
        },
        {
          "duration": 0.13452391041664669,
          "durationTicks": 113,
          "midi": 74,
          "name": "D5",
          "ticks": 301800,
          "time": 494.71441975,
          "velocity": 0.5905511811023622
        },
        {
          "duration": 0.13452391041670353,
          "durationTicks": 113,
          "midi": 69,
          "name": "A4",
          "ticks": 301920,
          "time": 494.85727699999995,
          "velocity": 0.5905511811023622
        },
        {
          "duration": 0.13452391041664669,
          "durationTicks": 113,
          "midi": 72,
          "name": "C5",
          "ticks": 302040,
          "time": 495.00013425,
          "velocity": 0.5905511811023622
        },
        {
          "duration": 0.13452391041664669,
          "durationTicks": 113,
          "midi": 74,
          "name": "D5",
          "ticks": 302160,
          "time": 495.1429915,
          "velocity": 0.5905511811023622
        },
        {
          "duration": 0.13452391041664669,
          "durationTicks": 113,
          "midi": 75,
          "name": "D#5",
          "ticks": 302280,
          "time": 495.28584875,
          "velocity": 0.5905511811023622
        },
        {
          "duration": 0.13452391041670353,
          "durationTicks": 113,
          "midi": 74,
          "name": "D5",
          "ticks": 302400,
          "time": 495.428706,
          "velocity": 0.5905511811023622
        },
        {
          "duration": 0.13452391041664669,
          "durationTicks": 113,
          "midi": 72,
          "name": "C5",
          "ticks": 302520,
          "time": 495.57156325,
          "velocity": 0.5905511811023622
        },
        {
          "duration": 0.13452391041664669,
          "durationTicks": 113,
          "midi": 70,
          "name": "A#4",
          "ticks": 302640,
          "time": 495.71442049999996,
          "velocity": 0.5905511811023622
        },
        {
          "duration": 0.13452391041664669,
          "durationTicks": 113,
          "midi": 69,
          "name": "A4",
          "ticks": 302760,
          "time": 495.85727775,
          "velocity": 0.5905511811023622
        },
        {
          "duration": 0.13452391041664669,
          "durationTicks": 113,
          "midi": 70,
          "name": "A#4",
          "ticks": 302880,
          "time": 496.000135,
          "velocity": 0.5905511811023622
        },
        {
          "duration": 0.13452391041664669,
          "durationTicks": 113,
          "midi": 74,
          "name": "D5",
          "ticks": 303000,
          "time": 496.14299225,
          "velocity": 0.5905511811023622
        },
        {
          "duration": 0.13452391041670353,
          "durationTicks": 113,
          "midi": 79,
          "name": "G5",
          "ticks": 303120,
          "time": 496.2858495,
          "velocity": 0.5905511811023622
        },
        {
          "duration": 0.13452391041670353,
          "durationTicks": 113,
          "midi": 78,
          "name": "F#5",
          "ticks": 303240,
          "time": 496.42870674999995,
          "velocity": 0.5905511811023622
        },
        {
          "duration": 0.13452391041664669,
          "durationTicks": 113,
          "midi": 79,
          "name": "G5",
          "ticks": 303360,
          "time": 496.57156399999997,
          "velocity": 0.5905511811023622
        },
        {
          "duration": 0.13452391041664669,
          "durationTicks": 113,
          "midi": 72,
          "name": "C5",
          "ticks": 303480,
          "time": 496.71442125,
          "velocity": 0.5905511811023622
        },
        {
          "duration": 0.13452391041664669,
          "durationTicks": 113,
          "midi": 74,
          "name": "D5",
          "ticks": 303600,
          "time": 496.8572785,
          "velocity": 0.5905511811023622
        },
        {
          "duration": 0.13452391041664669,
          "durationTicks": 113,
          "midi": 75,
          "name": "D#5",
          "ticks": 303720,
          "time": 497.00013575,
          "velocity": 0.5905511811023622
        },
        {
          "duration": 0.13452391041664669,
          "durationTicks": 113,
          "midi": 66,
          "name": "F#4",
          "ticks": 303840,
          "time": 497.142993,
          "velocity": 0.5905511811023622
        },
        {
          "duration": 0.13452391041670353,
          "durationTicks": 113,
          "midi": 75,
          "name": "D#5",
          "ticks": 303960,
          "time": 497.28585024999995,
          "velocity": 0.5905511811023622
        },
        {
          "duration": 0.13452391041664669,
          "durationTicks": 113,
          "midi": 74,
          "name": "D5",
          "ticks": 304080,
          "time": 497.4287075,
          "velocity": 0.5905511811023622
        },
        {
          "duration": 0.13452391041664669,
          "durationTicks": 113,
          "midi": 72,
          "name": "C5",
          "ticks": 304200,
          "time": 497.57156475,
          "velocity": 0.5905511811023622
        },
        {
          "duration": 0.13452391041664669,
          "durationTicks": 113,
          "midi": 70,
          "name": "A#4",
          "ticks": 304320,
          "time": 497.714422,
          "velocity": 0.5905511811023622
        },
        {
          "duration": 0.40595268541665064,
          "durationTicks": 341,
          "midi": 67,
          "name": "G4",
          "ticks": 304320,
          "time": 497.714422,
          "velocity": 0.5905511811023622
        },
        {
          "duration": 0.13452391041670353,
          "durationTicks": 113,
          "midi": 74,
          "name": "D5",
          "ticks": 304440,
          "time": 497.85727925,
          "velocity": 0.5905511811023622
        },
        {
          "duration": 0.27023829791664866,
          "durationTicks": 227,
          "midi": 79,
          "name": "G5",
          "ticks": 304560,
          "time": 498.0001365,
          "velocity": 0.5905511811023622
        },
        {
          "duration": 0.13452391041664669,
          "durationTicks": 113,
          "midi": 69,
          "name": "A4",
          "ticks": 304680,
          "time": 498.14299374999996,
          "velocity": 0.5905511811023622
        },
        {
          "duration": 0.5416670729166526,
          "durationTicks": 455,
          "midi": 70,
          "name": "A#4",
          "ticks": 304800,
          "time": 498.285851,
          "velocity": 0.5905511811023622
        },
        {
          "duration": 0.13452391041664669,
          "durationTicks": 113,
          "midi": 72,
          "name": "C5",
          "ticks": 304920,
          "time": 498.42870825,
          "velocity": 0.5905511811023622
        },
        {
          "duration": 0.13452391041664669,
          "durationTicks": 113,
          "midi": 74,
          "name": "D5",
          "ticks": 305040,
          "time": 498.5715655,
          "velocity": 0.5905511811023622
        },
        {
          "duration": 0.13452391041670353,
          "durationTicks": 113,
          "midi": 75,
          "name": "D#5",
          "ticks": 305160,
          "time": 498.71442275,
          "velocity": 0.5905511811023622
        },
        {
          "duration": 0.13452391041664669,
          "durationTicks": 113,
          "midi": 77,
          "name": "F5",
          "ticks": 305280,
          "time": 498.85728,
          "velocity": 0.5905511811023622
        },
        {
          "duration": 0.5416670729166526,
          "durationTicks": 455,
          "midi": 71,
          "name": "B4",
          "ticks": 305280,
          "time": 498.85728,
          "velocity": 0.5905511811023622
        },
        {
          "duration": 0.13452391041664669,
          "durationTicks": 113,
          "midi": 80,
          "name": "G#5",
          "ticks": 305400,
          "time": 499.00013724999997,
          "velocity": 0.5905511811023622
        },
        {
          "duration": 0.13452391041664669,
          "durationTicks": 113,
          "midi": 79,
          "name": "G5",
          "ticks": 305520,
          "time": 499.1429945,
          "velocity": 0.5905511811023622
        },
        {
          "duration": 0.13452391041664669,
          "durationTicks": 113,
          "midi": 77,
          "name": "F5",
          "ticks": 305640,
          "time": 499.28585175,
          "velocity": 0.5905511811023622
        },
        {
          "duration": 0.27023829791664866,
          "durationTicks": 227,
          "midi": 75,
          "name": "D#5",
          "ticks": 305760,
          "time": 499.428709,
          "velocity": 0.5905511811023622
        },
        {
          "duration": 0.5416670729166526,
          "durationTicks": 455,
          "midi": 72,
          "name": "C5",
          "ticks": 305760,
          "time": 499.428709,
          "velocity": 0.5905511811023622
        },
        {
          "duration": 0.13452391041670353,
          "durationTicks": 113,
          "midi": 79,
          "name": "G5",
          "ticks": 306000,
          "time": 499.71442349999995,
          "velocity": 0.5905511811023622
        },
        {
          "duration": 0.13452391041664669,
          "durationTicks": 113,
          "midi": 77,
          "name": "F5",
          "ticks": 306120,
          "time": 499.85728075,
          "velocity": 0.5905511811023622
        },
        {
          "duration": 0.27023829791664866,
          "durationTicks": 227,
          "midi": 75,
          "name": "D#5",
          "ticks": 306240,
          "time": 500.000138,
          "velocity": 0.5905511811023622
        },
        {
          "duration": 0.27023829791664866,
          "durationTicks": 227,
          "midi": 72,
          "name": "C5",
          "ticks": 306240,
          "time": 500.000138,
          "velocity": 0.5905511811023622
        },
        {
          "duration": 0.13452391041670353,
          "durationTicks": 113,
          "midi": 75,
          "name": "D#5",
          "ticks": 306480,
          "time": 500.2858525,
          "velocity": 0.5905511811023622
        },
        {
          "duration": 0.2702382979167055,
          "durationTicks": 227,
          "midi": 71,
          "name": "B4",
          "ticks": 306480,
          "time": 500.2858525,
          "velocity": 0.5905511811023622
        },
        {
          "duration": 0.13452391041664669,
          "durationTicks": 113,
          "midi": 74,
          "name": "D5",
          "ticks": 306600,
          "time": 500.42870975,
          "velocity": 0.5905511811023622
        },
        {
          "duration": 0.5416670729167095,
          "durationTicks": 455,
          "midi": 75,
          "name": "D#5",
          "ticks": 306720,
          "time": 500.57156699999996,
          "velocity": 0.5905511811023622
        },
        {
          "duration": 0.13452391041664669,
          "durationTicks": 113,
          "midi": 72,
          "name": "C5",
          "ticks": 306720,
          "time": 500.57156699999996,
          "velocity": 0.5905511811023622
        },
        {
          "duration": 0.13452391041664669,
          "durationTicks": 113,
          "midi": 68,
          "name": "G#4",
          "ticks": 306840,
          "time": 500.71442425,
          "velocity": 0.5905511811023622
        },
        {
          "duration": 0.13452391041664669,
          "durationTicks": 113,
          "midi": 67,
          "name": "G4",
          "ticks": 306960,
          "time": 500.8572815,
          "velocity": 0.5905511811023622
        },
        {
          "duration": 0.13452391041664669,
          "durationTicks": 113,
          "midi": 65,
          "name": "F4",
          "ticks": 307080,
          "time": 501.00013875,
          "velocity": 0.5905511811023622
        },
        {
          "duration": 0,
          "durationTicks": 0,
          "midi": 63,
          "name": "D#4",
          "ticks": 307200,
          "time": 501.142996,
          "velocity": 0.5905511811023622
        },
        {
          "duration": 0.4059526854167075,
          "durationTicks": 341,
          "midi": 63,
          "name": "D#4",
          "ticks": 307200,
          "time": 501.142996,
          "velocity": 0.5905511811023622
        },
        {
          "duration": 0.13452391041664669,
          "durationTicks": 113,
          "midi": 67,
          "name": "G4",
          "ticks": 307320,
          "time": 501.28585325,
          "velocity": 0.5905511811023622
        },
        {
          "duration": 0.27023829791664866,
          "durationTicks": 227,
          "midi": 72,
          "name": "C5",
          "ticks": 307440,
          "time": 501.42871049999997,
          "velocity": 0.5905511811023622
        },
        {
          "duration": 0.13452391041664669,
          "durationTicks": 113,
          "midi": 64,
          "name": "E4",
          "ticks": 307560,
          "time": 501.57156775,
          "velocity": 0.5905511811023622
        },
        {
          "duration": 0.5416670729166526,
          "durationTicks": 455,
          "midi": 65,
          "name": "F4",
          "ticks": 307680,
          "time": 501.714425,
          "velocity": 0.5905511811023622
        },
        {
          "duration": 0.13452391041664669,
          "durationTicks": 113,
          "midi": 67,
          "name": "G4",
          "ticks": 307800,
          "time": 501.85728225,
          "velocity": 0.5905511811023622
        },
        {
          "duration": 0.13452391041664669,
          "durationTicks": 113,
          "midi": 69,
          "name": "A4",
          "ticks": 307920,
          "time": 502.0001395,
          "velocity": 0.5905511811023622
        },
        {
          "duration": 0.13452391041670353,
          "durationTicks": 113,
          "midi": 70,
          "name": "A#4",
          "ticks": 308040,
          "time": 502.14299674999995,
          "velocity": 0.5905511811023622
        },
        {
          "duration": 0.13452391041664669,
          "durationTicks": 113,
          "midi": 72,
          "name": "C5",
          "ticks": 308160,
          "time": 502.285854,
          "velocity": 0.5905511811023622
        },
        {
          "duration": 0.5416670729166526,
          "durationTicks": 455,
          "midi": 66,
          "name": "F#4",
          "ticks": 308160,
          "time": 502.285854,
          "velocity": 0.5905511811023622
        },
        {
          "duration": 0.13452391041664669,
          "durationTicks": 113,
          "midi": 75,
          "name": "D#5",
          "ticks": 308280,
          "time": 502.42871125,
          "velocity": 0.5905511811023622
        },
        {
          "duration": 0.13452391041664669,
          "durationTicks": 113,
          "midi": 74,
          "name": "D5",
          "ticks": 308400,
          "time": 502.5715685,
          "velocity": 0.5905511811023622
        },
        {
          "duration": 0.13452391041670353,
          "durationTicks": 113,
          "midi": 72,
          "name": "C5",
          "ticks": 308520,
          "time": 502.71442575,
          "velocity": 0.5905511811023622
        },
        {
          "duration": 0.27023829791664866,
          "durationTicks": 227,
          "midi": 70,
          "name": "A#4",
          "ticks": 308640,
          "time": 502.857283,
          "velocity": 0.5905511811023622
        },
        {
          "duration": 0.5416670729167095,
          "durationTicks": 455,
          "midi": 67,
          "name": "G4",
          "ticks": 308640,
          "time": 502.857283,
          "velocity": 0.5905511811023622
        },
        {
          "duration": 0.13452391041664669,
          "durationTicks": 113,
          "midi": 74,
          "name": "D5",
          "ticks": 308880,
          "time": 503.1429975,
          "velocity": 0.5905511811023622
        },
        {
          "duration": 0.13452391041664669,
          "durationTicks": 113,
          "midi": 72,
          "name": "C5",
          "ticks": 309000,
          "time": 503.28585475,
          "velocity": 0.5905511811023622
        },
        {
          "duration": 0.27023829791664866,
          "durationTicks": 227,
          "midi": 70,
          "name": "A#4",
          "ticks": 309120,
          "time": 503.428712,
          "velocity": 0.5905511811023622
        },
        {
          "duration": 0.27023829791664866,
          "durationTicks": 227,
          "midi": 67,
          "name": "G4",
          "ticks": 309120,
          "time": 503.428712,
          "velocity": 0.5905511811023622
        },
        {
          "duration": 0.13452391041664669,
          "durationTicks": 113,
          "midi": 70,
          "name": "A#4",
          "ticks": 309360,
          "time": 503.7144265,
          "velocity": 0.5905511811023622
        },
        {
          "duration": 0.27023829791664866,
          "durationTicks": 227,
          "midi": 66,
          "name": "F#4",
          "ticks": 309360,
          "time": 503.7144265,
          "velocity": 0.5905511811023622
        },
        {
          "duration": 0.13452391041664669,
          "durationTicks": 113,
          "midi": 69,
          "name": "A4",
          "ticks": 309480,
          "time": 503.85728374999997,
          "velocity": 0.5905511811023622
        },
        {
          "duration": 0.13452391041664669,
          "durationTicks": 113,
          "midi": 70,
          "name": "A#4",
          "ticks": 309600,
          "time": 504.000141,
          "velocity": 0.5905511811023622
        },
        {
          "duration": 0.40595268541665064,
          "durationTicks": 341,
          "midi": 67,
          "name": "G4",
          "ticks": 309600,
          "time": 504.000141,
          "velocity": 0.5905511811023622
        },
        {
          "duration": 0.13452391041664669,
          "durationTicks": 113,
          "midi": 74,
          "name": "D5",
          "ticks": 309720,
          "time": 504.14299825,
          "velocity": 0.5905511811023622
        },
        {
          "duration": 0.27023829791664866,
          "durationTicks": 227,
          "midi": 79,
          "name": "G5",
          "ticks": 309840,
          "time": 504.2858555,
          "velocity": 0.5905511811023622
        },
        {
          "duration": 0.13452391041664669,
          "durationTicks": 113,
          "midi": 69,
          "name": "A4",
          "ticks": 309960,
          "time": 504.42871275,
          "velocity": 0.5905511811023622
        },
        {
          "duration": 1.6273821729166684,
          "durationTicks": 1367,
          "midi": 73,
          "name": "C#5",
          "ticks": 310080,
          "time": 504.57156999999995,
          "velocity": 0.5905511811023622
        },
        {
          "duration": 0.5416670729167095,
          "durationTicks": 455,
          "midi": 70,
          "name": "A#4",
          "ticks": 310080,
          "time": 504.57156999999995,
          "velocity": 0.5905511811023622
        },
        {
          "duration": 0.5416670729167095,
          "durationTicks": 455,
          "midi": 69,
          "name": "A4",
          "ticks": 310560,
          "time": 505.142999,
          "velocity": 0.5905511811023622
        },
        {
          "duration": 0.5416670729166526,
          "durationTicks": 455,
          "midi": 67,
          "name": "G4",
          "ticks": 311040,
          "time": 505.714428,
          "velocity": 0.5905511811023622
        },
        {
          "duration": 1.6273821729166684,
          "durationTicks": 1367,
          "midi": 74,
          "name": "D5",
          "ticks": 311520,
          "time": 506.28585699999996,
          "velocity": 0.5905511811023622
        },
        {
          "duration": 0.5416670729167095,
          "durationTicks": 455,
          "midi": 65,
          "name": "F4",
          "ticks": 311520,
          "time": 506.28585699999996,
          "velocity": 0.5905511811023622
        },
        {
          "duration": 0.2702382979167055,
          "durationTicks": 227,
          "midi": 67,
          "name": "G4",
          "ticks": 312000,
          "time": 506.857286,
          "velocity": 0.5905511811023622
        },
        {
          "duration": 0.27023829791664866,
          "durationTicks": 227,
          "midi": 65,
          "name": "F4",
          "ticks": 312240,
          "time": 507.14300049999997,
          "velocity": 0.5905511811023622
        },
        {
          "duration": 0.27023829791664866,
          "durationTicks": 227,
          "midi": 64,
          "name": "E4",
          "ticks": 312480,
          "time": 507.428715,
          "velocity": 0.5905511811023622
        },
        {
          "duration": 0.27023829791664866,
          "durationTicks": 227,
          "midi": 62,
          "name": "D4",
          "ticks": 312720,
          "time": 507.7144295,
          "velocity": 0.5905511811023622
        },
        {
          "duration": 0.5416670729166526,
          "durationTicks": 455,
          "midi": 70,
          "name": "A#4",
          "ticks": 312960,
          "time": 508.000144,
          "velocity": 0.5905511811023622
        },
        {
          "duration": 0.27023829791664866,
          "durationTicks": 227,
          "midi": 64,
          "name": "E4",
          "ticks": 312960,
          "time": 508.000144,
          "velocity": 0.5905511811023622
        },
        {
          "duration": 0.13452391041664669,
          "durationTicks": 113,
          "midi": 67,
          "name": "G4",
          "ticks": 313200,
          "time": 508.2858585,
          "velocity": 0.5905511811023622
        },
        {
          "duration": 0.13452391041670353,
          "durationTicks": 113,
          "midi": 65,
          "name": "F4",
          "ticks": 313320,
          "time": 508.42871575,
          "velocity": 0.5905511811023622
        },
        {
          "duration": 0.5416670729166526,
          "durationTicks": 455,
          "midi": 69,
          "name": "A4",
          "ticks": 313440,
          "time": 508.571573,
          "velocity": 0.5905511811023622
        },
        {
          "duration": 0.13452391041664669,
          "durationTicks": 113,
          "midi": 64,
          "name": "E4",
          "ticks": 313440,
          "time": 508.571573,
          "velocity": 0.5905511811023622
        },
        {
          "duration": 0.13452391041664669,
          "durationTicks": 113,
          "midi": 65,
          "name": "F4",
          "ticks": 313560,
          "time": 508.71443024999996,
          "velocity": 0.5905511811023622
        },
        {
          "duration": 0.13452391041664669,
          "durationTicks": 113,
          "midi": 67,
          "name": "G4",
          "ticks": 313680,
          "time": 508.8572875,
          "velocity": 0.5905511811023622
        },
        {
          "duration": 0.13452391041664669,
          "durationTicks": 113,
          "midi": 64,
          "name": "E4",
          "ticks": 313800,
          "time": 509.00014475,
          "velocity": 0.5905511811023622
        },
        {
          "duration": 0.5416670729166526,
          "durationTicks": 455,
          "midi": 67,
          "name": "G4",
          "ticks": 313920,
          "time": 509.143002,
          "velocity": 0.5905511811023622
        },
        {
          "duration": 0.13452391041664669,
          "durationTicks": 113,
          "midi": 61,
          "name": "C#4",
          "ticks": 313920,
          "time": 509.143002,
          "velocity": 0.5905511811023622
        },
        {
          "duration": 0.13452391041664669,
          "durationTicks": 113,
          "midi": 62,
          "name": "D4",
          "ticks": 314040,
          "time": 509.28585925,
          "velocity": 0.5905511811023622
        },
        {
          "duration": 0.13452391041670353,
          "durationTicks": 113,
          "midi": 64,
          "name": "E4",
          "ticks": 314160,
          "time": 509.42871649999995,
          "velocity": 0.5905511811023622
        },
        {
          "duration": 0.13452391041664669,
          "durationTicks": 113,
          "midi": 61,
          "name": "C#4",
          "ticks": 314280,
          "time": 509.57157374999997,
          "velocity": 0.5905511811023622
        },
        {
          "duration": 0.5416670729166526,
          "durationTicks": 455,
          "midi": 65,
          "name": "F4",
          "ticks": 314400,
          "time": 509.714431,
          "velocity": 0.5905511811023622
        },
        {
          "duration": 0.27023829791664866,
          "durationTicks": 227,
          "midi": 57,
          "name": "A3",
          "ticks": 314400,
          "time": 509.714431,
          "velocity": 0.5905511811023622
        },
        {
          "duration": 0.13452391041664669,
          "durationTicks": 113,
          "midi": 62,
          "name": "D4",
          "ticks": 314640,
          "time": 510.00014550000003,
          "velocity": 0.5905511811023622
        },
        {
          "duration": 0.13452391041664669,
          "durationTicks": 113,
          "midi": 61,
          "name": "C#4",
          "ticks": 314760,
          "time": 510.14300275,
          "velocity": 0.5905511811023622
        },
        {
          "duration": 0.2702382979167055,
          "durationTicks": 227,
          "midi": 67,
          "name": "G4",
          "ticks": 314880,
          "time": 510.28585999999996,
          "velocity": 0.5905511811023622
        },
        {
          "duration": 0.2702382979167055,
          "durationTicks": 227,
          "midi": 62,
          "name": "D4",
          "ticks": 314880,
          "time": 510.28585999999996,
          "velocity": 0.5905511811023622
        },
        {
          "duration": 0.27023829791664866,
          "durationTicks": 227,
          "midi": 65,
          "name": "F4",
          "ticks": 315120,
          "time": 510.5715745,
          "velocity": 0.5905511811023622
        },
        {
          "duration": 0.13452391041664669,
          "durationTicks": 113,
          "midi": 62,
          "name": "D4",
          "ticks": 315120,
          "time": 510.5715745,
          "velocity": 0.5905511811023622
        },
        {
          "duration": 0.13452391041664669,
          "durationTicks": 113,
          "midi": 61,
          "name": "C#4",
          "ticks": 315240,
          "time": 510.71443175,
          "velocity": 0.5905511811023622
        },
        {
          "duration": 0.2702382979167055,
          "durationTicks": 227,
          "midi": 64,
          "name": "E4",
          "ticks": 315360,
          "time": 510.857289,
          "velocity": 0.5905511811023622
        },
        {
          "duration": 0.2702382979167055,
          "durationTicks": 227,
          "midi": 62,
          "name": "D4",
          "ticks": 315360,
          "time": 510.857289,
          "velocity": 0.5905511811023622
        },
        {
          "duration": 0,
          "durationTicks": 0,
          "midi": 62,
          "name": "D4",
          "ticks": 315600,
          "time": 511.14300349999996,
          "velocity": 0.5905511811023622
        },
        {
          "duration": 0.27023829791664866,
          "durationTicks": 227,
          "midi": 62,
          "name": "D4",
          "ticks": 315600,
          "time": 511.14300349999996,
          "velocity": 0.5905511811023622
        },
        {
          "duration": 0.13452391041664669,
          "durationTicks": 113,
          "midi": 61,
          "name": "C#4",
          "ticks": 315720,
          "time": 511.28586075,
          "velocity": 0.5905511811023622
        },
        {
          "duration": 0.27023829791664866,
          "durationTicks": 227,
          "midi": 64,
          "name": "E4",
          "ticks": 315840,
          "time": 511.428718,
          "velocity": 0.5905511811023622
        },
        {
          "duration": 0.5416670729166526,
          "durationTicks": 455,
          "midi": 62,
          "name": "D4",
          "ticks": 315840,
          "time": 511.428718,
          "velocity": 0.5905511811023622
        },
        {
          "duration": 0.13452391041664669,
          "durationTicks": 113,
          "midi": 64,
          "name": "E4",
          "ticks": 316080,
          "time": 511.7144325,
          "velocity": 0.5905511811023622
        },
        {
          "duration": 0.13452391041670353,
          "durationTicks": 113,
          "midi": 65,
          "name": "F4",
          "ticks": 316200,
          "time": 511.85728974999995,
          "velocity": 0.5905511811023622
        },
        {
          "duration": 0.13452391041664669,
          "durationTicks": 113,
          "midi": 67,
          "name": "G4",
          "ticks": 316320,
          "time": 512.000147,
          "velocity": 0.5905511811023622
        },
        {
          "duration": 0.13452391041664669,
          "durationTicks": 113,
          "midi": 69,
          "name": "A4",
          "ticks": 316440,
          "time": 512.14300425,
          "velocity": 0.5905511811023622
        },
        {
          "duration": 0.13452391041664669,
          "durationTicks": 113,
          "midi": 70,
          "name": "A#4",
          "ticks": 316560,
          "time": 512.2858615,
          "velocity": 0.5905511811023622
        },
        {
          "duration": 0.13452391041664669,
          "durationTicks": 113,
          "midi": 67,
          "name": "G4",
          "ticks": 316680,
          "time": 512.42871875,
          "velocity": 0.5905511811023622
        },
        {
          "duration": 0.13452391041664669,
          "durationTicks": 113,
          "midi": 70,
          "name": "A#4",
          "ticks": 316920,
          "time": 512.71443325,
          "velocity": 0.5905511811023622
        },
        {
          "duration": 0.13452391041664669,
          "durationTicks": 113,
          "midi": 69,
          "name": "A4",
          "ticks": 317040,
          "time": 512.8572905,
          "velocity": 0.5905511811023622
        },
        {
          "duration": 0.13452391041664669,
          "durationTicks": 113,
          "midi": 67,
          "name": "G4",
          "ticks": 317160,
          "time": 513.00014775,
          "velocity": 0.5905511811023622
        },
        {
          "duration": 0.13452391041664669,
          "durationTicks": 113,
          "midi": 66,
          "name": "F#4",
          "ticks": 317280,
          "time": 513.143005,
          "velocity": 0.5905511811023622
        },
        {
          "duration": 0.13452391041664669,
          "durationTicks": 113,
          "midi": 62,
          "name": "D4",
          "ticks": 317400,
          "time": 513.28586225,
          "velocity": 0.5905511811023622
        },
        {
          "duration": 0.13452391041664669,
          "durationTicks": 113,
          "midi": 66,
          "name": "F#4",
          "ticks": 317520,
          "time": 513.4287194999999,
          "velocity": 0.5905511811023622
        },
        {
          "duration": 0.13452391041664669,
          "durationTicks": 113,
          "midi": 67,
          "name": "G4",
          "ticks": 317640,
          "time": 513.57157675,
          "velocity": 0.5905511811023622
        },
        {
          "duration": 0.13452391041664669,
          "durationTicks": 113,
          "midi": 69,
          "name": "A4",
          "ticks": 317760,
          "time": 513.714434,
          "velocity": 0.5905511811023622
        },
        {
          "duration": 0.13452391041664669,
          "durationTicks": 113,
          "midi": 66,
          "name": "F#4",
          "ticks": 317880,
          "time": 513.85729125,
          "velocity": 0.5905511811023622
        },
        {
          "duration": 0.13452391041664669,
          "durationTicks": 113,
          "midi": 69,
          "name": "A4",
          "ticks": 318000,
          "time": 514.0001485,
          "velocity": 0.5905511811023622
        },
        {
          "duration": 0.13452391041664669,
          "durationTicks": 113,
          "midi": 70,
          "name": "A#4",
          "ticks": 318120,
          "time": 514.1430057499999,
          "velocity": 0.5905511811023622
        },
        {
          "duration": 0.13452391041676037,
          "durationTicks": 113,
          "midi": 72,
          "name": "C5",
          "ticks": 318240,
          "time": 514.285863,
          "velocity": 0.5905511811023622
        },
        {
          "duration": 0.13452391041664669,
          "durationTicks": 113,
          "midi": 69,
          "name": "A4",
          "ticks": 318360,
          "time": 514.42872025,
          "velocity": 0.5905511811023622
        },
        {
          "duration": 0.13452391041664669,
          "durationTicks": 113,
          "midi": 71,
          "name": "B4",
          "ticks": 318480,
          "time": 514.5715775,
          "velocity": 0.5905511811023622
        },
        {
          "duration": 0.13452391041664669,
          "durationTicks": 113,
          "midi": 72,
          "name": "C5",
          "ticks": 318600,
          "time": 514.71443475,
          "velocity": 0.5905511811023622
        },
        {
          "duration": 0.27023829791664866,
          "durationTicks": 227,
          "midi": 68,
          "name": "G#4",
          "ticks": 318720,
          "time": 514.857292,
          "velocity": 0.5905511811023622
        },
        {
          "duration": 0.13452391041664669,
          "durationTicks": 113,
          "midi": 71,
          "name": "B4",
          "ticks": 318960,
          "time": 515.1430065,
          "velocity": 0.5905511811023622
        },
        {
          "duration": 0.13452391041664669,
          "durationTicks": 113,
          "midi": 72,
          "name": "C5",
          "ticks": 319080,
          "time": 515.28586375,
          "velocity": 0.5905511811023622
        },
        {
          "duration": 0.27023829791664866,
          "durationTicks": 227,
          "midi": 74,
          "name": "D5",
          "ticks": 319200,
          "time": 515.428721,
          "velocity": 0.5905511811023622
        },
        {
          "duration": 0.13452391041664669,
          "durationTicks": 113,
          "midi": 74,
          "name": "D5",
          "ticks": 319440,
          "time": 515.7144355,
          "velocity": 0.5905511811023622
        },
        {
          "duration": 0.13452391041664669,
          "durationTicks": 113,
          "midi": 76,
          "name": "E5",
          "ticks": 319560,
          "time": 515.8572927499999,
          "velocity": 0.5905511811023622
        },
        {
          "duration": 0.27023829791664866,
          "durationTicks": 227,
          "midi": 77,
          "name": "F5",
          "ticks": 319680,
          "time": 516.00015,
          "velocity": 0.5905511811023622
        },
        {
          "duration": 0.13452391041664669,
          "durationTicks": 113,
          "midi": 76,
          "name": "E5",
          "ticks": 319920,
          "time": 516.2858645,
          "velocity": 0.5905511811023622
        },
        {
          "duration": 0.13452391041664669,
          "durationTicks": 113,
          "midi": 74,
          "name": "D5",
          "ticks": 320040,
          "time": 516.42872175,
          "velocity": 0.5905511811023622
        },
        {
          "duration": 0.5416670729167663,
          "durationTicks": 455,
          "midi": 72,
          "name": "C5",
          "ticks": 320160,
          "time": 516.5715789999999,
          "velocity": 0.5905511811023622
        },
        {
          "duration": 0,
          "durationTicks": 0,
          "midi": 57,
          "name": "A3",
          "ticks": 320160,
          "time": 516.5715789999999,
          "velocity": 0.5905511811023622
        },
        {
          "duration": 0.13452391041676037,
          "durationTicks": 113,
          "midi": 70,
          "name": "A#4",
          "ticks": 320280,
          "time": 516.71443625,
          "velocity": 0.5905511811023622
        },
        {
          "duration": 0.13452391041664669,
          "durationTicks": 113,
          "midi": 69,
          "name": "A4",
          "ticks": 320400,
          "time": 516.8572935,
          "velocity": 0.5905511811023622
        },
        {
          "duration": 0.13452391041664669,
          "durationTicks": 113,
          "midi": 67,
          "name": "G4",
          "ticks": 320520,
          "time": 517.00015075,
          "velocity": 0.5905511811023622
        },
        {
          "duration": 1.0845246229166605,
          "durationTicks": 911,
          "midi": 66,
          "name": "F#4",
          "ticks": 320640,
          "time": 517.143008,
          "velocity": 0.5905511811023622
        },
        {
          "duration": 0.13452391041664669,
          "durationTicks": 113,
          "midi": 67,
          "name": "G4",
          "ticks": 320760,
          "time": 517.28586525,
          "velocity": 0.5905511811023622
        },
        {
          "duration": 0.13452391041664669,
          "durationTicks": 113,
          "midi": 69,
          "name": "A4",
          "ticks": 320880,
          "time": 517.4287225,
          "velocity": 0.5905511811023622
        },
        {
          "duration": 0.13452391041664669,
          "durationTicks": 113,
          "midi": 70,
          "name": "A#4",
          "ticks": 321000,
          "time": 517.57157975,
          "velocity": 0.5905511811023622
        },
        {
          "duration": 0.13452391041664669,
          "durationTicks": 113,
          "midi": 72,
          "name": "C5",
          "ticks": 321120,
          "time": 517.714437,
          "velocity": 0.5905511811023622
        },
        {
          "duration": 0.13452391041664669,
          "durationTicks": 113,
          "midi": 75,
          "name": "D#5",
          "ticks": 321240,
          "time": 517.85729425,
          "velocity": 0.5905511811023622
        },
        {
          "duration": 0.13452391041664669,
          "durationTicks": 113,
          "midi": 74,
          "name": "D5",
          "ticks": 321360,
          "time": 518.0001515,
          "velocity": 0.5905511811023622
        },
        {
          "duration": 0.13452391041664669,
          "durationTicks": 113,
          "midi": 72,
          "name": "C5",
          "ticks": 321480,
          "time": 518.14300875,
          "velocity": 0.5905511811023622
        },
        {
          "duration": 0.5416670729166526,
          "durationTicks": 455,
          "midi": 70,
          "name": "A#4",
          "ticks": 321600,
          "time": 518.2858659999999,
          "velocity": 0.5905511811023622
        },
        {
          "duration": 0.13452391041664669,
          "durationTicks": 113,
          "midi": 69,
          "name": "A4",
          "ticks": 321720,
          "time": 518.42872325,
          "velocity": 0.5905511811023622
        },
        {
          "duration": 0.13452391041664669,
          "durationTicks": 113,
          "midi": 67,
          "name": "G4",
          "ticks": 321840,
          "time": 518.5715805,
          "velocity": 0.5905511811023622
        },
        {
          "duration": 0.13452391041664669,
          "durationTicks": 113,
          "midi": 65,
          "name": "F4",
          "ticks": 321960,
          "time": 518.71443775,
          "velocity": 0.5905511811023622
        },
        {
          "duration": 1.0845246229166605,
          "durationTicks": 911,
          "midi": 64,
          "name": "E4",
          "ticks": 322080,
          "time": 518.857295,
          "velocity": 0.5905511811023622
        },
        {
          "duration": 0.13452391041664669,
          "durationTicks": 113,
          "midi": 65,
          "name": "F4",
          "ticks": 322200,
          "time": 519.0001522499999,
          "velocity": 0.5905511811023622
        },
        {
          "duration": 0.13452391041676037,
          "durationTicks": 113,
          "midi": 67,
          "name": "G4",
          "ticks": 322320,
          "time": 519.1430095,
          "velocity": 0.5905511811023622
        },
        {
          "duration": 0.13452391041664669,
          "durationTicks": 113,
          "midi": 69,
          "name": "A4",
          "ticks": 322440,
          "time": 519.28586675,
          "velocity": 0.5905511811023622
        },
        {
          "duration": 0.13452391041664669,
          "durationTicks": 113,
          "midi": 70,
          "name": "A#4",
          "ticks": 322560,
          "time": 519.428724,
          "velocity": 0.5905511811023622
        },
        {
          "duration": 0.13452391041664669,
          "durationTicks": 113,
          "midi": 74,
          "name": "D5",
          "ticks": 322680,
          "time": 519.57158125,
          "velocity": 0.5905511811023622
        },
        {
          "duration": 0.13452391041664669,
          "durationTicks": 113,
          "midi": 72,
          "name": "C5",
          "ticks": 322800,
          "time": 519.7144385,
          "velocity": 0.5905511811023622
        },
        {
          "duration": 0.13452391041664669,
          "durationTicks": 113,
          "midi": 70,
          "name": "A#4",
          "ticks": 322920,
          "time": 519.85729575,
          "velocity": 0.5905511811023622
        },
        {
          "duration": 0.5416670729166526,
          "durationTicks": 455,
          "midi": 69,
          "name": "A4",
          "ticks": 323040,
          "time": 520.000153,
          "velocity": 0.5905511811023622
        },
        {
          "duration": 0.13452391041664669,
          "durationTicks": 113,
          "midi": 67,
          "name": "G4",
          "ticks": 323160,
          "time": 520.14301025,
          "velocity": 0.5905511811023622
        },
        {
          "duration": 0.13452391041664669,
          "durationTicks": 113,
          "midi": 65,
          "name": "F4",
          "ticks": 323280,
          "time": 520.2858675,
          "velocity": 0.5905511811023622
        },
        {
          "duration": 0.13452391041664669,
          "durationTicks": 113,
          "midi": 64,
          "name": "E4",
          "ticks": 323400,
          "time": 520.42872475,
          "velocity": 0.5905511811023622
        },
        {
          "duration": 0.27023829791664866,
          "durationTicks": 227,
          "midi": 62,
          "name": "D4",
          "ticks": 323520,
          "time": 520.571582,
          "velocity": 0.5905511811023622
        },
        {
          "duration": 0.13452391041664669,
          "durationTicks": 113,
          "midi": 69,
          "name": "A4",
          "ticks": 323640,
          "time": 520.7144392499999,
          "velocity": 0.5905511811023622
        },
        {
          "duration": 0.13452391041664669,
          "durationTicks": 113,
          "midi": 71,
          "name": "B4",
          "ticks": 323760,
          "time": 520.8572965,
          "velocity": 0.5905511811023622
        },
        {
          "duration": 0.13452391041664669,
          "durationTicks": 113,
          "midi": 73,
          "name": "C#5",
          "ticks": 323880,
          "time": 521.00015375,
          "velocity": 0.5905511811023622
        },
        {
          "duration": 0.13452391041664669,
          "durationTicks": 113,
          "midi": 74,
          "name": "D5",
          "ticks": 324000,
          "time": 521.143011,
          "velocity": 0.5905511811023622
        },
        {
          "duration": 0.13452391041664669,
          "durationTicks": 113,
          "midi": 77,
          "name": "F5",
          "ticks": 324120,
          "time": 521.28586825,
          "velocity": 0.5905511811023622
        },
        {
          "duration": 0.13452391041664669,
          "durationTicks": 113,
          "midi": 76,
          "name": "E5",
          "ticks": 324240,
          "time": 521.4287254999999,
          "velocity": 0.5905511811023622
        },
        {
          "duration": 0.13452391041676037,
          "durationTicks": 113,
          "midi": 74,
          "name": "D5",
          "ticks": 324360,
          "time": 521.57158275,
          "velocity": 0.5905511811023622
        },
        {
          "duration": 0.13452391041664669,
          "durationTicks": 113,
          "midi": 73,
          "name": "C#5",
          "ticks": 324480,
          "time": 521.71444,
          "velocity": 0.5905511811023622
        },
        {
          "duration": 0.13452391041664669,
          "durationTicks": 113,
          "midi": 74,
          "name": "D5",
          "ticks": 324600,
          "time": 521.85729725,
          "velocity": 0.5905511811023622
        },
        {
          "duration": 0.13452391041664669,
          "durationTicks": 113,
          "midi": 76,
          "name": "E5",
          "ticks": 324720,
          "time": 522.0001545,
          "velocity": 0.5905511811023622
        },
        {
          "duration": 0.13452391041664669,
          "durationTicks": 113,
          "midi": 77,
          "name": "F5",
          "ticks": 324840,
          "time": 522.14301175,
          "velocity": 0.5905511811023622
        },
        {
          "duration": 0.13452391041664669,
          "durationTicks": 113,
          "midi": 79,
          "name": "G5",
          "ticks": 324960,
          "time": 522.285869,
          "velocity": 0.5905511811023622
        },
        {
          "duration": 0.13452391041664669,
          "durationTicks": 113,
          "midi": 77,
          "name": "F5",
          "ticks": 325080,
          "time": 522.42872625,
          "velocity": 0.5905511811023622
        },
        {
          "duration": 0.13452391041664669,
          "durationTicks": 113,
          "midi": 76,
          "name": "E5",
          "ticks": 325200,
          "time": 522.5715835,
          "velocity": 0.5905511811023622
        },
        {
          "duration": 0.13452391041664669,
          "durationTicks": 113,
          "midi": 77,
          "name": "F5",
          "ticks": 325320,
          "time": 522.71444075,
          "velocity": 0.5905511811023622
        },
        {
          "duration": 0.13452391041664669,
          "durationTicks": 113,
          "midi": 79,
          "name": "G5",
          "ticks": 325440,
          "time": 522.857298,
          "velocity": 0.5905511811023622
        },
        {
          "duration": 0.13452391041664669,
          "durationTicks": 113,
          "midi": 82,
          "name": "A#5",
          "ticks": 325560,
          "time": 523.00015525,
          "velocity": 0.5905511811023622
        },
        {
          "duration": 0.13452391041664669,
          "durationTicks": 113,
          "midi": 81,
          "name": "A5",
          "ticks": 325680,
          "time": 523.1430124999999,
          "velocity": 0.5905511811023622
        },
        {
          "duration": 0.13452391041664669,
          "durationTicks": 113,
          "midi": 79,
          "name": "G5",
          "ticks": 325800,
          "time": 523.28586975,
          "velocity": 0.5905511811023622
        },
        {
          "duration": 0.5416670729166526,
          "durationTicks": 455,
          "midi": 77,
          "name": "F5",
          "ticks": 325920,
          "time": 523.428727,
          "velocity": 0.5905511811023622
        },
        {
          "duration": 0.13452391041664669,
          "durationTicks": 113,
          "midi": 76,
          "name": "E5",
          "ticks": 326040,
          "time": 523.57158425,
          "velocity": 0.5905511811023622
        },
        {
          "duration": 0.13452391041664669,
          "durationTicks": 113,
          "midi": 74,
          "name": "D5",
          "ticks": 326160,
          "time": 523.7144415,
          "velocity": 0.5905511811023622
        },
        {
          "duration": 0.13452391041676037,
          "durationTicks": 113,
          "midi": 72,
          "name": "C5",
          "ticks": 326280,
          "time": 523.8572987499999,
          "velocity": 0.5905511811023622
        },
        {
          "duration": 1.0845246229167742,
          "durationTicks": 911,
          "midi": 71,
          "name": "B4",
          "ticks": 326400,
          "time": 524.000156,
          "velocity": 0.5905511811023622
        },
        {
          "duration": 0.13452391041664669,
          "durationTicks": 113,
          "midi": 72,
          "name": "C5",
          "ticks": 326520,
          "time": 524.14301325,
          "velocity": 0.5905511811023622
        },
        {
          "duration": 0.13452391041664669,
          "durationTicks": 113,
          "midi": 74,
          "name": "D5",
          "ticks": 326640,
          "time": 524.2858705,
          "velocity": 0.5905511811023622
        },
        {
          "duration": 0.13452391041664669,
          "durationTicks": 113,
          "midi": 76,
          "name": "E5",
          "ticks": 326760,
          "time": 524.42872775,
          "velocity": 0.5905511811023622
        },
        {
          "duration": 0.13452391041664669,
          "durationTicks": 113,
          "midi": 77,
          "name": "F5",
          "ticks": 326880,
          "time": 524.571585,
          "velocity": 0.5905511811023622
        },
        {
          "duration": 0.13452391041664669,
          "durationTicks": 113,
          "midi": 81,
          "name": "A5",
          "ticks": 327000,
          "time": 524.71444225,
          "velocity": 0.5905511811023622
        },
        {
          "duration": 0.13452391041664669,
          "durationTicks": 113,
          "midi": 79,
          "name": "G5",
          "ticks": 327120,
          "time": 524.8572995,
          "velocity": 0.5905511811023622
        },
        {
          "duration": 0.13452391041664669,
          "durationTicks": 113,
          "midi": 77,
          "name": "F5",
          "ticks": 327240,
          "time": 525.00015675,
          "velocity": 0.5905511811023622
        },
        {
          "duration": 0.5416670729166526,
          "durationTicks": 455,
          "midi": 76,
          "name": "E5",
          "ticks": 327360,
          "time": 525.143014,
          "velocity": 0.5905511811023622
        },
        {
          "duration": 0.13452391041664669,
          "durationTicks": 113,
          "midi": 74,
          "name": "D5",
          "ticks": 327480,
          "time": 525.28587125,
          "velocity": 0.5905511811023622
        },
        {
          "duration": 0.13452391041664669,
          "durationTicks": 113,
          "midi": 72,
          "name": "C5",
          "ticks": 327600,
          "time": 525.4287285,
          "velocity": 0.5905511811023622
        },
        {
          "duration": 0.13452391041664669,
          "durationTicks": 113,
          "midi": 70,
          "name": "A#4",
          "ticks": 327720,
          "time": 525.5715857499999,
          "velocity": 0.5905511811023622
        },
        {
          "duration": 1.0845246229166605,
          "durationTicks": 911,
          "midi": 69,
          "name": "A4",
          "ticks": 327840,
          "time": 525.714443,
          "velocity": 0.5905511811023622
        },
        {
          "duration": 0.13452391041664669,
          "durationTicks": 113,
          "midi": 70,
          "name": "A#4",
          "ticks": 327960,
          "time": 525.85730025,
          "velocity": 0.5905511811023622
        },
        {
          "duration": 0.13452391041664669,
          "durationTicks": 113,
          "midi": 72,
          "name": "C5",
          "ticks": 328080,
          "time": 526.0001575,
          "velocity": 0.5905511811023622
        },
        {
          "duration": 0.13452391041664669,
          "durationTicks": 113,
          "midi": 74,
          "name": "D5",
          "ticks": 328200,
          "time": 526.14301475,
          "velocity": 0.5905511811023622
        },
        {
          "duration": 0.13452391041676037,
          "durationTicks": 113,
          "midi": 75,
          "name": "D#5",
          "ticks": 328320,
          "time": 526.2858719999999,
          "velocity": 0.5905511811023622
        },
        {
          "duration": 0.13452391041676037,
          "durationTicks": 113,
          "midi": 79,
          "name": "G5",
          "ticks": 328440,
          "time": 526.42872925,
          "velocity": 0.5905511811023622
        },
        {
          "duration": 0.13452391041664669,
          "durationTicks": 113,
          "midi": 77,
          "name": "F5",
          "ticks": 328560,
          "time": 526.5715865,
          "velocity": 0.5905511811023622
        },
        {
          "duration": 0.13452391041664669,
          "durationTicks": 113,
          "midi": 75,
          "name": "D#5",
          "ticks": 328680,
          "time": 526.71444375,
          "velocity": 0.5905511811023622
        },
        {
          "duration": 0.5416670729166526,
          "durationTicks": 455,
          "midi": 74,
          "name": "D5",
          "ticks": 328800,
          "time": 526.857301,
          "velocity": 0.5905511811023622
        },
        {
          "duration": 0.13452391041664669,
          "durationTicks": 113,
          "midi": 72,
          "name": "C5",
          "ticks": 328920,
          "time": 527.00015825,
          "velocity": 0.5905511811023622
        },
        {
          "duration": 0.13452391041664669,
          "durationTicks": 113,
          "midi": 70,
          "name": "A#4",
          "ticks": 329040,
          "time": 527.1430155,
          "velocity": 0.5905511811023622
        },
        {
          "duration": 0.13452391041664669,
          "durationTicks": 113,
          "midi": 69,
          "name": "A4",
          "ticks": 329160,
          "time": 527.28587275,
          "velocity": 0.5905511811023622
        },
        {
          "duration": 1.0845246229166605,
          "durationTicks": 911,
          "midi": 67,
          "name": "G4",
          "ticks": 329280,
          "time": 527.42873,
          "velocity": 0.5905511811023622
        },
        {
          "duration": 0.13452391041664669,
          "durationTicks": 113,
          "midi": 69,
          "name": "A4",
          "ticks": 329400,
          "time": 527.57158725,
          "velocity": 0.5905511811023622
        },
        {
          "duration": 0.13452391041664669,
          "durationTicks": 113,
          "midi": 70,
          "name": "A#4",
          "ticks": 329520,
          "time": 527.7144445,
          "velocity": 0.5905511811023622
        },
        {
          "duration": 0.13452391041664669,
          "durationTicks": 113,
          "midi": 72,
          "name": "C5",
          "ticks": 329640,
          "time": 527.85730175,
          "velocity": 0.5905511811023622
        },
        {
          "duration": 0.13452391041664669,
          "durationTicks": 113,
          "midi": 74,
          "name": "D5",
          "ticks": 329760,
          "time": 528.0001589999999,
          "velocity": 0.5905511811023622
        },
        {
          "duration": 0.13452391041664669,
          "durationTicks": 113,
          "midi": 77,
          "name": "F5",
          "ticks": 329880,
          "time": 528.14301625,
          "velocity": 0.5905511811023622
        },
        {
          "duration": 0.13452391041664669,
          "durationTicks": 113,
          "midi": 75,
          "name": "D#5",
          "ticks": 330000,
          "time": 528.2858735,
          "velocity": 0.5905511811023622
        },
        {
          "duration": 0.13452391041664669,
          "durationTicks": 113,
          "midi": 74,
          "name": "D5",
          "ticks": 330120,
          "time": 528.42873075,
          "velocity": 0.5905511811023622
        },
        {
          "duration": 0.5416670729166526,
          "durationTicks": 455,
          "midi": 72,
          "name": "C5",
          "ticks": 330240,
          "time": 528.571588,
          "velocity": 0.5905511811023622
        },
        {
          "duration": 0.13452391041676037,
          "durationTicks": 113,
          "midi": 70,
          "name": "A#4",
          "ticks": 330360,
          "time": 528.7144452499999,
          "velocity": 0.5905511811023622
        },
        {
          "duration": 0.13452391041676037,
          "durationTicks": 113,
          "midi": 69,
          "name": "A4",
          "ticks": 330480,
          "time": 528.8573025,
          "velocity": 0.5905511811023622
        },
        {
          "duration": 0.13452391041664669,
          "durationTicks": 113,
          "midi": 67,
          "name": "G4",
          "ticks": 330600,
          "time": 529.00015975,
          "velocity": 0.5905511811023622
        },
        {
          "duration": 1.0845246229166605,
          "durationTicks": 911,
          "midi": 66,
          "name": "F#4",
          "ticks": 330720,
          "time": 529.143017,
          "velocity": 0.5905511811023622
        },
        {
          "duration": 0.13452391041664669,
          "durationTicks": 113,
          "midi": 67,
          "name": "G4",
          "ticks": 330840,
          "time": 529.28587425,
          "velocity": 0.5905511811023622
        },
        {
          "duration": 0.13452391041664669,
          "durationTicks": 113,
          "midi": 69,
          "name": "A4",
          "ticks": 330960,
          "time": 529.4287315,
          "velocity": 0.5905511811023622
        },
        {
          "duration": 0.13452391041664669,
          "durationTicks": 113,
          "midi": 70,
          "name": "A#4",
          "ticks": 331080,
          "time": 529.57158875,
          "velocity": 0.5905511811023622
        },
        {
          "duration": 0.13452391041664669,
          "durationTicks": 113,
          "midi": 72,
          "name": "C5",
          "ticks": 331200,
          "time": 529.714446,
          "velocity": 0.5905511811023622
        },
        {
          "duration": 0.13452391041664669,
          "durationTicks": 113,
          "midi": 69,
          "name": "A4",
          "ticks": 331320,
          "time": 529.85730325,
          "velocity": 0.5905511811023622
        },
        {
          "duration": 0.13452391041664669,
          "durationTicks": 113,
          "midi": 74,
          "name": "D5",
          "ticks": 331440,
          "time": 530.0001605,
          "velocity": 0.5905511811023622
        },
        {
          "duration": 0.13452391041664669,
          "durationTicks": 113,
          "midi": 69,
          "name": "A4",
          "ticks": 331560,
          "time": 530.14301775,
          "velocity": 0.5905511811023622
        },
        {
          "duration": 0.27023829791664866,
          "durationTicks": 227,
          "midi": 70,
          "name": "A#4",
          "ticks": 331680,
          "time": 530.285875,
          "velocity": 0.5905511811023622
        },
        {
          "duration": 0.5416670729166526,
          "durationTicks": 455,
          "midi": 67,
          "name": "G4",
          "ticks": 331680,
          "time": 530.285875,
          "velocity": 0.5905511811023622
        },
        {
          "duration": 0.27023829791676235,
          "durationTicks": 227,
          "midi": 74,
          "name": "D5",
          "ticks": 331920,
          "time": 530.5715895,
          "velocity": 0.5905511811023622
        },
        {
          "duration": 0.27023829791664866,
          "durationTicks": 227,
          "midi": 79,
          "name": "G5",
          "ticks": 332160,
          "time": 530.857304,
          "velocity": 0.5905511811023622
        },
        {
          "duration": 0.13452391041676037,
          "durationTicks": 113,
          "midi": 79,
          "name": "G5",
          "ticks": 332400,
          "time": 531.1430184999999,
          "velocity": 0.5905511811023622
        },
        {
          "duration": 0.13452391041676037,
          "durationTicks": 113,
          "midi": 70,
          "name": "A#4",
          "ticks": 332400,
          "time": 531.1430184999999,
          "velocity": 0.5905511811023622
        },
        {
          "duration": 0.13452391041676037,
          "durationTicks": 113,
          "midi": 78,
          "name": "F#5",
          "ticks": 332520,
          "time": 531.28587575,
          "velocity": 0.5905511811023622
        },
        {
          "duration": 0.13452391041676037,
          "durationTicks": 113,
          "midi": 69,
          "name": "A4",
          "ticks": 332520,
          "time": 531.28587575,
          "velocity": 0.5905511811023622
        },
        {
          "duration": 0.8130958479166566,
          "durationTicks": 683,
          "midi": 79,
          "name": "G5",
          "ticks": 332640,
          "time": 531.428733,
          "velocity": 0.5905511811023622
        },
        {
          "duration": 0.27023829791664866,
          "durationTicks": 227,
          "midi": 70,
          "name": "A#4",
          "ticks": 332640,
          "time": 531.428733,
          "velocity": 0.5905511811023622
        },
        {
          "duration": 0.13452391041664669,
          "durationTicks": 113,
          "midi": 72,
          "name": "C5",
          "ticks": 332880,
          "time": 531.7144475,
          "velocity": 0.5905511811023622
        },
        {
          "duration": 0.13452391041664669,
          "durationTicks": 113,
          "midi": 70,
          "name": "A#4",
          "ticks": 333000,
          "time": 531.85730475,
          "velocity": 0.5905511811023622
        },
        {
          "duration": 0.5416670729166526,
          "durationTicks": 455,
          "midi": 69,
          "name": "A4",
          "ticks": 333120,
          "time": 532.000162,
          "velocity": 0.5905511811023622
        },
        {
          "duration": 0.27023829791664866,
          "durationTicks": 227,
          "midi": 72,
          "name": "C5",
          "ticks": 333360,
          "time": 532.2858765,
          "velocity": 0.5905511811023622
        },
        {
          "duration": 0.27023829791664866,
          "durationTicks": 227,
          "midi": 77,
          "name": "F5",
          "ticks": 333600,
          "time": 532.571591,
          "velocity": 0.5905511811023622
        },
        {
          "duration": 0.13452391041664669,
          "durationTicks": 113,
          "midi": 77,
          "name": "F5",
          "ticks": 333840,
          "time": 532.8573054999999,
          "velocity": 0.5905511811023622
        },
        {
          "duration": 0.13452391041664669,
          "durationTicks": 113,
          "midi": 69,
          "name": "A4",
          "ticks": 333840,
          "time": 532.8573054999999,
          "velocity": 0.5905511811023622
        },
        {
          "duration": 0.13452391041664669,
          "durationTicks": 113,
          "midi": 76,
          "name": "E5",
          "ticks": 333960,
          "time": 533.00016275,
          "velocity": 0.5905511811023622
        },
        {
          "duration": 0.13452391041664669,
          "durationTicks": 113,
          "midi": 67,
          "name": "G4",
          "ticks": 333960,
          "time": 533.00016275,
          "velocity": 0.5905511811023622
        },
        {
          "duration": 0.8130958479166566,
          "durationTicks": 683,
          "midi": 77,
          "name": "F5",
          "ticks": 334080,
          "time": 533.14302,
          "velocity": 0.5905511811023622
        },
        {
          "duration": 0.27023829791664866,
          "durationTicks": 227,
          "midi": 68,
          "name": "G#4",
          "ticks": 334080,
          "time": 533.14302,
          "velocity": 0.5905511811023622
        },
        {
          "duration": 0.13452391041664669,
          "durationTicks": 113,
          "midi": 70,
          "name": "A#4",
          "ticks": 334320,
          "time": 533.4287345,
          "velocity": 0.5905511811023622
        },
        {
          "duration": 0.13452391041676037,
          "durationTicks": 113,
          "midi": 68,
          "name": "G#4",
          "ticks": 334440,
          "time": 533.5715917499999,
          "velocity": 0.5905511811023622
        },
        {
          "duration": 0.27023829791676235,
          "durationTicks": 227,
          "midi": 67,
          "name": "G4",
          "ticks": 334560,
          "time": 533.714449,
          "velocity": 0.5905511811023622
        },
        {
          "duration": 0.27023829791664866,
          "durationTicks": 227,
          "midi": 70,
          "name": "A#4",
          "ticks": 334800,
          "time": 534.0001635,
          "velocity": 0.5905511811023622
        },
        {
          "duration": 0.27023829791664866,
          "durationTicks": 227,
          "midi": 72,
          "name": "C5",
          "ticks": 335040,
          "time": 534.285878,
          "velocity": 0.5905511811023622
        },
        {
          "duration": 0.27023829791664866,
          "durationTicks": 227,
          "midi": 74,
          "name": "D5",
          "ticks": 335280,
          "time": 534.5715925,
          "velocity": 0.5905511811023622
        },
        {
          "duration": 0.8130958479166566,
          "durationTicks": 683,
          "midi": 75,
          "name": "D#5",
          "ticks": 335520,
          "time": 534.857307,
          "velocity": 0.5905511811023622
        },
        {
          "duration": 0.27023829791664866,
          "durationTicks": 227,
          "midi": 67,
          "name": "G4",
          "ticks": 335760,
          "time": 535.1430215,
          "velocity": 0.5905511811023622
        },
        {
          "duration": 0.5416670729167663,
          "durationTicks": 455,
          "midi": 66,
          "name": "F#4",
          "ticks": 336000,
          "time": 535.428736,
          "velocity": 0.5905511811023622
        },
        {
          "duration": 0.27023829791664866,
          "durationTicks": 227,
          "midi": 69,
          "name": "A4",
          "ticks": 336240,
          "time": 535.7144505,
          "velocity": 0.5905511811023622
        },
        {
          "duration": 0.27023829791676235,
          "durationTicks": 227,
          "midi": 71,
          "name": "B4",
          "ticks": 336480,
          "time": 536.0001649999999,
          "velocity": 0.5905511811023622
        },
        {
          "duration": 0.27023829791664866,
          "durationTicks": 227,
          "midi": 72,
          "name": "C5",
          "ticks": 336720,
          "time": 536.2858795,
          "velocity": 0.5905511811023622
        },
        {
          "duration": 0.8130958479166566,
          "durationTicks": 683,
          "midi": 74,
          "name": "D5",
          "ticks": 336960,
          "time": 536.571594,
          "velocity": 0.5905511811023622
        },
        {
          "duration": 0.27023829791664866,
          "durationTicks": 227,
          "midi": 65,
          "name": "F4",
          "ticks": 337200,
          "time": 536.8573085,
          "velocity": 0.5905511811023622
        },
        {
          "duration": 0.5416670729166526,
          "durationTicks": 455,
          "midi": 64,
          "name": "E4",
          "ticks": 337440,
          "time": 537.143023,
          "velocity": 0.5905511811023622
        },
        {
          "duration": 0.27023829791664866,
          "durationTicks": 227,
          "midi": 67,
          "name": "G4",
          "ticks": 337680,
          "time": 537.4287375,
          "velocity": 0.5905511811023622
        },
        {
          "duration": 0.27023829791664866,
          "durationTicks": 227,
          "midi": 69,
          "name": "A4",
          "ticks": 337920,
          "time": 537.7144519999999,
          "velocity": 0.5905511811023622
        },
        {
          "duration": 0.27023829791664866,
          "durationTicks": 227,
          "midi": 70,
          "name": "A#4",
          "ticks": 338160,
          "time": 538.0001665,
          "velocity": 0.5905511811023622
        },
        {
          "duration": 0.6773814604166546,
          "durationTicks": 569,
          "midi": 72,
          "name": "C5",
          "ticks": 338400,
          "time": 538.285881,
          "velocity": 0.5905511811023622
        },
        {
          "duration": 0.27023829791676235,
          "durationTicks": 227,
          "midi": 63,
          "name": "D#4",
          "ticks": 338640,
          "time": 538.5715955,
          "velocity": 0.5905511811023622
        },
        {
          "duration": 0.5416670729166526,
          "durationTicks": 455,
          "midi": 62,
          "name": "D4",
          "ticks": 338880,
          "time": 538.85731,
          "velocity": 0.5905511811023622
        },
        {
          "duration": 0.13452391041664669,
          "durationTicks": 113,
          "midi": 75,
          "name": "D#5",
          "ticks": 339000,
          "time": 539.00016725,
          "velocity": 0.5905511811023622
        },
        {
          "duration": 0.13452391041664669,
          "durationTicks": 113,
          "midi": 74,
          "name": "D5",
          "ticks": 339120,
          "time": 539.1430245,
          "velocity": 0.5905511811023622
        },
        {
          "duration": 0.13452391041664669,
          "durationTicks": 113,
          "midi": 72,
          "name": "C5",
          "ticks": 339240,
          "time": 539.28588175,
          "velocity": 0.5905511811023622
        },
        {
          "duration": 0.13452391041664669,
          "durationTicks": 113,
          "midi": 70,
          "name": "A#4",
          "ticks": 339360,
          "time": 539.428739,
          "velocity": 0.5905511811023622
        },
        {
          "duration": 0.5416670729166526,
          "durationTicks": 455,
          "midi": 63,
          "name": "D#4",
          "ticks": 339360,
          "time": 539.428739,
          "velocity": 0.5905511811023622
        },
        {
          "duration": 0.13452391041664669,
          "durationTicks": 113,
          "midi": 69,
          "name": "A4",
          "ticks": 339480,
          "time": 539.57159625,
          "velocity": 0.5905511811023622
        },
        {
          "duration": 0.13452391041664669,
          "durationTicks": 113,
          "midi": 67,
          "name": "G4",
          "ticks": 339600,
          "time": 539.7144535,
          "velocity": 0.5905511811023622
        },
        {
          "duration": 0.13452391041664669,
          "durationTicks": 113,
          "midi": 69,
          "name": "A4",
          "ticks": 339720,
          "time": 539.85731075,
          "velocity": 0.5905511811023622
        },
        {
          "duration": 0.13452391041664669,
          "durationTicks": 113,
          "midi": 70,
          "name": "A#4",
          "ticks": 339840,
          "time": 540.000168,
          "velocity": 0.5905511811023622
        },
        {
          "duration": 0.5416670729166526,
          "durationTicks": 455,
          "midi": 64,
          "name": "E4",
          "ticks": 339840,
          "time": 540.000168,
          "velocity": 0.5905511811023622
        },
        {
          "duration": 0.13452391041664669,
          "durationTicks": 113,
          "midi": 74,
          "name": "D5",
          "ticks": 339960,
          "time": 540.1430252499999,
          "velocity": 0.5905511811023622
        },
        {
          "duration": 0.13452391041664669,
          "durationTicks": 113,
          "midi": 72,
          "name": "C5",
          "ticks": 340080,
          "time": 540.2858825,
          "velocity": 0.5905511811023622
        },
        {
          "duration": 0.13452391041664669,
          "durationTicks": 113,
          "midi": 70,
          "name": "A#4",
          "ticks": 340200,
          "time": 540.42873975,
          "velocity": 0.5905511811023622
        },
        {
          "duration": 0.13452391041664669,
          "durationTicks": 113,
          "midi": 69,
          "name": "A4",
          "ticks": 340320,
          "time": 540.571597,
          "velocity": 0.5905511811023622
        },
        {
          "duration": 0.5416670729166526,
          "durationTicks": 455,
          "midi": 65,
          "name": "F4",
          "ticks": 340320,
          "time": 540.571597,
          "velocity": 0.5905511811023622
        },
        {
          "duration": 0.13452391041664669,
          "durationTicks": 113,
          "midi": 74,
          "name": "D5",
          "ticks": 340440,
          "time": 540.71445425,
          "velocity": 0.5905511811023622
        },
        {
          "duration": 0.13452391041676037,
          "durationTicks": 113,
          "midi": 72,
          "name": "C5",
          "ticks": 340560,
          "time": 540.8573114999999,
          "velocity": 0.5905511811023622
        },
        {
          "duration": 0.13452391041664669,
          "durationTicks": 113,
          "midi": 70,
          "name": "A#4",
          "ticks": 340680,
          "time": 541.0001687500001,
          "velocity": 0.5905511811023622
        },
        {
          "duration": 0.13452391041664669,
          "durationTicks": 113,
          "midi": 69,
          "name": "A4",
          "ticks": 340800,
          "time": 541.143026,
          "velocity": 0.5905511811023622
        },
        {
          "duration": 0.27023829791664866,
          "durationTicks": 227,
          "midi": 65,
          "name": "F4",
          "ticks": 340800,
          "time": 541.143026,
          "velocity": 0.5905511811023622
        },
        {
          "duration": 0.13452391041664669,
          "durationTicks": 113,
          "midi": 74,
          "name": "D5",
          "ticks": 340920,
          "time": 541.28588325,
          "velocity": 0.5905511811023622
        },
        {
          "duration": 0.13452391041664669,
          "durationTicks": 113,
          "midi": 67,
          "name": "G4",
          "ticks": 341040,
          "time": 541.4287405,
          "velocity": 0.5905511811023622
        },
        {
          "duration": 0.27023829791664866,
          "durationTicks": 227,
          "midi": 64,
          "name": "E4",
          "ticks": 341040,
          "time": 541.4287405,
          "velocity": 0.5905511811023622
        },
        {
          "duration": 0.13452391041664669,
          "durationTicks": 113,
          "midi": 73,
          "name": "C#5",
          "ticks": 341160,
          "time": 541.57159775,
          "velocity": 0.5905511811023622
        },
        {
          "duration": 0.13452391041664669,
          "durationTicks": 113,
          "midi": 69,
          "name": "A4",
          "ticks": 341280,
          "time": 541.714455,
          "velocity": 0.5905511811023622
        },
        {
          "duration": 0.5416670729166526,
          "durationTicks": 455,
          "midi": 65,
          "name": "F4",
          "ticks": 341280,
          "time": 541.714455,
          "velocity": 0.5905511811023622
        },
        {
          "duration": 0.13452391041664669,
          "durationTicks": 113,
          "midi": 74,
          "name": "D5",
          "ticks": 341400,
          "time": 541.85731225,
          "velocity": 0.5905511811023622
        },
        {
          "duration": 0.13452391041664669,
          "durationTicks": 113,
          "midi": 69,
          "name": "A4",
          "ticks": 341520,
          "time": 542.0001695,
          "velocity": 0.5905511811023622
        },
        {
          "duration": 0.13452391041664669,
          "durationTicks": 113,
          "midi": 67,
          "name": "G4",
          "ticks": 341640,
          "time": 542.14302675,
          "velocity": 0.5905511811023622
        },
        {
          "duration": 0.13452391041664669,
          "durationTicks": 113,
          "midi": 65,
          "name": "F4",
          "ticks": 341760,
          "time": 542.285884,
          "velocity": 0.5905511811023622
        },
        {
          "duration": 0.5416670729166526,
          "durationTicks": 455,
          "midi": 57,
          "name": "A3",
          "ticks": 341760,
          "time": 542.285884,
          "velocity": 0.5905511811023622
        },
        {
          "duration": 0.13452391041664669,
          "durationTicks": 113,
          "midi": 67,
          "name": "G4",
          "ticks": 341880,
          "time": 542.42874125,
          "velocity": 0.5905511811023622
        },
        {
          "duration": 0.13452391041664669,
          "durationTicks": 113,
          "midi": 65,
          "name": "F4",
          "ticks": 342000,
          "time": 542.5715984999999,
          "velocity": 0.5905511811023622
        },
        {
          "duration": 0.13452391041664669,
          "durationTicks": 113,
          "midi": 64,
          "name": "E4",
          "ticks": 342120,
          "time": 542.71445575,
          "velocity": 0.5905511811023622
        },
        {
          "duration": 0.13452391041664669,
          "durationTicks": 113,
          "midi": 62,
          "name": "D4",
          "ticks": 342240,
          "time": 542.857313,
          "velocity": 0.5905511811023622
        },
        {
          "duration": 0.5416670729166526,
          "durationTicks": 455,
          "midi": 58,
          "name": "A#3",
          "ticks": 342240,
          "time": 542.857313,
          "velocity": 0.5905511811023622
        },
        {
          "duration": 0.13452391041664669,
          "durationTicks": 113,
          "midi": 65,
          "name": "F4",
          "ticks": 342360,
          "time": 543.00017025,
          "velocity": 0.5905511811023622
        },
        {
          "duration": 0.13452391041664669,
          "durationTicks": 113,
          "midi": 64,
          "name": "E4",
          "ticks": 342480,
          "time": 543.1430275,
          "velocity": 0.5905511811023622
        },
        {
          "duration": 0.13452391041676037,
          "durationTicks": 113,
          "midi": 62,
          "name": "D4",
          "ticks": 342600,
          "time": 543.2858847499999,
          "velocity": 0.5905511811023622
        },
        {
          "duration": 0.13452391041664669,
          "durationTicks": 113,
          "midi": 67,
          "name": "G4",
          "ticks": 342720,
          "time": 543.428742,
          "velocity": 0.5905511811023622
        },
        {
          "duration": 0.5416670729166526,
          "durationTicks": 455,
          "midi": 59,
          "name": "B3",
          "ticks": 342720,
          "time": 543.428742,
          "velocity": 0.5905511811023622
        },
        {
          "duration": 0.13452391041664669,
          "durationTicks": 113,
          "midi": 69,
          "name": "A4",
          "ticks": 342840,
          "time": 543.57159925,
          "velocity": 0.5905511811023622
        },
        {
          "duration": 0.13452391041664669,
          "durationTicks": 113,
          "midi": 67,
          "name": "G4",
          "ticks": 342960,
          "time": 543.7144565,
          "velocity": 0.5905511811023622
        },
        {
          "duration": 0.13452391041664669,
          "durationTicks": 113,
          "midi": 65,
          "name": "F4",
          "ticks": 343080,
          "time": 543.85731375,
          "velocity": 0.5905511811023622
        },
        {
          "duration": 0.13452391041664669,
          "durationTicks": 113,
          "midi": 64,
          "name": "E4",
          "ticks": 343200,
          "time": 544.000171,
          "velocity": 0.5905511811023622
        },
        {
          "duration": 0.13452391041664669,
          "durationTicks": 113,
          "midi": 67,
          "name": "G4",
          "ticks": 343320,
          "time": 544.14302825,
          "velocity": 0.5905511811023622
        },
        {
          "duration": 0.13452391041664669,
          "durationTicks": 113,
          "midi": 65,
          "name": "F4",
          "ticks": 343440,
          "time": 544.2858855,
          "velocity": 0.5905511811023622
        },
        {
          "duration": 0.13452391041664669,
          "durationTicks": 113,
          "midi": 64,
          "name": "E4",
          "ticks": 343560,
          "time": 544.42874275,
          "velocity": 0.5905511811023622
        },
        {
          "duration": 0.13452391041664669,
          "durationTicks": 113,
          "midi": 69,
          "name": "A4",
          "ticks": 343680,
          "time": 544.5716,
          "velocity": 0.5905511811023622
        },
        {
          "duration": 0.13452391041664669,
          "durationTicks": 113,
          "midi": 70,
          "name": "A#4",
          "ticks": 343800,
          "time": 544.71445725,
          "velocity": 0.5905511811023622
        },
        {
          "duration": 0.13452391041664669,
          "durationTicks": 113,
          "midi": 69,
          "name": "A4",
          "ticks": 343920,
          "time": 544.8573145,
          "velocity": 0.5905511811023622
        },
        {
          "duration": 0.13452391041664669,
          "durationTicks": 113,
          "midi": 67,
          "name": "G4",
          "ticks": 344040,
          "time": 545.0001717499999,
          "velocity": 0.5905511811023622
        },
        {
          "duration": 0.13452391041664669,
          "durationTicks": 113,
          "midi": 66,
          "name": "F#4",
          "ticks": 344160,
          "time": 545.143029,
          "velocity": 0.5905511811023622
        },
        {
          "duration": 0.13452391041664669,
          "durationTicks": 113,
          "midi": 67,
          "name": "G4",
          "ticks": 344280,
          "time": 545.28588625,
          "velocity": 0.5905511811023622
        },
        {
          "duration": 0.13452391041664669,
          "durationTicks": 113,
          "midi": 66,
          "name": "F#4",
          "ticks": 344400,
          "time": 545.4287435,
          "velocity": 0.5905511811023622
        },
        {
          "duration": 0.13452391041664669,
          "durationTicks": 113,
          "midi": 64,
          "name": "E4",
          "ticks": 344520,
          "time": 545.57160075,
          "velocity": 0.5905511811023622
        },
        {
          "duration": 0.5416670729167663,
          "durationTicks": 455,
          "midi": 75,
          "name": "D#5",
          "ticks": 344640,
          "time": 545.7144579999999,
          "velocity": 0.5905511811023622
        },
        {
          "duration": 0.5416670729167663,
          "durationTicks": 455,
          "midi": 66,
          "name": "F#4",
          "ticks": 344640,
          "time": 545.7144579999999,
          "velocity": 0.5905511811023622
        },
        {
          "duration": 0.5416670729167663,
          "durationTicks": 455,
          "midi": 69,
          "name": "A4",
          "ticks": 344640,
          "time": 545.7144579999999,
          "velocity": 0.5905511811023622
        },
        {
          "duration": 0.5416670729167663,
          "durationTicks": 455,
          "midi": 72,
          "name": "C5",
          "ticks": 344640,
          "time": 545.7144579999999,
          "velocity": 0.5905511811023622
        },
        {
          "duration": 0.5416670729166526,
          "durationTicks": 455,
          "midi": 74,
          "name": "D5",
          "ticks": 345120,
          "time": 546.285887,
          "velocity": 0.5905511811023622
        },
        {
          "duration": 0.5416670729166526,
          "durationTicks": 455,
          "midi": 67,
          "name": "G4",
          "ticks": 345120,
          "time": 546.285887,
          "velocity": 0.5905511811023622
        },
        {
          "duration": 0.5416670729166526,
          "durationTicks": 455,
          "midi": 70,
          "name": "A#4",
          "ticks": 345120,
          "time": 546.285887,
          "velocity": 0.5905511811023622
        },
        {
          "duration": 0.5416670729166526,
          "durationTicks": 455,
          "midi": 72,
          "name": "C5",
          "ticks": 345600,
          "time": 546.857316,
          "velocity": 0.5905511811023622
        },
        {
          "duration": 1.0845246229166605,
          "durationTicks": 911,
          "midi": 62,
          "name": "D4",
          "ticks": 345600,
          "time": 546.857316,
          "velocity": 0.5905511811023622
        },
        {
          "duration": 1.0845246229166605,
          "durationTicks": 911,
          "midi": 69,
          "name": "A4",
          "ticks": 345600,
          "time": 546.857316,
          "velocity": 0.5905511811023622
        },
        {
          "duration": 0.5416670729167663,
          "durationTicks": 455,
          "midi": 70,
          "name": "A#4",
          "ticks": 346080,
          "time": 547.4287449999999,
          "velocity": 0.5905511811023622
        },
        {
          "duration": 0.27023829791664866,
          "durationTicks": 227,
          "midi": 72,
          "name": "C5",
          "ticks": 346560,
          "time": 548.000174,
          "velocity": 0.5905511811023622
        },
        {
          "duration": 0.8571435000000065,
          "durationTicks": 720,
          "midi": 67,
          "name": "G4",
          "ticks": 346560,
          "time": 548.000174,
          "velocity": 0.5905511811023622
        },
        {
          "duration": 0.27023829791664866,
          "durationTicks": 227,
          "midi": 70,
          "name": "A#4",
          "ticks": 346800,
          "time": 548.2858885,
          "velocity": 0.5905511811023622
        },
        {
          "duration": 0.27023829791664866,
          "durationTicks": 227,
          "midi": 69,
          "name": "A4",
          "ticks": 347040,
          "time": 548.571603,
          "velocity": 0.5905511811023622
        },
        {
          "duration": 0.27023829791664866,
          "durationTicks": 227,
          "midi": 67,
          "name": "G4",
          "ticks": 347280,
          "time": 548.8573175,
          "velocity": 0.5905511811023622
        },
        {
          "duration": 0.5416670729166526,
          "durationTicks": 455,
          "midi": 73,
          "name": "C#5",
          "ticks": 347520,
          "time": 549.143032,
          "velocity": 0.5905511811023622
        },
        {
          "duration": 0.5416670729166526,
          "durationTicks": 455,
          "midi": 70,
          "name": "A#4",
          "ticks": 347520,
          "time": 549.143032,
          "velocity": 0.5905511811023622
        },
        {
          "duration": 0.5416670729166526,
          "durationTicks": 455,
          "midi": 74,
          "name": "D5",
          "ticks": 348000,
          "time": 549.714461,
          "velocity": 0.5905511811023622
        },
        {
          "duration": 0.5416670729166526,
          "durationTicks": 455,
          "midi": 69,
          "name": "A4",
          "ticks": 348000,
          "time": 549.714461,
          "velocity": 0.5905511811023622
        },
        {
          "duration": 1.0845246229166605,
          "durationTicks": 911,
          "midi": 76,
          "name": "E5",
          "ticks": 348480,
          "time": 550.28589,
          "velocity": 0.5905511811023622
        },
        {
          "duration": 0.5416670729166526,
          "durationTicks": 455,
          "midi": 67,
          "name": "G4",
          "ticks": 348480,
          "time": 550.28589,
          "velocity": 0.5905511811023622
        },
        {
          "duration": 0.5416670729166526,
          "durationTicks": 455,
          "midi": 65,
          "name": "F4",
          "ticks": 348960,
          "time": 550.857319,
          "velocity": 0.5905511811023622
        },
        {
          "duration": 1.0845246229166605,
          "durationTicks": 911,
          "midi": 74,
          "name": "D5",
          "ticks": 349440,
          "time": 551.428748,
          "velocity": 0.5905511811023622
        },
        {
          "duration": 0.27023829791664866,
          "durationTicks": 227,
          "midi": 67,
          "name": "G4",
          "ticks": 349440,
          "time": 551.428748,
          "velocity": 0.5905511811023622
        },
        {
          "duration": 0.27023829791664866,
          "durationTicks": 227,
          "midi": 65,
          "name": "F4",
          "ticks": 349680,
          "time": 551.7144625,
          "velocity": 0.5905511811023622
        },
        {
          "duration": 0.27023829791664866,
          "durationTicks": 227,
          "midi": 64,
          "name": "E4",
          "ticks": 349920,
          "time": 552.000177,
          "velocity": 0.5905511811023622
        },
        {
          "duration": 0.27023829791664866,
          "durationTicks": 227,
          "midi": 62,
          "name": "D4",
          "ticks": 350160,
          "time": 552.2858914999999,
          "velocity": 0.5905511811023622
        },
        {
          "duration": 0.5416670729166526,
          "durationTicks": 455,
          "midi": 74,
          "name": "D5",
          "ticks": 350400,
          "time": 552.571606,
          "velocity": 0.5905511811023622
        },
        {
          "duration": 0.5416670729166526,
          "durationTicks": 455,
          "midi": 77,
          "name": "F5",
          "ticks": 350400,
          "time": 552.571606,
          "velocity": 0.5905511811023622
        },
        {
          "duration": 0.5416670729166526,
          "durationTicks": 455,
          "midi": 68,
          "name": "G#4",
          "ticks": 350400,
          "time": 552.571606,
          "velocity": 0.5905511811023622
        },
        {
          "duration": 0.5416670729166526,
          "durationTicks": 455,
          "midi": 71,
          "name": "B4",
          "ticks": 350400,
          "time": 552.571606,
          "velocity": 0.5905511811023622
        },
        {
          "duration": 0.5416670729166526,
          "durationTicks": 455,
          "midi": 72,
          "name": "C5",
          "ticks": 350880,
          "time": 553.143035,
          "velocity": 0.5905511811023622
        },
        {
          "duration": 0.5416670729166526,
          "durationTicks": 455,
          "midi": 76,
          "name": "E5",
          "ticks": 350880,
          "time": 553.143035,
          "velocity": 0.5905511811023622
        },
        {
          "duration": 0.5416670729166526,
          "durationTicks": 455,
          "midi": 64,
          "name": "E4",
          "ticks": 350880,
          "time": 553.143035,
          "velocity": 0.5905511811023622
        },
        {
          "duration": 0.5416670729166526,
          "durationTicks": 455,
          "midi": 69,
          "name": "A4",
          "ticks": 350880,
          "time": 553.143035,
          "velocity": 0.5905511811023622
        },
        {
          "duration": 0.5416670729166526,
          "durationTicks": 455,
          "midi": 71,
          "name": "B4",
          "ticks": 351360,
          "time": 553.714464,
          "velocity": 0.5905511811023622
        },
        {
          "duration": 0.5416670729166526,
          "durationTicks": 455,
          "midi": 74,
          "name": "D5",
          "ticks": 351360,
          "time": 553.714464,
          "velocity": 0.5905511811023622
        },
        {
          "duration": 0.5416670729166526,
          "durationTicks": 455,
          "midi": 65,
          "name": "F4",
          "ticks": 351360,
          "time": 553.714464,
          "velocity": 0.5905511811023622
        },
        {
          "duration": 0.14285725000002003,
          "durationTicks": 120,
          "midi": 69,
          "name": "A4",
          "ticks": 351840,
          "time": 554.285893,
          "velocity": 0.5905511811023622
        },
        {
          "duration": 0.4285717499999464,
          "durationTicks": 360,
          "midi": 73,
          "name": "C#5",
          "ticks": 351840,
          "time": 554.285893,
          "velocity": 0.5905511811023622
        },
        {
          "duration": 0.13452391041664669,
          "durationTicks": 113,
          "midi": 64,
          "name": "E4",
          "ticks": 351840,
          "time": 554.285893,
          "velocity": 0.5905511811023622
        },
        {
          "duration": 0.3988098229166326,
          "durationTicks": 335,
          "midi": 69,
          "name": "A4",
          "ticks": 351960,
          "time": 554.42875025,
          "velocity": 0.5905511811023622
        },
        {
          "duration": 0.13452391041664669,
          "durationTicks": 113,
          "midi": 71,
          "name": "B4",
          "ticks": 352080,
          "time": 554.5716075,
          "velocity": 0.5905511811023622
        },
        {
          "duration": 0.13452391041664669,
          "durationTicks": 113,
          "midi": 73,
          "name": "C#5",
          "ticks": 352200,
          "time": 554.7144647499999,
          "velocity": 0.5905511811023622
        },
        {
          "duration": 0.13452391041676037,
          "durationTicks": 113,
          "midi": 74,
          "name": "D5",
          "ticks": 352320,
          "time": 554.857322,
          "velocity": 0.5905511811023622
        },
        {
          "duration": 0.13452391041664669,
          "durationTicks": 113,
          "midi": 72,
          "name": "C5",
          "ticks": 352440,
          "time": 555.00017925,
          "velocity": 0.5905511811023622
        },
        {
          "duration": 0.13452391041664669,
          "durationTicks": 113,
          "midi": 70,
          "name": "A#4",
          "ticks": 352560,
          "time": 555.1430365,
          "velocity": 0.5905511811023622
        },
        {
          "duration": 0.13452391041664669,
          "durationTicks": 113,
          "midi": 69,
          "name": "A4",
          "ticks": 352680,
          "time": 555.28589375,
          "velocity": 0.5905511811023622
        },
        {
          "duration": 0.6773814604166546,
          "durationTicks": 569,
          "midi": 67,
          "name": "G4",
          "ticks": 352800,
          "time": 555.4287509999999,
          "velocity": 0.5905511811023622
        },
        {
          "duration": 0.13452391041664669,
          "durationTicks": 113,
          "midi": 71,
          "name": "B4",
          "ticks": 352920,
          "time": 555.57160825,
          "velocity": 0.5905511811023622
        },
        {
          "duration": 0.13452391041664669,
          "durationTicks": 113,
          "midi": 74,
          "name": "D5",
          "ticks": 353040,
          "time": 555.7144655,
          "velocity": 0.5905511811023622
        },
        {
          "duration": 0.13452391041664669,
          "durationTicks": 113,
          "midi": 77,
          "name": "F5",
          "ticks": 353160,
          "time": 555.85732275,
          "velocity": 0.5905511811023622
        },
        {
          "duration": 0.13452391041664669,
          "durationTicks": 113,
          "midi": 76,
          "name": "E5",
          "ticks": 353280,
          "time": 556.00018,
          "velocity": 0.5905511811023622
        },
        {
          "duration": 0.13452391041664669,
          "durationTicks": 113,
          "midi": 84,
          "name": "C6",
          "ticks": 353400,
          "time": 556.14303725,
          "velocity": 0.5905511811023622
        },
        {
          "duration": 0.13452391041664669,
          "durationTicks": 113,
          "midi": 83,
          "name": "B5",
          "ticks": 353520,
          "time": 556.2858945,
          "velocity": 0.5905511811023622
        },
        {
          "duration": 0.13452391041664669,
          "durationTicks": 113,
          "midi": 81,
          "name": "A5",
          "ticks": 353640,
          "time": 556.42875175,
          "velocity": 0.5905511811023622
        },
        {
          "duration": 0.13452391041664669,
          "durationTicks": 113,
          "midi": 79,
          "name": "G5",
          "ticks": 353760,
          "time": 556.571609,
          "velocity": 0.5905511811023622
        },
        {
          "duration": 0.13452391041664669,
          "durationTicks": 113,
          "midi": 77,
          "name": "F5",
          "ticks": 353880,
          "time": 556.71446625,
          "velocity": 0.5905511811023622
        },
        {
          "duration": 0.13452391041664669,
          "durationTicks": 113,
          "midi": 76,
          "name": "E5",
          "ticks": 354000,
          "time": 556.8573235,
          "velocity": 0.5905511811023622
        },
        {
          "duration": 0.13452391041664669,
          "durationTicks": 113,
          "midi": 74,
          "name": "D5",
          "ticks": 354120,
          "time": 557.00018075,
          "velocity": 0.5905511811023622
        },
        {
          "duration": 0.13452391041664669,
          "durationTicks": 113,
          "midi": 72,
          "name": "C5",
          "ticks": 354240,
          "time": 557.1430379999999,
          "velocity": 0.5905511811023622
        },
        {
          "duration": 0.13452391041676037,
          "durationTicks": 113,
          "midi": 71,
          "name": "B4",
          "ticks": 354360,
          "time": 557.28589525,
          "velocity": 0.5905511811023622
        },
        {
          "duration": 0.13452391041664669,
          "durationTicks": 113,
          "midi": 69,
          "name": "A4",
          "ticks": 354480,
          "time": 557.4287525,
          "velocity": 0.5905511811023622
        },
        {
          "duration": 0.13452391041664669,
          "durationTicks": 113,
          "midi": 67,
          "name": "G4",
          "ticks": 354600,
          "time": 557.57160975,
          "velocity": 0.5905511811023622
        },
        {
          "duration": 1.0845246229166605,
          "durationTicks": 911,
          "midi": 72,
          "name": "C5",
          "ticks": 354720,
          "time": 557.714467,
          "velocity": 0.5905511811023622
        },
        {
          "duration": 0.13452391041676037,
          "durationTicks": 113,
          "midi": 67,
          "name": "G4",
          "ticks": 354840,
          "time": 557.8573242499999,
          "velocity": 0.5905511811023622
        },
        {
          "duration": 0.13452391041664669,
          "durationTicks": 113,
          "midi": 69,
          "name": "A4",
          "ticks": 354960,
          "time": 558.0001815,
          "velocity": 0.5905511811023622
        },
        {
          "duration": 0.13452391041664669,
          "durationTicks": 113,
          "midi": 70,
          "name": "A#4",
          "ticks": 355080,
          "time": 558.14303875,
          "velocity": 0.5905511811023622
        },
        {
          "duration": 0.13452391041664669,
          "durationTicks": 113,
          "midi": 69,
          "name": "A4",
          "ticks": 355200,
          "time": 558.285896,
          "velocity": 0.5905511811023622
        },
        {
          "duration": 0.13452391041664669,
          "durationTicks": 113,
          "midi": 67,
          "name": "G4",
          "ticks": 355320,
          "time": 558.42875325,
          "velocity": 0.5905511811023622
        },
        {
          "duration": 0.13452391041664669,
          "durationTicks": 113,
          "midi": 65,
          "name": "F4",
          "ticks": 355440,
          "time": 558.5716105,
          "velocity": 0.5905511811023622
        },
        {
          "duration": 0.13452391041664669,
          "durationTicks": 113,
          "midi": 63,
          "name": "D#4",
          "ticks": 355560,
          "time": 558.71446775,
          "velocity": 0.5905511811023622
        },
        {
          "duration": 0.5416670729166526,
          "durationTicks": 455,
          "midi": 62,
          "name": "D4",
          "ticks": 355680,
          "time": 558.857325,
          "velocity": 0.5905511811023622
        },
        {
          "duration": 0.13452391041664669,
          "durationTicks": 113,
          "midi": 66,
          "name": "F#4",
          "ticks": 355800,
          "time": 559.00018225,
          "velocity": 0.5905511811023622
        },
        {
          "duration": 0.13452391041664669,
          "durationTicks": 113,
          "midi": 69,
          "name": "A4",
          "ticks": 355920,
          "time": 559.1430395,
          "velocity": 0.5905511811023622
        },
        {
          "duration": 0.13452391041664669,
          "durationTicks": 113,
          "midi": 72,
          "name": "C5",
          "ticks": 356040,
          "time": 559.28589675,
          "velocity": 0.5905511811023622
        },
        {
          "duration": 0.5416670729166526,
          "durationTicks": 455,
          "midi": 70,
          "name": "A#4",
          "ticks": 356160,
          "time": 559.428754,
          "velocity": 0.5905511811023622
        },
        {
          "duration": 0.13452391041664669,
          "durationTicks": 113,
          "midi": 67,
          "name": "G4",
          "ticks": 356280,
          "time": 559.5716112499999,
          "velocity": 0.5905511811023622
        },
        {
          "duration": 0.13452391041676037,
          "durationTicks": 113,
          "midi": 65,
          "name": "F4",
          "ticks": 356400,
          "time": 559.7144685,
          "velocity": 0.5905511811023622
        },
        {
          "duration": 0.13452391041664669,
          "durationTicks": 113,
          "midi": 63,
          "name": "D#4",
          "ticks": 356520,
          "time": 559.85732575,
          "velocity": 0.5905511811023622
        },
        {
          "duration": 0.06547623958329041,
          "durationTicks": 55,
          "midi": 61,
          "name": "C#4",
          "ticks": 357600,
          "time": 561.143041,
          "velocity": 0.5905511811023622
        },
        {
          "duration": 0.06547623958329041,
          "durationTicks": 55,
          "midi": 62,
          "name": "D4",
          "ticks": 357660,
          "time": 561.214469625,
          "velocity": 0.5905511811023622
        },
        {
          "duration": 0.0654762395834041,
          "durationTicks": 55,
          "midi": 61,
          "name": "C#4",
          "ticks": 357720,
          "time": 561.28589825,
          "velocity": 0.5905511811023622
        },
        {
          "duration": 0.06547623958329041,
          "durationTicks": 55,
          "midi": 62,
          "name": "D4",
          "ticks": 357780,
          "time": 561.357326875,
          "velocity": 0.5905511811023622
        },
        {
          "duration": 0.06547623958329041,
          "durationTicks": 55,
          "midi": 61,
          "name": "C#4",
          "ticks": 357840,
          "time": 561.4287555,
          "velocity": 0.5905511811023622
        },
        {
          "duration": 0.06547623958329041,
          "durationTicks": 55,
          "midi": 62,
          "name": "D4",
          "ticks": 357900,
          "time": 561.500184125,
          "velocity": 0.5905511811023622
        },
        {
          "duration": 0.06547623958329041,
          "durationTicks": 55,
          "midi": 61,
          "name": "C#4",
          "ticks": 357960,
          "time": 561.57161275,
          "velocity": 0.5905511811023622
        },
        {
          "duration": 0.0654762395834041,
          "durationTicks": 55,
          "midi": 62,
          "name": "D4",
          "ticks": 358020,
          "time": 561.6430413749999,
          "velocity": 0.5905511811023622
        },
        {
          "duration": 0.06547623958329041,
          "durationTicks": 55,
          "midi": 61,
          "name": "C#4",
          "ticks": 358080,
          "time": 561.71447,
          "velocity": 0.5905511811023622
        },
        {
          "duration": 0.06547623958329041,
          "durationTicks": 55,
          "midi": 62,
          "name": "D4",
          "ticks": 358140,
          "time": 561.785898625,
          "velocity": 0.5905511811023622
        },
        {
          "duration": 0.06547623958329041,
          "durationTicks": 55,
          "midi": 61,
          "name": "C#4",
          "ticks": 358200,
          "time": 561.85732725,
          "velocity": 0.5905511811023622
        },
        {
          "duration": 0.06547623958329041,
          "durationTicks": 55,
          "midi": 62,
          "name": "D4",
          "ticks": 358260,
          "time": 561.928755875,
          "velocity": 0.5905511811023622
        },
        {
          "duration": 0.0654762395834041,
          "durationTicks": 55,
          "midi": 61,
          "name": "C#4",
          "ticks": 358320,
          "time": 562.0001844999999,
          "velocity": 0.5905511811023622
        },
        {
          "duration": 0.06547623958329041,
          "durationTicks": 55,
          "midi": 62,
          "name": "D4",
          "ticks": 358380,
          "time": 562.071613125,
          "velocity": 0.5905511811023622
        },
        {
          "duration": 0.06547623958329041,
          "durationTicks": 55,
          "midi": 61,
          "name": "C#4",
          "ticks": 358440,
          "time": 562.14304175,
          "velocity": 0.5905511811023622
        },
        {
          "duration": 0.06547623958329041,
          "durationTicks": 55,
          "midi": 62,
          "name": "D4",
          "ticks": 358500,
          "time": 562.214470375,
          "velocity": 0.5905511811023622
        },
        {
          "duration": 0.0654762395834041,
          "durationTicks": 55,
          "midi": 61,
          "name": "C#4",
          "ticks": 358560,
          "time": 562.285899,
          "velocity": 0.5905511811023622
        },
        {
          "duration": 0.0654762395834041,
          "durationTicks": 55,
          "midi": 62,
          "name": "D4",
          "ticks": 358620,
          "time": 562.3573276249999,
          "velocity": 0.5905511811023622
        },
        {
          "duration": 0.06547623958329041,
          "durationTicks": 55,
          "midi": 61,
          "name": "C#4",
          "ticks": 358680,
          "time": 562.42875625,
          "velocity": 0.5905511811023622
        },
        {
          "duration": 0.0654762395834041,
          "durationTicks": 55,
          "midi": 62,
          "name": "D4",
          "ticks": 358740,
          "time": 562.500184875,
          "velocity": 0.5905511811023622
        },
        {
          "duration": 0.06547623958329041,
          "durationTicks": 55,
          "midi": 61,
          "name": "C#4",
          "ticks": 358800,
          "time": 562.5716135,
          "velocity": 0.5905511811023622
        },
        {
          "duration": 0.0654762395834041,
          "durationTicks": 55,
          "midi": 62,
          "name": "D4",
          "ticks": 358860,
          "time": 562.643042125,
          "velocity": 0.5905511811023622
        },
        {
          "duration": 0.0654762395834041,
          "durationTicks": 55,
          "midi": 61,
          "name": "C#4",
          "ticks": 358920,
          "time": 562.7144707499999,
          "velocity": 0.5905511811023622
        },
        {
          "duration": 0.06547623958329041,
          "durationTicks": 55,
          "midi": 62,
          "name": "D4",
          "ticks": 358980,
          "time": 562.785899375,
          "velocity": 0.5905511811023622
        },
        {
          "duration": 1.1428579999999329,
          "durationTicks": 960,
          "midi": 62,
          "name": "D4",
          "ticks": 359040,
          "time": 562.857328,
          "velocity": 0.5905511811023622
        },
        {
          "duration": 0.13452391041664669,
          "durationTicks": 113,
          "midi": 69,
          "name": "A4",
          "ticks": 359280,
          "time": 563.1430425,
          "velocity": 0.5905511811023622
        },
        {
          "duration": 0.13452391041664669,
          "durationTicks": 113,
          "midi": 72,
          "name": "C5",
          "ticks": 359400,
          "time": 563.28589975,
          "velocity": 0.5905511811023622
        },
        {
          "duration": 0.27023829791664866,
          "durationTicks": 227,
          "midi": 70,
          "name": "A#4",
          "ticks": 359520,
          "time": 563.428757,
          "velocity": 0.5905511811023622
        },
        {
          "duration": 0.13452391041664669,
          "durationTicks": 113,
          "midi": 70,
          "name": "A#4",
          "ticks": 359760,
          "time": 563.7144715,
          "velocity": 0.5905511811023622
        },
        {
          "duration": 0.13452391041664669,
          "durationTicks": 113,
          "midi": 69,
          "name": "A4",
          "ticks": 359880,
          "time": 563.85732875,
          "velocity": 0.5905511811023622
        },
        {
          "duration": 0.27023829791664866,
          "durationTicks": 227,
          "midi": 67,
          "name": "G4",
          "ticks": 360000,
          "time": 564.000186,
          "velocity": 0.5905511811023622
        },
        {
          "duration": 0.5416670729166526,
          "durationTicks": 455,
          "midi": 62,
          "name": "D4",
          "ticks": 360000,
          "time": 564.000186,
          "velocity": 0.5905511811023622
        },
        {
          "duration": 0.13452391041664669,
          "durationTicks": 113,
          "midi": 67,
          "name": "G4",
          "ticks": 360240,
          "time": 564.2859005,
          "velocity": 0.5905511811023622
        },
        {
          "duration": 0.13452391041664669,
          "durationTicks": 113,
          "midi": 65,
          "name": "F4",
          "ticks": 360360,
          "time": 564.4287577499999,
          "velocity": 0.5905511811023622
        },
        {
          "duration": 0.27023829791676235,
          "durationTicks": 227,
          "midi": 67,
          "name": "G4",
          "ticks": 360480,
          "time": 564.571615,
          "velocity": 0.5905511811023622
        },
        {
          "duration": 0.13452391041664669,
          "durationTicks": 113,
          "midi": 67,
          "name": "G4",
          "ticks": 360720,
          "time": 564.8573295,
          "velocity": 0.5905511811023622
        },
        {
          "duration": 0.13452391041664669,
          "durationTicks": 113,
          "midi": 70,
          "name": "A#4",
          "ticks": 360840,
          "time": 565.00018675,
          "velocity": 0.5905511811023622
        },
        {
          "duration": 0.27023829791676235,
          "durationTicks": 227,
          "midi": 69,
          "name": "A4",
          "ticks": 360960,
          "time": 565.1430439999999,
          "velocity": 0.5905511811023622
        },
        {
          "duration": 1.0845246229167742,
          "durationTicks": 911,
          "midi": 61,
          "name": "C#4",
          "ticks": 360960,
          "time": 565.1430439999999,
          "velocity": 0.5905511811023622
        },
        {
          "duration": 0.13452391041664669,
          "durationTicks": 113,
          "midi": 69,
          "name": "A4",
          "ticks": 361200,
          "time": 565.4287585,
          "velocity": 0.5905511811023622
        },
        {
          "duration": 0.13452391041664669,
          "durationTicks": 113,
          "midi": 67,
          "name": "G4",
          "ticks": 361320,
          "time": 565.57161575,
          "velocity": 0.5905511811023622
        },
        {
          "duration": 0.27023829791664866,
          "durationTicks": 227,
          "midi": 65,
          "name": "F4",
          "ticks": 361440,
          "time": 565.714473,
          "velocity": 0.5905511811023622
        },
        {
          "duration": 0.13452391041664669,
          "durationTicks": 113,
          "midi": 65,
          "name": "F4",
          "ticks": 361680,
          "time": 566.0001875,
          "velocity": 0.5905511811023622
        },
        {
          "duration": 0.13452391041664669,
          "durationTicks": 113,
          "midi": 64,
          "name": "E4",
          "ticks": 361800,
          "time": 566.14304475,
          "velocity": 0.5905511811023622
        },
        {
          "duration": 0.5416670729167663,
          "durationTicks": 455,
          "midi": 65,
          "name": "F4",
          "ticks": 361920,
          "time": 566.285902,
          "velocity": 0.5905511811023622
        },
        {
          "duration": 0.13452391041664669,
          "durationTicks": 113,
          "midi": 64,
          "name": "E4",
          "ticks": 362040,
          "time": 566.42875925,
          "velocity": 0.5905511811023622
        },
        {
          "duration": 0.13452391041664669,
          "durationTicks": 113,
          "midi": 62,
          "name": "D4",
          "ticks": 362160,
          "time": 566.5716165,
          "velocity": 0.5905511811023622
        },
        {
          "duration": 0.13452391041664669,
          "durationTicks": 113,
          "midi": 60,
          "name": "C4",
          "ticks": 362280,
          "time": 566.71447375,
          "velocity": 0.5905511811023622
        },
        {
          "duration": 1.0845246229166605,
          "durationTicks": 911,
          "midi": 59,
          "name": "B3",
          "ticks": 362400,
          "time": 566.8573309999999,
          "velocity": 0.5905511811023622
        },
        {
          "duration": 0.13452391041676037,
          "durationTicks": 113,
          "midi": 60,
          "name": "C4",
          "ticks": 362520,
          "time": 567.00018825,
          "velocity": 0.5905511811023622
        },
        {
          "duration": 0.13452391041664669,
          "durationTicks": 113,
          "midi": 62,
          "name": "D4",
          "ticks": 362640,
          "time": 567.1430455,
          "velocity": 0.5905511811023622
        },
        {
          "duration": 0.13452391041664669,
          "durationTicks": 113,
          "midi": 64,
          "name": "E4",
          "ticks": 362760,
          "time": 567.28590275,
          "velocity": 0.5905511811023622
        },
        {
          "duration": 0.13452391041664669,
          "durationTicks": 113,
          "midi": 65,
          "name": "F4",
          "ticks": 362880,
          "time": 567.42876,
          "velocity": 0.5905511811023622
        },
        {
          "duration": 0.13452391041676037,
          "durationTicks": 113,
          "midi": 69,
          "name": "A4",
          "ticks": 363000,
          "time": 567.5716172499999,
          "velocity": 0.5905511811023622
        },
        {
          "duration": 0.13452391041664669,
          "durationTicks": 113,
          "midi": 67,
          "name": "G4",
          "ticks": 363120,
          "time": 567.7144745,
          "velocity": 0.5905511811023622
        },
        {
          "duration": 0.13452391041664669,
          "durationTicks": 113,
          "midi": 65,
          "name": "F4",
          "ticks": 363240,
          "time": 567.85733175,
          "velocity": 0.5905511811023622
        },
        {
          "duration": 0.5416670729166526,
          "durationTicks": 455,
          "midi": 64,
          "name": "E4",
          "ticks": 363360,
          "time": 568.000189,
          "velocity": 0.5905511811023622
        },
        {
          "duration": 0.13452391041664669,
          "durationTicks": 113,
          "midi": 62,
          "name": "D4",
          "ticks": 363480,
          "time": 568.14304625,
          "velocity": 0.5905511811023622
        },
        {
          "duration": 0.13452391041664669,
          "durationTicks": 113,
          "midi": 60,
          "name": "C4",
          "ticks": 363600,
          "time": 568.2859035,
          "velocity": 0.5905511811023622
        },
        {
          "duration": 0.13452391041664669,
          "durationTicks": 113,
          "midi": 58,
          "name": "A#3",
          "ticks": 363720,
          "time": 568.42876075,
          "velocity": 0.5905511811023622
        },
        {
          "duration": 1.0845246229166605,
          "durationTicks": 911,
          "midi": 57,
          "name": "A3",
          "ticks": 363840,
          "time": 568.571618,
          "velocity": 0.5905511811023622
        },
        {
          "duration": 0.13452391041664669,
          "durationTicks": 113,
          "midi": 58,
          "name": "A#3",
          "ticks": 363960,
          "time": 568.71447525,
          "velocity": 0.5905511811023622
        },
        {
          "duration": 0.13452391041664669,
          "durationTicks": 113,
          "midi": 60,
          "name": "C4",
          "ticks": 364080,
          "time": 568.8573325,
          "velocity": 0.5905511811023622
        },
        {
          "duration": 0.13452391041664669,
          "durationTicks": 113,
          "midi": 62,
          "name": "D4",
          "ticks": 364200,
          "time": 569.00018975,
          "velocity": 0.5905511811023622
        },
        {
          "duration": 0.13452391041664669,
          "durationTicks": 113,
          "midi": 63,
          "name": "D#4",
          "ticks": 364320,
          "time": 569.143047,
          "velocity": 0.5905511811023622
        },
        {
          "duration": 0.13452391041664669,
          "durationTicks": 113,
          "midi": 67,
          "name": "G4",
          "ticks": 364440,
          "time": 569.2859042499999,
          "velocity": 0.5905511811023622
        },
        {
          "duration": 0.13452391041676037,
          "durationTicks": 113,
          "midi": 65,
          "name": "F4",
          "ticks": 364560,
          "time": 569.4287615,
          "velocity": 0.5905511811023622
        },
        {
          "duration": 0.13452391041664669,
          "durationTicks": 113,
          "midi": 63,
          "name": "D#4",
          "ticks": 364680,
          "time": 569.57161875,
          "velocity": 0.5905511811023622
        },
        {
          "duration": 0.5416670729166526,
          "durationTicks": 455,
          "midi": 62,
          "name": "D4",
          "ticks": 364800,
          "time": 569.714476,
          "velocity": 0.5905511811023622
        },
        {
          "duration": 0.13452391041664669,
          "durationTicks": 113,
          "midi": 60,
          "name": "C4",
          "ticks": 364920,
          "time": 569.85733325,
          "velocity": 0.5905511811023622
        },
        {
          "duration": 0.13452391041676037,
          "durationTicks": 113,
          "midi": 58,
          "name": "A#3",
          "ticks": 365040,
          "time": 570.0001904999999,
          "velocity": 0.5905511811023622
        },
        {
          "duration": 0.13452391041664669,
          "durationTicks": 113,
          "midi": 57,
          "name": "A3",
          "ticks": 365160,
          "time": 570.14304775,
          "velocity": 0.5905511811023622
        },
        {
          "duration": 0.27023829791664866,
          "durationTicks": 227,
          "midi": 55,
          "name": "G3",
          "ticks": 365280,
          "time": 570.285905,
          "velocity": 0.5905511811023622
        },
        {
          "duration": 0.13452391041664669,
          "durationTicks": 113,
          "midi": 62,
          "name": "D4",
          "ticks": 365400,
          "time": 570.42876225,
          "velocity": 0.5905511811023622
        },
        {
          "duration": 0.13452391041664669,
          "durationTicks": 113,
          "midi": 64,
          "name": "E4",
          "ticks": 365520,
          "time": 570.5716195,
          "velocity": 0.5905511811023622
        },
        {
          "duration": 0.13452391041664669,
          "durationTicks": 113,
          "midi": 66,
          "name": "F#4",
          "ticks": 365640,
          "time": 570.71447675,
          "velocity": 0.5905511811023622
        },
        {
          "duration": 0.13452391041664669,
          "durationTicks": 113,
          "midi": 67,
          "name": "G4",
          "ticks": 365760,
          "time": 570.857334,
          "velocity": 0.5905511811023622
        },
        {
          "duration": 0.13452391041664669,
          "durationTicks": 113,
          "midi": 70,
          "name": "A#4",
          "ticks": 365880,
          "time": 571.00019125,
          "velocity": 0.5905511811023622
        },
        {
          "duration": 0.13452391041664669,
          "durationTicks": 113,
          "midi": 69,
          "name": "A4",
          "ticks": 366000,
          "time": 571.1430485,
          "velocity": 0.5905511811023622
        },
        {
          "duration": 0.13452391041664669,
          "durationTicks": 113,
          "midi": 67,
          "name": "G4",
          "ticks": 366120,
          "time": 571.28590575,
          "velocity": 0.5905511811023622
        },
        {
          "duration": 0.13452391041664669,
          "durationTicks": 113,
          "midi": 66,
          "name": "F#4",
          "ticks": 366240,
          "time": 571.428763,
          "velocity": 0.5905511811023622
        },
        {
          "duration": 0.13452391041664669,
          "durationTicks": 113,
          "midi": 67,
          "name": "G4",
          "ticks": 366360,
          "time": 571.57162025,
          "velocity": 0.5905511811023622
        },
        {
          "duration": 0.13452391041664669,
          "durationTicks": 113,
          "midi": 69,
          "name": "A4",
          "ticks": 366480,
          "time": 571.7144774999999,
          "velocity": 0.5905511811023622
        },
        {
          "duration": 0.13452391041676037,
          "durationTicks": 113,
          "midi": 70,
          "name": "A#4",
          "ticks": 366600,
          "time": 571.85733475,
          "velocity": 0.5905511811023622
        },
        {
          "duration": 0.13452391041664669,
          "durationTicks": 113,
          "midi": 72,
          "name": "C5",
          "ticks": 366720,
          "time": 572.000192,
          "velocity": 0.5905511811023622
        },
        {
          "duration": 0.13452391041664669,
          "durationTicks": 113,
          "midi": 70,
          "name": "A#4",
          "ticks": 366840,
          "time": 572.14304925,
          "velocity": 0.5905511811023622
        },
        {
          "duration": 0.13452391041664669,
          "durationTicks": 113,
          "midi": 69,
          "name": "A4",
          "ticks": 366960,
          "time": 572.2859065,
          "velocity": 0.5905511811023622
        },
        {
          "duration": 0.13452391041664669,
          "durationTicks": 113,
          "midi": 70,
          "name": "A#4",
          "ticks": 367080,
          "time": 572.4287637499999,
          "velocity": 0.5905511811023622
        },
        {
          "duration": 0.13452391041664669,
          "durationTicks": 113,
          "midi": 72,
          "name": "C5",
          "ticks": 367200,
          "time": 572.571621,
          "velocity": 0.5905511811023622
        },
        {
          "duration": 0.13452391041664669,
          "durationTicks": 113,
          "midi": 75,
          "name": "D#5",
          "ticks": 367320,
          "time": 572.71447825,
          "velocity": 0.5905511811023622
        },
        {
          "duration": 0.13452391041664669,
          "durationTicks": 113,
          "midi": 74,
          "name": "D5",
          "ticks": 367440,
          "time": 572.8573355,
          "velocity": 0.5905511811023622
        },
        {
          "duration": 0.13452391041664669,
          "durationTicks": 113,
          "midi": 72,
          "name": "C5",
          "ticks": 367560,
          "time": 573.00019275,
          "velocity": 0.5905511811023622
        },
        {
          "duration": 0.5416670729167663,
          "durationTicks": 455,
          "midi": 70,
          "name": "A#4",
          "ticks": 367680,
          "time": 573.1430499999999,
          "velocity": 0.5905511811023622
        },
        {
          "duration": 0.13452391041664669,
          "durationTicks": 113,
          "midi": 69,
          "name": "A4",
          "ticks": 367800,
          "time": 573.28590725,
          "velocity": 0.5905511811023622
        },
        {
          "duration": 0.13452391041664669,
          "durationTicks": 113,
          "midi": 67,
          "name": "G4",
          "ticks": 367920,
          "time": 573.4287644999999,
          "velocity": 0.5905511811023622
        },
        {
          "duration": 0.13452391041676037,
          "durationTicks": 113,
          "midi": 65,
          "name": "F4",
          "ticks": 368040,
          "time": 573.57162175,
          "velocity": 0.5905511811023622
        },
        {
          "duration": 1.0845246229166605,
          "durationTicks": 911,
          "midi": 64,
          "name": "E4",
          "ticks": 368160,
          "time": 573.714479,
          "velocity": 0.5905511811023622
        },
        {
          "duration": 0.13452391041664669,
          "durationTicks": 113,
          "midi": 65,
          "name": "F4",
          "ticks": 368280,
          "time": 573.85733625,
          "velocity": 0.5905511811023622
        },
        {
          "duration": 0.13452391041664669,
          "durationTicks": 113,
          "midi": 67,
          "name": "G4",
          "ticks": 368400,
          "time": 574.0001935,
          "velocity": 0.5905511811023622
        },
        {
          "duration": 0.13452391041664669,
          "durationTicks": 113,
          "midi": 69,
          "name": "A4",
          "ticks": 368520,
          "time": 574.1430507499999,
          "velocity": 0.5905511811023622
        },
        {
          "duration": 0.13452391041664669,
          "durationTicks": 113,
          "midi": 70,
          "name": "A#4",
          "ticks": 368640,
          "time": 574.2859080000001,
          "velocity": 0.5905511811023622
        },
        {
          "duration": 0.13452391041664669,
          "durationTicks": 113,
          "midi": 74,
          "name": "D5",
          "ticks": 368760,
          "time": 574.42876525,
          "velocity": 0.5905511811023622
        },
        {
          "duration": 0.13452391041664669,
          "durationTicks": 113,
          "midi": 72,
          "name": "C5",
          "ticks": 368880,
          "time": 574.5716225,
          "velocity": 0.5905511811023622
        },
        {
          "duration": 0.13452391041664669,
          "durationTicks": 113,
          "midi": 70,
          "name": "A#4",
          "ticks": 369000,
          "time": 574.71447975,
          "velocity": 0.5905511811023622
        },
        {
          "duration": 0.5416670729167663,
          "durationTicks": 455,
          "midi": 69,
          "name": "A4",
          "ticks": 369120,
          "time": 574.8573369999999,
          "velocity": 0.5905511811023622
        },
        {
          "duration": 0.13452391041664669,
          "durationTicks": 113,
          "midi": 67,
          "name": "G4",
          "ticks": 369240,
          "time": 575.00019425,
          "velocity": 0.5905511811023622
        },
        {
          "duration": 0.13452391041664669,
          "durationTicks": 113,
          "midi": 65,
          "name": "F4",
          "ticks": 369360,
          "time": 575.1430515,
          "velocity": 0.5905511811023622
        },
        {
          "duration": 0.13452391041664669,
          "durationTicks": 113,
          "midi": 64,
          "name": "E4",
          "ticks": 369480,
          "time": 575.28590875,
          "velocity": 0.5905511811023622
        },
        {
          "duration": 0.27023829791664866,
          "durationTicks": 227,
          "midi": 62,
          "name": "D4",
          "ticks": 369600,
          "time": 575.428766,
          "velocity": 0.5905511811023622
        },
        {
          "duration": 0.13452391041676037,
          "durationTicks": 113,
          "midi": 69,
          "name": "A4",
          "ticks": 369720,
          "time": 575.5716232499999,
          "velocity": 0.5905511811023622
        },
        {
          "duration": 0.13452391041664669,
          "durationTicks": 113,
          "midi": 71,
          "name": "B4",
          "ticks": 369840,
          "time": 575.7144805,
          "velocity": 0.5905511811023622
        },
        {
          "duration": 0.13452391041664669,
          "durationTicks": 113,
          "midi": 73,
          "name": "C#5",
          "ticks": 369960,
          "time": 575.8573377499999,
          "velocity": 0.5905511811023622
        },
        {
          "duration": 0.13452391041676037,
          "durationTicks": 113,
          "midi": 74,
          "name": "D5",
          "ticks": 370080,
          "time": 576.000195,
          "velocity": 0.5905511811023622
        },
        {
          "duration": 0.13452391041664669,
          "durationTicks": 113,
          "midi": 77,
          "name": "F5",
          "ticks": 370200,
          "time": 576.14305225,
          "velocity": 0.5905511811023622
        },
        {
          "duration": 0.13452391041664669,
          "durationTicks": 113,
          "midi": 76,
          "name": "E5",
          "ticks": 370320,
          "time": 576.2859095,
          "velocity": 0.5905511811023622
        },
        {
          "duration": 0.13452391041664669,
          "durationTicks": 113,
          "midi": 74,
          "name": "D5",
          "ticks": 370440,
          "time": 576.42876675,
          "velocity": 0.5905511811023622
        },
        {
          "duration": 0.13452391041664669,
          "durationTicks": 113,
          "midi": 73,
          "name": "C#5",
          "ticks": 370560,
          "time": 576.5716239999999,
          "velocity": 0.5905511811023622
        },
        {
          "duration": 0.13452391041664669,
          "durationTicks": 113,
          "midi": 74,
          "name": "D5",
          "ticks": 370680,
          "time": 576.7144812500001,
          "velocity": 0.5905511811023622
        },
        {
          "duration": 0.13452391041664669,
          "durationTicks": 113,
          "midi": 76,
          "name": "E5",
          "ticks": 370800,
          "time": 576.8573385,
          "velocity": 0.5905511811023622
        },
        {
          "duration": 0.13452391041664669,
          "durationTicks": 113,
          "midi": 77,
          "name": "F5",
          "ticks": 370920,
          "time": 577.00019575,
          "velocity": 0.5905511811023622
        },
        {
          "duration": 0.13452391041664669,
          "durationTicks": 113,
          "midi": 79,
          "name": "G5",
          "ticks": 371040,
          "time": 577.143053,
          "velocity": 0.5905511811023622
        },
        {
          "duration": 0.13452391041664669,
          "durationTicks": 113,
          "midi": 77,
          "name": "F5",
          "ticks": 371160,
          "time": 577.2859102499999,
          "velocity": 0.5905511811023622
        },
        {
          "duration": 0.13452391041664669,
          "durationTicks": 113,
          "midi": 76,
          "name": "E5",
          "ticks": 371280,
          "time": 577.4287675,
          "velocity": 0.5905511811023622
        },
        {
          "duration": 0.13452391041664669,
          "durationTicks": 113,
          "midi": 77,
          "name": "F5",
          "ticks": 371400,
          "time": 577.57162475,
          "velocity": 0.5905511811023622
        },
        {
          "duration": 0.13452391041664669,
          "durationTicks": 113,
          "midi": 79,
          "name": "G5",
          "ticks": 371520,
          "time": 577.714482,
          "velocity": 0.5905511811023622
        },
        {
          "duration": 0.13452391041664669,
          "durationTicks": 113,
          "midi": 82,
          "name": "A#5",
          "ticks": 371640,
          "time": 577.85733925,
          "velocity": 0.5905511811023622
        },
        {
          "duration": 0.13452391041676037,
          "durationTicks": 113,
          "midi": 81,
          "name": "A5",
          "ticks": 371760,
          "time": 578.0001964999999,
          "velocity": 0.5905511811023622
        },
        {
          "duration": 0.27023829791664866,
          "durationTicks": 227,
          "midi": 79,
          "name": "G5",
          "ticks": 371880,
          "time": 578.14305375,
          "velocity": 0.5905511811023622
        },
        {
          "duration": 0.5416670729166526,
          "durationTicks": 455,
          "midi": 81,
          "name": "A5",
          "ticks": 372000,
          "time": 578.2859109999999,
          "velocity": 0.5905511811023622
        },
        {
          "duration": 0.13452391041676037,
          "durationTicks": 113,
          "midi": 77,
          "name": "F5",
          "ticks": 372120,
          "time": 578.42876825,
          "velocity": 0.5905511811023622
        },
        {
          "duration": 0.13452391041664669,
          "durationTicks": 113,
          "midi": 76,
          "name": "E5",
          "ticks": 372240,
          "time": 578.5716255,
          "velocity": 0.5905511811023622
        },
        {
          "duration": 0.13452391041664669,
          "durationTicks": 113,
          "midi": 79,
          "name": "G5",
          "ticks": 372360,
          "time": 578.71448275,
          "velocity": 0.5905511811023622
        },
        {
          "duration": 0.5416670729166526,
          "durationTicks": 455,
          "midi": 82,
          "name": "A#5",
          "ticks": 372480,
          "time": 578.85734,
          "velocity": 0.5905511811023622
        },
        {
          "duration": 0.13452391041664669,
          "durationTicks": 113,
          "midi": 77,
          "name": "F5",
          "ticks": 372480,
          "time": 578.85734,
          "velocity": 0.5905511811023622
        },
        {
          "duration": 0.13452391041664669,
          "durationTicks": 113,
          "midi": 79,
          "name": "G5",
          "ticks": 372600,
          "time": 579.0001972499999,
          "velocity": 0.5905511811023622
        },
        {
          "duration": 0.13452391041664669,
          "durationTicks": 113,
          "midi": 81,
          "name": "A5",
          "ticks": 372720,
          "time": 579.1430545000001,
          "velocity": 0.5905511811023622
        },
        {
          "duration": 0.13452391041664669,
          "durationTicks": 113,
          "midi": 79,
          "name": "G5",
          "ticks": 372840,
          "time": 579.28591175,
          "velocity": 0.5905511811023622
        },
        {
          "duration": 0.5416670729166526,
          "durationTicks": 455,
          "midi": 83,
          "name": "B5",
          "ticks": 372960,
          "time": 579.428769,
          "velocity": 0.5905511811023622
        },
        {
          "duration": 0.13452391041664669,
          "durationTicks": 113,
          "midi": 77,
          "name": "F5",
          "ticks": 372960,
          "time": 579.428769,
          "velocity": 0.5905511811023622
        },
        {
          "duration": 0.13452391041664669,
          "durationTicks": 113,
          "midi": 76,
          "name": "E5",
          "ticks": 373080,
          "time": 579.57162625,
          "velocity": 0.5905511811023622
        },
        {
          "duration": 0.13452391041664669,
          "durationTicks": 113,
          "midi": 74,
          "name": "D5",
          "ticks": 373200,
          "time": 579.7144834999999,
          "velocity": 0.5905511811023622
        },
        {
          "duration": 0.13452391041664669,
          "durationTicks": 113,
          "midi": 77,
          "name": "F5",
          "ticks": 373320,
          "time": 579.85734075,
          "velocity": 0.5905511811023622
        },
        {
          "duration": 0.5416670729166526,
          "durationTicks": 455,
          "midi": 84,
          "name": "C6",
          "ticks": 373440,
          "time": 580.000198,
          "velocity": 0.5905511811023622
        },
        {
          "duration": 0.13452391041664669,
          "durationTicks": 113,
          "midi": 76,
          "name": "E5",
          "ticks": 373440,
          "time": 580.000198,
          "velocity": 0.5905511811023622
        },
        {
          "duration": 0.13452391041664669,
          "durationTicks": 113,
          "midi": 81,
          "name": "A5",
          "ticks": 373560,
          "time": 580.14305525,
          "velocity": 0.5905511811023622
        },
        {
          "duration": 0.13452391041664669,
          "durationTicks": 113,
          "midi": 79,
          "name": "G5",
          "ticks": 373680,
          "time": 580.2859125,
          "velocity": 0.5905511811023622
        },
        {
          "duration": 0.13452391041676037,
          "durationTicks": 113,
          "midi": 77,
          "name": "F5",
          "ticks": 373800,
          "time": 580.4287697499999,
          "velocity": 0.5905511811023622
        },
        {
          "duration": 0.27023829791664866,
          "durationTicks": 227,
          "midi": 84,
          "name": "C6",
          "ticks": 373920,
          "time": 580.571627,
          "velocity": 0.5905511811023622
        },
        {
          "duration": 0.13452391041664669,
          "durationTicks": 113,
          "midi": 76,
          "name": "E5",
          "ticks": 373920,
          "time": 580.571627,
          "velocity": 0.5905511811023622
        },
        {
          "duration": 0.13452391041664669,
          "durationTicks": 113,
          "midi": 81,
          "name": "A5",
          "ticks": 374040,
          "time": 580.7144842499999,
          "velocity": 0.5905511811023622
        },
        {
          "duration": 0.27023829791676235,
          "durationTicks": 227,
          "midi": 83,
          "name": "B5",
          "ticks": 374160,
          "time": 580.8573415,
          "velocity": 0.5905511811023622
        },
        {
          "duration": 0.13452391041676037,
          "durationTicks": 113,
          "midi": 74,
          "name": "D5",
          "ticks": 374160,
          "time": 580.8573415,
          "velocity": 0.5905511811023622
        },
        {
          "duration": 0.13452391041664669,
          "durationTicks": 113,
          "midi": 80,
          "name": "G#5",
          "ticks": 374280,
          "time": 581.00019875,
          "velocity": 0.5905511811023622
        },
        {
          "duration": 0.5416670729166526,
          "durationTicks": 455,
          "midi": 84,
          "name": "C6",
          "ticks": 374400,
          "time": 581.143056,
          "velocity": 0.5905511811023622
        },
        {
          "duration": 0.13452391041664669,
          "durationTicks": 113,
          "midi": 76,
          "name": "E5",
          "ticks": 374400,
          "time": 581.143056,
          "velocity": 0.5905511811023622
        },
        {
          "duration": 0.13452391041664669,
          "durationTicks": 113,
          "midi": 81,
          "name": "A5",
          "ticks": 374520,
          "time": 581.28591325,
          "velocity": 0.5905511811023622
        },
        {
          "duration": 0.13452391041664669,
          "durationTicks": 113,
          "midi": 76,
          "name": "E5",
          "ticks": 374640,
          "time": 581.4287704999999,
          "velocity": 0.5905511811023622
        },
        {
          "duration": 0.13452391041664669,
          "durationTicks": 113,
          "midi": 74,
          "name": "D5",
          "ticks": 374760,
          "time": 581.5716277500001,
          "velocity": 0.5905511811023622
        },
        {
          "duration": 0.5416670729166526,
          "durationTicks": 455,
          "midi": 76,
          "name": "E5",
          "ticks": 374880,
          "time": 581.714485,
          "velocity": 0.5905511811023622
        },
        {
          "duration": 0.13452391041664669,
          "durationTicks": 113,
          "midi": 72,
          "name": "C5",
          "ticks": 374880,
          "time": 581.714485,
          "velocity": 0.5905511811023622
        },
        {
          "duration": 0.13452391041664669,
          "durationTicks": 113,
          "midi": 74,
          "name": "D5",
          "ticks": 375000,
          "time": 581.85734225,
          "velocity": 0.5905511811023622
        },
        {
          "duration": 0.13452391041664669,
          "durationTicks": 113,
          "midi": 72,
          "name": "C5",
          "ticks": 375120,
          "time": 582.0001995,
          "velocity": 0.5905511811023622
        },
        {
          "duration": 0.13452391041664669,
          "durationTicks": 113,
          "midi": 70,
          "name": "A#4",
          "ticks": 375240,
          "time": 582.1430567499999,
          "velocity": 0.5905511811023622
        },
        {
          "duration": 0.5416670729166526,
          "durationTicks": 455,
          "midi": 77,
          "name": "F5",
          "ticks": 375360,
          "time": 582.285914,
          "velocity": 0.5905511811023622
        },
        {
          "duration": 0.13452391041664669,
          "durationTicks": 113,
          "midi": 69,
          "name": "A4",
          "ticks": 375360,
          "time": 582.285914,
          "velocity": 0.5905511811023622
        },
        {
          "duration": 0.13452391041664669,
          "durationTicks": 113,
          "midi": 72,
          "name": "C5",
          "ticks": 375480,
          "time": 582.42877125,
          "velocity": 0.5905511811023622
        },
        {
          "duration": 0.13452391041664669,
          "durationTicks": 113,
          "midi": 70,
          "name": "A#4",
          "ticks": 375600,
          "time": 582.5716285,
          "velocity": 0.5905511811023622
        },
        {
          "duration": 0.13452391041664669,
          "durationTicks": 113,
          "midi": 69,
          "name": "A4",
          "ticks": 375720,
          "time": 582.71448575,
          "velocity": 0.5905511811023622
        },
        {
          "duration": 0.5416670729167663,
          "durationTicks": 455,
          "midi": 78,
          "name": "F#5",
          "ticks": 375840,
          "time": 582.8573429999999,
          "velocity": 0.5905511811023622
        },
        {
          "duration": 0.13452391041676037,
          "durationTicks": 113,
          "midi": 74,
          "name": "D5",
          "ticks": 375840,
          "time": 582.8573429999999,
          "velocity": 0.5905511811023622
        },
        {
          "duration": 0.13452391041664669,
          "durationTicks": 113,
          "midi": 75,
          "name": "D#5",
          "ticks": 375960,
          "time": 583.00020025,
          "velocity": 0.5905511811023622
        },
        {
          "duration": 0.13452391041664669,
          "durationTicks": 113,
          "midi": 74,
          "name": "D5",
          "ticks": 376080,
          "time": 583.1430574999999,
          "velocity": 0.5905511811023622
        },
        {
          "duration": 0.13452391041676037,
          "durationTicks": 113,
          "midi": 72,
          "name": "C5",
          "ticks": 376200,
          "time": 583.28591475,
          "velocity": 0.5905511811023622
        },
        {
          "duration": 0.5416670729166526,
          "durationTicks": 455,
          "midi": 79,
          "name": "G5",
          "ticks": 376320,
          "time": 583.428772,
          "velocity": 0.5905511811023622
        },
        {
          "duration": 0.13452391041664669,
          "durationTicks": 113,
          "midi": 71,
          "name": "B4",
          "ticks": 376320,
          "time": 583.428772,
          "velocity": 0.5905511811023622
        },
        {
          "duration": 0.13452391041664669,
          "durationTicks": 113,
          "midi": 74,
          "name": "D5",
          "ticks": 376440,
          "time": 583.57162925,
          "velocity": 0.5905511811023622
        },
        {
          "duration": 0.13452391041664669,
          "durationTicks": 113,
          "midi": 72,
          "name": "C5",
          "ticks": 376560,
          "time": 583.7144865,
          "velocity": 0.5905511811023622
        },
        {
          "duration": 0.13452391041664669,
          "durationTicks": 113,
          "midi": 71,
          "name": "B4",
          "ticks": 376680,
          "time": 583.8573437499999,
          "velocity": 0.5905511811023622
        },
        {
          "duration": 0.27023829791664866,
          "durationTicks": 227,
          "midi": 79,
          "name": "G5",
          "ticks": 376800,
          "time": 584.0002010000001,
          "velocity": 0.5905511811023622
        },
        {
          "duration": 0.13452391041664669,
          "durationTicks": 113,
          "midi": 76,
          "name": "E5",
          "ticks": 376800,
          "time": 584.0002010000001,
          "velocity": 0.5905511811023622
        },
        {
          "duration": 0.13452391041664669,
          "durationTicks": 113,
          "midi": 77,
          "name": "F5",
          "ticks": 376920,
          "time": 584.14305825,
          "velocity": 0.5905511811023622
        },
        {
          "duration": 0.27023829791664866,
          "durationTicks": 227,
          "midi": 78,
          "name": "F#5",
          "ticks": 377040,
          "time": 584.2859155,
          "velocity": 0.5905511811023622
        },
        {
          "duration": 0.13452391041664669,
          "durationTicks": 113,
          "midi": 76,
          "name": "E5",
          "ticks": 377040,
          "time": 584.2859155,
          "velocity": 0.5905511811023622
        },
        {
          "duration": 0.13452391041664669,
          "durationTicks": 113,
          "midi": 74,
          "name": "D5",
          "ticks": 377160,
          "time": 584.42877275,
          "velocity": 0.5905511811023622
        },
        {
          "duration": 0.27023829791676235,
          "durationTicks": 227,
          "midi": 79,
          "name": "G5",
          "ticks": 377280,
          "time": 584.5716299999999,
          "velocity": 0.5905511811023622
        },
        {
          "duration": 0.13452391041664669,
          "durationTicks": 113,
          "midi": 73,
          "name": "C#5",
          "ticks": 377280,
          "time": 584.5716299999999,
          "velocity": 0.5905511811023622
        },
        {
          "duration": 0.13452391041664669,
          "durationTicks": 113,
          "midi": 74,
          "name": "D5",
          "ticks": 377400,
          "time": 584.71448725,
          "velocity": 0.5905511811023622
        },
        {
          "duration": 0.27023829791664866,
          "durationTicks": 227,
          "midi": 81,
          "name": "A5",
          "ticks": 377520,
          "time": 584.8573445,
          "velocity": 0.5905511811023622
        },
        {
          "duration": 0.13452391041664669,
          "durationTicks": 113,
          "midi": 73,
          "name": "C#5",
          "ticks": 377520,
          "time": 584.8573445,
          "velocity": 0.5905511811023622
        },
        {
          "duration": 0.13452391041664669,
          "durationTicks": 113,
          "midi": 71,
          "name": "B4",
          "ticks": 377640,
          "time": 585.00020175,
          "velocity": 0.5905511811023622
        },
        {
          "duration": 0.5416670729166526,
          "durationTicks": 455,
          "midi": 82,
          "name": "A#5",
          "ticks": 377760,
          "time": 585.143059,
          "velocity": 0.5905511811023622
        },
        {
          "duration": 0.5416670729166526,
          "durationTicks": 455,
          "midi": 73,
          "name": "C#5",
          "ticks": 377760,
          "time": 585.143059,
          "velocity": 0.5905511811023622
        },
        {
          "duration": 0.5416670729166526,
          "durationTicks": 455,
          "midi": 76,
          "name": "E5",
          "ticks": 377760,
          "time": 585.143059,
          "velocity": 0.5905511811023622
        },
        {
          "duration": 0.5416670729166526,
          "durationTicks": 455,
          "midi": 79,
          "name": "G5",
          "ticks": 377760,
          "time": 585.143059,
          "velocity": 0.5905511811023622
        },
        {
          "duration": 0.5416670729167663,
          "durationTicks": 455,
          "midi": 81,
          "name": "A5",
          "ticks": 378240,
          "time": 585.714488,
          "velocity": 0.5905511811023622
        },
        {
          "duration": 0.5416670729167663,
          "durationTicks": 455,
          "midi": 69,
          "name": "A4",
          "ticks": 378240,
          "time": 585.714488,
          "velocity": 0.5905511811023622
        },
        {
          "duration": 0.5416670729167663,
          "durationTicks": 455,
          "midi": 74,
          "name": "D5",
          "ticks": 378240,
          "time": 585.714488,
          "velocity": 0.5905511811023622
        },
        {
          "duration": 0.5416670729167663,
          "durationTicks": 455,
          "midi": 77,
          "name": "F5",
          "ticks": 378240,
          "time": 585.714488,
          "velocity": 0.5905511811023622
        },
        {
          "duration": 0.5416670729166526,
          "durationTicks": 455,
          "midi": 79,
          "name": "G5",
          "ticks": 378720,
          "time": 586.2859169999999,
          "velocity": 0.5905511811023622
        },
        {
          "duration": 0.5416670729166526,
          "durationTicks": 455,
          "midi": 69,
          "name": "A4",
          "ticks": 378720,
          "time": 586.2859169999999,
          "velocity": 0.5905511811023622
        },
        {
          "duration": 0.5416670729166526,
          "durationTicks": 455,
          "midi": 76,
          "name": "E5",
          "ticks": 378720,
          "time": 586.2859169999999,
          "velocity": 0.5905511811023622
        },
        {
          "duration": 0.5416670729166526,
          "durationTicks": 455,
          "midi": 77,
          "name": "F5",
          "ticks": 379200,
          "time": 586.857346,
          "velocity": 0.5905511811023622
        },
        {
          "duration": 0.5416670729166526,
          "durationTicks": 455,
          "midi": 69,
          "name": "A4",
          "ticks": 379200,
          "time": 586.857346,
          "velocity": 0.5905511811023622
        },
        {
          "duration": 0.5416670729166526,
          "durationTicks": 455,
          "midi": 74,
          "name": "D5",
          "ticks": 379200,
          "time": 586.857346,
          "velocity": 0.5905511811023622
        },
        {
          "duration": 0.27023829791664866,
          "durationTicks": 227,
          "midi": 79,
          "name": "G5",
          "ticks": 379680,
          "time": 587.428775,
          "velocity": 0.5905511811023622
        },
        {
          "duration": 0.27023829791664866,
          "durationTicks": 227,
          "midi": 67,
          "name": "G4",
          "ticks": 379680,
          "time": 587.428775,
          "velocity": 0.5905511811023622
        },
        {
          "duration": 0.27023829791664866,
          "durationTicks": 227,
          "midi": 74,
          "name": "D5",
          "ticks": 379680,
          "time": 587.428775,
          "velocity": 0.5905511811023622
        },
        {
          "duration": 0.27023829791676235,
          "durationTicks": 227,
          "midi": 77,
          "name": "F5",
          "ticks": 379920,
          "time": 587.7144894999999,
          "velocity": 0.5905511811023622
        },
        {
          "duration": 0.27023829791676235,
          "durationTicks": 227,
          "midi": 69,
          "name": "A4",
          "ticks": 379920,
          "time": 587.7144894999999,
          "velocity": 0.5905511811023622
        },
        {
          "duration": 0.27023829791676235,
          "durationTicks": 227,
          "midi": 74,
          "name": "D5",
          "ticks": 379920,
          "time": 587.7144894999999,
          "velocity": 0.5905511811023622
        },
        {
          "duration": 0.27023829791664866,
          "durationTicks": 227,
          "midi": 76,
          "name": "E5",
          "ticks": 380160,
          "time": 588.0002039999999,
          "velocity": 0.5905511811023622
        },
        {
          "duration": 0.27023829791664866,
          "durationTicks": 227,
          "midi": 70,
          "name": "A#4",
          "ticks": 380160,
          "time": 588.0002039999999,
          "velocity": 0.5905511811023622
        },
        {
          "duration": 0.27023829791664866,
          "durationTicks": 227,
          "midi": 73,
          "name": "C#5",
          "ticks": 380160,
          "time": 588.0002039999999,
          "velocity": 0.5905511811023622
        },
        {
          "duration": 0,
          "durationTicks": 0,
          "midi": 74,
          "name": "D5",
          "ticks": 380400,
          "time": 588.2859185,
          "velocity": 0.5905511811023622
        },
        {
          "duration": 0.27023829791664866,
          "durationTicks": 227,
          "midi": 69,
          "name": "A4",
          "ticks": 380400,
          "time": 588.2859185,
          "velocity": 0.5905511811023622
        },
        {
          "duration": 0.27023829791664866,
          "durationTicks": 227,
          "midi": 74,
          "name": "D5",
          "ticks": 380400,
          "time": 588.2859185,
          "velocity": 0.5905511811023622
        },
        {
          "duration": 0.13452391041664669,
          "durationTicks": 113,
          "midi": 76,
          "name": "E5",
          "ticks": 380640,
          "time": 588.571633,
          "velocity": 0.5905511811023622
        },
        {
          "duration": 0.13452391041664669,
          "durationTicks": 113,
          "midi": 70,
          "name": "A#4",
          "ticks": 380640,
          "time": 588.571633,
          "velocity": 0.5905511811023622
        },
        {
          "duration": 0.13452391041664669,
          "durationTicks": 113,
          "midi": 74,
          "name": "D5",
          "ticks": 380640,
          "time": 588.571633,
          "velocity": 0.5905511811023622
        },
        {
          "duration": 0.0666667166666457,
          "durationTicks": 56,
          "midi": 69,
          "name": "A4",
          "ticks": 381120,
          "time": 589.143062,
          "velocity": 0.5905511811023622
        },
        {
          "duration": 0.06666671666653201,
          "durationTicks": 56,
          "midi": 71,
          "name": "B4",
          "ticks": 381180,
          "time": 589.214490625,
          "velocity": 0.5905511811023622
        },
        {
          "duration": 0.0666667166666457,
          "durationTicks": 56,
          "midi": 73,
          "name": "C#5",
          "ticks": 381240,
          "time": 589.28591925,
          "velocity": 0.5905511811023622
        },
        {
          "duration": 0.06666671666675938,
          "durationTicks": 56,
          "midi": 74,
          "name": "D5",
          "ticks": 381300,
          "time": 589.357347875,
          "velocity": 0.5905511811023622
        },
        {
          "duration": 0.06666671666675938,
          "durationTicks": 56,
          "midi": 76,
          "name": "E5",
          "ticks": 381360,
          "time": 589.4287764999999,
          "velocity": 0.5905511811023622
        },
        {
          "duration": 0.0666667166666457,
          "durationTicks": 56,
          "midi": 77,
          "name": "F5",
          "ticks": 381420,
          "time": 589.500205125,
          "velocity": 0.5905511811023622
        },
        {
          "duration": 0.06666671666653201,
          "durationTicks": 56,
          "midi": 79,
          "name": "G5",
          "ticks": 381480,
          "time": 589.57163375,
          "velocity": 0.5905511811023622
        },
        {
          "duration": 0.0666667166666457,
          "durationTicks": 56,
          "midi": 76,
          "name": "E5",
          "ticks": 381540,
          "time": 589.643062375,
          "velocity": 0.5905511811023622
        },
        {
          "duration": 0.40595268541665064,
          "durationTicks": 341,
          "midi": 73,
          "name": "C#5",
          "ticks": 381600,
          "time": 589.714491,
          "velocity": 0.5905511811023622
        },
        {
          "duration": 0.27023829791664866,
          "durationTicks": 227,
          "midi": 67,
          "name": "G4",
          "ticks": 381840,
          "time": 590.0002055,
          "velocity": 0.5905511811023622
        },
        {
          "duration": 0.27023829791664866,
          "durationTicks": 227,
          "midi": 69,
          "name": "A4",
          "ticks": 381840,
          "time": 590.0002055,
          "velocity": 0.5905511811023622
        },
        {
          "duration": 0.13452391041676037,
          "durationTicks": 113,
          "midi": 74,
          "name": "D5",
          "ticks": 381960,
          "time": 590.1430627499999,
          "velocity": 0.5905511811023622
        },
        {
          "duration": 1.6273821729166684,
          "durationTicks": 1367,
          "midi": 74,
          "name": "D5",
          "ticks": 382080,
          "time": 590.28592,
          "velocity": 0.5905511811023622
        },
        {
          "duration": 1.6273821729166684,
          "durationTicks": 1367,
          "midi": 66,
          "name": "F#4",
          "ticks": 382080,
          "time": 590.28592,
          "velocity": 0.5905511811023622
        },
        {
          "duration": 1.6273821729166684,
          "durationTicks": 1367,
          "midi": 69,
          "name": "A4",
          "ticks": 382080,
          "time": 590.28592,
          "velocity": 0.5905511811023622
        }
      ],
      "endOfTrackTicks": 383448
    },
    {
      "channel": 0,
      "controlChanges": {},
      "pitchBends": [],
      "instrument": {
        "family": "piano",
        "name": "acoustic grand piano",
        "number": 0
      },
      "name": "unbenannt1\u0000",
      "notes": [
        {
          "duration": 0.47291666666666643,
          "durationTicks": 227,
          "midi": 62,
          "name": "D4",
          "ticks": 11520,
          "time": 24,
          "velocity": 0.5354330708661418
        },
        {
          "duration": 0.47291666666666643,
          "durationTicks": 227,
          "midi": 59,
          "name": "B3",
          "ticks": 12000,
          "time": 25,
          "velocity": 0.5354330708661418
        },
        {
          "duration": 0.47291666666666643,
          "durationTicks": 227,
          "midi": 60,
          "name": "C4",
          "ticks": 12480,
          "time": 26,
          "velocity": 0.5354330708661418
        },
        {
          "duration": 0.47291666666666643,
          "durationTicks": 227,
          "midi": 57,
          "name": "A3",
          "ticks": 12960,
          "time": 27,
          "velocity": 0.5354330708661418
        },
        {
          "duration": 0.47291666666666643,
          "durationTicks": 227,
          "midi": 58,
          "name": "A#3",
          "ticks": 13440,
          "time": 28,
          "velocity": 0.5354330708661418
        },
        {
          "duration": 0.47291666666666643,
          "durationTicks": 227,
          "midi": 56,
          "name": "G#3",
          "ticks": 13920,
          "time": 29,
          "velocity": 0.5354330708661418
        },
        {
          "duration": 0.47291666666666643,
          "durationTicks": 227,
          "midi": 57,
          "name": "A3",
          "ticks": 14400,
          "time": 30,
          "velocity": 0.5354330708661418
        },
        {
          "duration": 0.47291666666666643,
          "durationTicks": 227,
          "midi": 57,
          "name": "A3",
          "ticks": 14880,
          "time": 31,
          "velocity": 0.5354330708661418
        },
        {
          "duration": 0.47291666666667,
          "durationTicks": 227,
          "midi": 57,
          "name": "A3",
          "ticks": 15360,
          "time": 32,
          "velocity": 0.5354330708661418
        },
        {
          "duration": 0.47291666666667,
          "durationTicks": 227,
          "midi": 54,
          "name": "F#3",
          "ticks": 15840,
          "time": 33,
          "velocity": 0.5354330708661418
        },
        {
          "duration": 0.47291666666667,
          "durationTicks": 227,
          "midi": 55,
          "name": "G3",
          "ticks": 16320,
          "time": 34,
          "velocity": 0.5354330708661418
        },
        {
          "duration": 0.47291666666667,
          "durationTicks": 227,
          "midi": 52,
          "name": "E3",
          "ticks": 16800,
          "time": 35,
          "velocity": 0.5354330708661418
        },
        {
          "duration": 0.47291666666667,
          "durationTicks": 227,
          "midi": 54,
          "name": "F#3",
          "ticks": 17280,
          "time": 36,
          "velocity": 0.5354330708661418
        },
        {
          "duration": 0.15625,
          "durationTicks": 75,
          "midi": 57,
          "name": "A3",
          "ticks": 17360,
          "time": 36.166666666666664,
          "velocity": 0.5354330708661418
        },
        {
          "duration": 0.15625,
          "durationTicks": 75,
          "midi": 62,
          "name": "D4",
          "ticks": 17440,
          "time": 36.333333333333336,
          "velocity": 0.5354330708661418
        },
        {
          "duration": 0.15625,
          "durationTicks": 75,
          "midi": 59,
          "name": "B3",
          "ticks": 17520,
          "time": 36.5,
          "velocity": 0.5354330708661418
        },
        {
          "duration": 0.15625,
          "durationTicks": 75,
          "midi": 56,
          "name": "G#3",
          "ticks": 17600,
          "time": 36.666666666666664,
          "velocity": 0.5354330708661418
        },
        {
          "duration": 0.15625,
          "durationTicks": 75,
          "midi": 53,
          "name": "F3",
          "ticks": 17680,
          "time": 36.833333333333336,
          "velocity": 0.5354330708661418
        },
        {
          "duration": 0.47291666666667,
          "durationTicks": 227,
          "midi": 52,
          "name": "E3",
          "ticks": 17760,
          "time": 37,
          "velocity": 0.5354330708661418
        },
        {
          "duration": 0.15625,
          "durationTicks": 75,
          "midi": 55,
          "name": "G3",
          "ticks": 17840,
          "time": 37.166666666666664,
          "velocity": 0.5354330708661418
        },
        {
          "duration": 0.15625,
          "durationTicks": 75,
          "midi": 60,
          "name": "C4",
          "ticks": 17920,
          "time": 37.333333333333336,
          "velocity": 0.5354330708661418
        },
        {
          "duration": 0.15625,
          "durationTicks": 75,
          "midi": 57,
          "name": "A3",
          "ticks": 18000,
          "time": 37.5,
          "velocity": 0.5354330708661418
        },
        {
          "duration": 0.15625,
          "durationTicks": 75,
          "midi": 54,
          "name": "F#3",
          "ticks": 18080,
          "time": 37.666666666666664,
          "velocity": 0.5354330708661418
        },
        {
          "duration": 0.15625,
          "durationTicks": 75,
          "midi": 51,
          "name": "D#3",
          "ticks": 18160,
          "time": 37.833333333333336,
          "velocity": 0.5354330708661418
        },
        {
          "duration": 0.47291666666667,
          "durationTicks": 227,
          "midi": 50,
          "name": "D3",
          "ticks": 18240,
          "time": 38,
          "velocity": 0.5354330708661418
        },
        {
          "duration": 0.15625,
          "durationTicks": 75,
          "midi": 55,
          "name": "G3",
          "ticks": 18320,
          "time": 38.166666666666664,
          "velocity": 0.5354330708661418
        },
        {
          "duration": 0.15625,
          "durationTicks": 75,
          "midi": 58,
          "name": "A#3",
          "ticks": 18400,
          "time": 38.333333333333336,
          "velocity": 0.5354330708661418
        },
        {
          "duration": 0.15625,
          "durationTicks": 75,
          "midi": 58,
          "name": "A#3",
          "ticks": 18720,
          "time": 39,
          "velocity": 0.5354330708661418
        },
        {
          "duration": 0.15625,
          "durationTicks": 75,
          "midi": 55,
          "name": "G3",
          "ticks": 18800,
          "time": 39.166666666666664,
          "velocity": 0.5354330708661418
        },
        {
          "duration": 0.15625,
          "durationTicks": 75,
          "midi": 53,
          "name": "F3",
          "ticks": 18880,
          "time": 39.333333333333336,
          "velocity": 0.5354330708661418
        },
        {
          "duration": 0.15625,
          "durationTicks": 75,
          "midi": 51,
          "name": "D#3",
          "ticks": 18960,
          "time": 39.5,
          "velocity": 0.5354330708661418
        },
        {
          "duration": 0.15625,
          "durationTicks": 75,
          "midi": 50,
          "name": "D3",
          "ticks": 19040,
          "time": 39.666666666666664,
          "velocity": 0.5354330708661418
        },
        {
          "duration": 0.15625,
          "durationTicks": 75,
          "midi": 49,
          "name": "C#3",
          "ticks": 19120,
          "time": 39.833333333333336,
          "velocity": 0.5354330708661418
        },
        {
          "duration": 0.47291666666667,
          "durationTicks": 227,
          "midi": 50,
          "name": "D3",
          "ticks": 19200,
          "time": 40,
          "velocity": 0.5354330708661418
        },
        {
          "duration": 0.15625,
          "durationTicks": 75,
          "midi": 53,
          "name": "F3",
          "ticks": 19280,
          "time": 40.166666666666664,
          "velocity": 0.5354330708661418
        },
        {
          "duration": 0.15625,
          "durationTicks": 75,
          "midi": 58,
          "name": "A#3",
          "ticks": 19360,
          "time": 40.333333333333336,
          "velocity": 0.5354330708661418
        },
        {
          "duration": 0.15625,
          "durationTicks": 75,
          "midi": 56,
          "name": "G#3",
          "ticks": 19440,
          "time": 40.5,
          "velocity": 0.5354330708661418
        },
        {
          "duration": 0.15625,
          "durationTicks": 75,
          "midi": 53,
          "name": "F3",
          "ticks": 19520,
          "time": 40.666666666666664,
          "velocity": 0.5354330708661418
        },
        {
          "duration": 0.15625,
          "durationTicks": 75,
          "midi": 50,
          "name": "D3",
          "ticks": 19600,
          "time": 40.833333333333336,
          "velocity": 0.5354330708661418
        },
        {
          "duration": 0.47291666666667,
          "durationTicks": 227,
          "midi": 49,
          "name": "C#3",
          "ticks": 19680,
          "time": 41,
          "velocity": 0.5354330708661418
        },
        {
          "duration": 0.15625,
          "durationTicks": 75,
          "midi": 52,
          "name": "E3",
          "ticks": 19760,
          "time": 41.166666666666664,
          "velocity": 0.5354330708661418
        },
        {
          "duration": 0.15625,
          "durationTicks": 75,
          "midi": 57,
          "name": "A3",
          "ticks": 19840,
          "time": 41.333333333333336,
          "velocity": 0.5354330708661418
        },
        {
          "duration": 0.15625,
          "durationTicks": 75,
          "midi": 54,
          "name": "F#3",
          "ticks": 19920,
          "time": 41.5,
          "velocity": 0.5354330708661418
        },
        {
          "duration": 0.15625,
          "durationTicks": 75,
          "midi": 51,
          "name": "D#3",
          "ticks": 20000,
          "time": 41.666666666666664,
          "velocity": 0.5354330708661418
        },
        {
          "duration": 0.15625,
          "durationTicks": 75,
          "midi": 48,
          "name": "C3",
          "ticks": 20080,
          "time": 41.833333333333336,
          "velocity": 0.5354330708661418
        },
        {
          "duration": 0.47291666666667,
          "durationTicks": 227,
          "midi": 47,
          "name": "B2",
          "ticks": 20160,
          "time": 42,
          "velocity": 0.5354330708661418
        },
        {
          "duration": 0.15625,
          "durationTicks": 75,
          "midi": 50,
          "name": "D3",
          "ticks": 20240,
          "time": 42.166666666666664,
          "velocity": 0.5354330708661418
        },
        {
          "duration": 0.15625,
          "durationTicks": 75,
          "midi": 55,
          "name": "G3",
          "ticks": 20320,
          "time": 42.333333333333336,
          "velocity": 0.5354330708661418
        },
        {
          "duration": 0.15625,
          "durationTicks": 75,
          "midi": 52,
          "name": "E3",
          "ticks": 20400,
          "time": 42.5,
          "velocity": 0.5354330708661418
        },
        {
          "duration": 0.15625,
          "durationTicks": 75,
          "midi": 49,
          "name": "C#3",
          "ticks": 20480,
          "time": 42.666666666666664,
          "velocity": 0.5354330708661418
        },
        {
          "duration": 0.15625,
          "durationTicks": 75,
          "midi": 46,
          "name": "A#2",
          "ticks": 20560,
          "time": 42.833333333333336,
          "velocity": 0.5354330708661418
        },
        {
          "duration": 0.47291666666667,
          "durationTicks": 227,
          "midi": 45,
          "name": "A2",
          "ticks": 20640,
          "time": 43,
          "velocity": 0.5354330708661418
        },
        {
          "duration": 0.15625,
          "durationTicks": 75,
          "midi": 50,
          "name": "D3",
          "ticks": 20720,
          "time": 43.166666666666664,
          "velocity": 0.5354330708661418
        },
        {
          "duration": 0.15625,
          "durationTicks": 75,
          "midi": 53,
          "name": "F3",
          "ticks": 20800,
          "time": 43.333333333333336,
          "velocity": 0.5354330708661418
        },
        {
          "duration": 0.15625,
          "durationTicks": 75,
          "midi": 50,
          "name": "D3",
          "ticks": 20880,
          "time": 43.5,
          "velocity": 0.5354330708661418
        },
        {
          "duration": 0.15625,
          "durationTicks": 75,
          "midi": 47,
          "name": "B2",
          "ticks": 20960,
          "time": 43.666666666666664,
          "velocity": 0.5354330708661418
        },
        {
          "duration": 0.15625,
          "durationTicks": 75,
          "midi": 44,
          "name": "G#2",
          "ticks": 21040,
          "time": 43.833333333333336,
          "velocity": 0.5354330708661418
        },
        {
          "duration": 0.47291666666667,
          "durationTicks": 227,
          "midi": 43,
          "name": "G2",
          "ticks": 21120,
          "time": 44,
          "velocity": 0.5354330708661418
        },
        {
          "duration": 0.47291666666667,
          "durationTicks": 227,
          "midi": 48,
          "name": "C3",
          "ticks": 21360,
          "time": 44.5,
          "velocity": 0.5354330708661418
        },
        {
          "duration": 0.47291666666667,
          "durationTicks": 227,
          "midi": 51,
          "name": "D#3",
          "ticks": 21600,
          "time": 45,
          "velocity": 0.5354330708661418
        },
        {
          "duration": 0.47291666666667,
          "durationTicks": 227,
          "midi": 55,
          "name": "G3",
          "ticks": 21840,
          "time": 45.5,
          "velocity": 0.5354330708661418
        },
        {
          "duration": 0.47291666666667,
          "durationTicks": 227,
          "midi": 58,
          "name": "A#3",
          "ticks": 22080,
          "time": 46,
          "velocity": 0.5354330708661418
        },
        {
          "duration": 0.47291666666667,
          "durationTicks": 227,
          "midi": 61,
          "name": "C#4",
          "ticks": 22320,
          "time": 46.5,
          "velocity": 0.5354330708661418
        },
        {
          "duration": 0.47291666666667,
          "durationTicks": 227,
          "midi": 64,
          "name": "E4",
          "ticks": 22560,
          "time": 47,
          "velocity": 0.5354330708661418
        },
        {
          "duration": 0.47291666666667,
          "durationTicks": 227,
          "midi": 67,
          "name": "G4",
          "ticks": 22800,
          "time": 47.5,
          "velocity": 0.5354330708661418
        },
        {
          "duration": 0.47291666666667,
          "durationTicks": 227,
          "midi": 57,
          "name": "A3",
          "ticks": 23040,
          "time": 48,
          "velocity": 0.5354330708661418
        },
        {
          "duration": 0.47291666666667,
          "durationTicks": 227,
          "midi": 67,
          "name": "G4",
          "ticks": 23520,
          "time": 49,
          "velocity": 0.5354330708661418
        },
        {
          "duration": 0.47291666666667,
          "durationTicks": 227,
          "midi": 57,
          "name": "A3",
          "ticks": 24000,
          "time": 50,
          "velocity": 0.5354330708661418
        },
        {
          "duration": 0.47291666666667,
          "durationTicks": 227,
          "midi": 67,
          "name": "G4",
          "ticks": 24480,
          "time": 51,
          "velocity": 0.5354330708661418
        },
        {
          "duration": 0.47291666666667,
          "durationTicks": 227,
          "midi": 65,
          "name": "F4",
          "ticks": 24960,
          "time": 52,
          "velocity": 0.5354330708661418
        },
        {
          "duration": 0.47291666666667,
          "durationTicks": 227,
          "midi": 69,
          "name": "A4",
          "ticks": 25440,
          "time": 53,
          "velocity": 0.5354330708661418
        },
        {
          "duration": 0.15625,
          "durationTicks": 75,
          "midi": 62,
          "name": "D4",
          "ticks": 26640,
          "time": 55.5,
          "velocity": 0.5354330708661418
        },
        {
          "duration": 0.15625,
          "durationTicks": 75,
          "midi": 61,
          "name": "C#4",
          "ticks": 26720,
          "time": 55.666666666666664,
          "velocity": 0.5354330708661418
        },
        {
          "duration": 0.15625,
          "durationTicks": 75,
          "midi": 58,
          "name": "A#3",
          "ticks": 26800,
          "time": 55.833333333333336,
          "velocity": 0.5354330708661418
        },
        {
          "duration": 0.47291666666667,
          "durationTicks": 227,
          "midi": 57,
          "name": "A3",
          "ticks": 26880,
          "time": 56,
          "velocity": 0.5354330708661418
        },
        {
          "duration": 0.47291666666667,
          "durationTicks": 227,
          "midi": 61,
          "name": "C#4",
          "ticks": 27360,
          "time": 57,
          "velocity": 0.5354330708661418
        },
        {
          "duration": 0.47291666666667,
          "durationTicks": 227,
          "midi": 57,
          "name": "A3",
          "ticks": 27840,
          "time": 58,
          "velocity": 0.5354330708661418
        },
        {
          "duration": 0.47291666666667,
          "durationTicks": 227,
          "midi": 61,
          "name": "C#4",
          "ticks": 28320,
          "time": 59,
          "velocity": 0.5354330708661418
        },
        {
          "duration": 0.47291666666667,
          "durationTicks": 227,
          "midi": 57,
          "name": "A3",
          "ticks": 28800,
          "time": 60,
          "velocity": 0.5354330708661418
        },
        {
          "duration": 0.47291666666667,
          "durationTicks": 227,
          "midi": 62,
          "name": "D4",
          "ticks": 29280,
          "time": 61,
          "velocity": 0.5354330708661418
        },
        {
          "duration": 0.47291666666667,
          "durationTicks": 227,
          "midi": 65,
          "name": "F4",
          "ticks": 29760,
          "time": 62,
          "velocity": 0.5354330708661418
        },
        {
          "duration": 0.47291666666667,
          "durationTicks": 227,
          "midi": 69,
          "name": "A4",
          "ticks": 30240,
          "time": 63,
          "velocity": 0.5354330708661418
        },
        {
          "duration": 0.15625,
          "durationTicks": 75,
          "midi": 55,
          "name": "G3",
          "ticks": 33120,
          "time": 69,
          "velocity": 0.5354330708661418
        },
        {
          "duration": 0.15625,
          "durationTicks": 75,
          "midi": 53,
          "name": "F3",
          "ticks": 33200,
          "time": 69.16666666666667,
          "velocity": 0.5354330708661418
        },
        {
          "duration": 0.15625,
          "durationTicks": 75,
          "midi": 52,
          "name": "E3",
          "ticks": 33280,
          "time": 69.33333333333333,
          "velocity": 0.5354330708661418
        },
        {
          "duration": 0.15625,
          "durationTicks": 75,
          "midi": 50,
          "name": "D3",
          "ticks": 33360,
          "time": 69.5,
          "velocity": 0.5354330708661418
        },
        {
          "duration": 0.15625,
          "durationTicks": 75,
          "midi": 49,
          "name": "C#3",
          "ticks": 33440,
          "time": 69.66666666666667,
          "velocity": 0.5354330708661418
        },
        {
          "duration": 0.15625,
          "durationTicks": 75,
          "midi": 52,
          "name": "E3",
          "ticks": 33520,
          "time": 69.83333333333333,
          "velocity": 0.5354330708661418
        },
        {
          "duration": 0.23541666666666572,
          "durationTicks": 113,
          "midi": 45,
          "name": "A2",
          "ticks": 33600,
          "time": 70,
          "velocity": 0.5354330708661418
        },
        {
          "duration": 0.15625,
          "durationTicks": 75,
          "midi": 53,
          "name": "F3",
          "ticks": 34160,
          "time": 71.16666666666667,
          "velocity": 0.5354330708661418
        },
        {
          "duration": 0.15625,
          "durationTicks": 75,
          "midi": 52,
          "name": "E3",
          "ticks": 34240,
          "time": 71.33333333333333,
          "velocity": 0.5354330708661418
        },
        {
          "duration": 0.15625,
          "durationTicks": 75,
          "midi": 50,
          "name": "D3",
          "ticks": 34320,
          "time": 71.5,
          "velocity": 0.5354330708661418
        },
        {
          "duration": 0.15625,
          "durationTicks": 75,
          "midi": 49,
          "name": "C#3",
          "ticks": 34400,
          "time": 71.66666666666667,
          "velocity": 0.5354330708661418
        },
        {
          "duration": 0.15625,
          "durationTicks": 75,
          "midi": 52,
          "name": "E3",
          "ticks": 34480,
          "time": 71.83333333333333,
          "velocity": 0.5354330708661418
        },
        {
          "duration": 0.23541666666666572,
          "durationTicks": 113,
          "midi": 45,
          "name": "A2",
          "ticks": 34560,
          "time": 72,
          "velocity": 0.5354330708661418
        },
        {
          "duration": 0.15625,
          "durationTicks": 75,
          "midi": 52,
          "name": "E3",
          "ticks": 37920,
          "time": 79,
          "velocity": 0.5354330708661418
        },
        {
          "duration": 0.15625,
          "durationTicks": 75,
          "midi": 49,
          "name": "C#3",
          "ticks": 38000,
          "time": 79.16666666666667,
          "velocity": 0.5354330708661418
        },
        {
          "duration": 0.15625,
          "durationTicks": 75,
          "midi": 45,
          "name": "A2",
          "ticks": 38080,
          "time": 79.33333333333333,
          "velocity": 0.5354330708661418
        },
        {
          "duration": 0.11666666666666003,
          "durationTicks": 56,
          "midi": 58,
          "name": "A#3",
          "ticks": 41280,
          "time": 86,
          "velocity": 0.5354330708661418
        },
        {
          "duration": 0.11666666666666003,
          "durationTicks": 56,
          "midi": 57,
          "name": "A3",
          "ticks": 41340,
          "time": 86.125,
          "velocity": 0.5354330708661418
        },
        {
          "duration": 0.11666666666666003,
          "durationTicks": 56,
          "midi": 55,
          "name": "G3",
          "ticks": 41400,
          "time": 86.25,
          "velocity": 0.5354330708661418
        },
        {
          "duration": 0.11666666666666003,
          "durationTicks": 56,
          "midi": 53,
          "name": "F3",
          "ticks": 41460,
          "time": 86.375,
          "velocity": 0.5354330708661418
        },
        {
          "duration": 0.11666666666666003,
          "durationTicks": 56,
          "midi": 52,
          "name": "E3",
          "ticks": 41520,
          "time": 86.5,
          "velocity": 0.5354330708661418
        },
        {
          "duration": 0.11666666666666003,
          "durationTicks": 56,
          "midi": 53,
          "name": "F3",
          "ticks": 41580,
          "time": 86.625,
          "velocity": 0.5354330708661418
        },
        {
          "duration": 0.11666666666666003,
          "durationTicks": 56,
          "midi": 55,
          "name": "G3",
          "ticks": 41640,
          "time": 86.75,
          "velocity": 0.5354330708661418
        },
        {
          "duration": 0.11666666666666003,
          "durationTicks": 56,
          "midi": 53,
          "name": "F3",
          "ticks": 41700,
          "time": 86.875,
          "velocity": 0.5354330708661418
        },
        {
          "duration": 0.11666666666666003,
          "durationTicks": 56,
          "midi": 52,
          "name": "E3",
          "ticks": 41760,
          "time": 87,
          "velocity": 0.5354330708661418
        },
        {
          "duration": 0.11666666666666003,
          "durationTicks": 56,
          "midi": 50,
          "name": "D3",
          "ticks": 41820,
          "time": 87.125,
          "velocity": 0.5354330708661418
        },
        {
          "duration": 0.11666666666666003,
          "durationTicks": 56,
          "midi": 49,
          "name": "C#3",
          "ticks": 41880,
          "time": 87.25,
          "velocity": 0.5354330708661418
        },
        {
          "duration": 0.11666666666666003,
          "durationTicks": 56,
          "midi": 50,
          "name": "D3",
          "ticks": 41940,
          "time": 87.375,
          "velocity": 0.5354330708661418
        },
        {
          "duration": 0.11666666666666003,
          "durationTicks": 56,
          "midi": 52,
          "name": "E3",
          "ticks": 42000,
          "time": 87.5,
          "velocity": 0.5354330708661418
        },
        {
          "duration": 0.11666666666666003,
          "durationTicks": 56,
          "midi": 50,
          "name": "D3",
          "ticks": 42060,
          "time": 87.625,
          "velocity": 0.5354330708661418
        },
        {
          "duration": 0.11666666666666003,
          "durationTicks": 56,
          "midi": 49,
          "name": "C#3",
          "ticks": 42120,
          "time": 87.75,
          "velocity": 0.5354330708661418
        },
        {
          "duration": 0.11666666666666003,
          "durationTicks": 56,
          "midi": 47,
          "name": "B2",
          "ticks": 42180,
          "time": 87.875,
          "velocity": 0.5354330708661418
        },
        {
          "duration": 0.11666666666666003,
          "durationTicks": 56,
          "midi": 45,
          "name": "A2",
          "ticks": 42240,
          "time": 88,
          "velocity": 0.5354330708661418
        },
        {
          "duration": 0.11666666666666003,
          "durationTicks": 56,
          "midi": 47,
          "name": "B2",
          "ticks": 42300,
          "time": 88.125,
          "velocity": 0.5354330708661418
        },
        {
          "duration": 0.11666666666666003,
          "durationTicks": 56,
          "midi": 49,
          "name": "C#3",
          "ticks": 42360,
          "time": 88.25,
          "velocity": 0.5354330708661418
        },
        {
          "duration": 0.11666666666666003,
          "durationTicks": 56,
          "midi": 50,
          "name": "D3",
          "ticks": 42420,
          "time": 88.375,
          "velocity": 0.5354330708661418
        },
        {
          "duration": 0.11666666666666003,
          "durationTicks": 56,
          "midi": 52,
          "name": "E3",
          "ticks": 42480,
          "time": 88.5,
          "velocity": 0.5354330708661418
        },
        {
          "duration": 0.11666666666666003,
          "durationTicks": 56,
          "midi": 53,
          "name": "F3",
          "ticks": 42540,
          "time": 88.625,
          "velocity": 0.5354330708661418
        },
        {
          "duration": 0.11666666666666003,
          "durationTicks": 56,
          "midi": 55,
          "name": "G3",
          "ticks": 42600,
          "time": 88.75,
          "velocity": 0.5354330708661418
        },
        {
          "duration": 0.11666666666666003,
          "durationTicks": 56,
          "midi": 53,
          "name": "F3",
          "ticks": 42660,
          "time": 88.875,
          "velocity": 0.5354330708661418
        },
        {
          "duration": 0.11666666666666003,
          "durationTicks": 56,
          "midi": 52,
          "name": "E3",
          "ticks": 42720,
          "time": 89,
          "velocity": 0.5354330708661418
        },
        {
          "duration": 0.11666666666666003,
          "durationTicks": 56,
          "midi": 55,
          "name": "G3",
          "ticks": 42780,
          "time": 89.125,
          "velocity": 0.5354330708661418
        },
        {
          "duration": 0.11666666666666003,
          "durationTicks": 56,
          "midi": 53,
          "name": "F3",
          "ticks": 42840,
          "time": 89.25,
          "velocity": 0.5354330708661418
        },
        {
          "duration": 0.11666666666666003,
          "durationTicks": 56,
          "midi": 52,
          "name": "E3",
          "ticks": 42900,
          "time": 89.375,
          "velocity": 0.5354330708661418
        },
        {
          "duration": 0.11666666666666003,
          "durationTicks": 56,
          "midi": 50,
          "name": "D3",
          "ticks": 42960,
          "time": 89.5,
          "velocity": 0.5354330708661418
        },
        {
          "duration": 0.11666666666666003,
          "durationTicks": 56,
          "midi": 49,
          "name": "C#3",
          "ticks": 43020,
          "time": 89.625,
          "velocity": 0.5354330708661418
        },
        {
          "duration": 0.11666666666666003,
          "durationTicks": 56,
          "midi": 47,
          "name": "B2",
          "ticks": 43080,
          "time": 89.75,
          "velocity": 0.5354330708661418
        },
        {
          "duration": 0.11666666666666003,
          "durationTicks": 56,
          "midi": 45,
          "name": "A2",
          "ticks": 43140,
          "time": 89.875,
          "velocity": 0.5354330708661418
        },
        {
          "duration": 0.11666666666666003,
          "durationTicks": 56,
          "midi": 47,
          "name": "B2",
          "ticks": 43200,
          "time": 90,
          "velocity": 0.5354330708661418
        },
        {
          "duration": 0.11666666666666003,
          "durationTicks": 56,
          "midi": 49,
          "name": "C#3",
          "ticks": 43260,
          "time": 90.125,
          "velocity": 0.5354330708661418
        },
        {
          "duration": 0.11666666666666003,
          "durationTicks": 56,
          "midi": 50,
          "name": "D3",
          "ticks": 43320,
          "time": 90.25,
          "velocity": 0.5354330708661418
        },
        {
          "duration": 0.11666666666666003,
          "durationTicks": 56,
          "midi": 52,
          "name": "E3",
          "ticks": 43380,
          "time": 90.375,
          "velocity": 0.5354330708661418
        },
        {
          "duration": 0.11666666666666003,
          "durationTicks": 56,
          "midi": 53,
          "name": "F3",
          "ticks": 43440,
          "time": 90.5,
          "velocity": 0.5354330708661418
        },
        {
          "duration": 0.11666666666666003,
          "durationTicks": 56,
          "midi": 55,
          "name": "G3",
          "ticks": 43500,
          "time": 90.625,
          "velocity": 0.5354330708661418
        },
        {
          "duration": 0.11666666666666003,
          "durationTicks": 56,
          "midi": 57,
          "name": "A3",
          "ticks": 43560,
          "time": 90.75,
          "velocity": 0.5354330708661418
        },
        {
          "duration": 0.11666666666666003,
          "durationTicks": 56,
          "midi": 58,
          "name": "A#3",
          "ticks": 43620,
          "time": 90.875,
          "velocity": 0.5354330708661418
        },
        {
          "duration": 0.11666666666666003,
          "durationTicks": 56,
          "midi": 57,
          "name": "A3",
          "ticks": 43680,
          "time": 91,
          "velocity": 0.5354330708661418
        },
        {
          "duration": 0.11666666666666003,
          "durationTicks": 56,
          "midi": 55,
          "name": "G3",
          "ticks": 43740,
          "time": 91.125,
          "velocity": 0.5354330708661418
        },
        {
          "duration": 0.11666666666666003,
          "durationTicks": 56,
          "midi": 53,
          "name": "F3",
          "ticks": 43800,
          "time": 91.25,
          "velocity": 0.5354330708661418
        },
        {
          "duration": 0.11666666666666003,
          "durationTicks": 56,
          "midi": 57,
          "name": "A3",
          "ticks": 43860,
          "time": 91.375,
          "velocity": 0.5354330708661418
        },
        {
          "duration": 0.11666666666666003,
          "durationTicks": 56,
          "midi": 55,
          "name": "G3",
          "ticks": 43920,
          "time": 91.5,
          "velocity": 0.5354330708661418
        },
        {
          "duration": 0.11666666666666003,
          "durationTicks": 56,
          "midi": 53,
          "name": "F3",
          "ticks": 43980,
          "time": 91.625,
          "velocity": 0.5354330708661418
        },
        {
          "duration": 0.11666666666666003,
          "durationTicks": 56,
          "midi": 52,
          "name": "E3",
          "ticks": 44040,
          "time": 91.75,
          "velocity": 0.5354330708661418
        },
        {
          "duration": 0.11666666666666003,
          "durationTicks": 56,
          "midi": 50,
          "name": "D3",
          "ticks": 44100,
          "time": 91.875,
          "velocity": 0.5354330708661418
        },
        {
          "duration": 0.11666666666666003,
          "durationTicks": 56,
          "midi": 49,
          "name": "C#3",
          "ticks": 44160,
          "time": 92,
          "velocity": 0.5354330708661418
        },
        {
          "duration": 0.11666666666666003,
          "durationTicks": 56,
          "midi": 50,
          "name": "D3",
          "ticks": 44220,
          "time": 92.125,
          "velocity": 0.5354330708661418
        },
        {
          "duration": 0.11666666666666003,
          "durationTicks": 56,
          "midi": 52,
          "name": "E3",
          "ticks": 44280,
          "time": 92.25,
          "velocity": 0.5354330708661418
        },
        {
          "duration": 0.11666666666666003,
          "durationTicks": 56,
          "midi": 53,
          "name": "F3",
          "ticks": 44340,
          "time": 92.375,
          "velocity": 0.5354330708661418
        },
        {
          "duration": 0.11666666666666003,
          "durationTicks": 56,
          "midi": 55,
          "name": "G3",
          "ticks": 44400,
          "time": 92.5,
          "velocity": 0.5354330708661418
        },
        {
          "duration": 0.11666666666666003,
          "durationTicks": 56,
          "midi": 57,
          "name": "A3",
          "ticks": 44460,
          "time": 92.625,
          "velocity": 0.5354330708661418
        },
        {
          "duration": 0.11666666666666003,
          "durationTicks": 56,
          "midi": 58,
          "name": "A#3",
          "ticks": 44520,
          "time": 92.75,
          "velocity": 0.5354330708661418
        },
        {
          "duration": 0.11666666666666003,
          "durationTicks": 56,
          "midi": 57,
          "name": "A3",
          "ticks": 44580,
          "time": 92.875,
          "velocity": 0.5354330708661418
        },
        {
          "duration": 0.11666666666666003,
          "durationTicks": 56,
          "midi": 55,
          "name": "G3",
          "ticks": 44640,
          "time": 93,
          "velocity": 0.5354330708661418
        },
        {
          "duration": 0.11666666666666003,
          "durationTicks": 56,
          "midi": 57,
          "name": "A3",
          "ticks": 44700,
          "time": 93.125,
          "velocity": 0.5354330708661418
        },
        {
          "duration": 0.11666666666666003,
          "durationTicks": 56,
          "midi": 59,
          "name": "B3",
          "ticks": 44760,
          "time": 93.25,
          "velocity": 0.5354330708661418
        },
        {
          "duration": 0.11666666666666003,
          "durationTicks": 56,
          "midi": 61,
          "name": "C#4",
          "ticks": 44820,
          "time": 93.375,
          "velocity": 0.5354330708661418
        },
        {
          "duration": 0.11666666666666003,
          "durationTicks": 56,
          "midi": 62,
          "name": "D4",
          "ticks": 44880,
          "time": 93.5,
          "velocity": 0.5354330708661418
        },
        {
          "duration": 0.11666666666666003,
          "durationTicks": 56,
          "midi": 64,
          "name": "E4",
          "ticks": 44940,
          "time": 93.625,
          "velocity": 0.5354330708661418
        },
        {
          "duration": 0.11666666666666003,
          "durationTicks": 56,
          "midi": 65,
          "name": "F4",
          "ticks": 45000,
          "time": 93.75,
          "velocity": 0.5354330708661418
        },
        {
          "duration": 0.11666666666666003,
          "durationTicks": 56,
          "midi": 67,
          "name": "G4",
          "ticks": 45060,
          "time": 93.875,
          "velocity": 0.5354330708661418
        },
        {
          "duration": 0.11666666666666003,
          "durationTicks": 56,
          "midi": 53,
          "name": "F3",
          "ticks": 45600,
          "time": 95,
          "velocity": 0.5354330708661418
        },
        {
          "duration": 0.11666666666666003,
          "durationTicks": 56,
          "midi": 55,
          "name": "G3",
          "ticks": 45660,
          "time": 95.125,
          "velocity": 0.5354330708661418
        },
        {
          "duration": 0.11666666666666003,
          "durationTicks": 56,
          "midi": 57,
          "name": "A3",
          "ticks": 45720,
          "time": 95.25,
          "velocity": 0.5354330708661418
        },
        {
          "duration": 0.11666666666666003,
          "durationTicks": 56,
          "midi": 53,
          "name": "F3",
          "ticks": 45780,
          "time": 95.375,
          "velocity": 0.5354330708661418
        },
        {
          "duration": 0.11666666666666003,
          "durationTicks": 56,
          "midi": 50,
          "name": "D3",
          "ticks": 45840,
          "time": 95.5,
          "velocity": 0.5354330708661418
        },
        {
          "duration": 0.11666666666666003,
          "durationTicks": 56,
          "midi": 53,
          "name": "F3",
          "ticks": 45900,
          "time": 95.625,
          "velocity": 0.5354330708661418
        },
        {
          "duration": 0.11666666666666003,
          "durationTicks": 56,
          "midi": 52,
          "name": "E3",
          "ticks": 45960,
          "time": 95.75,
          "velocity": 0.5354330708661418
        },
        {
          "duration": 0.11666666666666003,
          "durationTicks": 56,
          "midi": 50,
          "name": "D3",
          "ticks": 46020,
          "time": 95.875,
          "velocity": 0.5354330708661418
        },
        {
          "duration": 0.11666666666666003,
          "durationTicks": 56,
          "midi": 56,
          "name": "G#3",
          "ticks": 46080,
          "time": 96,
          "velocity": 0.5354330708661418
        },
        {
          "duration": 0.11666666666666003,
          "durationTicks": 56,
          "midi": 54,
          "name": "F#3",
          "ticks": 46140,
          "time": 96.125,
          "velocity": 0.5354330708661418
        },
        {
          "duration": 0.11666666666666003,
          "durationTicks": 56,
          "midi": 52,
          "name": "E3",
          "ticks": 46200,
          "time": 96.25,
          "velocity": 0.5354330708661418
        },
        {
          "duration": 0.11666666666666003,
          "durationTicks": 56,
          "midi": 59,
          "name": "B3",
          "ticks": 46260,
          "time": 96.375,
          "velocity": 0.5354330708661418
        },
        {
          "duration": 0.11666666666666003,
          "durationTicks": 56,
          "midi": 57,
          "name": "A3",
          "ticks": 46320,
          "time": 96.5,
          "velocity": 0.5354330708661418
        },
        {
          "duration": 0.11666666666666003,
          "durationTicks": 56,
          "midi": 56,
          "name": "G#3",
          "ticks": 46380,
          "time": 96.625,
          "velocity": 0.5354330708661418
        },
        {
          "duration": 0.11666666666666003,
          "durationTicks": 56,
          "midi": 62,
          "name": "D4",
          "ticks": 46440,
          "time": 96.75,
          "velocity": 0.5354330708661418
        },
        {
          "duration": 0.11666666666666003,
          "durationTicks": 56,
          "midi": 60,
          "name": "C4",
          "ticks": 46500,
          "time": 96.875,
          "velocity": 0.5354330708661418
        },
        {
          "duration": 0.11666666666666003,
          "durationTicks": 56,
          "midi": 59,
          "name": "B3",
          "ticks": 46560,
          "time": 97,
          "velocity": 0.5354330708661418
        },
        {
          "duration": 0.11666666666666003,
          "durationTicks": 56,
          "midi": 66,
          "name": "F#4",
          "ticks": 46620,
          "time": 97.125,
          "velocity": 0.5354330708661418
        },
        {
          "duration": 0.11666666666666003,
          "durationTicks": 56,
          "midi": 64,
          "name": "E4",
          "ticks": 46680,
          "time": 97.25,
          "velocity": 0.5354330708661418
        },
        {
          "duration": 0.11666666666666003,
          "durationTicks": 56,
          "midi": 62,
          "name": "D4",
          "ticks": 46740,
          "time": 97.375,
          "velocity": 0.5354330708661418
        },
        {
          "duration": 0.11666666666666003,
          "durationTicks": 56,
          "midi": 68,
          "name": "G#4",
          "ticks": 46800,
          "time": 97.5,
          "velocity": 0.5354330708661418
        },
        {
          "duration": 0.11666666666666003,
          "durationTicks": 56,
          "midi": 65,
          "name": "F4",
          "ticks": 46860,
          "time": 97.625,
          "velocity": 0.5354330708661418
        },
        {
          "duration": 0.11666666666666003,
          "durationTicks": 56,
          "midi": 64,
          "name": "E4",
          "ticks": 46920,
          "time": 97.75,
          "velocity": 0.5354330708661418
        },
        {
          "duration": 0.11666666666666003,
          "durationTicks": 56,
          "midi": 71,
          "name": "B4",
          "ticks": 46980,
          "time": 97.875,
          "velocity": 0.5354330708661418
        },
        {
          "duration": 0.15625,
          "durationTicks": 75,
          "midi": 50,
          "name": "D3",
          "ticks": 49920,
          "time": 104,
          "velocity": 0.5354330708661418
        },
        {
          "duration": 0.15625,
          "durationTicks": 75,
          "midi": 53,
          "name": "F3",
          "ticks": 50000,
          "time": 104.16666666666667,
          "velocity": 0.5354330708661418
        },
        {
          "duration": 0.15625,
          "durationTicks": 75,
          "midi": 57,
          "name": "A3",
          "ticks": 50080,
          "time": 104.33333333333333,
          "velocity": 0.5354330708661418
        },
        {
          "duration": 0.15625,
          "durationTicks": 75,
          "midi": 62,
          "name": "D4",
          "ticks": 50160,
          "time": 104.5,
          "velocity": 0.5354330708661418
        },
        {
          "duration": 0.15625,
          "durationTicks": 75,
          "midi": 65,
          "name": "F4",
          "ticks": 50240,
          "time": 104.66666666666667,
          "velocity": 0.5354330708661418
        },
        {
          "duration": 0.15625,
          "durationTicks": 75,
          "midi": 69,
          "name": "A4",
          "ticks": 50320,
          "time": 104.83333333333333,
          "velocity": 0.5354330708661418
        },
        {
          "duration": 0.15625,
          "durationTicks": 75,
          "midi": 74,
          "name": "D5",
          "ticks": 50400,
          "time": 105,
          "velocity": 0.5354330708661418
        },
        {
          "duration": 0.15625,
          "durationTicks": 75,
          "midi": 69,
          "name": "A4",
          "ticks": 50480,
          "time": 105.16666666666667,
          "velocity": 0.5354330708661418
        },
        {
          "duration": 0.15625,
          "durationTicks": 75,
          "midi": 65,
          "name": "F4",
          "ticks": 50560,
          "time": 105.33333333333333,
          "velocity": 0.5354330708661418
        },
        {
          "duration": 0.15625,
          "durationTicks": 75,
          "midi": 62,
          "name": "D4",
          "ticks": 50640,
          "time": 105.5,
          "velocity": 0.5354330708661418
        },
        {
          "duration": 0.15625,
          "durationTicks": 75,
          "midi": 57,
          "name": "A3",
          "ticks": 50720,
          "time": 105.66666666666667,
          "velocity": 0.5354330708661418
        },
        {
          "duration": 0.15625,
          "durationTicks": 75,
          "midi": 53,
          "name": "F3",
          "ticks": 50800,
          "time": 105.83333333333333,
          "velocity": 0.5354330708661418
        },
        {
          "duration": 1.9979166666666686,
          "durationTicks": 959,
          "midi": 50,
          "name": "D3",
          "ticks": 50880,
          "time": 106,
          "velocity": 0.5354330708661418
        },
        {
          "duration": 1.9312500000000057,
          "durationTicks": 927,
          "midi": 52,
          "name": "E3",
          "ticks": 50911,
          "time": 106.06458333333333,
          "velocity": 0.5354330708661418
        },
        {
          "duration": 1.8645833333333428,
          "durationTicks": 895,
          "midi": 55,
          "name": "G3",
          "ticks": 50943,
          "time": 106.13125,
          "velocity": 0.5354330708661418
        },
        {
          "duration": 1.7979166666666657,
          "durationTicks": 863,
          "midi": 61,
          "name": "C#4",
          "ticks": 50976,
          "time": 106.2,
          "velocity": 0.5354330708661418
        },
        {
          "duration": 1.9979166666666686,
          "durationTicks": 959,
          "midi": 50,
          "name": "D3",
          "ticks": 51840,
          "time": 108,
          "velocity": 0.5354330708661418
        },
        {
          "duration": 1.9312500000000057,
          "durationTicks": 927,
          "midi": 53,
          "name": "F3",
          "ticks": 51871,
          "time": 108.06458333333333,
          "velocity": 0.5354330708661418
        },
        {
          "duration": 1.8645833333333428,
          "durationTicks": 895,
          "midi": 57,
          "name": "A3",
          "ticks": 51903,
          "time": 108.13125,
          "velocity": 0.5354330708661418
        },
        {
          "duration": 1.7979166666666657,
          "durationTicks": 863,
          "midi": 62,
          "name": "D4",
          "ticks": 51936,
          "time": 108.2,
          "velocity": 0.5354330708661418
        },
        {
          "duration": 1.9979166666666686,
          "durationTicks": 959,
          "midi": 50,
          "name": "D3",
          "ticks": 52800,
          "time": 110,
          "velocity": 0.5354330708661418
        },
        {
          "duration": 1.9312500000000057,
          "durationTicks": 927,
          "midi": 54,
          "name": "F#3",
          "ticks": 52831,
          "time": 110.06458333333333,
          "velocity": 0.5354330708661418
        },
        {
          "duration": 1.8645833333333428,
          "durationTicks": 895,
          "midi": 57,
          "name": "A3",
          "ticks": 52863,
          "time": 110.13125,
          "velocity": 0.5354330708661418
        },
        {
          "duration": 1.7979166666666657,
          "durationTicks": 863,
          "midi": 60,
          "name": "C4",
          "ticks": 52896,
          "time": 110.2,
          "velocity": 0.5354330708661418
        },
        {
          "duration": 1.9979166666666686,
          "durationTicks": 959,
          "midi": 50,
          "name": "D3",
          "ticks": 53760,
          "time": 112,
          "velocity": 0.5354330708661418
        },
        {
          "duration": 1.9312500000000057,
          "durationTicks": 927,
          "midi": 55,
          "name": "G3",
          "ticks": 53791,
          "time": 112.06458333333333,
          "velocity": 0.5354330708661418
        },
        {
          "duration": 1.8645833333333428,
          "durationTicks": 895,
          "midi": 58,
          "name": "A#3",
          "ticks": 53823,
          "time": 112.13125,
          "velocity": 0.5354330708661418
        },
        {
          "duration": 1.7979166666666657,
          "durationTicks": 863,
          "midi": 62,
          "name": "D4",
          "ticks": 53856,
          "time": 112.2,
          "velocity": 0.5354330708661418
        },
        {
          "duration": 1.9979166666666686,
          "durationTicks": 959,
          "midi": 50,
          "name": "D3",
          "ticks": 54720,
          "time": 114,
          "velocity": 0.5354330708661418
        },
        {
          "duration": 1.9312500000000057,
          "durationTicks": 927,
          "midi": 53,
          "name": "F3",
          "ticks": 54751,
          "time": 114.06458333333333,
          "velocity": 0.5354330708661418
        },
        {
          "duration": 1.8645833333333428,
          "durationTicks": 895,
          "midi": 56,
          "name": "G#3",
          "ticks": 54783,
          "time": 114.13125,
          "velocity": 0.5354330708661418
        },
        {
          "duration": 1.7979166666666657,
          "durationTicks": 863,
          "midi": 59,
          "name": "B3",
          "ticks": 54816,
          "time": 114.2,
          "velocity": 0.5354330708661418
        },
        {
          "duration": 1.9979166666666686,
          "durationTicks": 959,
          "midi": 49,
          "name": "C#3",
          "ticks": 55680,
          "time": 116,
          "velocity": 0.5354330708661418
        },
        {
          "duration": 1.9312500000000057,
          "durationTicks": 927,
          "midi": 52,
          "name": "E3",
          "ticks": 55711,
          "time": 116.06458333333333,
          "velocity": 0.5354330708661418
        },
        {
          "duration": 1.8645833333333428,
          "durationTicks": 895,
          "midi": 57,
          "name": "A3",
          "ticks": 55743,
          "time": 116.13125,
          "velocity": 0.5354330708661418
        },
        {
          "duration": 1.89791666666666,
          "durationTicks": 911,
          "midi": 49,
          "name": "C#3",
          "ticks": 56640,
          "time": 118,
          "velocity": 0.5354330708661418
        },
        {
          "duration": 1.89791666666666,
          "durationTicks": 911,
          "midi": 52,
          "name": "E3",
          "ticks": 56640,
          "time": 118,
          "velocity": 0.5354330708661418
        },
        {
          "duration": 1.89791666666666,
          "durationTicks": 911,
          "midi": 43,
          "name": "G2",
          "ticks": 56640,
          "time": 118,
          "velocity": 0.5354330708661418
        },
        {
          "duration": 0.11666666666666003,
          "durationTicks": 56,
          "midi": 55,
          "name": "G3",
          "ticks": 59040,
          "time": 123,
          "velocity": 0.5354330708661418
        },
        {
          "duration": 0.11666666666666003,
          "durationTicks": 56,
          "midi": 57,
          "name": "A3",
          "ticks": 59100,
          "time": 123.125,
          "velocity": 0.5354330708661418
        },
        {
          "duration": 0.11666666666666003,
          "durationTicks": 56,
          "midi": 58,
          "name": "A#3",
          "ticks": 59160,
          "time": 123.25,
          "velocity": 0.5354330708661418
        },
        {
          "duration": 0.11666666666666003,
          "durationTicks": 56,
          "midi": 55,
          "name": "G3",
          "ticks": 59220,
          "time": 123.375,
          "velocity": 0.5354330708661418
        },
        {
          "duration": 0.11666666666666003,
          "durationTicks": 56,
          "midi": 52,
          "name": "E3",
          "ticks": 59280,
          "time": 123.5,
          "velocity": 0.5354330708661418
        },
        {
          "duration": 0.11666666666666003,
          "durationTicks": 56,
          "midi": 53,
          "name": "F3",
          "ticks": 59340,
          "time": 123.625,
          "velocity": 0.5354330708661418
        },
        {
          "duration": 0.11666666666666003,
          "durationTicks": 56,
          "midi": 55,
          "name": "G3",
          "ticks": 59400,
          "time": 123.75,
          "velocity": 0.5354330708661418
        },
        {
          "duration": 0.11666666666666003,
          "durationTicks": 56,
          "midi": 52,
          "name": "E3",
          "ticks": 59460,
          "time": 123.875,
          "velocity": 0.5354330708661418
        },
        {
          "duration": 0.11666666666666003,
          "durationTicks": 56,
          "midi": 49,
          "name": "C#3",
          "ticks": 59520,
          "time": 124,
          "velocity": 0.5354330708661418
        },
        {
          "duration": 0.11666666666666003,
          "durationTicks": 56,
          "midi": 50,
          "name": "D3",
          "ticks": 59580,
          "time": 124.125,
          "velocity": 0.5354330708661418
        },
        {
          "duration": 0.11666666666666003,
          "durationTicks": 56,
          "midi": 52,
          "name": "E3",
          "ticks": 59640,
          "time": 124.25,
          "velocity": 0.5354330708661418
        },
        {
          "duration": 0.11666666666666003,
          "durationTicks": 56,
          "midi": 49,
          "name": "C#3",
          "ticks": 59700,
          "time": 124.375,
          "velocity": 0.5354330708661418
        },
        {
          "duration": 0.11666666666666003,
          "durationTicks": 56,
          "midi": 45,
          "name": "A2",
          "ticks": 59760,
          "time": 124.5,
          "velocity": 0.5354330708661418
        },
        {
          "duration": 0.11666666666666003,
          "durationTicks": 56,
          "midi": 47,
          "name": "B2",
          "ticks": 59820,
          "time": 124.625,
          "velocity": 0.5354330708661418
        },
        {
          "duration": 0.11666666666666003,
          "durationTicks": 56,
          "midi": 49,
          "name": "C#3",
          "ticks": 59880,
          "time": 124.75,
          "velocity": 0.5354330708661418
        },
        {
          "duration": 0.11666666666666003,
          "durationTicks": 56,
          "midi": 50,
          "name": "D3",
          "ticks": 59940,
          "time": 124.875,
          "velocity": 0.5354330708661418
        },
        {
          "duration": 0.11666666666666003,
          "durationTicks": 56,
          "midi": 52,
          "name": "E3",
          "ticks": 60000,
          "time": 125,
          "velocity": 0.5354330708661418
        },
        {
          "duration": 0.11666666666666003,
          "durationTicks": 56,
          "midi": 53,
          "name": "F3",
          "ticks": 60060,
          "time": 125.125,
          "velocity": 0.5354330708661418
        },
        {
          "duration": 0.11666666666666003,
          "durationTicks": 56,
          "midi": 55,
          "name": "G3",
          "ticks": 60120,
          "time": 125.25,
          "velocity": 0.5354330708661418
        },
        {
          "duration": 0.11666666666666003,
          "durationTicks": 56,
          "midi": 52,
          "name": "E3",
          "ticks": 60180,
          "time": 125.375,
          "velocity": 0.5354330708661418
        },
        {
          "duration": 0.11666666666666003,
          "durationTicks": 56,
          "midi": 49,
          "name": "C#3",
          "ticks": 60240,
          "time": 125.5,
          "velocity": 0.5354330708661418
        },
        {
          "duration": 0.11666666666666003,
          "durationTicks": 56,
          "midi": 50,
          "name": "D3",
          "ticks": 60300,
          "time": 125.625,
          "velocity": 0.5354330708661418
        },
        {
          "duration": 0.11666666666666003,
          "durationTicks": 56,
          "midi": 52,
          "name": "E3",
          "ticks": 60360,
          "time": 125.75,
          "velocity": 0.5354330708661418
        },
        {
          "duration": 0.11666666666666003,
          "durationTicks": 56,
          "midi": 53,
          "name": "F3",
          "ticks": 60420,
          "time": 125.875,
          "velocity": 0.5354330708661418
        },
        {
          "duration": 0.11666666666666003,
          "durationTicks": 56,
          "midi": 55,
          "name": "G3",
          "ticks": 60480,
          "time": 126,
          "velocity": 0.5354330708661418
        },
        {
          "duration": 0.11666666666666003,
          "durationTicks": 56,
          "midi": 57,
          "name": "A3",
          "ticks": 60540,
          "time": 126.125,
          "velocity": 0.5354330708661418
        },
        {
          "duration": 0.11666666666666003,
          "durationTicks": 56,
          "midi": 58,
          "name": "A#3",
          "ticks": 60600,
          "time": 126.25,
          "velocity": 0.5354330708661418
        },
        {
          "duration": 0.11666666666666003,
          "durationTicks": 56,
          "midi": 55,
          "name": "G3",
          "ticks": 60660,
          "time": 126.375,
          "velocity": 0.5354330708661418
        },
        {
          "duration": 0.11666666666666003,
          "durationTicks": 56,
          "midi": 52,
          "name": "E3",
          "ticks": 60720,
          "time": 126.5,
          "velocity": 0.5354330708661418
        },
        {
          "duration": 0.11666666666666003,
          "durationTicks": 56,
          "midi": 53,
          "name": "F3",
          "ticks": 60780,
          "time": 126.625,
          "velocity": 0.5354330708661418
        },
        {
          "duration": 0.11666666666666003,
          "durationTicks": 56,
          "midi": 55,
          "name": "G3",
          "ticks": 60840,
          "time": 126.75,
          "velocity": 0.5354330708661418
        },
        {
          "duration": 0.11666666666666003,
          "durationTicks": 56,
          "midi": 52,
          "name": "E3",
          "ticks": 60900,
          "time": 126.875,
          "velocity": 0.5354330708661418
        },
        {
          "duration": 0.11666666666666003,
          "durationTicks": 56,
          "midi": 49,
          "name": "C#3",
          "ticks": 60960,
          "time": 127,
          "velocity": 0.5354330708661418
        },
        {
          "duration": 0.11666666666666003,
          "durationTicks": 56,
          "midi": 50,
          "name": "D3",
          "ticks": 61020,
          "time": 127.125,
          "velocity": 0.5354330708661418
        },
        {
          "duration": 0.11666666666666003,
          "durationTicks": 56,
          "midi": 52,
          "name": "E3",
          "ticks": 61080,
          "time": 127.25,
          "velocity": 0.5354330708661418
        },
        {
          "duration": 0.11666666666666003,
          "durationTicks": 56,
          "midi": 49,
          "name": "C#3",
          "ticks": 61140,
          "time": 127.375,
          "velocity": 0.5354330708661418
        },
        {
          "duration": 0.11666666666666003,
          "durationTicks": 56,
          "midi": 45,
          "name": "A2",
          "ticks": 61200,
          "time": 127.5,
          "velocity": 0.5354330708661418
        },
        {
          "duration": 0.11666666666666003,
          "durationTicks": 56,
          "midi": 47,
          "name": "B2",
          "ticks": 61260,
          "time": 127.625,
          "velocity": 0.5354330708661418
        },
        {
          "duration": 0.11666666666666003,
          "durationTicks": 56,
          "midi": 49,
          "name": "C#3",
          "ticks": 61320,
          "time": 127.75,
          "velocity": 0.5354330708661418
        },
        {
          "duration": 0.11666666666666003,
          "durationTicks": 56,
          "midi": 45,
          "name": "A2",
          "ticks": 61380,
          "time": 127.875,
          "velocity": 0.5354330708661418
        },
        {
          "duration": 1.9979166666666686,
          "durationTicks": 959,
          "midi": 42,
          "name": "F#2",
          "ticks": 61440,
          "time": 128,
          "velocity": 0.5354330708661418
        },
        {
          "duration": 1.9312500000000057,
          "durationTicks": 927,
          "midi": 45,
          "name": "A2",
          "ticks": 61471,
          "time": 128.06458333333333,
          "velocity": 0.5354330708661418
        },
        {
          "duration": 1.8645833333333428,
          "durationTicks": 895,
          "midi": 48,
          "name": "C3",
          "ticks": 61503,
          "time": 128.13125,
          "velocity": 0.5354330708661418
        },
        {
          "duration": 1.79791666666668,
          "durationTicks": 863,
          "midi": 51,
          "name": "D#3",
          "ticks": 61536,
          "time": 128.2,
          "velocity": 0.5354330708661418
        },
        {
          "duration": 1.9979166666666686,
          "durationTicks": 959,
          "midi": 54,
          "name": "F#3",
          "ticks": 62400,
          "time": 130,
          "velocity": 0.5354330708661418
        },
        {
          "duration": 1.9312500000000057,
          "durationTicks": 927,
          "midi": 57,
          "name": "A3",
          "ticks": 62431,
          "time": 130.06458333333333,
          "velocity": 0.5354330708661418
        },
        {
          "duration": 1.9979166666666686,
          "durationTicks": 959,
          "midi": 51,
          "name": "D#3",
          "ticks": 63360,
          "time": 132,
          "velocity": 0.5354330708661418
        },
        {
          "duration": 1.9312500000000057,
          "durationTicks": 927,
          "midi": 54,
          "name": "F#3",
          "ticks": 63391,
          "time": 132.06458333333333,
          "velocity": 0.5354330708661418
        },
        {
          "duration": 1.8645833333333428,
          "durationTicks": 895,
          "midi": 57,
          "name": "A3",
          "ticks": 63423,
          "time": 132.13125,
          "velocity": 0.5354330708661418
        },
        {
          "duration": 1.79791666666668,
          "durationTicks": 863,
          "midi": 59,
          "name": "B3",
          "ticks": 63456,
          "time": 132.2,
          "velocity": 0.5354330708661418
        },
        {
          "duration": 1.9979166666666686,
          "durationTicks": 959,
          "midi": 51,
          "name": "D#3",
          "ticks": 64320,
          "time": 134,
          "velocity": 0.5354330708661418
        },
        {
          "duration": 1.9312500000000057,
          "durationTicks": 927,
          "midi": 54,
          "name": "F#3",
          "ticks": 64351,
          "time": 134.06458333333333,
          "velocity": 0.5354330708661418
        },
        {
          "duration": 1.8645833333333428,
          "durationTicks": 895,
          "midi": 57,
          "name": "A3",
          "ticks": 64383,
          "time": 134.13125,
          "velocity": 0.5354330708661418
        },
        {
          "duration": 1.79791666666668,
          "durationTicks": 863,
          "midi": 60,
          "name": "C4",
          "ticks": 64416,
          "time": 134.2,
          "velocity": 0.5354330708661418
        },
        {
          "duration": 1.9979166666666686,
          "durationTicks": 959,
          "midi": 55,
          "name": "G3",
          "ticks": 65280,
          "time": 136,
          "velocity": 0.5354330708661418
        },
        {
          "duration": 1.9312500000000057,
          "durationTicks": 927,
          "midi": 58,
          "name": "A#3",
          "ticks": 65311,
          "time": 136.06458333333333,
          "velocity": 0.5354330708661418
        },
        {
          "duration": 1.8645833333333428,
          "durationTicks": 895,
          "midi": 61,
          "name": "C#4",
          "ticks": 65343,
          "time": 136.13125,
          "velocity": 0.5354330708661418
        },
        {
          "duration": 1.9979166666666686,
          "durationTicks": 959,
          "midi": 56,
          "name": "G#3",
          "ticks": 66240,
          "time": 138,
          "velocity": 0.5354330708661418
        },
        {
          "duration": 1.9312500000000057,
          "durationTicks": 927,
          "midi": 59,
          "name": "B3",
          "ticks": 66271,
          "time": 138.06458333333333,
          "velocity": 0.5354330708661418
        },
        {
          "duration": 1.8645833333333428,
          "durationTicks": 895,
          "midi": 62,
          "name": "D4",
          "ticks": 66303,
          "time": 138.13125,
          "velocity": 0.5354330708661418
        },
        {
          "duration": 1.9979166666666686,
          "durationTicks": 959,
          "midi": 48,
          "name": "C3",
          "ticks": 67200,
          "time": 140,
          "velocity": 0.5354330708661418
        },
        {
          "duration": 1.9312500000000057,
          "durationTicks": 927,
          "midi": 52,
          "name": "E3",
          "ticks": 67231,
          "time": 140.06458333333333,
          "velocity": 0.5354330708661418
        },
        {
          "duration": 1.8645833333333428,
          "durationTicks": 895,
          "midi": 56,
          "name": "G#3",
          "ticks": 67263,
          "time": 140.13125,
          "velocity": 0.5354330708661418
        },
        {
          "duration": 1.79791666666668,
          "durationTicks": 863,
          "midi": 59,
          "name": "B3",
          "ticks": 67296,
          "time": 140.2,
          "velocity": 0.5354330708661418
        },
        {
          "duration": 1.9979166666666686,
          "durationTicks": 959,
          "midi": 48,
          "name": "C3",
          "ticks": 68160,
          "time": 142,
          "velocity": 0.5354330708661418
        },
        {
          "duration": 1.9312500000000057,
          "durationTicks": 927,
          "midi": 52,
          "name": "E3",
          "ticks": 68191,
          "time": 142.06458333333333,
          "velocity": 0.5354330708661418
        },
        {
          "duration": 1.8645833333333428,
          "durationTicks": 895,
          "midi": 57,
          "name": "A3",
          "ticks": 68223,
          "time": 142.13125,
          "velocity": 0.5354330708661418
        },
        {
          "duration": 1.9979166666666686,
          "durationTicks": 959,
          "midi": 54,
          "name": "F#3",
          "ticks": 69120,
          "time": 144,
          "velocity": 0.5354330708661418
        },
        {
          "duration": 1.9312500000000057,
          "durationTicks": 927,
          "midi": 57,
          "name": "A3",
          "ticks": 69151,
          "time": 144.06458333333333,
          "velocity": 0.5354330708661418
        },
        {
          "duration": 1.8645833333333428,
          "durationTicks": 895,
          "midi": 60,
          "name": "C4",
          "ticks": 69183,
          "time": 144.13125,
          "velocity": 0.5354330708661418
        },
        {
          "duration": 1.9979166666666686,
          "durationTicks": 959,
          "midi": 55,
          "name": "G3",
          "ticks": 70080,
          "time": 146,
          "velocity": 0.5354330708661418
        },
        {
          "duration": 1.9312500000000057,
          "durationTicks": 927,
          "midi": 58,
          "name": "A#3",
          "ticks": 70111,
          "time": 146.06458333333333,
          "velocity": 0.5354330708661418
        },
        {
          "duration": 1.8645833333333428,
          "durationTicks": 895,
          "midi": 61,
          "name": "C#4",
          "ticks": 70143,
          "time": 146.13125,
          "velocity": 0.5354330708661418
        },
        {
          "duration": 1.9979166666666686,
          "durationTicks": 959,
          "midi": 53,
          "name": "F3",
          "ticks": 71040,
          "time": 148,
          "velocity": 0.5354330708661418
        },
        {
          "duration": 1.9312500000000057,
          "durationTicks": 927,
          "midi": 57,
          "name": "A3",
          "ticks": 71071,
          "time": 148.06458333333333,
          "velocity": 0.5354330708661418
        },
        {
          "duration": 1.8645833333333428,
          "durationTicks": 895,
          "midi": 60,
          "name": "C4",
          "ticks": 71103,
          "time": 148.13125,
          "velocity": 0.5354330708661418
        },
        {
          "duration": 1.9979166666666686,
          "durationTicks": 959,
          "midi": 53,
          "name": "F3",
          "ticks": 72000,
          "time": 150,
          "velocity": 0.5354330708661418
        },
        {
          "duration": 1.9312500000000057,
          "durationTicks": 927,
          "midi": 55,
          "name": "G3",
          "ticks": 72031,
          "time": 150.06458333333333,
          "velocity": 0.5354330708661418
        },
        {
          "duration": 1.8645833333333428,
          "durationTicks": 895,
          "midi": 58,
          "name": "A#3",
          "ticks": 72063,
          "time": 150.13125,
          "velocity": 0.5354330708661418
        },
        {
          "duration": 1.79791666666668,
          "durationTicks": 863,
          "midi": 61,
          "name": "C#4",
          "ticks": 72096,
          "time": 150.2,
          "velocity": 0.5354330708661418
        },
        {
          "duration": 1.9979166666666686,
          "durationTicks": 959,
          "midi": 57,
          "name": "A3",
          "ticks": 72960,
          "time": 152,
          "velocity": 0.5354330708661418
        },
        {
          "duration": 1.9979166666666686,
          "durationTicks": 959,
          "midi": 53,
          "name": "F3",
          "ticks": 72960,
          "time": 152,
          "velocity": 0.5354330708661418
        },
        {
          "duration": 1.9312500000000057,
          "durationTicks": 927,
          "midi": 62,
          "name": "D4",
          "ticks": 72991,
          "time": 152.06458333333333,
          "velocity": 0.5354330708661418
        },
        {
          "duration": 1.9979166666666686,
          "durationTicks": 959,
          "midi": 54,
          "name": "F#3",
          "ticks": 73920,
          "time": 154,
          "velocity": 0.5354330708661418
        },
        {
          "duration": 1.9312500000000057,
          "durationTicks": 927,
          "midi": 57,
          "name": "A3",
          "ticks": 73951,
          "time": 154.06458333333333,
          "velocity": 0.5354330708661418
        },
        {
          "duration": 1.8645833333333428,
          "durationTicks": 895,
          "midi": 60,
          "name": "C4",
          "ticks": 73983,
          "time": 154.13125,
          "velocity": 0.5354330708661418
        },
        {
          "duration": 1.9979166666666686,
          "durationTicks": 959,
          "midi": 58,
          "name": "A#3",
          "ticks": 74880,
          "time": 156,
          "velocity": 0.5354330708661418
        },
        {
          "duration": 1.9979166666666686,
          "durationTicks": 959,
          "midi": 55,
          "name": "G3",
          "ticks": 74880,
          "time": 156,
          "velocity": 0.5354330708661418
        },
        {
          "duration": 1.9979166666666686,
          "durationTicks": 959,
          "midi": 43,
          "name": "G2",
          "ticks": 75840,
          "time": 158,
          "velocity": 0.5354330708661418
        },
        {
          "duration": 1.9312500000000057,
          "durationTicks": 927,
          "midi": 46,
          "name": "A#2",
          "ticks": 75871,
          "time": 158.06458333333333,
          "velocity": 0.5354330708661418
        },
        {
          "duration": 1.8645833333333428,
          "durationTicks": 895,
          "midi": 51,
          "name": "D#3",
          "ticks": 75903,
          "time": 158.13125,
          "velocity": 0.5354330708661418
        },
        {
          "duration": 1.79791666666668,
          "durationTicks": 863,
          "midi": 55,
          "name": "G3",
          "ticks": 75936,
          "time": 158.2,
          "velocity": 0.5354330708661418
        },
        {
          "duration": 1.9979166666666686,
          "durationTicks": 959,
          "midi": 45,
          "name": "A2",
          "ticks": 76800,
          "time": 160,
          "velocity": 0.5354330708661418
        },
        {
          "duration": 1.9312500000000057,
          "durationTicks": 927,
          "midi": 49,
          "name": "C#3",
          "ticks": 76831,
          "time": 160.06458333333333,
          "velocity": 0.5354330708661418
        },
        {
          "duration": 1.8645833333333428,
          "durationTicks": 895,
          "midi": 52,
          "name": "E3",
          "ticks": 76863,
          "time": 160.13125,
          "velocity": 0.5354330708661418
        },
        {
          "duration": 1.79791666666668,
          "durationTicks": 863,
          "midi": 55,
          "name": "G3",
          "ticks": 76896,
          "time": 160.2,
          "velocity": 0.5354330708661418
        },
        {
          "duration": 1.9979166666666686,
          "durationTicks": 959,
          "midi": 45,
          "name": "A2",
          "ticks": 77760,
          "time": 162,
          "velocity": 0.5354330708661418
        },
        {
          "duration": 1.9312500000000057,
          "durationTicks": 927,
          "midi": 49,
          "name": "C#3",
          "ticks": 77791,
          "time": 162.06458333333333,
          "velocity": 0.5354330708661418
        },
        {
          "duration": 1.8645833333333428,
          "durationTicks": 895,
          "midi": 52,
          "name": "E3",
          "ticks": 77823,
          "time": 162.13125,
          "velocity": 0.5354330708661418
        },
        {
          "duration": 1.79791666666668,
          "durationTicks": 863,
          "midi": 53,
          "name": "F3",
          "ticks": 77856,
          "time": 162.2,
          "velocity": 0.5354330708661418
        },
        {
          "duration": 1.9979166666666686,
          "durationTicks": 959,
          "midi": 50,
          "name": "D3",
          "ticks": 78720,
          "time": 164,
          "velocity": 0.5354330708661418
        },
        {
          "duration": 1.9979166666666686,
          "durationTicks": 959,
          "midi": 46,
          "name": "A#2",
          "ticks": 78720,
          "time": 164,
          "velocity": 0.5354330708661418
        },
        {
          "duration": 1.9312500000000057,
          "durationTicks": 927,
          "midi": 53,
          "name": "F3",
          "ticks": 78751,
          "time": 164.06458333333333,
          "velocity": 0.5354330708661418
        },
        {
          "duration": 0.23541666666667993,
          "durationTicks": 113,
          "midi": 58,
          "name": "A#3",
          "ticks": 80640,
          "time": 168,
          "velocity": 0.5354330708661418
        },
        {
          "duration": 0.23541666666667993,
          "durationTicks": 113,
          "midi": 56,
          "name": "G#3",
          "ticks": 80760,
          "time": 168.25,
          "velocity": 0.5354330708661418
        },
        {
          "duration": 0.23541666666667993,
          "durationTicks": 113,
          "midi": 57,
          "name": "A3",
          "ticks": 80880,
          "time": 168.5,
          "velocity": 0.5354330708661418
        },
        {
          "duration": 0.23541666666667993,
          "durationTicks": 113,
          "midi": 52,
          "name": "E3",
          "ticks": 81000,
          "time": 168.75,
          "velocity": 0.5354330708661418
        },
        {
          "duration": 0.23541666666667993,
          "durationTicks": 113,
          "midi": 53,
          "name": "F3",
          "ticks": 81120,
          "time": 169,
          "velocity": 0.5354330708661418
        },
        {
          "duration": 0.23541666666667993,
          "durationTicks": 113,
          "midi": 49,
          "name": "C#3",
          "ticks": 81240,
          "time": 169.25,
          "velocity": 0.5354330708661418
        },
        {
          "duration": 0.23541666666667993,
          "durationTicks": 113,
          "midi": 50,
          "name": "D3",
          "ticks": 81360,
          "time": 169.5,
          "velocity": 0.5354330708661418
        },
        {
          "duration": 0.23541666666667993,
          "durationTicks": 113,
          "midi": 45,
          "name": "A2",
          "ticks": 81480,
          "time": 169.75,
          "velocity": 0.5354330708661418
        },
        {
          "duration": 0.23541666666667993,
          "durationTicks": 113,
          "midi": 46,
          "name": "A#2",
          "ticks": 81600,
          "time": 170,
          "velocity": 0.5354330708661418
        },
        {
          "duration": 0.23541666666667993,
          "durationTicks": 113,
          "midi": 50,
          "name": "D3",
          "ticks": 81720,
          "time": 170.25,
          "velocity": 0.5354330708661418
        },
        {
          "duration": 0.23541666666667993,
          "durationTicks": 113,
          "midi": 53,
          "name": "F3",
          "ticks": 81840,
          "time": 170.5,
          "velocity": 0.5354330708661418
        },
        {
          "duration": 0.23541666666667993,
          "durationTicks": 113,
          "midi": 57,
          "name": "A3",
          "ticks": 81960,
          "time": 170.75,
          "velocity": 0.5354330708661418
        },
        {
          "duration": 0.23541666666667993,
          "durationTicks": 113,
          "midi": 59,
          "name": "B3",
          "ticks": 83040,
          "time": 173,
          "velocity": 0.5354330708661418
        },
        {
          "duration": 0.23541666666667993,
          "durationTicks": 113,
          "midi": 57,
          "name": "A3",
          "ticks": 83160,
          "time": 173.25,
          "velocity": 0.5354330708661418
        },
        {
          "duration": 0.23541666666667993,
          "durationTicks": 113,
          "midi": 54,
          "name": "F#3",
          "ticks": 83280,
          "time": 173.5,
          "velocity": 0.5354330708661418
        },
        {
          "duration": 0.23541666666667993,
          "durationTicks": 113,
          "midi": 52,
          "name": "E3",
          "ticks": 83400,
          "time": 173.75,
          "velocity": 0.5354330708661418
        },
        {
          "duration": 1.9979166666666686,
          "durationTicks": 959,
          "midi": 51,
          "name": "D#3",
          "ticks": 83520,
          "time": 174,
          "velocity": 0.5354330708661418
        },
        {
          "duration": 1.9312500000000057,
          "durationTicks": 927,
          "midi": 54,
          "name": "F#3",
          "ticks": 83551,
          "time": 174.06458333333333,
          "velocity": 0.5354330708661418
        },
        {
          "duration": 1.8645833333333428,
          "durationTicks": 895,
          "midi": 57,
          "name": "A3",
          "ticks": 83583,
          "time": 174.13125,
          "velocity": 0.5354330708661418
        },
        {
          "duration": 1.9979166666666686,
          "durationTicks": 959,
          "midi": 40,
          "name": "E2",
          "ticks": 84480,
          "time": 176,
          "velocity": 0.5354330708661418
        },
        {
          "duration": 1.9312500000000057,
          "durationTicks": 927,
          "midi": 45,
          "name": "A2",
          "ticks": 84511,
          "time": 176.06458333333333,
          "velocity": 0.5354330708661418
        },
        {
          "duration": 1.8645833333333428,
          "durationTicks": 895,
          "midi": 48,
          "name": "C3",
          "ticks": 84543,
          "time": 176.13125,
          "velocity": 0.5354330708661418
        },
        {
          "duration": 1.79791666666668,
          "durationTicks": 863,
          "midi": 52,
          "name": "E3",
          "ticks": 84576,
          "time": 176.2,
          "velocity": 0.5354330708661418
        },
        {
          "duration": 1.9979166666666686,
          "durationTicks": 959,
          "midi": 40,
          "name": "E2",
          "ticks": 85440,
          "time": 178,
          "velocity": 0.5354330708661418
        },
        {
          "duration": 1.9312500000000057,
          "durationTicks": 927,
          "midi": 47,
          "name": "B2",
          "ticks": 85471,
          "time": 178.06458333333333,
          "velocity": 0.5354330708661418
        },
        {
          "duration": 1.8645833333333428,
          "durationTicks": 895,
          "midi": 52,
          "name": "E3",
          "ticks": 85503,
          "time": 178.13125,
          "velocity": 0.5354330708661418
        },
        {
          "duration": 1.9979166666666686,
          "durationTicks": 959,
          "midi": 52,
          "name": "E3",
          "ticks": 86400,
          "time": 180,
          "velocity": 0.5354330708661418
        },
        {
          "duration": 1.9312500000000057,
          "durationTicks": 927,
          "midi": 56,
          "name": "G#3",
          "ticks": 86431,
          "time": 180.06458333333333,
          "velocity": 0.5354330708661418
        },
        {
          "duration": 1.8645833333333428,
          "durationTicks": 895,
          "midi": 59,
          "name": "B3",
          "ticks": 86463,
          "time": 180.13125,
          "velocity": 0.5354330708661418
        },
        {
          "duration": 1.79791666666668,
          "durationTicks": 863,
          "midi": 60,
          "name": "C4",
          "ticks": 86496,
          "time": 180.2,
          "velocity": 0.5354330708661418
        },
        {
          "duration": 1.9979166666666686,
          "durationTicks": 959,
          "midi": 52,
          "name": "E3",
          "ticks": 87360,
          "time": 182,
          "velocity": 0.5354330708661418
        },
        {
          "duration": 0.9479166666666572,
          "durationTicks": 455,
          "midi": 48,
          "name": "C3",
          "ticks": 87360,
          "time": 182,
          "velocity": 0.5354330708661418
        },
        {
          "duration": 1.9312500000000057,
          "durationTicks": 927,
          "midi": 57,
          "name": "A3",
          "ticks": 87391,
          "time": 182.06458333333333,
          "velocity": 0.5354330708661418
        },
        {
          "duration": 0.9479166666666572,
          "durationTicks": 455,
          "midi": 45,
          "name": "A2",
          "ticks": 87840,
          "time": 183,
          "velocity": 0.5354330708661418
        },
        {
          "duration": 1.9979166666666686,
          "durationTicks": 959,
          "midi": 45,
          "name": "A2",
          "ticks": 88320,
          "time": 184,
          "velocity": 0.5354330708661418
        },
        {
          "duration": 1.8979166666666742,
          "durationTicks": 911,
          "midi": 41,
          "name": "F2",
          "ticks": 88320,
          "time": 184,
          "velocity": 0.5354330708661418
        },
        {
          "duration": 1.9312500000000057,
          "durationTicks": 927,
          "midi": 48,
          "name": "C3",
          "ticks": 88351,
          "time": 184.06458333333333,
          "velocity": 0.5354330708661418
        },
        {
          "duration": 1.8645833333333428,
          "durationTicks": 895,
          "midi": 53,
          "name": "F3",
          "ticks": 88383,
          "time": 184.13125,
          "velocity": 0.5354330708661418
        },
        {
          "duration": 0.9479166666666572,
          "durationTicks": 455,
          "midi": 45,
          "name": "A2",
          "ticks": 89280,
          "time": 186,
          "velocity": 0.5354330708661418
        },
        {
          "duration": 0.9479166666666572,
          "durationTicks": 455,
          "midi": 47,
          "name": "B2",
          "ticks": 89280,
          "time": 186,
          "velocity": 0.5354330708661418
        },
        {
          "duration": 0.9479166666666572,
          "durationTicks": 455,
          "midi": 51,
          "name": "D#3",
          "ticks": 89280,
          "time": 186,
          "velocity": 0.5354330708661418
        },
        {
          "duration": 0.9479166666666572,
          "durationTicks": 455,
          "midi": 42,
          "name": "F#2",
          "ticks": 89280,
          "time": 186,
          "velocity": 0.5354330708661418
        },
        {
          "duration": 0.9479166666666572,
          "durationTicks": 455,
          "midi": 45,
          "name": "A2",
          "ticks": 89760,
          "time": 187,
          "velocity": 0.5354330708661418
        },
        {
          "duration": 0.9479166666666572,
          "durationTicks": 455,
          "midi": 48,
          "name": "C3",
          "ticks": 89760,
          "time": 187,
          "velocity": 0.5354330708661418
        },
        {
          "duration": 0.9479166666666572,
          "durationTicks": 455,
          "midi": 51,
          "name": "D#3",
          "ticks": 89760,
          "time": 187,
          "velocity": 0.5354330708661418
        },
        {
          "duration": 0.9479166666666572,
          "durationTicks": 455,
          "midi": 42,
          "name": "F#2",
          "ticks": 89760,
          "time": 187,
          "velocity": 0.5354330708661418
        },
        {
          "duration": 1.8979166666666742,
          "durationTicks": 911,
          "midi": 45,
          "name": "A2",
          "ticks": 90240,
          "time": 188,
          "velocity": 0.5354330708661418
        },
        {
          "duration": 1.8979166666666742,
          "durationTicks": 911,
          "midi": 48,
          "name": "C3",
          "ticks": 90240,
          "time": 188,
          "velocity": 0.5354330708661418
        },
        {
          "duration": 1.8979166666666742,
          "durationTicks": 911,
          "midi": 52,
          "name": "E3",
          "ticks": 90240,
          "time": 188,
          "velocity": 0.5354330708661418
        },
        {
          "duration": 1.8979166666666742,
          "durationTicks": 911,
          "midi": 40,
          "name": "E2",
          "ticks": 90240,
          "time": 188,
          "velocity": 0.5354330708661418
        },
        {
          "duration": 0.9479166666666572,
          "durationTicks": 455,
          "midi": 47,
          "name": "B2",
          "ticks": 91200,
          "time": 190,
          "velocity": 0.5354330708661418
        },
        {
          "duration": 0.9479166666666572,
          "durationTicks": 455,
          "midi": 52,
          "name": "E3",
          "ticks": 91200,
          "time": 190,
          "velocity": 0.5354330708661418
        },
        {
          "duration": 0.9479166666666572,
          "durationTicks": 455,
          "midi": 40,
          "name": "E2",
          "ticks": 91200,
          "time": 190,
          "velocity": 0.5354330708661418
        },
        {
          "duration": 0.9479166666666572,
          "durationTicks": 455,
          "midi": 47,
          "name": "B2",
          "ticks": 91680,
          "time": 191,
          "velocity": 0.5354330708661418
        },
        {
          "duration": 0.9479166666666572,
          "durationTicks": 455,
          "midi": 52,
          "name": "E3",
          "ticks": 91680,
          "time": 191,
          "velocity": 0.5354330708661418
        },
        {
          "duration": 0.9479166666666572,
          "durationTicks": 455,
          "midi": 40,
          "name": "E2",
          "ticks": 91680,
          "time": 191,
          "velocity": 0.5354330708661418
        },
        {
          "duration": 1.8979166666666742,
          "durationTicks": 911,
          "midi": 52,
          "name": "E3",
          "ticks": 92160,
          "time": 192,
          "velocity": 0.5354330708661418
        },
        {
          "duration": 1.8979166666666742,
          "durationTicks": 911,
          "midi": 57,
          "name": "A3",
          "ticks": 92160,
          "time": 192,
          "velocity": 0.5354330708661418
        },
        {
          "duration": 1.8979166666666742,
          "durationTicks": 911,
          "midi": 45,
          "name": "A2",
          "ticks": 92160,
          "time": 192,
          "velocity": 0.5354330708661418
        },
        {
          "duration": 0.9479166666666572,
          "durationTicks": 455,
          "midi": 44,
          "name": "G#2",
          "ticks": 94560,
          "time": 197,
          "velocity": 0.5354330708661418
        },
        {
          "duration": 0.9479166666666572,
          "durationTicks": 455,
          "midi": 48,
          "name": "C3",
          "ticks": 94560,
          "time": 197,
          "velocity": 0.5354330708661418
        },
        {
          "duration": 0.9479166666666572,
          "durationTicks": 455,
          "midi": 51,
          "name": "D#3",
          "ticks": 94560,
          "time": 197,
          "velocity": 0.5354330708661418
        },
        {
          "duration": 0.9479166666666572,
          "durationTicks": 455,
          "midi": 42,
          "name": "F#2",
          "ticks": 94560,
          "time": 197,
          "velocity": 0.5354330708661418
        },
        {
          "duration": 0.9479166666666572,
          "durationTicks": 455,
          "midi": 51,
          "name": "D#3",
          "ticks": 96480,
          "time": 201,
          "velocity": 0.5354330708661418
        },
        {
          "duration": 0.9479166666666572,
          "durationTicks": 455,
          "midi": 54,
          "name": "F#3",
          "ticks": 96480,
          "time": 201,
          "velocity": 0.5354330708661418
        },
        {
          "duration": 0.9479166666666572,
          "durationTicks": 455,
          "midi": 60,
          "name": "C4",
          "ticks": 96480,
          "time": 201,
          "velocity": 0.5354330708661418
        },
        {
          "duration": 0.9479166666666572,
          "durationTicks": 455,
          "midi": 48,
          "name": "C3",
          "ticks": 96480,
          "time": 201,
          "velocity": 0.5354330708661418
        },
        {
          "duration": 0.9479166666666572,
          "durationTicks": 455,
          "midi": 57,
          "name": "A3",
          "ticks": 98400,
          "time": 205,
          "velocity": 0.5354330708661418
        },
        {
          "duration": 0.9479166666666572,
          "durationTicks": 455,
          "midi": 54,
          "name": "F#3",
          "ticks": 98400,
          "time": 205,
          "velocity": 0.5354330708661418
        },
        {
          "duration": 0.9479166666666572,
          "durationTicks": 455,
          "midi": 48,
          "name": "C3",
          "ticks": 100320,
          "time": 209,
          "velocity": 0.5354330708661418
        },
        {
          "duration": 0.9479166666666572,
          "durationTicks": 455,
          "midi": 51,
          "name": "D#3",
          "ticks": 100320,
          "time": 209,
          "velocity": 0.5354330708661418
        },
        {
          "duration": 0.9479166666666572,
          "durationTicks": 455,
          "midi": 54,
          "name": "F#3",
          "ticks": 100320,
          "time": 209,
          "velocity": 0.5354330708661418
        },
        {
          "duration": 0.9479166666666572,
          "durationTicks": 455,
          "midi": 45,
          "name": "A2",
          "ticks": 100320,
          "time": 209,
          "velocity": 0.5354330708661418
        },
        {
          "duration": 0.4729166666666629,
          "durationTicks": 227,
          "midi": 45,
          "name": "A2",
          "ticks": 102480,
          "time": 213.5,
          "velocity": 0.5354330708661418
        },
        {
          "duration": 0.4729166666666629,
          "durationTicks": 227,
          "midi": 48,
          "name": "C3",
          "ticks": 102480,
          "time": 213.5,
          "velocity": 0.5354330708661418
        },
        {
          "duration": 0.4729166666666629,
          "durationTicks": 227,
          "midi": 53,
          "name": "F3",
          "ticks": 102480,
          "time": 213.5,
          "velocity": 0.5354330708661418
        },
        {
          "duration": 0.4729166666666629,
          "durationTicks": 227,
          "midi": 41,
          "name": "F2",
          "ticks": 102480,
          "time": 213.5,
          "velocity": 0.5354330708661418
        },
        {
          "duration": 0.9479166666666572,
          "durationTicks": 455,
          "midi": 42,
          "name": "F#2",
          "ticks": 104160,
          "time": 217,
          "velocity": 0.5354330708661418
        },
        {
          "duration": 0.9479166666666572,
          "durationTicks": 455,
          "midi": 46,
          "name": "A#2",
          "ticks": 104160,
          "time": 217,
          "velocity": 0.5354330708661418
        },
        {
          "duration": 0.9479166666666572,
          "durationTicks": 455,
          "midi": 49,
          "name": "C#3",
          "ticks": 104160,
          "time": 217,
          "velocity": 0.5354330708661418
        },
        {
          "duration": 0.9479166666666572,
          "durationTicks": 455,
          "midi": 40,
          "name": "E2",
          "ticks": 104160,
          "time": 217,
          "velocity": 0.5354330708661418
        },
        {
          "duration": 0.9479166666666572,
          "durationTicks": 455,
          "midi": 46,
          "name": "A#2",
          "ticks": 106080,
          "time": 221,
          "velocity": 0.5354330708661418
        },
        {
          "duration": 0.9479166666666572,
          "durationTicks": 455,
          "midi": 51,
          "name": "D#3",
          "ticks": 106080,
          "time": 221,
          "velocity": 0.5354330708661418
        },
        {
          "duration": 0.9479166666666572,
          "durationTicks": 455,
          "midi": 39,
          "name": "D#2",
          "ticks": 106080,
          "time": 221,
          "velocity": 0.5354330708661418
        },
        {
          "duration": 0.9479166666666572,
          "durationTicks": 455,
          "midi": 47,
          "name": "B2",
          "ticks": 108000,
          "time": 225,
          "velocity": 0.5354330708661418
        },
        {
          "duration": 0.9479166666666572,
          "durationTicks": 455,
          "midi": 52,
          "name": "E3",
          "ticks": 108000,
          "time": 225,
          "velocity": 0.5354330708661418
        },
        {
          "duration": 0.9479166666666572,
          "durationTicks": 455,
          "midi": 38,
          "name": "D2",
          "ticks": 108000,
          "time": 225,
          "velocity": 0.5354330708661418
        },
        {
          "duration": 0,
          "durationTicks": 0,
          "midi": 49,
          "name": "C#3",
          "ticks": 109500,
          "time": 228.125,
          "velocity": 0.5354330708661418
        },
        {
          "duration": 1.7791666666666686,
          "durationTicks": 854,
          "midi": 49,
          "name": "C#3",
          "ticks": 109500,
          "time": 228.125,
          "velocity": 0.5354330708661418
        },
        {
          "duration": 0,
          "durationTicks": 0,
          "midi": 53,
          "name": "F3",
          "ticks": 109560,
          "time": 228.25,
          "velocity": 0.5354330708661418
        },
        {
          "duration": 1.6604166666666629,
          "durationTicks": 797,
          "midi": 53,
          "name": "F3",
          "ticks": 109560,
          "time": 228.25,
          "velocity": 0.5354330708661418
        },
        {
          "duration": 0,
          "durationTicks": 0,
          "midi": 56,
          "name": "G#3",
          "ticks": 109620,
          "time": 228.375,
          "velocity": 0.5354330708661418
        },
        {
          "duration": 1.5416666666666572,
          "durationTicks": 740,
          "midi": 56,
          "name": "G#3",
          "ticks": 109620,
          "time": 228.375,
          "velocity": 0.5354330708661418
        },
        {
          "duration": 1.42291666666668,
          "durationTicks": 683,
          "midi": 61,
          "name": "C#4",
          "ticks": 109680,
          "time": 228.5,
          "velocity": 0.5354330708661418
        },
        {
          "duration": 0.4729166666666629,
          "durationTicks": 227,
          "midi": 62,
          "name": "D4",
          "ticks": 110640,
          "time": 230.5,
          "velocity": 0.5354330708661418
        },
        {
          "duration": 0.4729166666666629,
          "durationTicks": 227,
          "midi": 62,
          "name": "D4",
          "ticks": 110880,
          "time": 231,
          "velocity": 0.5354330708661418
        },
        {
          "duration": 0.4729166666666629,
          "durationTicks": 227,
          "midi": 61,
          "name": "C#4",
          "ticks": 111120,
          "time": 231.5,
          "velocity": 0.5354330708661418
        },
        {
          "duration": 0.4729166666666629,
          "durationTicks": 227,
          "midi": 61,
          "name": "C#4",
          "ticks": 111360,
          "time": 232,
          "velocity": 0.5354330708661418
        },
        {
          "duration": 0.4729166666666629,
          "durationTicks": 227,
          "midi": 59,
          "name": "B3",
          "ticks": 111600,
          "time": 232.5,
          "velocity": 0.5354330708661418
        },
        {
          "duration": 0.4729166666666629,
          "durationTicks": 227,
          "midi": 59,
          "name": "B3",
          "ticks": 111840,
          "time": 233,
          "velocity": 0.5354330708661418
        },
        {
          "duration": 0.23541666666667993,
          "durationTicks": 113,
          "midi": 61,
          "name": "C#4",
          "ticks": 112080,
          "time": 233.5,
          "velocity": 0.5354330708661418
        },
        {
          "duration": 0.23541666666667993,
          "durationTicks": 113,
          "midi": 62,
          "name": "D4",
          "ticks": 112200,
          "time": 233.75,
          "velocity": 0.5354330708661418
        },
        {
          "duration": 0.9479166666666572,
          "durationTicks": 455,
          "midi": 56,
          "name": "G#3",
          "ticks": 112320,
          "time": 234,
          "velocity": 0.5354330708661418
        },
        {
          "duration": 0.9479166666666572,
          "durationTicks": 455,
          "midi": 47,
          "name": "B2",
          "ticks": 112320,
          "time": 234,
          "velocity": 0.5354330708661418
        },
        {
          "duration": 0.4729166666666629,
          "durationTicks": 227,
          "midi": 56,
          "name": "G#3",
          "ticks": 113280,
          "time": 236,
          "velocity": 0.5354330708661418
        },
        {
          "duration": 0.4729166666666629,
          "durationTicks": 227,
          "midi": 53,
          "name": "F3",
          "ticks": 113280,
          "time": 236,
          "velocity": 0.5354330708661418
        },
        {
          "duration": 0.23541666666667993,
          "durationTicks": 113,
          "midi": 57,
          "name": "A3",
          "ticks": 113520,
          "time": 236.5,
          "velocity": 0.5354330708661418
        },
        {
          "duration": 0.4729166666666629,
          "durationTicks": 227,
          "midi": 54,
          "name": "F#3",
          "ticks": 113520,
          "time": 236.5,
          "velocity": 0.5354330708661418
        },
        {
          "duration": 0.23541666666667993,
          "durationTicks": 113,
          "midi": 59,
          "name": "B3",
          "ticks": 113640,
          "time": 236.75,
          "velocity": 0.5354330708661418
        },
        {
          "duration": 0.4729166666666629,
          "durationTicks": 227,
          "midi": 61,
          "name": "C#4",
          "ticks": 113760,
          "time": 237,
          "velocity": 0.5354330708661418
        },
        {
          "duration": 0.9479166666666572,
          "durationTicks": 455,
          "midi": 49,
          "name": "C#3",
          "ticks": 113760,
          "time": 237,
          "velocity": 0.5354330708661418
        },
        {
          "duration": 0.4729166666666629,
          "durationTicks": 227,
          "midi": 59,
          "name": "B3",
          "ticks": 114000,
          "time": 237.5,
          "velocity": 0.5354330708661418
        },
        {
          "duration": 0.9479166666666572,
          "durationTicks": 455,
          "midi": 51,
          "name": "D#3",
          "ticks": 114240,
          "time": 238,
          "velocity": 0.5354330708661418
        },
        {
          "duration": 0.9479166666666572,
          "durationTicks": 455,
          "midi": 54,
          "name": "F#3",
          "ticks": 114240,
          "time": 238,
          "velocity": 0.5354330708661418
        },
        {
          "duration": 0.9479166666666572,
          "durationTicks": 455,
          "midi": 57,
          "name": "A3",
          "ticks": 114240,
          "time": 238,
          "velocity": 0.5354330708661418
        },
        {
          "duration": 0.9479166666666572,
          "durationTicks": 455,
          "midi": 48,
          "name": "C3",
          "ticks": 114240,
          "time": 238,
          "velocity": 0.5354330708661418
        },
        {
          "duration": 0.9479166666666572,
          "durationTicks": 455,
          "midi": 48,
          "name": "C3",
          "ticks": 115680,
          "time": 241,
          "velocity": 0.5354330708661418
        },
        {
          "duration": 0.9479166666666572,
          "durationTicks": 455,
          "midi": 51,
          "name": "D#3",
          "ticks": 115680,
          "time": 241,
          "velocity": 0.5354330708661418
        },
        {
          "duration": 0.9479166666666572,
          "durationTicks": 455,
          "midi": 56,
          "name": "G#3",
          "ticks": 115680,
          "time": 241,
          "velocity": 0.5354330708661418
        },
        {
          "duration": 0.9479166666666572,
          "durationTicks": 455,
          "midi": 44,
          "name": "G#2",
          "ticks": 115680,
          "time": 241,
          "velocity": 0.5354330708661418
        },
        {
          "duration": 0.9479166666666572,
          "durationTicks": 455,
          "midi": 52,
          "name": "E3",
          "ticks": 116160,
          "time": 242,
          "velocity": 0.5354330708661418
        },
        {
          "duration": 0.9479166666666572,
          "durationTicks": 455,
          "midi": 56,
          "name": "G#3",
          "ticks": 116160,
          "time": 242,
          "velocity": 0.5354330708661418
        },
        {
          "duration": 0.9479166666666572,
          "durationTicks": 455,
          "midi": 61,
          "name": "C#4",
          "ticks": 116160,
          "time": 242,
          "velocity": 0.5354330708661418
        },
        {
          "duration": 0.9479166666666572,
          "durationTicks": 455,
          "midi": 49,
          "name": "C#3",
          "ticks": 116160,
          "time": 242,
          "velocity": 0.5354330708661418
        },
        {
          "duration": 0.9479166666666572,
          "durationTicks": 455,
          "midi": 50,
          "name": "D3",
          "ticks": 119520,
          "time": 249,
          "velocity": 0.5354330708661418
        },
        {
          "duration": 0.9479166666666572,
          "durationTicks": 455,
          "midi": 54,
          "name": "F#3",
          "ticks": 119520,
          "time": 249,
          "velocity": 0.5354330708661418
        },
        {
          "duration": 0.9479166666666572,
          "durationTicks": 455,
          "midi": 57,
          "name": "A3",
          "ticks": 119520,
          "time": 249,
          "velocity": 0.5354330708661418
        },
        {
          "duration": 0.9479166666666572,
          "durationTicks": 455,
          "midi": 48,
          "name": "C3",
          "ticks": 119520,
          "time": 249,
          "velocity": 0.5354330708661418
        },
        {
          "duration": 0.11666666666667425,
          "durationTicks": 56,
          "midi": 50,
          "name": "D3",
          "ticks": 122880,
          "time": 256,
          "velocity": 0.5354330708661418
        },
        {
          "duration": 0.11666666666667425,
          "durationTicks": 56,
          "midi": 52,
          "name": "E3",
          "ticks": 122940,
          "time": 256.125,
          "velocity": 0.5354330708661418
        },
        {
          "duration": 0.11666666666667425,
          "durationTicks": 56,
          "midi": 54,
          "name": "F#3",
          "ticks": 123000,
          "time": 256.25,
          "velocity": 0.5354330708661418
        },
        {
          "duration": 0.11666666666667425,
          "durationTicks": 56,
          "midi": 55,
          "name": "G3",
          "ticks": 123060,
          "time": 256.375,
          "velocity": 0.5354330708661418
        },
        {
          "duration": 0.11666666666667425,
          "durationTicks": 56,
          "midi": 55,
          "name": "G3",
          "ticks": 127980,
          "time": 266.625,
          "velocity": 0.5354330708661418
        },
        {
          "duration": 0.11666666666667425,
          "durationTicks": 56,
          "midi": 54,
          "name": "F#3",
          "ticks": 128040,
          "time": 266.75,
          "velocity": 0.5354330708661418
        },
        {
          "duration": 0.11666666666667425,
          "durationTicks": 56,
          "midi": 52,
          "name": "E3",
          "ticks": 128100,
          "time": 266.875,
          "velocity": 0.5354330708661418
        },
        {
          "duration": 0.4729166666666629,
          "durationTicks": 227,
          "midi": 54,
          "name": "F#3",
          "ticks": 128400,
          "time": 267.5,
          "velocity": 0.5354330708661418
        },
        {
          "duration": 0.4729166666666629,
          "durationTicks": 227,
          "midi": 57,
          "name": "A3",
          "ticks": 128400,
          "time": 267.5,
          "velocity": 0.5354330708661418
        },
        {
          "duration": 0.4729166666666629,
          "durationTicks": 227,
          "midi": 50,
          "name": "D3",
          "ticks": 128400,
          "time": 267.5,
          "velocity": 0.5354330708661418
        },
        {
          "duration": 0.9479166666666856,
          "durationTicks": 455,
          "midi": 46,
          "name": "A#2",
          "ticks": 128640,
          "time": 268,
          "velocity": 0.5354330708661418
        },
        {
          "duration": 0.9479166666666856,
          "durationTicks": 455,
          "midi": 50,
          "name": "D3",
          "ticks": 128640,
          "time": 268,
          "velocity": 0.5354330708661418
        },
        {
          "duration": 0.9479166666666856,
          "durationTicks": 455,
          "midi": 55,
          "name": "G3",
          "ticks": 128640,
          "time": 268,
          "velocity": 0.5354330708661418
        },
        {
          "duration": 0.9479166666666856,
          "durationTicks": 455,
          "midi": 43,
          "name": "G2",
          "ticks": 128640,
          "time": 268,
          "velocity": 0.5354330708661418
        },
        {
          "duration": 0.4729166666666629,
          "durationTicks": 227,
          "midi": 51,
          "name": "D#3",
          "ticks": 130800,
          "time": 272.5,
          "velocity": 0.5354330708661418
        },
        {
          "duration": 0.4729166666666629,
          "durationTicks": 227,
          "midi": 54,
          "name": "F#3",
          "ticks": 130800,
          "time": 272.5,
          "velocity": 0.5354330708661418
        },
        {
          "duration": 0.4729166666666629,
          "durationTicks": 227,
          "midi": 57,
          "name": "A3",
          "ticks": 130800,
          "time": 272.5,
          "velocity": 0.5354330708661418
        },
        {
          "duration": 0.4729166666666629,
          "durationTicks": 227,
          "midi": 48,
          "name": "C3",
          "ticks": 130800,
          "time": 272.5,
          "velocity": 0.5354330708661418
        },
        {
          "duration": 0.9479166666666856,
          "durationTicks": 455,
          "midi": 52,
          "name": "E3",
          "ticks": 131520,
          "time": 274,
          "velocity": 0.5354330708661418
        },
        {
          "duration": 0.9479166666666856,
          "durationTicks": 455,
          "midi": 55,
          "name": "G3",
          "ticks": 131520,
          "time": 274,
          "velocity": 0.5354330708661418
        },
        {
          "duration": 0.9479166666666856,
          "durationTicks": 455,
          "midi": 58,
          "name": "A#3",
          "ticks": 131520,
          "time": 274,
          "velocity": 0.5354330708661418
        },
        {
          "duration": 0.9479166666666856,
          "durationTicks": 455,
          "midi": 49,
          "name": "C#3",
          "ticks": 131520,
          "time": 274,
          "velocity": 0.5354330708661418
        },
        {
          "duration": 0.9479166666666856,
          "durationTicks": 455,
          "midi": 53,
          "name": "F3",
          "ticks": 132480,
          "time": 276,
          "velocity": 0.5354330708661418
        },
        {
          "duration": 0.9479166666666856,
          "durationTicks": 455,
          "midi": 57,
          "name": "A3",
          "ticks": 132480,
          "time": 276,
          "velocity": 0.5354330708661418
        },
        {
          "duration": 0.4729166666666629,
          "durationTicks": 227,
          "midi": 50,
          "name": "D3",
          "ticks": 132480,
          "time": 276,
          "velocity": 0.5354330708661418
        },
        {
          "duration": 0.4729166666666629,
          "durationTicks": 227,
          "midi": 48,
          "name": "C3",
          "ticks": 132720,
          "time": 276.5,
          "velocity": 0.5354330708661418
        },
        {
          "duration": 0.9479166666666856,
          "durationTicks": 455,
          "midi": 55,
          "name": "G3",
          "ticks": 132960,
          "time": 277,
          "velocity": 0.5354330708661418
        },
        {
          "duration": 0.9479166666666856,
          "durationTicks": 455,
          "midi": 46,
          "name": "A#2",
          "ticks": 132960,
          "time": 277,
          "velocity": 0.5354330708661418
        },
        {
          "duration": 0.2354166666666515,
          "durationTicks": 113,
          "midi": 50,
          "name": "D3",
          "ticks": 132960,
          "time": 277,
          "velocity": 0.5354330708661418
        },
        {
          "duration": 0.2354166666666515,
          "durationTicks": 113,
          "midi": 52,
          "name": "E3",
          "ticks": 133080,
          "time": 277.25,
          "velocity": 0.5354330708661418
        },
        {
          "duration": 0.2354166666666515,
          "durationTicks": 113,
          "midi": 49,
          "name": "C#3",
          "ticks": 133200,
          "time": 277.5,
          "velocity": 0.5354330708661418
        },
        {
          "duration": 0.2354166666666515,
          "durationTicks": 113,
          "midi": 50,
          "name": "D3",
          "ticks": 133320,
          "time": 277.75,
          "velocity": 0.5354330708661418
        },
        {
          "duration": 0.9479166666666856,
          "durationTicks": 455,
          "midi": 49,
          "name": "C#3",
          "ticks": 133440,
          "time": 278,
          "velocity": 0.5354330708661418
        },
        {
          "duration": 0.9479166666666856,
          "durationTicks": 455,
          "midi": 52,
          "name": "E3",
          "ticks": 133440,
          "time": 278,
          "velocity": 0.5354330708661418
        },
        {
          "duration": 0.9479166666666856,
          "durationTicks": 455,
          "midi": 57,
          "name": "A3",
          "ticks": 133440,
          "time": 278,
          "velocity": 0.5354330708661418
        },
        {
          "duration": 0.9479166666666856,
          "durationTicks": 455,
          "midi": 45,
          "name": "A2",
          "ticks": 133440,
          "time": 278,
          "velocity": 0.5354330708661418
        },
        {
          "duration": 0.2354166666666515,
          "durationTicks": 113,
          "midi": 55,
          "name": "G3",
          "ticks": 135840,
          "time": 283,
          "velocity": 0.5354330708661418
        },
        {
          "duration": 0.2354166666666515,
          "durationTicks": 113,
          "midi": 52,
          "name": "E3",
          "ticks": 135960,
          "time": 283.25,
          "velocity": 0.5354330708661418
        },
        {
          "duration": 0.2354166666666515,
          "durationTicks": 113,
          "midi": 49,
          "name": "C#3",
          "ticks": 136080,
          "time": 283.5,
          "velocity": 0.5354330708661418
        },
        {
          "duration": 0.2354166666666515,
          "durationTicks": 113,
          "midi": 52,
          "name": "E3",
          "ticks": 136200,
          "time": 283.75,
          "velocity": 0.5354330708661418
        },
        {
          "duration": 0.4729166666666629,
          "durationTicks": 227,
          "midi": 42,
          "name": "F#2",
          "ticks": 136320,
          "time": 284,
          "velocity": 0.5354330708661418
        },
        {
          "duration": 0.9479166666666856,
          "durationTicks": 455,
          "midi": 57,
          "name": "A3",
          "ticks": 136800,
          "time": 285,
          "velocity": 0.5354330708661418
        },
        {
          "duration": 0.9479166666666856,
          "durationTicks": 455,
          "midi": 60,
          "name": "C4",
          "ticks": 136800,
          "time": 285,
          "velocity": 0.5354330708661418
        },
        {
          "duration": 0.9479166666666856,
          "durationTicks": 455,
          "midi": 54,
          "name": "F#3",
          "ticks": 136800,
          "time": 285,
          "velocity": 0.5354330708661418
        },
        {
          "duration": 0.11666666666667425,
          "durationTicks": 56,
          "midi": 50,
          "name": "D3",
          "ticks": 137400,
          "time": 286.25,
          "velocity": 0.5354330708661418
        },
        {
          "duration": 0.11666666666667425,
          "durationTicks": 56,
          "midi": 52,
          "name": "E3",
          "ticks": 137460,
          "time": 286.375,
          "velocity": 0.5354330708661418
        },
        {
          "duration": 0.11666666666667425,
          "durationTicks": 56,
          "midi": 54,
          "name": "F#3",
          "ticks": 137520,
          "time": 286.5,
          "velocity": 0.5354330708661418
        },
        {
          "duration": 0.11666666666667425,
          "durationTicks": 56,
          "midi": 55,
          "name": "G3",
          "ticks": 137580,
          "time": 286.625,
          "velocity": 0.5354330708661418
        },
        {
          "duration": 0.11666666666667425,
          "durationTicks": 56,
          "midi": 57,
          "name": "A3",
          "ticks": 137640,
          "time": 286.75,
          "velocity": 0.5354330708661418
        },
        {
          "duration": 0.11666666666667425,
          "durationTicks": 56,
          "midi": 58,
          "name": "A#3",
          "ticks": 137700,
          "time": 286.875,
          "velocity": 0.5354330708661418
        },
        {
          "duration": 0.2354166666666515,
          "durationTicks": 113,
          "midi": 54,
          "name": "F#3",
          "ticks": 138240,
          "time": 288,
          "velocity": 0.5354330708661418
        },
        {
          "duration": 0.2354166666666515,
          "durationTicks": 113,
          "midi": 57,
          "name": "A3",
          "ticks": 138360,
          "time": 288.25,
          "velocity": 0.5354330708661418
        },
        {
          "duration": 0.2354166666666515,
          "durationTicks": 113,
          "midi": 60,
          "name": "C4",
          "ticks": 138480,
          "time": 288.5,
          "velocity": 0.5354330708661418
        },
        {
          "duration": 0.2354166666666515,
          "durationTicks": 113,
          "midi": 63,
          "name": "D#4",
          "ticks": 138600,
          "time": 288.75,
          "velocity": 0.5354330708661418
        },
        {
          "duration": 0.4729166666666629,
          "durationTicks": 227,
          "midi": 47,
          "name": "B2",
          "ticks": 140640,
          "time": 293,
          "velocity": 0.5354330708661418
        },
        {
          "duration": 0.4729166666666629,
          "durationTicks": 227,
          "midi": 50,
          "name": "D3",
          "ticks": 140640,
          "time": 293,
          "velocity": 0.5354330708661418
        },
        {
          "duration": 0.4729166666666629,
          "durationTicks": 227,
          "midi": 55,
          "name": "G3",
          "ticks": 140640,
          "time": 293,
          "velocity": 0.5354330708661418
        },
        {
          "duration": 0.4729166666666629,
          "durationTicks": 227,
          "midi": 41,
          "name": "F2",
          "ticks": 140640,
          "time": 293,
          "velocity": 0.5354330708661418
        },
        {
          "duration": 0.4729166666666629,
          "durationTicks": 227,
          "midi": 55,
          "name": "G3",
          "ticks": 141120,
          "time": 294,
          "velocity": 0.5354330708661418
        },
        {
          "duration": 0.4729166666666629,
          "durationTicks": 227,
          "midi": 52,
          "name": "E3",
          "ticks": 141120,
          "time": 294,
          "velocity": 0.5354330708661418
        },
        {
          "duration": 0.2354166666666515,
          "durationTicks": 113,
          "midi": 53,
          "name": "F3",
          "ticks": 141360,
          "time": 294.5,
          "velocity": 0.5354330708661418
        },
        {
          "duration": 0.4729166666666629,
          "durationTicks": 227,
          "midi": 50,
          "name": "D3",
          "ticks": 141360,
          "time": 294.5,
          "velocity": 0.5354330708661418
        },
        {
          "duration": 0.2354166666666515,
          "durationTicks": 113,
          "midi": 55,
          "name": "G3",
          "ticks": 141480,
          "time": 294.75,
          "velocity": 0.5354330708661418
        },
        {
          "duration": 0,
          "durationTicks": 0,
          "midi": 57,
          "name": "A3",
          "ticks": 141600,
          "time": 295,
          "velocity": 0.5354330708661418
        },
        {
          "duration": 1.0666666666666629,
          "durationTicks": 512,
          "midi": 57,
          "name": "A3",
          "ticks": 141600,
          "time": 295,
          "velocity": 0.5354330708661418
        },
        {
          "duration": 0.4729166666666629,
          "durationTicks": 227,
          "midi": 45,
          "name": "A2",
          "ticks": 141840,
          "time": 295.5,
          "velocity": 0.5354330708661418
        },
        {
          "duration": 0.11666666666667425,
          "durationTicks": 56,
          "midi": 50,
          "name": "D3",
          "ticks": 142140,
          "time": 296.125,
          "velocity": 0.5354330708661418
        },
        {
          "duration": 0.11666666666667425,
          "durationTicks": 56,
          "midi": 54,
          "name": "F#3",
          "ticks": 142200,
          "time": 296.25,
          "velocity": 0.5354330708661418
        },
        {
          "duration": 0.7104166666666742,
          "durationTicks": 341,
          "midi": 50,
          "name": "D3",
          "ticks": 142200,
          "time": 296.25,
          "velocity": 0.5354330708661418
        },
        {
          "duration": 0.11666666666667425,
          "durationTicks": 56,
          "midi": 57,
          "name": "A3",
          "ticks": 142260,
          "time": 296.375,
          "velocity": 0.5354330708661418
        },
        {
          "duration": 0.11666666666667425,
          "durationTicks": 56,
          "midi": 60,
          "name": "C4",
          "ticks": 142320,
          "time": 296.5,
          "velocity": 0.5354330708661418
        },
        {
          "duration": 0.11666666666667425,
          "durationTicks": 56,
          "midi": 63,
          "name": "D#4",
          "ticks": 142380,
          "time": 296.625,
          "velocity": 0.5354330708661418
        },
        {
          "duration": 0.11666666666667425,
          "durationTicks": 56,
          "midi": 62,
          "name": "D4",
          "ticks": 142440,
          "time": 296.75,
          "velocity": 0.5354330708661418
        },
        {
          "duration": 0.11666666666667425,
          "durationTicks": 56,
          "midi": 60,
          "name": "C4",
          "ticks": 142500,
          "time": 296.875,
          "velocity": 0.5354330708661418
        },
        {
          "duration": 0.9479166666666856,
          "durationTicks": 455,
          "midi": 58,
          "name": "A#3",
          "ticks": 142560,
          "time": 297,
          "velocity": 0.5354330708661418
        },
        {
          "duration": 0.9479166666666856,
          "durationTicks": 455,
          "midi": 55,
          "name": "G3",
          "ticks": 143040,
          "time": 298,
          "velocity": 0.5354330708661418
        },
        {
          "duration": 0.9479166666666856,
          "durationTicks": 455,
          "midi": 58,
          "name": "A#3",
          "ticks": 143040,
          "time": 298,
          "velocity": 0.5354330708661418
        },
        {
          "duration": 0.9479166666666856,
          "durationTicks": 455,
          "midi": 50,
          "name": "D3",
          "ticks": 143040,
          "time": 298,
          "velocity": 0.5354330708661418
        },
        {
          "duration": 0.9479166666666856,
          "durationTicks": 455,
          "midi": 57,
          "name": "A3",
          "ticks": 143520,
          "time": 299,
          "velocity": 0.5354330708661418
        },
        {
          "duration": 0.9479166666666856,
          "durationTicks": 455,
          "midi": 60,
          "name": "C4",
          "ticks": 143520,
          "time": 299,
          "velocity": 0.5354330708661418
        },
        {
          "duration": 0.9479166666666856,
          "durationTicks": 455,
          "midi": 53,
          "name": "F3",
          "ticks": 144000,
          "time": 300,
          "velocity": 0.5354330708661418
        },
        {
          "duration": 0.9479166666666856,
          "durationTicks": 455,
          "midi": 56,
          "name": "G#3",
          "ticks": 144000,
          "time": 300,
          "velocity": 0.5354330708661418
        },
        {
          "duration": 0.9479166666666856,
          "durationTicks": 455,
          "midi": 59,
          "name": "B3",
          "ticks": 144000,
          "time": 300,
          "velocity": 0.5354330708661418
        },
        {
          "duration": 0.9479166666666856,
          "durationTicks": 455,
          "midi": 50,
          "name": "D3",
          "ticks": 144000,
          "time": 300,
          "velocity": 0.5354330708661418
        },
        {
          "duration": 0.9479166666666856,
          "durationTicks": 455,
          "midi": 55,
          "name": "G3",
          "ticks": 144480,
          "time": 301,
          "velocity": 0.5354330708661418
        },
        {
          "duration": 0.9479166666666856,
          "durationTicks": 455,
          "midi": 58,
          "name": "A#3",
          "ticks": 144480,
          "time": 301,
          "velocity": 0.5354330708661418
        },
        {
          "duration": 0.9479166666666856,
          "durationTicks": 455,
          "midi": 54,
          "name": "F#3",
          "ticks": 144960,
          "time": 302,
          "velocity": 0.5354330708661418
        },
        {
          "duration": 0.9479166666666856,
          "durationTicks": 455,
          "midi": 57,
          "name": "A3",
          "ticks": 144960,
          "time": 302,
          "velocity": 0.5354330708661418
        },
        {
          "duration": 0.9479166666666856,
          "durationTicks": 455,
          "midi": 50,
          "name": "D3",
          "ticks": 144960,
          "time": 302,
          "velocity": 0.5354330708661418
        },
        {
          "duration": 0.9479166666666856,
          "durationTicks": 455,
          "midi": 53,
          "name": "F3",
          "ticks": 145440,
          "time": 303,
          "velocity": 0.5354330708661418
        },
        {
          "duration": 0.9479166666666856,
          "durationTicks": 455,
          "midi": 57,
          "name": "A3",
          "ticks": 145440,
          "time": 303,
          "velocity": 0.5354330708661418
        },
        {
          "duration": 0.9479166666666856,
          "durationTicks": 455,
          "midi": 53,
          "name": "F3",
          "ticks": 145920,
          "time": 304,
          "velocity": 0.5354330708661418
        },
        {
          "duration": 0.9479166666666856,
          "durationTicks": 455,
          "midi": 56,
          "name": "G#3",
          "ticks": 145920,
          "time": 304,
          "velocity": 0.5354330708661418
        },
        {
          "duration": 0.9479166666666856,
          "durationTicks": 455,
          "midi": 50,
          "name": "D3",
          "ticks": 145920,
          "time": 304,
          "velocity": 0.5354330708661418
        },
        {
          "duration": 0.9479166666666856,
          "durationTicks": 455,
          "midi": 52,
          "name": "E3",
          "ticks": 146400,
          "time": 305,
          "velocity": 0.5354330708661418
        },
        {
          "duration": 0.9479166666666856,
          "durationTicks": 455,
          "midi": 55,
          "name": "G3",
          "ticks": 146400,
          "time": 305,
          "velocity": 0.5354330708661418
        },
        {
          "duration": 0.9479166666666856,
          "durationTicks": 455,
          "midi": 51,
          "name": "D#3",
          "ticks": 146880,
          "time": 306,
          "velocity": 0.5354330708661418
        },
        {
          "duration": 0.9479166666666856,
          "durationTicks": 455,
          "midi": 38,
          "name": "D2",
          "ticks": 146880,
          "time": 306,
          "velocity": 0.5354330708661418
        },
        {
          "duration": 0.9479166666666856,
          "durationTicks": 455,
          "midi": 50,
          "name": "D3",
          "ticks": 147360,
          "time": 307,
          "velocity": 0.5354330708661418
        },
        {
          "duration": 0.9479166666666856,
          "durationTicks": 455,
          "midi": 53,
          "name": "F3",
          "ticks": 147360,
          "time": 307,
          "velocity": 0.5354330708661418
        },
        {
          "duration": 0.9479166666666856,
          "durationTicks": 455,
          "midi": 49,
          "name": "C#3",
          "ticks": 147840,
          "time": 308,
          "velocity": 0.5354330708661418
        },
        {
          "duration": 0.9479166666666856,
          "durationTicks": 455,
          "midi": 52,
          "name": "E3",
          "ticks": 147840,
          "time": 308,
          "velocity": 0.5354330708661418
        },
        {
          "duration": 0.9479166666666856,
          "durationTicks": 455,
          "midi": 38,
          "name": "D2",
          "ticks": 147840,
          "time": 308,
          "velocity": 0.5354330708661418
        },
        {
          "duration": 0.9479166666666856,
          "durationTicks": 455,
          "midi": 48,
          "name": "C3",
          "ticks": 148320,
          "time": 309,
          "velocity": 0.5354330708661418
        },
        {
          "duration": 0.9479166666666856,
          "durationTicks": 455,
          "midi": 51,
          "name": "D#3",
          "ticks": 148320,
          "time": 309,
          "velocity": 0.5354330708661418
        },
        {
          "duration": 0.9479166666666856,
          "durationTicks": 455,
          "midi": 54,
          "name": "F#3",
          "ticks": 148320,
          "time": 309,
          "velocity": 0.5354330708661418
        },
        {
          "duration": 0.9479166666666856,
          "durationTicks": 455,
          "midi": 47,
          "name": "B2",
          "ticks": 148800,
          "time": 310,
          "velocity": 0.5354330708661418
        },
        {
          "duration": 0.9479166666666856,
          "durationTicks": 455,
          "midi": 50,
          "name": "D3",
          "ticks": 148800,
          "time": 310,
          "velocity": 0.5354330708661418
        },
        {
          "duration": 0.9479166666666856,
          "durationTicks": 455,
          "midi": 53,
          "name": "F3",
          "ticks": 148800,
          "time": 310,
          "velocity": 0.5354330708661418
        },
        {
          "duration": 0.9479166666666856,
          "durationTicks": 455,
          "midi": 38,
          "name": "D2",
          "ticks": 148800,
          "time": 310,
          "velocity": 0.5354330708661418
        },
        {
          "duration": 0.9479166666666856,
          "durationTicks": 455,
          "midi": 46,
          "name": "A#2",
          "ticks": 149280,
          "time": 311,
          "velocity": 0.5354330708661418
        },
        {
          "duration": 0.9479166666666856,
          "durationTicks": 455,
          "midi": 50,
          "name": "D3",
          "ticks": 149280,
          "time": 311,
          "velocity": 0.5354330708661418
        },
        {
          "duration": 1.8979166666666742,
          "durationTicks": 911,
          "midi": 46,
          "name": "A#2",
          "ticks": 149760,
          "time": 312,
          "velocity": 0.5354330708661418
        },
        {
          "duration": 1.8979166666666742,
          "durationTicks": 911,
          "midi": 52,
          "name": "E3",
          "ticks": 149760,
          "time": 312,
          "velocity": 0.5354330708661418
        },
        {
          "duration": 1.8979166666666742,
          "durationTicks": 911,
          "midi": 55,
          "name": "G3",
          "ticks": 149760,
          "time": 312,
          "velocity": 0.5354330708661418
        },
        {
          "duration": 1.8979166666666742,
          "durationTicks": 911,
          "midi": 38,
          "name": "D2",
          "ticks": 149760,
          "time": 312,
          "velocity": 0.5354330708661418
        },
        {
          "duration": 1.8979166666666742,
          "durationTicks": 911,
          "midi": 45,
          "name": "A2",
          "ticks": 150720,
          "time": 314,
          "velocity": 0.5354330708661418
        },
        {
          "duration": 1.8979166666666742,
          "durationTicks": 911,
          "midi": 50,
          "name": "D3",
          "ticks": 150720,
          "time": 314,
          "velocity": 0.5354330708661418
        },
        {
          "duration": 1.8979166666666742,
          "durationTicks": 911,
          "midi": 54,
          "name": "F#3",
          "ticks": 150720,
          "time": 314,
          "velocity": 0.5354330708661418
        },
        {
          "duration": 1.8979166666666742,
          "durationTicks": 911,
          "midi": 38,
          "name": "D2",
          "ticks": 150720,
          "time": 314,
          "velocity": 0.5354330708661418
        },
        {
          "duration": 0.5416670729166526,
          "durationTicks": 455,
          "midi": 60,
          "name": "C4",
          "ticks": 170400,
          "time": 338.285731,
          "velocity": 0.5118110236220472
        },
        {
          "duration": 0.27023829791664866,
          "durationTicks": 227,
          "midi": 62,
          "name": "D4",
          "ticks": 170880,
          "time": 338.85716,
          "velocity": 0.5118110236220472
        },
        {
          "duration": 0.27023829791664866,
          "durationTicks": 227,
          "midi": 60,
          "name": "C4",
          "ticks": 171120,
          "time": 339.1428745,
          "velocity": 0.5118110236220472
        },
        {
          "duration": 0.2702382979167055,
          "durationTicks": 227,
          "midi": 59,
          "name": "B3",
          "ticks": 171360,
          "time": 339.428589,
          "velocity": 0.5118110236220472
        },
        {
          "duration": 0.27023829791664866,
          "durationTicks": 227,
          "midi": 57,
          "name": "A3",
          "ticks": 171600,
          "time": 339.7143035,
          "velocity": 0.5118110236220472
        },
        {
          "duration": 0.5416670729166526,
          "durationTicks": 455,
          "midi": 59,
          "name": "B3",
          "ticks": 171840,
          "time": 340.000018,
          "velocity": 0.5118110236220472
        },
        {
          "duration": 0.5416670729167095,
          "durationTicks": 455,
          "midi": 52,
          "name": "E3",
          "ticks": 172320,
          "time": 340.571447,
          "velocity": 0.5118110236220472
        },
        {
          "duration": 0.5416670729166526,
          "durationTicks": 455,
          "midi": 56,
          "name": "G#3",
          "ticks": 172800,
          "time": 341.142876,
          "velocity": 0.5118110236220472
        },
        {
          "duration": 0.27023829791664866,
          "durationTicks": 227,
          "midi": 57,
          "name": "A3",
          "ticks": 173280,
          "time": 341.714305,
          "velocity": 0.5118110236220472
        },
        {
          "duration": 0.13452391041664669,
          "durationTicks": 113,
          "midi": 57,
          "name": "A3",
          "ticks": 173520,
          "time": 342.0000195,
          "velocity": 0.5118110236220472
        },
        {
          "duration": 0.13452391041664669,
          "durationTicks": 113,
          "midi": 59,
          "name": "B3",
          "ticks": 173640,
          "time": 342.14287675,
          "velocity": 0.5118110236220472
        },
        {
          "duration": 0.5416670729166526,
          "durationTicks": 455,
          "midi": 57,
          "name": "A3",
          "ticks": 177600,
          "time": 346.857166,
          "velocity": 0.5118110236220472
        },
        {
          "duration": 0.5416670729167095,
          "durationTicks": 455,
          "midi": 58,
          "name": "A#3",
          "ticks": 178080,
          "time": 347.428595,
          "velocity": 0.5118110236220472
        },
        {
          "duration": 0.5416670729166526,
          "durationTicks": 455,
          "midi": 59,
          "name": "B3",
          "ticks": 178560,
          "time": 348.000024,
          "velocity": 0.5118110236220472
        },
        {
          "duration": 0.5416670729166526,
          "durationTicks": 455,
          "midi": 60,
          "name": "C4",
          "ticks": 179040,
          "time": 348.571453,
          "velocity": 0.5118110236220472
        },
        {
          "duration": 0.27023829791664866,
          "durationTicks": 227,
          "midi": 60,
          "name": "C4",
          "ticks": 179520,
          "time": 349.142882,
          "velocity": 0.5118110236220472
        },
        {
          "duration": 0.27023829791664866,
          "durationTicks": 227,
          "midi": 59,
          "name": "B3",
          "ticks": 179760,
          "time": 349.4285965,
          "velocity": 0.5118110236220472
        },
        {
          "duration": 0.5416670729166526,
          "durationTicks": 455,
          "midi": 60,
          "name": "C4",
          "ticks": 180000,
          "time": 349.714311,
          "velocity": 0.5118110236220472
        },
        {
          "duration": 0.5416670729167095,
          "durationTicks": 455,
          "midi": 52,
          "name": "E3",
          "ticks": 180480,
          "time": 350.28574,
          "velocity": 0.5118110236220472
        },
        {
          "duration": 0.5416670729166526,
          "durationTicks": 455,
          "midi": 53,
          "name": "F3",
          "ticks": 180960,
          "time": 350.857169,
          "velocity": 0.5118110236220472
        },
        {
          "duration": 0.5416670729166526,
          "durationTicks": 455,
          "midi": 54,
          "name": "F#3",
          "ticks": 181440,
          "time": 351.428598,
          "velocity": 0.5118110236220472
        },
        {
          "duration": 0.5416670729166526,
          "durationTicks": 455,
          "midi": 55,
          "name": "G3",
          "ticks": 181920,
          "time": 352.000027,
          "velocity": 0.5118110236220472
        },
        {
          "duration": 0.27023829791664866,
          "durationTicks": 227,
          "midi": 55,
          "name": "G3",
          "ticks": 182400,
          "time": 352.571456,
          "velocity": 0.5118110236220472
        },
        {
          "duration": 0.27023829791664866,
          "durationTicks": 227,
          "midi": 54,
          "name": "F#3",
          "ticks": 182640,
          "time": 352.8571705,
          "velocity": 0.5118110236220472
        },
        {
          "duration": 0.2702382979167055,
          "durationTicks": 227,
          "midi": 55,
          "name": "G3",
          "ticks": 182880,
          "time": 353.142885,
          "velocity": 0.5118110236220472
        },
        {
          "duration": 0.27023829791664866,
          "durationTicks": 227,
          "midi": 57,
          "name": "A3",
          "ticks": 183120,
          "time": 353.4285995,
          "velocity": 0.5118110236220472
        },
        {
          "duration": 0.5416670729166526,
          "durationTicks": 455,
          "midi": 58,
          "name": "A#3",
          "ticks": 183360,
          "time": 353.714314,
          "velocity": 0.5118110236220472
        },
        {
          "duration": 0.5416670729166526,
          "durationTicks": 455,
          "midi": 57,
          "name": "A3",
          "ticks": 183840,
          "time": 354.285743,
          "velocity": 0.5118110236220472
        },
        {
          "duration": 0.5416670729166526,
          "durationTicks": 455,
          "midi": 55,
          "name": "G3",
          "ticks": 184320,
          "time": 354.857172,
          "velocity": 0.5118110236220472
        },
        {
          "duration": 0.5416670729166526,
          "durationTicks": 455,
          "midi": 53,
          "name": "F3",
          "ticks": 184800,
          "time": 355.428601,
          "velocity": 0.5118110236220472
        },
        {
          "duration": 0.2702382979167055,
          "durationTicks": 227,
          "midi": 55,
          "name": "G3",
          "ticks": 185280,
          "time": 356.00003,
          "velocity": 0.5118110236220472
        },
        {
          "duration": 0.27023829791664866,
          "durationTicks": 227,
          "midi": 53,
          "name": "F3",
          "ticks": 185520,
          "time": 356.2857445,
          "velocity": 0.5118110236220472
        },
        {
          "duration": 0.27023829791664866,
          "durationTicks": 227,
          "midi": 52,
          "name": "E3",
          "ticks": 185760,
          "time": 356.571459,
          "velocity": 0.5118110236220472
        },
        {
          "duration": 0.2702382979167055,
          "durationTicks": 227,
          "midi": 50,
          "name": "D3",
          "ticks": 186000,
          "time": 356.8571735,
          "velocity": 0.5118110236220472
        },
        {
          "duration": 0.5416670729167095,
          "durationTicks": 455,
          "midi": 52,
          "name": "E3",
          "ticks": 186240,
          "time": 357.14288799999997,
          "velocity": 0.5118110236220472
        },
        {
          "duration": 0.5416670729166526,
          "durationTicks": 455,
          "midi": 45,
          "name": "A2",
          "ticks": 186720,
          "time": 357.714317,
          "velocity": 0.5118110236220472
        },
        {
          "duration": 0.5416670729166526,
          "durationTicks": 455,
          "midi": 49,
          "name": "C#3",
          "ticks": 187200,
          "time": 358.285746,
          "velocity": 0.5118110236220472
        },
        {
          "duration": 0.5416670729166526,
          "durationTicks": 455,
          "midi": 50,
          "name": "D3",
          "ticks": 187680,
          "time": 358.857175,
          "velocity": 0.5118110236220472
        },
        {
          "duration": 0.5416670729166526,
          "durationTicks": 455,
          "midi": 38,
          "name": "D2",
          "ticks": 188160,
          "time": 359.428604,
          "velocity": 0.5118110236220472
        },
        {
          "duration": 0.5416670729167095,
          "durationTicks": 455,
          "midi": 50,
          "name": "D3",
          "ticks": 188640,
          "time": 360.000033,
          "velocity": 0.5118110236220472
        },
        {
          "duration": 0.27023829791664866,
          "durationTicks": 227,
          "midi": 52,
          "name": "E3",
          "ticks": 189120,
          "time": 360.571462,
          "velocity": 0.5118110236220472
        },
        {
          "duration": 0.13452391041670353,
          "durationTicks": 113,
          "midi": 55,
          "name": "G3",
          "ticks": 189360,
          "time": 360.8571765,
          "velocity": 0.5118110236220472
        },
        {
          "duration": 0.13452391041664669,
          "durationTicks": 113,
          "midi": 53,
          "name": "F3",
          "ticks": 189480,
          "time": 361.00003375,
          "velocity": 0.5118110236220472
        },
        {
          "duration": 0.27023829791664866,
          "durationTicks": 227,
          "midi": 52,
          "name": "E3",
          "ticks": 189600,
          "time": 361.142891,
          "velocity": 0.5118110236220472
        },
        {
          "duration": 0.13452391041664669,
          "durationTicks": 113,
          "midi": 52,
          "name": "E3",
          "ticks": 189840,
          "time": 361.4286055,
          "velocity": 0.5118110236220472
        },
        {
          "duration": 0.13452391041664669,
          "durationTicks": 113,
          "midi": 50,
          "name": "D3",
          "ticks": 189960,
          "time": 361.57146275,
          "velocity": 0.5118110236220472
        },
        {
          "duration": 0.2702382979167055,
          "durationTicks": 227,
          "midi": 48,
          "name": "C3",
          "ticks": 190080,
          "time": 361.71432,
          "velocity": 0.5118110236220472
        },
        {
          "duration": 0.13452391041670353,
          "durationTicks": 113,
          "midi": 48,
          "name": "C3",
          "ticks": 190320,
          "time": 362.00003449999997,
          "velocity": 0.5118110236220472
        },
        {
          "duration": 0.13452391041664669,
          "durationTicks": 113,
          "midi": 46,
          "name": "A#2",
          "ticks": 190440,
          "time": 362.14289175,
          "velocity": 0.5118110236220472
        },
        {
          "duration": 0.27023829791664866,
          "durationTicks": 227,
          "midi": 45,
          "name": "A2",
          "ticks": 190560,
          "time": 362.285749,
          "velocity": 0.5118110236220472
        },
        {
          "duration": 0.13452391041664669,
          "durationTicks": 113,
          "midi": 60,
          "name": "C4",
          "ticks": 190800,
          "time": 362.5714635,
          "velocity": 0.5118110236220472
        },
        {
          "duration": 0.13452391041664669,
          "durationTicks": 113,
          "midi": 58,
          "name": "A#3",
          "ticks": 190920,
          "time": 362.71432075,
          "velocity": 0.5118110236220472
        },
        {
          "duration": 0.2702382979167055,
          "durationTicks": 227,
          "midi": 57,
          "name": "A3",
          "ticks": 191040,
          "time": 362.857178,
          "velocity": 0.5118110236220472
        },
        {
          "duration": 0.13452391041664669,
          "durationTicks": 113,
          "midi": 57,
          "name": "A3",
          "ticks": 191280,
          "time": 363.1428925,
          "velocity": 0.5118110236220472
        },
        {
          "duration": 0.13452391041670353,
          "durationTicks": 113,
          "midi": 55,
          "name": "G3",
          "ticks": 191400,
          "time": 363.28574975,
          "velocity": 0.5118110236220472
        },
        {
          "duration": 0.27023829791664866,
          "durationTicks": 227,
          "midi": 53,
          "name": "F3",
          "ticks": 191520,
          "time": 363.428607,
          "velocity": 0.5118110236220472
        },
        {
          "duration": 0.13452391041670353,
          "durationTicks": 113,
          "midi": 53,
          "name": "F3",
          "ticks": 191760,
          "time": 363.7143215,
          "velocity": 0.5118110236220472
        },
        {
          "duration": 0.13452391041664669,
          "durationTicks": 113,
          "midi": 52,
          "name": "E3",
          "ticks": 191880,
          "time": 363.85717875,
          "velocity": 0.5118110236220472
        },
        {
          "duration": 0.27023829791664866,
          "durationTicks": 227,
          "midi": 50,
          "name": "D3",
          "ticks": 192000,
          "time": 364.000036,
          "velocity": 0.5118110236220472
        },
        {
          "duration": 0.13452391041664669,
          "durationTicks": 113,
          "midi": 53,
          "name": "F3",
          "ticks": 192240,
          "time": 364.2857505,
          "velocity": 0.5118110236220472
        },
        {
          "duration": 0.13452391041670353,
          "durationTicks": 113,
          "midi": 52,
          "name": "E3",
          "ticks": 192360,
          "time": 364.42860774999997,
          "velocity": 0.5118110236220472
        },
        {
          "duration": 0.27023829791664866,
          "durationTicks": 227,
          "midi": 50,
          "name": "D3",
          "ticks": 192480,
          "time": 364.571465,
          "velocity": 0.5118110236220472
        },
        {
          "duration": 0.13452391041670353,
          "durationTicks": 113,
          "midi": 50,
          "name": "D3",
          "ticks": 192720,
          "time": 364.8571795,
          "velocity": 0.5118110236220472
        },
        {
          "duration": 0.13452391041664669,
          "durationTicks": 113,
          "midi": 48,
          "name": "C3",
          "ticks": 192840,
          "time": 365.00003675,
          "velocity": 0.5118110236220472
        },
        {
          "duration": 0.27023829791664866,
          "durationTicks": 227,
          "midi": 46,
          "name": "A#2",
          "ticks": 192960,
          "time": 365.142894,
          "velocity": 0.5118110236220472
        },
        {
          "duration": 0.13452391041664669,
          "durationTicks": 113,
          "midi": 46,
          "name": "A#2",
          "ticks": 193200,
          "time": 365.4286085,
          "velocity": 0.5118110236220472
        },
        {
          "duration": 0.13452391041664669,
          "durationTicks": 113,
          "midi": 45,
          "name": "A2",
          "ticks": 193320,
          "time": 365.57146575,
          "velocity": 0.5118110236220472
        },
        {
          "duration": 0.2702382979167055,
          "durationTicks": 227,
          "midi": 43,
          "name": "G2",
          "ticks": 193440,
          "time": 365.714323,
          "velocity": 0.5118110236220472
        },
        {
          "duration": 0.13452391041664669,
          "durationTicks": 113,
          "midi": 58,
          "name": "A#3",
          "ticks": 193680,
          "time": 366.0000375,
          "velocity": 0.5118110236220472
        },
        {
          "duration": 0.13452391041670353,
          "durationTicks": 113,
          "midi": 57,
          "name": "A3",
          "ticks": 193800,
          "time": 366.14289475,
          "velocity": 0.5118110236220472
        },
        {
          "duration": 0.27023829791664866,
          "durationTicks": 227,
          "midi": 55,
          "name": "G3",
          "ticks": 193920,
          "time": 366.285752,
          "velocity": 0.5118110236220472
        },
        {
          "duration": 0.13452391041670353,
          "durationTicks": 113,
          "midi": 55,
          "name": "G3",
          "ticks": 194160,
          "time": 366.5714665,
          "velocity": 0.5118110236220472
        },
        {
          "duration": 0.13452391041664669,
          "durationTicks": 113,
          "midi": 53,
          "name": "F3",
          "ticks": 194280,
          "time": 366.71432375,
          "velocity": 0.5118110236220472
        },
        {
          "duration": 0.2702382979167055,
          "durationTicks": 227,
          "midi": 52,
          "name": "E3",
          "ticks": 194400,
          "time": 366.85718099999997,
          "velocity": 0.5118110236220472
        },
        {
          "duration": 0.13452391041664669,
          "durationTicks": 113,
          "midi": 52,
          "name": "E3",
          "ticks": 194640,
          "time": 367.1428955,
          "velocity": 0.5118110236220472
        },
        {
          "duration": 0.13452391041664669,
          "durationTicks": 113,
          "midi": 50,
          "name": "D3",
          "ticks": 194760,
          "time": 367.28575275000003,
          "velocity": 0.5118110236220472
        },
        {
          "duration": 0.5416670729166526,
          "durationTicks": 455,
          "midi": 48,
          "name": "C3",
          "ticks": 194880,
          "time": 367.42861,
          "velocity": 0.5118110236220472
        },
        {
          "duration": 0.27023829791664866,
          "durationTicks": 227,
          "midi": 57,
          "name": "A3",
          "ticks": 195600,
          "time": 368.2857535,
          "velocity": 0.5118110236220472
        },
        {
          "duration": 0.27023829791664866,
          "durationTicks": 227,
          "midi": 53,
          "name": "F3",
          "ticks": 195600,
          "time": 368.2857535,
          "velocity": 0.5118110236220472
        },
        {
          "duration": 0.27023829791664866,
          "durationTicks": 227,
          "midi": 58,
          "name": "A#3",
          "ticks": 195840,
          "time": 368.571468,
          "velocity": 0.5118110236220472
        },
        {
          "duration": 0.27023829791664866,
          "durationTicks": 227,
          "midi": 55,
          "name": "G3",
          "ticks": 195840,
          "time": 368.571468,
          "velocity": 0.5118110236220472
        },
        {
          "duration": 0.27023829791664866,
          "durationTicks": 227,
          "midi": 60,
          "name": "C4",
          "ticks": 196080,
          "time": 368.8571825,
          "velocity": 0.5118110236220472
        },
        {
          "duration": 0.27023829791664866,
          "durationTicks": 227,
          "midi": 57,
          "name": "A3",
          "ticks": 196080,
          "time": 368.8571825,
          "velocity": 0.5118110236220472
        },
        {
          "duration": 0.27023829791664866,
          "durationTicks": 227,
          "midi": 62,
          "name": "D4",
          "ticks": 196320,
          "time": 369.142897,
          "velocity": 0.5118110236220472
        },
        {
          "duration": 0.27023829791664866,
          "durationTicks": 227,
          "midi": 58,
          "name": "A#3",
          "ticks": 196320,
          "time": 369.142897,
          "velocity": 0.5118110236220472
        },
        {
          "duration": 0.27023829791664866,
          "durationTicks": 227,
          "midi": 60,
          "name": "C4",
          "ticks": 196560,
          "time": 369.4286115,
          "velocity": 0.5118110236220472
        },
        {
          "duration": 0.27023829791664866,
          "durationTicks": 227,
          "midi": 57,
          "name": "A3",
          "ticks": 196560,
          "time": 369.4286115,
          "velocity": 0.5118110236220472
        },
        {
          "duration": 0.27023829791664866,
          "durationTicks": 227,
          "midi": 62,
          "name": "D4",
          "ticks": 196800,
          "time": 369.714326,
          "velocity": 0.5118110236220472
        },
        {
          "duration": 0.27023829791664866,
          "durationTicks": 227,
          "midi": 58,
          "name": "A#3",
          "ticks": 196800,
          "time": 369.714326,
          "velocity": 0.5118110236220472
        },
        {
          "duration": 0.27023829791664866,
          "durationTicks": 227,
          "midi": 63,
          "name": "D#4",
          "ticks": 197040,
          "time": 370.0000405,
          "velocity": 0.5118110236220472
        },
        {
          "duration": 0.27023829791664866,
          "durationTicks": 227,
          "midi": 60,
          "name": "C4",
          "ticks": 197040,
          "time": 370.0000405,
          "velocity": 0.5118110236220472
        },
        {
          "duration": 0.27023829791664866,
          "durationTicks": 227,
          "midi": 65,
          "name": "F4",
          "ticks": 197280,
          "time": 370.285755,
          "velocity": 0.5118110236220472
        },
        {
          "duration": 0.27023829791664866,
          "durationTicks": 227,
          "midi": 62,
          "name": "D4",
          "ticks": 197280,
          "time": 370.285755,
          "velocity": 0.5118110236220472
        },
        {
          "duration": 0.2702382979167055,
          "durationTicks": 227,
          "midi": 63,
          "name": "D#4",
          "ticks": 197520,
          "time": 370.5714695,
          "velocity": 0.5118110236220472
        },
        {
          "duration": 0.2702382979167055,
          "durationTicks": 227,
          "midi": 60,
          "name": "C4",
          "ticks": 197520,
          "time": 370.5714695,
          "velocity": 0.5118110236220472
        },
        {
          "duration": 1.6273821729166116,
          "durationTicks": 1367,
          "midi": 62,
          "name": "D4",
          "ticks": 197760,
          "time": 370.857184,
          "velocity": 0.5118110236220472
        },
        {
          "duration": 0.27023829791664866,
          "durationTicks": 227,
          "midi": 58,
          "name": "A#3",
          "ticks": 197760,
          "time": 370.857184,
          "velocity": 0.5118110236220472
        },
        {
          "duration": 0.27023829791664866,
          "durationTicks": 227,
          "midi": 57,
          "name": "A3",
          "ticks": 198000,
          "time": 371.1428985,
          "velocity": 0.5118110236220472
        },
        {
          "duration": 0.2702382979167055,
          "durationTicks": 227,
          "midi": 55,
          "name": "G3",
          "ticks": 198240,
          "time": 371.428613,
          "velocity": 0.5118110236220472
        },
        {
          "duration": 0.2702382979167055,
          "durationTicks": 227,
          "midi": 57,
          "name": "A3",
          "ticks": 198480,
          "time": 371.71432749999997,
          "velocity": 0.5118110236220472
        },
        {
          "duration": 0.8130958479166566,
          "durationTicks": 683,
          "midi": 58,
          "name": "A#3",
          "ticks": 198720,
          "time": 372.000042,
          "velocity": 0.5118110236220472
        },
        {
          "duration": 0.14285725000002003,
          "durationTicks": 120,
          "midi": 60,
          "name": "C4",
          "ticks": 199200,
          "time": 372.571471,
          "velocity": 0.5118110236220472
        },
        {
          "duration": 0.27023829791664866,
          "durationTicks": 227,
          "midi": 58,
          "name": "A#3",
          "ticks": 199440,
          "time": 372.8571855,
          "velocity": 0.5118110236220472
        },
        {
          "duration": 0.27023829791664866,
          "durationTicks": 227,
          "midi": 60,
          "name": "C4",
          "ticks": 199680,
          "time": 373.1429,
          "velocity": 0.5118110236220472
        },
        {
          "duration": 0.27023829791664866,
          "durationTicks": 227,
          "midi": 57,
          "name": "A3",
          "ticks": 199680,
          "time": 373.1429,
          "velocity": 0.5118110236220472
        },
        {
          "duration": 0.27023829791664866,
          "durationTicks": 227,
          "midi": 58,
          "name": "A#3",
          "ticks": 199920,
          "time": 373.4286145,
          "velocity": 0.5118110236220472
        },
        {
          "duration": 0.27023829791664866,
          "durationTicks": 227,
          "midi": 55,
          "name": "G3",
          "ticks": 199920,
          "time": 373.4286145,
          "velocity": 0.5118110236220472
        },
        {
          "duration": 0.27023829791664866,
          "durationTicks": 227,
          "midi": 57,
          "name": "A3",
          "ticks": 200160,
          "time": 373.714329,
          "velocity": 0.5118110236220472
        },
        {
          "duration": 0.27023829791664866,
          "durationTicks": 227,
          "midi": 53,
          "name": "F3",
          "ticks": 200160,
          "time": 373.714329,
          "velocity": 0.5118110236220472
        },
        {
          "duration": 0.27023829791664866,
          "durationTicks": 227,
          "midi": 55,
          "name": "G3",
          "ticks": 200400,
          "time": 374.0000435,
          "velocity": 0.5118110236220472
        },
        {
          "duration": 0.27023829791664866,
          "durationTicks": 227,
          "midi": 52,
          "name": "E3",
          "ticks": 200400,
          "time": 374.0000435,
          "velocity": 0.5118110236220472
        },
        {
          "duration": 0.27023829791664866,
          "durationTicks": 227,
          "midi": 57,
          "name": "A3",
          "ticks": 200640,
          "time": 374.285758,
          "velocity": 0.5118110236220472
        },
        {
          "duration": 0.27023829791664866,
          "durationTicks": 227,
          "midi": 53,
          "name": "F3",
          "ticks": 200640,
          "time": 374.285758,
          "velocity": 0.5118110236220472
        },
        {
          "duration": 0.5416670729166526,
          "durationTicks": 455,
          "midi": 53,
          "name": "F3",
          "ticks": 200880,
          "time": 374.5714725,
          "velocity": 0.5118110236220472
        },
        {
          "duration": 0.27023829791664866,
          "durationTicks": 227,
          "midi": 46,
          "name": "A#2",
          "ticks": 200880,
          "time": 374.5714725,
          "velocity": 0.5118110236220472
        },
        {
          "duration": 1.0845246229166605,
          "durationTicks": 911,
          "midi": 48,
          "name": "C3",
          "ticks": 201120,
          "time": 374.857187,
          "velocity": 0.5118110236220472
        },
        {
          "duration": 0.13452391041664669,
          "durationTicks": 113,
          "midi": 52,
          "name": "E3",
          "ticks": 201360,
          "time": 375.1429015,
          "velocity": 0.5118110236220472
        },
        {
          "duration": 0.13452391041664669,
          "durationTicks": 113,
          "midi": 50,
          "name": "D3",
          "ticks": 201480,
          "time": 375.28575875,
          "velocity": 0.5118110236220472
        },
        {
          "duration": 0.2702382979167055,
          "durationTicks": 227,
          "midi": 52,
          "name": "E3",
          "ticks": 201600,
          "time": 375.428616,
          "velocity": 0.5118110236220472
        },
        {
          "duration": 0.40595268541665064,
          "durationTicks": 341,
          "midi": 58,
          "name": "A#3",
          "ticks": 201840,
          "time": 375.7143305,
          "velocity": 0.5118110236220472
        },
        {
          "duration": 0.6773814604166546,
          "durationTicks": 569,
          "midi": 53,
          "name": "F3",
          "ticks": 202080,
          "time": 376.000045,
          "velocity": 0.5118110236220472
        },
        {
          "duration": 0.13452391041664669,
          "durationTicks": 113,
          "midi": 58,
          "name": "A#3",
          "ticks": 202200,
          "time": 376.14290225,
          "velocity": 0.5118110236220472
        },
        {
          "duration": 0.13452391041670353,
          "durationTicks": 113,
          "midi": 57,
          "name": "A3",
          "ticks": 202320,
          "time": 376.2857595,
          "velocity": 0.5118110236220472
        },
        {
          "duration": 0.13452391041664669,
          "durationTicks": 113,
          "midi": 55,
          "name": "G3",
          "ticks": 202440,
          "time": 376.42861675,
          "velocity": 0.5118110236220472
        },
        {
          "duration": 0.8130958479167134,
          "durationTicks": 683,
          "midi": 57,
          "name": "A3",
          "ticks": 202560,
          "time": 376.57147399999997,
          "velocity": 0.5118110236220472
        },
        {
          "duration": 0.13452391041664669,
          "durationTicks": 113,
          "midi": 55,
          "name": "G3",
          "ticks": 202680,
          "time": 376.71433125,
          "velocity": 0.5118110236220472
        },
        {
          "duration": 0.13452391041664669,
          "durationTicks": 113,
          "midi": 53,
          "name": "F3",
          "ticks": 202800,
          "time": 376.8571885,
          "velocity": 0.5118110236220472
        },
        {
          "duration": 0.13452391041664669,
          "durationTicks": 113,
          "midi": 52,
          "name": "E3",
          "ticks": 202920,
          "time": 377.00004575,
          "velocity": 0.5118110236220472
        },
        {
          "duration": 0.13452391041670353,
          "durationTicks": 113,
          "midi": 50,
          "name": "D3",
          "ticks": 203040,
          "time": 377.142903,
          "velocity": 0.5118110236220472
        },
        {
          "duration": 0.13452391041664669,
          "durationTicks": 113,
          "midi": 55,
          "name": "G3",
          "ticks": 203160,
          "time": 377.28576025,
          "velocity": 0.5118110236220472
        },
        {
          "duration": 0.2702382979167055,
          "durationTicks": 227,
          "midi": 59,
          "name": "B3",
          "ticks": 203280,
          "time": 377.4286175,
          "velocity": 0.5118110236220472
        },
        {
          "duration": 0.13452391041670353,
          "durationTicks": 113,
          "midi": 53,
          "name": "F3",
          "ticks": 203280,
          "time": 377.4286175,
          "velocity": 0.5118110236220472
        },
        {
          "duration": 0.13452391041664669,
          "durationTicks": 113,
          "midi": 55,
          "name": "G3",
          "ticks": 203400,
          "time": 377.57147475,
          "velocity": 0.5118110236220472
        },
        {
          "duration": 0.5416670729166526,
          "durationTicks": 455,
          "midi": 48,
          "name": "C3",
          "ticks": 203520,
          "time": 377.714332,
          "velocity": 0.5118110236220472
        },
        {
          "duration": 0.27023829791664866,
          "durationTicks": 227,
          "midi": 45,
          "name": "A2",
          "ticks": 204240,
          "time": 378.5714755,
          "velocity": 0.5118110236220472
        },
        {
          "duration": 0.27023829791664866,
          "durationTicks": 227,
          "midi": 50,
          "name": "D3",
          "ticks": 204480,
          "time": 378.85719,
          "velocity": 0.5118110236220472
        },
        {
          "duration": 0.27023829791664866,
          "durationTicks": 227,
          "midi": 38,
          "name": "D2",
          "ticks": 204720,
          "time": 379.1429045,
          "velocity": 0.5118110236220472
        },
        {
          "duration": 0.27023829791664866,
          "durationTicks": 227,
          "midi": 43,
          "name": "G2",
          "ticks": 204960,
          "time": 379.428619,
          "velocity": 0.5118110236220472
        },
        {
          "duration": 0.27023829791664866,
          "durationTicks": 227,
          "midi": 50,
          "name": "D3",
          "ticks": 205200,
          "time": 379.7143335,
          "velocity": 0.5118110236220472
        },
        {
          "duration": 0.27023829791664866,
          "durationTicks": 227,
          "midi": 55,
          "name": "G3",
          "ticks": 205440,
          "time": 380.000048,
          "velocity": 0.5118110236220472
        },
        {
          "duration": 0.2702382979167055,
          "durationTicks": 227,
          "midi": 52,
          "name": "E3",
          "ticks": 205680,
          "time": 380.2857625,
          "velocity": 0.5118110236220472
        },
        {
          "duration": 0.27023829791664866,
          "durationTicks": 227,
          "midi": 57,
          "name": "A3",
          "ticks": 205920,
          "time": 380.571477,
          "velocity": 0.5118110236220472
        },
        {
          "duration": 0.27023829791664866,
          "durationTicks": 227,
          "midi": 45,
          "name": "A2",
          "ticks": 206160,
          "time": 380.8571915,
          "velocity": 0.5118110236220472
        },
        {
          "duration": 0.5416670729167095,
          "durationTicks": 455,
          "midi": 50,
          "name": "D3",
          "ticks": 206400,
          "time": 381.142906,
          "velocity": 0.5118110236220472
        },
        {
          "duration": 0.5416670729166526,
          "durationTicks": 455,
          "midi": 54,
          "name": "F#3",
          "ticks": 206880,
          "time": 381.714335,
          "velocity": 0.5118110236220472
        },
        {
          "duration": 0.5416670729167095,
          "durationTicks": 455,
          "midi": 56,
          "name": "G#3",
          "ticks": 207360,
          "time": 382.285764,
          "velocity": 0.5118110236220472
        },
        {
          "duration": 0.6773814604166546,
          "durationTicks": 569,
          "midi": 57,
          "name": "A3",
          "ticks": 207840,
          "time": 382.857193,
          "velocity": 0.5118110236220472
        },
        {
          "duration": 0.13452391041670353,
          "durationTicks": 113,
          "midi": 59,
          "name": "B3",
          "ticks": 208440,
          "time": 383.57147925,
          "velocity": 0.5118110236220472
        },
        {
          "duration": 0.13452391041664669,
          "durationTicks": 113,
          "midi": 57,
          "name": "A3",
          "ticks": 208560,
          "time": 383.7143365,
          "velocity": 0.5118110236220472
        },
        {
          "duration": 0.13452391041670353,
          "durationTicks": 113,
          "midi": 55,
          "name": "G3",
          "ticks": 208680,
          "time": 383.85719374999996,
          "velocity": 0.5118110236220472
        },
        {
          "duration": 0.13452391041664669,
          "durationTicks": 113,
          "midi": 54,
          "name": "F#3",
          "ticks": 208800,
          "time": 384.000051,
          "velocity": 0.5118110236220472
        },
        {
          "duration": 0.13452391041664669,
          "durationTicks": 113,
          "midi": 59,
          "name": "B3",
          "ticks": 208920,
          "time": 384.14290825,
          "velocity": 0.5118110236220472
        },
        {
          "duration": 0.13452391041664669,
          "durationTicks": 113,
          "midi": 57,
          "name": "A3",
          "ticks": 209040,
          "time": 384.2857655,
          "velocity": 0.5118110236220472
        },
        {
          "duration": 0.13452391041670353,
          "durationTicks": 113,
          "midi": 59,
          "name": "B3",
          "ticks": 209160,
          "time": 384.42862275,
          "velocity": 0.5118110236220472
        },
        {
          "duration": 0.5416670729166526,
          "durationTicks": 455,
          "midi": 52,
          "name": "E3",
          "ticks": 209280,
          "time": 384.57148,
          "velocity": 0.5118110236220472
        },
        {
          "duration": 0.27023829791664866,
          "durationTicks": 227,
          "midi": 52,
          "name": "E3",
          "ticks": 210000,
          "time": 385.4286235,
          "velocity": 0.5118110236220472
        },
        {
          "duration": 0.27023829791664866,
          "durationTicks": 227,
          "midi": 56,
          "name": "G#3",
          "ticks": 210240,
          "time": 385.714338,
          "velocity": 0.5118110236220472
        },
        {
          "duration": 0.2702382979167055,
          "durationTicks": 227,
          "midi": 52,
          "name": "E3",
          "ticks": 210480,
          "time": 386.0000525,
          "velocity": 0.5118110236220472
        },
        {
          "duration": 0.5416670729167095,
          "durationTicks": 455,
          "midi": 57,
          "name": "A3",
          "ticks": 210720,
          "time": 386.28576699999996,
          "velocity": 0.5118110236220472
        },
        {
          "duration": 0.5416670729166526,
          "durationTicks": 455,
          "midi": 45,
          "name": "A2",
          "ticks": 211680,
          "time": 387.428625,
          "velocity": 0.5118110236220472
        },
        {
          "duration": 0.5416670729166526,
          "durationTicks": 455,
          "midi": 52,
          "name": "E3",
          "ticks": 212160,
          "time": 388.000054,
          "velocity": 0.5118110236220472
        },
        {
          "duration": 0.13452391041664669,
          "durationTicks": 113,
          "midi": 52,
          "name": "E3",
          "ticks": 213720,
          "time": 389.85719825,
          "velocity": 0.5118110236220472
        },
        {
          "duration": 0.13452391041664669,
          "durationTicks": 113,
          "midi": 53,
          "name": "F3",
          "ticks": 213840,
          "time": 390.00005550000003,
          "velocity": 0.5118110236220472
        },
        {
          "duration": 0.13452391041670353,
          "durationTicks": 113,
          "midi": 55,
          "name": "G3",
          "ticks": 213960,
          "time": 390.14291275,
          "velocity": 0.5118110236220472
        },
        {
          "duration": 0.27023829791664866,
          "durationTicks": 227,
          "midi": 57,
          "name": "A3",
          "ticks": 214080,
          "time": 390.28577,
          "velocity": 0.5118110236220472
        },
        {
          "duration": 0.13452391041664669,
          "durationTicks": 113,
          "midi": 57,
          "name": "A3",
          "ticks": 214320,
          "time": 390.5714845,
          "velocity": 0.5118110236220472
        },
        {
          "duration": 0.13452391041664669,
          "durationTicks": 113,
          "midi": 55,
          "name": "G3",
          "ticks": 214440,
          "time": 390.71434175,
          "velocity": 0.5118110236220472
        },
        {
          "duration": 0.2702382979167055,
          "durationTicks": 227,
          "midi": 53,
          "name": "F3",
          "ticks": 214560,
          "time": 390.857199,
          "velocity": 0.5118110236220472
        },
        {
          "duration": 0.13452391041670353,
          "durationTicks": 113,
          "midi": 53,
          "name": "F3",
          "ticks": 214800,
          "time": 391.14291349999996,
          "velocity": 0.5118110236220472
        },
        {
          "duration": 0.13452391041670353,
          "durationTicks": 113,
          "midi": 52,
          "name": "E3",
          "ticks": 214920,
          "time": 391.28577075,
          "velocity": 0.5118110236220472
        },
        {
          "duration": 0.5416670729166526,
          "durationTicks": 455,
          "midi": 50,
          "name": "D3",
          "ticks": 215040,
          "time": 391.428628,
          "velocity": 0.5118110236220472
        },
        {
          "duration": 1.6273821729166684,
          "durationTicks": 1367,
          "midi": 56,
          "name": "G#3",
          "ticks": 216480,
          "time": 393.142915,
          "velocity": 0.5118110236220472
        },
        {
          "duration": 1.428572499999973,
          "durationTicks": 1200,
          "midi": 57,
          "name": "A3",
          "ticks": 217920,
          "time": 394.85720200000003,
          "velocity": 0.5118110236220472
        },
        {
          "duration": 0.5416670729166526,
          "durationTicks": 455,
          "midi": 59,
          "name": "B3",
          "ticks": 219360,
          "time": 396.571489,
          "velocity": 0.5118110236220472
        },
        {
          "duration": 0.5416670729166526,
          "durationTicks": 455,
          "midi": 52,
          "name": "E3",
          "ticks": 219840,
          "time": 397.142918,
          "velocity": 0.5118110236220472
        },
        {
          "duration": 0.5416670729166526,
          "durationTicks": 455,
          "midi": 56,
          "name": "G#3",
          "ticks": 219840,
          "time": 397.142918,
          "velocity": 0.5118110236220472
        },
        {
          "duration": 0.5416670729166526,
          "durationTicks": 455,
          "midi": 56,
          "name": "G#3",
          "ticks": 220320,
          "time": 397.714347,
          "velocity": 0.5118110236220472
        },
        {
          "duration": 0.5416670729166526,
          "durationTicks": 455,
          "midi": 52,
          "name": "E3",
          "ticks": 220320,
          "time": 397.714347,
          "velocity": 0.5118110236220472
        },
        {
          "duration": 0.5416670729166526,
          "durationTicks": 455,
          "midi": 57,
          "name": "A3",
          "ticks": 220800,
          "time": 398.285776,
          "velocity": 0.5118110236220472
        },
        {
          "duration": 0.13452391041670353,
          "durationTicks": 113,
          "midi": 64,
          "name": "E4",
          "ticks": 221400,
          "time": 399.00006225,
          "velocity": 0.5118110236220472
        },
        {
          "duration": 0.13452391041664669,
          "durationTicks": 113,
          "midi": 60,
          "name": "C4",
          "ticks": 221520,
          "time": 399.1429195,
          "velocity": 0.5118110236220472
        },
        {
          "duration": 0.13452391041670353,
          "durationTicks": 113,
          "midi": 57,
          "name": "A3",
          "ticks": 221640,
          "time": 399.28577674999997,
          "velocity": 0.5118110236220472
        },
        {
          "duration": 0.27023829791664866,
          "durationTicks": 227,
          "midi": 54,
          "name": "F#3",
          "ticks": 221760,
          "time": 399.428634,
          "velocity": 0.5118110236220472
        },
        {
          "duration": 0.5416670729166526,
          "durationTicks": 455,
          "midi": 55,
          "name": "G3",
          "ticks": 222240,
          "time": 400.000063,
          "velocity": 0.5118110236220472
        },
        {
          "duration": 0.13452391041670353,
          "durationTicks": 113,
          "midi": 62,
          "name": "D4",
          "ticks": 222840,
          "time": 400.71434925,
          "velocity": 0.5118110236220472
        },
        {
          "duration": 0.13452391041670353,
          "durationTicks": 113,
          "midi": 59,
          "name": "B3",
          "ticks": 222960,
          "time": 400.85720649999996,
          "velocity": 0.5118110236220472
        },
        {
          "duration": 0.13452391041670353,
          "durationTicks": 113,
          "midi": 55,
          "name": "G3",
          "ticks": 223080,
          "time": 401.00006375,
          "velocity": 0.5118110236220472
        },
        {
          "duration": 0.27023829791664866,
          "durationTicks": 227,
          "midi": 52,
          "name": "E3",
          "ticks": 223200,
          "time": 401.142921,
          "velocity": 0.5118110236220472
        },
        {
          "duration": 0.2702382979167055,
          "durationTicks": 227,
          "midi": 53,
          "name": "F3",
          "ticks": 223680,
          "time": 401.71434999999997,
          "velocity": 0.5118110236220472
        },
        {
          "duration": 1.0845246229166605,
          "durationTicks": 911,
          "midi": 62,
          "name": "D4",
          "ticks": 226560,
          "time": 405.142924,
          "velocity": 0.5118110236220472
        },
        {
          "duration": 0.13452391041664669,
          "durationTicks": 113,
          "midi": 59,
          "name": "B3",
          "ticks": 228000,
          "time": 406.857211,
          "velocity": 0.5118110236220472
        },
        {
          "duration": 0.13452391041664669,
          "durationTicks": 113,
          "midi": 62,
          "name": "D4",
          "ticks": 228120,
          "time": 407.00006825,
          "velocity": 0.5118110236220472
        },
        {
          "duration": 0.13452391041670353,
          "durationTicks": 113,
          "midi": 64,
          "name": "E4",
          "ticks": 228240,
          "time": 407.1429255,
          "velocity": 0.5118110236220472
        },
        {
          "duration": 0.13452391041664669,
          "durationTicks": 113,
          "midi": 67,
          "name": "G4",
          "ticks": 228360,
          "time": 407.28578275,
          "velocity": 0.5118110236220472
        },
        {
          "duration": 0.13452391041670353,
          "durationTicks": 113,
          "midi": 65,
          "name": "F4",
          "ticks": 228480,
          "time": 407.42864,
          "velocity": 0.5118110236220472
        },
        {
          "duration": 0.13452391041664669,
          "durationTicks": 113,
          "midi": 64,
          "name": "E4",
          "ticks": 228600,
          "time": 407.57149725,
          "velocity": 0.5118110236220472
        },
        {
          "duration": 0.13452391041664669,
          "durationTicks": 113,
          "midi": 62,
          "name": "D4",
          "ticks": 228720,
          "time": 407.7143545,
          "velocity": 0.5118110236220472
        },
        {
          "duration": 0.13452391041670353,
          "durationTicks": 113,
          "midi": 60,
          "name": "C4",
          "ticks": 228840,
          "time": 407.85721175,
          "velocity": 0.5118110236220472
        },
        {
          "duration": 0.13452391041670353,
          "durationTicks": 113,
          "midi": 59,
          "name": "B3",
          "ticks": 228960,
          "time": 408.000069,
          "velocity": 0.5118110236220472
        },
        {
          "duration": 0.13452391041670353,
          "durationTicks": 113,
          "midi": 62,
          "name": "D4",
          "ticks": 229080,
          "time": 408.14292624999996,
          "velocity": 0.5118110236220472
        },
        {
          "duration": 0.13452391041670353,
          "durationTicks": 113,
          "midi": 57,
          "name": "A3",
          "ticks": 229200,
          "time": 408.2857835,
          "velocity": 0.5118110236220472
        },
        {
          "duration": 0.13452391041664669,
          "durationTicks": 113,
          "midi": 62,
          "name": "D4",
          "ticks": 229320,
          "time": 408.42864075,
          "velocity": 0.5118110236220472
        },
        {
          "duration": 0.13452391041664669,
          "durationTicks": 113,
          "midi": 56,
          "name": "G#3",
          "ticks": 229440,
          "time": 408.571498,
          "velocity": 0.5118110236220472
        },
        {
          "duration": 0.13452391041670353,
          "durationTicks": 113,
          "midi": 59,
          "name": "B3",
          "ticks": 229560,
          "time": 408.71435525,
          "velocity": 0.5118110236220472
        },
        {
          "duration": 0.13452391041664669,
          "durationTicks": 113,
          "midi": 60,
          "name": "C4",
          "ticks": 229680,
          "time": 408.8572125,
          "velocity": 0.5118110236220472
        },
        {
          "duration": 0.13452391041670353,
          "durationTicks": 113,
          "midi": 64,
          "name": "E4",
          "ticks": 229800,
          "time": 409.00006974999997,
          "velocity": 0.5118110236220472
        },
        {
          "duration": 0.13452391041670353,
          "durationTicks": 113,
          "midi": 62,
          "name": "D4",
          "ticks": 229920,
          "time": 409.142927,
          "velocity": 0.5118110236220472
        },
        {
          "duration": 0.13452391041664669,
          "durationTicks": 113,
          "midi": 60,
          "name": "C4",
          "ticks": 230040,
          "time": 409.28578425,
          "velocity": 0.5118110236220472
        },
        {
          "duration": 0.13452391041664669,
          "durationTicks": 113,
          "midi": 59,
          "name": "B3",
          "ticks": 230160,
          "time": 409.4286415,
          "velocity": 0.5118110236220472
        },
        {
          "duration": 0.13452391041670353,
          "durationTicks": 113,
          "midi": 57,
          "name": "A3",
          "ticks": 230280,
          "time": 409.57149875,
          "velocity": 0.5118110236220472
        },
        {
          "duration": 0.13452391041664669,
          "durationTicks": 113,
          "midi": 56,
          "name": "G#3",
          "ticks": 230400,
          "time": 409.714356,
          "velocity": 0.5118110236220472
        },
        {
          "duration": 0.13452391041670353,
          "durationTicks": 113,
          "midi": 59,
          "name": "B3",
          "ticks": 230520,
          "time": 409.85721325,
          "velocity": 0.5118110236220472
        },
        {
          "duration": 0.13452391041664669,
          "durationTicks": 113,
          "midi": 54,
          "name": "F#3",
          "ticks": 230640,
          "time": 410.0000705,
          "velocity": 0.5118110236220472
        },
        {
          "duration": 0.13452391041664669,
          "durationTicks": 113,
          "midi": 59,
          "name": "B3",
          "ticks": 230760,
          "time": 410.14292775,
          "velocity": 0.5118110236220472
        },
        {
          "duration": 0.13452391041670353,
          "durationTicks": 113,
          "midi": 52,
          "name": "E3",
          "ticks": 230880,
          "time": 410.285785,
          "velocity": 0.5118110236220472
        },
        {
          "duration": 0.13452391041670353,
          "durationTicks": 113,
          "midi": 56,
          "name": "G#3",
          "ticks": 231000,
          "time": 410.42864225,
          "velocity": 0.5118110236220472
        },
        {
          "duration": 0.13452391041670353,
          "durationTicks": 113,
          "midi": 57,
          "name": "A3",
          "ticks": 231120,
          "time": 410.57149949999996,
          "velocity": 0.5118110236220472
        },
        {
          "duration": 0.13452391041670353,
          "durationTicks": 113,
          "midi": 60,
          "name": "C4",
          "ticks": 231240,
          "time": 410.71435675,
          "velocity": 0.5118110236220472
        },
        {
          "duration": 0.13452391041664669,
          "durationTicks": 113,
          "midi": 59,
          "name": "B3",
          "ticks": 231360,
          "time": 410.857214,
          "velocity": 0.5118110236220472
        },
        {
          "duration": 0.13452391041664669,
          "durationTicks": 113,
          "midi": 57,
          "name": "A3",
          "ticks": 231480,
          "time": 411.00007125,
          "velocity": 0.5118110236220472
        },
        {
          "duration": 0.13452391041670353,
          "durationTicks": 113,
          "midi": 56,
          "name": "G#3",
          "ticks": 231600,
          "time": 411.1429285,
          "velocity": 0.5118110236220472
        },
        {
          "duration": 0.13452391041664669,
          "durationTicks": 113,
          "midi": 54,
          "name": "F#3",
          "ticks": 231720,
          "time": 411.28578575,
          "velocity": 0.5118110236220472
        },
        {
          "duration": 0.13452391041670353,
          "durationTicks": 113,
          "midi": 52,
          "name": "E3",
          "ticks": 231840,
          "time": 411.42864299999997,
          "velocity": 0.5118110236220472
        },
        {
          "duration": 0.13452391041670353,
          "durationTicks": 113,
          "midi": 56,
          "name": "G#3",
          "ticks": 231960,
          "time": 411.57150025,
          "velocity": 0.5118110236220472
        },
        {
          "duration": 0.13452391041664669,
          "durationTicks": 113,
          "midi": 50,
          "name": "D3",
          "ticks": 232080,
          "time": 411.7143575,
          "velocity": 0.5118110236220472
        },
        {
          "duration": 0.13452391041664669,
          "durationTicks": 113,
          "midi": 56,
          "name": "G#3",
          "ticks": 232200,
          "time": 411.85721475,
          "velocity": 0.5118110236220472
        },
        {
          "duration": 0.13452391041670353,
          "durationTicks": 113,
          "midi": 48,
          "name": "C3",
          "ticks": 232320,
          "time": 412.000072,
          "velocity": 0.5118110236220472
        },
        {
          "duration": 0.13452391041664669,
          "durationTicks": 113,
          "midi": 52,
          "name": "E3",
          "ticks": 232440,
          "time": 412.14292925,
          "velocity": 0.5118110236220472
        },
        {
          "duration": 0.13452391041670353,
          "durationTicks": 113,
          "midi": 54,
          "name": "F#3",
          "ticks": 232560,
          "time": 412.2857865,
          "velocity": 0.5118110236220472
        },
        {
          "duration": 0.13452391041664669,
          "durationTicks": 113,
          "midi": 57,
          "name": "A3",
          "ticks": 232680,
          "time": 412.42864375,
          "velocity": 0.5118110236220472
        },
        {
          "duration": 0.13452391041664669,
          "durationTicks": 113,
          "midi": 50,
          "name": "D3",
          "ticks": 232800,
          "time": 412.571501,
          "velocity": 0.5118110236220472
        },
        {
          "duration": 0.13452391041670353,
          "durationTicks": 113,
          "midi": 54,
          "name": "F#3",
          "ticks": 232920,
          "time": 412.71435825,
          "velocity": 0.5118110236220472
        },
        {
          "duration": 0.13452391041670353,
          "durationTicks": 113,
          "midi": 56,
          "name": "G#3",
          "ticks": 233040,
          "time": 412.8572155,
          "velocity": 0.5118110236220472
        },
        {
          "duration": 0.13452391041664669,
          "durationTicks": 113,
          "midi": 59,
          "name": "B3",
          "ticks": 233160,
          "time": 413.00007275,
          "velocity": 0.5118110236220472
        },
        {
          "duration": 0.13452391041670353,
          "durationTicks": 113,
          "midi": 52,
          "name": "E3",
          "ticks": 233280,
          "time": 413.14293,
          "velocity": 0.5118110236220472
        },
        {
          "duration": 0.13452391041664669,
          "durationTicks": 113,
          "midi": 56,
          "name": "G#3",
          "ticks": 233400,
          "time": 413.28578725,
          "velocity": 0.5118110236220472
        },
        {
          "duration": 0.13452391041664669,
          "durationTicks": 113,
          "midi": 57,
          "name": "A3",
          "ticks": 233520,
          "time": 413.4286445,
          "velocity": 0.5118110236220472
        },
        {
          "duration": 0.13452391041670353,
          "durationTicks": 113,
          "midi": 60,
          "name": "C4",
          "ticks": 233640,
          "time": 413.57150175,
          "velocity": 0.5118110236220472
        },
        {
          "duration": 0.13452391041664669,
          "durationTicks": 113,
          "midi": 54,
          "name": "F#3",
          "ticks": 233760,
          "time": 413.714359,
          "velocity": 0.5118110236220472
        },
        {
          "duration": 0.13452391041670353,
          "durationTicks": 113,
          "midi": 56,
          "name": "G#3",
          "ticks": 233880,
          "time": 413.85721624999996,
          "velocity": 0.5118110236220472
        },
        {
          "duration": 0.13452391041670353,
          "durationTicks": 113,
          "midi": 57,
          "name": "A3",
          "ticks": 234000,
          "time": 414.0000735,
          "velocity": 0.5118110236220472
        },
        {
          "duration": 0.13452391041664669,
          "durationTicks": 113,
          "midi": 60,
          "name": "C4",
          "ticks": 234120,
          "time": 414.14293075,
          "velocity": 0.5118110236220472
        },
        {
          "duration": 0.13452391041664669,
          "durationTicks": 113,
          "midi": 56,
          "name": "G#3",
          "ticks": 234240,
          "time": 414.285788,
          "velocity": 0.5118110236220472
        },
        {
          "duration": 0.13452391041670353,
          "durationTicks": 113,
          "midi": 57,
          "name": "A3",
          "ticks": 234360,
          "time": 414.42864525,
          "velocity": 0.5118110236220472
        },
        {
          "duration": 0.13452391041664669,
          "durationTicks": 113,
          "midi": 59,
          "name": "B3",
          "ticks": 234480,
          "time": 414.5715025,
          "velocity": 0.5118110236220472
        },
        {
          "duration": 0.13452391041670353,
          "durationTicks": 113,
          "midi": 62,
          "name": "D4",
          "ticks": 234600,
          "time": 414.71435974999997,
          "velocity": 0.5118110236220472
        },
        {
          "duration": 0.13452391041664669,
          "durationTicks": 113,
          "midi": 60,
          "name": "C4",
          "ticks": 234720,
          "time": 414.857217,
          "velocity": 0.5118110236220472
        },
        {
          "duration": 0.13452391041664669,
          "durationTicks": 113,
          "midi": 59,
          "name": "B3",
          "ticks": 234840,
          "time": 415.00007425,
          "velocity": 0.5118110236220472
        },
        {
          "duration": 0.13452391041670353,
          "durationTicks": 113,
          "midi": 57,
          "name": "A3",
          "ticks": 234960,
          "time": 415.1429315,
          "velocity": 0.5118110236220472
        },
        {
          "duration": 0.13452391041670353,
          "durationTicks": 113,
          "midi": 56,
          "name": "G#3",
          "ticks": 235080,
          "time": 415.28578875,
          "velocity": 0.5118110236220472
        },
        {
          "duration": 0.27023829791664866,
          "durationTicks": 227,
          "midi": 57,
          "name": "A3",
          "ticks": 235200,
          "time": 415.428646,
          "velocity": 0.5118110236220472
        },
        {
          "duration": 0.27023829791664866,
          "durationTicks": 227,
          "midi": 52,
          "name": "E3",
          "ticks": 235440,
          "time": 415.7143605,
          "velocity": 0.5118110236220472
        },
        {
          "duration": 0.2702382979167055,
          "durationTicks": 227,
          "midi": 53,
          "name": "F3",
          "ticks": 235680,
          "time": 416.000075,
          "velocity": 0.5118110236220472
        },
        {
          "duration": 0.2702382979167055,
          "durationTicks": 227,
          "midi": 50,
          "name": "D3",
          "ticks": 235920,
          "time": 416.28578949999996,
          "velocity": 0.5118110236220472
        },
        {
          "duration": 0.27023829791664866,
          "durationTicks": 227,
          "midi": 52,
          "name": "E3",
          "ticks": 236160,
          "time": 416.571504,
          "velocity": 0.5118110236220472
        },
        {
          "duration": 0.2702382979167055,
          "durationTicks": 227,
          "midi": 40,
          "name": "E2",
          "ticks": 236400,
          "time": 416.8572185,
          "velocity": 0.5118110236220472
        },
        {
          "duration": 1.1428580000000466,
          "durationTicks": 960,
          "midi": 45,
          "name": "A2",
          "ticks": 236640,
          "time": 417.14293299999997,
          "velocity": 0.5118110236220472
        },
        {
          "duration": 0.5416670729166526,
          "durationTicks": 455,
          "midi": 45,
          "name": "A2",
          "ticks": 237600,
          "time": 418.285791,
          "velocity": 0.5118110236220472
        },
        {
          "duration": 0.13452391041664669,
          "durationTicks": 113,
          "midi": 45,
          "name": "A2",
          "ticks": 238320,
          "time": 419.1429345,
          "velocity": 0.5118110236220472
        },
        {
          "duration": 0.13452391041670353,
          "durationTicks": 113,
          "midi": 47,
          "name": "B2",
          "ticks": 238440,
          "time": 419.28579175,
          "velocity": 0.5118110236220472
        },
        {
          "duration": 0.27023829791664866,
          "durationTicks": 227,
          "midi": 48,
          "name": "C3",
          "ticks": 238560,
          "time": 419.428649,
          "velocity": 0.5118110236220472
        },
        {
          "duration": 0.13452391041664669,
          "durationTicks": 113,
          "midi": 48,
          "name": "C3",
          "ticks": 238800,
          "time": 419.7143635,
          "velocity": 0.5118110236220472
        },
        {
          "duration": 0.13452391041664669,
          "durationTicks": 113,
          "midi": 50,
          "name": "D3",
          "ticks": 238920,
          "time": 419.85722075,
          "velocity": 0.5118110236220472
        },
        {
          "duration": 0.2702382979167055,
          "durationTicks": 227,
          "midi": 52,
          "name": "E3",
          "ticks": 239040,
          "time": 420.000078,
          "velocity": 0.5118110236220472
        },
        {
          "duration": 0.13452391041664669,
          "durationTicks": 113,
          "midi": 52,
          "name": "E3",
          "ticks": 239280,
          "time": 420.2857925,
          "velocity": 0.5118110236220472
        },
        {
          "duration": 0.13452391041670353,
          "durationTicks": 113,
          "midi": 54,
          "name": "F#3",
          "ticks": 239400,
          "time": 420.42864975,
          "velocity": 0.5118110236220472
        },
        {
          "duration": 0.5416670729166526,
          "durationTicks": 455,
          "midi": 56,
          "name": "G#3",
          "ticks": 239520,
          "time": 420.571507,
          "velocity": 0.5118110236220472
        },
        {
          "duration": 1.0845246229167174,
          "durationTicks": 911,
          "midi": 57,
          "name": "A3",
          "ticks": 240000,
          "time": 421.14293599999996,
          "velocity": 0.5118110236220472
        },
        {
          "duration": 0.27023829791664866,
          "durationTicks": 227,
          "midi": 52,
          "name": "E3",
          "ticks": 240960,
          "time": 422.285794,
          "velocity": 0.5118110236220472
        },
        {
          "duration": 0.13452391041670353,
          "durationTicks": 113,
          "midi": 40,
          "name": "E2",
          "ticks": 241200,
          "time": 422.5715085,
          "velocity": 0.5118110236220472
        },
        {
          "duration": 0.13452391041664669,
          "durationTicks": 113,
          "midi": 42,
          "name": "F#2",
          "ticks": 241320,
          "time": 422.71436575,
          "velocity": 0.5118110236220472
        },
        {
          "duration": 0.27023829791664866,
          "durationTicks": 227,
          "midi": 43,
          "name": "G2",
          "ticks": 241440,
          "time": 422.857223,
          "velocity": 0.5118110236220472
        },
        {
          "duration": 0.13452391041664669,
          "durationTicks": 113,
          "midi": 43,
          "name": "G2",
          "ticks": 241680,
          "time": 423.1429375,
          "velocity": 0.5118110236220472
        },
        {
          "duration": 0.13452391041670353,
          "durationTicks": 113,
          "midi": 45,
          "name": "A2",
          "ticks": 241800,
          "time": 423.28579475,
          "velocity": 0.5118110236220472
        },
        {
          "duration": 0.27023829791664866,
          "durationTicks": 227,
          "midi": 47,
          "name": "B2",
          "ticks": 241920,
          "time": 423.428652,
          "velocity": 0.5118110236220472
        },
        {
          "duration": 0.06666671666670254,
          "durationTicks": 56,
          "midi": 47,
          "name": "B2",
          "ticks": 242160,
          "time": 423.7143665,
          "velocity": 0.5118110236220472
        },
        {
          "duration": 0.06666671666670254,
          "durationTicks": 56,
          "midi": 49,
          "name": "C#3",
          "ticks": 242220,
          "time": 423.785795125,
          "velocity": 0.5118110236220472
        },
        {
          "duration": 0.13452391041664669,
          "durationTicks": 113,
          "midi": 50,
          "name": "D3",
          "ticks": 242280,
          "time": 423.85722375,
          "velocity": 0.5118110236220472
        },
        {
          "duration": 0.5416670729166526,
          "durationTicks": 455,
          "midi": 49,
          "name": "C#3",
          "ticks": 242400,
          "time": 424.000081,
          "velocity": 0.5118110236220472
        },
        {
          "duration": 1.0845246229166605,
          "durationTicks": 911,
          "midi": 61,
          "name": "C#4",
          "ticks": 242880,
          "time": 424.57151,
          "velocity": 0.5118110236220472
        },
        {
          "duration": 1.1428579999999897,
          "durationTicks": 960,
          "midi": 62,
          "name": "D4",
          "ticks": 243840,
          "time": 425.714368,
          "velocity": 0.5118110236220472
        },
        {
          "duration": 0.28571450000004006,
          "durationTicks": 240,
          "midi": 62,
          "name": "D4",
          "ticks": 244800,
          "time": 426.85722599999997,
          "velocity": 0.5118110236220472
        },
        {
          "duration": 0.13452391041670353,
          "durationTicks": 113,
          "midi": 52,
          "name": "E3",
          "ticks": 245520,
          "time": 427.7143695,
          "velocity": 0.5118110236220472
        },
        {
          "duration": 0.13452391041664669,
          "durationTicks": 113,
          "midi": 53,
          "name": "F3",
          "ticks": 245640,
          "time": 427.85722675,
          "velocity": 0.5118110236220472
        },
        {
          "duration": 0.27023829791664866,
          "durationTicks": 227,
          "midi": 55,
          "name": "G3",
          "ticks": 245760,
          "time": 428.000084,
          "velocity": 0.5118110236220472
        },
        {
          "duration": 0.13452391041670353,
          "durationTicks": 113,
          "midi": 55,
          "name": "G3",
          "ticks": 246000,
          "time": 428.2857985,
          "velocity": 0.5118110236220472
        },
        {
          "duration": 0.13452391041670353,
          "durationTicks": 113,
          "midi": 57,
          "name": "A3",
          "ticks": 246120,
          "time": 428.42865574999996,
          "velocity": 0.5118110236220472
        },
        {
          "duration": 0.27023829791664866,
          "durationTicks": 227,
          "midi": 59,
          "name": "B3",
          "ticks": 246240,
          "time": 428.571513,
          "velocity": 0.5118110236220472
        },
        {
          "duration": 0.13452391041664669,
          "durationTicks": 113,
          "midi": 59,
          "name": "B3",
          "ticks": 246480,
          "time": 428.8572275,
          "velocity": 0.5118110236220472
        },
        {
          "duration": 0.13452391041670353,
          "durationTicks": 113,
          "midi": 61,
          "name": "C#4",
          "ticks": 246600,
          "time": 429.00008475,
          "velocity": 0.5118110236220472
        },
        {
          "duration": 0.27023829791664866,
          "durationTicks": 227,
          "midi": 62,
          "name": "D4",
          "ticks": 246720,
          "time": 429.142942,
          "velocity": 0.5118110236220472
        },
        {
          "duration": 0.13452391041664669,
          "durationTicks": 113,
          "midi": 62,
          "name": "D4",
          "ticks": 246960,
          "time": 429.4286565,
          "velocity": 0.5118110236220472
        },
        {
          "duration": 0.13452391041664669,
          "durationTicks": 113,
          "midi": 60,
          "name": "C4",
          "ticks": 247080,
          "time": 429.57151375,
          "velocity": 0.5118110236220472
        },
        {
          "duration": 0.27023829791664866,
          "durationTicks": 227,
          "midi": 58,
          "name": "A#3",
          "ticks": 247200,
          "time": 429.714371,
          "velocity": 0.5118110236220472
        },
        {
          "duration": 0.13452391041664669,
          "durationTicks": 113,
          "midi": 58,
          "name": "A#3",
          "ticks": 247440,
          "time": 430.0000855,
          "velocity": 0.5118110236220472
        },
        {
          "duration": 0.13452391041670353,
          "durationTicks": 113,
          "midi": 57,
          "name": "A3",
          "ticks": 247560,
          "time": 430.14294275,
          "velocity": 0.5118110236220472
        },
        {
          "duration": 0.27023829791664866,
          "durationTicks": 227,
          "midi": 55,
          "name": "G3",
          "ticks": 247680,
          "time": 430.2858,
          "velocity": 0.5118110236220472
        },
        {
          "duration": 0.13452391041670353,
          "durationTicks": 113,
          "midi": 55,
          "name": "G3",
          "ticks": 247920,
          "time": 430.5715145,
          "velocity": 0.5118110236220472
        },
        {
          "duration": 0.13452391041670353,
          "durationTicks": 113,
          "midi": 53,
          "name": "F3",
          "ticks": 248040,
          "time": 430.71437175,
          "velocity": 0.5118110236220472
        },
        {
          "duration": 0.2702382979167055,
          "durationTicks": 227,
          "midi": 55,
          "name": "G3",
          "ticks": 248160,
          "time": 430.85722899999996,
          "velocity": 0.5118110236220472
        },
        {
          "duration": 0.13452391041664669,
          "durationTicks": 113,
          "midi": 55,
          "name": "G3",
          "ticks": 248400,
          "time": 431.1429435,
          "velocity": 0.5118110236220472
        },
        {
          "duration": 0.13452391041664669,
          "durationTicks": 113,
          "midi": 58,
          "name": "A#3",
          "ticks": 248520,
          "time": 431.28580075,
          "velocity": 0.5118110236220472
        },
        {
          "duration": 0.2702382979167055,
          "durationTicks": 227,
          "midi": 57,
          "name": "A3",
          "ticks": 248640,
          "time": 431.428658,
          "velocity": 0.5118110236220472
        },
        {
          "duration": 0.13452391041670353,
          "durationTicks": 113,
          "midi": 57,
          "name": "A3",
          "ticks": 248880,
          "time": 431.71437249999997,
          "velocity": 0.5118110236220472
        },
        {
          "duration": 0.13452391041664669,
          "durationTicks": 113,
          "midi": 55,
          "name": "G3",
          "ticks": 249000,
          "time": 431.85722975,
          "velocity": 0.5118110236220472
        },
        {
          "duration": 0.27023829791664866,
          "durationTicks": 227,
          "midi": 53,
          "name": "F3",
          "ticks": 249120,
          "time": 432.000087,
          "velocity": 0.5118110236220472
        },
        {
          "duration": 0.13452391041670353,
          "durationTicks": 113,
          "midi": 53,
          "name": "F3",
          "ticks": 249360,
          "time": 432.2858015,
          "velocity": 0.5118110236220472
        },
        {
          "duration": 0.13452391041664669,
          "durationTicks": 113,
          "midi": 52,
          "name": "E3",
          "ticks": 249480,
          "time": 432.42865875,
          "velocity": 0.5118110236220472
        },
        {
          "duration": 0.27023829791664866,
          "durationTicks": 227,
          "midi": 54,
          "name": "F#3",
          "ticks": 249600,
          "time": 432.571516,
          "velocity": 0.5118110236220472
        },
        {
          "duration": 0.13452391041664669,
          "durationTicks": 113,
          "midi": 54,
          "name": "F#3",
          "ticks": 249840,
          "time": 432.8572305,
          "velocity": 0.5118110236220472
        },
        {
          "duration": 0.13452391041670353,
          "durationTicks": 113,
          "midi": 57,
          "name": "A3",
          "ticks": 249960,
          "time": 433.00008775,
          "velocity": 0.5118110236220472
        },
        {
          "duration": 0.27023829791664866,
          "durationTicks": 227,
          "midi": 55,
          "name": "G3",
          "ticks": 250080,
          "time": 433.142945,
          "velocity": 0.5118110236220472
        },
        {
          "duration": 0.13452391041670353,
          "durationTicks": 113,
          "midi": 55,
          "name": "G3",
          "ticks": 250320,
          "time": 433.4286595,
          "velocity": 0.5118110236220472
        },
        {
          "duration": 0.13452391041664669,
          "durationTicks": 113,
          "midi": 53,
          "name": "F3",
          "ticks": 250440,
          "time": 433.57151675,
          "velocity": 0.5118110236220472
        },
        {
          "duration": 0.27023829791664866,
          "durationTicks": 227,
          "midi": 52,
          "name": "E3",
          "ticks": 250560,
          "time": 433.714374,
          "velocity": 0.5118110236220472
        },
        {
          "duration": 0.13452391041664669,
          "durationTicks": 113,
          "midi": 52,
          "name": "E3",
          "ticks": 250800,
          "time": 434.0000885,
          "velocity": 0.5118110236220472
        },
        {
          "duration": 0.13452391041670353,
          "durationTicks": 113,
          "midi": 50,
          "name": "D3",
          "ticks": 250920,
          "time": 434.14294574999997,
          "velocity": 0.5118110236220472
        },
        {
          "duration": 0.5416670729166526,
          "durationTicks": 455,
          "midi": 52,
          "name": "E3",
          "ticks": 251040,
          "time": 434.285803,
          "velocity": 0.5118110236220472
        },
        {
          "duration": 0.27023829791664866,
          "durationTicks": 227,
          "midi": 52,
          "name": "E3",
          "ticks": 251760,
          "time": 435.1429465,
          "velocity": 0.5118110236220472
        },
        {
          "duration": 0.2702382979167055,
          "durationTicks": 227,
          "midi": 57,
          "name": "A3",
          "ticks": 252000,
          "time": 435.428661,
          "velocity": 0.5118110236220472
        },
        {
          "duration": 0.2702382979167055,
          "durationTicks": 227,
          "midi": 45,
          "name": "A2",
          "ticks": 252240,
          "time": 435.71437549999996,
          "velocity": 0.5118110236220472
        },
        {
          "duration": 0.27023829791664866,
          "durationTicks": 227,
          "midi": 50,
          "name": "D3",
          "ticks": 252480,
          "time": 436.00009,
          "velocity": 0.5118110236220472
        },
        {
          "duration": 0.2702382979167055,
          "durationTicks": 227,
          "midi": 57,
          "name": "A3",
          "ticks": 252720,
          "time": 436.2858045,
          "velocity": 0.5118110236220472
        },
        {
          "duration": 0.2702382979167055,
          "durationTicks": 227,
          "midi": 62,
          "name": "D4",
          "ticks": 252960,
          "time": 436.57151899999997,
          "velocity": 0.5118110236220472
        },
        {
          "duration": 0.27023829791664866,
          "durationTicks": 227,
          "midi": 60,
          "name": "C4",
          "ticks": 253200,
          "time": 436.8572335,
          "velocity": 0.5118110236220472
        },
        {
          "duration": 0.06547623958334725,
          "durationTicks": 55,
          "midi": 58,
          "name": "A#3",
          "ticks": 253440,
          "time": 437.142948,
          "velocity": 0.5118110236220472
        },
        {
          "duration": 0.06547623958334725,
          "durationTicks": 55,
          "midi": 60,
          "name": "C4",
          "ticks": 253500,
          "time": 437.214376625,
          "velocity": 0.5118110236220472
        },
        {
          "duration": 0.06547623958334725,
          "durationTicks": 55,
          "midi": 58,
          "name": "A#3",
          "ticks": 253560,
          "time": 437.28580525,
          "velocity": 0.5118110236220472
        },
        {
          "duration": 0.06547623958329041,
          "durationTicks": 55,
          "midi": 60,
          "name": "C4",
          "ticks": 253620,
          "time": 437.357233875,
          "velocity": 0.5118110236220472
        },
        {
          "duration": 0.06547623958334725,
          "durationTicks": 55,
          "midi": 58,
          "name": "A#3",
          "ticks": 253680,
          "time": 437.4286625,
          "velocity": 0.5118110236220472
        },
        {
          "duration": 0.06547623958334725,
          "durationTicks": 55,
          "midi": 60,
          "name": "C4",
          "ticks": 253740,
          "time": 437.500091125,
          "velocity": 0.5118110236220472
        },
        {
          "duration": 0.06547623958334725,
          "durationTicks": 55,
          "midi": 58,
          "name": "A#3",
          "ticks": 253800,
          "time": 437.57151975,
          "velocity": 0.5118110236220472
        },
        {
          "duration": 0.06547623958334725,
          "durationTicks": 55,
          "midi": 60,
          "name": "C4",
          "ticks": 253860,
          "time": 437.642948375,
          "velocity": 0.5118110236220472
        },
        {
          "duration": 0.5416670729166526,
          "durationTicks": 455,
          "midi": 57,
          "name": "A3",
          "ticks": 253920,
          "time": 437.714377,
          "velocity": 0.5118110236220472
        },
        {
          "duration": 0.27023829791664866,
          "durationTicks": 227,
          "midi": 57,
          "name": "A3",
          "ticks": 254640,
          "time": 438.5715205,
          "velocity": 0.5118110236220472
        },
        {
          "duration": 0.27023829791664866,
          "durationTicks": 227,
          "midi": 62,
          "name": "D4",
          "ticks": 254880,
          "time": 438.857235,
          "velocity": 0.5118110236220472
        },
        {
          "duration": 0.27023829791664866,
          "durationTicks": 227,
          "midi": 50,
          "name": "D3",
          "ticks": 255120,
          "time": 439.1429495,
          "velocity": 0.5118110236220472
        },
        {
          "duration": 0.27023829791664866,
          "durationTicks": 227,
          "midi": 55,
          "name": "G3",
          "ticks": 255360,
          "time": 439.428664,
          "velocity": 0.5118110236220472
        },
        {
          "duration": 0.27023829791664866,
          "durationTicks": 227,
          "midi": 43,
          "name": "G2",
          "ticks": 255600,
          "time": 439.7143785,
          "velocity": 0.5118110236220472
        },
        {
          "duration": 0.27023829791664866,
          "durationTicks": 227,
          "midi": 46,
          "name": "A#2",
          "ticks": 255840,
          "time": 440.000093,
          "velocity": 0.5118110236220472
        },
        {
          "duration": 0.2702382979167055,
          "durationTicks": 227,
          "midi": 50,
          "name": "D3",
          "ticks": 256080,
          "time": 440.2858075,
          "velocity": 0.5118110236220472
        },
        {
          "duration": 0.2702382979167055,
          "durationTicks": 227,
          "midi": 55,
          "name": "G3",
          "ticks": 256320,
          "time": 440.57152199999996,
          "velocity": 0.5118110236220472
        },
        {
          "duration": 0.27023829791664866,
          "durationTicks": 227,
          "midi": 53,
          "name": "F3",
          "ticks": 256560,
          "time": 440.8572365,
          "velocity": 0.5118110236220472
        },
        {
          "duration": 0.5416670729166526,
          "durationTicks": 455,
          "midi": 52,
          "name": "E3",
          "ticks": 256800,
          "time": 441.142951,
          "velocity": 0.5118110236220472
        },
        {
          "duration": 0.27023829791664866,
          "durationTicks": 227,
          "midi": 52,
          "name": "E3",
          "ticks": 257520,
          "time": 442.0000945,
          "velocity": 0.5118110236220472
        },
        {
          "duration": 0.2702382979167055,
          "durationTicks": 227,
          "midi": 57,
          "name": "A3",
          "ticks": 257760,
          "time": 442.285809,
          "velocity": 0.5118110236220472
        },
        {
          "duration": 0.27023829791664866,
          "durationTicks": 227,
          "midi": 45,
          "name": "A2",
          "ticks": 258000,
          "time": 442.5715235,
          "velocity": 0.5118110236220472
        },
        {
          "duration": 0.27023829791664866,
          "durationTicks": 227,
          "midi": 50,
          "name": "D3",
          "ticks": 258240,
          "time": 442.857238,
          "velocity": 0.5118110236220472
        },
        {
          "duration": 0.27023829791664866,
          "durationTicks": 227,
          "midi": 38,
          "name": "D2",
          "ticks": 258480,
          "time": 443.1429525,
          "velocity": 0.5118110236220472
        },
        {
          "duration": 0.27023829791664866,
          "durationTicks": 227,
          "midi": 41,
          "name": "F2",
          "ticks": 258720,
          "time": 443.428667,
          "velocity": 0.5118110236220472
        },
        {
          "duration": 0.27023829791664866,
          "durationTicks": 227,
          "midi": 45,
          "name": "A2",
          "ticks": 258960,
          "time": 443.7143815,
          "velocity": 0.5118110236220472
        },
        {
          "duration": 0.27023829791664866,
          "durationTicks": 227,
          "midi": 50,
          "name": "D3",
          "ticks": 259200,
          "time": 444.000096,
          "velocity": 0.5118110236220472
        },
        {
          "duration": 0.27023829791664866,
          "durationTicks": 227,
          "midi": 52,
          "name": "E3",
          "ticks": 259440,
          "time": 444.2858105,
          "velocity": 0.5118110236220472
        },
        {
          "duration": 0.2702382979167055,
          "durationTicks": 227,
          "midi": 53,
          "name": "F3",
          "ticks": 259680,
          "time": 444.57152499999995,
          "velocity": 0.5118110236220472
        },
        {
          "duration": 0.27023829791664866,
          "durationTicks": 227,
          "midi": 54,
          "name": "F#3",
          "ticks": 259920,
          "time": 444.8572395,
          "velocity": 0.5118110236220472
        },
        {
          "duration": 0.5416670729166526,
          "durationTicks": 455,
          "midi": 55,
          "name": "G3",
          "ticks": 260160,
          "time": 445.14295400000003,
          "velocity": 0.5118110236220472
        },
        {
          "duration": 0.5416670729166526,
          "durationTicks": 455,
          "midi": 56,
          "name": "G#3",
          "ticks": 260640,
          "time": 445.714383,
          "velocity": 0.5118110236220472
        },
        {
          "duration": 0.5416670729166526,
          "durationTicks": 455,
          "midi": 57,
          "name": "A3",
          "ticks": 261120,
          "time": 446.28581199999996,
          "velocity": 0.5118110236220472
        },
        {
          "duration": 0.2702382979167055,
          "durationTicks": 227,
          "midi": 57,
          "name": "A3",
          "ticks": 261600,
          "time": 446.857241,
          "velocity": 0.5118110236220472
        },
        {
          "duration": 0.27023829791664866,
          "durationTicks": 227,
          "midi": 56,
          "name": "G#3",
          "ticks": 261840,
          "time": 447.14295549999997,
          "velocity": 0.5118110236220472
        },
        {
          "duration": 0.5416670729166526,
          "durationTicks": 455,
          "midi": 57,
          "name": "A3",
          "ticks": 262080,
          "time": 447.42867,
          "velocity": 0.5118110236220472
        },
        {
          "duration": 0.27023829791664866,
          "durationTicks": 227,
          "midi": 48,
          "name": "C3",
          "ticks": 262560,
          "time": 448.000099,
          "velocity": 0.5118110236220472
        },
        {
          "duration": 0.27023829791664866,
          "durationTicks": 227,
          "midi": 49,
          "name": "C#3",
          "ticks": 262800,
          "time": 448.2858135,
          "velocity": 0.5118110236220472
        },
        {
          "duration": 0.5416670729166526,
          "durationTicks": 455,
          "midi": 50,
          "name": "D3",
          "ticks": 263040,
          "time": 448.571528,
          "velocity": 0.5118110236220472
        },
        {
          "duration": 0.5416670729166526,
          "durationTicks": 455,
          "midi": 51,
          "name": "D#3",
          "ticks": 263520,
          "time": 449.142957,
          "velocity": 0.5118110236220472
        },
        {
          "duration": 0.5416670729166526,
          "durationTicks": 455,
          "midi": 52,
          "name": "E3",
          "ticks": 264000,
          "time": 449.714386,
          "velocity": 0.5118110236220472
        },
        {
          "duration": 0.2702382979167055,
          "durationTicks": 227,
          "midi": 52,
          "name": "E3",
          "ticks": 264480,
          "time": 450.28581499999996,
          "velocity": 0.5118110236220472
        },
        {
          "duration": 0.27023829791664866,
          "durationTicks": 227,
          "midi": 51,
          "name": "D#3",
          "ticks": 264720,
          "time": 450.5715295,
          "velocity": 0.5118110236220472
        },
        {
          "duration": 0.2702382979167055,
          "durationTicks": 227,
          "midi": 52,
          "name": "E3",
          "ticks": 264960,
          "time": 450.857244,
          "velocity": 0.5118110236220472
        },
        {
          "duration": 0.2702382979167055,
          "durationTicks": 227,
          "midi": 54,
          "name": "F#3",
          "ticks": 265200,
          "time": 451.14295849999996,
          "velocity": 0.5118110236220472
        },
        {
          "duration": 0.27023829791664866,
          "durationTicks": 227,
          "midi": 55,
          "name": "G3",
          "ticks": 265440,
          "time": 451.428673,
          "velocity": 0.5118110236220472
        },
        {
          "duration": 0.2702382979167055,
          "durationTicks": 227,
          "midi": 54,
          "name": "F#3",
          "ticks": 265680,
          "time": 451.7143875,
          "velocity": 0.5118110236220472
        },
        {
          "duration": 0.27023829791664866,
          "durationTicks": 227,
          "midi": 54,
          "name": "F#3",
          "ticks": 265920,
          "time": 452.00010199999997,
          "velocity": 0.5118110236220472
        },
        {
          "duration": 0.27023829791664866,
          "durationTicks": 227,
          "midi": 52,
          "name": "E3",
          "ticks": 266160,
          "time": 452.2858165,
          "velocity": 0.5118110236220472
        },
        {
          "duration": 0.2702382979167055,
          "durationTicks": 227,
          "midi": 52,
          "name": "E3",
          "ticks": 266400,
          "time": 452.571531,
          "velocity": 0.5118110236220472
        },
        {
          "duration": 0.27023829791664866,
          "durationTicks": 227,
          "midi": 50,
          "name": "D3",
          "ticks": 266640,
          "time": 452.8572455,
          "velocity": 0.5118110236220472
        },
        {
          "duration": 0.27023829791664866,
          "durationTicks": 227,
          "midi": 50,
          "name": "D3",
          "ticks": 266880,
          "time": 453.14296,
          "velocity": 0.5118110236220472
        },
        {
          "duration": 0.27023829791664866,
          "durationTicks": 227,
          "midi": 49,
          "name": "C#3",
          "ticks": 267120,
          "time": 453.4286745,
          "velocity": 0.5118110236220472
        },
        {
          "duration": 0.27023829791664866,
          "durationTicks": 227,
          "midi": 52,
          "name": "E3",
          "ticks": 267360,
          "time": 453.714389,
          "velocity": 0.5118110236220472
        },
        {
          "duration": 0.27023829791664866,
          "durationTicks": 227,
          "midi": 50,
          "name": "D3",
          "ticks": 267600,
          "time": 454.0001035,
          "velocity": 0.5118110236220472
        },
        {
          "duration": 0.2702382979167055,
          "durationTicks": 227,
          "midi": 49,
          "name": "C#3",
          "ticks": 267840,
          "time": 454.28581799999995,
          "velocity": 0.5118110236220472
        },
        {
          "duration": 0.27023829791664866,
          "durationTicks": 227,
          "midi": 47,
          "name": "B2",
          "ticks": 268080,
          "time": 454.5715325,
          "velocity": 0.5118110236220472
        },
        {
          "duration": 0.27023829791664866,
          "durationTicks": 227,
          "midi": 49,
          "name": "C#3",
          "ticks": 268320,
          "time": 454.85724700000003,
          "velocity": 0.5118110236220472
        },
        {
          "duration": 0.2702382979167055,
          "durationTicks": 227,
          "midi": 47,
          "name": "B2",
          "ticks": 268560,
          "time": 455.14296149999996,
          "velocity": 0.5118110236220472
        },
        {
          "duration": 0.27023829791664866,
          "durationTicks": 227,
          "midi": 46,
          "name": "A#2",
          "ticks": 268800,
          "time": 455.428676,
          "velocity": 0.5118110236220472
        },
        {
          "duration": 0.2702382979167055,
          "durationTicks": 227,
          "midi": 49,
          "name": "C#3",
          "ticks": 269040,
          "time": 455.7143905,
          "velocity": 0.5118110236220472
        },
        {
          "duration": 0.2702382979167055,
          "durationTicks": 227,
          "midi": 42,
          "name": "F#2",
          "ticks": 269280,
          "time": 456.00010499999996,
          "velocity": 0.5118110236220472
        },
        {
          "duration": 0.27023829791664866,
          "durationTicks": 227,
          "midi": 46,
          "name": "A#2",
          "ticks": 269520,
          "time": 456.2858195,
          "velocity": 0.5118110236220472
        },
        {
          "duration": 0.5416670729167095,
          "durationTicks": 455,
          "midi": 47,
          "name": "B2",
          "ticks": 269760,
          "time": 456.571534,
          "velocity": 0.5118110236220472
        },
        {
          "duration": 0.13452391041670353,
          "durationTicks": 113,
          "midi": 47,
          "name": "B2",
          "ticks": 270480,
          "time": 457.4286775,
          "velocity": 0.5118110236220472
        },
        {
          "duration": 0.13452391041670353,
          "durationTicks": 113,
          "midi": 49,
          "name": "C#3",
          "ticks": 270600,
          "time": 457.57153474999996,
          "velocity": 0.5118110236220472
        },
        {
          "duration": 0.27023829791664866,
          "durationTicks": 227,
          "midi": 50,
          "name": "D3",
          "ticks": 270720,
          "time": 457.714392,
          "velocity": 0.5118110236220472
        },
        {
          "duration": 0.13452391041664669,
          "durationTicks": 113,
          "midi": 50,
          "name": "D3",
          "ticks": 270960,
          "time": 458.0001065,
          "velocity": 0.5118110236220472
        },
        {
          "duration": 0.13452391041670353,
          "durationTicks": 113,
          "midi": 52,
          "name": "E3",
          "ticks": 271080,
          "time": 458.14296375,
          "velocity": 0.5118110236220472
        },
        {
          "duration": 0.5416670729166526,
          "durationTicks": 455,
          "midi": 54,
          "name": "F#3",
          "ticks": 271200,
          "time": 458.285821,
          "velocity": 0.5118110236220472
        },
        {
          "duration": 0.13452391041664669,
          "durationTicks": 113,
          "midi": 52,
          "name": "E3",
          "ticks": 272880,
          "time": 460.2858225,
          "velocity": 0.5118110236220472
        },
        {
          "duration": 0.13452391041664669,
          "durationTicks": 113,
          "midi": 54,
          "name": "F#3",
          "ticks": 273000,
          "time": 460.42867975,
          "velocity": 0.5118110236220472
        },
        {
          "duration": 0.13452391041670353,
          "durationTicks": 113,
          "midi": 55,
          "name": "G3",
          "ticks": 273120,
          "time": 460.571537,
          "velocity": 0.5118110236220472
        },
        {
          "duration": 0.13452391041670353,
          "durationTicks": 113,
          "midi": 52,
          "name": "E3",
          "ticks": 273240,
          "time": 460.71439425,
          "velocity": 0.5118110236220472
        },
        {
          "duration": 0.13452391041670353,
          "durationTicks": 113,
          "midi": 55,
          "name": "G3",
          "ticks": 273360,
          "time": 460.85725149999996,
          "velocity": 0.5118110236220472
        },
        {
          "duration": 0.13452391041664669,
          "durationTicks": 113,
          "midi": 57,
          "name": "A3",
          "ticks": 273480,
          "time": 461.00010875,
          "velocity": 0.5118110236220472
        },
        {
          "duration": 0.13452391041664669,
          "durationTicks": 113,
          "midi": 59,
          "name": "B3",
          "ticks": 273600,
          "time": 461.142966,
          "velocity": 0.5118110236220472
        },
        {
          "duration": 0.13452391041664669,
          "durationTicks": 113,
          "midi": 52,
          "name": "E3",
          "ticks": 273720,
          "time": 461.28582325,
          "velocity": 0.5118110236220472
        },
        {
          "duration": 0.13452391041670353,
          "durationTicks": 113,
          "midi": 59,
          "name": "B3",
          "ticks": 273840,
          "time": 461.4286805,
          "velocity": 0.5118110236220472
        },
        {
          "duration": 0.13452391041664669,
          "durationTicks": 113,
          "midi": 61,
          "name": "C#4",
          "ticks": 273960,
          "time": 461.57153775,
          "velocity": 0.5118110236220472
        },
        {
          "duration": 0.27023829791664866,
          "durationTicks": 227,
          "midi": 62,
          "name": "D4",
          "ticks": 274080,
          "time": 461.71439499999997,
          "velocity": 0.5118110236220472
        },
        {
          "duration": 0.13452391041664669,
          "durationTicks": 113,
          "midi": 50,
          "name": "D3",
          "ticks": 274320,
          "time": 462.0001095,
          "velocity": 0.5118110236220472
        },
        {
          "duration": 0.13452391041664669,
          "durationTicks": 113,
          "midi": 52,
          "name": "E3",
          "ticks": 274440,
          "time": 462.14296675,
          "velocity": 0.5118110236220472
        },
        {
          "duration": 0.13452391041664669,
          "durationTicks": 113,
          "midi": 54,
          "name": "F#3",
          "ticks": 274560,
          "time": 462.285824,
          "velocity": 0.5118110236220472
        },
        {
          "duration": 0.13452391041670353,
          "durationTicks": 113,
          "midi": 50,
          "name": "D3",
          "ticks": 274680,
          "time": 462.42868124999995,
          "velocity": 0.5118110236220472
        },
        {
          "duration": 0.13452391041664669,
          "durationTicks": 113,
          "midi": 54,
          "name": "F#3",
          "ticks": 274800,
          "time": 462.5715385,
          "velocity": 0.5118110236220472
        },
        {
          "duration": 0.13452391041664669,
          "durationTicks": 113,
          "midi": 55,
          "name": "G3",
          "ticks": 274920,
          "time": 462.71439575,
          "velocity": 0.5118110236220472
        },
        {
          "duration": 0.13452391041664669,
          "durationTicks": 113,
          "midi": 57,
          "name": "A3",
          "ticks": 275040,
          "time": 462.857253,
          "velocity": 0.5118110236220472
        },
        {
          "duration": 0.13452391041670353,
          "durationTicks": 113,
          "midi": 50,
          "name": "D3",
          "ticks": 275160,
          "time": 463.00011025,
          "velocity": 0.5118110236220472
        },
        {
          "duration": 0.13452391041664669,
          "durationTicks": 113,
          "midi": 57,
          "name": "A3",
          "ticks": 275280,
          "time": 463.1429675,
          "velocity": 0.5118110236220472
        },
        {
          "duration": 0.13452391041664669,
          "durationTicks": 113,
          "midi": 59,
          "name": "B3",
          "ticks": 275400,
          "time": 463.28582474999996,
          "velocity": 0.5118110236220472
        },
        {
          "duration": 0.13452391041664669,
          "durationTicks": 113,
          "midi": 60,
          "name": "C4",
          "ticks": 275520,
          "time": 463.428682,
          "velocity": 0.5118110236220472
        },
        {
          "duration": 0.13452391041664669,
          "durationTicks": 113,
          "midi": 62,
          "name": "D4",
          "ticks": 275640,
          "time": 463.57153925,
          "velocity": 0.5118110236220472
        },
        {
          "duration": 0.13452391041664669,
          "durationTicks": 113,
          "midi": 64,
          "name": "E4",
          "ticks": 275760,
          "time": 463.7143965,
          "velocity": 0.5118110236220472
        },
        {
          "duration": 0.13452391041670353,
          "durationTicks": 113,
          "midi": 62,
          "name": "D4",
          "ticks": 275880,
          "time": 463.85725375,
          "velocity": 0.5118110236220472
        },
        {
          "duration": 0.13452391041664669,
          "durationTicks": 113,
          "midi": 60,
          "name": "C4",
          "ticks": 276000,
          "time": 464.000111,
          "velocity": 0.5118110236220472
        },
        {
          "duration": 0.13452391041664669,
          "durationTicks": 113,
          "midi": 64,
          "name": "E4",
          "ticks": 276120,
          "time": 464.14296824999997,
          "velocity": 0.5118110236220472
        },
        {
          "duration": 0.13452391041664669,
          "durationTicks": 113,
          "midi": 60,
          "name": "C4",
          "ticks": 276240,
          "time": 464.2858255,
          "velocity": 0.5118110236220472
        },
        {
          "duration": 0.13452391041664669,
          "durationTicks": 113,
          "midi": 59,
          "name": "B3",
          "ticks": 276360,
          "time": 464.42868275,
          "velocity": 0.5118110236220472
        },
        {
          "duration": 0.13452391041664669,
          "durationTicks": 113,
          "midi": 57,
          "name": "A3",
          "ticks": 276480,
          "time": 464.57154,
          "velocity": 0.5118110236220472
        },
        {
          "duration": 0.13452391041664669,
          "durationTicks": 113,
          "midi": 60,
          "name": "C4",
          "ticks": 276600,
          "time": 464.71439725,
          "velocity": 0.5118110236220472
        },
        {
          "duration": 0.13452391041670353,
          "durationTicks": 113,
          "midi": 57,
          "name": "A3",
          "ticks": 276720,
          "time": 464.85725449999995,
          "velocity": 0.5118110236220472
        },
        {
          "duration": 0.13452391041664669,
          "durationTicks": 113,
          "midi": 55,
          "name": "G3",
          "ticks": 276840,
          "time": 465.00011175,
          "velocity": 0.5118110236220472
        },
        {
          "duration": 0.13452391041664669,
          "durationTicks": 113,
          "midi": 54,
          "name": "F#3",
          "ticks": 276960,
          "time": 465.142969,
          "velocity": 0.5118110236220472
        },
        {
          "duration": 0.13452391041664669,
          "durationTicks": 113,
          "midi": 64,
          "name": "E4",
          "ticks": 277080,
          "time": 465.28582625,
          "velocity": 0.5118110236220472
        },
        {
          "duration": 0.13452391041670353,
          "durationTicks": 113,
          "midi": 63,
          "name": "D#4",
          "ticks": 277200,
          "time": 465.4286835,
          "velocity": 0.5118110236220472
        },
        {
          "duration": 0.13452391041664669,
          "durationTicks": 113,
          "midi": 61,
          "name": "C#4",
          "ticks": 277320,
          "time": 465.57154075,
          "velocity": 0.5118110236220472
        },
        {
          "duration": 0.13452391041664669,
          "durationTicks": 113,
          "midi": 59,
          "name": "B3",
          "ticks": 277440,
          "time": 465.71439799999996,
          "velocity": 0.5118110236220472
        },
        {
          "duration": 0.13452391041664669,
          "durationTicks": 113,
          "midi": 62,
          "name": "D4",
          "ticks": 277560,
          "time": 465.85725525,
          "velocity": 0.5118110236220472
        },
        {
          "duration": 0.13452391041664669,
          "durationTicks": 113,
          "midi": 59,
          "name": "B3",
          "ticks": 277680,
          "time": 466.0001125,
          "velocity": 0.5118110236220472
        },
        {
          "duration": 0.13452391041664669,
          "durationTicks": 113,
          "midi": 57,
          "name": "A3",
          "ticks": 277800,
          "time": 466.14296975,
          "velocity": 0.5118110236220472
        },
        {
          "duration": 0.13452391041670353,
          "durationTicks": 113,
          "midi": 56,
          "name": "G#3",
          "ticks": 277920,
          "time": 466.285827,
          "velocity": 0.5118110236220472
        },
        {
          "duration": 0.13452391041664669,
          "durationTicks": 113,
          "midi": 59,
          "name": "B3",
          "ticks": 278040,
          "time": 466.42868425,
          "velocity": 0.5118110236220472
        },
        {
          "duration": 0.13452391041664669,
          "durationTicks": 113,
          "midi": 56,
          "name": "G#3",
          "ticks": 278160,
          "time": 466.57154149999997,
          "velocity": 0.5118110236220472
        },
        {
          "duration": 0.13452391041664669,
          "durationTicks": 113,
          "midi": 54,
          "name": "F#3",
          "ticks": 278280,
          "time": 466.71439875,
          "velocity": 0.5118110236220472
        },
        {
          "duration": 0.13452391041664669,
          "durationTicks": 113,
          "midi": 52,
          "name": "E3",
          "ticks": 278400,
          "time": 466.857256,
          "velocity": 0.5118110236220472
        },
        {
          "duration": 0.13452391041664669,
          "durationTicks": 113,
          "midi": 62,
          "name": "D4",
          "ticks": 278520,
          "time": 467.00011325,
          "velocity": 0.5118110236220472
        },
        {
          "duration": 0.13452391041664669,
          "durationTicks": 113,
          "midi": 61,
          "name": "C#4",
          "ticks": 278640,
          "time": 467.1429705,
          "velocity": 0.5118110236220472
        },
        {
          "duration": 0.13452391041670353,
          "durationTicks": 113,
          "midi": 59,
          "name": "B3",
          "ticks": 278760,
          "time": 467.28582774999995,
          "velocity": 0.5118110236220472
        },
        {
          "duration": 0.13452391041664669,
          "durationTicks": 113,
          "midi": 57,
          "name": "A3",
          "ticks": 278880,
          "time": 467.428685,
          "velocity": 0.5118110236220472
        },
        {
          "duration": 0.13452391041664669,
          "durationTicks": 113,
          "midi": 60,
          "name": "C4",
          "ticks": 279000,
          "time": 467.57154225,
          "velocity": 0.5118110236220472
        },
        {
          "duration": 0.13452391041664669,
          "durationTicks": 113,
          "midi": 57,
          "name": "A3",
          "ticks": 279120,
          "time": 467.7143995,
          "velocity": 0.5118110236220472
        },
        {
          "duration": 0.13452391041664669,
          "durationTicks": 113,
          "midi": 55,
          "name": "G3",
          "ticks": 279240,
          "time": 467.85725675000003,
          "velocity": 0.5118110236220472
        },
        {
          "duration": 0.13452391041664669,
          "durationTicks": 113,
          "midi": 54,
          "name": "F#3",
          "ticks": 279360,
          "time": 468.000114,
          "velocity": 0.5118110236220472
        },
        {
          "duration": 0.13452391041664669,
          "durationTicks": 113,
          "midi": 57,
          "name": "A3",
          "ticks": 279480,
          "time": 468.14297124999996,
          "velocity": 0.5118110236220472
        },
        {
          "duration": 0.13452391041664669,
          "durationTicks": 113,
          "midi": 54,
          "name": "F#3",
          "ticks": 279600,
          "time": 468.2858285,
          "velocity": 0.5118110236220472
        },
        {
          "duration": 0.13452391041664669,
          "durationTicks": 113,
          "midi": 52,
          "name": "E3",
          "ticks": 279720,
          "time": 468.42868575,
          "velocity": 0.5118110236220472
        },
        {
          "duration": 0.5416670729166526,
          "durationTicks": 455,
          "midi": 51,
          "name": "D#3",
          "ticks": 279840,
          "time": 468.571543,
          "velocity": 0.5118110236220472
        },
        {
          "duration": 0.27023829791664866,
          "durationTicks": 227,
          "midi": 52,
          "name": "E3",
          "ticks": 280320,
          "time": 469.142972,
          "velocity": 0.5118110236220472
        },
        {
          "duration": 0.27023829791664866,
          "durationTicks": 227,
          "midi": 51,
          "name": "D#3",
          "ticks": 280560,
          "time": 469.4286865,
          "velocity": 0.5118110236220472
        },
        {
          "duration": 0.2702382979167055,
          "durationTicks": 227,
          "midi": 52,
          "name": "E3",
          "ticks": 280800,
          "time": 469.71440099999995,
          "velocity": 0.5118110236220472
        },
        {
          "duration": 0.27023829791664866,
          "durationTicks": 227,
          "midi": 46,
          "name": "A#2",
          "ticks": 281040,
          "time": 470.0001155,
          "velocity": 0.5118110236220472
        },
        {
          "duration": 1.1428579999999329,
          "durationTicks": 960,
          "midi": 47,
          "name": "B2",
          "ticks": 281280,
          "time": 470.28583000000003,
          "velocity": 0.5118110236220472
        },
        {
          "duration": 1.0845246229166605,
          "durationTicks": 911,
          "midi": 47,
          "name": "B2",
          "ticks": 282240,
          "time": 471.42868799999997,
          "velocity": 0.5118110236220472
        },
        {
          "duration": 0.5416670729166526,
          "durationTicks": 455,
          "midi": 47,
          "name": "B2",
          "ticks": 283680,
          "time": 473.142975,
          "velocity": 0.5118110236220472
        },
        {
          "duration": 1.1428579999999897,
          "durationTicks": 960,
          "midi": 46,
          "name": "A#2",
          "ticks": 284160,
          "time": 473.714404,
          "velocity": 0.5118110236220472
        },
        {
          "duration": 0.5416670729166526,
          "durationTicks": 455,
          "midi": 46,
          "name": "A#2",
          "ticks": 285120,
          "time": 474.857262,
          "velocity": 0.5118110236220472
        },
        {
          "duration": 0.2702382979167055,
          "durationTicks": 227,
          "midi": 59,
          "name": "B3",
          "ticks": 285600,
          "time": 475.42869099999996,
          "velocity": 0.5118110236220472
        },
        {
          "duration": 0.2702382979167055,
          "durationTicks": 227,
          "midi": 51,
          "name": "D#3",
          "ticks": 285600,
          "time": 475.42869099999996,
          "velocity": 0.5118110236220472
        },
        {
          "duration": 0.2702382979167055,
          "durationTicks": 227,
          "midi": 54,
          "name": "F#3",
          "ticks": 285600,
          "time": 475.42869099999996,
          "velocity": 0.5118110236220472
        },
        {
          "duration": 0.13452391041664669,
          "durationTicks": 113,
          "midi": 59,
          "name": "B3",
          "ticks": 285840,
          "time": 475.7144055,
          "velocity": 0.5118110236220472
        },
        {
          "duration": 0.13452391041664669,
          "durationTicks": 113,
          "midi": 57,
          "name": "A3",
          "ticks": 285960,
          "time": 475.85726275,
          "velocity": 0.5118110236220472
        },
        {
          "duration": 0.2702382979167055,
          "durationTicks": 227,
          "midi": 55,
          "name": "G3",
          "ticks": 286080,
          "time": 476.00012,
          "velocity": 0.5118110236220472
        },
        {
          "duration": 0.13452391041664669,
          "durationTicks": 113,
          "midi": 55,
          "name": "G3",
          "ticks": 286320,
          "time": 476.28583449999996,
          "velocity": 0.5118110236220472
        },
        {
          "duration": 0.13452391041664669,
          "durationTicks": 113,
          "midi": 54,
          "name": "F#3",
          "ticks": 286440,
          "time": 476.42869175,
          "velocity": 0.5118110236220472
        },
        {
          "duration": 0.27023829791664866,
          "durationTicks": 227,
          "midi": 52,
          "name": "E3",
          "ticks": 286560,
          "time": 476.571549,
          "velocity": 0.5118110236220472
        },
        {
          "duration": 0.13452391041664669,
          "durationTicks": 113,
          "midi": 52,
          "name": "E3",
          "ticks": 286800,
          "time": 476.8572635,
          "velocity": 0.5118110236220472
        },
        {
          "duration": 0.13452391041670353,
          "durationTicks": 113,
          "midi": 51,
          "name": "D#3",
          "ticks": 286920,
          "time": 477.00012074999995,
          "velocity": 0.5118110236220472
        },
        {
          "duration": 0.27023829791664866,
          "durationTicks": 227,
          "midi": 52,
          "name": "E3",
          "ticks": 287040,
          "time": 477.14297799999997,
          "velocity": 0.5118110236220472
        },
        {
          "duration": 0.13452391041664669,
          "durationTicks": 113,
          "midi": 52,
          "name": "E3",
          "ticks": 287280,
          "time": 477.4286925,
          "velocity": 0.5118110236220472
        },
        {
          "duration": 0.13452391041664669,
          "durationTicks": 113,
          "midi": 50,
          "name": "D3",
          "ticks": 287400,
          "time": 477.57154975000003,
          "velocity": 0.5118110236220472
        },
        {
          "duration": 0.27023829791664866,
          "durationTicks": 227,
          "midi": 48,
          "name": "C3",
          "ticks": 287520,
          "time": 477.714407,
          "velocity": 0.5118110236220472
        },
        {
          "duration": 0.13452391041664669,
          "durationTicks": 113,
          "midi": 48,
          "name": "C3",
          "ticks": 287760,
          "time": 478.0001215,
          "velocity": 0.5118110236220472
        },
        {
          "duration": 0.13452391041664669,
          "durationTicks": 113,
          "midi": 47,
          "name": "B2",
          "ticks": 287880,
          "time": 478.14297875,
          "velocity": 0.5118110236220472
        },
        {
          "duration": 0.27023829791664866,
          "durationTicks": 227,
          "midi": 45,
          "name": "A2",
          "ticks": 288000,
          "time": 478.285836,
          "velocity": 0.5118110236220472
        },
        {
          "duration": 0.13452391041664669,
          "durationTicks": 113,
          "midi": 45,
          "name": "A2",
          "ticks": 288240,
          "time": 478.5715505,
          "velocity": 0.5118110236220472
        },
        {
          "duration": 0.13452391041664669,
          "durationTicks": 113,
          "midi": 43,
          "name": "G2",
          "ticks": 288360,
          "time": 478.71440774999996,
          "velocity": 0.5118110236220472
        },
        {
          "duration": 0.6773814604166546,
          "durationTicks": 569,
          "midi": 45,
          "name": "A2",
          "ticks": 288480,
          "time": 478.857265,
          "velocity": 0.5118110236220472
        },
        {
          "duration": 0.13452391041664669,
          "durationTicks": 113,
          "midi": 42,
          "name": "F#2",
          "ticks": 289080,
          "time": 479.57155124999997,
          "velocity": 0.5118110236220472
        },
        {
          "duration": 0.13452391041664669,
          "durationTicks": 113,
          "midi": 43,
          "name": "G2",
          "ticks": 289200,
          "time": 479.7144085,
          "velocity": 0.5118110236220472
        },
        {
          "duration": 0.13452391041664669,
          "durationTicks": 113,
          "midi": 45,
          "name": "A2",
          "ticks": 289320,
          "time": 479.85726575,
          "velocity": 0.5118110236220472
        },
        {
          "duration": 0.27023829791664866,
          "durationTicks": 227,
          "midi": 47,
          "name": "B2",
          "ticks": 289440,
          "time": 480.00012300000003,
          "velocity": 0.5118110236220472
        },
        {
          "duration": 0.2702382979167055,
          "durationTicks": 227,
          "midi": 35,
          "name": "B1",
          "ticks": 289680,
          "time": 480.28583749999996,
          "velocity": 0.5118110236220472
        },
        {
          "duration": 0.5416670729166526,
          "durationTicks": 455,
          "midi": 40,
          "name": "E2",
          "ticks": 289920,
          "time": 480.571552,
          "velocity": 0.5118110236220472
        },
        {
          "duration": 0.13452391041664669,
          "durationTicks": 113,
          "midi": 64,
          "name": "E4",
          "ticks": 290040,
          "time": 480.71440925,
          "velocity": 0.5118110236220472
        },
        {
          "duration": 0.13452391041670353,
          "durationTicks": 113,
          "midi": 59,
          "name": "B3",
          "ticks": 290160,
          "time": 480.8572665,
          "velocity": 0.5118110236220472
        },
        {
          "duration": 0.13452391041664669,
          "durationTicks": 113,
          "midi": 55,
          "name": "G3",
          "ticks": 290280,
          "time": 481.00012375,
          "velocity": 0.5118110236220472
        },
        {
          "duration": 0.13452391041664669,
          "durationTicks": 113,
          "midi": 52,
          "name": "E3",
          "ticks": 290400,
          "time": 481.14298099999996,
          "velocity": 0.5118110236220472
        },
        {
          "duration": 0.13452391041664669,
          "durationTicks": 113,
          "midi": 59,
          "name": "B3",
          "ticks": 290520,
          "time": 481.28583825,
          "velocity": 0.5118110236220472
        },
        {
          "duration": 0.13452391041664669,
          "durationTicks": 113,
          "midi": 55,
          "name": "G3",
          "ticks": 290640,
          "time": 481.4286955,
          "velocity": 0.5118110236220472
        },
        {
          "duration": 0.13452391041664669,
          "durationTicks": 113,
          "midi": 52,
          "name": "E3",
          "ticks": 290760,
          "time": 481.57155275,
          "velocity": 0.5118110236220472
        },
        {
          "duration": 0.2702382979167055,
          "durationTicks": 227,
          "midi": 49,
          "name": "C#3",
          "ticks": 290880,
          "time": 481.71441,
          "velocity": 0.5118110236220472
        },
        {
          "duration": 0.5416670729166526,
          "durationTicks": 455,
          "midi": 50,
          "name": "D3",
          "ticks": 291360,
          "time": 482.285839,
          "velocity": 0.5118110236220472
        },
        {
          "duration": 0.13452391041664669,
          "durationTicks": 113,
          "midi": 62,
          "name": "D4",
          "ticks": 291480,
          "time": 482.42869625000003,
          "velocity": 0.5118110236220472
        },
        {
          "duration": 0.13452391041664669,
          "durationTicks": 113,
          "midi": 57,
          "name": "A3",
          "ticks": 291600,
          "time": 482.5715535,
          "velocity": 0.5118110236220472
        },
        {
          "duration": 0.13452391041670353,
          "durationTicks": 113,
          "midi": 54,
          "name": "F#3",
          "ticks": 291720,
          "time": 482.71441074999996,
          "velocity": 0.5118110236220472
        },
        {
          "duration": 0.13452391041664669,
          "durationTicks": 113,
          "midi": 50,
          "name": "D3",
          "ticks": 291840,
          "time": 482.857268,
          "velocity": 0.5118110236220472
        },
        {
          "duration": 0.13452391041664669,
          "durationTicks": 113,
          "midi": 57,
          "name": "A3",
          "ticks": 291960,
          "time": 483.00012525,
          "velocity": 0.5118110236220472
        },
        {
          "duration": 0.13452391041664669,
          "durationTicks": 113,
          "midi": 54,
          "name": "F#3",
          "ticks": 292080,
          "time": 483.1429825,
          "velocity": 0.5118110236220472
        },
        {
          "duration": 0.13452391041670353,
          "durationTicks": 113,
          "midi": 50,
          "name": "D3",
          "ticks": 292200,
          "time": 483.28583975,
          "velocity": 0.5118110236220472
        },
        {
          "duration": 0.27023829791664866,
          "durationTicks": 227,
          "midi": 47,
          "name": "B2",
          "ticks": 292320,
          "time": 483.428697,
          "velocity": 0.5118110236220472
        },
        {
          "duration": 0.5416670729166526,
          "durationTicks": 455,
          "midi": 48,
          "name": "C3",
          "ticks": 292800,
          "time": 484.000126,
          "velocity": 0.5118110236220472
        },
        {
          "duration": 0.13452391041664669,
          "durationTicks": 113,
          "midi": 64,
          "name": "E4",
          "ticks": 293400,
          "time": 484.71441225,
          "velocity": 0.5118110236220472
        },
        {
          "duration": 0.13452391041664669,
          "durationTicks": 113,
          "midi": 60,
          "name": "C4",
          "ticks": 293520,
          "time": 484.85726950000003,
          "velocity": 0.5118110236220472
        },
        {
          "duration": 0.13452391041664669,
          "durationTicks": 113,
          "midi": 57,
          "name": "A3",
          "ticks": 293640,
          "time": 485.00012675,
          "velocity": 0.5118110236220472
        },
        {
          "duration": 0.2702382979167055,
          "durationTicks": 227,
          "midi": 54,
          "name": "F#3",
          "ticks": 293760,
          "time": 485.14298399999996,
          "velocity": 0.5118110236220472
        },
        {
          "duration": 0.27023829791664866,
          "durationTicks": 227,
          "midi": 50,
          "name": "D3",
          "ticks": 294000,
          "time": 485.4286985,
          "velocity": 0.5118110236220472
        },
        {
          "duration": 0.2702382979167055,
          "durationTicks": 227,
          "midi": 55,
          "name": "G3",
          "ticks": 294240,
          "time": 485.714413,
          "velocity": 0.5118110236220472
        },
        {
          "duration": 0.13452391041664669,
          "durationTicks": 113,
          "midi": 65,
          "name": "F4",
          "ticks": 294840,
          "time": 486.42869925,
          "velocity": 0.5118110236220472
        },
        {
          "duration": 0.13452391041670353,
          "durationTicks": 113,
          "midi": 62,
          "name": "D4",
          "ticks": 294960,
          "time": 486.5715565,
          "velocity": 0.5118110236220472
        },
        {
          "duration": 0.13452391041670353,
          "durationTicks": 113,
          "midi": 59,
          "name": "B3",
          "ticks": 295080,
          "time": 486.71441374999995,
          "velocity": 0.5118110236220472
        },
        {
          "duration": 0.27023829791664866,
          "durationTicks": 227,
          "midi": 56,
          "name": "G#3",
          "ticks": 295200,
          "time": 486.85727099999997,
          "velocity": 0.5118110236220472
        },
        {
          "duration": 0.27023829791664866,
          "durationTicks": 227,
          "midi": 52,
          "name": "E3",
          "ticks": 295440,
          "time": 487.1429855,
          "velocity": 0.5118110236220472
        },
        {
          "duration": 0.27023829791664866,
          "durationTicks": 227,
          "midi": 57,
          "name": "A3",
          "ticks": 295680,
          "time": 487.4287,
          "velocity": 0.5118110236220472
        },
        {
          "duration": 0.13452391041664669,
          "durationTicks": 113,
          "midi": 57,
          "name": "A3",
          "ticks": 296640,
          "time": 488.571558,
          "velocity": 0.5118110236220472
        },
        {
          "duration": 0.13452391041664669,
          "durationTicks": 113,
          "midi": 60,
          "name": "C4",
          "ticks": 296760,
          "time": 488.71441525,
          "velocity": 0.5118110236220472
        },
        {
          "duration": 0.13452391041664669,
          "durationTicks": 113,
          "midi": 55,
          "name": "G3",
          "ticks": 296880,
          "time": 488.8572725,
          "velocity": 0.5118110236220472
        },
        {
          "duration": 0.13452391041670353,
          "durationTicks": 113,
          "midi": 60,
          "name": "C4",
          "ticks": 297000,
          "time": 489.00012975,
          "velocity": 0.5118110236220472
        },
        {
          "duration": 0.13452391041670353,
          "durationTicks": 113,
          "midi": 54,
          "name": "F#3",
          "ticks": 297120,
          "time": 489.14298699999995,
          "velocity": 0.5118110236220472
        },
        {
          "duration": 0.13452391041664669,
          "durationTicks": 113,
          "midi": 57,
          "name": "A3",
          "ticks": 297240,
          "time": 489.28584424999997,
          "velocity": 0.5118110236220472
        },
        {
          "duration": 0.13452391041664669,
          "durationTicks": 113,
          "midi": 58,
          "name": "A#3",
          "ticks": 297360,
          "time": 489.4287015,
          "velocity": 0.5118110236220472
        },
        {
          "duration": 0.13452391041664669,
          "durationTicks": 113,
          "midi": 62,
          "name": "D4",
          "ticks": 297480,
          "time": 489.57155875,
          "velocity": 0.5118110236220472
        },
        {
          "duration": 0.13452391041664669,
          "durationTicks": 113,
          "midi": 60,
          "name": "C4",
          "ticks": 297600,
          "time": 489.714416,
          "velocity": 0.5118110236220472
        },
        {
          "duration": 0.13452391041664669,
          "durationTicks": 113,
          "midi": 58,
          "name": "A#3",
          "ticks": 297720,
          "time": 489.85727325,
          "velocity": 0.5118110236220472
        },
        {
          "duration": 0.13452391041670353,
          "durationTicks": 113,
          "midi": 57,
          "name": "A3",
          "ticks": 297840,
          "time": 490.00013049999995,
          "velocity": 0.5118110236220472
        },
        {
          "duration": 0.13452391041664669,
          "durationTicks": 113,
          "midi": 55,
          "name": "G3",
          "ticks": 297960,
          "time": 490.14298775,
          "velocity": 0.5118110236220472
        },
        {
          "duration": 0.13452391041664669,
          "durationTicks": 113,
          "midi": 54,
          "name": "F#3",
          "ticks": 298080,
          "time": 490.285845,
          "velocity": 0.5118110236220472
        },
        {
          "duration": 0.13452391041664669,
          "durationTicks": 113,
          "midi": 57,
          "name": "A3",
          "ticks": 298200,
          "time": 490.42870225,
          "velocity": 0.5118110236220472
        },
        {
          "duration": 0.13452391041670353,
          "durationTicks": 113,
          "midi": 52,
          "name": "E3",
          "ticks": 298320,
          "time": 490.5715595,
          "velocity": 0.5118110236220472
        },
        {
          "duration": 0.13452391041664669,
          "durationTicks": 113,
          "midi": 57,
          "name": "A3",
          "ticks": 298440,
          "time": 490.71441675,
          "velocity": 0.5118110236220472
        },
        {
          "duration": 0.13452391041664669,
          "durationTicks": 113,
          "midi": 50,
          "name": "D3",
          "ticks": 298560,
          "time": 490.85727399999996,
          "velocity": 0.5118110236220472
        },
        {
          "duration": 0.13452391041664669,
          "durationTicks": 113,
          "midi": 54,
          "name": "F#3",
          "ticks": 298680,
          "time": 491.00013125,
          "velocity": 0.5118110236220472
        },
        {
          "duration": 0.13452391041664669,
          "durationTicks": 113,
          "midi": 55,
          "name": "G3",
          "ticks": 298800,
          "time": 491.1429885,
          "velocity": 0.5118110236220472
        },
        {
          "duration": 0.13452391041664669,
          "durationTicks": 113,
          "midi": 58,
          "name": "A#3",
          "ticks": 298920,
          "time": 491.28584575,
          "velocity": 0.5118110236220472
        },
        {
          "duration": 0.13452391041670353,
          "durationTicks": 113,
          "midi": 57,
          "name": "A3",
          "ticks": 299040,
          "time": 491.428703,
          "velocity": 0.5118110236220472
        },
        {
          "duration": 0.13452391041670353,
          "durationTicks": 113,
          "midi": 55,
          "name": "G3",
          "ticks": 299160,
          "time": 491.57156024999995,
          "velocity": 0.5118110236220472
        },
        {
          "duration": 0.13452391041664669,
          "durationTicks": 113,
          "midi": 54,
          "name": "F#3",
          "ticks": 299280,
          "time": 491.71441749999997,
          "velocity": 0.5118110236220472
        },
        {
          "duration": 0.13452391041664669,
          "durationTicks": 113,
          "midi": 52,
          "name": "E3",
          "ticks": 299400,
          "time": 491.85727475,
          "velocity": 0.5118110236220472
        },
        {
          "duration": 0.13452391041664669,
          "durationTicks": 113,
          "midi": 50,
          "name": "D3",
          "ticks": 299520,
          "time": 492.000132,
          "velocity": 0.5118110236220472
        },
        {
          "duration": 0.13452391041664669,
          "durationTicks": 113,
          "midi": 54,
          "name": "F#3",
          "ticks": 299640,
          "time": 492.14298925,
          "velocity": 0.5118110236220472
        },
        {
          "duration": 0.13452391041664669,
          "durationTicks": 113,
          "midi": 48,
          "name": "C3",
          "ticks": 299760,
          "time": 492.2858465,
          "velocity": 0.5118110236220472
        },
        {
          "duration": 0.13452391041670353,
          "durationTicks": 113,
          "midi": 54,
          "name": "F#3",
          "ticks": 299880,
          "time": 492.42870374999995,
          "velocity": 0.5118110236220472
        },
        {
          "duration": 0.13452391041664669,
          "durationTicks": 113,
          "midi": 46,
          "name": "A#2",
          "ticks": 300000,
          "time": 492.571561,
          "velocity": 0.5118110236220472
        },
        {
          "duration": 0.13452391041664669,
          "durationTicks": 113,
          "midi": 50,
          "name": "D3",
          "ticks": 300120,
          "time": 492.71441825,
          "velocity": 0.5118110236220472
        },
        {
          "duration": 0.13452391041664669,
          "durationTicks": 113,
          "midi": 52,
          "name": "E3",
          "ticks": 300240,
          "time": 492.8572755,
          "velocity": 0.5118110236220472
        },
        {
          "duration": 0.13452391041670353,
          "durationTicks": 113,
          "midi": 55,
          "name": "G3",
          "ticks": 300360,
          "time": 493.00013275,
          "velocity": 0.5118110236220472
        },
        {
          "duration": 0.13452391041664669,
          "durationTicks": 113,
          "midi": 48,
          "name": "C3",
          "ticks": 300480,
          "time": 493.14299,
          "velocity": 0.5118110236220472
        },
        {
          "duration": 0.13452391041664669,
          "durationTicks": 113,
          "midi": 52,
          "name": "E3",
          "ticks": 300600,
          "time": 493.28584724999996,
          "velocity": 0.5118110236220472
        },
        {
          "duration": 0.13452391041664669,
          "durationTicks": 113,
          "midi": 54,
          "name": "F#3",
          "ticks": 300720,
          "time": 493.4287045,
          "velocity": 0.5118110236220472
        },
        {
          "duration": 0.13452391041664669,
          "durationTicks": 113,
          "midi": 57,
          "name": "A3",
          "ticks": 300840,
          "time": 493.57156175,
          "velocity": 0.5118110236220472
        },
        {
          "duration": 0.13452391041664669,
          "durationTicks": 113,
          "midi": 50,
          "name": "D3",
          "ticks": 300960,
          "time": 493.714419,
          "velocity": 0.5118110236220472
        },
        {
          "duration": 0.13452391041670353,
          "durationTicks": 113,
          "midi": 54,
          "name": "F#3",
          "ticks": 301080,
          "time": 493.85727625,
          "velocity": 0.5118110236220472
        },
        {
          "duration": 0.13452391041670353,
          "durationTicks": 113,
          "midi": 55,
          "name": "G3",
          "ticks": 301200,
          "time": 494.00013349999995,
          "velocity": 0.5118110236220472
        },
        {
          "duration": 0.13452391041664669,
          "durationTicks": 113,
          "midi": 58,
          "name": "A#3",
          "ticks": 301320,
          "time": 494.14299074999997,
          "velocity": 0.5118110236220472
        },
        {
          "duration": 0.13452391041664669,
          "durationTicks": 113,
          "midi": 52,
          "name": "E3",
          "ticks": 301440,
          "time": 494.285848,
          "velocity": 0.5118110236220472
        },
        {
          "duration": 0.13452391041664669,
          "durationTicks": 113,
          "midi": 55,
          "name": "G3",
          "ticks": 301560,
          "time": 494.42870525,
          "velocity": 0.5118110236220472
        },
        {
          "duration": 0.13452391041664669,
          "durationTicks": 113,
          "midi": 57,
          "name": "A3",
          "ticks": 301680,
          "time": 494.5715625,
          "velocity": 0.5118110236220472
        },
        {
          "duration": 0.13452391041664669,
          "durationTicks": 113,
          "midi": 58,
          "name": "A#3",
          "ticks": 301800,
          "time": 494.71441975,
          "velocity": 0.5118110236220472
        },
        {
          "duration": 0.13452391041670353,
          "durationTicks": 113,
          "midi": 54,
          "name": "F#3",
          "ticks": 301920,
          "time": 494.85727699999995,
          "velocity": 0.5118110236220472
        },
        {
          "duration": 0.13452391041664669,
          "durationTicks": 113,
          "midi": 57,
          "name": "A3",
          "ticks": 302040,
          "time": 495.00013425,
          "velocity": 0.5118110236220472
        },
        {
          "duration": 0.13452391041664669,
          "durationTicks": 113,
          "midi": 58,
          "name": "A#3",
          "ticks": 302160,
          "time": 495.1429915,
          "velocity": 0.5118110236220472
        },
        {
          "duration": 0.13452391041664669,
          "durationTicks": 113,
          "midi": 60,
          "name": "C4",
          "ticks": 302280,
          "time": 495.28584875,
          "velocity": 0.5118110236220472
        },
        {
          "duration": 0.13452391041670353,
          "durationTicks": 113,
          "midi": 58,
          "name": "A#3",
          "ticks": 302400,
          "time": 495.428706,
          "velocity": 0.5118110236220472
        },
        {
          "duration": 0.13452391041664669,
          "durationTicks": 113,
          "midi": 57,
          "name": "A3",
          "ticks": 302520,
          "time": 495.57156325,
          "velocity": 0.5118110236220472
        },
        {
          "duration": 0.13452391041664669,
          "durationTicks": 113,
          "midi": 55,
          "name": "G3",
          "ticks": 302640,
          "time": 495.71442049999996,
          "velocity": 0.5118110236220472
        },
        {
          "duration": 0.13452391041664669,
          "durationTicks": 113,
          "midi": 54,
          "name": "F#3",
          "ticks": 302760,
          "time": 495.85727775,
          "velocity": 0.5118110236220472
        },
        {
          "duration": 0.27023829791664866,
          "durationTicks": 227,
          "midi": 55,
          "name": "G3",
          "ticks": 302880,
          "time": 496.000135,
          "velocity": 0.5118110236220472
        },
        {
          "duration": 0.2702382979167055,
          "durationTicks": 227,
          "midi": 50,
          "name": "D3",
          "ticks": 303120,
          "time": 496.2858495,
          "velocity": 0.5118110236220472
        },
        {
          "duration": 0.27023829791664866,
          "durationTicks": 227,
          "midi": 51,
          "name": "D#3",
          "ticks": 303360,
          "time": 496.57156399999997,
          "velocity": 0.5118110236220472
        },
        {
          "duration": 0.27023829791664866,
          "durationTicks": 227,
          "midi": 48,
          "name": "C3",
          "ticks": 303600,
          "time": 496.8572785,
          "velocity": 0.5118110236220472
        },
        {
          "duration": 0.2702382979167055,
          "durationTicks": 227,
          "midi": 50,
          "name": "D3",
          "ticks": 303840,
          "time": 497.142993,
          "velocity": 0.5118110236220472
        },
        {
          "duration": 0.27023829791664866,
          "durationTicks": 227,
          "midi": 38,
          "name": "D2",
          "ticks": 304080,
          "time": 497.4287075,
          "velocity": 0.5118110236220472
        },
        {
          "duration": 1.1428579999999897,
          "durationTicks": 960,
          "midi": 43,
          "name": "G2",
          "ticks": 304320,
          "time": 497.714422,
          "velocity": 0.5118110236220472
        },
        {
          "duration": 1.7142869999999562,
          "durationTicks": 1440,
          "midi": 43,
          "name": "G2",
          "ticks": 305280,
          "time": 498.85728,
          "velocity": 0.5118110236220472
        },
        {
          "duration": 1.0845246229166605,
          "durationTicks": 911,
          "midi": 43,
          "name": "G2",
          "ticks": 306720,
          "time": 500.57156699999996,
          "velocity": 0.5118110236220472
        },
        {
          "duration": 1.0845246229166605,
          "durationTicks": 911,
          "midi": 43,
          "name": "G2",
          "ticks": 308160,
          "time": 502.285854,
          "velocity": 0.5118110236220472
        },
        {
          "duration": 0.5416670729166526,
          "durationTicks": 455,
          "midi": 43,
          "name": "G2",
          "ticks": 309600,
          "time": 504.000141,
          "velocity": 0.5118110236220472
        },
        {
          "duration": 0.13452391041664669,
          "durationTicks": 113,
          "midi": 58,
          "name": "A#3",
          "ticks": 310320,
          "time": 504.8572845,
          "velocity": 0.5118110236220472
        },
        {
          "duration": 0.13452391041664669,
          "durationTicks": 113,
          "midi": 57,
          "name": "A3",
          "ticks": 310440,
          "time": 505.00014175,
          "velocity": 0.5118110236220472
        },
        {
          "duration": 0.2702382979167055,
          "durationTicks": 227,
          "midi": 55,
          "name": "G3",
          "ticks": 310560,
          "time": 505.142999,
          "velocity": 0.5118110236220472
        },
        {
          "duration": 0.13452391041664669,
          "durationTicks": 113,
          "midi": 55,
          "name": "G3",
          "ticks": 310800,
          "time": 505.42871349999996,
          "velocity": 0.5118110236220472
        },
        {
          "duration": 0.13452391041664669,
          "durationTicks": 113,
          "midi": 53,
          "name": "F3",
          "ticks": 310920,
          "time": 505.57157075,
          "velocity": 0.5118110236220472
        },
        {
          "duration": 0.13452391041664669,
          "durationTicks": 113,
          "midi": 52,
          "name": "E3",
          "ticks": 311040,
          "time": 505.714428,
          "velocity": 0.5118110236220472
        },
        {
          "duration": 0.13452391041664669,
          "durationTicks": 113,
          "midi": 57,
          "name": "A3",
          "ticks": 311160,
          "time": 505.85728525,
          "velocity": 0.5118110236220472
        },
        {
          "duration": 0.13452391041670353,
          "durationTicks": 113,
          "midi": 55,
          "name": "G3",
          "ticks": 311280,
          "time": 506.0001425,
          "velocity": 0.5118110236220472
        },
        {
          "duration": 0.13452391041664669,
          "durationTicks": 113,
          "midi": 57,
          "name": "A3",
          "ticks": 311400,
          "time": 506.14299975,
          "velocity": 0.5118110236220472
        },
        {
          "duration": 0.13452391041664669,
          "durationTicks": 113,
          "midi": 50,
          "name": "D3",
          "ticks": 311520,
          "time": 506.28585699999996,
          "velocity": 0.5118110236220472
        },
        {
          "duration": 0.13452391041664669,
          "durationTicks": 113,
          "midi": 57,
          "name": "A3",
          "ticks": 311640,
          "time": 506.42871425,
          "velocity": 0.5118110236220472
        },
        {
          "duration": 0.13452391041664669,
          "durationTicks": 113,
          "midi": 62,
          "name": "D4",
          "ticks": 311760,
          "time": 506.5715715,
          "velocity": 0.5118110236220472
        },
        {
          "duration": 0.13452391041664669,
          "durationTicks": 113,
          "midi": 60,
          "name": "C4",
          "ticks": 311880,
          "time": 506.71442875,
          "velocity": 0.5118110236220472
        },
        {
          "duration": 0.13452391041664669,
          "durationTicks": 113,
          "midi": 58,
          "name": "A#3",
          "ticks": 312000,
          "time": 506.857286,
          "velocity": 0.5118110236220472
        },
        {
          "duration": 0.13452391041670353,
          "durationTicks": 113,
          "midi": 60,
          "name": "C4",
          "ticks": 312120,
          "time": 507.00014324999995,
          "velocity": 0.5118110236220472
        },
        {
          "duration": 0.13452391041664669,
          "durationTicks": 113,
          "midi": 62,
          "name": "D4",
          "ticks": 312240,
          "time": 507.14300049999997,
          "velocity": 0.5118110236220472
        },
        {
          "duration": 0.13452391041664669,
          "durationTicks": 113,
          "midi": 58,
          "name": "A#3",
          "ticks": 312360,
          "time": 507.28585775,
          "velocity": 0.5118110236220472
        },
        {
          "duration": 0.13452391041664669,
          "durationTicks": 113,
          "midi": 55,
          "name": "G3",
          "ticks": 312480,
          "time": 507.428715,
          "velocity": 0.5118110236220472
        },
        {
          "duration": 0.13452391041670353,
          "durationTicks": 113,
          "midi": 57,
          "name": "A3",
          "ticks": 312600,
          "time": 507.57157225,
          "velocity": 0.5118110236220472
        },
        {
          "duration": 0.13452391041664669,
          "durationTicks": 113,
          "midi": 58,
          "name": "A#3",
          "ticks": 312720,
          "time": 507.7144295,
          "velocity": 0.5118110236220472
        },
        {
          "duration": 0.13452391041664669,
          "durationTicks": 113,
          "midi": 55,
          "name": "G3",
          "ticks": 312840,
          "time": 507.85728674999996,
          "velocity": 0.5118110236220472
        },
        {
          "duration": 0.5416670729166526,
          "durationTicks": 455,
          "midi": 49,
          "name": "C#3",
          "ticks": 312960,
          "time": 508.000144,
          "velocity": 0.5118110236220472
        },
        {
          "duration": 0.27023829791664866,
          "durationTicks": 227,
          "midi": 52,
          "name": "E3",
          "ticks": 313680,
          "time": 508.8572875,
          "velocity": 0.5118110236220472
        },
        {
          "duration": 0.27023829791664866,
          "durationTicks": 227,
          "midi": 45,
          "name": "A2",
          "ticks": 313920,
          "time": 509.143002,
          "velocity": 0.5118110236220472
        },
        {
          "duration": 0.2702382979167055,
          "durationTicks": 227,
          "midi": 49,
          "name": "C#3",
          "ticks": 314160,
          "time": 509.42871649999995,
          "velocity": 0.5118110236220472
        },
        {
          "duration": 0.13452391041664669,
          "durationTicks": 113,
          "midi": 50,
          "name": "D3",
          "ticks": 314400,
          "time": 509.714431,
          "velocity": 0.5118110236220472
        },
        {
          "duration": 0.13452391041664669,
          "durationTicks": 113,
          "midi": 52,
          "name": "E3",
          "ticks": 314520,
          "time": 509.85728825,
          "velocity": 0.5118110236220472
        },
        {
          "duration": 0.13452391041664669,
          "durationTicks": 113,
          "midi": 53,
          "name": "F3",
          "ticks": 314640,
          "time": 510.00014550000003,
          "velocity": 0.5118110236220472
        },
        {
          "duration": 0.13452391041664669,
          "durationTicks": 113,
          "midi": 50,
          "name": "D3",
          "ticks": 314760,
          "time": 510.14300275,
          "velocity": 0.5118110236220472
        },
        {
          "duration": 0.2702382979167055,
          "durationTicks": 227,
          "midi": 46,
          "name": "A#2",
          "ticks": 314880,
          "time": 510.28585999999996,
          "velocity": 0.5118110236220472
        },
        {
          "duration": 0.27023829791664866,
          "durationTicks": 227,
          "midi": 45,
          "name": "A2",
          "ticks": 315120,
          "time": 510.5715745,
          "velocity": 0.5118110236220472
        },
        {
          "duration": 0.2702382979167055,
          "durationTicks": 227,
          "midi": 43,
          "name": "G2",
          "ticks": 315360,
          "time": 510.857289,
          "velocity": 0.5118110236220472
        },
        {
          "duration": 0.27023829791664866,
          "durationTicks": 227,
          "midi": 41,
          "name": "F2",
          "ticks": 315600,
          "time": 511.14300349999996,
          "velocity": 0.5118110236220472
        },
        {
          "duration": 0.27023829791664866,
          "durationTicks": 227,
          "midi": 43,
          "name": "G2",
          "ticks": 315840,
          "time": 511.428718,
          "velocity": 0.5118110236220472
        },
        {
          "duration": 0.13452391041664669,
          "durationTicks": 113,
          "midi": 55,
          "name": "G3",
          "ticks": 316080,
          "time": 511.7144325,
          "velocity": 0.5118110236220472
        },
        {
          "duration": 0.13452391041670353,
          "durationTicks": 113,
          "midi": 53,
          "name": "F3",
          "ticks": 316200,
          "time": 511.85728974999995,
          "velocity": 0.5118110236220472
        },
        {
          "duration": 0.27023829791664866,
          "durationTicks": 227,
          "midi": 52,
          "name": "E3",
          "ticks": 316320,
          "time": 512.000147,
          "velocity": 0.5118110236220472
        },
        {
          "duration": 0.27023829791664866,
          "durationTicks": 227,
          "midi": 55,
          "name": "G3",
          "ticks": 316560,
          "time": 512.2858615,
          "velocity": 0.5118110236220472
        },
        {
          "duration": 0.8130958479166566,
          "durationTicks": 683,
          "midi": 60,
          "name": "C4",
          "ticks": 316800,
          "time": 512.571576,
          "velocity": 0.5118110236220472
        },
        {
          "duration": 0.27023829791664866,
          "durationTicks": 227,
          "midi": 57,
          "name": "A3",
          "ticks": 316800,
          "time": 512.571576,
          "velocity": 0.5118110236220472
        },
        {
          "duration": 0.27023829791664866,
          "durationTicks": 227,
          "midi": 45,
          "name": "A2",
          "ticks": 317040,
          "time": 512.8572905,
          "velocity": 0.5118110236220472
        },
        {
          "duration": 2.1702397229165626,
          "durationTicks": 1823,
          "midi": 50,
          "name": "D3",
          "ticks": 317280,
          "time": 513.143005,
          "velocity": 0.5118110236220472
        },
        {
          "duration": 0.27023829791664866,
          "durationTicks": 227,
          "midi": 58,
          "name": "A#3",
          "ticks": 317520,
          "time": 513.4287194999999,
          "velocity": 0.5118110236220472
        },
        {
          "duration": 0.27023829791664866,
          "durationTicks": 227,
          "midi": 57,
          "name": "A3",
          "ticks": 317760,
          "time": 513.714434,
          "velocity": 0.5118110236220472
        },
        {
          "duration": 0.27023829791664866,
          "durationTicks": 227,
          "midi": 55,
          "name": "G3",
          "ticks": 318000,
          "time": 514.0001485,
          "velocity": 0.5118110236220472
        },
        {
          "duration": 0.27023829791676235,
          "durationTicks": 227,
          "midi": 54,
          "name": "F#3",
          "ticks": 318240,
          "time": 514.285863,
          "velocity": 0.5118110236220472
        },
        {
          "duration": 0.27023829791664866,
          "durationTicks": 227,
          "midi": 53,
          "name": "F3",
          "ticks": 318480,
          "time": 514.5715775,
          "velocity": 0.5118110236220472
        },
        {
          "duration": 0.27023829791664866,
          "durationTicks": 227,
          "midi": 52,
          "name": "E3",
          "ticks": 318720,
          "time": 514.857292,
          "velocity": 0.5118110236220472
        },
        {
          "duration": 0.13452391041664669,
          "durationTicks": 113,
          "midi": 56,
          "name": "G#3",
          "ticks": 318960,
          "time": 515.1430065,
          "velocity": 0.5118110236220472
        },
        {
          "duration": 0.13452391041664669,
          "durationTicks": 113,
          "midi": 57,
          "name": "A3",
          "ticks": 319080,
          "time": 515.28586375,
          "velocity": 0.5118110236220472
        },
        {
          "duration": 0.27023829791664866,
          "durationTicks": 227,
          "midi": 59,
          "name": "B3",
          "ticks": 319200,
          "time": 515.428721,
          "velocity": 0.5118110236220472
        },
        {
          "duration": 0.13452391041664669,
          "durationTicks": 113,
          "midi": 59,
          "name": "B3",
          "ticks": 319440,
          "time": 515.7144355,
          "velocity": 0.5118110236220472
        },
        {
          "duration": 0.13452391041664669,
          "durationTicks": 113,
          "midi": 60,
          "name": "C4",
          "ticks": 319560,
          "time": 515.8572927499999,
          "velocity": 0.5118110236220472
        },
        {
          "duration": 0.27023829791664866,
          "durationTicks": 227,
          "midi": 62,
          "name": "D4",
          "ticks": 319680,
          "time": 516.00015,
          "velocity": 0.5118110236220472
        },
        {
          "duration": 0.5416670729167663,
          "durationTicks": 455,
          "midi": 56,
          "name": "G#3",
          "ticks": 319680,
          "time": 516.00015,
          "velocity": 0.5118110236220472
        },
        {
          "duration": 0.13452391041664669,
          "durationTicks": 113,
          "midi": 60,
          "name": "C4",
          "ticks": 319920,
          "time": 516.2858645,
          "velocity": 0.5118110236220472
        },
        {
          "duration": 0.13452391041664669,
          "durationTicks": 113,
          "midi": 59,
          "name": "B3",
          "ticks": 320040,
          "time": 516.42872175,
          "velocity": 0.5118110236220472
        },
        {
          "duration": 0.27023829791676235,
          "durationTicks": 227,
          "midi": 57,
          "name": "A3",
          "ticks": 320160,
          "time": 516.5715789999999,
          "velocity": 0.5118110236220472
        },
        {
          "duration": 0.13452391041664669,
          "durationTicks": 113,
          "midi": 58,
          "name": "A#3",
          "ticks": 320400,
          "time": 516.8572935,
          "velocity": 0.5118110236220472
        },
        {
          "duration": 0.13452391041664669,
          "durationTicks": 113,
          "midi": 60,
          "name": "C4",
          "ticks": 320520,
          "time": 517.00015075,
          "velocity": 0.5118110236220472
        },
        {
          "duration": 0.27023829791664866,
          "durationTicks": 227,
          "midi": 62,
          "name": "D4",
          "ticks": 320640,
          "time": 517.143008,
          "velocity": 0.5118110236220472
        },
        {
          "duration": 0.27023829791664866,
          "durationTicks": 227,
          "midi": 60,
          "name": "C4",
          "ticks": 320880,
          "time": 517.4287225,
          "velocity": 0.5118110236220472
        },
        {
          "duration": 0.27023829791664866,
          "durationTicks": 227,
          "midi": 58,
          "name": "A#3",
          "ticks": 321120,
          "time": 517.714437,
          "velocity": 0.5118110236220472
        },
        {
          "duration": 0.27023829791664866,
          "durationTicks": 227,
          "midi": 57,
          "name": "A3",
          "ticks": 321360,
          "time": 518.0001515,
          "velocity": 0.5118110236220472
        },
        {
          "duration": 0.27023829791664866,
          "durationTicks": 227,
          "midi": 55,
          "name": "G3",
          "ticks": 321600,
          "time": 518.2858659999999,
          "velocity": 0.5118110236220472
        },
        {
          "duration": 0.13452391041664669,
          "durationTicks": 113,
          "midi": 57,
          "name": "A3",
          "ticks": 321840,
          "time": 518.5715805,
          "velocity": 0.5118110236220472
        },
        {
          "duration": 0.13452391041664669,
          "durationTicks": 113,
          "midi": 58,
          "name": "A#3",
          "ticks": 321960,
          "time": 518.71443775,
          "velocity": 0.5118110236220472
        },
        {
          "duration": 0.27023829791664866,
          "durationTicks": 227,
          "midi": 60,
          "name": "C4",
          "ticks": 322080,
          "time": 518.857295,
          "velocity": 0.5118110236220472
        },
        {
          "duration": 0.27023829791676235,
          "durationTicks": 227,
          "midi": 58,
          "name": "A#3",
          "ticks": 322320,
          "time": 519.1430095,
          "velocity": 0.5118110236220472
        },
        {
          "duration": 0.27023829791664866,
          "durationTicks": 227,
          "midi": 57,
          "name": "A3",
          "ticks": 322560,
          "time": 519.428724,
          "velocity": 0.5118110236220472
        },
        {
          "duration": 0.27023829791664866,
          "durationTicks": 227,
          "midi": 55,
          "name": "G3",
          "ticks": 322800,
          "time": 519.7144385,
          "velocity": 0.5118110236220472
        },
        {
          "duration": 0.13452391041664669,
          "durationTicks": 113,
          "midi": 53,
          "name": "F3",
          "ticks": 323040,
          "time": 520.000153,
          "velocity": 0.5118110236220472
        },
        {
          "duration": 0.13452391041664669,
          "durationTicks": 113,
          "midi": 52,
          "name": "E3",
          "ticks": 323160,
          "time": 520.14301025,
          "velocity": 0.5118110236220472
        },
        {
          "duration": 0.13452391041664669,
          "durationTicks": 113,
          "midi": 50,
          "name": "D3",
          "ticks": 323280,
          "time": 520.2858675,
          "velocity": 0.5118110236220472
        },
        {
          "duration": 0.13452391041664669,
          "durationTicks": 113,
          "midi": 48,
          "name": "C3",
          "ticks": 323400,
          "time": 520.42872475,
          "velocity": 0.5118110236220472
        },
        {
          "duration": 0.13452391041664669,
          "durationTicks": 113,
          "midi": 47,
          "name": "B2",
          "ticks": 323520,
          "time": 520.571582,
          "velocity": 0.5118110236220472
        },
        {
          "duration": 0.13452391041664669,
          "durationTicks": 113,
          "midi": 49,
          "name": "C#3",
          "ticks": 323640,
          "time": 520.7144392499999,
          "velocity": 0.5118110236220472
        },
        {
          "duration": 0.13452391041664669,
          "durationTicks": 113,
          "midi": 50,
          "name": "D3",
          "ticks": 323760,
          "time": 520.8572965,
          "velocity": 0.5118110236220472
        },
        {
          "duration": 0.13452391041664669,
          "durationTicks": 113,
          "midi": 52,
          "name": "E3",
          "ticks": 323880,
          "time": 521.00015375,
          "velocity": 0.5118110236220472
        },
        {
          "duration": 0.13452391041664669,
          "durationTicks": 113,
          "midi": 53,
          "name": "F3",
          "ticks": 324000,
          "time": 521.143011,
          "velocity": 0.5118110236220472
        },
        {
          "duration": 0.13452391041664669,
          "durationTicks": 113,
          "midi": 57,
          "name": "A3",
          "ticks": 324120,
          "time": 521.28586825,
          "velocity": 0.5118110236220472
        },
        {
          "duration": 0.13452391041664669,
          "durationTicks": 113,
          "midi": 55,
          "name": "G3",
          "ticks": 324240,
          "time": 521.4287254999999,
          "velocity": 0.5118110236220472
        },
        {
          "duration": 0.13452391041676037,
          "durationTicks": 113,
          "midi": 53,
          "name": "F3",
          "ticks": 324360,
          "time": 521.57158275,
          "velocity": 0.5118110236220472
        },
        {
          "duration": 0.13452391041664669,
          "durationTicks": 113,
          "midi": 52,
          "name": "E3",
          "ticks": 324480,
          "time": 521.71444,
          "velocity": 0.5118110236220472
        },
        {
          "duration": 0.13452391041664669,
          "durationTicks": 113,
          "midi": 50,
          "name": "D3",
          "ticks": 324600,
          "time": 521.85729725,
          "velocity": 0.5118110236220472
        },
        {
          "duration": 0.13452391041664669,
          "durationTicks": 113,
          "midi": 49,
          "name": "C#3",
          "ticks": 324720,
          "time": 522.0001545,
          "velocity": 0.5118110236220472
        },
        {
          "duration": 0.13452391041664669,
          "durationTicks": 113,
          "midi": 47,
          "name": "B2",
          "ticks": 324840,
          "time": 522.14301175,
          "velocity": 0.5118110236220472
        },
        {
          "duration": 0.13452391041664669,
          "durationTicks": 113,
          "midi": 45,
          "name": "A2",
          "ticks": 324960,
          "time": 522.285869,
          "velocity": 0.5118110236220472
        },
        {
          "duration": 0.13452391041664669,
          "durationTicks": 113,
          "midi": 47,
          "name": "B2",
          "ticks": 325080,
          "time": 522.42872625,
          "velocity": 0.5118110236220472
        },
        {
          "duration": 0.13452391041664669,
          "durationTicks": 113,
          "midi": 49,
          "name": "C#3",
          "ticks": 325200,
          "time": 522.5715835,
          "velocity": 0.5118110236220472
        },
        {
          "duration": 0.13452391041664669,
          "durationTicks": 113,
          "midi": 50,
          "name": "D3",
          "ticks": 325320,
          "time": 522.71444075,
          "velocity": 0.5118110236220472
        },
        {
          "duration": 0.13452391041664669,
          "durationTicks": 113,
          "midi": 52,
          "name": "E3",
          "ticks": 325440,
          "time": 522.857298,
          "velocity": 0.5118110236220472
        },
        {
          "duration": 0.13452391041664669,
          "durationTicks": 113,
          "midi": 55,
          "name": "G3",
          "ticks": 325560,
          "time": 523.00015525,
          "velocity": 0.5118110236220472
        },
        {
          "duration": 0.13452391041664669,
          "durationTicks": 113,
          "midi": 53,
          "name": "F3",
          "ticks": 325680,
          "time": 523.1430124999999,
          "velocity": 0.5118110236220472
        },
        {
          "duration": 0.13452391041664669,
          "durationTicks": 113,
          "midi": 52,
          "name": "E3",
          "ticks": 325800,
          "time": 523.28586975,
          "velocity": 0.5118110236220472
        },
        {
          "duration": 0.27023829791664866,
          "durationTicks": 227,
          "midi": 50,
          "name": "D3",
          "ticks": 325920,
          "time": 523.428727,
          "velocity": 0.5118110236220472
        },
        {
          "duration": 0.13452391041664669,
          "durationTicks": 113,
          "midi": 52,
          "name": "E3",
          "ticks": 326160,
          "time": 523.7144415,
          "velocity": 0.5118110236220472
        },
        {
          "duration": 0.13452391041676037,
          "durationTicks": 113,
          "midi": 53,
          "name": "F3",
          "ticks": 326280,
          "time": 523.8572987499999,
          "velocity": 0.5118110236220472
        },
        {
          "duration": 0.27023829791676235,
          "durationTicks": 227,
          "midi": 55,
          "name": "G3",
          "ticks": 326400,
          "time": 524.000156,
          "velocity": 0.5118110236220472
        },
        {
          "duration": 0.27023829791664866,
          "durationTicks": 227,
          "midi": 53,
          "name": "F3",
          "ticks": 326640,
          "time": 524.2858705,
          "velocity": 0.5118110236220472
        },
        {
          "duration": 0.27023829791664866,
          "durationTicks": 227,
          "midi": 52,
          "name": "E3",
          "ticks": 326880,
          "time": 524.571585,
          "velocity": 0.5118110236220472
        },
        {
          "duration": 0.27023829791664866,
          "durationTicks": 227,
          "midi": 50,
          "name": "D3",
          "ticks": 327120,
          "time": 524.8572995,
          "velocity": 0.5118110236220472
        },
        {
          "duration": 0.27023829791664866,
          "durationTicks": 227,
          "midi": 48,
          "name": "C3",
          "ticks": 327360,
          "time": 525.143014,
          "velocity": 0.5118110236220472
        },
        {
          "duration": 0.13452391041664669,
          "durationTicks": 113,
          "midi": 50,
          "name": "D3",
          "ticks": 327600,
          "time": 525.4287285,
          "velocity": 0.5118110236220472
        },
        {
          "duration": 0.13452391041664669,
          "durationTicks": 113,
          "midi": 52,
          "name": "E3",
          "ticks": 327720,
          "time": 525.5715857499999,
          "velocity": 0.5118110236220472
        },
        {
          "duration": 0.27023829791676235,
          "durationTicks": 227,
          "midi": 53,
          "name": "F3",
          "ticks": 327840,
          "time": 525.714443,
          "velocity": 0.5118110236220472
        },
        {
          "duration": 0.27023829791664866,
          "durationTicks": 227,
          "midi": 51,
          "name": "D#3",
          "ticks": 328080,
          "time": 526.0001575,
          "velocity": 0.5118110236220472
        },
        {
          "duration": 0.27023829791676235,
          "durationTicks": 227,
          "midi": 50,
          "name": "D3",
          "ticks": 328320,
          "time": 526.2858719999999,
          "velocity": 0.5118110236220472
        },
        {
          "duration": 0.27023829791664866,
          "durationTicks": 227,
          "midi": 48,
          "name": "C3",
          "ticks": 328560,
          "time": 526.5715865,
          "velocity": 0.5118110236220472
        },
        {
          "duration": 0.13452391041664669,
          "durationTicks": 113,
          "midi": 46,
          "name": "A#2",
          "ticks": 328800,
          "time": 526.857301,
          "velocity": 0.5118110236220472
        },
        {
          "duration": 0.13452391041664669,
          "durationTicks": 113,
          "midi": 45,
          "name": "A2",
          "ticks": 328920,
          "time": 527.00015825,
          "velocity": 0.5118110236220472
        },
        {
          "duration": 0.13452391041664669,
          "durationTicks": 113,
          "midi": 43,
          "name": "G2",
          "ticks": 329040,
          "time": 527.1430155,
          "velocity": 0.5118110236220472
        },
        {
          "duration": 0.13452391041664669,
          "durationTicks": 113,
          "midi": 41,
          "name": "F2",
          "ticks": 329160,
          "time": 527.28587275,
          "velocity": 0.5118110236220472
        },
        {
          "duration": 0.13452391041664669,
          "durationTicks": 113,
          "midi": 40,
          "name": "E2",
          "ticks": 329280,
          "time": 527.42873,
          "velocity": 0.5118110236220472
        },
        {
          "duration": 0.13452391041664669,
          "durationTicks": 113,
          "midi": 42,
          "name": "F#2",
          "ticks": 329400,
          "time": 527.57158725,
          "velocity": 0.5118110236220472
        },
        {
          "duration": 0.13452391041664669,
          "durationTicks": 113,
          "midi": 43,
          "name": "G2",
          "ticks": 329520,
          "time": 527.7144445,
          "velocity": 0.5118110236220472
        },
        {
          "duration": 0.13452391041664669,
          "durationTicks": 113,
          "midi": 45,
          "name": "A2",
          "ticks": 329640,
          "time": 527.85730175,
          "velocity": 0.5118110236220472
        },
        {
          "duration": 0.13452391041664669,
          "durationTicks": 113,
          "midi": 46,
          "name": "A#2",
          "ticks": 329760,
          "time": 528.0001589999999,
          "velocity": 0.5118110236220472
        },
        {
          "duration": 0.13452391041664669,
          "durationTicks": 113,
          "midi": 50,
          "name": "D3",
          "ticks": 329880,
          "time": 528.14301625,
          "velocity": 0.5118110236220472
        },
        {
          "duration": 0.13452391041664669,
          "durationTicks": 113,
          "midi": 48,
          "name": "C3",
          "ticks": 330000,
          "time": 528.2858735,
          "velocity": 0.5118110236220472
        },
        {
          "duration": 0.13452391041664669,
          "durationTicks": 113,
          "midi": 46,
          "name": "A#2",
          "ticks": 330120,
          "time": 528.42873075,
          "velocity": 0.5118110236220472
        },
        {
          "duration": 0.27023829791664866,
          "durationTicks": 227,
          "midi": 45,
          "name": "A2",
          "ticks": 330240,
          "time": 528.571588,
          "velocity": 0.5118110236220472
        },
        {
          "duration": 0.13452391041676037,
          "durationTicks": 113,
          "midi": 46,
          "name": "A#2",
          "ticks": 330480,
          "time": 528.8573025,
          "velocity": 0.5118110236220472
        },
        {
          "duration": 0.13452391041664669,
          "durationTicks": 113,
          "midi": 48,
          "name": "C3",
          "ticks": 330600,
          "time": 529.00015975,
          "velocity": 0.5118110236220472
        },
        {
          "duration": 0.13452391041664669,
          "durationTicks": 113,
          "midi": 50,
          "name": "D3",
          "ticks": 330720,
          "time": 529.143017,
          "velocity": 0.5118110236220472
        },
        {
          "duration": 0.13452391041664669,
          "durationTicks": 113,
          "midi": 52,
          "name": "E3",
          "ticks": 330840,
          "time": 529.28587425,
          "velocity": 0.5118110236220472
        },
        {
          "duration": 0.13452391041664669,
          "durationTicks": 113,
          "midi": 54,
          "name": "F#3",
          "ticks": 330960,
          "time": 529.4287315,
          "velocity": 0.5118110236220472
        },
        {
          "duration": 0.13452391041664669,
          "durationTicks": 113,
          "midi": 55,
          "name": "G3",
          "ticks": 331080,
          "time": 529.57158875,
          "velocity": 0.5118110236220472
        },
        {
          "duration": 0.13452391041664669,
          "durationTicks": 113,
          "midi": 57,
          "name": "A3",
          "ticks": 331200,
          "time": 529.714446,
          "velocity": 0.5118110236220472
        },
        {
          "duration": 0.13452391041664669,
          "durationTicks": 113,
          "midi": 54,
          "name": "F#3",
          "ticks": 331320,
          "time": 529.85730325,
          "velocity": 0.5118110236220472
        },
        {
          "duration": 0.13452391041664669,
          "durationTicks": 113,
          "midi": 52,
          "name": "E3",
          "ticks": 331440,
          "time": 530.0001605,
          "velocity": 0.5118110236220472
        },
        {
          "duration": 0.13452391041664669,
          "durationTicks": 113,
          "midi": 50,
          "name": "D3",
          "ticks": 331560,
          "time": 530.14301775,
          "velocity": 0.5118110236220472
        },
        {
          "duration": 0.13452391041664669,
          "durationTicks": 113,
          "midi": 55,
          "name": "G3",
          "ticks": 331680,
          "time": 530.285875,
          "velocity": 0.5118110236220472
        },
        {
          "duration": 0.13452391041664669,
          "durationTicks": 113,
          "midi": 50,
          "name": "D3",
          "ticks": 331800,
          "time": 530.4287322499999,
          "velocity": 0.5118110236220472
        },
        {
          "duration": 0.13452391041664669,
          "durationTicks": 113,
          "midi": 55,
          "name": "G3",
          "ticks": 331920,
          "time": 530.5715895,
          "velocity": 0.5118110236220472
        },
        {
          "duration": 0.13452391041664669,
          "durationTicks": 113,
          "midi": 57,
          "name": "A3",
          "ticks": 332040,
          "time": 530.71444675,
          "velocity": 0.5118110236220472
        },
        {
          "duration": 0.13452391041664669,
          "durationTicks": 113,
          "midi": 58,
          "name": "A#3",
          "ticks": 332160,
          "time": 530.857304,
          "velocity": 0.5118110236220472
        },
        {
          "duration": 0.13452391041664669,
          "durationTicks": 113,
          "midi": 55,
          "name": "G3",
          "ticks": 332280,
          "time": 531.00016125,
          "velocity": 0.5118110236220472
        },
        {
          "duration": 0.13452391041676037,
          "durationTicks": 113,
          "midi": 58,
          "name": "A#3",
          "ticks": 332400,
          "time": 531.1430184999999,
          "velocity": 0.5118110236220472
        },
        {
          "duration": 0.13452391041676037,
          "durationTicks": 113,
          "midi": 60,
          "name": "C4",
          "ticks": 332520,
          "time": 531.28587575,
          "velocity": 0.5118110236220472
        },
        {
          "duration": 0.13452391041664669,
          "durationTicks": 113,
          "midi": 62,
          "name": "D4",
          "ticks": 332640,
          "time": 531.428733,
          "velocity": 0.5118110236220472
        },
        {
          "duration": 0.13452391041664669,
          "durationTicks": 113,
          "midi": 55,
          "name": "G3",
          "ticks": 332760,
          "time": 531.57159025,
          "velocity": 0.5118110236220472
        },
        {
          "duration": 0.13452391041664669,
          "durationTicks": 113,
          "midi": 62,
          "name": "D4",
          "ticks": 332880,
          "time": 531.7144475,
          "velocity": 0.5118110236220472
        },
        {
          "duration": 0.13452391041664669,
          "durationTicks": 113,
          "midi": 64,
          "name": "E4",
          "ticks": 333000,
          "time": 531.85730475,
          "velocity": 0.5118110236220472
        },
        {
          "duration": 0.27023829791664866,
          "durationTicks": 227,
          "midi": 65,
          "name": "F4",
          "ticks": 333120,
          "time": 532.000162,
          "velocity": 0.5118110236220472
        },
        {
          "duration": 0.13452391041664669,
          "durationTicks": 113,
          "midi": 53,
          "name": "F3",
          "ticks": 333360,
          "time": 532.2858765,
          "velocity": 0.5118110236220472
        },
        {
          "duration": 0.13452391041664669,
          "durationTicks": 113,
          "midi": 55,
          "name": "G3",
          "ticks": 333480,
          "time": 532.42873375,
          "velocity": 0.5118110236220472
        },
        {
          "duration": 0.13452391041664669,
          "durationTicks": 113,
          "midi": 57,
          "name": "A3",
          "ticks": 333600,
          "time": 532.571591,
          "velocity": 0.5118110236220472
        },
        {
          "duration": 0.13452391041664669,
          "durationTicks": 113,
          "midi": 53,
          "name": "F3",
          "ticks": 333720,
          "time": 532.71444825,
          "velocity": 0.5118110236220472
        },
        {
          "duration": 0.13452391041664669,
          "durationTicks": 113,
          "midi": 57,
          "name": "A3",
          "ticks": 333840,
          "time": 532.8573054999999,
          "velocity": 0.5118110236220472
        },
        {
          "duration": 0.13452391041664669,
          "durationTicks": 113,
          "midi": 58,
          "name": "A#3",
          "ticks": 333960,
          "time": 533.00016275,
          "velocity": 0.5118110236220472
        },
        {
          "duration": 0.13452391041664669,
          "durationTicks": 113,
          "midi": 60,
          "name": "C4",
          "ticks": 334080,
          "time": 533.14302,
          "velocity": 0.5118110236220472
        },
        {
          "duration": 0.13452391041664669,
          "durationTicks": 113,
          "midi": 53,
          "name": "F3",
          "ticks": 334200,
          "time": 533.28587725,
          "velocity": 0.5118110236220472
        },
        {
          "duration": 0.13452391041664669,
          "durationTicks": 113,
          "midi": 60,
          "name": "C4",
          "ticks": 334320,
          "time": 533.4287345,
          "velocity": 0.5118110236220472
        },
        {
          "duration": 0.13452391041676037,
          "durationTicks": 113,
          "midi": 62,
          "name": "D4",
          "ticks": 334440,
          "time": 533.5715917499999,
          "velocity": 0.5118110236220472
        },
        {
          "duration": 0.13452391041676037,
          "durationTicks": 113,
          "midi": 63,
          "name": "D#4",
          "ticks": 334560,
          "time": 533.714449,
          "velocity": 0.5118110236220472
        },
        {
          "duration": 0.13452391041664669,
          "durationTicks": 113,
          "midi": 65,
          "name": "F4",
          "ticks": 334680,
          "time": 533.85730625,
          "velocity": 0.5118110236220472
        },
        {
          "duration": 0.13452391041664669,
          "durationTicks": 113,
          "midi": 67,
          "name": "G4",
          "ticks": 334800,
          "time": 534.0001635,
          "velocity": 0.5118110236220472
        },
        {
          "duration": 0.13452391041664669,
          "durationTicks": 113,
          "midi": 65,
          "name": "F4",
          "ticks": 334920,
          "time": 534.14302075,
          "velocity": 0.5118110236220472
        },
        {
          "duration": 0.13452391041664669,
          "durationTicks": 113,
          "midi": 63,
          "name": "D#4",
          "ticks": 335040,
          "time": 534.285878,
          "velocity": 0.5118110236220472
        },
        {
          "duration": 0.13452391041664669,
          "durationTicks": 113,
          "midi": 67,
          "name": "G4",
          "ticks": 335160,
          "time": 534.42873525,
          "velocity": 0.5118110236220472
        },
        {
          "duration": 0.13452391041664669,
          "durationTicks": 113,
          "midi": 63,
          "name": "D#4",
          "ticks": 335280,
          "time": 534.5715925,
          "velocity": 0.5118110236220472
        },
        {
          "duration": 0.13452391041664669,
          "durationTicks": 113,
          "midi": 62,
          "name": "D4",
          "ticks": 335400,
          "time": 534.71444975,
          "velocity": 0.5118110236220472
        },
        {
          "duration": 0.13452391041664669,
          "durationTicks": 113,
          "midi": 60,
          "name": "C4",
          "ticks": 335520,
          "time": 534.857307,
          "velocity": 0.5118110236220472
        },
        {
          "duration": 0.13452391041664669,
          "durationTicks": 113,
          "midi": 63,
          "name": "D#4",
          "ticks": 335640,
          "time": 535.00016425,
          "velocity": 0.5118110236220472
        },
        {
          "duration": 0.13452391041664669,
          "durationTicks": 113,
          "midi": 60,
          "name": "C4",
          "ticks": 335760,
          "time": 535.1430215,
          "velocity": 0.5118110236220472
        },
        {
          "duration": 0.13452391041664669,
          "durationTicks": 113,
          "midi": 58,
          "name": "A#3",
          "ticks": 335880,
          "time": 535.2858787499999,
          "velocity": 0.5118110236220472
        },
        {
          "duration": 0.13452391041664669,
          "durationTicks": 113,
          "midi": 57,
          "name": "A3",
          "ticks": 336000,
          "time": 535.428736,
          "velocity": 0.5118110236220472
        },
        {
          "duration": 0.13452391041664669,
          "durationTicks": 113,
          "midi": 60,
          "name": "C4",
          "ticks": 336120,
          "time": 535.57159325,
          "velocity": 0.5118110236220472
        },
        {
          "duration": 0.13452391041664669,
          "durationTicks": 113,
          "midi": 58,
          "name": "A#3",
          "ticks": 336240,
          "time": 535.7144505,
          "velocity": 0.5118110236220472
        },
        {
          "duration": 0.13452391041664669,
          "durationTicks": 113,
          "midi": 60,
          "name": "C4",
          "ticks": 336360,
          "time": 535.85730775,
          "velocity": 0.5118110236220472
        },
        {
          "duration": 0.13452391041676037,
          "durationTicks": 113,
          "midi": 62,
          "name": "D4",
          "ticks": 336480,
          "time": 536.0001649999999,
          "velocity": 0.5118110236220472
        },
        {
          "duration": 0.13452391041676037,
          "durationTicks": 113,
          "midi": 65,
          "name": "F4",
          "ticks": 336600,
          "time": 536.14302225,
          "velocity": 0.5118110236220472
        },
        {
          "duration": 0.13452391041664669,
          "durationTicks": 113,
          "midi": 62,
          "name": "D4",
          "ticks": 336720,
          "time": 536.2858795,
          "velocity": 0.5118110236220472
        },
        {
          "duration": 0.13452391041664669,
          "durationTicks": 113,
          "midi": 60,
          "name": "C4",
          "ticks": 336840,
          "time": 536.42873675,
          "velocity": 0.5118110236220472
        },
        {
          "duration": 0.13452391041664669,
          "durationTicks": 113,
          "midi": 59,
          "name": "B3",
          "ticks": 336960,
          "time": 536.571594,
          "velocity": 0.5118110236220472
        },
        {
          "duration": 0.13452391041664669,
          "durationTicks": 113,
          "midi": 62,
          "name": "D4",
          "ticks": 337080,
          "time": 536.71445125,
          "velocity": 0.5118110236220472
        },
        {
          "duration": 0.13452391041664669,
          "durationTicks": 113,
          "midi": 59,
          "name": "B3",
          "ticks": 337200,
          "time": 536.8573085,
          "velocity": 0.5118110236220472
        },
        {
          "duration": 0.13452391041664669,
          "durationTicks": 113,
          "midi": 57,
          "name": "A3",
          "ticks": 337320,
          "time": 537.00016575,
          "velocity": 0.5118110236220472
        },
        {
          "duration": 0.13452391041664669,
          "durationTicks": 113,
          "midi": 55,
          "name": "G3",
          "ticks": 337440,
          "time": 537.143023,
          "velocity": 0.5118110236220472
        },
        {
          "duration": 0.13452391041664669,
          "durationTicks": 113,
          "midi": 59,
          "name": "B3",
          "ticks": 337560,
          "time": 537.28588025,
          "velocity": 0.5118110236220472
        },
        {
          "duration": 0.13452391041664669,
          "durationTicks": 113,
          "midi": 57,
          "name": "A3",
          "ticks": 337680,
          "time": 537.4287375,
          "velocity": 0.5118110236220472
        },
        {
          "duration": 0.13452391041664669,
          "durationTicks": 113,
          "midi": 59,
          "name": "B3",
          "ticks": 337800,
          "time": 537.57159475,
          "velocity": 0.5118110236220472
        },
        {
          "duration": 0.13452391041664669,
          "durationTicks": 113,
          "midi": 60,
          "name": "C4",
          "ticks": 337920,
          "time": 537.7144519999999,
          "velocity": 0.5118110236220472
        },
        {
          "duration": 0.13452391041664669,
          "durationTicks": 113,
          "midi": 63,
          "name": "D#4",
          "ticks": 338040,
          "time": 537.85730925,
          "velocity": 0.5118110236220472
        },
        {
          "duration": 0.13452391041664669,
          "durationTicks": 113,
          "midi": 60,
          "name": "C4",
          "ticks": 338160,
          "time": 538.0001665,
          "velocity": 0.5118110236220472
        },
        {
          "duration": 0.13452391041664669,
          "durationTicks": 113,
          "midi": 58,
          "name": "A#3",
          "ticks": 338280,
          "time": 538.14302375,
          "velocity": 0.5118110236220472
        },
        {
          "duration": 0.13452391041664669,
          "durationTicks": 113,
          "midi": 57,
          "name": "A3",
          "ticks": 338400,
          "time": 538.285881,
          "velocity": 0.5118110236220472
        },
        {
          "duration": 0.13452391041676037,
          "durationTicks": 113,
          "midi": 60,
          "name": "C4",
          "ticks": 338520,
          "time": 538.4287382499999,
          "velocity": 0.5118110236220472
        },
        {
          "duration": 0.13452391041676037,
          "durationTicks": 113,
          "midi": 57,
          "name": "A3",
          "ticks": 338640,
          "time": 538.5715955,
          "velocity": 0.5118110236220472
        },
        {
          "duration": 0.13452391041664669,
          "durationTicks": 113,
          "midi": 55,
          "name": "G3",
          "ticks": 338760,
          "time": 538.71445275,
          "velocity": 0.5118110236220472
        },
        {
          "duration": 0.27023829791664866,
          "durationTicks": 227,
          "midi": 54,
          "name": "F#3",
          "ticks": 338880,
          "time": 538.85731,
          "velocity": 0.5118110236220472
        },
        {
          "duration": 0.27023829791664866,
          "durationTicks": 227,
          "midi": 50,
          "name": "D3",
          "ticks": 339120,
          "time": 539.1430245,
          "velocity": 0.5118110236220472
        },
        {
          "duration": 0.27023829791664866,
          "durationTicks": 227,
          "midi": 55,
          "name": "G3",
          "ticks": 339360,
          "time": 539.428739,
          "velocity": 0.5118110236220472
        },
        {
          "duration": 0.27023829791664866,
          "durationTicks": 227,
          "midi": 54,
          "name": "F#3",
          "ticks": 339600,
          "time": 539.7144535,
          "velocity": 0.5118110236220472
        },
        {
          "duration": 0.27023829791664866,
          "durationTicks": 227,
          "midi": 55,
          "name": "G3",
          "ticks": 339840,
          "time": 540.000168,
          "velocity": 0.5118110236220472
        },
        {
          "duration": 0.27023829791676235,
          "durationTicks": 227,
          "midi": 43,
          "name": "G2",
          "ticks": 340080,
          "time": 540.2858825,
          "velocity": 0.5118110236220472
        },
        {
          "duration": 1.1428580000000466,
          "durationTicks": 960,
          "midi": 50,
          "name": "D3",
          "ticks": 340320,
          "time": 540.571597,
          "velocity": 0.5118110236220472
        },
        {
          "duration": 1.714287000000013,
          "durationTicks": 1440,
          "midi": 50,
          "name": "D3",
          "ticks": 341280,
          "time": 541.714455,
          "velocity": 0.5118110236220472
        },
        {
          "duration": 0.6702385979165228,
          "durationTicks": 563,
          "midi": 50,
          "name": "D3",
          "ticks": 342720,
          "time": 543.428742,
          "velocity": 0.5118110236220472
        },
        {
          "duration": 0.5416670729166526,
          "durationTicks": 455,
          "midi": 60,
          "name": "C4",
          "ticks": 343200,
          "time": 544.000171,
          "velocity": 0.5118110236220472
        },
        {
          "duration": 0.27023829791664866,
          "durationTicks": 227,
          "midi": 60,
          "name": "C4",
          "ticks": 343680,
          "time": 544.5716,
          "velocity": 0.5118110236220472
        },
        {
          "duration": 0.27023829791664866,
          "durationTicks": 227,
          "midi": 59,
          "name": "B3",
          "ticks": 343920,
          "time": 544.8573145,
          "velocity": 0.5118110236220472
        },
        {
          "duration": 0.5416670729167663,
          "durationTicks": 455,
          "midi": 50,
          "name": "D3",
          "ticks": 344160,
          "time": 545.143029,
          "velocity": 0.5118110236220472
        },
        {
          "duration": 0.5416670729167663,
          "durationTicks": 455,
          "midi": 60,
          "name": "C4",
          "ticks": 344160,
          "time": 545.143029,
          "velocity": 0.5118110236220472
        },
        {
          "duration": 0.27023829791676235,
          "durationTicks": 227,
          "midi": 54,
          "name": "F#3",
          "ticks": 344640,
          "time": 545.7144579999999,
          "velocity": 0.5118110236220472
        },
        {
          "duration": 0.27023829791676235,
          "durationTicks": 227,
          "midi": 57,
          "name": "A3",
          "ticks": 344640,
          "time": 545.7144579999999,
          "velocity": 0.5118110236220472
        },
        {
          "duration": 0.27023829791676235,
          "durationTicks": 227,
          "midi": 62,
          "name": "D4",
          "ticks": 344640,
          "time": 545.7144579999999,
          "velocity": 0.5118110236220472
        },
        {
          "duration": 0.13452391041664669,
          "durationTicks": 113,
          "midi": 62,
          "name": "D4",
          "ticks": 344880,
          "time": 546.0001725,
          "velocity": 0.5118110236220472
        },
        {
          "duration": 0.13452391041664669,
          "durationTicks": 113,
          "midi": 60,
          "name": "C4",
          "ticks": 345000,
          "time": 546.14302975,
          "velocity": 0.5118110236220472
        },
        {
          "duration": 0.27023829791664866,
          "durationTicks": 227,
          "midi": 58,
          "name": "A#3",
          "ticks": 345120,
          "time": 546.285887,
          "velocity": 0.5118110236220472
        },
        {
          "duration": 0.13452391041664669,
          "durationTicks": 113,
          "midi": 58,
          "name": "A#3",
          "ticks": 345360,
          "time": 546.5716015,
          "velocity": 0.5118110236220472
        },
        {
          "duration": 0.13452391041664669,
          "durationTicks": 113,
          "midi": 57,
          "name": "A3",
          "ticks": 345480,
          "time": 546.71445875,
          "velocity": 0.5118110236220472
        },
        {
          "duration": 0.27023829791664866,
          "durationTicks": 227,
          "midi": 55,
          "name": "G3",
          "ticks": 345600,
          "time": 546.857316,
          "velocity": 0.5118110236220472
        },
        {
          "duration": 0.13452391041664669,
          "durationTicks": 113,
          "midi": 55,
          "name": "G3",
          "ticks": 345840,
          "time": 547.1430305,
          "velocity": 0.5118110236220472
        },
        {
          "duration": 0.13452391041664669,
          "durationTicks": 113,
          "midi": 54,
          "name": "F#3",
          "ticks": 345960,
          "time": 547.28588775,
          "velocity": 0.5118110236220472
        },
        {
          "duration": 0.27023829791664866,
          "durationTicks": 227,
          "midi": 55,
          "name": "G3",
          "ticks": 346080,
          "time": 547.4287449999999,
          "velocity": 0.5118110236220472
        },
        {
          "duration": 0.13452391041664669,
          "durationTicks": 113,
          "midi": 55,
          "name": "G3",
          "ticks": 346320,
          "time": 547.7144595,
          "velocity": 0.5118110236220472
        },
        {
          "duration": 0.13452391041664669,
          "durationTicks": 113,
          "midi": 53,
          "name": "F3",
          "ticks": 346440,
          "time": 547.85731675,
          "velocity": 0.5118110236220472
        },
        {
          "duration": 0.27023829791664866,
          "durationTicks": 227,
          "midi": 51,
          "name": "D#3",
          "ticks": 346560,
          "time": 548.000174,
          "velocity": 0.5118110236220472
        },
        {
          "duration": 0.13452391041664669,
          "durationTicks": 113,
          "midi": 51,
          "name": "D#3",
          "ticks": 346800,
          "time": 548.2858885,
          "velocity": 0.5118110236220472
        },
        {
          "duration": 0.13452391041664669,
          "durationTicks": 113,
          "midi": 50,
          "name": "D3",
          "ticks": 346920,
          "time": 548.42874575,
          "velocity": 0.5118110236220472
        },
        {
          "duration": 0.27023829791664866,
          "durationTicks": 227,
          "midi": 48,
          "name": "C3",
          "ticks": 347040,
          "time": 548.571603,
          "velocity": 0.5118110236220472
        },
        {
          "duration": 0.13452391041664669,
          "durationTicks": 113,
          "midi": 48,
          "name": "C3",
          "ticks": 347280,
          "time": 548.8573175,
          "velocity": 0.5118110236220472
        },
        {
          "duration": 0.13452391041664669,
          "durationTicks": 113,
          "midi": 46,
          "name": "A#2",
          "ticks": 347400,
          "time": 549.00017475,
          "velocity": 0.5118110236220472
        },
        {
          "duration": 0.27023829791664866,
          "durationTicks": 227,
          "midi": 45,
          "name": "A2",
          "ticks": 347520,
          "time": 549.143032,
          "velocity": 0.5118110236220472
        },
        {
          "duration": 0.13452391041664669,
          "durationTicks": 113,
          "midi": 57,
          "name": "A3",
          "ticks": 347760,
          "time": 549.4287465,
          "velocity": 0.5118110236220472
        },
        {
          "duration": 0.13452391041664669,
          "durationTicks": 113,
          "midi": 55,
          "name": "G3",
          "ticks": 347880,
          "time": 549.57160375,
          "velocity": 0.5118110236220472
        },
        {
          "duration": 0.27023829791664866,
          "durationTicks": 227,
          "midi": 53,
          "name": "F3",
          "ticks": 348000,
          "time": 549.714461,
          "velocity": 0.5118110236220472
        },
        {
          "duration": 0.13452391041664669,
          "durationTicks": 113,
          "midi": 53,
          "name": "F3",
          "ticks": 348240,
          "time": 550.0001755,
          "velocity": 0.5118110236220472
        },
        {
          "duration": 0.13452391041664669,
          "durationTicks": 113,
          "midi": 52,
          "name": "E3",
          "ticks": 348360,
          "time": 550.14303275,
          "velocity": 0.5118110236220472
        },
        {
          "duration": 0.27023829791664866,
          "durationTicks": 227,
          "midi": 50,
          "name": "D3",
          "ticks": 348480,
          "time": 550.28589,
          "velocity": 0.5118110236220472
        },
        {
          "duration": 0.13452391041676037,
          "durationTicks": 113,
          "midi": 50,
          "name": "D3",
          "ticks": 348720,
          "time": 550.5716044999999,
          "velocity": 0.5118110236220472
        },
        {
          "duration": 0.13452391041664669,
          "durationTicks": 113,
          "midi": 49,
          "name": "C#3",
          "ticks": 348840,
          "time": 550.71446175,
          "velocity": 0.5118110236220472
        },
        {
          "duration": 0.27023829791664866,
          "durationTicks": 227,
          "midi": 50,
          "name": "D3",
          "ticks": 348960,
          "time": 550.857319,
          "velocity": 0.5118110236220472
        },
        {
          "duration": 0.13452391041664669,
          "durationTicks": 113,
          "midi": 50,
          "name": "D3",
          "ticks": 349200,
          "time": 551.1430335,
          "velocity": 0.5118110236220472
        },
        {
          "duration": 0.13452391041664669,
          "durationTicks": 113,
          "midi": 48,
          "name": "C3",
          "ticks": 349320,
          "time": 551.28589075,
          "velocity": 0.5118110236220472
        },
        {
          "duration": 0.27023829791664866,
          "durationTicks": 227,
          "midi": 46,
          "name": "A#2",
          "ticks": 349440,
          "time": 551.428748,
          "velocity": 0.5118110236220472
        },
        {
          "duration": 0.13452391041664669,
          "durationTicks": 113,
          "midi": 46,
          "name": "A#2",
          "ticks": 349680,
          "time": 551.7144625,
          "velocity": 0.5118110236220472
        },
        {
          "duration": 0.13452391041664669,
          "durationTicks": 113,
          "midi": 45,
          "name": "A2",
          "ticks": 349800,
          "time": 551.85731975,
          "velocity": 0.5118110236220472
        },
        {
          "duration": 0.27023829791664866,
          "durationTicks": 227,
          "midi": 43,
          "name": "G2",
          "ticks": 349920,
          "time": 552.000177,
          "velocity": 0.5118110236220472
        },
        {
          "duration": 0.13452391041664669,
          "durationTicks": 113,
          "midi": 43,
          "name": "G2",
          "ticks": 350160,
          "time": 552.2858914999999,
          "velocity": 0.5118110236220472
        },
        {
          "duration": 0.13452391041664669,
          "durationTicks": 113,
          "midi": 41,
          "name": "F2",
          "ticks": 350280,
          "time": 552.42874875,
          "velocity": 0.5118110236220472
        },
        {
          "duration": 0.27023829791664866,
          "durationTicks": 227,
          "midi": 40,
          "name": "E2",
          "ticks": 350400,
          "time": 552.571606,
          "velocity": 0.5118110236220472
        },
        {
          "duration": 0.13452391041664669,
          "durationTicks": 113,
          "midi": 52,
          "name": "E3",
          "ticks": 350640,
          "time": 552.8573205,
          "velocity": 0.5118110236220472
        },
        {
          "duration": 0.13452391041676037,
          "durationTicks": 113,
          "midi": 50,
          "name": "D3",
          "ticks": 350760,
          "time": 553.0001777499999,
          "velocity": 0.5118110236220472
        },
        {
          "duration": 0.27023829791664866,
          "durationTicks": 227,
          "midi": 48,
          "name": "C3",
          "ticks": 350880,
          "time": 553.143035,
          "velocity": 0.5118110236220472
        },
        {
          "duration": 0.13452391041664669,
          "durationTicks": 113,
          "midi": 48,
          "name": "C3",
          "ticks": 351120,
          "time": 553.4287495,
          "velocity": 0.5118110236220472
        },
        {
          "duration": 0.13452391041664669,
          "durationTicks": 113,
          "midi": 47,
          "name": "B2",
          "ticks": 351240,
          "time": 553.57160675,
          "velocity": 0.5118110236220472
        },
        {
          "duration": 0.27023829791664866,
          "durationTicks": 227,
          "midi": 45,
          "name": "A2",
          "ticks": 351360,
          "time": 553.714464,
          "velocity": 0.5118110236220472
        },
        {
          "duration": 0.13452391041664669,
          "durationTicks": 113,
          "midi": 45,
          "name": "A2",
          "ticks": 351600,
          "time": 554.0001785,
          "velocity": 0.5118110236220472
        },
        {
          "duration": 0.13452391041664669,
          "durationTicks": 113,
          "midi": 44,
          "name": "G#2",
          "ticks": 351720,
          "time": 554.14303575,
          "velocity": 0.5118110236220472
        },
        {
          "duration": 0.5416670729166526,
          "durationTicks": 455,
          "midi": 45,
          "name": "A2",
          "ticks": 351840,
          "time": 554.285893,
          "velocity": 0.5118110236220472
        },
        {
          "duration": 0.5416670729167663,
          "durationTicks": 455,
          "midi": 46,
          "name": "A#2",
          "ticks": 352320,
          "time": 554.857322,
          "velocity": 0.5118110236220472
        },
        {
          "duration": 0.5416670729167663,
          "durationTicks": 455,
          "midi": 47,
          "name": "B2",
          "ticks": 352800,
          "time": 555.4287509999999,
          "velocity": 0.5118110236220472
        },
        {
          "duration": 0.5416670729166526,
          "durationTicks": 455,
          "midi": 48,
          "name": "C3",
          "ticks": 353280,
          "time": 556.00018,
          "velocity": 0.5118110236220472
        },
        {
          "duration": 0.27023829791664866,
          "durationTicks": 227,
          "midi": 48,
          "name": "C3",
          "ticks": 353760,
          "time": 556.571609,
          "velocity": 0.5118110236220472
        },
        {
          "duration": 0.27023829791664866,
          "durationTicks": 227,
          "midi": 47,
          "name": "B2",
          "ticks": 354000,
          "time": 556.8573235,
          "velocity": 0.5118110236220472
        },
        {
          "duration": 0.5416670729167663,
          "durationTicks": 455,
          "midi": 48,
          "name": "C3",
          "ticks": 354240,
          "time": 557.1430379999999,
          "velocity": 0.5118110236220472
        },
        {
          "duration": 0.5416670729166526,
          "durationTicks": 455,
          "midi": 40,
          "name": "E2",
          "ticks": 354720,
          "time": 557.714467,
          "velocity": 0.5118110236220472
        },
        {
          "duration": 0.5416670729166526,
          "durationTicks": 455,
          "midi": 41,
          "name": "F2",
          "ticks": 355200,
          "time": 558.285896,
          "velocity": 0.5118110236220472
        },
        {
          "duration": 0.5416670729166526,
          "durationTicks": 455,
          "midi": 42,
          "name": "F#2",
          "ticks": 355680,
          "time": 558.857325,
          "velocity": 0.5118110236220472
        },
        {
          "duration": 0.5416670729166526,
          "durationTicks": 455,
          "midi": 43,
          "name": "G2",
          "ticks": 356160,
          "time": 559.428754,
          "velocity": 0.5118110236220472
        },
        {
          "duration": 0.13452391041664669,
          "durationTicks": 113,
          "midi": 62,
          "name": "D4",
          "ticks": 356640,
          "time": 560.000183,
          "velocity": 0.5118110236220472
        },
        {
          "duration": 0.27023829791664866,
          "durationTicks": 227,
          "midi": 43,
          "name": "G2",
          "ticks": 356640,
          "time": 560.000183,
          "velocity": 0.5118110236220472
        },
        {
          "duration": 0.13452391041664669,
          "durationTicks": 113,
          "midi": 60,
          "name": "C4",
          "ticks": 356760,
          "time": 560.14304025,
          "velocity": 0.5118110236220472
        },
        {
          "duration": 0.13452391041676037,
          "durationTicks": 113,
          "midi": 58,
          "name": "A#3",
          "ticks": 356880,
          "time": 560.2858974999999,
          "velocity": 0.5118110236220472
        },
        {
          "duration": 0.27023829791676235,
          "durationTicks": 227,
          "midi": 42,
          "name": "F#2",
          "ticks": 356880,
          "time": 560.2858974999999,
          "velocity": 0.5118110236220472
        },
        {
          "duration": 0.13452391041664669,
          "durationTicks": 113,
          "midi": 57,
          "name": "A3",
          "ticks": 357000,
          "time": 560.42875475,
          "velocity": 0.5118110236220472
        },
        {
          "duration": 0.13452391041664669,
          "durationTicks": 113,
          "midi": 55,
          "name": "G3",
          "ticks": 357120,
          "time": 560.571612,
          "velocity": 0.5118110236220472
        },
        {
          "duration": 0.27023829791664866,
          "durationTicks": 227,
          "midi": 43,
          "name": "G2",
          "ticks": 357120,
          "time": 560.571612,
          "velocity": 0.5118110236220472
        },
        {
          "duration": 0.13452391041664669,
          "durationTicks": 113,
          "midi": 53,
          "name": "F3",
          "ticks": 357240,
          "time": 560.71446925,
          "velocity": 0.5118110236220472
        },
        {
          "duration": 0.13452391041664669,
          "durationTicks": 113,
          "midi": 52,
          "name": "E3",
          "ticks": 357360,
          "time": 560.8573265,
          "velocity": 0.5118110236220472
        },
        {
          "duration": 0.27023829791664866,
          "durationTicks": 227,
          "midi": 45,
          "name": "A2",
          "ticks": 357360,
          "time": 560.8573265,
          "velocity": 0.5118110236220472
        },
        {
          "duration": 0.13452391041664669,
          "durationTicks": 113,
          "midi": 50,
          "name": "D3",
          "ticks": 357480,
          "time": 561.00018375,
          "velocity": 0.5118110236220472
        },
        {
          "duration": 0.27023829791664866,
          "durationTicks": 227,
          "midi": 46,
          "name": "A#2",
          "ticks": 357600,
          "time": 561.143041,
          "velocity": 0.5118110236220472
        },
        {
          "duration": 0.27023829791664866,
          "durationTicks": 227,
          "midi": 45,
          "name": "A2",
          "ticks": 357840,
          "time": 561.4287555,
          "velocity": 0.5118110236220472
        },
        {
          "duration": 0.27023829791664866,
          "durationTicks": 227,
          "midi": 45,
          "name": "A2",
          "ticks": 358080,
          "time": 561.71447,
          "velocity": 0.5118110236220472
        },
        {
          "duration": 0.27023829791664866,
          "durationTicks": 227,
          "midi": 43,
          "name": "G2",
          "ticks": 358320,
          "time": 562.0001844999999,
          "velocity": 0.5118110236220472
        },
        {
          "duration": 0.27023829791664866,
          "durationTicks": 227,
          "midi": 43,
          "name": "G2",
          "ticks": 358560,
          "time": 562.285899,
          "velocity": 0.5118110236220472
        },
        {
          "duration": 0.27023829791664866,
          "durationTicks": 227,
          "midi": 41,
          "name": "F2",
          "ticks": 358800,
          "time": 562.5716135,
          "velocity": 0.5118110236220472
        },
        {
          "duration": 0.27023829791664866,
          "durationTicks": 227,
          "midi": 41,
          "name": "F2",
          "ticks": 359040,
          "time": 562.857328,
          "velocity": 0.5118110236220472
        },
        {
          "duration": 0.27023829791664866,
          "durationTicks": 227,
          "midi": 40,
          "name": "E2",
          "ticks": 359280,
          "time": 563.1430425,
          "velocity": 0.5118110236220472
        },
        {
          "duration": 0.27023829791664866,
          "durationTicks": 227,
          "midi": 43,
          "name": "G2",
          "ticks": 359520,
          "time": 563.428757,
          "velocity": 0.5118110236220472
        },
        {
          "duration": 0.27023829791664866,
          "durationTicks": 227,
          "midi": 41,
          "name": "F2",
          "ticks": 359760,
          "time": 563.7144715,
          "velocity": 0.5118110236220472
        },
        {
          "duration": 0.27023829791664866,
          "durationTicks": 227,
          "midi": 40,
          "name": "E2",
          "ticks": 360000,
          "time": 564.000186,
          "velocity": 0.5118110236220472
        },
        {
          "duration": 0.27023829791664866,
          "durationTicks": 227,
          "midi": 38,
          "name": "D2",
          "ticks": 360240,
          "time": 564.2859005,
          "velocity": 0.5118110236220472
        },
        {
          "duration": 0.5416670729167663,
          "durationTicks": 455,
          "midi": 40,
          "name": "E2",
          "ticks": 360480,
          "time": 564.571615,
          "velocity": 0.5118110236220472
        },
        {
          "duration": 0.13452391041664669,
          "durationTicks": 113,
          "midi": 40,
          "name": "E2",
          "ticks": 361080,
          "time": 565.28590125,
          "velocity": 0.5118110236220472
        },
        {
          "duration": 0.13452391041664669,
          "durationTicks": 113,
          "midi": 41,
          "name": "F2",
          "ticks": 361200,
          "time": 565.4287585,
          "velocity": 0.5118110236220472
        },
        {
          "duration": 0.13452391041664669,
          "durationTicks": 113,
          "midi": 43,
          "name": "G2",
          "ticks": 361320,
          "time": 565.57161575,
          "velocity": 0.5118110236220472
        },
        {
          "duration": 0.13452391041664669,
          "durationTicks": 113,
          "midi": 45,
          "name": "A2",
          "ticks": 361440,
          "time": 565.714473,
          "velocity": 0.5118110236220472
        },
        {
          "duration": 0.13452391041664669,
          "durationTicks": 113,
          "midi": 43,
          "name": "G2",
          "ticks": 361560,
          "time": 565.85733025,
          "velocity": 0.5118110236220472
        },
        {
          "duration": 0.27023829791664866,
          "durationTicks": 227,
          "midi": 45,
          "name": "A2",
          "ticks": 361680,
          "time": 566.0001875,
          "velocity": 0.5118110236220472
        },
        {
          "duration": 0.13452391041664669,
          "durationTicks": 113,
          "midi": 38,
          "name": "D2",
          "ticks": 361920,
          "time": 566.285902,
          "velocity": 0.5118110236220472
        },
        {
          "duration": 0.13452391041664669,
          "durationTicks": 113,
          "midi": 50,
          "name": "D3",
          "ticks": 362040,
          "time": 566.42875925,
          "velocity": 0.5118110236220472
        },
        {
          "duration": 0.13452391041664669,
          "durationTicks": 113,
          "midi": 52,
          "name": "E3",
          "ticks": 362160,
          "time": 566.5716165,
          "velocity": 0.5118110236220472
        },
        {
          "duration": 0.13452391041664669,
          "durationTicks": 113,
          "midi": 53,
          "name": "F3",
          "ticks": 362280,
          "time": 566.71447375,
          "velocity": 0.5118110236220472
        },
        {
          "duration": 0.27023829791664866,
          "durationTicks": 227,
          "midi": 55,
          "name": "G3",
          "ticks": 362400,
          "time": 566.8573309999999,
          "velocity": 0.5118110236220472
        },
        {
          "duration": 0.27023829791664866,
          "durationTicks": 227,
          "midi": 53,
          "name": "F3",
          "ticks": 362640,
          "time": 567.1430455,
          "velocity": 0.5118110236220472
        },
        {
          "duration": 0.27023829791664866,
          "durationTicks": 227,
          "midi": 52,
          "name": "E3",
          "ticks": 362880,
          "time": 567.42876,
          "velocity": 0.5118110236220472
        },
        {
          "duration": 0.27023829791664866,
          "durationTicks": 227,
          "midi": 50,
          "name": "D3",
          "ticks": 363120,
          "time": 567.7144745,
          "velocity": 0.5118110236220472
        },
        {
          "duration": 0.27023829791664866,
          "durationTicks": 227,
          "midi": 48,
          "name": "C3",
          "ticks": 363360,
          "time": 568.000189,
          "velocity": 0.5118110236220472
        },
        {
          "duration": 0.13452391041664669,
          "durationTicks": 113,
          "midi": 50,
          "name": "D3",
          "ticks": 363600,
          "time": 568.2859035,
          "velocity": 0.5118110236220472
        },
        {
          "duration": 0.13452391041664669,
          "durationTicks": 113,
          "midi": 52,
          "name": "E3",
          "ticks": 363720,
          "time": 568.42876075,
          "velocity": 0.5118110236220472
        },
        {
          "duration": 0.27023829791664866,
          "durationTicks": 227,
          "midi": 53,
          "name": "F3",
          "ticks": 363840,
          "time": 568.571618,
          "velocity": 0.5118110236220472
        },
        {
          "duration": 0.27023829791664866,
          "durationTicks": 227,
          "midi": 51,
          "name": "D#3",
          "ticks": 364080,
          "time": 568.8573325,
          "velocity": 0.5118110236220472
        },
        {
          "duration": 0.27023829791664866,
          "durationTicks": 227,
          "midi": 50,
          "name": "D3",
          "ticks": 364320,
          "time": 569.143047,
          "velocity": 0.5118110236220472
        },
        {
          "duration": 0.27023829791676235,
          "durationTicks": 227,
          "midi": 48,
          "name": "C3",
          "ticks": 364560,
          "time": 569.4287615,
          "velocity": 0.5118110236220472
        },
        {
          "duration": 0.13452391041664669,
          "durationTicks": 113,
          "midi": 46,
          "name": "A#2",
          "ticks": 364800,
          "time": 569.714476,
          "velocity": 0.5118110236220472
        },
        {
          "duration": 0.13452391041664669,
          "durationTicks": 113,
          "midi": 45,
          "name": "A2",
          "ticks": 364920,
          "time": 569.85733325,
          "velocity": 0.5118110236220472
        },
        {
          "duration": 0.13452391041676037,
          "durationTicks": 113,
          "midi": 43,
          "name": "G2",
          "ticks": 365040,
          "time": 570.0001904999999,
          "velocity": 0.5118110236220472
        },
        {
          "duration": 0.13452391041664669,
          "durationTicks": 113,
          "midi": 41,
          "name": "F2",
          "ticks": 365160,
          "time": 570.14304775,
          "velocity": 0.5118110236220472
        },
        {
          "duration": 0.13452391041664669,
          "durationTicks": 113,
          "midi": 40,
          "name": "E2",
          "ticks": 365280,
          "time": 570.285905,
          "velocity": 0.5118110236220472
        },
        {
          "duration": 0.13452391041664669,
          "durationTicks": 113,
          "midi": 42,
          "name": "F#2",
          "ticks": 365400,
          "time": 570.42876225,
          "velocity": 0.5118110236220472
        },
        {
          "duration": 0.13452391041664669,
          "durationTicks": 113,
          "midi": 43,
          "name": "G2",
          "ticks": 365520,
          "time": 570.5716195,
          "velocity": 0.5118110236220472
        },
        {
          "duration": 0.13452391041664669,
          "durationTicks": 113,
          "midi": 45,
          "name": "A2",
          "ticks": 365640,
          "time": 570.71447675,
          "velocity": 0.5118110236220472
        },
        {
          "duration": 0.13452391041664669,
          "durationTicks": 113,
          "midi": 46,
          "name": "A#2",
          "ticks": 365760,
          "time": 570.857334,
          "velocity": 0.5118110236220472
        },
        {
          "duration": 0.13452391041664669,
          "durationTicks": 113,
          "midi": 50,
          "name": "D3",
          "ticks": 365880,
          "time": 571.00019125,
          "velocity": 0.5118110236220472
        },
        {
          "duration": 0.13452391041664669,
          "durationTicks": 113,
          "midi": 48,
          "name": "C3",
          "ticks": 366000,
          "time": 571.1430485,
          "velocity": 0.5118110236220472
        },
        {
          "duration": 0.13452391041664669,
          "durationTicks": 113,
          "midi": 46,
          "name": "A#2",
          "ticks": 366120,
          "time": 571.28590575,
          "velocity": 0.5118110236220472
        },
        {
          "duration": 0.13452391041664669,
          "durationTicks": 113,
          "midi": 45,
          "name": "A2",
          "ticks": 366240,
          "time": 571.428763,
          "velocity": 0.5118110236220472
        },
        {
          "duration": 0.13452391041664669,
          "durationTicks": 113,
          "midi": 43,
          "name": "G2",
          "ticks": 366360,
          "time": 571.57162025,
          "velocity": 0.5118110236220472
        },
        {
          "duration": 0.13452391041664669,
          "durationTicks": 113,
          "midi": 42,
          "name": "F#2",
          "ticks": 366480,
          "time": 571.7144774999999,
          "velocity": 0.5118110236220472
        },
        {
          "duration": 0.13452391041676037,
          "durationTicks": 113,
          "midi": 40,
          "name": "E2",
          "ticks": 366600,
          "time": 571.85733475,
          "velocity": 0.5118110236220472
        },
        {
          "duration": 0.13452391041664669,
          "durationTicks": 113,
          "midi": 38,
          "name": "D2",
          "ticks": 366720,
          "time": 572.000192,
          "velocity": 0.5118110236220472
        },
        {
          "duration": 0.13452391041664669,
          "durationTicks": 113,
          "midi": 40,
          "name": "E2",
          "ticks": 366840,
          "time": 572.14304925,
          "velocity": 0.5118110236220472
        },
        {
          "duration": 0.13452391041664669,
          "durationTicks": 113,
          "midi": 42,
          "name": "F#2",
          "ticks": 366960,
          "time": 572.2859065,
          "velocity": 0.5118110236220472
        },
        {
          "duration": 0.13452391041664669,
          "durationTicks": 113,
          "midi": 43,
          "name": "G2",
          "ticks": 367080,
          "time": 572.4287637499999,
          "velocity": 0.5118110236220472
        },
        {
          "duration": 0.13452391041664669,
          "durationTicks": 113,
          "midi": 45,
          "name": "A2",
          "ticks": 367200,
          "time": 572.571621,
          "velocity": 0.5118110236220472
        },
        {
          "duration": 0.13452391041664669,
          "durationTicks": 113,
          "midi": 48,
          "name": "C3",
          "ticks": 367320,
          "time": 572.71447825,
          "velocity": 0.5118110236220472
        },
        {
          "duration": 0.13452391041664669,
          "durationTicks": 113,
          "midi": 46,
          "name": "A#2",
          "ticks": 367440,
          "time": 572.8573355,
          "velocity": 0.5118110236220472
        },
        {
          "duration": 0.13452391041664669,
          "durationTicks": 113,
          "midi": 45,
          "name": "A2",
          "ticks": 367560,
          "time": 573.00019275,
          "velocity": 0.5118110236220472
        },
        {
          "duration": 0.27023829791676235,
          "durationTicks": 227,
          "midi": 43,
          "name": "G2",
          "ticks": 367680,
          "time": 573.1430499999999,
          "velocity": 0.5118110236220472
        },
        {
          "duration": 0.13452391041664669,
          "durationTicks": 113,
          "midi": 45,
          "name": "A2",
          "ticks": 367920,
          "time": 573.4287644999999,
          "velocity": 0.5118110236220472
        },
        {
          "duration": 0.13452391041676037,
          "durationTicks": 113,
          "midi": 46,
          "name": "A#2",
          "ticks": 368040,
          "time": 573.57162175,
          "velocity": 0.5118110236220472
        },
        {
          "duration": 0.27023829791664866,
          "durationTicks": 227,
          "midi": 48,
          "name": "C3",
          "ticks": 368160,
          "time": 573.714479,
          "velocity": 0.5118110236220472
        },
        {
          "duration": 0.27023829791664866,
          "durationTicks": 227,
          "midi": 46,
          "name": "A#2",
          "ticks": 368400,
          "time": 574.0001935,
          "velocity": 0.5118110236220472
        },
        {
          "duration": 0.27023829791664866,
          "durationTicks": 227,
          "midi": 45,
          "name": "A2",
          "ticks": 368640,
          "time": 574.2859080000001,
          "velocity": 0.5118110236220472
        },
        {
          "duration": 0.27023829791664866,
          "durationTicks": 227,
          "midi": 43,
          "name": "G2",
          "ticks": 368880,
          "time": 574.5716225,
          "velocity": 0.5118110236220472
        },
        {
          "duration": 0.13452391041664669,
          "durationTicks": 113,
          "midi": 41,
          "name": "F2",
          "ticks": 369120,
          "time": 574.8573369999999,
          "velocity": 0.5118110236220472
        },
        {
          "duration": 0.13452391041664669,
          "durationTicks": 113,
          "midi": 52,
          "name": "E3",
          "ticks": 369240,
          "time": 575.00019425,
          "velocity": 0.5118110236220472
        },
        {
          "duration": 0.13452391041664669,
          "durationTicks": 113,
          "midi": 50,
          "name": "D3",
          "ticks": 369360,
          "time": 575.1430515,
          "velocity": 0.5118110236220472
        },
        {
          "duration": 0.13452391041664669,
          "durationTicks": 113,
          "midi": 49,
          "name": "C#3",
          "ticks": 369480,
          "time": 575.28590875,
          "velocity": 0.5118110236220472
        },
        {
          "duration": 0.13452391041664669,
          "durationTicks": 113,
          "midi": 47,
          "name": "B2",
          "ticks": 369600,
          "time": 575.428766,
          "velocity": 0.5118110236220472
        },
        {
          "duration": 0.13452391041676037,
          "durationTicks": 113,
          "midi": 49,
          "name": "C#3",
          "ticks": 369720,
          "time": 575.5716232499999,
          "velocity": 0.5118110236220472
        },
        {
          "duration": 0.13452391041664669,
          "durationTicks": 113,
          "midi": 50,
          "name": "D3",
          "ticks": 369840,
          "time": 575.7144805,
          "velocity": 0.5118110236220472
        },
        {
          "duration": 0.13452391041664669,
          "durationTicks": 113,
          "midi": 52,
          "name": "E3",
          "ticks": 369960,
          "time": 575.8573377499999,
          "velocity": 0.5118110236220472
        },
        {
          "duration": 0.13452391041676037,
          "durationTicks": 113,
          "midi": 53,
          "name": "F3",
          "ticks": 370080,
          "time": 576.000195,
          "velocity": 0.5118110236220472
        },
        {
          "duration": 0.13452391041664669,
          "durationTicks": 113,
          "midi": 57,
          "name": "A3",
          "ticks": 370200,
          "time": 576.14305225,
          "velocity": 0.5118110236220472
        },
        {
          "duration": 0.13452391041664669,
          "durationTicks": 113,
          "midi": 55,
          "name": "G3",
          "ticks": 370320,
          "time": 576.2859095,
          "velocity": 0.5118110236220472
        },
        {
          "duration": 0.13452391041664669,
          "durationTicks": 113,
          "midi": 53,
          "name": "F3",
          "ticks": 370440,
          "time": 576.42876675,
          "velocity": 0.5118110236220472
        },
        {
          "duration": 0.13452391041664669,
          "durationTicks": 113,
          "midi": 52,
          "name": "E3",
          "ticks": 370560,
          "time": 576.5716239999999,
          "velocity": 0.5118110236220472
        },
        {
          "duration": 0.13452391041664669,
          "durationTicks": 113,
          "midi": 50,
          "name": "D3",
          "ticks": 370680,
          "time": 576.7144812500001,
          "velocity": 0.5118110236220472
        },
        {
          "duration": 0.13452391041664669,
          "durationTicks": 113,
          "midi": 49,
          "name": "C#3",
          "ticks": 370800,
          "time": 576.8573385,
          "velocity": 0.5118110236220472
        },
        {
          "duration": 0.13452391041664669,
          "durationTicks": 113,
          "midi": 47,
          "name": "B2",
          "ticks": 370920,
          "time": 577.00019575,
          "velocity": 0.5118110236220472
        },
        {
          "duration": 0.13452391041664669,
          "durationTicks": 113,
          "midi": 45,
          "name": "A2",
          "ticks": 371040,
          "time": 577.143053,
          "velocity": 0.5118110236220472
        },
        {
          "duration": 0.13452391041664669,
          "durationTicks": 113,
          "midi": 47,
          "name": "B2",
          "ticks": 371160,
          "time": 577.2859102499999,
          "velocity": 0.5118110236220472
        },
        {
          "duration": 0.13452391041664669,
          "durationTicks": 113,
          "midi": 49,
          "name": "C#3",
          "ticks": 371280,
          "time": 577.4287675,
          "velocity": 0.5118110236220472
        },
        {
          "duration": 0.13452391041664669,
          "durationTicks": 113,
          "midi": 50,
          "name": "D3",
          "ticks": 371400,
          "time": 577.57162475,
          "velocity": 0.5118110236220472
        },
        {
          "duration": 0.13452391041664669,
          "durationTicks": 113,
          "midi": 52,
          "name": "E3",
          "ticks": 371520,
          "time": 577.714482,
          "velocity": 0.5118110236220472
        },
        {
          "duration": 0.13452391041664669,
          "durationTicks": 113,
          "midi": 55,
          "name": "G3",
          "ticks": 371640,
          "time": 577.85733925,
          "velocity": 0.5118110236220472
        },
        {
          "duration": 0.13452391041676037,
          "durationTicks": 113,
          "midi": 53,
          "name": "F3",
          "ticks": 371760,
          "time": 578.0001964999999,
          "velocity": 0.5118110236220472
        },
        {
          "duration": 0.13452391041664669,
          "durationTicks": 113,
          "midi": 52,
          "name": "E3",
          "ticks": 371880,
          "time": 578.14305375,
          "velocity": 0.5118110236220472
        },
        {
          "duration": 0.6773814604166546,
          "durationTicks": 569,
          "midi": 50,
          "name": "D3",
          "ticks": 372000,
          "time": 578.2859109999999,
          "velocity": 0.5118110236220472
        },
        {
          "duration": 0.13452391041664669,
          "durationTicks": 113,
          "midi": 52,
          "name": "E3",
          "ticks": 372600,
          "time": 579.0001972499999,
          "velocity": 0.5118110236220472
        },
        {
          "duration": 0.13452391041664669,
          "durationTicks": 113,
          "midi": 53,
          "name": "F3",
          "ticks": 372720,
          "time": 579.1430545000001,
          "velocity": 0.5118110236220472
        },
        {
          "duration": 0.13452391041664669,
          "durationTicks": 113,
          "midi": 52,
          "name": "E3",
          "ticks": 372840,
          "time": 579.28591175,
          "velocity": 0.5118110236220472
        },
        {
          "duration": 0.13452391041664669,
          "durationTicks": 113,
          "midi": 50,
          "name": "D3",
          "ticks": 372960,
          "time": 579.428769,
          "velocity": 0.5118110236220472
        },
        {
          "duration": 0.13452391041664669,
          "durationTicks": 113,
          "midi": 52,
          "name": "E3",
          "ticks": 373080,
          "time": 579.57162625,
          "velocity": 0.5118110236220472
        },
        {
          "duration": 0.13452391041664669,
          "durationTicks": 113,
          "midi": 53,
          "name": "F3",
          "ticks": 373200,
          "time": 579.7144834999999,
          "velocity": 0.5118110236220472
        },
        {
          "duration": 0.13452391041664669,
          "durationTicks": 113,
          "midi": 56,
          "name": "G#3",
          "ticks": 373320,
          "time": 579.85734075,
          "velocity": 0.5118110236220472
        },
        {
          "duration": 1.1428580000000466,
          "durationTicks": 960,
          "midi": 45,
          "name": "A2",
          "ticks": 373440,
          "time": 580.000198,
          "velocity": 0.5118110236220472
        },
        {
          "duration": 1.5702392729166377,
          "durationTicks": 1319,
          "midi": 45,
          "name": "A2",
          "ticks": 374400,
          "time": 581.143056,
          "velocity": 0.5118110236220472
        },
        {
          "duration": 1.0845246229167742,
          "durationTicks": 911,
          "midi": 45,
          "name": "A2",
          "ticks": 375840,
          "time": 582.8573429999999,
          "velocity": 0.5118110236220472
        },
        {
          "duration": 0.27023829791664866,
          "durationTicks": 227,
          "midi": 57,
          "name": "A3",
          "ticks": 377760,
          "time": 585.143059,
          "velocity": 0.5118110236220472
        },
        {
          "duration": 0.27023829791664866,
          "durationTicks": 227,
          "midi": 69,
          "name": "A4",
          "ticks": 377760,
          "time": 585.143059,
          "velocity": 0.5118110236220472
        },
        {
          "duration": 0.13452391041664669,
          "durationTicks": 113,
          "midi": 57,
          "name": "A3",
          "ticks": 378000,
          "time": 585.4287735,
          "velocity": 0.5118110236220472
        },
        {
          "duration": 0.13452391041664669,
          "durationTicks": 113,
          "midi": 69,
          "name": "A4",
          "ticks": 378000,
          "time": 585.4287735,
          "velocity": 0.5118110236220472
        },
        {
          "duration": 0.13452391041664669,
          "durationTicks": 113,
          "midi": 55,
          "name": "G3",
          "ticks": 378120,
          "time": 585.5716307499999,
          "velocity": 0.5118110236220472
        },
        {
          "duration": 0.13452391041664669,
          "durationTicks": 113,
          "midi": 67,
          "name": "G4",
          "ticks": 378120,
          "time": 585.5716307499999,
          "velocity": 0.5118110236220472
        },
        {
          "duration": 0.27023829791676235,
          "durationTicks": 227,
          "midi": 53,
          "name": "F3",
          "ticks": 378240,
          "time": 585.714488,
          "velocity": 0.5118110236220472
        },
        {
          "duration": 0.27023829791676235,
          "durationTicks": 227,
          "midi": 65,
          "name": "F4",
          "ticks": 378240,
          "time": 585.714488,
          "velocity": 0.5118110236220472
        },
        {
          "duration": 0.13452391041664669,
          "durationTicks": 113,
          "midi": 53,
          "name": "F3",
          "ticks": 378480,
          "time": 586.0002025,
          "velocity": 0.5118110236220472
        },
        {
          "duration": 0.13452391041664669,
          "durationTicks": 113,
          "midi": 65,
          "name": "F4",
          "ticks": 378480,
          "time": 586.0002025,
          "velocity": 0.5118110236220472
        },
        {
          "duration": 0.13452391041664669,
          "durationTicks": 113,
          "midi": 52,
          "name": "E3",
          "ticks": 378600,
          "time": 586.14305975,
          "velocity": 0.5118110236220472
        },
        {
          "duration": 0.13452391041664669,
          "durationTicks": 113,
          "midi": 64,
          "name": "E4",
          "ticks": 378600,
          "time": 586.14305975,
          "velocity": 0.5118110236220472
        },
        {
          "duration": 0.27023829791664866,
          "durationTicks": 227,
          "midi": 50,
          "name": "D3",
          "ticks": 378720,
          "time": 586.2859169999999,
          "velocity": 0.5118110236220472
        },
        {
          "duration": 0.27023829791664866,
          "durationTicks": 227,
          "midi": 62,
          "name": "D4",
          "ticks": 378720,
          "time": 586.2859169999999,
          "velocity": 0.5118110236220472
        },
        {
          "duration": 0.13452391041664669,
          "durationTicks": 113,
          "midi": 50,
          "name": "D3",
          "ticks": 378960,
          "time": 586.5716315,
          "velocity": 0.5118110236220472
        },
        {
          "duration": 0.13452391041664669,
          "durationTicks": 113,
          "midi": 62,
          "name": "D4",
          "ticks": 378960,
          "time": 586.5716315,
          "velocity": 0.5118110236220472
        },
        {
          "duration": 0.13452391041664669,
          "durationTicks": 113,
          "midi": 49,
          "name": "C#3",
          "ticks": 379080,
          "time": 586.71448875,
          "velocity": 0.5118110236220472
        },
        {
          "duration": 0.13452391041664669,
          "durationTicks": 113,
          "midi": 61,
          "name": "C#4",
          "ticks": 379080,
          "time": 586.71448875,
          "velocity": 0.5118110236220472
        },
        {
          "duration": 0.27023829791664866,
          "durationTicks": 227,
          "midi": 50,
          "name": "D3",
          "ticks": 379200,
          "time": 586.857346,
          "velocity": 0.5118110236220472
        },
        {
          "duration": 0.27023829791664866,
          "durationTicks": 227,
          "midi": 62,
          "name": "D4",
          "ticks": 379200,
          "time": 586.857346,
          "velocity": 0.5118110236220472
        },
        {
          "duration": 0.13452391041664669,
          "durationTicks": 113,
          "midi": 50,
          "name": "D3",
          "ticks": 379440,
          "time": 587.1430605,
          "velocity": 0.5118110236220472
        },
        {
          "duration": 0.13452391041664669,
          "durationTicks": 113,
          "midi": 62,
          "name": "D4",
          "ticks": 379440,
          "time": 587.1430605,
          "velocity": 0.5118110236220472
        },
        {
          "duration": 0.13452391041664669,
          "durationTicks": 113,
          "midi": 48,
          "name": "C3",
          "ticks": 379560,
          "time": 587.28591775,
          "velocity": 0.5118110236220472
        },
        {
          "duration": 0.13452391041664669,
          "durationTicks": 113,
          "midi": 60,
          "name": "C4",
          "ticks": 379560,
          "time": 587.28591775,
          "velocity": 0.5118110236220472
        },
        {
          "duration": 0.27023829791664866,
          "durationTicks": 227,
          "midi": 46,
          "name": "A#2",
          "ticks": 379680,
          "time": 587.428775,
          "velocity": 0.5118110236220472
        },
        {
          "duration": 0.27023829791664866,
          "durationTicks": 227,
          "midi": 58,
          "name": "A#3",
          "ticks": 379680,
          "time": 587.428775,
          "velocity": 0.5118110236220472
        },
        {
          "duration": 0.13452391041676037,
          "durationTicks": 113,
          "midi": 46,
          "name": "A#2",
          "ticks": 379920,
          "time": 587.7144894999999,
          "velocity": 0.5118110236220472
        },
        {
          "duration": 0.13452391041676037,
          "durationTicks": 113,
          "midi": 58,
          "name": "A#3",
          "ticks": 379920,
          "time": 587.7144894999999,
          "velocity": 0.5118110236220472
        },
        {
          "duration": 0.13452391041664669,
          "durationTicks": 113,
          "midi": 45,
          "name": "A2",
          "ticks": 380040,
          "time": 587.85734675,
          "velocity": 0.5118110236220472
        },
        {
          "duration": 0.13452391041664669,
          "durationTicks": 113,
          "midi": 57,
          "name": "A3",
          "ticks": 380040,
          "time": 587.85734675,
          "velocity": 0.5118110236220472
        },
        {
          "duration": 0.27023829791664866,
          "durationTicks": 227,
          "midi": 43,
          "name": "G2",
          "ticks": 380160,
          "time": 588.0002039999999,
          "velocity": 0.5118110236220472
        },
        {
          "duration": 0.27023829791664866,
          "durationTicks": 227,
          "midi": 55,
          "name": "G3",
          "ticks": 380160,
          "time": 588.0002039999999,
          "velocity": 0.5118110236220472
        },
        {
          "duration": 0.13452391041664669,
          "durationTicks": 113,
          "midi": 43,
          "name": "G2",
          "ticks": 380400,
          "time": 588.2859185,
          "velocity": 0.5118110236220472
        },
        {
          "duration": 0.13452391041664669,
          "durationTicks": 113,
          "midi": 55,
          "name": "G3",
          "ticks": 380400,
          "time": 588.2859185,
          "velocity": 0.5118110236220472
        },
        {
          "duration": 0.13452391041664669,
          "durationTicks": 113,
          "midi": 41,
          "name": "F2",
          "ticks": 380520,
          "time": 588.42877575,
          "velocity": 0.5118110236220472
        },
        {
          "duration": 0.13452391041664669,
          "durationTicks": 113,
          "midi": 53,
          "name": "F3",
          "ticks": 380520,
          "time": 588.42877575,
          "velocity": 0.5118110236220472
        },
        {
          "duration": 0.0666667166666457,
          "durationTicks": 56,
          "midi": 55,
          "name": "G3",
          "ticks": 380640,
          "time": 588.571633,
          "velocity": 0.5118110236220472
        },
        {
          "duration": 0.13452391041664669,
          "durationTicks": 113,
          "midi": 43,
          "name": "G2",
          "ticks": 380640,
          "time": 588.571633,
          "velocity": 0.5118110236220472
        },
        {
          "duration": 0.06666671666675938,
          "durationTicks": 56,
          "midi": 57,
          "name": "A3",
          "ticks": 380700,
          "time": 588.643061625,
          "velocity": 0.5118110236220472
        },
        {
          "duration": 0.06666671666675938,
          "durationTicks": 56,
          "midi": 59,
          "name": "B3",
          "ticks": 380760,
          "time": 588.7144902499999,
          "velocity": 0.5118110236220472
        },
        {
          "duration": 0.0666667166666457,
          "durationTicks": 56,
          "midi": 61,
          "name": "C#4",
          "ticks": 380820,
          "time": 588.785918875,
          "velocity": 0.5118110236220472
        },
        {
          "duration": 0.06666671666653201,
          "durationTicks": 56,
          "midi": 62,
          "name": "D4",
          "ticks": 380880,
          "time": 588.8573475000001,
          "velocity": 0.5118110236220472
        },
        {
          "duration": 0.0666667166666457,
          "durationTicks": 56,
          "midi": 64,
          "name": "E4",
          "ticks": 380940,
          "time": 588.928776125,
          "velocity": 0.5118110236220472
        },
        {
          "duration": 0.06666671666675938,
          "durationTicks": 56,
          "midi": 65,
          "name": "F4",
          "ticks": 381000,
          "time": 589.00020475,
          "velocity": 0.5118110236220472
        },
        {
          "duration": 0.06666671666675938,
          "durationTicks": 56,
          "midi": 67,
          "name": "G4",
          "ticks": 381060,
          "time": 589.0716333749999,
          "velocity": 0.5118110236220472
        },
        {
          "duration": 0.27023829791664866,
          "durationTicks": 227,
          "midi": 52,
          "name": "E3",
          "ticks": 381840,
          "time": 590.0002055,
          "velocity": 0.5118110236220472
        },
        {
          "duration": 0.27023829791664866,
          "durationTicks": 227,
          "midi": 57,
          "name": "A3",
          "ticks": 381840,
          "time": 590.0002055,
          "velocity": 0.5118110236220472
        },
        {
          "duration": 0.27023829791664866,
          "durationTicks": 227,
          "midi": 45,
          "name": "A2",
          "ticks": 381840,
          "time": 590.0002055,
          "velocity": 0.5118110236220472
        },
        {
          "duration": 0,
          "durationTicks": 0,
          "midi": 50,
          "name": "D3",
          "ticks": 382080,
          "time": 590.28592,
          "velocity": 0.5118110236220472
        },
        {
          "duration": 1.6273821729166684,
          "durationTicks": 1367,
          "midi": 50,
          "name": "D3",
          "ticks": 382080,
          "time": 590.28592,
          "velocity": 0.5118110236220472
        },
        {
          "duration": 0.5416670729166526,
          "durationTicks": 455,
          "midi": 57,
          "name": "A3",
          "ticks": 382080,
          "time": 590.28592,
          "velocity": 0.5118110236220472
        },
        {
          "duration": 1.0845246229166605,
          "durationTicks": 911,
          "midi": 38,
          "name": "D2",
          "ticks": 382560,
          "time": 590.857349,
          "velocity": 0.5118110236220472
        }
      ],
      "endOfTrackTicks": 383472
    }
  ]
}
