{
  "header": {
    "keySignatures": [
      {
        "key": "Bb",
        "scale": "major",
        "ticks": 0
      },
      {
        "key": "D",
        "scale": "major",
        "ticks": 74400
      },
      {
        "key": "Bb",
        "scale": "major",
        "ticks": 103200
      },
      {
        "key": "Bb",
        "scale": "major",
        "ticks": 105120
      },
      {
        "key": "C",
        "scale": "major",
        "ticks": 164640
      },
      {
        "key": "Bb",
        "scale": "major",
        "ticks": 0
      },
      {
        "key": "D",
        "scale": "major",
        "ticks": 74400
      },
      {
        "key": "Bb",
        "scale": "major",
        "ticks": 103200
      },
      {
        "key": "Bb",
        "scale": "major",
        "ticks": 105120
      },
      {
        "key": "C",
        "scale": "major",
        "ticks": 164640
      }
    ],
    "meta": [],
    "name": "Piano\u0000",
    "ppq": 480,
    "tempos": [
      {
        "bpm": 67.99976426748387,
        "ticks": 0
      },
      {
        "bpm": 50.99998215000625,
        "ticks": 7200
      },
      {
        "bpm": 34.999973750019684,
        "ticks": 11520
      },
      {
        "bpm": 55.99997760000896,
        "ticks": 12960
      },
      {
        "bpm": 34.0000170000085,
        "ticks": 15840
      },
      {
        "bpm": 16.99997960002448,
        "ticks": 16320
      },
      {
        "bpm": 55.99997760000896,
        "ticks": 16800
      },
      {
        "bpm": 52.999975266678206,
        "ticks": 74400
      },
      {
        "bpm": 80.99997165000993,
        "ticks": 103200
      },
      {
        "bpm": 80.99997165000993,
        "ticks": 105120
      }
    ],
    "timeSignatures": [
      {
        "ticks": 0,
        "timeSignature": [6, 4],
        "measures": 0
      },
      {
        "ticks": 5760,
        "timeSignature": [3, 4],
        "measures": 2
      },
      {
        "ticks": 7200,
        "timeSignature": [6, 4],
        "measures": 3
      },
      {
        "ticks": 12960,
        "timeSignature": [4, 4],
        "measures": 5
      },
      {
        "ticks": 22560,
        "timeSignature": [6, 4],
        "measures": 10
      },
      {
        "ticks": 25440,
        "timeSignature": [4, 4],
        "measures": 11
      },
      {
        "ticks": 71520,
        "timeSignature": [2, 4],
        "measures": 35
      },
      {
        "ticks": 72480,
        "timeSignature": [4, 4],
        "measures": 36
      }
    ]
  },
  "tracks": [
    {
      "channel": 0,
      "controlChanges": {
        "7": [
          {
            "number": 7,
            "ticks": 0,
            "time": 0,
            "value": 0.7874015748031497
          }
        ],
        "10": [
          {
            "number": 10,
            "ticks": 0,
            "time": 0,
            "value": 0.5039370078740157
          }
        ],
        "91": [
          {
            "number": 91,
            "ticks": 0,
            "time": 0,
            "value": 0.23622047244094488
          }
        ],
        "93": [
          {
            "number": 93,
            "ticks": 0,
            "time": 0,
            "value": 0.23622047244094488
          }
        ],
        "121": [
          {
            "number": 121,
            "ticks": 0,
            "time": 0,
            "value": 0
          }
        ]
      },
      "pitchBends": [],
      "instrument": {
        "family": "piano",
        "name": "acoustic grand piano",
        "number": 0
      },
      "name": "Piano\u0000",
      "notes": [
        {
          "duration": 0.8805177583333333,
          "durationTicks": 479,
          "midi": 58,
          "name": "A#3",
          "ticks": 0,
          "time": 0,
          "velocity": 0.5039370078740157
        },
        {
          "duration": 0.8805177583333333,
          "durationTicks": 479,
          "midi": 63,
          "name": "D#4",
          "ticks": 480,
          "time": 0.882356,
          "velocity": 0.5039370078740157
        },
        {
          "duration": 0.8805177583333335,
          "durationTicks": 479,
          "midi": 59,
          "name": "B3",
          "ticks": 960,
          "time": 1.764712,
          "velocity": 0.5039370078740157
        },
        {
          "duration": 2.6452297583333335,
          "durationTicks": 1439,
          "midi": 70,
          "name": "A#4",
          "ticks": 1440,
          "time": 2.647068,
          "velocity": 0.5039370078740157
        },
        {
          "duration": 0.8805177583333341,
          "durationTicks": 479,
          "midi": 58,
          "name": "A#3",
          "ticks": 2880,
          "time": 5.294136,
          "velocity": 0.5039370078740157
        },
        {
          "duration": 0.8805177583333332,
          "durationTicks": 479,
          "midi": 63,
          "name": "D#4",
          "ticks": 3360,
          "time": 6.1764920000000005,
          "velocity": 0.5039370078740157
        },
        {
          "duration": 0.8805177583333332,
          "durationTicks": 479,
          "midi": 59,
          "name": "B3",
          "ticks": 3840,
          "time": 7.058848,
          "velocity": 0.5039370078740157
        },
        {
          "duration": 2.6452297583333335,
          "durationTicks": 1439,
          "midi": 70,
          "name": "A#4",
          "ticks": 4320,
          "time": 7.941204,
          "velocity": 0.5039370078740157
        },
        {
          "duration": 0.8805177583333332,
          "durationTicks": 479,
          "midi": 58,
          "name": "A#3",
          "ticks": 5760,
          "time": 10.588272,
          "velocity": 0.5039370078740157
        },
        {
          "duration": 0.880517758333335,
          "durationTicks": 479,
          "midi": 63,
          "name": "D#4",
          "ticks": 6240,
          "time": 11.470628,
          "velocity": 0.5039370078740157
        },
        {
          "duration": 0.8805177583333332,
          "durationTicks": 479,
          "midi": 59,
          "name": "B3",
          "ticks": 6720,
          "time": 12.352984000000001,
          "velocity": 0.5039370078740157
        },
        {
          "duration": 3.5269620187500017,
          "durationTicks": 1439,
          "midi": 70,
          "name": "A#4",
          "ticks": 7200,
          "time": 13.23534,
          "velocity": 0.5039370078740157
        },
        {
          "duration": 3.5269620187500017,
          "durationTicks": 1439,
          "midi": 77,
          "name": "F5",
          "ticks": 7200,
          "time": 13.23534,
          "velocity": 0.5039370078740157
        },
        {
          "duration": 1.174020018750003,
          "durationTicks": 479,
          "midi": 77,
          "name": "F5",
          "ticks": 8640,
          "time": 16.764753,
          "velocity": 0.5039370078740157
        },
        {
          "duration": 2.3504910187500023,
          "durationTicks": 959,
          "midi": 82,
          "name": "A#5",
          "ticks": 8640,
          "time": 16.764753,
          "velocity": 0.5039370078740157
        },
        {
          "duration": 1.762255518749999,
          "durationTicks": 719,
          "midi": 81,
          "name": "A5",
          "ticks": 9120,
          "time": 17.941224000000002,
          "velocity": 0.5039370078740157
        },
        {
          "duration": 0.2916667687499981,
          "durationTicks": 119,
          "midi": 82,
          "name": "A#5",
          "ticks": 9840,
          "time": 19.7059305,
          "velocity": 0.5039370078740157
        },
        {
          "duration": 0.29166676875000164,
          "durationTicks": 119,
          "midi": 81,
          "name": "A5",
          "ticks": 9960,
          "time": 20.00004825,
          "velocity": 0.5039370078740157
        },
        {
          "duration": 1.174020018750003,
          "durationTicks": 479,
          "midi": 72,
          "name": "C5",
          "ticks": 10080,
          "time": 20.294166,
          "velocity": 0.5039370078740157
        },
        {
          "duration": 1.174020018750003,
          "durationTicks": 479,
          "midi": 77,
          "name": "F5",
          "ticks": 10080,
          "time": 20.294166,
          "velocity": 0.5039370078740157
        },
        {
          "duration": 1.174020018750003,
          "durationTicks": 479,
          "midi": 82,
          "name": "A#5",
          "ticks": 10080,
          "time": 20.294166,
          "velocity": 0.5039370078740157
        },
        {
          "duration": 1.7622555187499955,
          "durationTicks": 719,
          "midi": 77,
          "name": "F5",
          "ticks": 10560,
          "time": 21.470637000000004,
          "velocity": 0.5039370078740157
        },
        {
          "duration": 1.7622555187499955,
          "durationTicks": 719,
          "midi": 82,
          "name": "A#5",
          "ticks": 10560,
          "time": 21.470637000000004,
          "velocity": 0.5039370078740157
        },
        {
          "duration": 1.7622555187499955,
          "durationTicks": 719,
          "midi": 84,
          "name": "C6",
          "ticks": 10560,
          "time": 21.470637000000004,
          "velocity": 0.5039370078740157
        },
        {
          "duration": 0.29166676875000164,
          "durationTicks": 119,
          "midi": 77,
          "name": "F5",
          "ticks": 11280,
          "time": 23.2353435,
          "velocity": 0.5039370078740157
        },
        {
          "duration": 0.29166676875000164,
          "durationTicks": 119,
          "midi": 82,
          "name": "A#5",
          "ticks": 11280,
          "time": 23.2353435,
          "velocity": 0.5039370078740157
        },
        {
          "duration": 0.29166676875000164,
          "durationTicks": 119,
          "midi": 84,
          "name": "C6",
          "ticks": 11400,
          "time": 23.52946125,
          "velocity": 0.5039370078740157
        },
        {
          "duration": 1.7107155687500004,
          "durationTicks": 479,
          "midi": 78,
          "name": "F#5",
          "ticks": 11520,
          "time": 23.823579000000002,
          "velocity": 0.5039370078740157
        },
        {
          "duration": 4.282146068750002,
          "durationTicks": 1199,
          "midi": 82,
          "name": "A#5",
          "ticks": 11520,
          "time": 23.823579000000002,
          "velocity": 0.5039370078740157
        },
        {
          "duration": 4.282146068750002,
          "durationTicks": 1199,
          "midi": 84,
          "name": "C6",
          "ticks": 11520,
          "time": 23.823579000000002,
          "velocity": 0.5039370078740157
        },
        {
          "duration": 2.5678590687500034,
          "durationTicks": 719,
          "midi": 80,
          "name": "G#5",
          "ticks": 12000,
          "time": 25.537866,
          "velocity": 0.5039370078740157
        },
        {
          "duration": 0.4250003187500013,
          "durationTicks": 119,
          "midi": 82,
          "name": "A#5",
          "ticks": 12720,
          "time": 28.109296500000003,
          "velocity": 0.5039370078740157
        },
        {
          "duration": 0.4250003187500013,
          "durationTicks": 119,
          "midi": 81,
          "name": "A5",
          "ticks": 12840,
          "time": 28.537868250000002,
          "velocity": 0.5039370078740157
        },
        {
          "duration": 1.6049113562499997,
          "durationTicks": 719,
          "midi": 74,
          "name": "D5",
          "ticks": 12960,
          "time": 28.966440000000002,
          "velocity": 0.5039370078740157
        },
        {
          "duration": 1.6049113562499997,
          "durationTicks": 719,
          "midi": 77,
          "name": "F5",
          "ticks": 12960,
          "time": 28.966440000000002,
          "velocity": 0.5039370078740157
        },
        {
          "duration": 4.2834838562499975,
          "durationTicks": 1919,
          "midi": 82,
          "name": "A#5",
          "ticks": 12960,
          "time": 28.966440000000002,
          "velocity": 0.5039370078740157
        },
        {
          "duration": 0.5334823562500013,
          "durationTicks": 239,
          "midi": 77,
          "name": "F5",
          "ticks": 13680,
          "time": 30.5735835,
          "velocity": 0.5039370078740157
        },
        {
          "duration": 0.5334823562499977,
          "durationTicks": 239,
          "midi": 75,
          "name": "D#5",
          "ticks": 13920,
          "time": 31.109298000000003,
          "velocity": 0.5039370078740157
        },
        {
          "duration": 0.5334823562500013,
          "durationTicks": 239,
          "midi": 70,
          "name": "A#4",
          "ticks": 14160,
          "time": 31.645012500000004,
          "velocity": 0.5039370078740157
        },
        {
          "duration": 1.0691968562499952,
          "durationTicks": 479,
          "midi": 72,
          "name": "C5",
          "ticks": 14400,
          "time": 32.180727000000005,
          "velocity": 0.5039370078740157
        },
        {
          "duration": 0.5334823562500048,
          "durationTicks": 239,
          "midi": 65,
          "name": "F4",
          "ticks": 14880,
          "time": 33.252156,
          "velocity": 0.5039370078740157
        },
        {
          "duration": 0.265625106249999,
          "durationTicks": 119,
          "midi": 74,
          "name": "D5",
          "ticks": 15120,
          "time": 33.787870500000004,
          "velocity": 0.5039370078740157
        },
        {
          "duration": 0.265625106249999,
          "durationTicks": 119,
          "midi": 75,
          "name": "D#5",
          "ticks": 15240,
          "time": 34.05572775,
          "velocity": 0.5039370078740157
        },
        {
          "duration": 0.5334823562499977,
          "durationTicks": 239,
          "midi": 77,
          "name": "F5",
          "ticks": 15360,
          "time": 34.323585,
          "velocity": 0.5039370078740157
        },
        {
          "duration": 0.5334823562499977,
          "durationTicks": 239,
          "midi": 65,
          "name": "F4",
          "ticks": 15600,
          "time": 34.859299500000006,
          "velocity": 0.5039370078740157
        },
        {
          "duration": 0.8786760312500022,
          "durationTicks": 239,
          "midi": 63,
          "name": "D#4",
          "ticks": 15840,
          "time": 35.395014,
          "velocity": 0.5039370078740157
        },
        {
          "duration": 0.878676031249995,
          "durationTicks": 239,
          "midi": 70,
          "name": "A#4",
          "ticks": 16080,
          "time": 36.27736650000001,
          "velocity": 0.5039370078740157
        },
        {
          "duration": 1.757355050000001,
          "durationTicks": 239,
          "midi": 67,
          "name": "G4",
          "ticks": 16320,
          "time": 37.159719,
          "velocity": 0.5039370078740157
        },
        {
          "duration": 1.757355050000001,
          "durationTicks": 239,
          "midi": 60,
          "name": "C4",
          "ticks": 16560,
          "time": 38.924427,
          "velocity": 0.5039370078740157
        },
        {
          "duration": 1.6049113562499997,
          "durationTicks": 719,
          "midi": 53,
          "name": "F3",
          "ticks": 16800,
          "time": 40.689135,
          "velocity": 0.5039370078740157
        },
        {
          "duration": 1.6049113562499997,
          "durationTicks": 719,
          "midi": 58,
          "name": "A#3",
          "ticks": 16800,
          "time": 40.689135,
          "velocity": 0.5039370078740157
        },
        {
          "duration": 0.265625106249999,
          "durationTicks": 119,
          "midi": 53,
          "name": "F3",
          "ticks": 17520,
          "time": 42.2962785,
          "velocity": 0.5039370078740157
        },
        {
          "duration": 0.265625106249999,
          "durationTicks": 119,
          "midi": 58,
          "name": "A#3",
          "ticks": 17520,
          "time": 42.2962785,
          "velocity": 0.5039370078740157
        },
        {
          "duration": 0.265625106249999,
          "durationTicks": 119,
          "midi": 57,
          "name": "A3",
          "ticks": 17640,
          "time": 42.56413575,
          "velocity": 0.5039370078740157
        },
        {
          "duration": 1.6049113562499997,
          "durationTicks": 719,
          "midi": 55,
          "name": "G3",
          "ticks": 17760,
          "time": 42.831993,
          "velocity": 0.5039370078740157
        },
        {
          "duration": 1.6049113562499997,
          "durationTicks": 719,
          "midi": 58,
          "name": "A#3",
          "ticks": 17760,
          "time": 42.831993,
          "velocity": 0.5039370078740157
        },
        {
          "duration": 0.265625106249999,
          "durationTicks": 119,
          "midi": 55,
          "name": "G3",
          "ticks": 18480,
          "time": 44.439136500000004,
          "velocity": 0.5039370078740157
        },
        {
          "duration": 0.265625106249999,
          "durationTicks": 119,
          "midi": 58,
          "name": "A#3",
          "ticks": 18480,
          "time": 44.439136500000004,
          "velocity": 0.5039370078740157
        },
        {
          "duration": 0.265625106249999,
          "durationTicks": 119,
          "midi": 57,
          "name": "A3",
          "ticks": 18600,
          "time": 44.70699375,
          "velocity": 0.5039370078740157
        },
        {
          "duration": 0.8013396062499965,
          "durationTicks": 359,
          "midi": 58,
          "name": "A#3",
          "ticks": 18720,
          "time": 44.974851,
          "velocity": 0.5039370078740157
        },
        {
          "duration": 1.0691968562500023,
          "durationTicks": 479,
          "midi": 53,
          "name": "F3",
          "ticks": 18720,
          "time": 44.974851,
          "velocity": 0.5039370078740157
        },
        {
          "duration": 0.2656251062500061,
          "durationTicks": 119,
          "midi": 60,
          "name": "C4",
          "ticks": 19080,
          "time": 45.77842275,
          "velocity": 0.5039370078740157
        },
        {
          "duration": 0.8013396062499965,
          "durationTicks": 359,
          "midi": 60,
          "name": "C4",
          "ticks": 19200,
          "time": 46.04628,
          "velocity": 0.5039370078740157
        },
        {
          "duration": 1.0691968562499952,
          "durationTicks": 479,
          "midi": 57,
          "name": "A3",
          "ticks": 19200,
          "time": 46.04628,
          "velocity": 0.5039370078740157
        },
        {
          "duration": 0.265625106249999,
          "durationTicks": 119,
          "midi": 63,
          "name": "D#4",
          "ticks": 19560,
          "time": 46.84985175,
          "velocity": 0.5039370078740157
        },
        {
          "duration": 1.6049113562499997,
          "durationTicks": 719,
          "midi": 58,
          "name": "A#3",
          "ticks": 19680,
          "time": 47.117709,
          "velocity": 0.5039370078740157
        },
        {
          "duration": 1.6049113562499997,
          "durationTicks": 719,
          "midi": 63,
          "name": "D#4",
          "ticks": 19680,
          "time": 47.117709,
          "velocity": 0.5039370078740157
        },
        {
          "duration": 0.265625106249999,
          "durationTicks": 119,
          "midi": 58,
          "name": "A#3",
          "ticks": 20400,
          "time": 48.7248525,
          "velocity": 0.5039370078740157
        },
        {
          "duration": 0.265625106249999,
          "durationTicks": 119,
          "midi": 62,
          "name": "D4",
          "ticks": 20400,
          "time": 48.7248525,
          "velocity": 0.5039370078740157
        },
        {
          "duration": 0.265625106249999,
          "durationTicks": 119,
          "midi": 58,
          "name": "A#3",
          "ticks": 20520,
          "time": 48.99270975,
          "velocity": 0.5039370078740157
        },
        {
          "duration": 0.8013396062499965,
          "durationTicks": 359,
          "midi": 57,
          "name": "A3",
          "ticks": 20640,
          "time": 49.260567,
          "velocity": 0.5039370078740157
        },
        {
          "duration": 0.8013396062499965,
          "durationTicks": 359,
          "midi": 60,
          "name": "C4",
          "ticks": 20640,
          "time": 49.260567,
          "velocity": 0.5039370078740157
        },
        {
          "duration": 0.265625106249999,
          "durationTicks": 119,
          "midi": 57,
          "name": "A3",
          "ticks": 21000,
          "time": 50.06413875,
          "velocity": 0.5039370078740157
        },
        {
          "duration": 0.5334823562499977,
          "durationTicks": 239,
          "midi": 53,
          "name": "F3",
          "ticks": 21120,
          "time": 50.331996000000004,
          "velocity": 0.5039370078740157
        },
        {
          "duration": 0.265625106249999,
          "durationTicks": 119,
          "midi": 62,
          "name": "D4",
          "ticks": 21360,
          "time": 50.8677105,
          "velocity": 0.5039370078740157
        },
        {
          "duration": 0.265625106249999,
          "durationTicks": 119,
          "midi": 58,
          "name": "A#3",
          "ticks": 21480,
          "time": 51.13556775,
          "velocity": 0.5039370078740157
        },
        {
          "duration": 1.6049113562499997,
          "durationTicks": 719,
          "midi": 57,
          "name": "A3",
          "ticks": 21600,
          "time": 51.403425,
          "velocity": 0.5039370078740157
        },
        {
          "duration": 1.6049113562499997,
          "durationTicks": 719,
          "midi": 60,
          "name": "C4",
          "ticks": 21600,
          "time": 51.403425,
          "velocity": 0.5039370078740157
        },
        {
          "duration": 0.2656251062500061,
          "durationTicks": 119,
          "midi": 53,
          "name": "F3",
          "ticks": 22320,
          "time": 53.0105685,
          "velocity": 0.5039370078740157
        },
        {
          "duration": 0.2656251062500061,
          "durationTicks": 119,
          "midi": 58,
          "name": "A#3",
          "ticks": 22320,
          "time": 53.0105685,
          "velocity": 0.5039370078740157
        },
        {
          "duration": 0.2656251062500061,
          "durationTicks": 119,
          "midi": 65,
          "name": "F4",
          "ticks": 22320,
          "time": 53.0105685,
          "velocity": 0.5039370078740157
        },
        {
          "duration": 0.265625106249999,
          "durationTicks": 119,
          "midi": 58,
          "name": "A#3",
          "ticks": 22440,
          "time": 53.27842575,
          "velocity": 0.5039370078740157
        },
        {
          "duration": 0.8013396062499965,
          "durationTicks": 359,
          "midi": 55,
          "name": "G3",
          "ticks": 22560,
          "time": 53.546283,
          "velocity": 0.5039370078740157
        },
        {
          "duration": 0.8013396062499965,
          "durationTicks": 359,
          "midi": 58,
          "name": "A#3",
          "ticks": 22560,
          "time": 53.546283,
          "velocity": 0.5039370078740157
        },
        {
          "duration": 0.8013396062499965,
          "durationTicks": 359,
          "midi": 63,
          "name": "D#4",
          "ticks": 22560,
          "time": 53.546283,
          "velocity": 0.5039370078740157
        },
        {
          "duration": 0.265625106249999,
          "durationTicks": 119,
          "midi": 58,
          "name": "A#3",
          "ticks": 22920,
          "time": 54.34985475,
          "velocity": 0.5039370078740157
        },
        {
          "duration": 0.265625106249999,
          "durationTicks": 119,
          "midi": 62,
          "name": "D4",
          "ticks": 22920,
          "time": 54.34985475,
          "velocity": 0.5039370078740157
        },
        {
          "duration": 0.8013396062500036,
          "durationTicks": 359,
          "midi": 58,
          "name": "A#3",
          "ticks": 23040,
          "time": 54.617712,
          "velocity": 0.5039370078740157
        },
        {
          "duration": 0.8013396062500036,
          "durationTicks": 359,
          "midi": 62,
          "name": "D4",
          "ticks": 23040,
          "time": 54.617712,
          "velocity": 0.5039370078740157
        },
        {
          "duration": 0.265625106249999,
          "durationTicks": 119,
          "midi": 57,
          "name": "A3",
          "ticks": 23400,
          "time": 55.42128375,
          "velocity": 0.5039370078740157
        },
        {
          "duration": 0.265625106249999,
          "durationTicks": 119,
          "midi": 60,
          "name": "C4",
          "ticks": 23400,
          "time": 55.42128375,
          "velocity": 0.5039370078740157
        },
        {
          "duration": 2.1406258562500042,
          "durationTicks": 959,
          "midi": 57,
          "name": "A3",
          "ticks": 23520,
          "time": 55.689141,
          "velocity": 0.5039370078740157
        },
        {
          "duration": 2.1406258562500042,
          "durationTicks": 959,
          "midi": 60,
          "name": "C4",
          "ticks": 23520,
          "time": 55.689141,
          "velocity": 0.5039370078740157
        },
        {
          "duration": 1.0691968562500023,
          "durationTicks": 479,
          "midi": 55,
          "name": "G3",
          "ticks": 24480,
          "time": 57.831998999999996,
          "velocity": 0.5039370078740157
        },
        {
          "duration": 1.0691968562500023,
          "durationTicks": 479,
          "midi": 58,
          "name": "A#3",
          "ticks": 24480,
          "time": 57.831998999999996,
          "velocity": 0.5039370078740157
        },
        {
          "duration": 1.6049113562499997,
          "durationTicks": 719,
          "midi": 60,
          "name": "C4",
          "ticks": 24480,
          "time": 57.831998999999996,
          "velocity": 0.5039370078740157
        },
        {
          "duration": 0.5357145000000045,
          "durationTicks": 240,
          "midi": 53,
          "name": "F3",
          "ticks": 24960,
          "time": 58.903428,
          "velocity": 0.5039370078740157
        },
        {
          "duration": 1.0691968562499952,
          "durationTicks": 479,
          "midi": 57,
          "name": "A3",
          "ticks": 24960,
          "time": 58.903428,
          "velocity": 0.5039370078740157
        },
        {
          "duration": 0.265625106249999,
          "durationTicks": 119,
          "midi": 70,
          "name": "A#4",
          "ticks": 25200,
          "time": 59.4391425,
          "velocity": 0.5039370078740157
        },
        {
          "duration": 0.2656251062499919,
          "durationTicks": 119,
          "midi": 69,
          "name": "A4",
          "ticks": 25320,
          "time": 59.70699975,
          "velocity": 0.5039370078740157
        },
        {
          "duration": 1.6049113562499997,
          "durationTicks": 719,
          "midi": 70,
          "name": "A#4",
          "ticks": 25440,
          "time": 59.974857,
          "velocity": 0.5039370078740157
        },
        {
          "duration": 1.0691968562500023,
          "durationTicks": 479,
          "midi": 62,
          "name": "D4",
          "ticks": 25440,
          "time": 59.974857,
          "velocity": 0.5039370078740157
        },
        {
          "duration": 1.0691968562500023,
          "durationTicks": 479,
          "midi": 65,
          "name": "F4",
          "ticks": 25440,
          "time": 59.974857,
          "velocity": 0.5039370078740157
        },
        {
          "duration": 0.5334823562500048,
          "durationTicks": 239,
          "midi": 62,
          "name": "D4",
          "ticks": 25920,
          "time": 61.046285999999995,
          "velocity": 0.5039370078740157
        },
        {
          "duration": 0.5334823562500048,
          "durationTicks": 239,
          "midi": 65,
          "name": "F4",
          "ticks": 25920,
          "time": 61.046285999999995,
          "velocity": 0.5039370078740157
        },
        {
          "duration": 0.265625106249999,
          "durationTicks": 119,
          "midi": 70,
          "name": "A#4",
          "ticks": 26160,
          "time": 61.5820005,
          "velocity": 0.5039370078740157
        },
        {
          "duration": 0.5334823562499977,
          "durationTicks": 239,
          "midi": 62,
          "name": "D4",
          "ticks": 26160,
          "time": 61.5820005,
          "velocity": 0.5039370078740157
        },
        {
          "duration": 0.5334823562499977,
          "durationTicks": 239,
          "midi": 65,
          "name": "F4",
          "ticks": 26160,
          "time": 61.5820005,
          "velocity": 0.5039370078740157
        },
        {
          "duration": 0.265625106249999,
          "durationTicks": 119,
          "midi": 69,
          "name": "A4",
          "ticks": 26280,
          "time": 61.84985775,
          "velocity": 0.5039370078740157
        },
        {
          "duration": 1.6049113562499926,
          "durationTicks": 719,
          "midi": 70,
          "name": "A#4",
          "ticks": 26400,
          "time": 62.117715000000004,
          "velocity": 0.5039370078740157
        },
        {
          "duration": 1.0691968562499952,
          "durationTicks": 479,
          "midi": 63,
          "name": "D#4",
          "ticks": 26400,
          "time": 62.117715000000004,
          "velocity": 0.5039370078740157
        },
        {
          "duration": 1.0691968562499952,
          "durationTicks": 479,
          "midi": 67,
          "name": "G4",
          "ticks": 26400,
          "time": 62.117715000000004,
          "velocity": 0.5039370078740157
        },
        {
          "duration": 0.5334823562499977,
          "durationTicks": 239,
          "midi": 63,
          "name": "D#4",
          "ticks": 26880,
          "time": 63.189144,
          "velocity": 0.5039370078740157
        },
        {
          "duration": 0.5334823562499977,
          "durationTicks": 239,
          "midi": 67,
          "name": "G4",
          "ticks": 26880,
          "time": 63.189144,
          "velocity": 0.5039370078740157
        },
        {
          "duration": 0.265625106249999,
          "durationTicks": 119,
          "midi": 67,
          "name": "G4",
          "ticks": 27120,
          "time": 63.724858499999996,
          "velocity": 0.5039370078740157
        },
        {
          "duration": 0.265625106249999,
          "durationTicks": 119,
          "midi": 70,
          "name": "A#4",
          "ticks": 27120,
          "time": 63.724858499999996,
          "velocity": 0.5039370078740157
        },
        {
          "duration": 0.5334823562500048,
          "durationTicks": 239,
          "midi": 63,
          "name": "D#4",
          "ticks": 27120,
          "time": 63.724858499999996,
          "velocity": 0.5039370078740157
        },
        {
          "duration": 0.265625106249999,
          "durationTicks": 119,
          "midi": 69,
          "name": "A4",
          "ticks": 27240,
          "time": 63.99271575,
          "velocity": 0.5039370078740157
        },
        {
          "duration": 0.8013396062499965,
          "durationTicks": 359,
          "midi": 58,
          "name": "A#3",
          "ticks": 27360,
          "time": 64.260573,
          "velocity": 0.5039370078740157
        },
        {
          "duration": 0.8013396062499965,
          "durationTicks": 359,
          "midi": 62,
          "name": "D4",
          "ticks": 27360,
          "time": 64.260573,
          "velocity": 0.5039370078740157
        },
        {
          "duration": 0.8013396062499965,
          "durationTicks": 359,
          "midi": 65,
          "name": "F4",
          "ticks": 27360,
          "time": 64.260573,
          "velocity": 0.5039370078740157
        },
        {
          "duration": 0.8013396062499965,
          "durationTicks": 359,
          "midi": 70,
          "name": "A#4",
          "ticks": 27360,
          "time": 64.260573,
          "velocity": 0.5039370078740157
        },
        {
          "duration": 0.265625106249999,
          "durationTicks": 119,
          "midi": 60,
          "name": "C4",
          "ticks": 27720,
          "time": 65.06414475,
          "velocity": 0.5039370078740157
        },
        {
          "duration": 0.265625106249999,
          "durationTicks": 119,
          "midi": 65,
          "name": "F4",
          "ticks": 27720,
          "time": 65.06414475,
          "velocity": 0.5039370078740157
        },
        {
          "duration": 0.265625106249999,
          "durationTicks": 119,
          "midi": 69,
          "name": "A4",
          "ticks": 27720,
          "time": 65.06414475,
          "velocity": 0.5039370078740157
        },
        {
          "duration": 0.265625106249999,
          "durationTicks": 119,
          "midi": 72,
          "name": "C5",
          "ticks": 27720,
          "time": 65.06414475,
          "velocity": 0.5039370078740157
        },
        {
          "duration": 0.8013396062499965,
          "durationTicks": 359,
          "midi": 60,
          "name": "C4",
          "ticks": 27840,
          "time": 65.332002,
          "velocity": 0.5039370078740157
        },
        {
          "duration": 0.8013396062499965,
          "durationTicks": 359,
          "midi": 65,
          "name": "F4",
          "ticks": 27840,
          "time": 65.332002,
          "velocity": 0.5039370078740157
        },
        {
          "duration": 0.8013396062499965,
          "durationTicks": 359,
          "midi": 69,
          "name": "A4",
          "ticks": 27840,
          "time": 65.332002,
          "velocity": 0.5039370078740157
        },
        {
          "duration": 0.8013396062499965,
          "durationTicks": 359,
          "midi": 72,
          "name": "C5",
          "ticks": 27840,
          "time": 65.332002,
          "velocity": 0.5039370078740157
        },
        {
          "duration": 0.26562510625001323,
          "durationTicks": 119,
          "midi": 63,
          "name": "D#4",
          "ticks": 28200,
          "time": 66.13557374999999,
          "velocity": 0.5039370078740157
        },
        {
          "duration": 0.26562510625001323,
          "durationTicks": 119,
          "midi": 67,
          "name": "G4",
          "ticks": 28200,
          "time": 66.13557374999999,
          "velocity": 0.5039370078740157
        },
        {
          "duration": 0.26562510625001323,
          "durationTicks": 119,
          "midi": 70,
          "name": "A#4",
          "ticks": 28200,
          "time": 66.13557374999999,
          "velocity": 0.5039370078740157
        },
        {
          "duration": 0.26562510625001323,
          "durationTicks": 119,
          "midi": 75,
          "name": "D#5",
          "ticks": 28200,
          "time": 66.13557374999999,
          "velocity": 0.5039370078740157
        },
        {
          "duration": 1.6049113562499997,
          "durationTicks": 719,
          "midi": 63,
          "name": "D#4",
          "ticks": 28320,
          "time": 66.403431,
          "velocity": 0.5039370078740157
        },
        {
          "duration": 1.6049113562499997,
          "durationTicks": 719,
          "midi": 67,
          "name": "G4",
          "ticks": 28320,
          "time": 66.403431,
          "velocity": 0.5039370078740157
        },
        {
          "duration": 1.6049113562499997,
          "durationTicks": 719,
          "midi": 70,
          "name": "A#4",
          "ticks": 28320,
          "time": 66.403431,
          "velocity": 0.5039370078740157
        },
        {
          "duration": 1.6049113562499997,
          "durationTicks": 719,
          "midi": 75,
          "name": "D#5",
          "ticks": 28320,
          "time": 66.403431,
          "velocity": 0.5039370078740157
        },
        {
          "duration": 0.265625106249999,
          "durationTicks": 119,
          "midi": 62,
          "name": "D4",
          "ticks": 29040,
          "time": 68.0105745,
          "velocity": 0.5039370078740157
        },
        {
          "duration": 0.265625106249999,
          "durationTicks": 119,
          "midi": 65,
          "name": "F4",
          "ticks": 29040,
          "time": 68.0105745,
          "velocity": 0.5039370078740157
        },
        {
          "duration": 0.265625106249999,
          "durationTicks": 119,
          "midi": 74,
          "name": "D5",
          "ticks": 29040,
          "time": 68.0105745,
          "velocity": 0.5039370078740157
        },
        {
          "duration": 0.265625106249999,
          "durationTicks": 119,
          "midi": 70,
          "name": "A#4",
          "ticks": 29160,
          "time": 68.27843175,
          "velocity": 0.5039370078740157
        },
        {
          "duration": 0.8013396062499965,
          "durationTicks": 359,
          "midi": 60,
          "name": "C4",
          "ticks": 29280,
          "time": 68.546289,
          "velocity": 0.5039370078740157
        },
        {
          "duration": 0.8013396062499965,
          "durationTicks": 359,
          "midi": 65,
          "name": "F4",
          "ticks": 29280,
          "time": 68.546289,
          "velocity": 0.5039370078740157
        },
        {
          "duration": 0.8013396062499965,
          "durationTicks": 359,
          "midi": 69,
          "name": "A4",
          "ticks": 29280,
          "time": 68.546289,
          "velocity": 0.5039370078740157
        },
        {
          "duration": 0.8013396062499965,
          "durationTicks": 359,
          "midi": 72,
          "name": "C5",
          "ticks": 29280,
          "time": 68.546289,
          "velocity": 0.5039370078740157
        },
        {
          "duration": 0.2656251062499848,
          "durationTicks": 119,
          "midi": 69,
          "name": "A4",
          "ticks": 29640,
          "time": 69.34986075,
          "velocity": 0.5039370078740157
        },
        {
          "duration": 0.5334823562500048,
          "durationTicks": 239,
          "midi": 57,
          "name": "A3",
          "ticks": 29760,
          "time": 69.617718,
          "velocity": 0.5039370078740157
        },
        {
          "duration": 0.5334823562500048,
          "durationTicks": 239,
          "midi": 60,
          "name": "C4",
          "ticks": 29760,
          "time": 69.617718,
          "velocity": 0.5039370078740157
        },
        {
          "duration": 0.5334823562500048,
          "durationTicks": 239,
          "midi": 65,
          "name": "F4",
          "ticks": 29760,
          "time": 69.617718,
          "velocity": 0.5039370078740157
        },
        {
          "duration": 0.2656251062499848,
          "durationTicks": 119,
          "midi": 62,
          "name": "D4",
          "ticks": 30000,
          "time": 70.15343250000001,
          "velocity": 0.5039370078740157
        },
        {
          "duration": 0.2656251062499848,
          "durationTicks": 119,
          "midi": 65,
          "name": "F4",
          "ticks": 30000,
          "time": 70.15343250000001,
          "velocity": 0.5039370078740157
        },
        {
          "duration": 0.2656251062499848,
          "durationTicks": 119,
          "midi": 74,
          "name": "D5",
          "ticks": 30000,
          "time": 70.15343250000001,
          "velocity": 0.5039370078740157
        },
        {
          "duration": 0.265625106249999,
          "durationTicks": 119,
          "midi": 70,
          "name": "A#4",
          "ticks": 30120,
          "time": 70.42128975,
          "velocity": 0.5039370078740157
        },
        {
          "duration": 1.6049113562499997,
          "durationTicks": 719,
          "midi": 60,
          "name": "C4",
          "ticks": 30240,
          "time": 70.68914699999999,
          "velocity": 0.5039370078740157
        },
        {
          "duration": 1.6049113562499997,
          "durationTicks": 719,
          "midi": 65,
          "name": "F4",
          "ticks": 30240,
          "time": 70.68914699999999,
          "velocity": 0.5039370078740157
        },
        {
          "duration": 1.6049113562499997,
          "durationTicks": 719,
          "midi": 69,
          "name": "A4",
          "ticks": 30240,
          "time": 70.68914699999999,
          "velocity": 0.5039370078740157
        },
        {
          "duration": 1.6049113562499997,
          "durationTicks": 719,
          "midi": 72,
          "name": "C5",
          "ticks": 30240,
          "time": 70.68914699999999,
          "velocity": 0.5039370078740157
        },
        {
          "duration": 0.265625106249999,
          "durationTicks": 119,
          "midi": 65,
          "name": "F4",
          "ticks": 30960,
          "time": 72.2962905,
          "velocity": 0.5039370078740157
        },
        {
          "duration": 0.265625106249999,
          "durationTicks": 119,
          "midi": 70,
          "name": "A#4",
          "ticks": 30960,
          "time": 72.2962905,
          "velocity": 0.5039370078740157
        },
        {
          "duration": 0.265625106249999,
          "durationTicks": 119,
          "midi": 77,
          "name": "F5",
          "ticks": 30960,
          "time": 72.2962905,
          "velocity": 0.5039370078740157
        },
        {
          "duration": 0.265625106249999,
          "durationTicks": 119,
          "midi": 70,
          "name": "A#4",
          "ticks": 31080,
          "time": 72.56414775,
          "velocity": 0.5039370078740157
        },
        {
          "duration": 0.8013396062499965,
          "durationTicks": 359,
          "midi": 63,
          "name": "D#4",
          "ticks": 31200,
          "time": 72.83200500000001,
          "velocity": 0.5039370078740157
        },
        {
          "duration": 0.8013396062499965,
          "durationTicks": 359,
          "midi": 70,
          "name": "A#4",
          "ticks": 31200,
          "time": 72.83200500000001,
          "velocity": 0.5039370078740157
        },
        {
          "duration": 0.8013396062499965,
          "durationTicks": 359,
          "midi": 75,
          "name": "D#5",
          "ticks": 31200,
          "time": 72.83200500000001,
          "velocity": 0.5039370078740157
        },
        {
          "duration": 0.265625106249999,
          "durationTicks": 119,
          "midi": 62,
          "name": "D4",
          "ticks": 31560,
          "time": 73.63557675,
          "velocity": 0.5039370078740157
        },
        {
          "duration": 0.265625106249999,
          "durationTicks": 119,
          "midi": 70,
          "name": "A#4",
          "ticks": 31560,
          "time": 73.63557675,
          "velocity": 0.5039370078740157
        },
        {
          "duration": 0.265625106249999,
          "durationTicks": 119,
          "midi": 74,
          "name": "D5",
          "ticks": 31560,
          "time": 73.63557675,
          "velocity": 0.5039370078740157
        },
        {
          "duration": 0.8013396062499965,
          "durationTicks": 359,
          "midi": 62,
          "name": "D4",
          "ticks": 31680,
          "time": 73.903434,
          "velocity": 0.5039370078740157
        },
        {
          "duration": 0.8013396062499965,
          "durationTicks": 359,
          "midi": 70,
          "name": "A#4",
          "ticks": 31680,
          "time": 73.903434,
          "velocity": 0.5039370078740157
        },
        {
          "duration": 0.8013396062499965,
          "durationTicks": 359,
          "midi": 74,
          "name": "D5",
          "ticks": 31680,
          "time": 73.903434,
          "velocity": 0.5039370078740157
        },
        {
          "duration": 0.2656251062499848,
          "durationTicks": 119,
          "midi": 60,
          "name": "C4",
          "ticks": 32040,
          "time": 74.70700575000001,
          "velocity": 0.5039370078740157
        },
        {
          "duration": 0.2656251062499848,
          "durationTicks": 119,
          "midi": 65,
          "name": "F4",
          "ticks": 32040,
          "time": 74.70700575000001,
          "velocity": 0.5039370078740157
        },
        {
          "duration": 0.2656251062499848,
          "durationTicks": 119,
          "midi": 69,
          "name": "A4",
          "ticks": 32040,
          "time": 74.70700575000001,
          "velocity": 0.5039370078740157
        },
        {
          "duration": 0.2656251062499848,
          "durationTicks": 119,
          "midi": 72,
          "name": "C5",
          "ticks": 32040,
          "time": 74.70700575000001,
          "velocity": 0.5039370078740157
        },
        {
          "duration": 1.6049113562499997,
          "durationTicks": 719,
          "midi": 60,
          "name": "C4",
          "ticks": 32160,
          "time": 74.974863,
          "velocity": 0.5039370078740157
        },
        {
          "duration": 1.6049113562499997,
          "durationTicks": 719,
          "midi": 65,
          "name": "F4",
          "ticks": 32160,
          "time": 74.974863,
          "velocity": 0.5039370078740157
        },
        {
          "duration": 1.6049113562499997,
          "durationTicks": 719,
          "midi": 69,
          "name": "A4",
          "ticks": 32160,
          "time": 74.974863,
          "velocity": 0.5039370078740157
        },
        {
          "duration": 1.6049113562499997,
          "durationTicks": 719,
          "midi": 72,
          "name": "C5",
          "ticks": 32160,
          "time": 74.974863,
          "velocity": 0.5039370078740157
        },
        {
          "duration": 0.265625106249999,
          "durationTicks": 119,
          "midi": 70,
          "name": "A#4",
          "ticks": 32880,
          "time": 76.5820065,
          "velocity": 0.5039370078740157
        },
        {
          "duration": 0.265625106249999,
          "durationTicks": 119,
          "midi": 82,
          "name": "A#5",
          "ticks": 32880,
          "time": 76.5820065,
          "velocity": 0.5039370078740157
        },
        {
          "duration": 0.26562510625001323,
          "durationTicks": 119,
          "midi": 69,
          "name": "A4",
          "ticks": 33000,
          "time": 76.84986375,
          "velocity": 0.5039370078740157
        },
        {
          "duration": 0.26562510625001323,
          "durationTicks": 119,
          "midi": 81,
          "name": "A5",
          "ticks": 33000,
          "time": 76.84986375,
          "velocity": 0.5039370078740157
        },
        {
          "duration": 0.5334823562500048,
          "durationTicks": 239,
          "midi": 70,
          "name": "A#4",
          "ticks": 33120,
          "time": 77.11772099999999,
          "velocity": 0.6299212598425197
        },
        {
          "duration": 0.5334823562500048,
          "durationTicks": 239,
          "midi": 74,
          "name": "D5",
          "ticks": 33120,
          "time": 77.11772099999999,
          "velocity": 0.6299212598425197
        },
        {
          "duration": 0.5334823562500048,
          "durationTicks": 239,
          "midi": 77,
          "name": "F5",
          "ticks": 33120,
          "time": 77.11772099999999,
          "velocity": 0.6299212598425197
        },
        {
          "duration": 0.5334823562500048,
          "durationTicks": 239,
          "midi": 82,
          "name": "A#5",
          "ticks": 33120,
          "time": 77.11772099999999,
          "velocity": 0.6299212598425197
        },
        {
          "duration": 0.5334823562500048,
          "durationTicks": 239,
          "midi": 65,
          "name": "F4",
          "ticks": 33360,
          "time": 77.6534355,
          "velocity": 0.6299212598425197
        },
        {
          "duration": 0.5334823562500048,
          "durationTicks": 239,
          "midi": 77,
          "name": "F5",
          "ticks": 33360,
          "time": 77.6534355,
          "velocity": 0.6299212598425197
        },
        {
          "duration": 0.5334823562500048,
          "durationTicks": 239,
          "midi": 63,
          "name": "D#4",
          "ticks": 33600,
          "time": 78.18915,
          "velocity": 0.6299212598425197
        },
        {
          "duration": 0.5334823562500048,
          "durationTicks": 239,
          "midi": 67,
          "name": "G4",
          "ticks": 33600,
          "time": 78.18915,
          "velocity": 0.6299212598425197
        },
        {
          "duration": 0.5334823562500048,
          "durationTicks": 239,
          "midi": 70,
          "name": "A#4",
          "ticks": 33600,
          "time": 78.18915,
          "velocity": 0.6299212598425197
        },
        {
          "duration": 0.5334823562500048,
          "durationTicks": 239,
          "midi": 75,
          "name": "D#5",
          "ticks": 33600,
          "time": 78.18915,
          "velocity": 0.6299212598425197
        },
        {
          "duration": 0.26562510625001323,
          "durationTicks": 119,
          "midi": 70,
          "name": "A#4",
          "ticks": 33840,
          "time": 78.7248645,
          "velocity": 0.6299212598425197
        },
        {
          "duration": 0.26562510625001323,
          "durationTicks": 119,
          "midi": 82,
          "name": "A#5",
          "ticks": 33840,
          "time": 78.7248645,
          "velocity": 0.6299212598425197
        },
        {
          "duration": 0.265625106249999,
          "durationTicks": 119,
          "midi": 69,
          "name": "A4",
          "ticks": 33960,
          "time": 78.99272175,
          "velocity": 0.6299212598425197
        },
        {
          "duration": 0.265625106249999,
          "durationTicks": 119,
          "midi": 81,
          "name": "A5",
          "ticks": 33960,
          "time": 78.99272175,
          "velocity": 0.6299212598425197
        },
        {
          "duration": 0.5334823562499906,
          "durationTicks": 239,
          "midi": 70,
          "name": "A#4",
          "ticks": 34080,
          "time": 79.260579,
          "velocity": 0.6299212598425197
        },
        {
          "duration": 0.5334823562499906,
          "durationTicks": 239,
          "midi": 74,
          "name": "D5",
          "ticks": 34080,
          "time": 79.260579,
          "velocity": 0.6299212598425197
        },
        {
          "duration": 0.5334823562499906,
          "durationTicks": 239,
          "midi": 77,
          "name": "F5",
          "ticks": 34080,
          "time": 79.260579,
          "velocity": 0.6299212598425197
        },
        {
          "duration": 0.5334823562499906,
          "durationTicks": 239,
          "midi": 82,
          "name": "A#5",
          "ticks": 34080,
          "time": 79.260579,
          "velocity": 0.6299212598425197
        },
        {
          "duration": 0.5334823562500048,
          "durationTicks": 239,
          "midi": 65,
          "name": "F4",
          "ticks": 34320,
          "time": 79.79629349999999,
          "velocity": 0.6299212598425197
        },
        {
          "duration": 0.5334823562500048,
          "durationTicks": 239,
          "midi": 77,
          "name": "F5",
          "ticks": 34320,
          "time": 79.79629349999999,
          "velocity": 0.6299212598425197
        },
        {
          "duration": 0.5334823562500048,
          "durationTicks": 239,
          "midi": 63,
          "name": "D#4",
          "ticks": 34560,
          "time": 80.332008,
          "velocity": 0.6299212598425197
        },
        {
          "duration": 0.5334823562500048,
          "durationTicks": 239,
          "midi": 67,
          "name": "G4",
          "ticks": 34560,
          "time": 80.332008,
          "velocity": 0.6299212598425197
        },
        {
          "duration": 0.5334823562500048,
          "durationTicks": 239,
          "midi": 70,
          "name": "A#4",
          "ticks": 34560,
          "time": 80.332008,
          "velocity": 0.6299212598425197
        },
        {
          "duration": 0.5334823562500048,
          "durationTicks": 239,
          "midi": 75,
          "name": "D#5",
          "ticks": 34560,
          "time": 80.332008,
          "velocity": 0.6299212598425197
        },
        {
          "duration": 0.265625106249999,
          "durationTicks": 119,
          "midi": 70,
          "name": "A#4",
          "ticks": 34800,
          "time": 80.8677225,
          "velocity": 0.6299212598425197
        },
        {
          "duration": 0.265625106249999,
          "durationTicks": 119,
          "midi": 82,
          "name": "A#5",
          "ticks": 34800,
          "time": 80.8677225,
          "velocity": 0.6299212598425197
        },
        {
          "duration": 0.265625106249999,
          "durationTicks": 119,
          "midi": 69,
          "name": "A4",
          "ticks": 34920,
          "time": 81.13557975,
          "velocity": 0.6299212598425197
        },
        {
          "duration": 0.265625106249999,
          "durationTicks": 119,
          "midi": 81,
          "name": "A5",
          "ticks": 34920,
          "time": 81.13557975,
          "velocity": 0.6299212598425197
        },
        {
          "duration": 0.26562510625001323,
          "durationTicks": 119,
          "midi": 69,
          "name": "A4",
          "ticks": 35040,
          "time": 81.403437,
          "velocity": 0.6299212598425197
        },
        {
          "duration": 0.26562510625001323,
          "durationTicks": 119,
          "midi": 74,
          "name": "D5",
          "ticks": 35040,
          "time": 81.403437,
          "velocity": 0.6299212598425197
        },
        {
          "duration": 0.26562510625001323,
          "durationTicks": 119,
          "midi": 77,
          "name": "F5",
          "ticks": 35040,
          "time": 81.403437,
          "velocity": 0.6299212598425197
        },
        {
          "duration": 0.26562510625001323,
          "durationTicks": 119,
          "midi": 81,
          "name": "A5",
          "ticks": 35040,
          "time": 81.403437,
          "velocity": 0.6299212598425197
        },
        {
          "duration": 0.8013396062500107,
          "durationTicks": 359,
          "midi": 70,
          "name": "A#4",
          "ticks": 35160,
          "time": 81.67129424999999,
          "velocity": 0.6299212598425197
        },
        {
          "duration": 0.8013396062500107,
          "durationTicks": 359,
          "midi": 82,
          "name": "A#5",
          "ticks": 35160,
          "time": 81.67129424999999,
          "velocity": 0.6299212598425197
        },
        {
          "duration": 0.5334823562500048,
          "durationTicks": 239,
          "midi": 65,
          "name": "F4",
          "ticks": 35520,
          "time": 82.47486599999999,
          "velocity": 0.6299212598425197
        },
        {
          "duration": 0.5334823562500048,
          "durationTicks": 239,
          "midi": 77,
          "name": "F5",
          "ticks": 35520,
          "time": 82.47486599999999,
          "velocity": 0.6299212598425197
        },
        {
          "duration": 0.5334823562500048,
          "durationTicks": 239,
          "midi": 58,
          "name": "A#3",
          "ticks": 35760,
          "time": 83.0105805,
          "velocity": 0.6299212598425197
        },
        {
          "duration": 0.5334823562500048,
          "durationTicks": 239,
          "midi": 70,
          "name": "A#4",
          "ticks": 35760,
          "time": 83.0105805,
          "velocity": 0.6299212598425197
        },
        {
          "duration": 1.6049113562499997,
          "durationTicks": 719,
          "midi": 68,
          "name": "G#4",
          "ticks": 36000,
          "time": 83.546295,
          "velocity": 0.6299212598425197
        },
        {
          "duration": 1.6049113562499997,
          "durationTicks": 719,
          "midi": 70,
          "name": "A#4",
          "ticks": 36000,
          "time": 83.546295,
          "velocity": 0.6299212598425197
        },
        {
          "duration": 1.6049113562499997,
          "durationTicks": 719,
          "midi": 75,
          "name": "D#5",
          "ticks": 36000,
          "time": 83.546295,
          "velocity": 0.6299212598425197
        },
        {
          "duration": 1.6049113562499997,
          "durationTicks": 719,
          "midi": 80,
          "name": "G#5",
          "ticks": 36000,
          "time": 83.546295,
          "velocity": 0.6299212598425197
        },
        {
          "duration": 0.26562510625001323,
          "durationTicks": 119,
          "midi": 70,
          "name": "A#4",
          "ticks": 36720,
          "time": 85.1534385,
          "velocity": 0.6299212598425197
        },
        {
          "duration": 0.26562510625001323,
          "durationTicks": 119,
          "midi": 82,
          "name": "A#5",
          "ticks": 36720,
          "time": 85.1534385,
          "velocity": 0.6299212598425197
        },
        {
          "duration": 0.265625106249999,
          "durationTicks": 119,
          "midi": 69,
          "name": "A4",
          "ticks": 36840,
          "time": 85.42129575,
          "velocity": 0.6299212598425197
        },
        {
          "duration": 0.265625106249999,
          "durationTicks": 119,
          "midi": 81,
          "name": "A5",
          "ticks": 36840,
          "time": 85.42129575,
          "velocity": 0.6299212598425197
        },
        {
          "duration": 0.5334823562500048,
          "durationTicks": 239,
          "midi": 70,
          "name": "A#4",
          "ticks": 36960,
          "time": 85.689153,
          "velocity": 0.6299212598425197
        },
        {
          "duration": 0.5334823562500048,
          "durationTicks": 239,
          "midi": 74,
          "name": "D5",
          "ticks": 36960,
          "time": 85.689153,
          "velocity": 0.6299212598425197
        },
        {
          "duration": 0.5334823562500048,
          "durationTicks": 239,
          "midi": 77,
          "name": "F5",
          "ticks": 36960,
          "time": 85.689153,
          "velocity": 0.6299212598425197
        },
        {
          "duration": 0.5334823562500048,
          "durationTicks": 239,
          "midi": 82,
          "name": "A#5",
          "ticks": 36960,
          "time": 85.689153,
          "velocity": 0.6299212598425197
        },
        {
          "duration": 0.5334823562499906,
          "durationTicks": 239,
          "midi": 65,
          "name": "F4",
          "ticks": 37200,
          "time": 86.2248675,
          "velocity": 0.6299212598425197
        },
        {
          "duration": 0.5334823562499906,
          "durationTicks": 239,
          "midi": 77,
          "name": "F5",
          "ticks": 37200,
          "time": 86.2248675,
          "velocity": 0.6299212598425197
        },
        {
          "duration": 0.5334823562500048,
          "durationTicks": 239,
          "midi": 63,
          "name": "D#4",
          "ticks": 37440,
          "time": 86.760582,
          "velocity": 0.6299212598425197
        },
        {
          "duration": 0.5334823562500048,
          "durationTicks": 239,
          "midi": 68,
          "name": "G#4",
          "ticks": 37440,
          "time": 86.760582,
          "velocity": 0.6299212598425197
        },
        {
          "duration": 0.5334823562500048,
          "durationTicks": 239,
          "midi": 70,
          "name": "A#4",
          "ticks": 37440,
          "time": 86.760582,
          "velocity": 0.6299212598425197
        },
        {
          "duration": 0.5334823562500048,
          "durationTicks": 239,
          "midi": 75,
          "name": "D#5",
          "ticks": 37440,
          "time": 86.760582,
          "velocity": 0.6299212598425197
        },
        {
          "duration": 0.265625106249999,
          "durationTicks": 119,
          "midi": 70,
          "name": "A#4",
          "ticks": 37680,
          "time": 87.2962965,
          "velocity": 0.6299212598425197
        },
        {
          "duration": 0.265625106249999,
          "durationTicks": 119,
          "midi": 82,
          "name": "A#5",
          "ticks": 37680,
          "time": 87.2962965,
          "velocity": 0.6299212598425197
        },
        {
          "duration": 0.265625106249999,
          "durationTicks": 119,
          "midi": 69,
          "name": "A4",
          "ticks": 37800,
          "time": 87.56415375,
          "velocity": 0.6299212598425197
        },
        {
          "duration": 0.265625106249999,
          "durationTicks": 119,
          "midi": 81,
          "name": "A5",
          "ticks": 37800,
          "time": 87.56415375,
          "velocity": 0.6299212598425197
        },
        {
          "duration": 0.5334823562500048,
          "durationTicks": 239,
          "midi": 70,
          "name": "A#4",
          "ticks": 37920,
          "time": 87.832011,
          "velocity": 0.6299212598425197
        },
        {
          "duration": 0.5334823562500048,
          "durationTicks": 239,
          "midi": 74,
          "name": "D5",
          "ticks": 37920,
          "time": 87.832011,
          "velocity": 0.6299212598425197
        },
        {
          "duration": 0.5334823562500048,
          "durationTicks": 239,
          "midi": 77,
          "name": "F5",
          "ticks": 37920,
          "time": 87.832011,
          "velocity": 0.6299212598425197
        },
        {
          "duration": 0.5334823562500048,
          "durationTicks": 239,
          "midi": 82,
          "name": "A#5",
          "ticks": 37920,
          "time": 87.832011,
          "velocity": 0.6299212598425197
        },
        {
          "duration": 0.5334823562500048,
          "durationTicks": 239,
          "midi": 65,
          "name": "F4",
          "ticks": 38160,
          "time": 88.3677255,
          "velocity": 0.6299212598425197
        },
        {
          "duration": 0.5334823562500048,
          "durationTicks": 239,
          "midi": 77,
          "name": "F5",
          "ticks": 38160,
          "time": 88.3677255,
          "velocity": 0.6299212598425197
        },
        {
          "duration": 0.5334823562500048,
          "durationTicks": 239,
          "midi": 63,
          "name": "D#4",
          "ticks": 38400,
          "time": 88.90343999999999,
          "velocity": 0.6299212598425197
        },
        {
          "duration": 0.5334823562500048,
          "durationTicks": 239,
          "midi": 68,
          "name": "G#4",
          "ticks": 38400,
          "time": 88.90343999999999,
          "velocity": 0.6299212598425197
        },
        {
          "duration": 0.5334823562500048,
          "durationTicks": 239,
          "midi": 70,
          "name": "A#4",
          "ticks": 38400,
          "time": 88.90343999999999,
          "velocity": 0.6299212598425197
        },
        {
          "duration": 0.5334823562500048,
          "durationTicks": 239,
          "midi": 75,
          "name": "D#5",
          "ticks": 38400,
          "time": 88.90343999999999,
          "velocity": 0.6299212598425197
        },
        {
          "duration": 0.265625106249999,
          "durationTicks": 119,
          "midi": 70,
          "name": "A#4",
          "ticks": 38640,
          "time": 89.4391545,
          "velocity": 0.6299212598425197
        },
        {
          "duration": 0.265625106249999,
          "durationTicks": 119,
          "midi": 82,
          "name": "A#5",
          "ticks": 38640,
          "time": 89.4391545,
          "velocity": 0.6299212598425197
        },
        {
          "duration": 0.26562510625001323,
          "durationTicks": 119,
          "midi": 69,
          "name": "A4",
          "ticks": 38760,
          "time": 89.70701174999999,
          "velocity": 0.6299212598425197
        },
        {
          "duration": 0.26562510625001323,
          "durationTicks": 119,
          "midi": 81,
          "name": "A5",
          "ticks": 38760,
          "time": 89.70701174999999,
          "velocity": 0.6299212598425197
        },
        {
          "duration": 0.5334823562500048,
          "durationTicks": 239,
          "midi": 70,
          "name": "A#4",
          "ticks": 38880,
          "time": 89.974869,
          "velocity": 0.6299212598425197
        },
        {
          "duration": 0.5334823562500048,
          "durationTicks": 239,
          "midi": 74,
          "name": "D5",
          "ticks": 38880,
          "time": 89.974869,
          "velocity": 0.6299212598425197
        },
        {
          "duration": 0.5334823562500048,
          "durationTicks": 239,
          "midi": 77,
          "name": "F5",
          "ticks": 38880,
          "time": 89.974869,
          "velocity": 0.6299212598425197
        },
        {
          "duration": 0.5334823562500048,
          "durationTicks": 239,
          "midi": 82,
          "name": "A#5",
          "ticks": 38880,
          "time": 89.974869,
          "velocity": 0.6299212598425197
        },
        {
          "duration": 0.26562510625001323,
          "durationTicks": 119,
          "midi": 65,
          "name": "F4",
          "ticks": 39120,
          "time": 90.5105835,
          "velocity": 0.6299212598425197
        },
        {
          "duration": 0.265625106249999,
          "durationTicks": 119,
          "midi": 64,
          "name": "E4",
          "ticks": 39240,
          "time": 90.77844075,
          "velocity": 0.6299212598425197
        },
        {
          "duration": 0.5334823562499906,
          "durationTicks": 239,
          "midi": 65,
          "name": "F4",
          "ticks": 39360,
          "time": 91.04629800000001,
          "velocity": 0.6299212598425197
        },
        {
          "duration": 0.26562510625001323,
          "durationTicks": 119,
          "midi": 75,
          "name": "D#5",
          "ticks": 39600,
          "time": 91.58201249999999,
          "velocity": 0.6299212598425197
        },
        {
          "duration": 0.265625106249999,
          "durationTicks": 119,
          "midi": 74,
          "name": "D5",
          "ticks": 39720,
          "time": 91.84986975,
          "velocity": 0.6299212598425197
        },
        {
          "duration": 0.5334823562500048,
          "durationTicks": 239,
          "midi": 75,
          "name": "D#5",
          "ticks": 39840,
          "time": 92.117727,
          "velocity": 0.6299212598425197
        },
        {
          "duration": 0.265625106249999,
          "durationTicks": 119,
          "midi": 72,
          "name": "C5",
          "ticks": 40080,
          "time": 92.6534415,
          "velocity": 0.6299212598425197
        },
        {
          "duration": 0.2656251062499848,
          "durationTicks": 119,
          "midi": 71,
          "name": "B4",
          "ticks": 40200,
          "time": 92.92129875,
          "velocity": 0.6299212598425197
        },
        {
          "duration": 0.5334823562500048,
          "durationTicks": 239,
          "midi": 72,
          "name": "C5",
          "ticks": 40320,
          "time": 93.189156,
          "velocity": 0.6299212598425197
        },
        {
          "duration": 0.2656251062499848,
          "durationTicks": 119,
          "midi": 70,
          "name": "A#4",
          "ticks": 40560,
          "time": 93.72487050000001,
          "velocity": 0.6299212598425197
        },
        {
          "duration": 0.2656251062499848,
          "durationTicks": 119,
          "midi": 82,
          "name": "A#5",
          "ticks": 40560,
          "time": 93.72487050000001,
          "velocity": 0.6299212598425197
        },
        {
          "duration": 0.265625106249999,
          "durationTicks": 119,
          "midi": 69,
          "name": "A4",
          "ticks": 40680,
          "time": 93.99272775,
          "velocity": 0.6299212598425197
        },
        {
          "duration": 0.265625106249999,
          "durationTicks": 119,
          "midi": 81,
          "name": "A5",
          "ticks": 40680,
          "time": 93.99272775,
          "velocity": 0.6299212598425197
        },
        {
          "duration": 2.1406258562500113,
          "durationTicks": 959,
          "midi": 70,
          "name": "A#4",
          "ticks": 40800,
          "time": 94.26058499999999,
          "velocity": 0.6299212598425197
        },
        {
          "duration": 2.1406258562500113,
          "durationTicks": 959,
          "midi": 82,
          "name": "A#5",
          "ticks": 40800,
          "time": 94.26058499999999,
          "velocity": 0.6299212598425197
        },
        {
          "duration": 0.5334823562500048,
          "durationTicks": 239,
          "midi": 75,
          "name": "D#5",
          "ticks": 40800,
          "time": 94.26058499999999,
          "velocity": 0.6299212598425197
        },
        {
          "duration": 0.265625106249999,
          "durationTicks": 119,
          "midi": 77,
          "name": "F5",
          "ticks": 41040,
          "time": 94.7962995,
          "velocity": 0.6299212598425197
        },
        {
          "duration": 0.26562510625001323,
          "durationTicks": 119,
          "midi": 76,
          "name": "E5",
          "ticks": 41160,
          "time": 95.06415675,
          "velocity": 0.6299212598425197
        },
        {
          "duration": 1.6049113562499997,
          "durationTicks": 719,
          "midi": 77,
          "name": "F5",
          "ticks": 41280,
          "time": 95.332014,
          "velocity": 0.6299212598425197
        },
        {
          "duration": 2.140625856249997,
          "durationTicks": 959,
          "midi": 69,
          "name": "A4",
          "ticks": 41760,
          "time": 96.403443,
          "velocity": 0.6299212598425197
        },
        {
          "duration": 2.140625856249997,
          "durationTicks": 959,
          "midi": 81,
          "name": "A5",
          "ticks": 41760,
          "time": 96.403443,
          "velocity": 0.6299212598425197
        },
        {
          "duration": 0.26562510625001323,
          "durationTicks": 119,
          "midi": 77,
          "name": "F5",
          "ticks": 42000,
          "time": 96.9391575,
          "velocity": 0.6299212598425197
        },
        {
          "duration": 0.265625106249999,
          "durationTicks": 119,
          "midi": 76,
          "name": "E5",
          "ticks": 42120,
          "time": 97.20701475,
          "velocity": 0.6299212598425197
        },
        {
          "duration": 1.069196856249988,
          "durationTicks": 479,
          "midi": 77,
          "name": "F5",
          "ticks": 42240,
          "time": 97.474872,
          "velocity": 0.6299212598425197
        },
        {
          "duration": 2.140625856249997,
          "durationTicks": 959,
          "midi": 82,
          "name": "A#5",
          "ticks": 42720,
          "time": 98.546301,
          "velocity": 0.8818897637795275
        },
        {
          "duration": 0.265625106249999,
          "durationTicks": 119,
          "midi": 70,
          "name": "A#4",
          "ticks": 42720,
          "time": 98.546301,
          "velocity": 0.8818897637795275
        },
        {
          "duration": 0.265625106249999,
          "durationTicks": 119,
          "midi": 74,
          "name": "D5",
          "ticks": 42720,
          "time": 98.546301,
          "velocity": 0.8818897637795275
        },
        {
          "duration": 0.265625106249999,
          "durationTicks": 119,
          "midi": 77,
          "name": "F5",
          "ticks": 42720,
          "time": 98.546301,
          "velocity": 0.8818897637795275
        },
        {
          "duration": 0.26562510625001323,
          "durationTicks": 119,
          "midi": 70,
          "name": "A#4",
          "ticks": 42840,
          "time": 98.81415824999999,
          "velocity": 0.8818897637795275
        },
        {
          "duration": 0.265625106249999,
          "durationTicks": 119,
          "midi": 75,
          "name": "D#5",
          "ticks": 42960,
          "time": 99.0820155,
          "velocity": 0.8818897637795275
        },
        {
          "duration": 0.265625106249999,
          "durationTicks": 119,
          "midi": 72,
          "name": "C5",
          "ticks": 43080,
          "time": 99.34987275,
          "velocity": 0.8818897637795275
        },
        {
          "duration": 0.26562510625001323,
          "durationTicks": 119,
          "midi": 77,
          "name": "F5",
          "ticks": 43200,
          "time": 99.61773,
          "velocity": 0.8818897637795275
        },
        {
          "duration": 0.265625106249999,
          "durationTicks": 119,
          "midi": 70,
          "name": "A#4",
          "ticks": 43320,
          "time": 99.88558725,
          "velocity": 0.8818897637795275
        },
        {
          "duration": 0.2656251062499848,
          "durationTicks": 119,
          "midi": 75,
          "name": "D#5",
          "ticks": 43440,
          "time": 100.1534445,
          "velocity": 0.8818897637795275
        },
        {
          "duration": 0.265625106249999,
          "durationTicks": 119,
          "midi": 72,
          "name": "C5",
          "ticks": 43560,
          "time": 100.42130175,
          "velocity": 0.8818897637795275
        },
        {
          "duration": 0.26562510625001323,
          "durationTicks": 119,
          "midi": 82,
          "name": "A#5",
          "ticks": 43680,
          "time": 100.68915899999999,
          "velocity": 0.8818897637795275
        },
        {
          "duration": 0.265625106249999,
          "durationTicks": 119,
          "midi": 70,
          "name": "A#4",
          "ticks": 43800,
          "time": 100.95701625,
          "velocity": 0.8818897637795275
        },
        {
          "duration": 0.265625106249999,
          "durationTicks": 119,
          "midi": 75,
          "name": "D#5",
          "ticks": 43920,
          "time": 101.2248735,
          "velocity": 0.8818897637795275
        },
        {
          "duration": 0.26562510625001323,
          "durationTicks": 119,
          "midi": 72,
          "name": "C5",
          "ticks": 44040,
          "time": 101.49273074999999,
          "velocity": 0.8818897637795275
        },
        {
          "duration": 0.265625106249999,
          "durationTicks": 119,
          "midi": 82,
          "name": "A#5",
          "ticks": 44160,
          "time": 101.760588,
          "velocity": 0.8818897637795275
        },
        {
          "duration": 0.265625106249999,
          "durationTicks": 119,
          "midi": 70,
          "name": "A#4",
          "ticks": 44280,
          "time": 102.02844525,
          "velocity": 0.8818897637795275
        },
        {
          "duration": 0.26562510625001323,
          "durationTicks": 119,
          "midi": 75,
          "name": "D#5",
          "ticks": 44400,
          "time": 102.2963025,
          "velocity": 0.8818897637795275
        },
        {
          "duration": 0.265625106249999,
          "durationTicks": 119,
          "midi": 72,
          "name": "C5",
          "ticks": 44520,
          "time": 102.56415975,
          "velocity": 0.8818897637795275
        },
        {
          "duration": 0.2656251062499848,
          "durationTicks": 119,
          "midi": 82,
          "name": "A#5",
          "ticks": 44640,
          "time": 102.83201700000001,
          "velocity": 0.8818897637795275
        },
        {
          "duration": 0.265625106249999,
          "durationTicks": 119,
          "midi": 81,
          "name": "A5",
          "ticks": 44760,
          "time": 103.09987425,
          "velocity": 0.8818897637795275
        },
        {
          "duration": 0.26562510625001323,
          "durationTicks": 119,
          "midi": 77,
          "name": "F5",
          "ticks": 44880,
          "time": 103.36773149999999,
          "velocity": 0.8818897637795275
        },
        {
          "duration": 0.265625106249999,
          "durationTicks": 119,
          "midi": 81,
          "name": "A5",
          "ticks": 45000,
          "time": 103.63558875,
          "velocity": 0.8818897637795275
        },
        {
          "duration": 0.265625106249999,
          "durationTicks": 119,
          "midi": 82,
          "name": "A#5",
          "ticks": 45120,
          "time": 103.903446,
          "velocity": 0.8818897637795275
        },
        {
          "duration": 0.26562510625001323,
          "durationTicks": 119,
          "midi": 81,
          "name": "A5",
          "ticks": 45240,
          "time": 104.17130325,
          "velocity": 0.8818897637795275
        },
        {
          "duration": 0.265625106249999,
          "durationTicks": 119,
          "midi": 77,
          "name": "F5",
          "ticks": 45360,
          "time": 104.4391605,
          "velocity": 0.8818897637795275
        },
        {
          "duration": 0.2656251062499848,
          "durationTicks": 119,
          "midi": 81,
          "name": "A5",
          "ticks": 45480,
          "time": 104.70701775,
          "velocity": 0.8818897637795275
        },
        {
          "duration": 0.26562510625001323,
          "durationTicks": 119,
          "midi": 70,
          "name": "A#4",
          "ticks": 45600,
          "time": 104.974875,
          "velocity": 0.8818897637795275
        },
        {
          "duration": 0.26562510625001323,
          "durationTicks": 119,
          "midi": 75,
          "name": "D#5",
          "ticks": 45600,
          "time": 104.974875,
          "velocity": 0.8818897637795275
        },
        {
          "duration": 0.26562510625001323,
          "durationTicks": 119,
          "midi": 82,
          "name": "A#5",
          "ticks": 45600,
          "time": 104.974875,
          "velocity": 0.8818897637795275
        },
        {
          "duration": 0.26562510625001323,
          "durationTicks": 119,
          "midi": 77,
          "name": "F5",
          "ticks": 45720,
          "time": 105.24273224999999,
          "velocity": 0.8818897637795275
        },
        {
          "duration": 0.2656251062499848,
          "durationTicks": 119,
          "midi": 75,
          "name": "D#5",
          "ticks": 45840,
          "time": 105.51058950000001,
          "velocity": 0.8818897637795275
        },
        {
          "duration": 0.26562510625001323,
          "durationTicks": 119,
          "midi": 77,
          "name": "F5",
          "ticks": 45960,
          "time": 105.77844675,
          "velocity": 0.8818897637795275
        },
        {
          "duration": 0.26562510625001323,
          "durationTicks": 119,
          "midi": 69,
          "name": "A4",
          "ticks": 46080,
          "time": 106.04630399999999,
          "velocity": 0.8818897637795275
        },
        {
          "duration": 0.26562510625001323,
          "durationTicks": 119,
          "midi": 72,
          "name": "C5",
          "ticks": 46080,
          "time": 106.04630399999999,
          "velocity": 0.8818897637795275
        },
        {
          "duration": 0.26562510625001323,
          "durationTicks": 119,
          "midi": 81,
          "name": "A5",
          "ticks": 46080,
          "time": 106.04630399999999,
          "velocity": 0.8818897637795275
        },
        {
          "duration": 0.26562510625001323,
          "durationTicks": 119,
          "midi": 82,
          "name": "A#5",
          "ticks": 46560,
          "time": 107.11773299999999,
          "velocity": 0.8818897637795275
        },
        {
          "duration": 0.2656251062499848,
          "durationTicks": 119,
          "midi": 81,
          "name": "A5",
          "ticks": 46680,
          "time": 107.38559025,
          "velocity": 0.8818897637795275
        },
        {
          "duration": 0.26562510625001323,
          "durationTicks": 119,
          "midi": 82,
          "name": "A#5",
          "ticks": 46800,
          "time": 107.6534475,
          "velocity": 0.8818897637795275
        },
        {
          "duration": 0.26562510625001323,
          "durationTicks": 119,
          "midi": 89,
          "name": "F6",
          "ticks": 46920,
          "time": 107.92130474999999,
          "velocity": 0.8818897637795275
        },
        {
          "duration": 0.2656251062499848,
          "durationTicks": 119,
          "midi": 82,
          "name": "A#5",
          "ticks": 47040,
          "time": 108.18916200000001,
          "velocity": 0.8818897637795275
        },
        {
          "duration": 0.2656251062499848,
          "durationTicks": 119,
          "midi": 81,
          "name": "A5",
          "ticks": 47160,
          "time": 108.45701925,
          "velocity": 0.8818897637795275
        },
        {
          "duration": 0.26562510625001323,
          "durationTicks": 119,
          "midi": 77,
          "name": "F5",
          "ticks": 47280,
          "time": 108.7248765,
          "velocity": 0.8818897637795275
        },
        {
          "duration": 0.26562510625001323,
          "durationTicks": 119,
          "midi": 81,
          "name": "A5",
          "ticks": 47400,
          "time": 108.99273374999999,
          "velocity": 0.8818897637795275
        },
        {
          "duration": 0.2656251062499848,
          "durationTicks": 119,
          "midi": 82,
          "name": "A#5",
          "ticks": 47520,
          "time": 109.260591,
          "velocity": 0.8818897637795275
        },
        {
          "duration": 0.26562510625001323,
          "durationTicks": 119,
          "midi": 81,
          "name": "A5",
          "ticks": 47640,
          "time": 109.52844825,
          "velocity": 0.8818897637795275
        },
        {
          "duration": 0.26562510625001323,
          "durationTicks": 119,
          "midi": 82,
          "name": "A#5",
          "ticks": 47760,
          "time": 109.79630549999999,
          "velocity": 0.8818897637795275
        },
        {
          "duration": 0.2656251062499848,
          "durationTicks": 119,
          "midi": 89,
          "name": "F6",
          "ticks": 47880,
          "time": 110.06416275000001,
          "velocity": 0.8818897637795275
        },
        {
          "duration": 0.26562510625001323,
          "durationTicks": 119,
          "midi": 82,
          "name": "A#5",
          "ticks": 48000,
          "time": 110.33202,
          "velocity": 0.8818897637795275
        },
        {
          "duration": 0.26562510625001323,
          "durationTicks": 119,
          "midi": 81,
          "name": "A5",
          "ticks": 48120,
          "time": 110.59987724999999,
          "velocity": 0.8818897637795275
        },
        {
          "duration": 0.2656251062499848,
          "durationTicks": 119,
          "midi": 77,
          "name": "F5",
          "ticks": 48240,
          "time": 110.86773450000001,
          "velocity": 0.8818897637795275
        },
        {
          "duration": 0.2656251062499848,
          "durationTicks": 119,
          "midi": 81,
          "name": "A5",
          "ticks": 48360,
          "time": 111.13559175,
          "velocity": 0.8818897637795275
        },
        {
          "duration": 0.26562510625001323,
          "durationTicks": 119,
          "midi": 82,
          "name": "A#5",
          "ticks": 48480,
          "time": 111.403449,
          "velocity": 0.8818897637795275
        },
        {
          "duration": 0.26562510625001323,
          "durationTicks": 119,
          "midi": 81,
          "name": "A5",
          "ticks": 48600,
          "time": 111.67130624999999,
          "velocity": 0.8818897637795275
        },
        {
          "duration": 0.2656251062499848,
          "durationTicks": 119,
          "midi": 82,
          "name": "A#5",
          "ticks": 48720,
          "time": 111.9391635,
          "velocity": 0.8818897637795275
        },
        {
          "duration": 0.26562510625001323,
          "durationTicks": 119,
          "midi": 89,
          "name": "F6",
          "ticks": 48840,
          "time": 112.20702075,
          "velocity": 0.8818897637795275
        },
        {
          "duration": 0.26562510625001323,
          "durationTicks": 119,
          "midi": 84,
          "name": "C6",
          "ticks": 48960,
          "time": 112.47487799999999,
          "velocity": 0.8818897637795275
        },
        {
          "duration": 0.2656251062499848,
          "durationTicks": 119,
          "midi": 83,
          "name": "B5",
          "ticks": 49080,
          "time": 112.74273525000001,
          "velocity": 0.8818897637795275
        },
        {
          "duration": 0.2656251062499848,
          "durationTicks": 119,
          "midi": 84,
          "name": "C6",
          "ticks": 49200,
          "time": 113.0105925,
          "velocity": 0.8818897637795275
        },
        {
          "duration": 0.26562510625001323,
          "durationTicks": 119,
          "midi": 89,
          "name": "F6",
          "ticks": 49320,
          "time": 113.27844975,
          "velocity": 0.8818897637795275
        },
        {
          "duration": 0.26562510625001323,
          "durationTicks": 119,
          "midi": 84,
          "name": "C6",
          "ticks": 49440,
          "time": 113.54630699999998,
          "velocity": 0.8818897637795275
        },
        {
          "duration": 0.2656251062499848,
          "durationTicks": 119,
          "midi": 82,
          "name": "A#5",
          "ticks": 49560,
          "time": 113.81416425,
          "velocity": 0.8818897637795275
        },
        {
          "duration": 0.26562510625001323,
          "durationTicks": 119,
          "midi": 84,
          "name": "C6",
          "ticks": 49680,
          "time": 114.0820215,
          "velocity": 0.8818897637795275
        },
        {
          "duration": 0.26562510625001323,
          "durationTicks": 119,
          "midi": 89,
          "name": "F6",
          "ticks": 49800,
          "time": 114.34987874999999,
          "velocity": 0.8818897637795275
        },
        {
          "duration": 0.2656251062499848,
          "durationTicks": 119,
          "midi": 82,
          "name": "A#5",
          "ticks": 49920,
          "time": 114.61773600000001,
          "velocity": 0.8818897637795275
        },
        {
          "duration": 0.26562510625001323,
          "durationTicks": 119,
          "midi": 81,
          "name": "A5",
          "ticks": 50040,
          "time": 114.88559325,
          "velocity": 0.8818897637795275
        },
        {
          "duration": 0.26562510625001323,
          "durationTicks": 119,
          "midi": 82,
          "name": "A#5",
          "ticks": 50160,
          "time": 115.15345049999999,
          "velocity": 0.8818897637795275
        },
        {
          "duration": 0.2656251062499848,
          "durationTicks": 119,
          "midi": 77,
          "name": "F5",
          "ticks": 50280,
          "time": 115.42130775000001,
          "velocity": 0.8818897637795275
        },
        {
          "duration": 0.2656251062499848,
          "durationTicks": 119,
          "midi": 84,
          "name": "C6",
          "ticks": 50400,
          "time": 115.689165,
          "velocity": 0.8818897637795275
        },
        {
          "duration": 0.26562510625001323,
          "durationTicks": 119,
          "midi": 77,
          "name": "F5",
          "ticks": 50520,
          "time": 115.95702225,
          "velocity": 0.8818897637795275
        },
        {
          "duration": 0.26562510625001323,
          "durationTicks": 119,
          "midi": 89,
          "name": "F6",
          "ticks": 50640,
          "time": 116.22487949999999,
          "velocity": 0.8818897637795275
        },
        {
          "duration": 0.2656251062499848,
          "durationTicks": 119,
          "midi": 77,
          "name": "F5",
          "ticks": 50760,
          "time": 116.49273675,
          "velocity": 0.8818897637795275
        },
        {
          "duration": 0.26562510625001323,
          "durationTicks": 119,
          "midi": 84,
          "name": "C6",
          "ticks": 50880,
          "time": 116.760594,
          "velocity": 0.8818897637795275
        },
        {
          "duration": 0.26562510625001323,
          "durationTicks": 119,
          "midi": 77,
          "name": "F5",
          "ticks": 51000,
          "time": 117.02845124999999,
          "velocity": 0.8818897637795275
        },
        {
          "duration": 0.2656251062499848,
          "durationTicks": 119,
          "midi": 82,
          "name": "A#5",
          "ticks": 51120,
          "time": 117.29630850000001,
          "velocity": 0.8818897637795275
        },
        {
          "duration": 0.2656251062499848,
          "durationTicks": 119,
          "midi": 77,
          "name": "F5",
          "ticks": 51240,
          "time": 117.56416575,
          "velocity": 0.8818897637795275
        },
        {
          "duration": 0.26562510625001323,
          "durationTicks": 119,
          "midi": 84,
          "name": "C6",
          "ticks": 51360,
          "time": 117.83202299999999,
          "velocity": 0.8818897637795275
        },
        {
          "duration": 0.26562510625001323,
          "durationTicks": 119,
          "midi": 77,
          "name": "F5",
          "ticks": 51480,
          "time": 118.09988024999998,
          "velocity": 0.8818897637795275
        },
        {
          "duration": 0.2656251062499848,
          "durationTicks": 119,
          "midi": 89,
          "name": "F6",
          "ticks": 51600,
          "time": 118.3677375,
          "velocity": 0.8818897637795275
        },
        {
          "duration": 0.26562510625001323,
          "durationTicks": 119,
          "midi": 77,
          "name": "F5",
          "ticks": 51720,
          "time": 118.63559475,
          "velocity": 0.8818897637795275
        },
        {
          "duration": 0.5334823562500048,
          "durationTicks": 239,
          "midi": 84,
          "name": "C6",
          "ticks": 51840,
          "time": 118.90345199999999,
          "velocity": 0.8818897637795275
        },
        {
          "duration": 0.26562510625001323,
          "durationTicks": 119,
          "midi": 65,
          "name": "F4",
          "ticks": 52080,
          "time": 119.4391665,
          "velocity": 0.8818897637795275
        },
        {
          "duration": 0.26562510625001323,
          "durationTicks": 119,
          "midi": 70,
          "name": "A#4",
          "ticks": 52080,
          "time": 119.4391665,
          "velocity": 0.8818897637795275
        },
        {
          "duration": 0.26562510625001323,
          "durationTicks": 119,
          "midi": 77,
          "name": "F5",
          "ticks": 52080,
          "time": 119.4391665,
          "velocity": 0.8818897637795275
        },
        {
          "duration": 0.26562510625001323,
          "durationTicks": 119,
          "midi": 70,
          "name": "A#4",
          "ticks": 52200,
          "time": 119.70702374999999,
          "velocity": 0.8818897637795275
        },
        {
          "duration": 0.8013396062499965,
          "durationTicks": 359,
          "midi": 63,
          "name": "D#4",
          "ticks": 52320,
          "time": 119.97488100000001,
          "velocity": 0.8818897637795275
        },
        {
          "duration": 0.8013396062499965,
          "durationTicks": 359,
          "midi": 70,
          "name": "A#4",
          "ticks": 52320,
          "time": 119.97488100000001,
          "velocity": 0.8818897637795275
        },
        {
          "duration": 0.8013396062499965,
          "durationTicks": 359,
          "midi": 75,
          "name": "D#5",
          "ticks": 52320,
          "time": 119.97488100000001,
          "velocity": 0.8818897637795275
        },
        {
          "duration": 0.26562510625001323,
          "durationTicks": 119,
          "midi": 62,
          "name": "D4",
          "ticks": 52680,
          "time": 120.77845274999999,
          "velocity": 0.8818897637795275
        },
        {
          "duration": 0.26562510625001323,
          "durationTicks": 119,
          "midi": 70,
          "name": "A#4",
          "ticks": 52680,
          "time": 120.77845274999999,
          "velocity": 0.8818897637795275
        },
        {
          "duration": 0.26562510625001323,
          "durationTicks": 119,
          "midi": 74,
          "name": "D5",
          "ticks": 52680,
          "time": 120.77845274999999,
          "velocity": 0.8818897637795275
        },
        {
          "duration": 0.8013396062499965,
          "durationTicks": 359,
          "midi": 62,
          "name": "D4",
          "ticks": 52800,
          "time": 121.04631,
          "velocity": 0.8818897637795275
        },
        {
          "duration": 0.8013396062499965,
          "durationTicks": 359,
          "midi": 70,
          "name": "A#4",
          "ticks": 52800,
          "time": 121.04631,
          "velocity": 0.8818897637795275
        },
        {
          "duration": 0.8013396062499965,
          "durationTicks": 359,
          "midi": 74,
          "name": "D5",
          "ticks": 52800,
          "time": 121.04631,
          "velocity": 0.8818897637795275
        },
        {
          "duration": 0.2656251062499848,
          "durationTicks": 119,
          "midi": 60,
          "name": "C4",
          "ticks": 53160,
          "time": 121.84988175000001,
          "velocity": 0.8818897637795275
        },
        {
          "duration": 0.2656251062499848,
          "durationTicks": 119,
          "midi": 65,
          "name": "F4",
          "ticks": 53160,
          "time": 121.84988175000001,
          "velocity": 0.8818897637795275
        },
        {
          "duration": 0.2656251062499848,
          "durationTicks": 119,
          "midi": 69,
          "name": "A4",
          "ticks": 53160,
          "time": 121.84988175000001,
          "velocity": 0.8818897637795275
        },
        {
          "duration": 0.2656251062499848,
          "durationTicks": 119,
          "midi": 72,
          "name": "C5",
          "ticks": 53160,
          "time": 121.84988175000001,
          "velocity": 0.8818897637795275
        },
        {
          "duration": 0.26562510625001323,
          "durationTicks": 119,
          "midi": 60,
          "name": "C4",
          "ticks": 53280,
          "time": 122.117739,
          "velocity": 0.8818897637795275
        },
        {
          "duration": 0.26562510625001323,
          "durationTicks": 119,
          "midi": 65,
          "name": "F4",
          "ticks": 53280,
          "time": 122.117739,
          "velocity": 0.8818897637795275
        },
        {
          "duration": 0.26562510625001323,
          "durationTicks": 119,
          "midi": 69,
          "name": "A4",
          "ticks": 53280,
          "time": 122.117739,
          "velocity": 0.8818897637795275
        },
        {
          "duration": 0.26562510625001323,
          "durationTicks": 119,
          "midi": 72,
          "name": "C5",
          "ticks": 53280,
          "time": 122.117739,
          "velocity": 0.8818897637795275
        },
        {
          "duration": 0.26562510625001323,
          "durationTicks": 119,
          "midi": 65,
          "name": "F4",
          "ticks": 53400,
          "time": 122.38559624999999,
          "velocity": 0.8818897637795275
        },
        {
          "duration": 0.26562510625001323,
          "durationTicks": 119,
          "midi": 77,
          "name": "F5",
          "ticks": 53520,
          "time": 122.65345349999998,
          "velocity": 0.8818897637795275
        },
        {
          "duration": 0.2656251062499848,
          "durationTicks": 119,
          "midi": 65,
          "name": "F4",
          "ticks": 53640,
          "time": 122.92131075,
          "velocity": 0.8818897637795275
        },
        {
          "duration": 0.5334823562500048,
          "durationTicks": 239,
          "midi": 72,
          "name": "C5",
          "ticks": 53760,
          "time": 123.189168,
          "velocity": 0.8818897637795275
        },
        {
          "duration": 0.2656251062499848,
          "durationTicks": 119,
          "midi": 70,
          "name": "A#4",
          "ticks": 54000,
          "time": 123.7248825,
          "velocity": 0.8818897637795275
        },
        {
          "duration": 0.26562510625001323,
          "durationTicks": 119,
          "midi": 69,
          "name": "A4",
          "ticks": 54120,
          "time": 123.99273975,
          "velocity": 0.8818897637795275
        },
        {
          "duration": 1.6049113562499997,
          "durationTicks": 719,
          "midi": 70,
          "name": "A#4",
          "ticks": 54240,
          "time": 124.26059699999999,
          "velocity": 0.8818897637795275
        },
        {
          "duration": 2.1406258562500113,
          "durationTicks": 959,
          "midi": 62,
          "name": "D4",
          "ticks": 54240,
          "time": 124.26059699999999,
          "velocity": 0.8818897637795275
        },
        {
          "duration": 2.1406258562500113,
          "durationTicks": 959,
          "midi": 65,
          "name": "F4",
          "ticks": 54240,
          "time": 124.26059699999999,
          "velocity": 0.8818897637795275
        },
        {
          "duration": 0.26562510625001323,
          "durationTicks": 119,
          "midi": 70,
          "name": "A#4",
          "ticks": 54960,
          "time": 125.8677405,
          "velocity": 0.8818897637795275
        },
        {
          "duration": 0.26562510625001323,
          "durationTicks": 119,
          "midi": 69,
          "name": "A4",
          "ticks": 55080,
          "time": 126.13559774999999,
          "velocity": 0.8818897637795275
        },
        {
          "duration": 1.6049113562499997,
          "durationTicks": 719,
          "midi": 70,
          "name": "A#4",
          "ticks": 55200,
          "time": 126.40345500000001,
          "velocity": 0.8818897637795275
        },
        {
          "duration": 2.140625856249983,
          "durationTicks": 959,
          "midi": 63,
          "name": "D#4",
          "ticks": 55200,
          "time": 126.40345500000001,
          "velocity": 0.8818897637795275
        },
        {
          "duration": 2.140625856249983,
          "durationTicks": 959,
          "midi": 67,
          "name": "G4",
          "ticks": 55200,
          "time": 126.40345500000001,
          "velocity": 0.8818897637795275
        },
        {
          "duration": 0.26562510625001323,
          "durationTicks": 119,
          "midi": 70,
          "name": "A#4",
          "ticks": 55920,
          "time": 128.0105985,
          "velocity": 0.8818897637795275
        },
        {
          "duration": 0.2656251062499848,
          "durationTicks": 119,
          "midi": 69,
          "name": "A4",
          "ticks": 56040,
          "time": 128.27845575,
          "velocity": 0.8818897637795275
        },
        {
          "duration": 0.5334823562500048,
          "durationTicks": 239,
          "midi": 62,
          "name": "D4",
          "ticks": 56160,
          "time": 128.546313,
          "velocity": 0.8818897637795275
        },
        {
          "duration": 0.5334823562500048,
          "durationTicks": 239,
          "midi": 70,
          "name": "A#4",
          "ticks": 56160,
          "time": 128.546313,
          "velocity": 0.8818897637795275
        },
        {
          "duration": 0.5334823562499764,
          "durationTicks": 239,
          "midi": 65,
          "name": "F4",
          "ticks": 56400,
          "time": 129.0820275,
          "velocity": 0.8818897637795275
        },
        {
          "duration": 0.5334823562500048,
          "durationTicks": 239,
          "midi": 74,
          "name": "D5",
          "ticks": 56640,
          "time": 129.617742,
          "velocity": 0.8818897637795275
        },
        {
          "duration": 0.5334823562500048,
          "durationTicks": 239,
          "midi": 77,
          "name": "F5",
          "ticks": 56640,
          "time": 129.617742,
          "velocity": 0.8818897637795275
        },
        {
          "duration": 0.2656251062499848,
          "durationTicks": 119,
          "midi": 72,
          "name": "C5",
          "ticks": 56880,
          "time": 130.1534565,
          "velocity": 0.8818897637795275
        },
        {
          "duration": 0.2656251062499848,
          "durationTicks": 119,
          "midi": 75,
          "name": "D#5",
          "ticks": 56880,
          "time": 130.1534565,
          "velocity": 0.8818897637795275
        },
        {
          "duration": 0.26562510625001323,
          "durationTicks": 119,
          "midi": 70,
          "name": "A#4",
          "ticks": 57000,
          "time": 130.42131375,
          "velocity": 0.8818897637795275
        },
        {
          "duration": 0.26562510625001323,
          "durationTicks": 119,
          "midi": 74,
          "name": "D5",
          "ticks": 57000,
          "time": 130.42131375,
          "velocity": 0.8818897637795275
        },
        {
          "duration": 1.6049113562499997,
          "durationTicks": 719,
          "midi": 72,
          "name": "C5",
          "ticks": 57120,
          "time": 130.689171,
          "velocity": 0.8818897637795275
        },
        {
          "duration": 1.6049113562499997,
          "durationTicks": 719,
          "midi": 75,
          "name": "D#5",
          "ticks": 57120,
          "time": 130.689171,
          "velocity": 0.8818897637795275
        },
        {
          "duration": 0.26562510625001323,
          "durationTicks": 119,
          "midi": 77,
          "name": "F5",
          "ticks": 57840,
          "time": 132.2963145,
          "velocity": 0.8818897637795275
        },
        {
          "duration": 0.26562510625001323,
          "durationTicks": 119,
          "midi": 72,
          "name": "C5",
          "ticks": 57960,
          "time": 132.56417174999999,
          "velocity": 0.8818897637795275
        },
        {
          "duration": 0.8013396062499965,
          "durationTicks": 359,
          "midi": 70,
          "name": "A#4",
          "ticks": 58080,
          "time": 132.832029,
          "velocity": 0.8818897637795275
        },
        {
          "duration": 0.8013396062499965,
          "durationTicks": 359,
          "midi": 75,
          "name": "D#5",
          "ticks": 58080,
          "time": 132.832029,
          "velocity": 0.8818897637795275
        },
        {
          "duration": 0.2656251062499848,
          "durationTicks": 119,
          "midi": 70,
          "name": "A#4",
          "ticks": 58440,
          "time": 133.63560075,
          "velocity": 0.8818897637795275
        },
        {
          "duration": 0.2656251062499848,
          "durationTicks": 119,
          "midi": 74,
          "name": "D5",
          "ticks": 58440,
          "time": 133.63560075,
          "velocity": 0.8818897637795275
        },
        {
          "duration": 0.5334823562500048,
          "durationTicks": 239,
          "midi": 69,
          "name": "A4",
          "ticks": 58560,
          "time": 133.903458,
          "velocity": 0.8818897637795275
        },
        {
          "duration": 0.5334823562500048,
          "durationTicks": 239,
          "midi": 72,
          "name": "C5",
          "ticks": 58560,
          "time": 133.903458,
          "velocity": 0.8818897637795275
        },
        {
          "duration": 0.26562510625001323,
          "durationTicks": 119,
          "midi": 69,
          "name": "A4",
          "ticks": 58800,
          "time": 134.43917249999998,
          "velocity": 0.8818897637795275
        },
        {
          "duration": 0.26562510625001323,
          "durationTicks": 119,
          "midi": 77,
          "name": "F5",
          "ticks": 58800,
          "time": 134.43917249999998,
          "velocity": 0.8818897637795275
        },
        {
          "duration": 0.2656251062499848,
          "durationTicks": 119,
          "midi": 69,
          "name": "A4",
          "ticks": 58920,
          "time": 134.70702975,
          "velocity": 0.8818897637795275
        },
        {
          "duration": 0.2656251062499848,
          "durationTicks": 119,
          "midi": 72,
          "name": "C5",
          "ticks": 58920,
          "time": 134.70702975,
          "velocity": 0.8818897637795275
        },
        {
          "duration": 1.6049113562499997,
          "durationTicks": 719,
          "midi": 68,
          "name": "G#4",
          "ticks": 59040,
          "time": 134.974887,
          "velocity": 0.8818897637795275
        },
        {
          "duration": 1.6049113562499997,
          "durationTicks": 719,
          "midi": 72,
          "name": "C5",
          "ticks": 59040,
          "time": 134.974887,
          "velocity": 0.8818897637795275
        },
        {
          "duration": 1.6049113562499997,
          "durationTicks": 719,
          "midi": 75,
          "name": "D#5",
          "ticks": 59040,
          "time": 134.974887,
          "velocity": 0.8818897637795275
        },
        {
          "duration": 0.2656251062499848,
          "durationTicks": 119,
          "midi": 89,
          "name": "F6",
          "ticks": 59280,
          "time": 135.5106015,
          "velocity": 0.8818897637795275
        },
        {
          "duration": 0.26562510625001323,
          "durationTicks": 119,
          "midi": 84,
          "name": "C6",
          "ticks": 59400,
          "time": 135.77845875,
          "velocity": 0.8818897637795275
        },
        {
          "duration": 0.5334823562500048,
          "durationTicks": 239,
          "midi": 87,
          "name": "D#6",
          "ticks": 59520,
          "time": 136.046316,
          "velocity": 0.8818897637795275
        },
        {
          "duration": 0.2656251062499848,
          "durationTicks": 119,
          "midi": 65,
          "name": "F4",
          "ticks": 59760,
          "time": 136.5820305,
          "velocity": 0.8818897637795275
        },
        {
          "duration": 0.2656251062499848,
          "durationTicks": 119,
          "midi": 69,
          "name": "A4",
          "ticks": 59760,
          "time": 136.5820305,
          "velocity": 0.8818897637795275
        },
        {
          "duration": 0.2656251062499848,
          "durationTicks": 119,
          "midi": 77,
          "name": "F5",
          "ticks": 59760,
          "time": 136.5820305,
          "velocity": 0.8818897637795275
        },
        {
          "duration": 0.26562510625001323,
          "durationTicks": 119,
          "midi": 72,
          "name": "C5",
          "ticks": 59880,
          "time": 136.84988775,
          "velocity": 0.8818897637795275
        },
        {
          "duration": 0.8013396062500249,
          "durationTicks": 359,
          "midi": 63,
          "name": "D#4",
          "ticks": 60000,
          "time": 137.11774499999999,
          "velocity": 0.8818897637795275
        },
        {
          "duration": 0.8013396062500249,
          "durationTicks": 359,
          "midi": 70,
          "name": "A#4",
          "ticks": 60000,
          "time": 137.11774499999999,
          "velocity": 0.8818897637795275
        },
        {
          "duration": 0.8013396062500249,
          "durationTicks": 359,
          "midi": 75,
          "name": "D#5",
          "ticks": 60000,
          "time": 137.11774499999999,
          "velocity": 0.8818897637795275
        },
        {
          "duration": 0.26562510625001323,
          "durationTicks": 119,
          "midi": 62,
          "name": "D4",
          "ticks": 60360,
          "time": 137.92131675,
          "velocity": 0.8818897637795275
        },
        {
          "duration": 0.26562510625001323,
          "durationTicks": 119,
          "midi": 70,
          "name": "A#4",
          "ticks": 60360,
          "time": 137.92131675,
          "velocity": 0.8818897637795275
        },
        {
          "duration": 0.26562510625001323,
          "durationTicks": 119,
          "midi": 74,
          "name": "D5",
          "ticks": 60360,
          "time": 137.92131675,
          "velocity": 0.8818897637795275
        },
        {
          "duration": 0.5334823562500048,
          "durationTicks": 239,
          "midi": 60,
          "name": "C4",
          "ticks": 60480,
          "time": 138.189174,
          "velocity": 0.8818897637795275
        },
        {
          "duration": 0.5334823562500048,
          "durationTicks": 239,
          "midi": 67,
          "name": "G4",
          "ticks": 60480,
          "time": 138.189174,
          "velocity": 0.8818897637795275
        },
        {
          "duration": 0.5334823562500048,
          "durationTicks": 239,
          "midi": 72,
          "name": "C5",
          "ticks": 60480,
          "time": 138.189174,
          "velocity": 0.8818897637795275
        },
        {
          "duration": 0.26562510625001323,
          "durationTicks": 119,
          "midi": 63,
          "name": "D#4",
          "ticks": 60720,
          "time": 138.7248885,
          "velocity": 0.8818897637795275
        },
        {
          "duration": 0.26562510625001323,
          "durationTicks": 119,
          "midi": 67,
          "name": "G4",
          "ticks": 60720,
          "time": 138.7248885,
          "velocity": 0.8818897637795275
        },
        {
          "duration": 0.26562510625001323,
          "durationTicks": 119,
          "midi": 72,
          "name": "C5",
          "ticks": 60720,
          "time": 138.7248885,
          "velocity": 0.8818897637795275
        },
        {
          "duration": 0.26562510625001323,
          "durationTicks": 119,
          "midi": 75,
          "name": "D#5",
          "ticks": 60720,
          "time": 138.7248885,
          "velocity": 0.8818897637795275
        },
        {
          "duration": 0.26562510625001323,
          "durationTicks": 119,
          "midi": 67,
          "name": "G4",
          "ticks": 60840,
          "time": 138.99274574999998,
          "velocity": 0.8818897637795275
        },
        {
          "duration": 0.26562510625001323,
          "durationTicks": 119,
          "midi": 79,
          "name": "G5",
          "ticks": 60840,
          "time": 138.99274574999998,
          "velocity": 0.8818897637795275
        },
        {
          "duration": 1.6049113562499997,
          "durationTicks": 719,
          "midi": 69,
          "name": "A4",
          "ticks": 60960,
          "time": 139.260603,
          "velocity": 0.8818897637795275
        },
        {
          "duration": 1.6049113562499997,
          "durationTicks": 719,
          "midi": 72,
          "name": "C5",
          "ticks": 60960,
          "time": 139.260603,
          "velocity": 0.8818897637795275
        },
        {
          "duration": 1.6049113562499997,
          "durationTicks": 719,
          "midi": 77,
          "name": "F5",
          "ticks": 60960,
          "time": 139.260603,
          "velocity": 0.8818897637795275
        },
        {
          "duration": 1.6049113562499997,
          "durationTicks": 719,
          "midi": 81,
          "name": "A5",
          "ticks": 60960,
          "time": 139.260603,
          "velocity": 0.8818897637795275
        },
        {
          "duration": 0.2656251062499848,
          "durationTicks": 119,
          "midi": 70,
          "name": "A#4",
          "ticks": 61680,
          "time": 140.8677465,
          "velocity": 0.8818897637795275
        },
        {
          "duration": 0.2656251062499848,
          "durationTicks": 119,
          "midi": 82,
          "name": "A#5",
          "ticks": 61680,
          "time": 140.8677465,
          "velocity": 0.8818897637795275
        },
        {
          "duration": 0.2656251062499848,
          "durationTicks": 119,
          "midi": 69,
          "name": "A4",
          "ticks": 61800,
          "time": 141.13560375,
          "velocity": 0.8818897637795275
        },
        {
          "duration": 0.2656251062499848,
          "durationTicks": 119,
          "midi": 81,
          "name": "A5",
          "ticks": 61800,
          "time": 141.13560375,
          "velocity": 0.8818897637795275
        },
        {
          "duration": 0.5334823562500048,
          "durationTicks": 239,
          "midi": 70,
          "name": "A#4",
          "ticks": 61920,
          "time": 141.403461,
          "velocity": 0.8818897637795275
        },
        {
          "duration": 0.5334823562500048,
          "durationTicks": 239,
          "midi": 74,
          "name": "D5",
          "ticks": 61920,
          "time": 141.403461,
          "velocity": 0.8818897637795275
        },
        {
          "duration": 0.5334823562500048,
          "durationTicks": 239,
          "midi": 77,
          "name": "F5",
          "ticks": 61920,
          "time": 141.403461,
          "velocity": 0.8818897637795275
        },
        {
          "duration": 0.5334823562500048,
          "durationTicks": 239,
          "midi": 82,
          "name": "A#5",
          "ticks": 61920,
          "time": 141.403461,
          "velocity": 0.8818897637795275
        },
        {
          "duration": 0.5334823562500048,
          "durationTicks": 239,
          "midi": 65,
          "name": "F4",
          "ticks": 62160,
          "time": 141.9391755,
          "velocity": 0.8818897637795275
        },
        {
          "duration": 0.5334823562500048,
          "durationTicks": 239,
          "midi": 77,
          "name": "F5",
          "ticks": 62160,
          "time": 141.9391755,
          "velocity": 0.8818897637795275
        },
        {
          "duration": 0.5334823562500048,
          "durationTicks": 239,
          "midi": 65,
          "name": "F4",
          "ticks": 62400,
          "time": 142.47489,
          "velocity": 0.8818897637795275
        },
        {
          "duration": 0.5334823562500048,
          "durationTicks": 239,
          "midi": 70,
          "name": "A#4",
          "ticks": 62400,
          "time": 142.47489,
          "velocity": 0.8818897637795275
        },
        {
          "duration": 0.5334823562500048,
          "durationTicks": 239,
          "midi": 72,
          "name": "C5",
          "ticks": 62400,
          "time": 142.47489,
          "velocity": 0.8818897637795275
        },
        {
          "duration": 0.5334823562500048,
          "durationTicks": 239,
          "midi": 75,
          "name": "D#5",
          "ticks": 62400,
          "time": 142.47489,
          "velocity": 0.8818897637795275
        },
        {
          "duration": 0.26562510625001323,
          "durationTicks": 119,
          "midi": 70,
          "name": "A#4",
          "ticks": 62640,
          "time": 143.0106045,
          "velocity": 0.8818897637795275
        },
        {
          "duration": 0.26562510625001323,
          "durationTicks": 119,
          "midi": 82,
          "name": "A#5",
          "ticks": 62640,
          "time": 143.0106045,
          "velocity": 0.8818897637795275
        },
        {
          "duration": 0.26562510625001323,
          "durationTicks": 119,
          "midi": 69,
          "name": "A4",
          "ticks": 62760,
          "time": 143.27846175,
          "velocity": 0.8818897637795275
        },
        {
          "duration": 0.26562510625001323,
          "durationTicks": 119,
          "midi": 81,
          "name": "A5",
          "ticks": 62760,
          "time": 143.27846175,
          "velocity": 0.8818897637795275
        },
        {
          "duration": 0.5334823562500048,
          "durationTicks": 239,
          "midi": 70,
          "name": "A#4",
          "ticks": 62880,
          "time": 143.54631899999998,
          "velocity": 0.8818897637795275
        },
        {
          "duration": 0.5334823562500048,
          "durationTicks": 239,
          "midi": 74,
          "name": "D5",
          "ticks": 62880,
          "time": 143.54631899999998,
          "velocity": 0.8818897637795275
        },
        {
          "duration": 0.5334823562500048,
          "durationTicks": 239,
          "midi": 77,
          "name": "F5",
          "ticks": 62880,
          "time": 143.54631899999998,
          "velocity": 0.8818897637795275
        },
        {
          "duration": 0.5334823562500048,
          "durationTicks": 239,
          "midi": 82,
          "name": "A#5",
          "ticks": 62880,
          "time": 143.54631899999998,
          "velocity": 0.8818897637795275
        },
        {
          "duration": 0.5334823562500048,
          "durationTicks": 239,
          "midi": 65,
          "name": "F4",
          "ticks": 63120,
          "time": 144.0820335,
          "velocity": 0.8818897637795275
        },
        {
          "duration": 0.5334823562500048,
          "durationTicks": 239,
          "midi": 77,
          "name": "F5",
          "ticks": 63120,
          "time": 144.0820335,
          "velocity": 0.8818897637795275
        },
        {
          "duration": 0.5334823562500048,
          "durationTicks": 239,
          "midi": 63,
          "name": "D#4",
          "ticks": 63360,
          "time": 144.617748,
          "velocity": 0.8818897637795275
        },
        {
          "duration": 0.5334823562500048,
          "durationTicks": 239,
          "midi": 65,
          "name": "F4",
          "ticks": 63360,
          "time": 144.617748,
          "velocity": 0.8818897637795275
        },
        {
          "duration": 0.5334823562500048,
          "durationTicks": 239,
          "midi": 70,
          "name": "A#4",
          "ticks": 63360,
          "time": 144.617748,
          "velocity": 0.8818897637795275
        },
        {
          "duration": 0.5334823562500048,
          "durationTicks": 239,
          "midi": 75,
          "name": "D#5",
          "ticks": 63360,
          "time": 144.617748,
          "velocity": 0.8818897637795275
        },
        {
          "duration": 0.26562510625001323,
          "durationTicks": 119,
          "midi": 70,
          "name": "A#4",
          "ticks": 63600,
          "time": 145.1534625,
          "velocity": 0.8818897637795275
        },
        {
          "duration": 0.26562510625001323,
          "durationTicks": 119,
          "midi": 82,
          "name": "A#5",
          "ticks": 63600,
          "time": 145.1534625,
          "velocity": 0.8818897637795275
        },
        {
          "duration": 0.2656251062499848,
          "durationTicks": 119,
          "midi": 69,
          "name": "A4",
          "ticks": 63720,
          "time": 145.42131975,
          "velocity": 0.8818897637795275
        },
        {
          "duration": 0.2656251062499848,
          "durationTicks": 119,
          "midi": 81,
          "name": "A5",
          "ticks": 63720,
          "time": 145.42131975,
          "velocity": 0.8818897637795275
        },
        {
          "duration": 0.2656251062499848,
          "durationTicks": 119,
          "midi": 69,
          "name": "A4",
          "ticks": 63840,
          "time": 145.689177,
          "velocity": 0.8818897637795275
        },
        {
          "duration": 0.2656251062499848,
          "durationTicks": 119,
          "midi": 74,
          "name": "D5",
          "ticks": 63840,
          "time": 145.689177,
          "velocity": 0.8818897637795275
        },
        {
          "duration": 0.2656251062499848,
          "durationTicks": 119,
          "midi": 77,
          "name": "F5",
          "ticks": 63840,
          "time": 145.689177,
          "velocity": 0.8818897637795275
        },
        {
          "duration": 0.2656251062499848,
          "durationTicks": 119,
          "midi": 81,
          "name": "A5",
          "ticks": 63840,
          "time": 145.689177,
          "velocity": 0.8818897637795275
        },
        {
          "duration": 0.8013396062499965,
          "durationTicks": 359,
          "midi": 70,
          "name": "A#4",
          "ticks": 63960,
          "time": 145.95703425,
          "velocity": 0.8818897637795275
        },
        {
          "duration": 0.8013396062499965,
          "durationTicks": 359,
          "midi": 82,
          "name": "A#5",
          "ticks": 63960,
          "time": 145.95703425,
          "velocity": 0.8818897637795275
        },
        {
          "duration": 0.5334823562500048,
          "durationTicks": 239,
          "midi": 65,
          "name": "F4",
          "ticks": 64320,
          "time": 146.760606,
          "velocity": 0.8818897637795275
        },
        {
          "duration": 0.5334823562500048,
          "durationTicks": 239,
          "midi": 77,
          "name": "F5",
          "ticks": 64320,
          "time": 146.760606,
          "velocity": 0.8818897637795275
        },
        {
          "duration": 0.5334823562500048,
          "durationTicks": 239,
          "midi": 70,
          "name": "A#4",
          "ticks": 64560,
          "time": 147.2963205,
          "velocity": 0.8818897637795275
        },
        {
          "duration": 1.6049113562499997,
          "durationTicks": 719,
          "midi": 70,
          "name": "A#4",
          "ticks": 64800,
          "time": 147.832035,
          "velocity": 0.8818897637795275
        },
        {
          "duration": 1.6049113562499997,
          "durationTicks": 719,
          "midi": 75,
          "name": "D#5",
          "ticks": 64800,
          "time": 147.832035,
          "velocity": 0.8818897637795275
        },
        {
          "duration": 1.6049113562499997,
          "durationTicks": 719,
          "midi": 80,
          "name": "G#5",
          "ticks": 64800,
          "time": 147.832035,
          "velocity": 0.8818897637795275
        },
        {
          "duration": 0.26562510625001323,
          "durationTicks": 119,
          "midi": 70,
          "name": "A#4",
          "ticks": 65520,
          "time": 149.4391785,
          "velocity": 0.8818897637795275
        },
        {
          "duration": 0.26562510625001323,
          "durationTicks": 119,
          "midi": 82,
          "name": "A#5",
          "ticks": 65520,
          "time": 149.4391785,
          "velocity": 0.8818897637795275
        },
        {
          "duration": 0.26562510625001323,
          "durationTicks": 119,
          "midi": 69,
          "name": "A4",
          "ticks": 65640,
          "time": 149.70703575,
          "velocity": 0.8818897637795275
        },
        {
          "duration": 0.26562510625001323,
          "durationTicks": 119,
          "midi": 81,
          "name": "A5",
          "ticks": 65640,
          "time": 149.70703575,
          "velocity": 0.8818897637795275
        },
        {
          "duration": 0.5334823562499764,
          "durationTicks": 239,
          "midi": 70,
          "name": "A#4",
          "ticks": 65760,
          "time": 149.974893,
          "velocity": 0.8818897637795275
        },
        {
          "duration": 0.5334823562499764,
          "durationTicks": 239,
          "midi": 74,
          "name": "D5",
          "ticks": 65760,
          "time": 149.974893,
          "velocity": 0.8818897637795275
        },
        {
          "duration": 0.5334823562499764,
          "durationTicks": 239,
          "midi": 77,
          "name": "F5",
          "ticks": 65760,
          "time": 149.974893,
          "velocity": 0.8818897637795275
        },
        {
          "duration": 0.5334823562499764,
          "durationTicks": 239,
          "midi": 82,
          "name": "A#5",
          "ticks": 65760,
          "time": 149.974893,
          "velocity": 0.8818897637795275
        },
        {
          "duration": 0.5334823562500048,
          "durationTicks": 239,
          "midi": 65,
          "name": "F4",
          "ticks": 66000,
          "time": 150.5106075,
          "velocity": 0.8818897637795275
        },
        {
          "duration": 0.5334823562500048,
          "durationTicks": 239,
          "midi": 77,
          "name": "F5",
          "ticks": 66000,
          "time": 150.5106075,
          "velocity": 0.8818897637795275
        },
        {
          "duration": 0.5334823562500048,
          "durationTicks": 239,
          "midi": 65,
          "name": "F4",
          "ticks": 66240,
          "time": 151.046322,
          "velocity": 0.8818897637795275
        },
        {
          "duration": 0.5334823562500048,
          "durationTicks": 239,
          "midi": 70,
          "name": "A#4",
          "ticks": 66240,
          "time": 151.046322,
          "velocity": 0.8818897637795275
        },
        {
          "duration": 0.5334823562500048,
          "durationTicks": 239,
          "midi": 72,
          "name": "C5",
          "ticks": 66240,
          "time": 151.046322,
          "velocity": 0.8818897637795275
        },
        {
          "duration": 0.5334823562500048,
          "durationTicks": 239,
          "midi": 75,
          "name": "D#5",
          "ticks": 66240,
          "time": 151.046322,
          "velocity": 0.8818897637795275
        },
        {
          "duration": 0.26562510625001323,
          "durationTicks": 119,
          "midi": 70,
          "name": "A#4",
          "ticks": 66480,
          "time": 151.5820365,
          "velocity": 0.8818897637795275
        },
        {
          "duration": 0.26562510625001323,
          "durationTicks": 119,
          "midi": 82,
          "name": "A#5",
          "ticks": 66480,
          "time": 151.5820365,
          "velocity": 0.8818897637795275
        },
        {
          "duration": 0.2656251062499848,
          "durationTicks": 119,
          "midi": 69,
          "name": "A4",
          "ticks": 66600,
          "time": 151.84989375,
          "velocity": 0.8818897637795275
        },
        {
          "duration": 0.2656251062499848,
          "durationTicks": 119,
          "midi": 81,
          "name": "A5",
          "ticks": 66600,
          "time": 151.84989375,
          "velocity": 0.8818897637795275
        },
        {
          "duration": 0.5334823562500048,
          "durationTicks": 239,
          "midi": 70,
          "name": "A#4",
          "ticks": 66720,
          "time": 152.117751,
          "velocity": 0.8818897637795275
        },
        {
          "duration": 0.5334823562500048,
          "durationTicks": 239,
          "midi": 74,
          "name": "D5",
          "ticks": 66720,
          "time": 152.117751,
          "velocity": 0.8818897637795275
        },
        {
          "duration": 0.5334823562500048,
          "durationTicks": 239,
          "midi": 77,
          "name": "F5",
          "ticks": 66720,
          "time": 152.117751,
          "velocity": 0.8818897637795275
        },
        {
          "duration": 0.5334823562500048,
          "durationTicks": 239,
          "midi": 82,
          "name": "A#5",
          "ticks": 66720,
          "time": 152.117751,
          "velocity": 0.8818897637795275
        },
        {
          "duration": 0.5334823562499764,
          "durationTicks": 239,
          "midi": 65,
          "name": "F4",
          "ticks": 66960,
          "time": 152.6534655,
          "velocity": 0.8818897637795275
        },
        {
          "duration": 0.5334823562499764,
          "durationTicks": 239,
          "midi": 77,
          "name": "F5",
          "ticks": 66960,
          "time": 152.6534655,
          "velocity": 0.8818897637795275
        },
        {
          "duration": 0.5334823562500048,
          "durationTicks": 239,
          "midi": 63,
          "name": "D#4",
          "ticks": 67200,
          "time": 153.18918,
          "velocity": 0.8818897637795275
        },
        {
          "duration": 0.5334823562500048,
          "durationTicks": 239,
          "midi": 65,
          "name": "F4",
          "ticks": 67200,
          "time": 153.18918,
          "velocity": 0.8818897637795275
        },
        {
          "duration": 0.5334823562500048,
          "durationTicks": 239,
          "midi": 70,
          "name": "A#4",
          "ticks": 67200,
          "time": 153.18918,
          "velocity": 0.8818897637795275
        },
        {
          "duration": 0.5334823562500048,
          "durationTicks": 239,
          "midi": 75,
          "name": "D#5",
          "ticks": 67200,
          "time": 153.18918,
          "velocity": 0.8818897637795275
        },
        {
          "duration": 0.2656251062499848,
          "durationTicks": 119,
          "midi": 70,
          "name": "A#4",
          "ticks": 67440,
          "time": 153.7248945,
          "velocity": 0.8818897637795275
        },
        {
          "duration": 0.2656251062499848,
          "durationTicks": 119,
          "midi": 82,
          "name": "A#5",
          "ticks": 67440,
          "time": 153.7248945,
          "velocity": 0.8818897637795275
        },
        {
          "duration": 0.26562510625001323,
          "durationTicks": 119,
          "midi": 69,
          "name": "A4",
          "ticks": 67560,
          "time": 153.99275175,
          "velocity": 0.8818897637795275
        },
        {
          "duration": 0.26562510625001323,
          "durationTicks": 119,
          "midi": 81,
          "name": "A5",
          "ticks": 67560,
          "time": 153.99275175,
          "velocity": 0.8818897637795275
        },
        {
          "duration": 0.26562510625001323,
          "durationTicks": 119,
          "midi": 69,
          "name": "A4",
          "ticks": 67680,
          "time": 154.260609,
          "velocity": 0.8818897637795275
        },
        {
          "duration": 0.26562510625001323,
          "durationTicks": 119,
          "midi": 74,
          "name": "D5",
          "ticks": 67680,
          "time": 154.260609,
          "velocity": 0.8818897637795275
        },
        {
          "duration": 0.26562510625001323,
          "durationTicks": 119,
          "midi": 77,
          "name": "F5",
          "ticks": 67680,
          "time": 154.260609,
          "velocity": 0.8818897637795275
        },
        {
          "duration": 0.26562510625001323,
          "durationTicks": 119,
          "midi": 81,
          "name": "A5",
          "ticks": 67680,
          "time": 154.260609,
          "velocity": 0.8818897637795275
        },
        {
          "duration": 0.8013396062499965,
          "durationTicks": 359,
          "midi": 70,
          "name": "A#4",
          "ticks": 67800,
          "time": 154.52846625,
          "velocity": 0.8818897637795275
        },
        {
          "duration": 0.8013396062499965,
          "durationTicks": 359,
          "midi": 82,
          "name": "A#5",
          "ticks": 67800,
          "time": 154.52846625,
          "velocity": 0.8818897637795275
        },
        {
          "duration": 0.5334823562500048,
          "durationTicks": 239,
          "midi": 65,
          "name": "F4",
          "ticks": 68160,
          "time": 155.33203799999998,
          "velocity": 0.8818897637795275
        },
        {
          "duration": 0.5334823562500048,
          "durationTicks": 239,
          "midi": 70,
          "name": "A#4",
          "ticks": 68160,
          "time": 155.33203799999998,
          "velocity": 0.8818897637795275
        },
        {
          "duration": 0.5334823562500048,
          "durationTicks": 239,
          "midi": 77,
          "name": "F5",
          "ticks": 68160,
          "time": 155.33203799999998,
          "velocity": 0.8818897637795275
        },
        {
          "duration": 0.5334823562500048,
          "durationTicks": 239,
          "midi": 70,
          "name": "A#4",
          "ticks": 68400,
          "time": 155.8677525,
          "velocity": 0.8818897637795275
        },
        {
          "duration": 1.069196856249988,
          "durationTicks": 479,
          "midi": 70,
          "name": "A#4",
          "ticks": 68640,
          "time": 156.403467,
          "velocity": 0.8818897637795275
        },
        {
          "duration": 1.069196856249988,
          "durationTicks": 479,
          "midi": 75,
          "name": "D#5",
          "ticks": 68640,
          "time": 156.403467,
          "velocity": 0.8818897637795275
        },
        {
          "duration": 1.069196856249988,
          "durationTicks": 479,
          "midi": 77,
          "name": "F5",
          "ticks": 68640,
          "time": 156.403467,
          "velocity": 0.8818897637795275
        },
        {
          "duration": 1.069196856249988,
          "durationTicks": 479,
          "midi": 82,
          "name": "A#5",
          "ticks": 68640,
          "time": 156.403467,
          "velocity": 0.8818897637795275
        },
        {
          "duration": 0.5334823562500048,
          "durationTicks": 239,
          "midi": 69,
          "name": "A4",
          "ticks": 69120,
          "time": 157.474896,
          "velocity": 0.8818897637795275
        },
        {
          "duration": 0.5334823562500048,
          "durationTicks": 239,
          "midi": 72,
          "name": "C5",
          "ticks": 69120,
          "time": 157.474896,
          "velocity": 0.8818897637795275
        },
        {
          "duration": 0.5334823562500048,
          "durationTicks": 239,
          "midi": 77,
          "name": "F5",
          "ticks": 69120,
          "time": 157.474896,
          "velocity": 0.8818897637795275
        },
        {
          "duration": 0.5334823562500048,
          "durationTicks": 239,
          "midi": 81,
          "name": "A5",
          "ticks": 69120,
          "time": 157.474896,
          "velocity": 0.8818897637795275
        },
        {
          "duration": 0.26562510625001323,
          "durationTicks": 119,
          "midi": 70,
          "name": "A#4",
          "ticks": 69360,
          "time": 158.01061049999998,
          "velocity": 0.8818897637795275
        },
        {
          "duration": 0.26562510625001323,
          "durationTicks": 119,
          "midi": 82,
          "name": "A#5",
          "ticks": 69360,
          "time": 158.01061049999998,
          "velocity": 0.8818897637795275
        },
        {
          "duration": 0.2656251062499848,
          "durationTicks": 119,
          "midi": 69,
          "name": "A4",
          "ticks": 69480,
          "time": 158.27846775,
          "velocity": 0.8818897637795275
        },
        {
          "duration": 0.2656251062499848,
          "durationTicks": 119,
          "midi": 81,
          "name": "A5",
          "ticks": 69480,
          "time": 158.27846775,
          "velocity": 0.8818897637795275
        },
        {
          "duration": 0.5334823562500048,
          "durationTicks": 239,
          "midi": 70,
          "name": "A#4",
          "ticks": 69600,
          "time": 158.546325,
          "velocity": 0.8818897637795275
        },
        {
          "duration": 0.5334823562500048,
          "durationTicks": 239,
          "midi": 74,
          "name": "D5",
          "ticks": 69600,
          "time": 158.546325,
          "velocity": 0.8818897637795275
        },
        {
          "duration": 0.5334823562500048,
          "durationTicks": 239,
          "midi": 77,
          "name": "F5",
          "ticks": 69600,
          "time": 158.546325,
          "velocity": 0.8818897637795275
        },
        {
          "duration": 0.5334823562500048,
          "durationTicks": 239,
          "midi": 82,
          "name": "A#5",
          "ticks": 69600,
          "time": 158.546325,
          "velocity": 0.8818897637795275
        },
        {
          "duration": 0.5334823562500048,
          "durationTicks": 239,
          "midi": 77,
          "name": "F5",
          "ticks": 69840,
          "time": 159.0820395,
          "velocity": 0.8818897637795275
        },
        {
          "duration": 0.5334823562500048,
          "durationTicks": 239,
          "midi": 67,
          "name": "G4",
          "ticks": 70080,
          "time": 159.617754,
          "velocity": 0.8818897637795275
        },
        {
          "duration": 0.5334823562500048,
          "durationTicks": 239,
          "midi": 72,
          "name": "C5",
          "ticks": 70080,
          "time": 159.617754,
          "velocity": 0.8818897637795275
        },
        {
          "duration": 0.5334823562500048,
          "durationTicks": 239,
          "midi": 75,
          "name": "D#5",
          "ticks": 70080,
          "time": 159.617754,
          "velocity": 0.8818897637795275
        },
        {
          "duration": 0.2656251062499848,
          "durationTicks": 119,
          "midi": 70,
          "name": "A#4",
          "ticks": 70320,
          "time": 160.1534685,
          "velocity": 0.8818897637795275
        },
        {
          "duration": 0.26562510625001323,
          "durationTicks": 119,
          "midi": 69,
          "name": "A4",
          "ticks": 70440,
          "time": 160.42132575,
          "velocity": 0.8818897637795275
        },
        {
          "duration": 0.5334823562500048,
          "durationTicks": 239,
          "midi": 62,
          "name": "D4",
          "ticks": 70560,
          "time": 160.68918299999999,
          "velocity": 0.8818897637795275
        },
        {
          "duration": 0.5334823562500048,
          "durationTicks": 239,
          "midi": 65,
          "name": "F4",
          "ticks": 70560,
          "time": 160.68918299999999,
          "velocity": 0.8818897637795275
        },
        {
          "duration": 0.5334823562500048,
          "durationTicks": 239,
          "midi": 70,
          "name": "A#4",
          "ticks": 70560,
          "time": 160.68918299999999,
          "velocity": 0.8818897637795275
        },
        {
          "duration": 0.5334823562500048,
          "durationTicks": 239,
          "midi": 65,
          "name": "F4",
          "ticks": 70800,
          "time": 161.2248975,
          "velocity": 0.8818897637795275
        },
        {
          "duration": 0.5334823562499764,
          "durationTicks": 239,
          "midi": 58,
          "name": "A#3",
          "ticks": 71040,
          "time": 161.760612,
          "velocity": 0.8818897637795275
        },
        {
          "duration": 0.5334823562499764,
          "durationTicks": 239,
          "midi": 63,
          "name": "D#4",
          "ticks": 71040,
          "time": 161.760612,
          "velocity": 0.8818897637795275
        },
        {
          "duration": 0.26562510625001323,
          "durationTicks": 119,
          "midi": 70,
          "name": "A#4",
          "ticks": 71280,
          "time": 162.2963265,
          "velocity": 0.8818897637795275
        },
        {
          "duration": 0.26562510625001323,
          "durationTicks": 119,
          "midi": 69,
          "name": "A4",
          "ticks": 71400,
          "time": 162.56418374999998,
          "velocity": 0.8818897637795275
        },
        {
          "duration": 0.2656251062499848,
          "durationTicks": 119,
          "midi": 62,
          "name": "D4",
          "ticks": 71520,
          "time": 162.832041,
          "velocity": 0.8818897637795275
        },
        {
          "duration": 0.2656251062499848,
          "durationTicks": 119,
          "midi": 69,
          "name": "A4",
          "ticks": 71520,
          "time": 162.832041,
          "velocity": 0.8818897637795275
        },
        {
          "duration": 0.8013396062499965,
          "durationTicks": 359,
          "midi": 70,
          "name": "A#4",
          "ticks": 71640,
          "time": 163.09989825,
          "velocity": 0.8818897637795275
        },
        {
          "duration": 0.5334823562500048,
          "durationTicks": 239,
          "midi": 63,
          "name": "D#4",
          "ticks": 72000,
          "time": 163.90347,
          "velocity": 0.8818897637795275
        },
        {
          "duration": 0.5334823562500048,
          "durationTicks": 239,
          "midi": 75,
          "name": "D#5",
          "ticks": 72000,
          "time": 163.90347,
          "velocity": 0.8818897637795275
        },
        {
          "duration": 0.5334823562499764,
          "durationTicks": 239,
          "midi": 60,
          "name": "C4",
          "ticks": 72240,
          "time": 164.4391845,
          "velocity": 0.8818897637795275
        },
        {
          "duration": 0.5334823562499764,
          "durationTicks": 239,
          "midi": 72,
          "name": "C5",
          "ticks": 72240,
          "time": 164.4391845,
          "velocity": 0.8818897637795275
        },
        {
          "duration": 2.1406258562500113,
          "durationTicks": 959,
          "midi": 70,
          "name": "A#4",
          "ticks": 72480,
          "time": 164.974899,
          "velocity": 0.8818897637795275
        },
        {
          "duration": 2.1406258562500113,
          "durationTicks": 959,
          "midi": 75,
          "name": "D#5",
          "ticks": 72480,
          "time": 164.974899,
          "velocity": 0.8818897637795275
        },
        {
          "duration": 2.1406258562500113,
          "durationTicks": 959,
          "midi": 77,
          "name": "F5",
          "ticks": 72480,
          "time": 164.974899,
          "velocity": 0.8818897637795275
        },
        {
          "duration": 2.1406258562500113,
          "durationTicks": 959,
          "midi": 82,
          "name": "A#5",
          "ticks": 72480,
          "time": 164.974899,
          "velocity": 0.8818897637795275
        },
        {
          "duration": 2.1406258562500113,
          "durationTicks": 959,
          "midi": 69,
          "name": "A4",
          "ticks": 73440,
          "time": 167.11775699999998,
          "velocity": 0.8818897637795275
        },
        {
          "duration": 2.1406258562500113,
          "durationTicks": 959,
          "midi": 72,
          "name": "C5",
          "ticks": 73440,
          "time": 167.11775699999998,
          "velocity": 0.8818897637795275
        },
        {
          "duration": 2.1406258562500113,
          "durationTicks": 959,
          "midi": 77,
          "name": "F5",
          "ticks": 73440,
          "time": 167.11775699999998,
          "velocity": 0.8818897637795275
        },
        {
          "duration": 2.1406258562500113,
          "durationTicks": 959,
          "midi": 81,
          "name": "A5",
          "ticks": 73440,
          "time": 167.11775699999998,
          "velocity": 0.8818897637795275
        },
        {
          "duration": 4.525945508333336,
          "durationTicks": 1919,
          "midi": 74,
          "name": "D5",
          "ticks": 74400,
          "time": 169.260615,
          "velocity": 0.8818897637795275
        },
        {
          "duration": 4.525945508333336,
          "durationTicks": 1919,
          "midi": 78,
          "name": "F#5",
          "ticks": 74400,
          "time": 169.260615,
          "velocity": 0.8818897637795275
        },
        {
          "duration": 4.525945508333336,
          "durationTicks": 1919,
          "midi": 81,
          "name": "A5",
          "ticks": 74400,
          "time": 169.260615,
          "velocity": 0.8818897637795275
        },
        {
          "duration": 4.525945508333336,
          "durationTicks": 1919,
          "midi": 86,
          "name": "D6",
          "ticks": 74400,
          "time": 169.260615,
          "velocity": 0.8818897637795275
        },
        {
          "duration": 0.28066050833331246,
          "durationTicks": 119,
          "midi": 59,
          "name": "B3",
          "ticks": 76560,
          "time": 174.354957,
          "velocity": 0.5039370078740157
        },
        {
          "duration": 0.2806605083333409,
          "durationTicks": 119,
          "midi": 57,
          "name": "A3",
          "ticks": 76680,
          "time": 174.637976,
          "velocity": 0.5039370078740157
        },
        {
          "duration": 0.5636795083333368,
          "durationTicks": 239,
          "midi": 59,
          "name": "B3",
          "ticks": 76800,
          "time": 174.920995,
          "velocity": 0.5039370078740157
        },
        {
          "duration": 0.2806605083333409,
          "durationTicks": 119,
          "midi": 55,
          "name": "G3",
          "ticks": 77040,
          "time": 175.487033,
          "velocity": 0.5039370078740157
        },
        {
          "duration": 0.2806605083333409,
          "durationTicks": 119,
          "midi": 60,
          "name": "C4",
          "ticks": 77160,
          "time": 175.770052,
          "velocity": 0.5039370078740157
        },
        {
          "duration": 0.5636795083333368,
          "durationTicks": 239,
          "midi": 60,
          "name": "C4",
          "ticks": 77280,
          "time": 176.053071,
          "velocity": 0.5039370078740157
        },
        {
          "duration": 0.5636795083333368,
          "durationTicks": 239,
          "midi": 62,
          "name": "D4",
          "ticks": 77520,
          "time": 176.619109,
          "velocity": 0.5039370078740157
        },
        {
          "duration": 0.5636795083333368,
          "durationTicks": 239,
          "midi": 62,
          "name": "D4",
          "ticks": 77760,
          "time": 177.185147,
          "velocity": 0.5039370078740157
        },
        {
          "duration": 0.5636795083333368,
          "durationTicks": 239,
          "midi": 57,
          "name": "A3",
          "ticks": 78000,
          "time": 177.751185,
          "velocity": 0.5039370078740157
        },
        {
          "duration": 0.2806605083333409,
          "durationTicks": 119,
          "midi": 59,
          "name": "B3",
          "ticks": 78480,
          "time": 178.883261,
          "velocity": 0.5039370078740157
        },
        {
          "duration": 0.2806605083333409,
          "durationTicks": 119,
          "midi": 57,
          "name": "A3",
          "ticks": 78600,
          "time": 179.16628,
          "velocity": 0.5039370078740157
        },
        {
          "duration": 0.5636795083333368,
          "durationTicks": 239,
          "midi": 59,
          "name": "B3",
          "ticks": 78720,
          "time": 179.449299,
          "velocity": 0.5039370078740157
        },
        {
          "duration": 0.2806605083333409,
          "durationTicks": 119,
          "midi": 55,
          "name": "G3",
          "ticks": 78960,
          "time": 180.015337,
          "velocity": 0.5039370078740157
        },
        {
          "duration": 0.28066050833331246,
          "durationTicks": 119,
          "midi": 62,
          "name": "D4",
          "ticks": 79080,
          "time": 180.298356,
          "velocity": 0.5039370078740157
        },
        {
          "duration": 1.1297175083333286,
          "durationTicks": 479,
          "midi": 56,
          "name": "G#3",
          "ticks": 79200,
          "time": 180.581375,
          "velocity": 0.5039370078740157
        },
        {
          "duration": 0.5636795083333368,
          "durationTicks": 239,
          "midi": 63,
          "name": "D#4",
          "ticks": 79200,
          "time": 180.581375,
          "velocity": 0.5039370078740157
        },
        {
          "duration": 0.5636795083333368,
          "durationTicks": 239,
          "midi": 65,
          "name": "F4",
          "ticks": 79440,
          "time": 181.147413,
          "velocity": 0.5039370078740157
        },
        {
          "duration": 1.129717508333357,
          "durationTicks": 479,
          "midi": 57,
          "name": "A3",
          "ticks": 79680,
          "time": 181.713451,
          "velocity": 0.5039370078740157
        },
        {
          "duration": 1.129717508333357,
          "durationTicks": 479,
          "midi": 60,
          "name": "C4",
          "ticks": 79680,
          "time": 181.713451,
          "velocity": 0.5039370078740157
        },
        {
          "duration": 0.2806605083333409,
          "durationTicks": 119,
          "midi": 74,
          "name": "D5",
          "ticks": 80400,
          "time": 183.411565,
          "velocity": 0.5039370078740157
        },
        {
          "duration": 0.2806605083333409,
          "durationTicks": 119,
          "midi": 72,
          "name": "C5",
          "ticks": 80520,
          "time": 183.694584,
          "velocity": 0.5039370078740157
        },
        {
          "duration": 0.5636795083333368,
          "durationTicks": 239,
          "midi": 74,
          "name": "D5",
          "ticks": 80640,
          "time": 183.977603,
          "velocity": 0.5039370078740157
        },
        {
          "duration": 0.2806605083333409,
          "durationTicks": 119,
          "midi": 70,
          "name": "A#4",
          "ticks": 80880,
          "time": 184.543641,
          "velocity": 0.5039370078740157
        },
        {
          "duration": 0.2806605083333409,
          "durationTicks": 119,
          "midi": 77,
          "name": "F5",
          "ticks": 81000,
          "time": 184.82666,
          "velocity": 0.5039370078740157
        },
        {
          "duration": 0.5636795083333368,
          "durationTicks": 239,
          "midi": 77,
          "name": "F5",
          "ticks": 81120,
          "time": 185.109679,
          "velocity": 0.5039370078740157
        },
        {
          "duration": 0.5636795083333368,
          "durationTicks": 239,
          "midi": 74,
          "name": "D5",
          "ticks": 81360,
          "time": 185.675717,
          "velocity": 0.5039370078740157
        },
        {
          "duration": 0.5636795083333368,
          "durationTicks": 239,
          "midi": 81,
          "name": "A5",
          "ticks": 81600,
          "time": 186.241755,
          "velocity": 0.5039370078740157
        },
        {
          "duration": 0.5636795083333368,
          "durationTicks": 239,
          "midi": 69,
          "name": "A4",
          "ticks": 81840,
          "time": 186.807793,
          "velocity": 0.5039370078740157
        },
        {
          "duration": 1.6957555083333489,
          "durationTicks": 719,
          "midi": 67,
          "name": "G4",
          "ticks": 82080,
          "time": 187.373831,
          "velocity": 0.5039370078740157
        },
        {
          "duration": 1.629717741666667,
          "durationTicks": 691,
          "midi": 70,
          "name": "A#4",
          "ticks": 82107,
          "time": 187.437510275,
          "velocity": 0.5039370078740157
        },
        {
          "duration": 0.2806605083333409,
          "durationTicks": 119,
          "midi": 82,
          "name": "A#5",
          "ticks": 82320,
          "time": 187.939869,
          "velocity": 0.5039370078740157
        },
        {
          "duration": 0.28066050833331246,
          "durationTicks": 119,
          "midi": 81,
          "name": "A5",
          "ticks": 82440,
          "time": 188.222888,
          "velocity": 0.5039370078740157
        },
        {
          "duration": 0.5636795083333368,
          "durationTicks": 239,
          "midi": 82,
          "name": "A#5",
          "ticks": 82560,
          "time": 188.505907,
          "velocity": 0.5039370078740157
        },
        {
          "duration": 0.2806605083333409,
          "durationTicks": 119,
          "midi": 70,
          "name": "A#4",
          "ticks": 82800,
          "time": 189.071945,
          "velocity": 0.5039370078740157
        },
        {
          "duration": 0.2806605083333409,
          "durationTicks": 119,
          "midi": 75,
          "name": "D#5",
          "ticks": 82920,
          "time": 189.354964,
          "velocity": 0.5039370078740157
        },
        {
          "duration": 1.129717508333357,
          "durationTicks": 479,
          "midi": 67,
          "name": "G4",
          "ticks": 83040,
          "time": 189.637983,
          "velocity": 0.5039370078740157
        },
        {
          "duration": 1.129717508333357,
          "durationTicks": 479,
          "midi": 70,
          "name": "A#4",
          "ticks": 83040,
          "time": 189.637983,
          "velocity": 0.5039370078740157
        },
        {
          "duration": 0.5636795083333368,
          "durationTicks": 239,
          "midi": 75,
          "name": "D#5",
          "ticks": 83040,
          "time": 189.637983,
          "velocity": 0.5039370078740157
        },
        {
          "duration": 0.5636795083333368,
          "durationTicks": 239,
          "midi": 77,
          "name": "F5",
          "ticks": 83280,
          "time": 190.204021,
          "velocity": 0.5039370078740157
        },
        {
          "duration": 1.1297175083333286,
          "durationTicks": 479,
          "midi": 69,
          "name": "A4",
          "ticks": 83520,
          "time": 190.770059,
          "velocity": 0.5039370078740157
        },
        {
          "duration": 1.1297175083333286,
          "durationTicks": 479,
          "midi": 72,
          "name": "C5",
          "ticks": 83520,
          "time": 190.770059,
          "velocity": 0.5039370078740157
        },
        {
          "duration": 1.6957555083333489,
          "durationTicks": 719,
          "midi": 74,
          "name": "D5",
          "ticks": 84000,
          "time": 191.902135,
          "velocity": 0.5039370078740157
        },
        {
          "duration": 0.2806605083333409,
          "durationTicks": 119,
          "midi": 74,
          "name": "D5",
          "ticks": 84720,
          "time": 193.600249,
          "velocity": 0.5039370078740157
        },
        {
          "duration": 0.28066050833331246,
          "durationTicks": 119,
          "midi": 73,
          "name": "C#5",
          "ticks": 84840,
          "time": 193.88326800000002,
          "velocity": 0.5039370078740157
        },
        {
          "duration": 1.6957555083333204,
          "durationTicks": 719,
          "midi": 74,
          "name": "D5",
          "ticks": 84960,
          "time": 194.166287,
          "velocity": 0.5039370078740157
        },
        {
          "duration": 0.28066050833331246,
          "durationTicks": 119,
          "midi": 74,
          "name": "D5",
          "ticks": 85680,
          "time": 195.86440100000002,
          "velocity": 0.5039370078740157
        },
        {
          "duration": 0.28066050833331246,
          "durationTicks": 119,
          "midi": 73,
          "name": "C#5",
          "ticks": 85800,
          "time": 196.14742,
          "velocity": 0.5039370078740157
        },
        {
          "duration": 0.8466985083333327,
          "durationTicks": 359,
          "midi": 74,
          "name": "D5",
          "ticks": 85920,
          "time": 196.430439,
          "velocity": 0.5039370078740157
        },
        {
          "duration": 0.2806605083333409,
          "durationTicks": 119,
          "midi": 76,
          "name": "E5",
          "ticks": 86280,
          "time": 197.279496,
          "velocity": 0.5039370078740157
        },
        {
          "duration": 0.8466985083333043,
          "durationTicks": 359,
          "midi": 76,
          "name": "E5",
          "ticks": 86400,
          "time": 197.56251500000002,
          "velocity": 0.5039370078740157
        },
        {
          "duration": 0.2806605083333409,
          "durationTicks": 119,
          "midi": 79,
          "name": "G5",
          "ticks": 86760,
          "time": 198.411572,
          "velocity": 0.5039370078740157
        },
        {
          "duration": 1.6957555083333204,
          "durationTicks": 719,
          "midi": 79,
          "name": "G5",
          "ticks": 86880,
          "time": 198.694591,
          "velocity": 0.5039370078740157
        },
        {
          "duration": 0.2806605083333409,
          "durationTicks": 119,
          "midi": 78,
          "name": "F#5",
          "ticks": 87600,
          "time": 200.392705,
          "velocity": 0.5039370078740157
        },
        {
          "duration": 0.2806605083333409,
          "durationTicks": 119,
          "midi": 74,
          "name": "D5",
          "ticks": 87720,
          "time": 200.675724,
          "velocity": 0.5039370078740157
        },
        {
          "duration": 0.8466985083333327,
          "durationTicks": 359,
          "midi": 76,
          "name": "E5",
          "ticks": 87840,
          "time": 200.958743,
          "velocity": 0.5039370078740157
        },
        {
          "duration": 0.2806605083333409,
          "durationTicks": 119,
          "midi": 73,
          "name": "C#5",
          "ticks": 88200,
          "time": 201.8078,
          "velocity": 0.5039370078740157
        },
        {
          "duration": 0.5636795083333368,
          "durationTicks": 239,
          "midi": 69,
          "name": "A4",
          "ticks": 88320,
          "time": 202.090819,
          "velocity": 0.5039370078740157
        },
        {
          "duration": 0.2806605083333409,
          "durationTicks": 119,
          "midi": 78,
          "name": "F#5",
          "ticks": 88560,
          "time": 202.656857,
          "velocity": 0.5039370078740157
        },
        {
          "duration": 0.2806605083333409,
          "durationTicks": 119,
          "midi": 74,
          "name": "D5",
          "ticks": 88680,
          "time": 202.939876,
          "velocity": 0.5039370078740157
        },
        {
          "duration": 1.6957555083333489,
          "durationTicks": 719,
          "midi": 76,
          "name": "E5",
          "ticks": 88800,
          "time": 203.222895,
          "velocity": 0.5039370078740157
        },
        {
          "duration": 0.2806605083333409,
          "durationTicks": 119,
          "midi": 81,
          "name": "A5",
          "ticks": 89520,
          "time": 204.921009,
          "velocity": 0.5039370078740157
        },
        {
          "duration": 0.2806605083333409,
          "durationTicks": 119,
          "midi": 74,
          "name": "D5",
          "ticks": 89640,
          "time": 205.204028,
          "velocity": 0.5039370078740157
        },
        {
          "duration": 0.8466985083333043,
          "durationTicks": 359,
          "midi": 79,
          "name": "G5",
          "ticks": 89760,
          "time": 205.48704700000002,
          "velocity": 0.5039370078740157
        },
        {
          "duration": 0.2806605083333409,
          "durationTicks": 119,
          "midi": 78,
          "name": "F#5",
          "ticks": 90120,
          "time": 206.336104,
          "velocity": 0.5039370078740157
        },
        {
          "duration": 0.8466985083333327,
          "durationTicks": 359,
          "midi": 78,
          "name": "F#5",
          "ticks": 90240,
          "time": 206.619123,
          "velocity": 0.5039370078740157
        },
        {
          "duration": 0.28066050833331246,
          "durationTicks": 119,
          "midi": 76,
          "name": "E5",
          "ticks": 90600,
          "time": 207.46818000000002,
          "velocity": 0.5039370078740157
        },
        {
          "duration": 1.6957555083333204,
          "durationTicks": 719,
          "midi": 76,
          "name": "E5",
          "ticks": 90720,
          "time": 207.751199,
          "velocity": 0.5039370078740157
        },
        {
          "duration": 0.28066050833331246,
          "durationTicks": 119,
          "midi": 74,
          "name": "D5",
          "ticks": 91440,
          "time": 209.44931300000002,
          "velocity": 0.5039370078740157
        },
        {
          "duration": 0.28066050833331246,
          "durationTicks": 119,
          "midi": 86,
          "name": "D6",
          "ticks": 91440,
          "time": 209.44931300000002,
          "velocity": 0.5039370078740157
        },
        {
          "duration": 0.2806605083333409,
          "durationTicks": 119,
          "midi": 73,
          "name": "C#5",
          "ticks": 91560,
          "time": 209.732332,
          "velocity": 0.5039370078740157
        },
        {
          "duration": 0.2806605083333409,
          "durationTicks": 119,
          "midi": 85,
          "name": "C#6",
          "ticks": 91560,
          "time": 209.732332,
          "velocity": 0.5039370078740157
        },
        {
          "duration": 0.5636795083333368,
          "durationTicks": 239,
          "midi": 86,
          "name": "D6",
          "ticks": 91680,
          "time": 210.015351,
          "velocity": 0.5039370078740157
        },
        {
          "duration": 4.525945508333336,
          "durationTicks": 1919,
          "midi": 74,
          "name": "D5",
          "ticks": 91680,
          "time": 210.015351,
          "velocity": 0.5039370078740157
        },
        {
          "duration": 0.5636795083333368,
          "durationTicks": 239,
          "midi": 81,
          "name": "A5",
          "ticks": 91920,
          "time": 210.581389,
          "velocity": 0.5039370078740157
        },
        {
          "duration": 0.5636795083333368,
          "durationTicks": 239,
          "midi": 79,
          "name": "G5",
          "ticks": 92160,
          "time": 211.147427,
          "velocity": 0.5039370078740157
        },
        {
          "duration": 0.2806605083333409,
          "durationTicks": 119,
          "midi": 86,
          "name": "D6",
          "ticks": 92400,
          "time": 211.713465,
          "velocity": 0.5039370078740157
        },
        {
          "duration": 0.2806605083333409,
          "durationTicks": 119,
          "midi": 85,
          "name": "C#6",
          "ticks": 92520,
          "time": 211.996484,
          "velocity": 0.5039370078740157
        },
        {
          "duration": 0.5636795083333368,
          "durationTicks": 239,
          "midi": 86,
          "name": "D6",
          "ticks": 92640,
          "time": 212.279503,
          "velocity": 0.5039370078740157
        },
        {
          "duration": 0.5636795083333368,
          "durationTicks": 239,
          "midi": 81,
          "name": "A5",
          "ticks": 92880,
          "time": 212.845541,
          "velocity": 0.5039370078740157
        },
        {
          "duration": 0.5636795083333368,
          "durationTicks": 239,
          "midi": 79,
          "name": "G5",
          "ticks": 93120,
          "time": 213.41157900000002,
          "velocity": 0.5039370078740157
        },
        {
          "duration": 0.2806605083333409,
          "durationTicks": 119,
          "midi": 86,
          "name": "D6",
          "ticks": 93360,
          "time": 213.977617,
          "velocity": 0.5039370078740157
        },
        {
          "duration": 0.2806605083333409,
          "durationTicks": 119,
          "midi": 85,
          "name": "C#6",
          "ticks": 93480,
          "time": 214.260636,
          "velocity": 0.5039370078740157
        },
        {
          "duration": 0.2806605083333409,
          "durationTicks": 119,
          "midi": 85,
          "name": "C#6",
          "ticks": 93600,
          "time": 214.543655,
          "velocity": 0.5039370078740157
        },
        {
          "duration": 0.8466985083333327,
          "durationTicks": 359,
          "midi": 86,
          "name": "D6",
          "ticks": 93720,
          "time": 214.826674,
          "velocity": 0.5039370078740157
        },
        {
          "duration": 0.5636795083333368,
          "durationTicks": 239,
          "midi": 81,
          "name": "A5",
          "ticks": 94080,
          "time": 215.675731,
          "velocity": 0.5039370078740157
        },
        {
          "duration": 0.5636795083333368,
          "durationTicks": 239,
          "midi": 74,
          "name": "D5",
          "ticks": 94320,
          "time": 216.241769,
          "velocity": 0.5039370078740157
        },
        {
          "duration": 1.6957555083333489,
          "durationTicks": 719,
          "midi": 84,
          "name": "C6",
          "ticks": 94560,
          "time": 216.807807,
          "velocity": 0.5039370078740157
        },
        {
          "duration": 0.2806605083333409,
          "durationTicks": 119,
          "midi": 86,
          "name": "D6",
          "ticks": 95280,
          "time": 218.505921,
          "velocity": 0.5039370078740157
        },
        {
          "duration": 0.2806605083333409,
          "durationTicks": 119,
          "midi": 85,
          "name": "C#6",
          "ticks": 95400,
          "time": 218.78894,
          "velocity": 0.5039370078740157
        },
        {
          "duration": 0.5636795083333368,
          "durationTicks": 239,
          "midi": 86,
          "name": "D6",
          "ticks": 95520,
          "time": 219.071959,
          "velocity": 0.5039370078740157
        },
        {
          "duration": 0.5636795083333368,
          "durationTicks": 239,
          "midi": 81,
          "name": "A5",
          "ticks": 95760,
          "time": 219.637997,
          "velocity": 0.5039370078740157
        },
        {
          "duration": 0.5636795083333368,
          "durationTicks": 239,
          "midi": 79,
          "name": "G5",
          "ticks": 96000,
          "time": 220.204035,
          "velocity": 0.5039370078740157
        },
        {
          "duration": 0.2806605083333409,
          "durationTicks": 119,
          "midi": 86,
          "name": "D6",
          "ticks": 96240,
          "time": 220.770073,
          "velocity": 0.5039370078740157
        },
        {
          "duration": 0.2806605083333409,
          "durationTicks": 119,
          "midi": 85,
          "name": "C#6",
          "ticks": 96360,
          "time": 221.053092,
          "velocity": 0.5039370078740157
        },
        {
          "duration": 0.5636795083333368,
          "durationTicks": 239,
          "midi": 86,
          "name": "D6",
          "ticks": 96480,
          "time": 221.33611100000002,
          "velocity": 0.5039370078740157
        },
        {
          "duration": 0.5636795083333368,
          "durationTicks": 239,
          "midi": 81,
          "name": "A5",
          "ticks": 96720,
          "time": 221.902149,
          "velocity": 0.5039370078740157
        },
        {
          "duration": 0.5636795083333368,
          "durationTicks": 239,
          "midi": 79,
          "name": "G5",
          "ticks": 96960,
          "time": 222.468187,
          "velocity": 0.5039370078740157
        },
        {
          "duration": 0.2806605083333409,
          "durationTicks": 119,
          "midi": 86,
          "name": "D6",
          "ticks": 97200,
          "time": 223.034225,
          "velocity": 0.5039370078740157
        },
        {
          "duration": 0.28066050833331246,
          "durationTicks": 119,
          "midi": 85,
          "name": "C#6",
          "ticks": 97320,
          "time": 223.31724400000002,
          "velocity": 0.5039370078740157
        },
        {
          "duration": 0.2806605083333409,
          "durationTicks": 119,
          "midi": 85,
          "name": "C#6",
          "ticks": 97440,
          "time": 223.600263,
          "velocity": 0.5039370078740157
        },
        {
          "duration": 0.8466985083333327,
          "durationTicks": 359,
          "midi": 86,
          "name": "D6",
          "ticks": 97560,
          "time": 223.883282,
          "velocity": 0.5039370078740157
        },
        {
          "duration": 0.5636795083333368,
          "durationTicks": 239,
          "midi": 81,
          "name": "A5",
          "ticks": 97920,
          "time": 224.732339,
          "velocity": 0.5039370078740157
        },
        {
          "duration": 0.5636795083333368,
          "durationTicks": 239,
          "midi": 74,
          "name": "D5",
          "ticks": 98160,
          "time": 225.29837700000002,
          "velocity": 0.5039370078740157
        },
        {
          "duration": 1.1297175083333286,
          "durationTicks": 479,
          "midi": 74,
          "name": "D5",
          "ticks": 98400,
          "time": 225.864415,
          "velocity": 0.5039370078740157
        },
        {
          "duration": 1.0636797416666752,
          "durationTicks": 451,
          "midi": 79,
          "name": "G5",
          "ticks": 98427,
          "time": 225.928094275,
          "velocity": 0.5039370078740157
        },
        {
          "duration": 0.9952834833333384,
          "durationTicks": 422,
          "midi": 86,
          "name": "D6",
          "ticks": 98456,
          "time": 225.99649053333334,
          "velocity": 0.5039370078740157
        },
        {
          "duration": 1.129717508333357,
          "durationTicks": 479,
          "midi": 73,
          "name": "C#5",
          "ticks": 98880,
          "time": 226.996491,
          "velocity": 0.5039370078740157
        },
        {
          "duration": 1.0636797416666468,
          "durationTicks": 451,
          "midi": 76,
          "name": "E5",
          "ticks": 98907,
          "time": 227.06017027500002,
          "velocity": 0.5039370078740157
        },
        {
          "duration": 0.99528348333331,
          "durationTicks": 422,
          "midi": 81,
          "name": "A5",
          "ticks": 98936,
          "time": 227.12856653333336,
          "velocity": 0.5039370078740157
        },
        {
          "duration": 0.9292457166666566,
          "durationTicks": 394,
          "midi": 85,
          "name": "C#6",
          "ticks": 98964,
          "time": 227.1946043,
          "velocity": 0.5039370078740157
        },
        {
          "duration": 9.054249508333356,
          "durationTicks": 3839,
          "midi": 78,
          "name": "F#5",
          "ticks": 99360,
          "time": 228.128567,
          "velocity": 0.5039370078740157
        },
        {
          "duration": 9.054249508333356,
          "durationTicks": 3839,
          "midi": 86,
          "name": "D6",
          "ticks": 99360,
          "time": 228.128567,
          "velocity": 0.5039370078740157
        },
        {
          "duration": 0.5636795083333368,
          "durationTicks": 239,
          "midi": 66,
          "name": "F#4",
          "ticks": 100800,
          "time": 231.524795,
          "velocity": 0.5039370078740157
        },
        {
          "duration": 0.5636795083333368,
          "durationTicks": 239,
          "midi": 69,
          "name": "A4",
          "ticks": 101040,
          "time": 232.090833,
          "velocity": 0.5039370078740157
        },
        {
          "duration": 4.525945508333336,
          "durationTicks": 1919,
          "midi": 74,
          "name": "D5",
          "ticks": 101280,
          "time": 232.65687100000002,
          "velocity": 0.5039370078740157
        },
        {
          "duration": 1.1095682895833363,
          "durationTicks": 719,
          "midi": 50,
          "name": "D3",
          "ticks": 103200,
          "time": 237.18517500000002,
          "velocity": 0.905511811023622
        },
        {
          "duration": 1.1095682895833363,
          "durationTicks": 719,
          "midi": 53,
          "name": "F3",
          "ticks": 103200,
          "time": 237.18517500000002,
          "velocity": 0.905511811023622
        },
        {
          "duration": 1.1095682895833363,
          "durationTicks": 719,
          "midi": 58,
          "name": "A#3",
          "ticks": 103200,
          "time": 237.18517500000002,
          "velocity": 0.905511811023622
        },
        {
          "duration": 0.18364203958333292,
          "durationTicks": 119,
          "midi": 50,
          "name": "D3",
          "ticks": 103920,
          "time": 238.2962865,
          "velocity": 0.7559055118110236
        },
        {
          "duration": 0.18364203958333292,
          "durationTicks": 119,
          "midi": 53,
          "name": "F3",
          "ticks": 103920,
          "time": 238.2962865,
          "velocity": 0.7559055118110236
        },
        {
          "duration": 0.18364203958333292,
          "durationTicks": 119,
          "midi": 58,
          "name": "A#3",
          "ticks": 103920,
          "time": 238.2962865,
          "velocity": 0.7559055118110236
        },
        {
          "duration": 0.18364203958333292,
          "durationTicks": 119,
          "midi": 50,
          "name": "D3",
          "ticks": 104040,
          "time": 238.48147175000003,
          "velocity": 0.7559055118110236
        },
        {
          "duration": 0.18364203958333292,
          "durationTicks": 119,
          "midi": 53,
          "name": "F3",
          "ticks": 104040,
          "time": 238.48147175000003,
          "velocity": 0.7559055118110236
        },
        {
          "duration": 0.18364203958333292,
          "durationTicks": 119,
          "midi": 58,
          "name": "A#3",
          "ticks": 104040,
          "time": 238.48147175000003,
          "velocity": 0.7559055118110236
        },
        {
          "duration": 1.1095682895833363,
          "durationTicks": 719,
          "midi": 50,
          "name": "D3",
          "ticks": 104160,
          "time": 238.66665700000001,
          "velocity": 0.7559055118110236
        },
        {
          "duration": 1.1095682895833363,
          "durationTicks": 719,
          "midi": 53,
          "name": "F3",
          "ticks": 104160,
          "time": 238.66665700000001,
          "velocity": 0.7559055118110236
        },
        {
          "duration": 1.1095682895833363,
          "durationTicks": 719,
          "midi": 58,
          "name": "A#3",
          "ticks": 104160,
          "time": 238.66665700000001,
          "velocity": 0.7559055118110236
        },
        {
          "duration": 0.18364203958333292,
          "durationTicks": 119,
          "midi": 50,
          "name": "D3",
          "ticks": 104880,
          "time": 239.7777685,
          "velocity": 0.7559055118110236
        },
        {
          "duration": 0.18364203958333292,
          "durationTicks": 119,
          "midi": 53,
          "name": "F3",
          "ticks": 104880,
          "time": 239.7777685,
          "velocity": 0.7559055118110236
        },
        {
          "duration": 0.18364203958333292,
          "durationTicks": 119,
          "midi": 58,
          "name": "A#3",
          "ticks": 104880,
          "time": 239.7777685,
          "velocity": 0.7559055118110236
        },
        {
          "duration": 1.1095682895833363,
          "durationTicks": 719,
          "midi": 50,
          "name": "D3",
          "ticks": 105120,
          "time": 240.14813900000001,
          "velocity": 0.905511811023622
        },
        {
          "duration": 1.1095682895833363,
          "durationTicks": 719,
          "midi": 53,
          "name": "F3",
          "ticks": 105120,
          "time": 240.14813900000001,
          "velocity": 0.905511811023622
        },
        {
          "duration": 1.1095682895833363,
          "durationTicks": 719,
          "midi": 58,
          "name": "A#3",
          "ticks": 105120,
          "time": 240.14813900000001,
          "velocity": 0.905511811023622
        },
        {
          "duration": 0.18364203958333292,
          "durationTicks": 119,
          "midi": 50,
          "name": "D3",
          "ticks": 105840,
          "time": 241.2592505,
          "velocity": 0.7559055118110236
        },
        {
          "duration": 0.18364203958333292,
          "durationTicks": 119,
          "midi": 53,
          "name": "F3",
          "ticks": 105840,
          "time": 241.2592505,
          "velocity": 0.7559055118110236
        },
        {
          "duration": 0.18364203958333292,
          "durationTicks": 119,
          "midi": 58,
          "name": "A#3",
          "ticks": 105840,
          "time": 241.2592505,
          "velocity": 0.7559055118110236
        },
        {
          "duration": 0.18364203958333292,
          "durationTicks": 119,
          "midi": 50,
          "name": "D3",
          "ticks": 105960,
          "time": 241.44443575000003,
          "velocity": 0.7559055118110236
        },
        {
          "duration": 0.18364203958333292,
          "durationTicks": 119,
          "midi": 53,
          "name": "F3",
          "ticks": 105960,
          "time": 241.44443575000003,
          "velocity": 0.7559055118110236
        },
        {
          "duration": 0.18364203958333292,
          "durationTicks": 119,
          "midi": 58,
          "name": "A#3",
          "ticks": 105960,
          "time": 241.44443575000003,
          "velocity": 0.7559055118110236
        },
        {
          "duration": 1.1095682895833363,
          "durationTicks": 719,
          "midi": 50,
          "name": "D3",
          "ticks": 106080,
          "time": 241.62962100000001,
          "velocity": 0.7559055118110236
        },
        {
          "duration": 1.1095682895833363,
          "durationTicks": 719,
          "midi": 53,
          "name": "F3",
          "ticks": 106080,
          "time": 241.62962100000001,
          "velocity": 0.7559055118110236
        },
        {
          "duration": 1.1095682895833363,
          "durationTicks": 719,
          "midi": 58,
          "name": "A#3",
          "ticks": 106080,
          "time": 241.62962100000001,
          "velocity": 0.7559055118110236
        },
        {
          "duration": 0.18364203958333292,
          "durationTicks": 119,
          "midi": 50,
          "name": "D3",
          "ticks": 106800,
          "time": 242.7407325,
          "velocity": 0.7559055118110236
        },
        {
          "duration": 0.18364203958333292,
          "durationTicks": 119,
          "midi": 53,
          "name": "F3",
          "ticks": 106800,
          "time": 242.7407325,
          "velocity": 0.7559055118110236
        },
        {
          "duration": 0.18364203958333292,
          "durationTicks": 119,
          "midi": 58,
          "name": "A#3",
          "ticks": 106800,
          "time": 242.7407325,
          "velocity": 0.7559055118110236
        },
        {
          "duration": 0.3688272895833222,
          "durationTicks": 239,
          "midi": 50,
          "name": "D3",
          "ticks": 107040,
          "time": 243.111103,
          "velocity": 0.7559055118110236
        },
        {
          "duration": 0.3688272895833222,
          "durationTicks": 239,
          "midi": 53,
          "name": "F3",
          "ticks": 107040,
          "time": 243.111103,
          "velocity": 0.7559055118110236
        },
        {
          "duration": 0.3688272895833222,
          "durationTicks": 239,
          "midi": 58,
          "name": "A#3",
          "ticks": 107040,
          "time": 243.111103,
          "velocity": 0.7559055118110236
        },
        {
          "duration": 0.18364203958333292,
          "durationTicks": 119,
          "midi": 70,
          "name": "A#4",
          "ticks": 107280,
          "time": 243.48147350000002,
          "velocity": 0.7559055118110236
        },
        {
          "duration": 0.7391977895833293,
          "durationTicks": 479,
          "midi": 65,
          "name": "F4",
          "ticks": 107520,
          "time": 243.85184400000003,
          "velocity": 0.7559055118110236
        },
        {
          "duration": 0.7391977895833293,
          "durationTicks": 479,
          "midi": 70,
          "name": "A#4",
          "ticks": 107520,
          "time": 243.85184400000003,
          "velocity": 0.7559055118110236
        },
        {
          "duration": 0.7391977895833293,
          "durationTicks": 479,
          "midi": 74,
          "name": "D5",
          "ticks": 107520,
          "time": 243.85184400000003,
          "velocity": 0.7559055118110236
        },
        {
          "duration": 0.7391977895833293,
          "durationTicks": 479,
          "midi": 77,
          "name": "F5",
          "ticks": 107520,
          "time": 243.85184400000003,
          "velocity": 0.7559055118110236
        },
        {
          "duration": 0.18364203958333292,
          "durationTicks": 119,
          "midi": 72,
          "name": "C5",
          "ticks": 108000,
          "time": 244.592585,
          "velocity": 0.7559055118110236
        },
        {
          "duration": 0.7391977895833293,
          "durationTicks": 479,
          "midi": 67,
          "name": "G4",
          "ticks": 108240,
          "time": 244.96295550000002,
          "velocity": 0.7559055118110236
        },
        {
          "duration": 0.7391977895833293,
          "durationTicks": 479,
          "midi": 72,
          "name": "C5",
          "ticks": 108240,
          "time": 244.96295550000002,
          "velocity": 0.7559055118110236
        },
        {
          "duration": 0.7391977895833293,
          "durationTicks": 479,
          "midi": 76,
          "name": "E5",
          "ticks": 108240,
          "time": 244.96295550000002,
          "velocity": 0.7559055118110236
        },
        {
          "duration": 0.7391977895833293,
          "durationTicks": 479,
          "midi": 79,
          "name": "G5",
          "ticks": 108240,
          "time": 244.96295550000002,
          "velocity": 0.7559055118110236
        },
        {
          "duration": 0.09104941458335247,
          "durationTicks": 59,
          "midi": 79,
          "name": "G5",
          "ticks": 108720,
          "time": 245.7036965,
          "velocity": 0.7559055118110236
        },
        {
          "duration": 0.09104941458332405,
          "durationTicks": 59,
          "midi": 81,
          "name": "A5",
          "ticks": 108840,
          "time": 245.88888175000002,
          "velocity": 0.7559055118110236
        },
        {
          "duration": 0.55401253958334,
          "durationTicks": 359,
          "midi": 70,
          "name": "A#4",
          "ticks": 108960,
          "time": 246.074067,
          "velocity": 0.7559055118110236
        },
        {
          "duration": 0.55401253958334,
          "durationTicks": 359,
          "midi": 74,
          "name": "D5",
          "ticks": 108960,
          "time": 246.074067,
          "velocity": 0.7559055118110236
        },
        {
          "duration": 0.55401253958334,
          "durationTicks": 359,
          "midi": 79,
          "name": "G5",
          "ticks": 108960,
          "time": 246.074067,
          "velocity": 0.7559055118110236
        },
        {
          "duration": 0.55401253958334,
          "durationTicks": 359,
          "midi": 82,
          "name": "A#5",
          "ticks": 108960,
          "time": 246.074067,
          "velocity": 0.7559055118110236
        },
        {
          "duration": 0.18364203958333292,
          "durationTicks": 119,
          "midi": 82,
          "name": "A#5",
          "ticks": 109320,
          "time": 246.62962275,
          "velocity": 0.7559055118110236
        },
        {
          "duration": 0.3688272895833222,
          "durationTicks": 239,
          "midi": 69,
          "name": "A4",
          "ticks": 109440,
          "time": 246.81480800000003,
          "velocity": 0.7559055118110236
        },
        {
          "duration": 0.3688272895833222,
          "durationTicks": 239,
          "midi": 74,
          "name": "D5",
          "ticks": 109440,
          "time": 246.81480800000003,
          "velocity": 0.7559055118110236
        },
        {
          "duration": 0.3688272895833222,
          "durationTicks": 239,
          "midi": 77,
          "name": "F5",
          "ticks": 109440,
          "time": 246.81480800000003,
          "velocity": 0.7559055118110236
        },
        {
          "duration": 0.3688272895833222,
          "durationTicks": 239,
          "midi": 81,
          "name": "A5",
          "ticks": 109440,
          "time": 246.81480800000003,
          "velocity": 0.7559055118110236
        },
        {
          "duration": 0.36882728958335065,
          "durationTicks": 239,
          "midi": 77,
          "name": "F5",
          "ticks": 109680,
          "time": 247.1851785,
          "velocity": 0.7559055118110236
        },
        {
          "duration": 1.4799387895833434,
          "durationTicks": 959,
          "midi": 67,
          "name": "G4",
          "ticks": 109920,
          "time": 247.555549,
          "velocity": 0.7559055118110236
        },
        {
          "duration": 1.4799387895833434,
          "durationTicks": 959,
          "midi": 70,
          "name": "A#4",
          "ticks": 109920,
          "time": 247.555549,
          "velocity": 0.7559055118110236
        },
        {
          "duration": 1.4799387895833434,
          "durationTicks": 959,
          "midi": 75,
          "name": "D#5",
          "ticks": 109920,
          "time": 247.555549,
          "velocity": 0.7559055118110236
        },
        {
          "duration": 1.4799387895833434,
          "durationTicks": 959,
          "midi": 79,
          "name": "G5",
          "ticks": 109920,
          "time": 247.555549,
          "velocity": 0.7559055118110236
        },
        {
          "duration": 0.7391977895833293,
          "durationTicks": 479,
          "midi": 70,
          "name": "A#4",
          "ticks": 110880,
          "time": 249.037031,
          "velocity": 0.7559055118110236
        },
        {
          "duration": 0.7391977895833293,
          "durationTicks": 479,
          "midi": 74,
          "name": "D5",
          "ticks": 110880,
          "time": 249.037031,
          "velocity": 0.7559055118110236
        },
        {
          "duration": 0.3688272895833222,
          "durationTicks": 239,
          "midi": 82,
          "name": "A#5",
          "ticks": 111120,
          "time": 249.40740150000002,
          "velocity": 0.7559055118110236
        },
        {
          "duration": 0.7391977895833293,
          "durationTicks": 479,
          "midi": 69,
          "name": "A4",
          "ticks": 111360,
          "time": 249.77777200000003,
          "velocity": 0.7559055118110236
        },
        {
          "duration": 0.7391977895833293,
          "durationTicks": 479,
          "midi": 74,
          "name": "D5",
          "ticks": 111360,
          "time": 249.77777200000003,
          "velocity": 0.7559055118110236
        },
        {
          "duration": 0.3688272895833222,
          "durationTicks": 239,
          "midi": 81,
          "name": "A5",
          "ticks": 111360,
          "time": 249.77777200000003,
          "velocity": 0.7559055118110236
        },
        {
          "duration": 0.36882728958335065,
          "durationTicks": 239,
          "midi": 77,
          "name": "F5",
          "ticks": 111600,
          "time": 250.1481425,
          "velocity": 0.7559055118110236
        },
        {
          "duration": 0.55401253958334,
          "durationTicks": 359,
          "midi": 69,
          "name": "A4",
          "ticks": 111840,
          "time": 250.518513,
          "velocity": 0.7559055118110236
        },
        {
          "duration": 0.55401253958334,
          "durationTicks": 359,
          "midi": 74,
          "name": "D5",
          "ticks": 111840,
          "time": 250.518513,
          "velocity": 0.7559055118110236
        },
        {
          "duration": 0.55401253958334,
          "durationTicks": 359,
          "midi": 78,
          "name": "F#5",
          "ticks": 111840,
          "time": 250.518513,
          "velocity": 0.7559055118110236
        },
        {
          "duration": 0.18364203958333292,
          "durationTicks": 119,
          "midi": 74,
          "name": "D5",
          "ticks": 112200,
          "time": 251.07406875,
          "velocity": 0.7559055118110236
        },
        {
          "duration": 0.18364203958333292,
          "durationTicks": 119,
          "midi": 70,
          "name": "A#4",
          "ticks": 112320,
          "time": 251.25925400000003,
          "velocity": 0.7559055118110236
        },
        {
          "duration": 0.18364203958333292,
          "durationTicks": 119,
          "midi": 74,
          "name": "D5",
          "ticks": 112320,
          "time": 251.25925400000003,
          "velocity": 0.7559055118110236
        },
        {
          "duration": 0.18364203958333292,
          "durationTicks": 119,
          "midi": 79,
          "name": "G5",
          "ticks": 112320,
          "time": 251.25925400000003,
          "velocity": 0.7559055118110236
        },
        {
          "duration": 0.18364203958333292,
          "durationTicks": 119,
          "midi": 81,
          "name": "A5",
          "ticks": 112440,
          "time": 251.44443925000002,
          "velocity": 0.7559055118110236
        },
        {
          "duration": 0.36882728958335065,
          "durationTicks": 239,
          "midi": 82,
          "name": "A#5",
          "ticks": 112560,
          "time": 251.6296245,
          "velocity": 0.7559055118110236
        },
        {
          "duration": 1.1095682895833363,
          "durationTicks": 719,
          "midi": 63,
          "name": "D#4",
          "ticks": 112800,
          "time": 251.999995,
          "velocity": 0.7559055118110236
        },
        {
          "duration": 1.1095682895833363,
          "durationTicks": 719,
          "midi": 67,
          "name": "G4",
          "ticks": 112800,
          "time": 251.999995,
          "velocity": 0.7559055118110236
        },
        {
          "duration": 1.1095682895833363,
          "durationTicks": 719,
          "midi": 70,
          "name": "A#4",
          "ticks": 112800,
          "time": 251.999995,
          "velocity": 0.7559055118110236
        },
        {
          "duration": 0.18364203958333292,
          "durationTicks": 119,
          "midi": 72,
          "name": "C5",
          "ticks": 113520,
          "time": 253.1111065,
          "velocity": 0.7559055118110236
        },
        {
          "duration": 0.18364203958333292,
          "durationTicks": 119,
          "midi": 74,
          "name": "D5",
          "ticks": 113640,
          "time": 253.29629175000002,
          "velocity": 0.7559055118110236
        },
        {
          "duration": 1.4799387895833434,
          "durationTicks": 959,
          "midi": 64,
          "name": "E4",
          "ticks": 113760,
          "time": 253.481477,
          "velocity": 0.7559055118110236
        },
        {
          "duration": 1.4799387895833434,
          "durationTicks": 959,
          "midi": 69,
          "name": "A4",
          "ticks": 113760,
          "time": 253.481477,
          "velocity": 0.7559055118110236
        },
        {
          "duration": 0.55401253958334,
          "durationTicks": 359,
          "midi": 74,
          "name": "D5",
          "ticks": 113760,
          "time": 253.481477,
          "velocity": 0.7559055118110236
        },
        {
          "duration": 0.09104941458335247,
          "durationTicks": 59,
          "midi": 76,
          "name": "E5",
          "ticks": 114120,
          "time": 254.03703275,
          "velocity": 0.7559055118110236
        },
        {
          "duration": 0.09104941458332405,
          "durationTicks": 59,
          "midi": 74,
          "name": "D5",
          "ticks": 114180,
          "time": 254.12962537500002,
          "velocity": 0.7559055118110236
        },
        {
          "duration": 0.7391977895833293,
          "durationTicks": 479,
          "midi": 73,
          "name": "C#5",
          "ticks": 114240,
          "time": 254.22221800000003,
          "velocity": 0.7559055118110236
        },
        {
          "duration": 0.18364203958333292,
          "durationTicks": 119,
          "midi": 70,
          "name": "A#4",
          "ticks": 114960,
          "time": 255.33332950000002,
          "velocity": 0.7559055118110236
        },
        {
          "duration": 0.7391977895833293,
          "durationTicks": 479,
          "midi": 65,
          "name": "F4",
          "ticks": 115200,
          "time": 255.70370000000003,
          "velocity": 0.7559055118110236
        },
        {
          "duration": 0.7391977895833293,
          "durationTicks": 479,
          "midi": 70,
          "name": "A#4",
          "ticks": 115200,
          "time": 255.70370000000003,
          "velocity": 0.7559055118110236
        },
        {
          "duration": 0.7391977895833293,
          "durationTicks": 479,
          "midi": 74,
          "name": "D5",
          "ticks": 115200,
          "time": 255.70370000000003,
          "velocity": 0.7559055118110236
        },
        {
          "duration": 0.7391977895833293,
          "durationTicks": 479,
          "midi": 77,
          "name": "F5",
          "ticks": 115200,
          "time": 255.70370000000003,
          "velocity": 0.7559055118110236
        },
        {
          "duration": 0.18364203958327607,
          "durationTicks": 119,
          "midi": 72,
          "name": "C5",
          "ticks": 115680,
          "time": 256.44444100000004,
          "velocity": 0.7559055118110236
        },
        {
          "duration": 0.7391977895833293,
          "durationTicks": 479,
          "midi": 67,
          "name": "G4",
          "ticks": 115920,
          "time": 256.8148115,
          "velocity": 0.7559055118110236
        },
        {
          "duration": 0.7391977895833293,
          "durationTicks": 479,
          "midi": 72,
          "name": "C5",
          "ticks": 115920,
          "time": 256.8148115,
          "velocity": 0.7559055118110236
        },
        {
          "duration": 0.7391977895833293,
          "durationTicks": 479,
          "midi": 76,
          "name": "E5",
          "ticks": 115920,
          "time": 256.8148115,
          "velocity": 0.7559055118110236
        },
        {
          "duration": 0.7391977895833293,
          "durationTicks": 479,
          "midi": 79,
          "name": "G5",
          "ticks": 115920,
          "time": 256.8148115,
          "velocity": 0.7559055118110236
        },
        {
          "duration": 0.18364203958333292,
          "durationTicks": 119,
          "midi": 79,
          "name": "G5",
          "ticks": 116400,
          "time": 257.55555250000003,
          "velocity": 0.7559055118110236
        },
        {
          "duration": 0.18364203958333292,
          "durationTicks": 119,
          "midi": 81,
          "name": "A5",
          "ticks": 116520,
          "time": 257.74073775,
          "velocity": 0.7559055118110236
        },
        {
          "duration": 0.5540125395833115,
          "durationTicks": 359,
          "midi": 70,
          "name": "A#4",
          "ticks": 116640,
          "time": 257.925923,
          "velocity": 0.7559055118110236
        },
        {
          "duration": 0.5540125395833115,
          "durationTicks": 359,
          "midi": 74,
          "name": "D5",
          "ticks": 116640,
          "time": 257.925923,
          "velocity": 0.7559055118110236
        },
        {
          "duration": 0.5540125395833115,
          "durationTicks": 359,
          "midi": 79,
          "name": "G5",
          "ticks": 116640,
          "time": 257.925923,
          "velocity": 0.7559055118110236
        },
        {
          "duration": 0.5540125395833115,
          "durationTicks": 359,
          "midi": 82,
          "name": "A#5",
          "ticks": 116640,
          "time": 257.925923,
          "velocity": 0.7559055118110236
        },
        {
          "duration": 0.18364203958333292,
          "durationTicks": 119,
          "midi": 82,
          "name": "A#5",
          "ticks": 117000,
          "time": 258.48147875,
          "velocity": 0.7559055118110236
        },
        {
          "duration": 0.3688272895832938,
          "durationTicks": 239,
          "midi": 69,
          "name": "A4",
          "ticks": 117120,
          "time": 258.666664,
          "velocity": 0.7559055118110236
        },
        {
          "duration": 0.3688272895832938,
          "durationTicks": 239,
          "midi": 74,
          "name": "D5",
          "ticks": 117120,
          "time": 258.666664,
          "velocity": 0.7559055118110236
        },
        {
          "duration": 0.3688272895832938,
          "durationTicks": 239,
          "midi": 77,
          "name": "F5",
          "ticks": 117120,
          "time": 258.666664,
          "velocity": 0.7559055118110236
        },
        {
          "duration": 0.3688272895832938,
          "durationTicks": 239,
          "midi": 81,
          "name": "A5",
          "ticks": 117120,
          "time": 258.666664,
          "velocity": 0.7559055118110236
        },
        {
          "duration": 0.36882728958335065,
          "durationTicks": 239,
          "midi": 77,
          "name": "F5",
          "ticks": 117360,
          "time": 259.0370345,
          "velocity": 0.7559055118110236
        },
        {
          "duration": 1.4799387895832865,
          "durationTicks": 959,
          "midi": 67,
          "name": "G4",
          "ticks": 117600,
          "time": 259.40740500000004,
          "velocity": 0.7559055118110236
        },
        {
          "duration": 1.4799387895832865,
          "durationTicks": 959,
          "midi": 70,
          "name": "A#4",
          "ticks": 117600,
          "time": 259.40740500000004,
          "velocity": 0.7559055118110236
        },
        {
          "duration": 1.4799387895832865,
          "durationTicks": 959,
          "midi": 75,
          "name": "D#5",
          "ticks": 117600,
          "time": 259.40740500000004,
          "velocity": 0.7559055118110236
        },
        {
          "duration": 1.4799387895832865,
          "durationTicks": 959,
          "midi": 79,
          "name": "G5",
          "ticks": 117600,
          "time": 259.40740500000004,
          "velocity": 0.7559055118110236
        },
        {
          "duration": 0.7391977895833293,
          "durationTicks": 479,
          "midi": 70,
          "name": "A#4",
          "ticks": 118560,
          "time": 260.888887,
          "velocity": 0.7559055118110236
        },
        {
          "duration": 0.7391977895833293,
          "durationTicks": 479,
          "midi": 74,
          "name": "D5",
          "ticks": 118560,
          "time": 260.888887,
          "velocity": 0.7559055118110236
        },
        {
          "duration": 0.36882728958335065,
          "durationTicks": 239,
          "midi": 82,
          "name": "A#5",
          "ticks": 118800,
          "time": 261.2592575,
          "velocity": 0.7559055118110236
        },
        {
          "duration": 0.7391977895833293,
          "durationTicks": 479,
          "midi": 69,
          "name": "A4",
          "ticks": 119040,
          "time": 261.629628,
          "velocity": 0.7559055118110236
        },
        {
          "duration": 0.7391977895833293,
          "durationTicks": 479,
          "midi": 74,
          "name": "D5",
          "ticks": 119040,
          "time": 261.629628,
          "velocity": 0.7559055118110236
        },
        {
          "duration": 0.36882728958335065,
          "durationTicks": 239,
          "midi": 81,
          "name": "A5",
          "ticks": 119040,
          "time": 261.629628,
          "velocity": 0.7559055118110236
        },
        {
          "duration": 0.36882728958335065,
          "durationTicks": 239,
          "midi": 77,
          "name": "F5",
          "ticks": 119280,
          "time": 261.9999985,
          "velocity": 0.7559055118110236
        },
        {
          "duration": 0.5540125395833115,
          "durationTicks": 359,
          "midi": 69,
          "name": "A4",
          "ticks": 119520,
          "time": 262.37036900000004,
          "velocity": 0.7559055118110236
        },
        {
          "duration": 0.5540125395833115,
          "durationTicks": 359,
          "midi": 74,
          "name": "D5",
          "ticks": 119520,
          "time": 262.37036900000004,
          "velocity": 0.7559055118110236
        },
        {
          "duration": 0.5540125395833115,
          "durationTicks": 359,
          "midi": 78,
          "name": "F#5",
          "ticks": 119520,
          "time": 262.37036900000004,
          "velocity": 0.7559055118110236
        },
        {
          "duration": 0.18364203958333292,
          "durationTicks": 119,
          "midi": 74,
          "name": "D5",
          "ticks": 119880,
          "time": 262.92592475000004,
          "velocity": 0.7559055118110236
        },
        {
          "duration": 0.18364203958333292,
          "durationTicks": 119,
          "midi": 63,
          "name": "D#4",
          "ticks": 120000,
          "time": 263.11111,
          "velocity": 0.7559055118110236
        },
        {
          "duration": 0.18364203958333292,
          "durationTicks": 119,
          "midi": 67,
          "name": "G4",
          "ticks": 120000,
          "time": 263.11111,
          "velocity": 0.7559055118110236
        },
        {
          "duration": 0.18364203958333292,
          "durationTicks": 119,
          "midi": 72,
          "name": "C5",
          "ticks": 120000,
          "time": 263.11111,
          "velocity": 0.7559055118110236
        },
        {
          "duration": 0.18364203958333292,
          "durationTicks": 119,
          "midi": 74,
          "name": "D5",
          "ticks": 120120,
          "time": 263.29629525,
          "velocity": 0.7559055118110236
        },
        {
          "duration": 0.3688272895832938,
          "durationTicks": 239,
          "midi": 75,
          "name": "D#5",
          "ticks": 120240,
          "time": 263.48148050000003,
          "velocity": 0.7559055118110236
        },
        {
          "duration": 0.36882728958335065,
          "durationTicks": 239,
          "midi": 74,
          "name": "D5",
          "ticks": 120480,
          "time": 263.851851,
          "velocity": 0.7559055118110236
        },
        {
          "duration": 0.18364203958338976,
          "durationTicks": 119,
          "midi": 67,
          "name": "G4",
          "ticks": 120720,
          "time": 264.2222215,
          "velocity": 0.7559055118110236
        },
        {
          "duration": 0.18364203958338976,
          "durationTicks": 119,
          "midi": 69,
          "name": "A4",
          "ticks": 120720,
          "time": 264.2222215,
          "velocity": 0.7559055118110236
        },
        {
          "duration": 0.09104941458332405,
          "durationTicks": 59,
          "midi": 79,
          "name": "G5",
          "ticks": 120840,
          "time": 264.40740675,
          "velocity": 0.7559055118110236
        },
        {
          "duration": 0.36882728958335065,
          "durationTicks": 239,
          "midi": 79,
          "name": "G5",
          "ticks": 120960,
          "time": 264.592592,
          "velocity": 0.7559055118110236
        },
        {
          "duration": 0.18364203958333292,
          "durationTicks": 119,
          "midi": 67,
          "name": "G4",
          "ticks": 121200,
          "time": 264.9629625,
          "velocity": 0.7559055118110236
        },
        {
          "duration": 0.18364203958333292,
          "durationTicks": 119,
          "midi": 69,
          "name": "A4",
          "ticks": 121200,
          "time": 264.9629625,
          "velocity": 0.7559055118110236
        },
        {
          "duration": 0.18364203958333292,
          "durationTicks": 119,
          "midi": 74,
          "name": "D5",
          "ticks": 121200,
          "time": 264.9629625,
          "velocity": 0.7559055118110236
        },
        {
          "duration": 0.09104941458332405,
          "durationTicks": 59,
          "midi": 81,
          "name": "A5",
          "ticks": 121320,
          "time": 265.14814775,
          "velocity": 0.7559055118110236
        },
        {
          "duration": 1.4799387895832865,
          "durationTicks": 959,
          "midi": 69,
          "name": "A4",
          "ticks": 121440,
          "time": 265.33333300000004,
          "velocity": 0.7559055118110236
        },
        {
          "duration": 1.4799387895832865,
          "durationTicks": 959,
          "midi": 74,
          "name": "D5",
          "ticks": 121440,
          "time": 265.33333300000004,
          "velocity": 0.7559055118110236
        },
        {
          "duration": 1.4799387895832865,
          "durationTicks": 959,
          "midi": 78,
          "name": "F#5",
          "ticks": 121440,
          "time": 265.33333300000004,
          "velocity": 0.7559055118110236
        },
        {
          "duration": 1.4799387895832865,
          "durationTicks": 959,
          "midi": 81,
          "name": "A5",
          "ticks": 121440,
          "time": 265.33333300000004,
          "velocity": 0.7559055118110236
        },
        {
          "duration": 0.36882728958335065,
          "durationTicks": 239,
          "midi": 82,
          "name": "A#5",
          "ticks": 122640,
          "time": 267.1851855,
          "velocity": 0.6299212598425197
        },
        {
          "duration": 0.36882728958335065,
          "durationTicks": 239,
          "midi": 84,
          "name": "C6",
          "ticks": 122880,
          "time": 267.555556,
          "velocity": 0.6299212598425197
        },
        {
          "duration": 0.18364203958333292,
          "durationTicks": 119,
          "midi": 82,
          "name": "A#5",
          "ticks": 123120,
          "time": 267.9259265,
          "velocity": 0.6299212598425197
        },
        {
          "duration": 0.18364203958333292,
          "durationTicks": 119,
          "midi": 81,
          "name": "A5",
          "ticks": 123240,
          "time": 268.11111175,
          "velocity": 0.6299212598425197
        },
        {
          "duration": 0.3688272895832938,
          "durationTicks": 239,
          "midi": 82,
          "name": "A#5",
          "ticks": 123360,
          "time": 268.29629700000004,
          "velocity": 0.6299212598425197
        },
        {
          "duration": 0.36882728958335065,
          "durationTicks": 239,
          "midi": 81,
          "name": "A5",
          "ticks": 123600,
          "time": 268.6666675,
          "velocity": 0.6299212598425197
        },
        {
          "duration": 0.7391977895833293,
          "durationTicks": 479,
          "midi": 79,
          "name": "G5",
          "ticks": 123840,
          "time": 269.037038,
          "velocity": 0.6299212598425197
        },
        {
          "duration": 0.36882728958335065,
          "durationTicks": 239,
          "midi": 79,
          "name": "G5",
          "ticks": 124560,
          "time": 270.1481495,
          "velocity": 0.6299212598425197
        },
        {
          "duration": 0.36882728958335065,
          "durationTicks": 239,
          "midi": 84,
          "name": "C6",
          "ticks": 124800,
          "time": 270.51852,
          "velocity": 0.6299212598425197
        },
        {
          "duration": 0.18364203958333292,
          "durationTicks": 119,
          "midi": 72,
          "name": "C5",
          "ticks": 125040,
          "time": 270.8888905,
          "velocity": 0.6299212598425197
        },
        {
          "duration": 0.18364203958333292,
          "durationTicks": 119,
          "midi": 82,
          "name": "A#5",
          "ticks": 125160,
          "time": 271.07407575,
          "velocity": 0.6299212598425197
        },
        {
          "duration": 0.7391977895833293,
          "durationTicks": 479,
          "midi": 82,
          "name": "A#5",
          "ticks": 125280,
          "time": 271.25926100000004,
          "velocity": 0.6299212598425197
        },
        {
          "duration": 0.7391977895833293,
          "durationTicks": 479,
          "midi": 81,
          "name": "A5",
          "ticks": 125760,
          "time": 272.000002,
          "velocity": 0.6299212598425197
        },
        {
          "duration": 0.36882728958335065,
          "durationTicks": 239,
          "midi": 81,
          "name": "A5",
          "ticks": 126480,
          "time": 273.1111135,
          "velocity": 0.6299212598425197
        },
        {
          "duration": 0.36882728958335065,
          "durationTicks": 239,
          "midi": 86,
          "name": "D6",
          "ticks": 126720,
          "time": 273.481484,
          "velocity": 0.6299212598425197
        },
        {
          "duration": 0.18364203958333292,
          "durationTicks": 119,
          "midi": 81,
          "name": "A5",
          "ticks": 126960,
          "time": 273.8518545,
          "velocity": 0.6299212598425197
        },
        {
          "duration": 0.18364203958333292,
          "durationTicks": 119,
          "midi": 91,
          "name": "G6",
          "ticks": 127080,
          "time": 274.03703975,
          "velocity": 0.6299212598425197
        },
        {
          "duration": 0.3688272895832938,
          "durationTicks": 239,
          "midi": 91,
          "name": "G6",
          "ticks": 127200,
          "time": 274.22222500000004,
          "velocity": 0.6299212598425197
        },
        {
          "duration": 0.36882728958335065,
          "durationTicks": 239,
          "midi": 89,
          "name": "F6",
          "ticks": 127440,
          "time": 274.5925955,
          "velocity": 0.6299212598425197
        },
        {
          "duration": 0.7391977895833293,
          "durationTicks": 479,
          "midi": 87,
          "name": "D#6",
          "ticks": 127680,
          "time": 274.962966,
          "velocity": 0.6299212598425197
        },
        {
          "duration": 0.3688272895832938,
          "durationTicks": 239,
          "midi": 81,
          "name": "A5",
          "ticks": 128400,
          "time": 276.07407750000004,
          "velocity": 0.6299212598425197
        },
        {
          "duration": 0.36882728958335065,
          "durationTicks": 239,
          "midi": 81,
          "name": "A5",
          "ticks": 128640,
          "time": 276.444448,
          "velocity": 0.6299212598425197
        },
        {
          "duration": 0.18364203958333292,
          "durationTicks": 119,
          "midi": 69,
          "name": "A4",
          "ticks": 128880,
          "time": 276.8148185,
          "velocity": 0.6299212598425197
        },
        {
          "duration": 0.18364203958333292,
          "durationTicks": 119,
          "midi": 79,
          "name": "G5",
          "ticks": 129000,
          "time": 277.00000375,
          "velocity": 0.6299212598425197
        },
        {
          "duration": 0.7391977895833293,
          "durationTicks": 479,
          "midi": 78,
          "name": "F#5",
          "ticks": 129120,
          "time": 277.18518900000004,
          "velocity": 0.6299212598425197
        },
        {
          "duration": 0.7391977895833861,
          "durationTicks": 479,
          "midi": 76,
          "name": "E5",
          "ticks": 129600,
          "time": 277.92593,
          "velocity": 0.6299212598425197
        },
        {
          "duration": 0.36882728958335065,
          "durationTicks": 239,
          "midi": 86,
          "name": "D6",
          "ticks": 130320,
          "time": 279.0370415,
          "velocity": 0.6299212598425197
        },
        {
          "duration": 0.36882728958335065,
          "durationTicks": 239,
          "midi": 86,
          "name": "D6",
          "ticks": 130560,
          "time": 279.407412,
          "velocity": 0.6299212598425197
        },
        {
          "duration": 0.18364203958333292,
          "durationTicks": 119,
          "midi": 74,
          "name": "D5",
          "ticks": 130800,
          "time": 279.7777825,
          "velocity": 0.6299212598425197
        },
        {
          "duration": 0.18364203958333292,
          "durationTicks": 119,
          "midi": 84,
          "name": "C6",
          "ticks": 130920,
          "time": 279.96296775,
          "velocity": 0.6299212598425197
        },
        {
          "duration": 1.4799387895832865,
          "durationTicks": 959,
          "midi": 74,
          "name": "D5",
          "ticks": 131040,
          "time": 280.14815300000004,
          "velocity": 0.6299212598425197
        },
        {
          "duration": 0.7391977895833293,
          "durationTicks": 479,
          "midi": 83,
          "name": "B5",
          "ticks": 131040,
          "time": 280.14815300000004,
          "velocity": 0.6299212598425197
        },
        {
          "duration": 0.7391977895833293,
          "durationTicks": 479,
          "midi": 81,
          "name": "A5",
          "ticks": 131520,
          "time": 280.888894,
          "velocity": 0.6299212598425197
        },
        {
          "duration": 0.3688272895832938,
          "durationTicks": 239,
          "midi": 73,
          "name": "C#5",
          "ticks": 132240,
          "time": 282.00000550000004,
          "velocity": 0.3858267716535433
        },
        {
          "duration": 0.36882728958335065,
          "durationTicks": 239,
          "midi": 75,
          "name": "D#5",
          "ticks": 132480,
          "time": 282.370376,
          "velocity": 0.3858267716535433
        },
        {
          "duration": 0.18364203958333292,
          "durationTicks": 119,
          "midi": 73,
          "name": "C#5",
          "ticks": 132720,
          "time": 282.7407465,
          "velocity": 0.3858267716535433
        },
        {
          "duration": 0.18364203958333292,
          "durationTicks": 119,
          "midi": 72,
          "name": "C5",
          "ticks": 132840,
          "time": 282.92593175,
          "velocity": 0.3858267716535433
        },
        {
          "duration": 0.3688272895832938,
          "durationTicks": 239,
          "midi": 73,
          "name": "C#5",
          "ticks": 132960,
          "time": 283.11111700000004,
          "velocity": 0.3858267716535433
        },
        {
          "duration": 0.36882728958335065,
          "durationTicks": 239,
          "midi": 72,
          "name": "C5",
          "ticks": 133200,
          "time": 283.4814875,
          "velocity": 0.3858267716535433
        },
        {
          "duration": 0.7391977895833861,
          "durationTicks": 479,
          "midi": 70,
          "name": "A#4",
          "ticks": 133440,
          "time": 283.851858,
          "velocity": 0.3858267716535433
        },
        {
          "duration": 0.36882728958335065,
          "durationTicks": 239,
          "midi": 70,
          "name": "A#4",
          "ticks": 134160,
          "time": 284.9629695,
          "velocity": 0.3858267716535433
        },
        {
          "duration": 0.36882728958335065,
          "durationTicks": 239,
          "midi": 75,
          "name": "D#5",
          "ticks": 134400,
          "time": 285.33334,
          "velocity": 0.3858267716535433
        },
        {
          "duration": 0.36728407916666583,
          "durationTicks": 238,
          "midi": 63,
          "name": "D#4",
          "ticks": 134640,
          "time": 285.7037105,
          "velocity": 0.3858267716535433
        },
        {
          "duration": 0.18364203958333292,
          "durationTicks": 119,
          "midi": 73,
          "name": "C#5",
          "ticks": 134760,
          "time": 285.88889575,
          "velocity": 0.3858267716535433
        },
        {
          "duration": 0.7391977895833293,
          "durationTicks": 479,
          "midi": 63,
          "name": "D#4",
          "ticks": 134880,
          "time": 286.07408100000004,
          "velocity": 0.3858267716535433
        },
        {
          "duration": 0.7391977895833293,
          "durationTicks": 479,
          "midi": 68,
          "name": "G#4",
          "ticks": 134880,
          "time": 286.07408100000004,
          "velocity": 0.3858267716535433
        },
        {
          "duration": 0.7391977895833293,
          "durationTicks": 479,
          "midi": 73,
          "name": "C#5",
          "ticks": 134880,
          "time": 286.07408100000004,
          "velocity": 0.3858267716535433
        },
        {
          "duration": 0.7391977895833293,
          "durationTicks": 479,
          "midi": 72,
          "name": "C5",
          "ticks": 135360,
          "time": 286.814822,
          "velocity": 0.3858267716535433
        },
        {
          "duration": 0.3688272895832938,
          "durationTicks": 239,
          "midi": 72,
          "name": "C5",
          "ticks": 136080,
          "time": 287.92593350000004,
          "velocity": 0.3858267716535433
        },
        {
          "duration": 0.36882728958335065,
          "durationTicks": 239,
          "midi": 77,
          "name": "F5",
          "ticks": 136320,
          "time": 288.296304,
          "velocity": 0.3858267716535433
        },
        {
          "duration": 0.18364203958333292,
          "durationTicks": 119,
          "midi": 72,
          "name": "C5",
          "ticks": 136560,
          "time": 288.6666745,
          "velocity": 0.3858267716535433
        },
        {
          "duration": 0.18364203958333292,
          "durationTicks": 119,
          "midi": 82,
          "name": "A#5",
          "ticks": 136680,
          "time": 288.85185975,
          "velocity": 0.3858267716535433
        },
        {
          "duration": 0.3688272895832938,
          "durationTicks": 239,
          "midi": 82,
          "name": "A#5",
          "ticks": 136800,
          "time": 289.03704500000003,
          "velocity": 0.3858267716535433
        },
        {
          "duration": 0.36882728958335065,
          "durationTicks": 239,
          "midi": 81,
          "name": "A5",
          "ticks": 137040,
          "time": 289.4074155,
          "velocity": 0.3858267716535433
        },
        {
          "duration": 0.7391977895833861,
          "durationTicks": 479,
          "midi": 79,
          "name": "G5",
          "ticks": 137280,
          "time": 289.777786,
          "velocity": 0.3858267716535433
        },
        {
          "duration": 0.36882728958335065,
          "durationTicks": 239,
          "midi": 84,
          "name": "C6",
          "ticks": 138000,
          "time": 290.8888975,
          "velocity": 0.3858267716535433
        },
        {
          "duration": 0.36882728958335065,
          "durationTicks": 239,
          "midi": 84,
          "name": "C6",
          "ticks": 138240,
          "time": 291.259268,
          "velocity": 0.3858267716535433
        },
        {
          "duration": 0.18364203958333292,
          "durationTicks": 119,
          "midi": 72,
          "name": "C5",
          "ticks": 138480,
          "time": 291.6296385,
          "velocity": 0.3858267716535433
        },
        {
          "duration": 0.18364203958333292,
          "durationTicks": 119,
          "midi": 82,
          "name": "A#5",
          "ticks": 138600,
          "time": 291.81482375,
          "velocity": 0.3858267716535433
        },
        {
          "duration": 0.7391977895833293,
          "durationTicks": 479,
          "midi": 70,
          "name": "A#4",
          "ticks": 138720,
          "time": 292.00000900000003,
          "velocity": 0.3858267716535433
        },
        {
          "duration": 0.7391977895833293,
          "durationTicks": 479,
          "midi": 74,
          "name": "D5",
          "ticks": 138720,
          "time": 292.00000900000003,
          "velocity": 0.3858267716535433
        },
        {
          "duration": 0.7391977895833293,
          "durationTicks": 479,
          "midi": 77,
          "name": "F5",
          "ticks": 138720,
          "time": 292.00000900000003,
          "velocity": 0.3858267716535433
        },
        {
          "duration": 0.7391977895833293,
          "durationTicks": 479,
          "midi": 81,
          "name": "A5",
          "ticks": 138720,
          "time": 292.00000900000003,
          "velocity": 0.3858267716535433
        },
        {
          "duration": 0.36882728958335065,
          "durationTicks": 239,
          "midi": 72,
          "name": "C5",
          "ticks": 139200,
          "time": 292.74075,
          "velocity": 0.3858267716535433
        },
        {
          "duration": 0.36882728958335065,
          "durationTicks": 239,
          "midi": 76,
          "name": "E5",
          "ticks": 139200,
          "time": 292.74075,
          "velocity": 0.3858267716535433
        },
        {
          "duration": 0.36882728958335065,
          "durationTicks": 239,
          "midi": 79,
          "name": "G5",
          "ticks": 139200,
          "time": 292.74075,
          "velocity": 0.3858267716535433
        },
        {
          "duration": 0.09104941458332405,
          "durationTicks": 59,
          "midi": 70,
          "name": "A#4",
          "ticks": 139440,
          "time": 293.1111205,
          "velocity": 0.3858267716535433
        },
        {
          "duration": 0.09104941458332405,
          "durationTicks": 59,
          "midi": 74,
          "name": "D5",
          "ticks": 139440,
          "time": 293.1111205,
          "velocity": 0.3858267716535433
        },
        {
          "duration": 0.09104941458332405,
          "durationTicks": 59,
          "midi": 77,
          "name": "F5",
          "ticks": 139440,
          "time": 293.1111205,
          "velocity": 0.3858267716535433
        },
        {
          "duration": 0.0910494145833809,
          "durationTicks": 59,
          "midi": 72,
          "name": "C5",
          "ticks": 139560,
          "time": 293.29630575,
          "velocity": 0.3858267716535433
        },
        {
          "duration": 0.0910494145833809,
          "durationTicks": 59,
          "midi": 76,
          "name": "E5",
          "ticks": 139560,
          "time": 293.29630575,
          "velocity": 0.3858267716535433
        },
        {
          "duration": 0.0910494145833809,
          "durationTicks": 59,
          "midi": 79,
          "name": "G5",
          "ticks": 139560,
          "time": 293.29630575,
          "velocity": 0.3858267716535433
        },
        {
          "duration": 0.18364203958333292,
          "durationTicks": 119,
          "midi": 74,
          "name": "D5",
          "ticks": 139680,
          "time": 293.481491,
          "velocity": 0.905511811023622
        },
        {
          "duration": 0.18364203958333292,
          "durationTicks": 119,
          "midi": 78,
          "name": "F#5",
          "ticks": 139680,
          "time": 293.481491,
          "velocity": 0.905511811023622
        },
        {
          "duration": 0.18364203958333292,
          "durationTicks": 119,
          "midi": 81,
          "name": "A5",
          "ticks": 139680,
          "time": 293.481491,
          "velocity": 0.905511811023622
        },
        {
          "duration": 0.18364203958333292,
          "durationTicks": 119,
          "midi": 79,
          "name": "G5",
          "ticks": 139800,
          "time": 293.66667625,
          "velocity": 0.7559055118110236
        },
        {
          "duration": 0.09104941458332405,
          "durationTicks": 59,
          "midi": 78,
          "name": "F#5",
          "ticks": 139920,
          "time": 293.85186150000004,
          "velocity": 0.7559055118110236
        },
        {
          "duration": 0.09104941458332405,
          "durationTicks": 59,
          "midi": 75,
          "name": "D#5",
          "ticks": 140040,
          "time": 294.03704675,
          "velocity": 0.7559055118110236
        },
        {
          "duration": 0.18364203958333292,
          "durationTicks": 119,
          "midi": 74,
          "name": "D5",
          "ticks": 140160,
          "time": 294.222232,
          "velocity": 0.7559055118110236
        },
        {
          "duration": 0.18364203958333292,
          "durationTicks": 119,
          "midi": 67,
          "name": "G4",
          "ticks": 140400,
          "time": 294.5926025,
          "velocity": 0.7559055118110236
        },
        {
          "duration": 0.18364203958333292,
          "durationTicks": 119,
          "midi": 69,
          "name": "A4",
          "ticks": 140400,
          "time": 294.5926025,
          "velocity": 0.7559055118110236
        },
        {
          "duration": 0.18364203958333292,
          "durationTicks": 119,
          "midi": 74,
          "name": "D5",
          "ticks": 140760,
          "time": 295.14815825,
          "velocity": 0.7559055118110236
        },
        {
          "duration": 0.09104941458332405,
          "durationTicks": 59,
          "midi": 73,
          "name": "C#5",
          "ticks": 140880,
          "time": 295.3333435,
          "velocity": 0.7559055118110236
        },
        {
          "duration": 0.09104941458332405,
          "durationTicks": 59,
          "midi": 71,
          "name": "B4",
          "ticks": 141000,
          "time": 295.51852875000003,
          "velocity": 0.7559055118110236
        },
        {
          "duration": 0.18364203958333292,
          "durationTicks": 119,
          "midi": 69,
          "name": "A4",
          "ticks": 141120,
          "time": 295.703714,
          "velocity": 0.7559055118110236
        },
        {
          "duration": 0.09104941458332405,
          "durationTicks": 59,
          "midi": 79,
          "name": "G5",
          "ticks": 141240,
          "time": 295.88889925,
          "velocity": 0.7559055118110236
        },
        {
          "duration": 0.09104941458332405,
          "durationTicks": 59,
          "midi": 78,
          "name": "F#5",
          "ticks": 141360,
          "time": 296.0740845,
          "velocity": 0.7559055118110236
        },
        {
          "duration": 0.09104941458332405,
          "durationTicks": 59,
          "midi": 75,
          "name": "D#5",
          "ticks": 141480,
          "time": 296.25926975000004,
          "velocity": 0.7559055118110236
        },
        {
          "duration": 0.09104941458332405,
          "durationTicks": 59,
          "midi": 74,
          "name": "D5",
          "ticks": 141600,
          "time": 296.444455,
          "velocity": 0.7559055118110236
        },
        {
          "duration": 0.09104941458332405,
          "durationTicks": 59,
          "midi": 69,
          "name": "A4",
          "ticks": 141720,
          "time": 296.62964025,
          "velocity": 0.7559055118110236
        },
        {
          "duration": 0.0910494145833809,
          "durationTicks": 59,
          "midi": 74,
          "name": "D5",
          "ticks": 141840,
          "time": 296.8148255,
          "velocity": 0.7559055118110236
        },
        {
          "duration": 0.09104941458332405,
          "durationTicks": 59,
          "midi": 67,
          "name": "G4",
          "ticks": 141960,
          "time": 297.00001075,
          "velocity": 0.7559055118110236
        },
        {
          "duration": 0.18364203958333292,
          "durationTicks": 119,
          "midi": 69,
          "name": "A4",
          "ticks": 142080,
          "time": 297.185196,
          "velocity": 0.7559055118110236
        },
        {
          "duration": 0.18364203958333292,
          "durationTicks": 119,
          "midi": 67,
          "name": "G4",
          "ticks": 142320,
          "time": 297.5555665,
          "velocity": 0.7559055118110236
        },
        {
          "duration": 0.18364203958333292,
          "durationTicks": 119,
          "midi": 69,
          "name": "A4",
          "ticks": 142320,
          "time": 297.5555665,
          "velocity": 0.7559055118110236
        },
        {
          "duration": 0.18364203958333292,
          "durationTicks": 119,
          "midi": 74,
          "name": "D5",
          "ticks": 142320,
          "time": 297.5555665,
          "velocity": 0.7559055118110236
        },
        {
          "duration": 0.18364203958333292,
          "durationTicks": 119,
          "midi": 74,
          "name": "D5",
          "ticks": 142560,
          "time": 297.92593700000003,
          "velocity": 0.7559055118110236
        },
        {
          "duration": 0.18364203958333292,
          "durationTicks": 119,
          "midi": 76,
          "name": "E5",
          "ticks": 142680,
          "time": 298.11112225,
          "velocity": 0.7559055118110236
        },
        {
          "duration": 0.18364203958333292,
          "durationTicks": 119,
          "midi": 74,
          "name": "D5",
          "ticks": 142800,
          "time": 298.2963075,
          "velocity": 0.7559055118110236
        },
        {
          "duration": 0.18364203958333292,
          "durationTicks": 119,
          "midi": 78,
          "name": "F#5",
          "ticks": 142800,
          "time": 298.2963075,
          "velocity": 0.7559055118110236
        },
        {
          "duration": 0.18364203958333292,
          "durationTicks": 119,
          "midi": 76,
          "name": "E5",
          "ticks": 142920,
          "time": 298.48149275000003,
          "velocity": 0.7559055118110236
        },
        {
          "duration": 0.18364203958333292,
          "durationTicks": 119,
          "midi": 79,
          "name": "G5",
          "ticks": 142920,
          "time": 298.48149275000003,
          "velocity": 0.7559055118110236
        },
        {
          "duration": 0.18364203958333292,
          "durationTicks": 119,
          "midi": 78,
          "name": "F#5",
          "ticks": 143040,
          "time": 298.666678,
          "velocity": 0.7559055118110236
        },
        {
          "duration": 0.18364203958333292,
          "durationTicks": 119,
          "midi": 81,
          "name": "A5",
          "ticks": 143040,
          "time": 298.666678,
          "velocity": 0.7559055118110236
        },
        {
          "duration": 0.18364203958333292,
          "durationTicks": 119,
          "midi": 79,
          "name": "G5",
          "ticks": 143160,
          "time": 298.85186325,
          "velocity": 0.7559055118110236
        },
        {
          "duration": 0.18364203958333292,
          "durationTicks": 119,
          "midi": 83,
          "name": "B5",
          "ticks": 143160,
          "time": 298.85186325,
          "velocity": 0.7559055118110236
        },
        {
          "duration": 0.3688272895832938,
          "durationTicks": 239,
          "midi": 81,
          "name": "A5",
          "ticks": 143280,
          "time": 299.0370485,
          "velocity": 0.7559055118110236
        },
        {
          "duration": 0.18364203958333292,
          "durationTicks": 119,
          "midi": 70,
          "name": "A#4",
          "ticks": 143760,
          "time": 299.77778950000004,
          "velocity": 0.8818897637795275
        },
        {
          "duration": 0.7391977895833293,
          "durationTicks": 479,
          "midi": 65,
          "name": "F4",
          "ticks": 144000,
          "time": 300.14816,
          "velocity": 0.8818897637795275
        },
        {
          "duration": 0.7391977895833293,
          "durationTicks": 479,
          "midi": 70,
          "name": "A#4",
          "ticks": 144000,
          "time": 300.14816,
          "velocity": 0.8818897637795275
        },
        {
          "duration": 0.7391977895833293,
          "durationTicks": 479,
          "midi": 74,
          "name": "D5",
          "ticks": 144000,
          "time": 300.14816,
          "velocity": 0.8818897637795275
        },
        {
          "duration": 0.7391977895833293,
          "durationTicks": 479,
          "midi": 77,
          "name": "F5",
          "ticks": 144000,
          "time": 300.14816,
          "velocity": 0.8818897637795275
        },
        {
          "duration": 0.18364203958333292,
          "durationTicks": 119,
          "midi": 72,
          "name": "C5",
          "ticks": 144480,
          "time": 300.88890100000003,
          "velocity": 0.8818897637795275
        },
        {
          "duration": 0.7391977895833293,
          "durationTicks": 479,
          "midi": 67,
          "name": "G4",
          "ticks": 144720,
          "time": 301.2592715,
          "velocity": 0.8818897637795275
        },
        {
          "duration": 0.7391977895833293,
          "durationTicks": 479,
          "midi": 72,
          "name": "C5",
          "ticks": 144720,
          "time": 301.2592715,
          "velocity": 0.8818897637795275
        },
        {
          "duration": 0.7391977895833293,
          "durationTicks": 479,
          "midi": 76,
          "name": "E5",
          "ticks": 144720,
          "time": 301.2592715,
          "velocity": 0.8818897637795275
        },
        {
          "duration": 0.7391977895833293,
          "durationTicks": 479,
          "midi": 79,
          "name": "G5",
          "ticks": 144720,
          "time": 301.2592715,
          "velocity": 0.8818897637795275
        },
        {
          "duration": 0.18364203958333292,
          "durationTicks": 119,
          "midi": 79,
          "name": "G5",
          "ticks": 145200,
          "time": 302.0000125,
          "velocity": 0.8818897637795275
        },
        {
          "duration": 0.18364203958333292,
          "durationTicks": 119,
          "midi": 81,
          "name": "A5",
          "ticks": 145320,
          "time": 302.18519775000004,
          "velocity": 0.8818897637795275
        },
        {
          "duration": 0.5540125395833684,
          "durationTicks": 359,
          "midi": 70,
          "name": "A#4",
          "ticks": 145440,
          "time": 302.370383,
          "velocity": 0.8818897637795275
        },
        {
          "duration": 0.5540125395833684,
          "durationTicks": 359,
          "midi": 74,
          "name": "D5",
          "ticks": 145440,
          "time": 302.370383,
          "velocity": 0.8818897637795275
        },
        {
          "duration": 0.5540125395833684,
          "durationTicks": 359,
          "midi": 79,
          "name": "G5",
          "ticks": 145440,
          "time": 302.370383,
          "velocity": 0.8818897637795275
        },
        {
          "duration": 0.5540125395833684,
          "durationTicks": 359,
          "midi": 82,
          "name": "A#5",
          "ticks": 145440,
          "time": 302.370383,
          "velocity": 0.8818897637795275
        },
        {
          "duration": 0.18364203958333292,
          "durationTicks": 119,
          "midi": 82,
          "name": "A#5",
          "ticks": 145800,
          "time": 302.92593875,
          "velocity": 0.8818897637795275
        },
        {
          "duration": 0.36882728958335065,
          "durationTicks": 239,
          "midi": 69,
          "name": "A4",
          "ticks": 145920,
          "time": 303.111124,
          "velocity": 0.8818897637795275
        },
        {
          "duration": 0.36882728958335065,
          "durationTicks": 239,
          "midi": 74,
          "name": "D5",
          "ticks": 145920,
          "time": 303.111124,
          "velocity": 0.8818897637795275
        },
        {
          "duration": 0.36882728958335065,
          "durationTicks": 239,
          "midi": 77,
          "name": "F5",
          "ticks": 145920,
          "time": 303.111124,
          "velocity": 0.8818897637795275
        },
        {
          "duration": 0.36882728958335065,
          "durationTicks": 239,
          "midi": 81,
          "name": "A5",
          "ticks": 145920,
          "time": 303.111124,
          "velocity": 0.8818897637795275
        },
        {
          "duration": 0.36882728958335065,
          "durationTicks": 239,
          "midi": 77,
          "name": "F5",
          "ticks": 146160,
          "time": 303.4814945,
          "velocity": 0.8818897637795275
        },
        {
          "duration": 1.4799387895832865,
          "durationTicks": 959,
          "midi": 67,
          "name": "G4",
          "ticks": 146400,
          "time": 303.85186500000003,
          "velocity": 0.8818897637795275
        },
        {
          "duration": 1.4799387895832865,
          "durationTicks": 959,
          "midi": 70,
          "name": "A#4",
          "ticks": 146400,
          "time": 303.85186500000003,
          "velocity": 0.8818897637795275
        },
        {
          "duration": 1.4799387895832865,
          "durationTicks": 959,
          "midi": 75,
          "name": "D#5",
          "ticks": 146400,
          "time": 303.85186500000003,
          "velocity": 0.8818897637795275
        },
        {
          "duration": 1.4799387895832865,
          "durationTicks": 959,
          "midi": 79,
          "name": "G5",
          "ticks": 146400,
          "time": 303.85186500000003,
          "velocity": 0.8818897637795275
        },
        {
          "duration": 0.3688272895832938,
          "durationTicks": 239,
          "midi": 75,
          "name": "D#5",
          "ticks": 147600,
          "time": 305.70371750000004,
          "velocity": 0.8818897637795275
        },
        {
          "duration": 0.3688272895832938,
          "durationTicks": 239,
          "midi": 79,
          "name": "G5",
          "ticks": 147600,
          "time": 305.70371750000004,
          "velocity": 0.8818897637795275
        },
        {
          "duration": 0.3688272895832938,
          "durationTicks": 239,
          "midi": 82,
          "name": "A#5",
          "ticks": 147600,
          "time": 305.70371750000004,
          "velocity": 0.8818897637795275
        },
        {
          "duration": 0.36882728958335065,
          "durationTicks": 239,
          "midi": 74,
          "name": "D5",
          "ticks": 147840,
          "time": 306.074088,
          "velocity": 0.8818897637795275
        },
        {
          "duration": 0.36882728958335065,
          "durationTicks": 239,
          "midi": 77,
          "name": "F5",
          "ticks": 147840,
          "time": 306.074088,
          "velocity": 0.8818897637795275
        },
        {
          "duration": 0.36882728958335065,
          "durationTicks": 239,
          "midi": 81,
          "name": "A5",
          "ticks": 147840,
          "time": 306.074088,
          "velocity": 0.8818897637795275
        },
        {
          "duration": 0.36882728958335065,
          "durationTicks": 239,
          "midi": 69,
          "name": "A4",
          "ticks": 148080,
          "time": 306.4444585,
          "velocity": 0.8818897637795275
        },
        {
          "duration": 0.36882728958335065,
          "durationTicks": 239,
          "midi": 74,
          "name": "D5",
          "ticks": 148080,
          "time": 306.4444585,
          "velocity": 0.8818897637795275
        },
        {
          "duration": 0.36882728958335065,
          "durationTicks": 239,
          "midi": 77,
          "name": "F5",
          "ticks": 148080,
          "time": 306.4444585,
          "velocity": 0.8818897637795275
        },
        {
          "duration": 0.7391977895833293,
          "durationTicks": 479,
          "midi": 69,
          "name": "A4",
          "ticks": 148320,
          "time": 306.81482900000003,
          "velocity": 0.8818897637795275
        },
        {
          "duration": 0.5540125395833115,
          "durationTicks": 359,
          "midi": 74,
          "name": "D5",
          "ticks": 148320,
          "time": 306.81482900000003,
          "velocity": 0.8818897637795275
        },
        {
          "duration": 0.5540125395833115,
          "durationTicks": 359,
          "midi": 78,
          "name": "F#5",
          "ticks": 148320,
          "time": 306.81482900000003,
          "velocity": 0.8818897637795275
        },
        {
          "duration": 0.18364203958333292,
          "durationTicks": 119,
          "midi": 74,
          "name": "D5",
          "ticks": 148680,
          "time": 307.37038475,
          "velocity": 0.8818897637795275
        },
        {
          "duration": 0.7391977895833861,
          "durationTicks": 479,
          "midi": 70,
          "name": "A#4",
          "ticks": 148800,
          "time": 307.55557,
          "velocity": 0.8818897637795275
        },
        {
          "duration": 0.7391977895833861,
          "durationTicks": 479,
          "midi": 74,
          "name": "D5",
          "ticks": 148800,
          "time": 307.55557,
          "velocity": 0.8818897637795275
        },
        {
          "duration": 0.18364203958333292,
          "durationTicks": 119,
          "midi": 79,
          "name": "G5",
          "ticks": 148800,
          "time": 307.55557,
          "velocity": 0.8818897637795275
        },
        {
          "duration": 0.18364203958333292,
          "durationTicks": 119,
          "midi": 81,
          "name": "A5",
          "ticks": 148920,
          "time": 307.74075525,
          "velocity": 0.8818897637795275
        },
        {
          "duration": 0.18364203958333292,
          "durationTicks": 119,
          "midi": 82,
          "name": "A#5",
          "ticks": 149040,
          "time": 307.9259405,
          "velocity": 0.8818897637795275
        },
        {
          "duration": 1.1095682895833647,
          "durationTicks": 719,
          "midi": 63,
          "name": "D#4",
          "ticks": 149280,
          "time": 308.296311,
          "velocity": 0.8818897637795275
        },
        {
          "duration": 1.1095682895833647,
          "durationTicks": 719,
          "midi": 67,
          "name": "G4",
          "ticks": 149280,
          "time": 308.296311,
          "velocity": 0.8818897637795275
        },
        {
          "duration": 1.1095682895833647,
          "durationTicks": 719,
          "midi": 70,
          "name": "A#4",
          "ticks": 149280,
          "time": 308.296311,
          "velocity": 0.8818897637795275
        },
        {
          "duration": 0.18364203958333292,
          "durationTicks": 119,
          "midi": 75,
          "name": "D#5",
          "ticks": 150000,
          "time": 309.4074225,
          "velocity": 0.8818897637795275
        },
        {
          "duration": 0.18364203958333292,
          "durationTicks": 119,
          "midi": 79,
          "name": "G5",
          "ticks": 150120,
          "time": 309.59260775,
          "velocity": 0.8818897637795275
        },
        {
          "duration": 0.7391977895833293,
          "durationTicks": 479,
          "midi": 74,
          "name": "D5",
          "ticks": 150240,
          "time": 309.77779300000003,
          "velocity": 0.8818897637795275
        },
        {
          "duration": 1.4799387895832865,
          "durationTicks": 959,
          "midi": 69,
          "name": "A4",
          "ticks": 150240,
          "time": 309.77779300000003,
          "velocity": 0.8818897637795275
        },
        {
          "duration": 1.4799387895832865,
          "durationTicks": 959,
          "midi": 76,
          "name": "E5",
          "ticks": 150240,
          "time": 309.77779300000003,
          "velocity": 0.8818897637795275
        },
        {
          "duration": 1.4799387895832865,
          "durationTicks": 959,
          "midi": 81,
          "name": "A5",
          "ticks": 150240,
          "time": 309.77779300000003,
          "velocity": 0.8818897637795275
        },
        {
          "duration": 0.7391977895832724,
          "durationTicks": 479,
          "midi": 73,
          "name": "C#5",
          "ticks": 150720,
          "time": 310.51853400000005,
          "velocity": 0.8818897637795275
        },
        {
          "duration": 0.36882728958335065,
          "durationTicks": 239,
          "midi": 53,
          "name": "F3",
          "ticks": 151200,
          "time": 311.259275,
          "velocity": 0.7559055118110236
        },
        {
          "duration": 0.18364203958333292,
          "durationTicks": 119,
          "midi": 61,
          "name": "C#4",
          "ticks": 151440,
          "time": 311.62964550000004,
          "velocity": 0.7559055118110236
        },
        {
          "duration": 0.7391977895833293,
          "durationTicks": 479,
          "midi": 61,
          "name": "C#4",
          "ticks": 151680,
          "time": 312.000016,
          "velocity": 0.7559055118110236
        },
        {
          "duration": 0.7391977895833293,
          "durationTicks": 479,
          "midi": 65,
          "name": "F4",
          "ticks": 151680,
          "time": 312.000016,
          "velocity": 0.7559055118110236
        },
        {
          "duration": 0.7391977895833293,
          "durationTicks": 479,
          "midi": 68,
          "name": "G#4",
          "ticks": 151680,
          "time": 312.000016,
          "velocity": 0.7559055118110236
        },
        {
          "duration": 0.36882728958335065,
          "durationTicks": 239,
          "midi": 55,
          "name": "G3",
          "ticks": 152160,
          "time": 312.74075700000003,
          "velocity": 0.7559055118110236
        },
        {
          "duration": 0.36882728958335065,
          "durationTicks": 239,
          "midi": 58,
          "name": "A#3",
          "ticks": 152160,
          "time": 312.74075700000003,
          "velocity": 0.7559055118110236
        },
        {
          "duration": 0.36882728958335065,
          "durationTicks": 239,
          "midi": 63,
          "name": "D#4",
          "ticks": 152160,
          "time": 312.74075700000003,
          "velocity": 0.7559055118110236
        },
        {
          "duration": 0.7391977895833293,
          "durationTicks": 479,
          "midi": 63,
          "name": "D#4",
          "ticks": 152400,
          "time": 313.1111275,
          "velocity": 0.7559055118110236
        },
        {
          "duration": 0.7391977895833293,
          "durationTicks": 479,
          "midi": 67,
          "name": "G4",
          "ticks": 152400,
          "time": 313.1111275,
          "velocity": 0.7559055118110236
        },
        {
          "duration": 0.7391977895833293,
          "durationTicks": 479,
          "midi": 70,
          "name": "A#4",
          "ticks": 152400,
          "time": 313.1111275,
          "velocity": 0.7559055118110236
        },
        {
          "duration": 0.18364203958333292,
          "durationTicks": 119,
          "midi": 70,
          "name": "A#4",
          "ticks": 152880,
          "time": 313.8518685,
          "velocity": 0.7559055118110236
        },
        {
          "duration": 0.18364203958333292,
          "durationTicks": 119,
          "midi": 72,
          "name": "C5",
          "ticks": 153000,
          "time": 314.03705375000004,
          "velocity": 0.7559055118110236
        },
        {
          "duration": 0.5540125395833115,
          "durationTicks": 359,
          "midi": 65,
          "name": "F4",
          "ticks": 153120,
          "time": 314.222239,
          "velocity": 0.7559055118110236
        },
        {
          "duration": 0.5540125395833115,
          "durationTicks": 359,
          "midi": 70,
          "name": "A#4",
          "ticks": 153120,
          "time": 314.222239,
          "velocity": 0.7559055118110236
        },
        {
          "duration": 0.5540125395833115,
          "durationTicks": 359,
          "midi": 73,
          "name": "C#5",
          "ticks": 153120,
          "time": 314.222239,
          "velocity": 0.7559055118110236
        },
        {
          "duration": 0.18364203958333292,
          "durationTicks": 119,
          "midi": 73,
          "name": "C#5",
          "ticks": 153480,
          "time": 314.77779475,
          "velocity": 0.7559055118110236
        },
        {
          "duration": 0.36882728958335065,
          "durationTicks": 239,
          "midi": 65,
          "name": "F4",
          "ticks": 153600,
          "time": 314.96298,
          "velocity": 0.7559055118110236
        },
        {
          "duration": 0.36882728958335065,
          "durationTicks": 239,
          "midi": 68,
          "name": "G#4",
          "ticks": 153600,
          "time": 314.96298,
          "velocity": 0.7559055118110236
        },
        {
          "duration": 0.36882728958335065,
          "durationTicks": 239,
          "midi": 72,
          "name": "C5",
          "ticks": 153600,
          "time": 314.96298,
          "velocity": 0.7559055118110236
        },
        {
          "duration": 0.36882728958335065,
          "durationTicks": 239,
          "midi": 68,
          "name": "G#4",
          "ticks": 153840,
          "time": 315.3333505,
          "velocity": 0.7559055118110236
        },
        {
          "duration": 1.4799387895832865,
          "durationTicks": 959,
          "midi": 61,
          "name": "C#4",
          "ticks": 154080,
          "time": 315.70372100000003,
          "velocity": 0.7559055118110236
        },
        {
          "duration": 1.4799387895832865,
          "durationTicks": 959,
          "midi": 66,
          "name": "F#4",
          "ticks": 154080,
          "time": 315.70372100000003,
          "velocity": 0.7559055118110236
        },
        {
          "duration": 1.4799387895832865,
          "durationTicks": 959,
          "midi": 70,
          "name": "A#4",
          "ticks": 154080,
          "time": 315.70372100000003,
          "velocity": 0.7559055118110236
        },
        {
          "duration": 0.7391977895833293,
          "durationTicks": 479,
          "midi": 61,
          "name": "C#4",
          "ticks": 155040,
          "time": 317.185203,
          "velocity": 0.7559055118110236
        },
        {
          "duration": 0.7391977895833293,
          "durationTicks": 479,
          "midi": 65,
          "name": "F4",
          "ticks": 155040,
          "time": 317.185203,
          "velocity": 0.7559055118110236
        },
        {
          "duration": 0.3688272895832938,
          "durationTicks": 239,
          "midi": 73,
          "name": "C#5",
          "ticks": 155280,
          "time": 317.55557350000004,
          "velocity": 0.7559055118110236
        },
        {
          "duration": 0.7391977895833293,
          "durationTicks": 479,
          "midi": 60,
          "name": "C4",
          "ticks": 155520,
          "time": 317.925944,
          "velocity": 0.7559055118110236
        },
        {
          "duration": 0.7391977895833293,
          "durationTicks": 479,
          "midi": 65,
          "name": "F4",
          "ticks": 155520,
          "time": 317.925944,
          "velocity": 0.7559055118110236
        },
        {
          "duration": 0.36882728958335065,
          "durationTicks": 239,
          "midi": 72,
          "name": "C5",
          "ticks": 155520,
          "time": 317.925944,
          "velocity": 0.7559055118110236
        },
        {
          "duration": 0.36882728958335065,
          "durationTicks": 239,
          "midi": 68,
          "name": "G#4",
          "ticks": 155760,
          "time": 318.2963145,
          "velocity": 0.7559055118110236
        },
        {
          "duration": 0.5540125395833115,
          "durationTicks": 359,
          "midi": 60,
          "name": "C4",
          "ticks": 156000,
          "time": 318.66668500000003,
          "velocity": 0.7559055118110236
        },
        {
          "duration": 0.5540125395833115,
          "durationTicks": 359,
          "midi": 65,
          "name": "F4",
          "ticks": 156000,
          "time": 318.66668500000003,
          "velocity": 0.7559055118110236
        },
        {
          "duration": 0.5540125395833115,
          "durationTicks": 359,
          "midi": 69,
          "name": "A4",
          "ticks": 156000,
          "time": 318.66668500000003,
          "velocity": 0.7559055118110236
        },
        {
          "duration": 0.18364203958333292,
          "durationTicks": 119,
          "midi": 65,
          "name": "F4",
          "ticks": 156360,
          "time": 319.22224075,
          "velocity": 0.7559055118110236
        },
        {
          "duration": 0.18364203958333292,
          "durationTicks": 119,
          "midi": 61,
          "name": "C#4",
          "ticks": 156480,
          "time": 319.407426,
          "velocity": 0.7559055118110236
        },
        {
          "duration": 0.18364203958333292,
          "durationTicks": 119,
          "midi": 65,
          "name": "F4",
          "ticks": 156480,
          "time": 319.407426,
          "velocity": 0.7559055118110236
        },
        {
          "duration": 0.18364203958333292,
          "durationTicks": 119,
          "midi": 70,
          "name": "A#4",
          "ticks": 156480,
          "time": 319.407426,
          "velocity": 0.7559055118110236
        },
        {
          "duration": 0.18364203958333292,
          "durationTicks": 119,
          "midi": 72,
          "name": "C5",
          "ticks": 156600,
          "time": 319.59261125,
          "velocity": 0.7559055118110236
        },
        {
          "duration": 0.18364203958333292,
          "durationTicks": 119,
          "midi": 73,
          "name": "C#5",
          "ticks": 156720,
          "time": 319.7777965,
          "velocity": 0.7559055118110236
        },
        {
          "duration": 1.4799387895833434,
          "durationTicks": 959,
          "midi": 64,
          "name": "E4",
          "ticks": 156960,
          "time": 320.148167,
          "velocity": 0.6299212598425197
        },
        {
          "duration": 1.4799387895833434,
          "durationTicks": 959,
          "midi": 69,
          "name": "A4",
          "ticks": 156960,
          "time": 320.148167,
          "velocity": 0.6299212598425197
        },
        {
          "duration": 1.4799387895833434,
          "durationTicks": 959,
          "midi": 73,
          "name": "C#5",
          "ticks": 156960,
          "time": 320.148167,
          "velocity": 0.6299212598425197
        },
        {
          "duration": 1.4799387895833434,
          "durationTicks": 959,
          "midi": 76,
          "name": "E5",
          "ticks": 156960,
          "time": 320.148167,
          "velocity": 0.6299212598425197
        },
        {
          "duration": 0.18364203958333292,
          "durationTicks": 119,
          "midi": 64,
          "name": "E4",
          "ticks": 157920,
          "time": 321.62964900000003,
          "velocity": 0.6299212598425197
        },
        {
          "duration": 0.18364203958333292,
          "durationTicks": 119,
          "midi": 69,
          "name": "A4",
          "ticks": 157920,
          "time": 321.62964900000003,
          "velocity": 0.6299212598425197
        },
        {
          "duration": 0.18364203958333292,
          "durationTicks": 119,
          "midi": 73,
          "name": "C#5",
          "ticks": 157920,
          "time": 321.62964900000003,
          "velocity": 0.6299212598425197
        },
        {
          "duration": 0.18364203958333292,
          "durationTicks": 119,
          "midi": 76,
          "name": "E5",
          "ticks": 157920,
          "time": 321.62964900000003,
          "velocity": 0.6299212598425197
        },
        {
          "duration": 1.1095682895833647,
          "durationTicks": 719,
          "midi": 66,
          "name": "F#4",
          "ticks": 158040,
          "time": 321.81483425,
          "velocity": 0.6299212598425197
        },
        {
          "duration": 1.1095682895833647,
          "durationTicks": 719,
          "midi": 71,
          "name": "B4",
          "ticks": 158040,
          "time": 321.81483425,
          "velocity": 0.6299212598425197
        },
        {
          "duration": 1.1095682895833647,
          "durationTicks": 719,
          "midi": 75,
          "name": "D#5",
          "ticks": 158040,
          "time": 321.81483425,
          "velocity": 0.6299212598425197
        },
        {
          "duration": 1.1095682895833647,
          "durationTicks": 719,
          "midi": 78,
          "name": "F#5",
          "ticks": 158040,
          "time": 321.81483425,
          "velocity": 0.6299212598425197
        },
        {
          "duration": 0.18364203958333292,
          "durationTicks": 119,
          "midi": 66,
          "name": "F#4",
          "ticks": 158760,
          "time": 322.92594575,
          "velocity": 0.6299212598425197
        },
        {
          "duration": 0.18364203958333292,
          "durationTicks": 119,
          "midi": 71,
          "name": "B4",
          "ticks": 158760,
          "time": 322.92594575,
          "velocity": 0.6299212598425197
        },
        {
          "duration": 0.18364203958333292,
          "durationTicks": 119,
          "midi": 75,
          "name": "D#5",
          "ticks": 158760,
          "time": 322.92594575,
          "velocity": 0.6299212598425197
        },
        {
          "duration": 0.18364203958333292,
          "durationTicks": 119,
          "midi": 78,
          "name": "F#5",
          "ticks": 158760,
          "time": 322.92594575,
          "velocity": 0.6299212598425197
        },
        {
          "duration": 0.18364203958333292,
          "durationTicks": 119,
          "midi": 66,
          "name": "F#4",
          "ticks": 158880,
          "time": 323.111131,
          "velocity": 0.6299212598425197
        },
        {
          "duration": 0.18364203958333292,
          "durationTicks": 119,
          "midi": 71,
          "name": "B4",
          "ticks": 158880,
          "time": 323.111131,
          "velocity": 0.6299212598425197
        },
        {
          "duration": 0.18364203958333292,
          "durationTicks": 119,
          "midi": 75,
          "name": "D#5",
          "ticks": 158880,
          "time": 323.111131,
          "velocity": 0.6299212598425197
        },
        {
          "duration": 0.18364203958333292,
          "durationTicks": 119,
          "midi": 78,
          "name": "F#5",
          "ticks": 158880,
          "time": 323.111131,
          "velocity": 0.6299212598425197
        },
        {
          "duration": 1.2947535395833256,
          "durationTicks": 839,
          "midi": 69,
          "name": "A4",
          "ticks": 159000,
          "time": 323.29631625,
          "velocity": 0.6299212598425197
        },
        {
          "duration": 1.2947535395833256,
          "durationTicks": 839,
          "midi": 74,
          "name": "D5",
          "ticks": 159000,
          "time": 323.29631625,
          "velocity": 0.6299212598425197
        },
        {
          "duration": 1.2947535395833256,
          "durationTicks": 839,
          "midi": 78,
          "name": "F#5",
          "ticks": 159000,
          "time": 323.29631625,
          "velocity": 0.6299212598425197
        },
        {
          "duration": 1.2947535395833256,
          "durationTicks": 839,
          "midi": 81,
          "name": "A5",
          "ticks": 159000,
          "time": 323.29631625,
          "velocity": 0.6299212598425197
        },
        {
          "duration": 1.4799387895833434,
          "durationTicks": 959,
          "midi": 72,
          "name": "C5",
          "ticks": 159840,
          "time": 324.59261300000003,
          "velocity": 0.6299212598425197
        },
        {
          "duration": 1.4799387895833434,
          "durationTicks": 959,
          "midi": 75,
          "name": "D#5",
          "ticks": 159840,
          "time": 324.59261300000003,
          "velocity": 0.6299212598425197
        },
        {
          "duration": 1.4799387895833434,
          "durationTicks": 959,
          "midi": 79,
          "name": "G5",
          "ticks": 159840,
          "time": 324.59261300000003,
          "velocity": 0.6299212598425197
        },
        {
          "duration": 1.4799387895833434,
          "durationTicks": 959,
          "midi": 81,
          "name": "A5",
          "ticks": 159840,
          "time": 324.59261300000003,
          "velocity": 0.6299212598425197
        },
        {
          "duration": 2.591050289583336,
          "durationTicks": 1679,
          "midi": 63,
          "name": "D#4",
          "ticks": 160800,
          "time": 326.074095,
          "velocity": 0.8818897637795275
        },
        {
          "duration": 2.591050289583336,
          "durationTicks": 1679,
          "midi": 67,
          "name": "G4",
          "ticks": 160800,
          "time": 326.074095,
          "velocity": 0.8818897637795275
        },
        {
          "duration": 2.591050289583336,
          "durationTicks": 1679,
          "midi": 70,
          "name": "A#4",
          "ticks": 160800,
          "time": 326.074095,
          "velocity": 0.8818897637795275
        },
        {
          "duration": 0.36882728958335065,
          "durationTicks": 239,
          "midi": 75,
          "name": "D#5",
          "ticks": 161040,
          "time": 326.4444655,
          "velocity": 0.8818897637795275
        },
        {
          "duration": 0.36882728958335065,
          "durationTicks": 239,
          "midi": 87,
          "name": "D#6",
          "ticks": 161040,
          "time": 326.4444655,
          "velocity": 0.8818897637795275
        },
        {
          "duration": 0.36882728958335065,
          "durationTicks": 239,
          "midi": 77,
          "name": "F5",
          "ticks": 161280,
          "time": 326.814836,
          "velocity": 0.8818897637795275
        },
        {
          "duration": 0.36882728958335065,
          "durationTicks": 239,
          "midi": 89,
          "name": "F6",
          "ticks": 161280,
          "time": 326.814836,
          "velocity": 0.8818897637795275
        },
        {
          "duration": 0.18364203958338976,
          "durationTicks": 119,
          "midi": 75,
          "name": "D#5",
          "ticks": 161520,
          "time": 327.1852065,
          "velocity": 0.8818897637795275
        },
        {
          "duration": 0.18364203958338976,
          "durationTicks": 119,
          "midi": 87,
          "name": "D#6",
          "ticks": 161520,
          "time": 327.1852065,
          "velocity": 0.8818897637795275
        },
        {
          "duration": 0.18364203958333292,
          "durationTicks": 119,
          "midi": 74,
          "name": "D5",
          "ticks": 161640,
          "time": 327.37039175,
          "velocity": 0.8818897637795275
        },
        {
          "duration": 0.18364203958333292,
          "durationTicks": 119,
          "midi": 86,
          "name": "D6",
          "ticks": 161640,
          "time": 327.37039175,
          "velocity": 0.8818897637795275
        },
        {
          "duration": 0.3688272895832938,
          "durationTicks": 239,
          "midi": 75,
          "name": "D#5",
          "ticks": 161760,
          "time": 327.555577,
          "velocity": 0.8818897637795275
        },
        {
          "duration": 0.3688272895832938,
          "durationTicks": 239,
          "midi": 87,
          "name": "D#6",
          "ticks": 161760,
          "time": 327.555577,
          "velocity": 0.8818897637795275
        },
        {
          "duration": 0.36882728958335065,
          "durationTicks": 239,
          "midi": 74,
          "name": "D5",
          "ticks": 162000,
          "time": 327.9259475,
          "velocity": 0.8818897637795275
        },
        {
          "duration": 0.36882728958335065,
          "durationTicks": 239,
          "midi": 86,
          "name": "D6",
          "ticks": 162000,
          "time": 327.9259475,
          "velocity": 0.8818897637795275
        },
        {
          "duration": 0.7391977895832724,
          "durationTicks": 479,
          "midi": 72,
          "name": "C5",
          "ticks": 162240,
          "time": 328.29631800000004,
          "velocity": 0.8818897637795275
        },
        {
          "duration": 0.7391977895832724,
          "durationTicks": 479,
          "midi": 84,
          "name": "C6",
          "ticks": 162240,
          "time": 328.29631800000004,
          "velocity": 0.8818897637795275
        },
        {
          "duration": 0.3688272895832938,
          "durationTicks": 239,
          "midi": 63,
          "name": "D#4",
          "ticks": 162480,
          "time": 328.6666885,
          "velocity": 0.8818897637795275
        },
        {
          "duration": 0.3688272895832938,
          "durationTicks": 239,
          "midi": 67,
          "name": "G4",
          "ticks": 162480,
          "time": 328.6666885,
          "velocity": 0.8818897637795275
        },
        {
          "duration": 0.3688272895832938,
          "durationTicks": 239,
          "midi": 70,
          "name": "A#4",
          "ticks": 162480,
          "time": 328.6666885,
          "velocity": 0.8818897637795275
        },
        {
          "duration": 1.1095682895833647,
          "durationTicks": 719,
          "midi": 63,
          "name": "D#4",
          "ticks": 162720,
          "time": 329.037059,
          "velocity": 0.8818897637795275
        },
        {
          "duration": 1.1095682895833647,
          "durationTicks": 719,
          "midi": 68,
          "name": "G#4",
          "ticks": 162720,
          "time": 329.037059,
          "velocity": 0.8818897637795275
        },
        {
          "duration": 1.1095682895833647,
          "durationTicks": 719,
          "midi": 70,
          "name": "A#4",
          "ticks": 162720,
          "time": 329.037059,
          "velocity": 0.8818897637795275
        },
        {
          "duration": 0.3688272895832938,
          "durationTicks": 239,
          "midi": 75,
          "name": "D#5",
          "ticks": 162960,
          "time": 329.40742950000003,
          "velocity": 0.8818897637795275
        },
        {
          "duration": 0.3688272895832938,
          "durationTicks": 239,
          "midi": 87,
          "name": "D#6",
          "ticks": 162960,
          "time": 329.40742950000003,
          "velocity": 0.8818897637795275
        },
        {
          "duration": 0.36882728958335065,
          "durationTicks": 239,
          "midi": 77,
          "name": "F5",
          "ticks": 163200,
          "time": 329.7778,
          "velocity": 0.8818897637795275
        },
        {
          "duration": 0.36882728958335065,
          "durationTicks": 239,
          "midi": 89,
          "name": "F6",
          "ticks": 163200,
          "time": 329.7778,
          "velocity": 0.8818897637795275
        },
        {
          "duration": 0.36882728958335065,
          "durationTicks": 239,
          "midi": 63,
          "name": "D#4",
          "ticks": 163440,
          "time": 330.1481705,
          "velocity": 0.8818897637795275
        },
        {
          "duration": 0.36882728958335065,
          "durationTicks": 239,
          "midi": 68,
          "name": "G#4",
          "ticks": 163440,
          "time": 330.1481705,
          "velocity": 0.8818897637795275
        },
        {
          "duration": 0.36882728958335065,
          "durationTicks": 239,
          "midi": 70,
          "name": "A#4",
          "ticks": 163440,
          "time": 330.1481705,
          "velocity": 0.8818897637795275
        },
        {
          "duration": 0.18364203958333292,
          "durationTicks": 119,
          "midi": 75,
          "name": "D#5",
          "ticks": 163440,
          "time": 330.1481705,
          "velocity": 0.8818897637795275
        },
        {
          "duration": 0.18364203958333292,
          "durationTicks": 119,
          "midi": 87,
          "name": "D#6",
          "ticks": 163440,
          "time": 330.1481705,
          "velocity": 0.8818897637795275
        },
        {
          "duration": 0.18364203958333292,
          "durationTicks": 119,
          "midi": 74,
          "name": "D5",
          "ticks": 163560,
          "time": 330.33335575,
          "velocity": 0.8818897637795275
        },
        {
          "duration": 0.18364203958333292,
          "durationTicks": 119,
          "midi": 86,
          "name": "D6",
          "ticks": 163560,
          "time": 330.33335575,
          "velocity": 0.8818897637795275
        },
        {
          "duration": 1.4799387895833434,
          "durationTicks": 959,
          "midi": 63,
          "name": "D#4",
          "ticks": 163680,
          "time": 330.518541,
          "velocity": 0.8818897637795275
        },
        {
          "duration": 1.4799387895833434,
          "durationTicks": 959,
          "midi": 68,
          "name": "G#4",
          "ticks": 163680,
          "time": 330.518541,
          "velocity": 0.8818897637795275
        },
        {
          "duration": 1.4799387895833434,
          "durationTicks": 959,
          "midi": 72,
          "name": "C5",
          "ticks": 163680,
          "time": 330.518541,
          "velocity": 0.8818897637795275
        },
        {
          "duration": 0.36882728958335065,
          "durationTicks": 239,
          "midi": 75,
          "name": "D#5",
          "ticks": 163680,
          "time": 330.518541,
          "velocity": 0.8818897637795275
        },
        {
          "duration": 0.36882728958335065,
          "durationTicks": 239,
          "midi": 87,
          "name": "D#6",
          "ticks": 163680,
          "time": 330.518541,
          "velocity": 0.8818897637795275
        },
        {
          "duration": 0.36882728958335065,
          "durationTicks": 239,
          "midi": 82,
          "name": "A#5",
          "ticks": 163920,
          "time": 330.8889115,
          "velocity": 0.8818897637795275
        },
        {
          "duration": 0.7391977895833861,
          "durationTicks": 479,
          "midi": 84,
          "name": "C6",
          "ticks": 164160,
          "time": 331.259282,
          "velocity": 0.8818897637795275
        },
        {
          "duration": 0.18364203958338976,
          "durationTicks": 119,
          "midi": 52,
          "name": "E3",
          "ticks": 164880,
          "time": 332.3703935,
          "velocity": 0.8818897637795275
        },
        {
          "duration": 0.18364203958338976,
          "durationTicks": 119,
          "midi": 55,
          "name": "G3",
          "ticks": 164880,
          "time": 332.3703935,
          "velocity": 0.8818897637795275
        },
        {
          "duration": 0.18364203958338976,
          "durationTicks": 119,
          "midi": 60,
          "name": "C4",
          "ticks": 164880,
          "time": 332.3703935,
          "velocity": 0.8818897637795275
        },
        {
          "duration": 0.7391977895833293,
          "durationTicks": 479,
          "midi": 60,
          "name": "C4",
          "ticks": 165120,
          "time": 332.740764,
          "velocity": 0.8818897637795275
        },
        {
          "duration": 0.7391977895833293,
          "durationTicks": 479,
          "midi": 64,
          "name": "E4",
          "ticks": 165120,
          "time": 332.740764,
          "velocity": 0.8818897637795275
        },
        {
          "duration": 0.7391977895833293,
          "durationTicks": 479,
          "midi": 67,
          "name": "G4",
          "ticks": 165120,
          "time": 332.740764,
          "velocity": 0.8818897637795275
        },
        {
          "duration": 0.18364203958333292,
          "durationTicks": 119,
          "midi": 54,
          "name": "F#3",
          "ticks": 165600,
          "time": 333.481505,
          "velocity": 0.8818897637795275
        },
        {
          "duration": 0.18364203958333292,
          "durationTicks": 119,
          "midi": 57,
          "name": "A3",
          "ticks": 165600,
          "time": 333.481505,
          "velocity": 0.8818897637795275
        },
        {
          "duration": 0.18364203958333292,
          "durationTicks": 119,
          "midi": 62,
          "name": "D4",
          "ticks": 165600,
          "time": 333.481505,
          "velocity": 0.8818897637795275
        },
        {
          "duration": 0.7391977895833293,
          "durationTicks": 479,
          "midi": 62,
          "name": "D4",
          "ticks": 165840,
          "time": 333.8518755,
          "velocity": 0.8818897637795275
        },
        {
          "duration": 0.7391977895833293,
          "durationTicks": 479,
          "midi": 66,
          "name": "F#4",
          "ticks": 165840,
          "time": 333.8518755,
          "velocity": 0.8818897637795275
        },
        {
          "duration": 0.7391977895833293,
          "durationTicks": 479,
          "midi": 69,
          "name": "A4",
          "ticks": 165840,
          "time": 333.8518755,
          "velocity": 0.8818897637795275
        },
        {
          "duration": 0.18364203958333292,
          "durationTicks": 119,
          "midi": 69,
          "name": "A4",
          "ticks": 166320,
          "time": 334.5926165,
          "velocity": 0.8818897637795275
        },
        {
          "duration": 0.18364203958333292,
          "durationTicks": 119,
          "midi": 71,
          "name": "B4",
          "ticks": 166440,
          "time": 334.77780175,
          "velocity": 0.8818897637795275
        },
        {
          "duration": 0.5540125395833684,
          "durationTicks": 359,
          "midi": 64,
          "name": "E4",
          "ticks": 166560,
          "time": 334.962987,
          "velocity": 0.8818897637795275
        },
        {
          "duration": 0.5540125395833684,
          "durationTicks": 359,
          "midi": 69,
          "name": "A4",
          "ticks": 166560,
          "time": 334.962987,
          "velocity": 0.8818897637795275
        },
        {
          "duration": 0.5540125395833684,
          "durationTicks": 359,
          "midi": 72,
          "name": "C5",
          "ticks": 166560,
          "time": 334.962987,
          "velocity": 0.8818897637795275
        },
        {
          "duration": 0.18364203958333292,
          "durationTicks": 119,
          "midi": 72,
          "name": "C5",
          "ticks": 166920,
          "time": 335.51854275,
          "velocity": 0.8818897637795275
        },
        {
          "duration": 0.36882728958335065,
          "durationTicks": 239,
          "midi": 64,
          "name": "E4",
          "ticks": 167040,
          "time": 335.703728,
          "velocity": 0.8818897637795275
        },
        {
          "duration": 0.36882728958335065,
          "durationTicks": 239,
          "midi": 67,
          "name": "G4",
          "ticks": 167040,
          "time": 335.703728,
          "velocity": 0.8818897637795275
        },
        {
          "duration": 0.36882728958335065,
          "durationTicks": 239,
          "midi": 71,
          "name": "B4",
          "ticks": 167040,
          "time": 335.703728,
          "velocity": 0.8818897637795275
        },
        {
          "duration": 0.36882728958335065,
          "durationTicks": 239,
          "midi": 67,
          "name": "G4",
          "ticks": 167280,
          "time": 336.0740985,
          "velocity": 0.8818897637795275
        },
        {
          "duration": 1.4799387895833434,
          "durationTicks": 959,
          "midi": 60,
          "name": "C4",
          "ticks": 167520,
          "time": 336.444469,
          "velocity": 0.8818897637795275
        },
        {
          "duration": 1.4799387895833434,
          "durationTicks": 959,
          "midi": 65,
          "name": "F4",
          "ticks": 167520,
          "time": 336.444469,
          "velocity": 0.8818897637795275
        },
        {
          "duration": 1.4799387895833434,
          "durationTicks": 959,
          "midi": 69,
          "name": "A4",
          "ticks": 167520,
          "time": 336.444469,
          "velocity": 0.8818897637795275
        },
        {
          "duration": 0.3688272895832938,
          "durationTicks": 239,
          "midi": 77,
          "name": "F5",
          "ticks": 168720,
          "time": 338.29632150000003,
          "velocity": 0.6299212598425197
        },
        {
          "duration": 0.36882728958335065,
          "durationTicks": 239,
          "midi": 76,
          "name": "E5",
          "ticks": 168960,
          "time": 338.666692,
          "velocity": 0.6299212598425197
        },
        {
          "duration": 0.3688272895832938,
          "durationTicks": 239,
          "midi": 72,
          "name": "C5",
          "ticks": 169200,
          "time": 339.03706250000005,
          "velocity": 0.6299212598425197
        },
        {
          "duration": 0.5540125395833115,
          "durationTicks": 359,
          "midi": 69,
          "name": "A4",
          "ticks": 169440,
          "time": 339.407433,
          "velocity": 0.6299212598425197
        },
        {
          "duration": 0.5540125395833115,
          "durationTicks": 359,
          "midi": 73,
          "name": "C#5",
          "ticks": 169440,
          "time": 339.407433,
          "velocity": 0.6299212598425197
        },
        {
          "duration": 0.18364203958333292,
          "durationTicks": 119,
          "midi": 69,
          "name": "A4",
          "ticks": 169800,
          "time": 339.96298875,
          "velocity": 0.6299212598425197
        },
        {
          "duration": 0.18364203958333292,
          "durationTicks": 119,
          "midi": 74,
          "name": "D5",
          "ticks": 169920,
          "time": 340.14817400000004,
          "velocity": 0.6299212598425197
        },
        {
          "duration": 0.18364203958333292,
          "durationTicks": 119,
          "midi": 76,
          "name": "E5",
          "ticks": 170040,
          "time": 340.33335925,
          "velocity": 0.6299212598425197
        },
        {
          "duration": 0.18364203958333292,
          "durationTicks": 119,
          "midi": 77,
          "name": "F5",
          "ticks": 170160,
          "time": 340.5185445,
          "velocity": 0.6299212598425197
        },
        {
          "duration": 0.18364203958333292,
          "durationTicks": 119,
          "midi": 66,
          "name": "F#4",
          "ticks": 170520,
          "time": 341.07410025,
          "velocity": 0.6299212598425197
        },
        {
          "duration": 0.09104941458332405,
          "durationTicks": 59,
          "midi": 65,
          "name": "F4",
          "ticks": 170640,
          "time": 341.25928550000003,
          "velocity": 0.6299212598425197
        },
        {
          "duration": 0.18364203958333292,
          "durationTicks": 119,
          "midi": 63,
          "name": "D#4",
          "ticks": 170760,
          "time": 341.44447075,
          "velocity": 0.6299212598425197
        },
        {
          "duration": 0.18364203958333292,
          "durationTicks": 119,
          "midi": 61,
          "name": "C#4",
          "ticks": 170880,
          "time": 341.629656,
          "velocity": 0.6299212598425197
        },
        {
          "duration": 0.5540125395833115,
          "durationTicks": 359,
          "midi": 59,
          "name": "B3",
          "ticks": 171000,
          "time": 341.81484125000003,
          "velocity": 0.6299212598425197
        },
        {
          "duration": 0.18364203958333292,
          "durationTicks": 119,
          "midi": 73,
          "name": "C#5",
          "ticks": 171480,
          "time": 342.55558225000004,
          "velocity": 0.6299212598425197
        },
        {
          "duration": 0.09104941458332405,
          "durationTicks": 59,
          "midi": 72,
          "name": "C5",
          "ticks": 171600,
          "time": 342.7407675,
          "velocity": 0.6299212598425197
        },
        {
          "duration": 0.09104941458332405,
          "durationTicks": 59,
          "midi": 70,
          "name": "A#4",
          "ticks": 171720,
          "time": 342.92595275,
          "velocity": 0.6299212598425197
        },
        {
          "duration": 0.18364203958333292,
          "durationTicks": 119,
          "midi": 68,
          "name": "G#4",
          "ticks": 171840,
          "time": 343.111138,
          "velocity": 0.6299212598425197
        },
        {
          "duration": 0.0910494145833809,
          "durationTicks": 59,
          "midi": 78,
          "name": "F#5",
          "ticks": 171960,
          "time": 343.29632325,
          "velocity": 0.6299212598425197
        },
        {
          "duration": 0.09104941458332405,
          "durationTicks": 59,
          "midi": 77,
          "name": "F5",
          "ticks": 172080,
          "time": 343.4815085,
          "velocity": 0.6299212598425197
        },
        {
          "duration": 0.09104941458332405,
          "durationTicks": 59,
          "midi": 75,
          "name": "D#5",
          "ticks": 172200,
          "time": 343.66669375000004,
          "velocity": 0.6299212598425197
        },
        {
          "duration": 0.09104941458332405,
          "durationTicks": 59,
          "midi": 72,
          "name": "C5",
          "ticks": 172440,
          "time": 344.03706425,
          "velocity": 0.6299212598425197
        },
        {
          "duration": 0.09104941458332405,
          "durationTicks": 59,
          "midi": 77,
          "name": "F5",
          "ticks": 172560,
          "time": 344.22224950000003,
          "velocity": 0.6299212598425197
        },
        {
          "duration": 0.0910494145833809,
          "durationTicks": 59,
          "midi": 72,
          "name": "C5",
          "ticks": 172680,
          "time": 344.40743475,
          "velocity": 0.6299212598425197
        },
        {
          "duration": 0.36882728958335065,
          "durationTicks": 239,
          "midi": 72,
          "name": "C5",
          "ticks": 172800,
          "time": 344.59262,
          "velocity": 0.7559055118110236
        },
        {
          "duration": 0.3688272895832938,
          "durationTicks": 239,
          "midi": 77,
          "name": "F5",
          "ticks": 173040,
          "time": 344.96299050000005,
          "velocity": 0.7559055118110236
        },
        {
          "duration": 0.0910494145833809,
          "durationTicks": 59,
          "midi": 72,
          "name": "C5",
          "ticks": 173400,
          "time": 345.51854625,
          "velocity": 0.6299212598425197
        },
        {
          "duration": 0.09104941458332405,
          "durationTicks": 59,
          "midi": 77,
          "name": "F5",
          "ticks": 173520,
          "time": 345.7037315,
          "velocity": 0.6299212598425197
        },
        {
          "duration": 0.09104941458332405,
          "durationTicks": 59,
          "midi": 72,
          "name": "C5",
          "ticks": 173640,
          "time": 345.88891675,
          "velocity": 0.6299212598425197
        },
        {
          "duration": 0.3688272895832938,
          "durationTicks": 239,
          "midi": 77,
          "name": "F5",
          "ticks": 173760,
          "time": 346.07410200000004,
          "velocity": 0.6299212598425197
        },
        {
          "duration": 0.18364203958333292,
          "durationTicks": 119,
          "midi": 72,
          "name": "C5",
          "ticks": 174360,
          "time": 347.00002825,
          "velocity": 0.6299212598425197
        },
        {
          "duration": 0.09104941458332405,
          "durationTicks": 59,
          "midi": 71,
          "name": "B4",
          "ticks": 174480,
          "time": 347.18521350000003,
          "velocity": 0.6299212598425197
        },
        {
          "duration": 0.09104941458332405,
          "durationTicks": 59,
          "midi": 69,
          "name": "A4",
          "ticks": 174600,
          "time": 347.37039875,
          "velocity": 0.6299212598425197
        },
        {
          "duration": 0.18364203958333292,
          "durationTicks": 119,
          "midi": 71,
          "name": "B4",
          "ticks": 174720,
          "time": 347.555584,
          "velocity": 0.6299212598425197
        },
        {
          "duration": 0.18364203958333292,
          "durationTicks": 119,
          "midi": 72,
          "name": "C5",
          "ticks": 174840,
          "time": 347.74076925,
          "velocity": 0.6299212598425197
        },
        {
          "duration": 0.18364203958333292,
          "durationTicks": 119,
          "midi": 74,
          "name": "D5",
          "ticks": 174960,
          "time": 347.9259545,
          "velocity": 0.6299212598425197
        },
        {
          "duration": 0.18364203958333292,
          "durationTicks": 119,
          "midi": 76,
          "name": "E5",
          "ticks": 175080,
          "time": 348.11113975,
          "velocity": 0.6299212598425197
        },
        {
          "duration": 0.18364203958333292,
          "durationTicks": 119,
          "midi": 77,
          "name": "F5",
          "ticks": 175200,
          "time": 348.296325,
          "velocity": 0.6299212598425197
        },
        {
          "duration": 0.09104941458332405,
          "durationTicks": 59,
          "midi": 76,
          "name": "E5",
          "ticks": 175320,
          "time": 348.48151025000004,
          "velocity": 0.6299212598425197
        },
        {
          "duration": 0.09104941458332405,
          "durationTicks": 59,
          "midi": 74,
          "name": "D5",
          "ticks": 175440,
          "time": 348.6666955,
          "velocity": 0.6299212598425197
        },
        {
          "duration": 0.09104941458332405,
          "durationTicks": 59,
          "midi": 76,
          "name": "E5",
          "ticks": 175560,
          "time": 348.85188075,
          "velocity": 0.6299212598425197
        },
        {
          "duration": 0.18364203958333292,
          "durationTicks": 119,
          "midi": 74,
          "name": "D5",
          "ticks": 175680,
          "time": 349.037066,
          "velocity": 0.6299212598425197
        },
        {
          "duration": 0.18364203958333292,
          "durationTicks": 119,
          "midi": 77,
          "name": "F5",
          "ticks": 175680,
          "time": 349.037066,
          "velocity": 0.6299212598425197
        },
        {
          "duration": 0.18364203958333292,
          "durationTicks": 119,
          "midi": 76,
          "name": "E5",
          "ticks": 175800,
          "time": 349.22225125,
          "velocity": 0.6299212598425197
        },
        {
          "duration": 0.18364203958333292,
          "durationTicks": 119,
          "midi": 79,
          "name": "G5",
          "ticks": 175800,
          "time": 349.22225125,
          "velocity": 0.6299212598425197
        },
        {
          "duration": 0.18364203958333292,
          "durationTicks": 119,
          "midi": 77,
          "name": "F5",
          "ticks": 175920,
          "time": 349.4074365,
          "velocity": 0.6299212598425197
        },
        {
          "duration": 0.18364203958333292,
          "durationTicks": 119,
          "midi": 81,
          "name": "A5",
          "ticks": 175920,
          "time": 349.4074365,
          "velocity": 0.6299212598425197
        },
        {
          "duration": 0.18364203958333292,
          "durationTicks": 119,
          "midi": 79,
          "name": "G5",
          "ticks": 176040,
          "time": 349.59262175000003,
          "velocity": 0.6299212598425197
        },
        {
          "duration": 0.18364203958333292,
          "durationTicks": 119,
          "midi": 83,
          "name": "B5",
          "ticks": 176040,
          "time": 349.59262175000003,
          "velocity": 0.6299212598425197
        },
        {
          "duration": 4.442902789583343,
          "durationTicks": 2879,
          "midi": 76,
          "name": "E5",
          "ticks": 176160,
          "time": 349.777807,
          "velocity": 0.8818897637795275
        },
        {
          "duration": 4.442902789583343,
          "durationTicks": 2879,
          "midi": 79,
          "name": "G5",
          "ticks": 176160,
          "time": 349.777807,
          "velocity": 0.8818897637795275
        },
        {
          "duration": 4.442902789583343,
          "durationTicks": 2879,
          "midi": 84,
          "name": "C6",
          "ticks": 176160,
          "time": 349.777807,
          "velocity": 0.8818897637795275
        },
        {
          "duration": 1.4799387895833434,
          "durationTicks": 959,
          "midi": 77,
          "name": "F5",
          "ticks": 179040,
          "time": 354.222253,
          "velocity": 0.8818897637795275
        },
        {
          "duration": 1.4799387895833434,
          "durationTicks": 959,
          "midi": 79,
          "name": "G5",
          "ticks": 179040,
          "time": 354.222253,
          "velocity": 0.8818897637795275
        },
        {
          "duration": 1.4799387895833434,
          "durationTicks": 959,
          "midi": 84,
          "name": "C6",
          "ticks": 179040,
          "time": 354.222253,
          "velocity": 0.8818897637795275
        },
        {
          "duration": 0.3688272895832938,
          "durationTicks": 239,
          "midi": 72,
          "name": "C5",
          "ticks": 180240,
          "time": 356.07410550000003,
          "velocity": 1
        },
        {
          "duration": 0.3688272895832938,
          "durationTicks": 239,
          "midi": 76,
          "name": "E5",
          "ticks": 180240,
          "time": 356.07410550000003,
          "velocity": 1
        },
        {
          "duration": 0.3688272895832938,
          "durationTicks": 239,
          "midi": 79,
          "name": "G5",
          "ticks": 180240,
          "time": 356.07410550000003,
          "velocity": 1
        },
        {
          "duration": 0.3688272895832938,
          "durationTicks": 239,
          "midi": 84,
          "name": "C6",
          "ticks": 180240,
          "time": 356.07410550000003,
          "velocity": 1
        },
        {
          "duration": 0.7391977895833293,
          "durationTicks": 479,
          "midi": 67,
          "name": "G4",
          "ticks": 180480,
          "time": 356.444476,
          "velocity": 0.8818897637795275
        },
        {
          "duration": 0.3688272895832938,
          "durationTicks": 239,
          "midi": 62,
          "name": "D4",
          "ticks": 180960,
          "time": 357.185217,
          "velocity": 0.8818897637795275
        },
        {
          "duration": 0.7391977895833293,
          "durationTicks": 479,
          "midi": 69,
          "name": "A4",
          "ticks": 181200,
          "time": 357.5555875,
          "velocity": 0.8818897637795275
        },
        {
          "duration": 0.18364203958333292,
          "durationTicks": 119,
          "midi": 69,
          "name": "A4",
          "ticks": 181680,
          "time": 358.2963285,
          "velocity": 0.8818897637795275
        },
        {
          "duration": 0.18364203958338976,
          "durationTicks": 119,
          "midi": 71,
          "name": "B4",
          "ticks": 181800,
          "time": 358.48151375,
          "velocity": 0.8818897637795275
        },
        {
          "duration": 1.4799387895833434,
          "durationTicks": 959,
          "midi": 72,
          "name": "C5",
          "ticks": 181920,
          "time": 358.666699,
          "velocity": 0.8818897637795275
        },
        {
          "duration": 0.18364203958333292,
          "durationTicks": 119,
          "midi": 71,
          "name": "B4",
          "ticks": 182040,
          "time": 358.85188425,
          "velocity": 0.8818897637795275
        },
        {
          "duration": 0.18364203958333292,
          "durationTicks": 119,
          "midi": 70,
          "name": "A#4",
          "ticks": 182160,
          "time": 359.03706950000003,
          "velocity": 0.8818897637795275
        },
        {
          "duration": 0.18364203958333292,
          "durationTicks": 119,
          "midi": 69,
          "name": "A4",
          "ticks": 182280,
          "time": 359.22225475000005,
          "velocity": 0.8818897637795275
        },
        {
          "duration": 0.18364203958333292,
          "durationTicks": 119,
          "midi": 68,
          "name": "G#4",
          "ticks": 182400,
          "time": 359.40744,
          "velocity": 0.8818897637795275
        },
        {
          "duration": 0.18364203958333292,
          "durationTicks": 119,
          "midi": 67,
          "name": "G4",
          "ticks": 182520,
          "time": 359.59262525,
          "velocity": 0.8818897637795275
        },
        {
          "duration": 0.18364203958333292,
          "durationTicks": 119,
          "midi": 66,
          "name": "F#4",
          "ticks": 182640,
          "time": 359.7778105,
          "velocity": 0.8818897637795275
        },
        {
          "duration": 0.18364203958333292,
          "durationTicks": 119,
          "midi": 65,
          "name": "F4",
          "ticks": 182760,
          "time": 359.96299575,
          "velocity": 0.8818897637795275
        },
        {
          "duration": 0.027777787499985607,
          "durationTicks": 18,
          "midi": 60,
          "name": "C4",
          "ticks": 182880,
          "time": 360.148181,
          "velocity": 0.8818897637795275
        },
        {
          "duration": 0.027777787499985607,
          "durationTicks": 18,
          "midi": 61,
          "name": "C#4",
          "ticks": 182899,
          "time": 360.1775019979167,
          "velocity": 0.8818897637795275
        },
        {
          "duration": 0.027777787499985607,
          "durationTicks": 18,
          "midi": 62,
          "name": "D4",
          "ticks": 182919,
          "time": 360.20836620625005,
          "velocity": 0.8818897637795275
        },
        {
          "duration": 0.027777787499985607,
          "durationTicks": 18,
          "midi": 63,
          "name": "D#4",
          "ticks": 182940,
          "time": 360.24077362500003,
          "velocity": 0.8818897637795275
        },
        {
          "duration": 0.02777778750004245,
          "durationTicks": 18,
          "midi": 64,
          "name": "E4",
          "ticks": 182959,
          "time": 360.27009462291664,
          "velocity": 0.8818897637795275
        },
        {
          "duration": 0.027777787499985607,
          "durationTicks": 18,
          "midi": 65,
          "name": "F4",
          "ticks": 182979,
          "time": 360.30095883125,
          "velocity": 0.8818897637795275
        },
        {
          "duration": 0.027777787499985607,
          "durationTicks": 18,
          "midi": 66,
          "name": "F#4",
          "ticks": 183000,
          "time": 360.33336625000004,
          "velocity": 0.8818897637795275
        },
        {
          "duration": 0.02777778750004245,
          "durationTicks": 18,
          "midi": 67,
          "name": "G4",
          "ticks": 183019,
          "time": 360.36268724791665,
          "velocity": 0.8818897637795275
        },
        {
          "duration": 0.02777778750004245,
          "durationTicks": 18,
          "midi": 68,
          "name": "G#4",
          "ticks": 183039,
          "time": 360.39355145625,
          "velocity": 0.8818897637795275
        },
        {
          "duration": 0.027777787499985607,
          "durationTicks": 18,
          "midi": 69,
          "name": "A4",
          "ticks": 183060,
          "time": 360.425958875,
          "velocity": 0.8818897637795275
        },
        {
          "duration": 0.027777787499985607,
          "durationTicks": 18,
          "midi": 70,
          "name": "A#4",
          "ticks": 183079,
          "time": 360.45527987291666,
          "velocity": 0.8818897637795275
        },
        {
          "duration": 0.027777787499985607,
          "durationTicks": 18,
          "midi": 71,
          "name": "B4",
          "ticks": 183099,
          "time": 360.48614408125,
          "velocity": 0.8818897637795275
        },
        {
          "duration": 0.027777787499985607,
          "durationTicks": 18,
          "midi": 72,
          "name": "C5",
          "ticks": 183120,
          "time": 360.5185515,
          "velocity": 0.8818897637795275
        },
        {
          "duration": 0.027777787499985607,
          "durationTicks": 18,
          "midi": 73,
          "name": "C#5",
          "ticks": 183139,
          "time": 360.54787249791667,
          "velocity": 0.8818897637795275
        },
        {
          "duration": 0.027777787499985607,
          "durationTicks": 18,
          "midi": 74,
          "name": "D5",
          "ticks": 183159,
          "time": 360.57873670625,
          "velocity": 0.8818897637795275
        },
        {
          "duration": 0.027777787499985607,
          "durationTicks": 18,
          "midi": 75,
          "name": "D#5",
          "ticks": 183180,
          "time": 360.611144125,
          "velocity": 0.8818897637795275
        },
        {
          "duration": 0.027777787499985607,
          "durationTicks": 18,
          "midi": 76,
          "name": "E5",
          "ticks": 183199,
          "time": 360.6404651229167,
          "velocity": 0.8818897637795275
        },
        {
          "duration": 0.027777787499985607,
          "durationTicks": 18,
          "midi": 77,
          "name": "F5",
          "ticks": 183219,
          "time": 360.67132933125004,
          "velocity": 0.8818897637795275
        },
        {
          "duration": 0.027777787499985607,
          "durationTicks": 18,
          "midi": 78,
          "name": "F#5",
          "ticks": 183240,
          "time": 360.70373675,
          "velocity": 0.8818897637795275
        },
        {
          "duration": 0.027777787499985607,
          "durationTicks": 18,
          "midi": 79,
          "name": "G5",
          "ticks": 183259,
          "time": 360.7330577479167,
          "velocity": 0.8818897637795275
        },
        {
          "duration": 0.02777778750004245,
          "durationTicks": 18,
          "midi": 80,
          "name": "G#5",
          "ticks": 183279,
          "time": 360.76392195625,
          "velocity": 0.8818897637795275
        },
        {
          "duration": 0.027777787499985607,
          "durationTicks": 18,
          "midi": 81,
          "name": "A5",
          "ticks": 183300,
          "time": 360.796329375,
          "velocity": 0.8818897637795275
        },
        {
          "duration": 0.027777787499985607,
          "durationTicks": 18,
          "midi": 82,
          "name": "A#5",
          "ticks": 183319,
          "time": 360.8256503729167,
          "velocity": 0.8818897637795275
        },
        {
          "duration": 0.027777787499985607,
          "durationTicks": 18,
          "midi": 83,
          "name": "B5",
          "ticks": 183339,
          "time": 360.85651458125005,
          "velocity": 0.8818897637795275
        },
        {
          "duration": 0.36882728958335065,
          "durationTicks": 239,
          "midi": 72,
          "name": "C5",
          "ticks": 183360,
          "time": 360.888922,
          "velocity": 1
        },
        {
          "duration": 0.36882728958335065,
          "durationTicks": 239,
          "midi": 76,
          "name": "E5",
          "ticks": 183360,
          "time": 360.888922,
          "velocity": 1
        },
        {
          "duration": 0.36882728958335065,
          "durationTicks": 239,
          "midi": 79,
          "name": "G5",
          "ticks": 183360,
          "time": 360.888922,
          "velocity": 1
        },
        {
          "duration": 0.36882728958335065,
          "durationTicks": 239,
          "midi": 84,
          "name": "C6",
          "ticks": 183360,
          "time": 360.888922,
          "velocity": 1
        }
      ],
      "endOfTrackTicks": 183600
    },
    {
      "channel": 0,
      "controlChanges": {},
      "pitchBends": [],
      "instrument": {
        "family": "piano",
        "name": "acoustic grand piano",
        "number": 0
      },
      "name": "Piano\u0000",
      "notes": [
        {
          "duration": 1.1740200187499994,
          "durationTicks": 479,
          "midi": 62,
          "name": "D4",
          "ticks": 7200,
          "time": 13.23534,
          "velocity": 0.5039370078740157
        },
        {
          "duration": 1.1740200187499994,
          "durationTicks": 479,
          "midi": 65,
          "name": "F4",
          "ticks": 7200,
          "time": 13.23534,
          "velocity": 0.5039370078740157
        },
        {
          "duration": 2.3504910187500023,
          "durationTicks": 959,
          "midi": 60,
          "name": "C4",
          "ticks": 7680,
          "time": 14.411811,
          "velocity": 0.5039370078740157
        },
        {
          "duration": 2.3504910187500023,
          "durationTicks": 959,
          "midi": 63,
          "name": "D#4",
          "ticks": 7680,
          "time": 14.411811,
          "velocity": 0.5039370078740157
        },
        {
          "duration": 2.3504910187500023,
          "durationTicks": 959,
          "midi": 69,
          "name": "A4",
          "ticks": 7680,
          "time": 14.411811,
          "velocity": 0.5039370078740157
        },
        {
          "duration": 1.174020018750003,
          "durationTicks": 479,
          "midi": 62,
          "name": "D4",
          "ticks": 8640,
          "time": 16.764753,
          "velocity": 0.5039370078740157
        },
        {
          "duration": 1.174020018750003,
          "durationTicks": 479,
          "midi": 65,
          "name": "F4",
          "ticks": 8640,
          "time": 16.764753,
          "velocity": 0.5039370078740157
        },
        {
          "duration": 1.174020018750003,
          "durationTicks": 479,
          "midi": 70,
          "name": "A#4",
          "ticks": 8640,
          "time": 16.764753,
          "velocity": 0.5039370078740157
        },
        {
          "duration": 1.762255518749999,
          "durationTicks": 719,
          "midi": 63,
          "name": "D#4",
          "ticks": 9120,
          "time": 17.941224000000002,
          "velocity": 0.5039370078740157
        },
        {
          "duration": 1.762255518749999,
          "durationTicks": 719,
          "midi": 67,
          "name": "G4",
          "ticks": 9120,
          "time": 17.941224000000002,
          "velocity": 0.5039370078740157
        },
        {
          "duration": 1.762255518749999,
          "durationTicks": 719,
          "midi": 72,
          "name": "C5",
          "ticks": 9120,
          "time": 17.941224000000002,
          "velocity": 0.5039370078740157
        },
        {
          "duration": 0.5857845187499997,
          "durationTicks": 239,
          "midi": 63,
          "name": "D#4",
          "ticks": 9840,
          "time": 19.7059305,
          "velocity": 0.5039370078740157
        },
        {
          "duration": 0.5857845187499997,
          "durationTicks": 239,
          "midi": 67,
          "name": "G4",
          "ticks": 9840,
          "time": 19.7059305,
          "velocity": 0.5039370078740157
        },
        {
          "duration": 0.5857845187499997,
          "durationTicks": 239,
          "midi": 72,
          "name": "C5",
          "ticks": 9840,
          "time": 19.7059305,
          "velocity": 0.5039370078740157
        },
        {
          "duration": 1.174020018750003,
          "durationTicks": 479,
          "midi": 65,
          "name": "F4",
          "ticks": 10080,
          "time": 20.294166,
          "velocity": 0.5039370078740157
        },
        {
          "duration": 1.7622555187499955,
          "durationTicks": 719,
          "midi": 63,
          "name": "D#4",
          "ticks": 10560,
          "time": 21.470637000000004,
          "velocity": 0.5039370078740157
        },
        {
          "duration": 1.7622555187499955,
          "durationTicks": 719,
          "midi": 70,
          "name": "A#4",
          "ticks": 10560,
          "time": 21.470637000000004,
          "velocity": 0.5039370078740157
        },
        {
          "duration": 0.5857845187500033,
          "durationTicks": 239,
          "midi": 65,
          "name": "F4",
          "ticks": 11280,
          "time": 23.2353435,
          "velocity": 0.5039370078740157
        },
        {
          "duration": 0.5857845187500033,
          "durationTicks": 239,
          "midi": 69,
          "name": "A4",
          "ticks": 11280,
          "time": 23.2353435,
          "velocity": 0.5039370078740157
        },
        {
          "duration": 1.7107155687500004,
          "durationTicks": 479,
          "midi": 66,
          "name": "F#4",
          "ticks": 11520,
          "time": 23.823579000000002,
          "velocity": 0.5039370078740157
        },
        {
          "duration": 1.7107155687500004,
          "durationTicks": 479,
          "midi": 70,
          "name": "A#4",
          "ticks": 11520,
          "time": 23.823579000000002,
          "velocity": 0.5039370078740157
        },
        {
          "duration": 1.7107155687500004,
          "durationTicks": 479,
          "midi": 75,
          "name": "D#5",
          "ticks": 11520,
          "time": 23.823579000000002,
          "velocity": 0.5039370078740157
        },
        {
          "duration": 2.5678590687500034,
          "durationTicks": 719,
          "midi": 68,
          "name": "G#4",
          "ticks": 12000,
          "time": 25.537866,
          "velocity": 0.5039370078740157
        },
        {
          "duration": 2.5678590687500034,
          "durationTicks": 719,
          "midi": 70,
          "name": "A#4",
          "ticks": 12000,
          "time": 25.537866,
          "velocity": 0.5039370078740157
        },
        {
          "duration": 2.5678590687500034,
          "durationTicks": 719,
          "midi": 72,
          "name": "C5",
          "ticks": 12000,
          "time": 25.537866,
          "velocity": 0.5039370078740157
        },
        {
          "duration": 4.2834838562499975,
          "durationTicks": 1919,
          "midi": 46,
          "name": "A#2",
          "ticks": 12960,
          "time": 28.966440000000002,
          "velocity": 0.5039370078740157
        },
        {
          "duration": 0.5334823562499977,
          "durationTicks": 239,
          "midi": 53,
          "name": "F3",
          "ticks": 13200,
          "time": 29.502154500000003,
          "velocity": 0.5039370078740157
        },
        {
          "duration": 0.5334823562500013,
          "durationTicks": 239,
          "midi": 62,
          "name": "D4",
          "ticks": 13440,
          "time": 30.037869,
          "velocity": 0.5039370078740157
        },
        {
          "duration": 0.5334823562500013,
          "durationTicks": 239,
          "midi": 60,
          "name": "C4",
          "ticks": 13680,
          "time": 30.5735835,
          "velocity": 0.5039370078740157
        },
        {
          "duration": 1.0691968562500023,
          "durationTicks": 479,
          "midi": 65,
          "name": "F4",
          "ticks": 13920,
          "time": 31.109298000000003,
          "velocity": 0.5039370078740157
        },
        {
          "duration": 0.5334823562499977,
          "durationTicks": 239,
          "midi": 53,
          "name": "F3",
          "ticks": 14400,
          "time": 32.180727000000005,
          "velocity": 0.5039370078740157
        },
        {
          "duration": 0.5334823562499977,
          "durationTicks": 239,
          "midi": 63,
          "name": "D#4",
          "ticks": 14640,
          "time": 32.7164415,
          "velocity": 0.5039370078740157
        },
        {
          "duration": 2.1406258562500042,
          "durationTicks": 959,
          "midi": 46,
          "name": "A#2",
          "ticks": 14880,
          "time": 33.252156,
          "velocity": 0.5039370078740157
        },
        {
          "duration": 0.5334823562499977,
          "durationTicks": 239,
          "midi": 53,
          "name": "F3",
          "ticks": 15120,
          "time": 33.787870500000004,
          "velocity": 0.5039370078740157
        },
        {
          "duration": 0.5334823562499977,
          "durationTicks": 239,
          "midi": 60,
          "name": "C4",
          "ticks": 15360,
          "time": 34.323585,
          "velocity": 0.5039370078740157
        },
        {
          "duration": 0.5334823562499977,
          "durationTicks": 239,
          "midi": 57,
          "name": "A3",
          "ticks": 15600,
          "time": 34.859299500000006,
          "velocity": 0.5039370078740157
        },
        {
          "duration": 0.8786760312500022,
          "durationTicks": 239,
          "midi": 55,
          "name": "G3",
          "ticks": 15840,
          "time": 35.395014,
          "velocity": 0.5039370078740157
        },
        {
          "duration": 0.437499781249997,
          "durationTicks": 119,
          "midi": 51,
          "name": "D#3",
          "ticks": 16080,
          "time": 36.27736650000001,
          "velocity": 0.5039370078740157
        },
        {
          "duration": 0.437499781249997,
          "durationTicks": 119,
          "midi": 50,
          "name": "D3",
          "ticks": 16200,
          "time": 36.718542750000005,
          "velocity": 0.5039370078740157
        },
        {
          "duration": 1.757355050000001,
          "durationTicks": 239,
          "midi": 48,
          "name": "C3",
          "ticks": 16320,
          "time": 37.159719,
          "velocity": 0.5039370078740157
        },
        {
          "duration": 1.757355050000001,
          "durationTicks": 239,
          "midi": 53,
          "name": "F3",
          "ticks": 16560,
          "time": 38.924427,
          "velocity": 0.5039370078740157
        },
        {
          "duration": 1.6049113562499997,
          "durationTicks": 719,
          "midi": 50,
          "name": "D3",
          "ticks": 16800,
          "time": 40.689135,
          "velocity": 0.5039370078740157
        },
        {
          "duration": 2.140625856249997,
          "durationTicks": 959,
          "midi": 46,
          "name": "A#2",
          "ticks": 16800,
          "time": 40.689135,
          "velocity": 0.5039370078740157
        },
        {
          "duration": 0.5334823562499977,
          "durationTicks": 239,
          "midi": 50,
          "name": "D3",
          "ticks": 17520,
          "time": 42.2962785,
          "velocity": 0.5039370078740157
        },
        {
          "duration": 1.6049113562499997,
          "durationTicks": 719,
          "midi": 51,
          "name": "D#3",
          "ticks": 17760,
          "time": 42.831993,
          "velocity": 0.5039370078740157
        },
        {
          "duration": 2.1406258562500042,
          "durationTicks": 959,
          "midi": 39,
          "name": "D#2",
          "ticks": 17760,
          "time": 42.831993,
          "velocity": 0.5039370078740157
        },
        {
          "duration": 0.5334823562499977,
          "durationTicks": 239,
          "midi": 51,
          "name": "D#3",
          "ticks": 18480,
          "time": 44.439136500000004,
          "velocity": 0.5039370078740157
        },
        {
          "duration": 1.0691968562500023,
          "durationTicks": 479,
          "midi": 46,
          "name": "A#2",
          "ticks": 18720,
          "time": 44.974851,
          "velocity": 0.5039370078740157
        },
        {
          "duration": 1.0691968562500023,
          "durationTicks": 479,
          "midi": 50,
          "name": "D3",
          "ticks": 18720,
          "time": 44.974851,
          "velocity": 0.5039370078740157
        },
        {
          "duration": 1.0691968562499952,
          "durationTicks": 479,
          "midi": 46,
          "name": "A#2",
          "ticks": 19200,
          "time": 46.04628,
          "velocity": 0.5039370078740157
        },
        {
          "duration": 1.0691968562499952,
          "durationTicks": 479,
          "midi": 53,
          "name": "F3",
          "ticks": 19200,
          "time": 46.04628,
          "velocity": 0.5039370078740157
        },
        {
          "duration": 1.6049113562499997,
          "durationTicks": 719,
          "midi": 53,
          "name": "F3",
          "ticks": 19680,
          "time": 47.117709,
          "velocity": 0.5039370078740157
        },
        {
          "duration": 1.0691968562500023,
          "durationTicks": 479,
          "midi": 46,
          "name": "A#2",
          "ticks": 19680,
          "time": 47.117709,
          "velocity": 0.5039370078740157
        },
        {
          "duration": 0.5334823562499977,
          "durationTicks": 239,
          "midi": 46,
          "name": "A#2",
          "ticks": 20160,
          "time": 48.189138,
          "velocity": 0.5039370078740157
        },
        {
          "duration": 0.5334823562500048,
          "durationTicks": 239,
          "midi": 53,
          "name": "F3",
          "ticks": 20400,
          "time": 48.7248525,
          "velocity": 0.5039370078740157
        },
        {
          "duration": 0.5334823562500048,
          "durationTicks": 239,
          "midi": 46,
          "name": "A#2",
          "ticks": 20400,
          "time": 48.7248525,
          "velocity": 0.5039370078740157
        },
        {
          "duration": 1.0691968562499952,
          "durationTicks": 479,
          "midi": 41,
          "name": "F2",
          "ticks": 20640,
          "time": 49.260567,
          "velocity": 0.5039370078740157
        },
        {
          "duration": 1.0691968562499952,
          "durationTicks": 479,
          "midi": 53,
          "name": "F3",
          "ticks": 20640,
          "time": 49.260567,
          "velocity": 0.5039370078740157
        },
        {
          "duration": 0.5334823562499977,
          "durationTicks": 239,
          "midi": 41,
          "name": "F2",
          "ticks": 21120,
          "time": 50.331996000000004,
          "velocity": 0.5039370078740157
        },
        {
          "duration": 0.5334823562499977,
          "durationTicks": 239,
          "midi": 46,
          "name": "A#2",
          "ticks": 21360,
          "time": 50.8677105,
          "velocity": 0.5039370078740157
        },
        {
          "duration": 0.5334823562499977,
          "durationTicks": 239,
          "midi": 53,
          "name": "F3",
          "ticks": 21360,
          "time": 50.8677105,
          "velocity": 0.5039370078740157
        },
        {
          "duration": 1.6049113562499997,
          "durationTicks": 719,
          "midi": 41,
          "name": "F2",
          "ticks": 21600,
          "time": 51.403425,
          "velocity": 0.5039370078740157
        },
        {
          "duration": 1.6049113562499997,
          "durationTicks": 719,
          "midi": 53,
          "name": "F3",
          "ticks": 21600,
          "time": 51.403425,
          "velocity": 0.5039370078740157
        },
        {
          "duration": 0.5334823562499977,
          "durationTicks": 239,
          "midi": 38,
          "name": "D2",
          "ticks": 22320,
          "time": 53.0105685,
          "velocity": 0.5039370078740157
        },
        {
          "duration": 0.5334823562499977,
          "durationTicks": 239,
          "midi": 50,
          "name": "D3",
          "ticks": 22320,
          "time": 53.0105685,
          "velocity": 0.5039370078740157
        },
        {
          "duration": 0.8013396062499965,
          "durationTicks": 359,
          "midi": 39,
          "name": "D#2",
          "ticks": 22560,
          "time": 53.546283,
          "velocity": 0.5039370078740157
        },
        {
          "duration": 0.8013396062499965,
          "durationTicks": 359,
          "midi": 51,
          "name": "D#3",
          "ticks": 22560,
          "time": 53.546283,
          "velocity": 0.5039370078740157
        },
        {
          "duration": 0.265625106249999,
          "durationTicks": 119,
          "midi": 41,
          "name": "F2",
          "ticks": 22920,
          "time": 54.34985475,
          "velocity": 0.5039370078740157
        },
        {
          "duration": 0.265625106249999,
          "durationTicks": 119,
          "midi": 53,
          "name": "F3",
          "ticks": 22920,
          "time": 54.34985475,
          "velocity": 0.5039370078740157
        },
        {
          "duration": 0.8013396062500036,
          "durationTicks": 359,
          "midi": 41,
          "name": "F2",
          "ticks": 23040,
          "time": 54.617712,
          "velocity": 0.5039370078740157
        },
        {
          "duration": 0.8013396062500036,
          "durationTicks": 359,
          "midi": 53,
          "name": "F3",
          "ticks": 23040,
          "time": 54.617712,
          "velocity": 0.5039370078740157
        },
        {
          "duration": 0.265625106249999,
          "durationTicks": 119,
          "midi": 41,
          "name": "F2",
          "ticks": 23400,
          "time": 55.42128375,
          "velocity": 0.5039370078740157
        },
        {
          "duration": 0.265625106249999,
          "durationTicks": 119,
          "midi": 53,
          "name": "F3",
          "ticks": 23400,
          "time": 55.42128375,
          "velocity": 0.5039370078740157
        },
        {
          "duration": 1.0691968562500023,
          "durationTicks": 479,
          "midi": 41,
          "name": "F2",
          "ticks": 23520,
          "time": 55.689141,
          "velocity": 0.5039370078740157
        },
        {
          "duration": 1.0691968562500023,
          "durationTicks": 479,
          "midi": 53,
          "name": "F3",
          "ticks": 23520,
          "time": 55.689141,
          "velocity": 0.5039370078740157
        },
        {
          "duration": 1.0691968562500023,
          "durationTicks": 479,
          "midi": 41,
          "name": "F2",
          "ticks": 24000,
          "time": 56.76057,
          "velocity": 0.5039370078740157
        },
        {
          "duration": 1.0691968562500023,
          "durationTicks": 479,
          "midi": 53,
          "name": "F3",
          "ticks": 24000,
          "time": 56.76057,
          "velocity": 0.5039370078740157
        },
        {
          "duration": 0.5334823562500048,
          "durationTicks": 239,
          "midi": 41,
          "name": "F2",
          "ticks": 24480,
          "time": 57.831998999999996,
          "velocity": 0.5039370078740157
        },
        {
          "duration": 0.5334823562500048,
          "durationTicks": 239,
          "midi": 53,
          "name": "F3",
          "ticks": 24480,
          "time": 57.831998999999996,
          "velocity": 0.5039370078740157
        },
        {
          "duration": 1.0691968562499952,
          "durationTicks": 479,
          "midi": 41,
          "name": "F2",
          "ticks": 24720,
          "time": 58.3677135,
          "velocity": 0.5039370078740157
        },
        {
          "duration": 0.5357144999999974,
          "durationTicks": 240,
          "midi": 53,
          "name": "F3",
          "ticks": 24720,
          "time": 58.3677135,
          "velocity": 0.5039370078740157
        },
        {
          "duration": 0.5334823562499906,
          "durationTicks": 239,
          "midi": 41,
          "name": "F2",
          "ticks": 25200,
          "time": 59.4391425,
          "velocity": 0.5039370078740157
        },
        {
          "duration": 0.5334823562499906,
          "durationTicks": 239,
          "midi": 53,
          "name": "F3",
          "ticks": 25200,
          "time": 59.4391425,
          "velocity": 0.5039370078740157
        },
        {
          "duration": 1.0691968562500023,
          "durationTicks": 479,
          "midi": 46,
          "name": "A#2",
          "ticks": 25440,
          "time": 59.974857,
          "velocity": 0.5039370078740157
        },
        {
          "duration": 1.0691968562500023,
          "durationTicks": 479,
          "midi": 53,
          "name": "F3",
          "ticks": 25440,
          "time": 59.974857,
          "velocity": 0.5039370078740157
        },
        {
          "duration": 0.5334823562500048,
          "durationTicks": 239,
          "midi": 46,
          "name": "A#2",
          "ticks": 25920,
          "time": 61.046285999999995,
          "velocity": 0.5039370078740157
        },
        {
          "duration": 0.5334823562500048,
          "durationTicks": 239,
          "midi": 53,
          "name": "F3",
          "ticks": 25920,
          "time": 61.046285999999995,
          "velocity": 0.5039370078740157
        },
        {
          "duration": 0.5334823562499977,
          "durationTicks": 239,
          "midi": 46,
          "name": "A#2",
          "ticks": 26160,
          "time": 61.5820005,
          "velocity": 0.5039370078740157
        },
        {
          "duration": 0.5334823562499977,
          "durationTicks": 239,
          "midi": 53,
          "name": "F3",
          "ticks": 26160,
          "time": 61.5820005,
          "velocity": 0.5039370078740157
        },
        {
          "duration": 1.0691968562499952,
          "durationTicks": 479,
          "midi": 39,
          "name": "D#2",
          "ticks": 26400,
          "time": 62.117715000000004,
          "velocity": 0.5039370078740157
        },
        {
          "duration": 1.0691968562499952,
          "durationTicks": 479,
          "midi": 51,
          "name": "D#3",
          "ticks": 26400,
          "time": 62.117715000000004,
          "velocity": 0.5039370078740157
        },
        {
          "duration": 0.5334823562499977,
          "durationTicks": 239,
          "midi": 39,
          "name": "D#2",
          "ticks": 26880,
          "time": 63.189144,
          "velocity": 0.5039370078740157
        },
        {
          "duration": 0.5334823562499977,
          "durationTicks": 239,
          "midi": 51,
          "name": "D#3",
          "ticks": 26880,
          "time": 63.189144,
          "velocity": 0.5039370078740157
        },
        {
          "duration": 0.5334823562500048,
          "durationTicks": 239,
          "midi": 39,
          "name": "D#2",
          "ticks": 27120,
          "time": 63.724858499999996,
          "velocity": 0.5039370078740157
        },
        {
          "duration": 0.5334823562500048,
          "durationTicks": 239,
          "midi": 51,
          "name": "D#3",
          "ticks": 27120,
          "time": 63.724858499999996,
          "velocity": 0.5039370078740157
        },
        {
          "duration": 1.0691968562500023,
          "durationTicks": 479,
          "midi": 46,
          "name": "A#2",
          "ticks": 27360,
          "time": 64.260573,
          "velocity": 0.5039370078740157
        },
        {
          "duration": 1.0691968562500023,
          "durationTicks": 479,
          "midi": 53,
          "name": "F3",
          "ticks": 27360,
          "time": 64.260573,
          "velocity": 0.5039370078740157
        },
        {
          "duration": 0.8013396062499965,
          "durationTicks": 359,
          "midi": 46,
          "name": "A#2",
          "ticks": 27840,
          "time": 65.332002,
          "velocity": 0.5039370078740157
        },
        {
          "duration": 0.8013396062499965,
          "durationTicks": 359,
          "midi": 53,
          "name": "F3",
          "ticks": 27840,
          "time": 65.332002,
          "velocity": 0.5039370078740157
        },
        {
          "duration": 0.26562510625001323,
          "durationTicks": 119,
          "midi": 55,
          "name": "G3",
          "ticks": 28200,
          "time": 66.13557374999999,
          "velocity": 0.5039370078740157
        },
        {
          "duration": 1.6049113562499997,
          "durationTicks": 719,
          "midi": 55,
          "name": "G3",
          "ticks": 28320,
          "time": 66.403431,
          "velocity": 0.5039370078740157
        },
        {
          "duration": 1.0691968562500023,
          "durationTicks": 479,
          "midi": 46,
          "name": "A#2",
          "ticks": 28320,
          "time": 66.403431,
          "velocity": 0.5039370078740157
        },
        {
          "duration": 0.5334823562499906,
          "durationTicks": 239,
          "midi": 46,
          "name": "A#2",
          "ticks": 28800,
          "time": 67.47486,
          "velocity": 0.5039370078740157
        },
        {
          "duration": 0.5334823562499906,
          "durationTicks": 239,
          "midi": 53,
          "name": "F3",
          "ticks": 29040,
          "time": 68.0105745,
          "velocity": 0.5039370078740157
        },
        {
          "duration": 0.5334823562499906,
          "durationTicks": 239,
          "midi": 46,
          "name": "A#2",
          "ticks": 29040,
          "time": 68.0105745,
          "velocity": 0.5039370078740157
        },
        {
          "duration": 1.069196856249988,
          "durationTicks": 479,
          "midi": 41,
          "name": "F2",
          "ticks": 29280,
          "time": 68.546289,
          "velocity": 0.5039370078740157
        },
        {
          "duration": 1.069196856249988,
          "durationTicks": 479,
          "midi": 53,
          "name": "F3",
          "ticks": 29280,
          "time": 68.546289,
          "velocity": 0.5039370078740157
        },
        {
          "duration": 0.5334823562500048,
          "durationTicks": 239,
          "midi": 53,
          "name": "F3",
          "ticks": 29760,
          "time": 69.617718,
          "velocity": 0.5039370078740157
        },
        {
          "duration": 0.5334823562499906,
          "durationTicks": 239,
          "midi": 53,
          "name": "F3",
          "ticks": 30000,
          "time": 70.15343250000001,
          "velocity": 0.5039370078740157
        },
        {
          "duration": 0.5334823562499906,
          "durationTicks": 239,
          "midi": 58,
          "name": "A#3",
          "ticks": 30000,
          "time": 70.15343250000001,
          "velocity": 0.5039370078740157
        },
        {
          "duration": 1.0691968562500023,
          "durationTicks": 479,
          "midi": 41,
          "name": "F2",
          "ticks": 30240,
          "time": 70.68914699999999,
          "velocity": 0.5039370078740157
        },
        {
          "duration": 1.0691968562500023,
          "durationTicks": 479,
          "midi": 53,
          "name": "F3",
          "ticks": 30240,
          "time": 70.68914699999999,
          "velocity": 0.5039370078740157
        },
        {
          "duration": 0.5334823562499906,
          "durationTicks": 239,
          "midi": 41,
          "name": "F2",
          "ticks": 30720,
          "time": 71.760576,
          "velocity": 0.5039370078740157
        },
        {
          "duration": 0.5334823562499906,
          "durationTicks": 239,
          "midi": 53,
          "name": "F3",
          "ticks": 30720,
          "time": 71.760576,
          "velocity": 0.5039370078740157
        },
        {
          "duration": 0.5334823562500048,
          "durationTicks": 239,
          "midi": 50,
          "name": "D3",
          "ticks": 30960,
          "time": 72.2962905,
          "velocity": 0.5039370078740157
        },
        {
          "duration": 0.8013396062499965,
          "durationTicks": 359,
          "midi": 43,
          "name": "G2",
          "ticks": 31200,
          "time": 72.83200500000001,
          "velocity": 0.5039370078740157
        },
        {
          "duration": 0.8013396062499965,
          "durationTicks": 359,
          "midi": 55,
          "name": "G3",
          "ticks": 31200,
          "time": 72.83200500000001,
          "velocity": 0.5039370078740157
        },
        {
          "duration": 0.265625106249999,
          "durationTicks": 119,
          "midi": 41,
          "name": "F2",
          "ticks": 31560,
          "time": 73.63557675,
          "velocity": 0.5039370078740157
        },
        {
          "duration": 0.265625106249999,
          "durationTicks": 119,
          "midi": 53,
          "name": "F3",
          "ticks": 31560,
          "time": 73.63557675,
          "velocity": 0.5039370078740157
        },
        {
          "duration": 0.8013396062499965,
          "durationTicks": 359,
          "midi": 41,
          "name": "F2",
          "ticks": 31680,
          "time": 73.903434,
          "velocity": 0.5039370078740157
        },
        {
          "duration": 0.8013396062499965,
          "durationTicks": 359,
          "midi": 53,
          "name": "F3",
          "ticks": 31680,
          "time": 73.903434,
          "velocity": 0.5039370078740157
        },
        {
          "duration": 0.2656251062499848,
          "durationTicks": 119,
          "midi": 41,
          "name": "F2",
          "ticks": 32040,
          "time": 74.70700575000001,
          "velocity": 0.5039370078740157
        },
        {
          "duration": 0.2656251062499848,
          "durationTicks": 119,
          "midi": 53,
          "name": "F3",
          "ticks": 32040,
          "time": 74.70700575000001,
          "velocity": 0.5039370078740157
        },
        {
          "duration": 1.0691968562500023,
          "durationTicks": 479,
          "midi": 41,
          "name": "F2",
          "ticks": 32160,
          "time": 74.974863,
          "velocity": 0.5039370078740157
        },
        {
          "duration": 1.0691968562500023,
          "durationTicks": 479,
          "midi": 53,
          "name": "F3",
          "ticks": 32160,
          "time": 74.974863,
          "velocity": 0.5039370078740157
        },
        {
          "duration": 1.0691968562500165,
          "durationTicks": 479,
          "midi": 41,
          "name": "F2",
          "ticks": 32640,
          "time": 76.046292,
          "velocity": 0.5039370078740157
        },
        {
          "duration": 0.5334823562500048,
          "durationTicks": 239,
          "midi": 34,
          "name": "A#1",
          "ticks": 33120,
          "time": 77.11772099999999,
          "velocity": 0.6299212598425197
        },
        {
          "duration": 0.5334823562500048,
          "durationTicks": 239,
          "midi": 46,
          "name": "A#2",
          "ticks": 33120,
          "time": 77.11772099999999,
          "velocity": 0.6299212598425197
        },
        {
          "duration": 0.5334823562500048,
          "durationTicks": 239,
          "midi": 46,
          "name": "A#2",
          "ticks": 33360,
          "time": 77.6534355,
          "velocity": 0.6299212598425197
        },
        {
          "duration": 0.5334823562500048,
          "durationTicks": 239,
          "midi": 39,
          "name": "D#2",
          "ticks": 33600,
          "time": 78.18915,
          "velocity": 0.6299212598425197
        },
        {
          "duration": 0.5334823562500048,
          "durationTicks": 239,
          "midi": 51,
          "name": "D#3",
          "ticks": 33600,
          "time": 78.18915,
          "velocity": 0.6299212598425197
        },
        {
          "duration": 0.5334823562500048,
          "durationTicks": 239,
          "midi": 39,
          "name": "D#2",
          "ticks": 33840,
          "time": 78.7248645,
          "velocity": 0.6299212598425197
        },
        {
          "duration": 0.5334823562499906,
          "durationTicks": 239,
          "midi": 34,
          "name": "A#1",
          "ticks": 34080,
          "time": 79.260579,
          "velocity": 0.6299212598425197
        },
        {
          "duration": 0.5334823562499906,
          "durationTicks": 239,
          "midi": 46,
          "name": "A#2",
          "ticks": 34080,
          "time": 79.260579,
          "velocity": 0.6299212598425197
        },
        {
          "duration": 0.5334823562500048,
          "durationTicks": 239,
          "midi": 46,
          "name": "A#2",
          "ticks": 34320,
          "time": 79.79629349999999,
          "velocity": 0.6299212598425197
        },
        {
          "duration": 0.5334823562500048,
          "durationTicks": 239,
          "midi": 39,
          "name": "D#2",
          "ticks": 34560,
          "time": 80.332008,
          "velocity": 0.6299212598425197
        },
        {
          "duration": 0.5334823562500048,
          "durationTicks": 239,
          "midi": 51,
          "name": "D#3",
          "ticks": 34560,
          "time": 80.332008,
          "velocity": 0.6299212598425197
        },
        {
          "duration": 0.5334823562500048,
          "durationTicks": 239,
          "midi": 39,
          "name": "D#2",
          "ticks": 34800,
          "time": 80.8677225,
          "velocity": 0.6299212598425197
        },
        {
          "duration": 0.5334823562500048,
          "durationTicks": 239,
          "midi": 46,
          "name": "A#2",
          "ticks": 35040,
          "time": 81.403437,
          "velocity": 0.6299212598425197
        },
        {
          "duration": 2.1406258562500113,
          "durationTicks": 959,
          "midi": 34,
          "name": "A#1",
          "ticks": 35040,
          "time": 81.403437,
          "velocity": 0.6299212598425197
        },
        {
          "duration": 0.5334823562499906,
          "durationTicks": 239,
          "midi": 46,
          "name": "A#2",
          "ticks": 35280,
          "time": 81.93915150000001,
          "velocity": 0.6299212598425197
        },
        {
          "duration": 0.5334823562500048,
          "durationTicks": 239,
          "midi": 46,
          "name": "A#2",
          "ticks": 35520,
          "time": 82.47486599999999,
          "velocity": 0.6299212598425197
        },
        {
          "duration": 0.5334823562500048,
          "durationTicks": 239,
          "midi": 46,
          "name": "A#2",
          "ticks": 35760,
          "time": 83.0105805,
          "velocity": 0.6299212598425197
        },
        {
          "duration": 0.5334823562499906,
          "durationTicks": 239,
          "midi": 39,
          "name": "D#2",
          "ticks": 36000,
          "time": 83.546295,
          "velocity": 0.6299212598425197
        },
        {
          "duration": 0.5334823562499906,
          "durationTicks": 239,
          "midi": 51,
          "name": "D#3",
          "ticks": 36000,
          "time": 83.546295,
          "velocity": 0.6299212598425197
        },
        {
          "duration": 0.5334823562500048,
          "durationTicks": 239,
          "midi": 39,
          "name": "D#2",
          "ticks": 36240,
          "time": 84.0820095,
          "velocity": 0.6299212598425197
        },
        {
          "duration": 0.5334823562500048,
          "durationTicks": 239,
          "midi": 39,
          "name": "D#2",
          "ticks": 36480,
          "time": 84.617724,
          "velocity": 0.6299212598425197
        },
        {
          "duration": 0.5334823562500048,
          "durationTicks": 239,
          "midi": 41,
          "name": "F2",
          "ticks": 36720,
          "time": 85.1534385,
          "velocity": 0.6299212598425197
        },
        {
          "duration": 0.5334823562500048,
          "durationTicks": 239,
          "midi": 53,
          "name": "F3",
          "ticks": 36720,
          "time": 85.1534385,
          "velocity": 0.6299212598425197
        },
        {
          "duration": 0.5334823562500048,
          "durationTicks": 239,
          "midi": 34,
          "name": "A#1",
          "ticks": 36960,
          "time": 85.689153,
          "velocity": 0.6299212598425197
        },
        {
          "duration": 0.5334823562500048,
          "durationTicks": 239,
          "midi": 46,
          "name": "A#2",
          "ticks": 36960,
          "time": 85.689153,
          "velocity": 0.6299212598425197
        },
        {
          "duration": 0.5334823562499906,
          "durationTicks": 239,
          "midi": 46,
          "name": "A#2",
          "ticks": 37200,
          "time": 86.2248675,
          "velocity": 0.6299212598425197
        },
        {
          "duration": 0.5334823562500048,
          "durationTicks": 239,
          "midi": 39,
          "name": "D#2",
          "ticks": 37440,
          "time": 86.760582,
          "velocity": 0.6299212598425197
        },
        {
          "duration": 0.5334823562500048,
          "durationTicks": 239,
          "midi": 51,
          "name": "D#3",
          "ticks": 37440,
          "time": 86.760582,
          "velocity": 0.6299212598425197
        },
        {
          "duration": 0.5334823562500048,
          "durationTicks": 239,
          "midi": 39,
          "name": "D#2",
          "ticks": 37680,
          "time": 87.2962965,
          "velocity": 0.6299212598425197
        },
        {
          "duration": 0.5334823562500048,
          "durationTicks": 239,
          "midi": 34,
          "name": "A#1",
          "ticks": 37920,
          "time": 87.832011,
          "velocity": 0.6299212598425197
        },
        {
          "duration": 0.5334823562500048,
          "durationTicks": 239,
          "midi": 46,
          "name": "A#2",
          "ticks": 37920,
          "time": 87.832011,
          "velocity": 0.6299212598425197
        },
        {
          "duration": 0.5334823562500048,
          "durationTicks": 239,
          "midi": 46,
          "name": "A#2",
          "ticks": 38160,
          "time": 88.3677255,
          "velocity": 0.6299212598425197
        },
        {
          "duration": 0.5334823562500048,
          "durationTicks": 239,
          "midi": 39,
          "name": "D#2",
          "ticks": 38400,
          "time": 88.90343999999999,
          "velocity": 0.6299212598425197
        },
        {
          "duration": 0.5334823562500048,
          "durationTicks": 239,
          "midi": 51,
          "name": "D#3",
          "ticks": 38400,
          "time": 88.90343999999999,
          "velocity": 0.6299212598425197
        },
        {
          "duration": 0.5334823562500048,
          "durationTicks": 239,
          "midi": 39,
          "name": "D#2",
          "ticks": 38640,
          "time": 89.4391545,
          "velocity": 0.6299212598425197
        },
        {
          "duration": 1.0691968562500023,
          "durationTicks": 479,
          "midi": 46,
          "name": "A#2",
          "ticks": 38880,
          "time": 89.974869,
          "velocity": 0.6299212598425197
        },
        {
          "duration": 4.283483856250001,
          "durationTicks": 1919,
          "midi": 34,
          "name": "A#1",
          "ticks": 38880,
          "time": 89.974869,
          "velocity": 0.6299212598425197
        },
        {
          "duration": 1.069196856249988,
          "durationTicks": 479,
          "midi": 48,
          "name": "C3",
          "ticks": 39360,
          "time": 91.04629800000001,
          "velocity": 0.6299212598425197
        },
        {
          "duration": 1.069196856249988,
          "durationTicks": 479,
          "midi": 53,
          "name": "F3",
          "ticks": 39840,
          "time": 92.117727,
          "velocity": 0.6299212598425197
        },
        {
          "duration": 1.0691968562500023,
          "durationTicks": 479,
          "midi": 58,
          "name": "A#3",
          "ticks": 40320,
          "time": 93.189156,
          "velocity": 0.6299212598425197
        },
        {
          "duration": 0.5334823562500048,
          "durationTicks": 239,
          "midi": 34,
          "name": "A#1",
          "ticks": 40800,
          "time": 94.26058499999999,
          "velocity": 0.6299212598425197
        },
        {
          "duration": 0.5334823562500048,
          "durationTicks": 239,
          "midi": 46,
          "name": "A#2",
          "ticks": 40800,
          "time": 94.26058499999999,
          "velocity": 0.6299212598425197
        },
        {
          "duration": 1.069196856249988,
          "durationTicks": 479,
          "midi": 39,
          "name": "D#2",
          "ticks": 41040,
          "time": 94.7962995,
          "velocity": 0.6299212598425197
        },
        {
          "duration": 1.069196856249988,
          "durationTicks": 479,
          "midi": 51,
          "name": "D#3",
          "ticks": 41040,
          "time": 94.7962995,
          "velocity": 0.6299212598425197
        },
        {
          "duration": 0.5334823562500048,
          "durationTicks": 239,
          "midi": 41,
          "name": "F2",
          "ticks": 41520,
          "time": 95.8677285,
          "velocity": 0.6299212598425197
        },
        {
          "duration": 1.0691968562500023,
          "durationTicks": 479,
          "midi": 53,
          "name": "F3",
          "ticks": 41520,
          "time": 95.8677285,
          "velocity": 0.6299212598425197
        },
        {
          "duration": 0.5334823562500048,
          "durationTicks": 239,
          "midi": 41,
          "name": "F2",
          "ticks": 41760,
          "time": 96.403443,
          "velocity": 0.6299212598425197
        },
        {
          "duration": 1.0691968562500165,
          "durationTicks": 479,
          "midi": 41,
          "name": "F2",
          "ticks": 42000,
          "time": 96.9391575,
          "velocity": 0.6299212598425197
        },
        {
          "duration": 1.0691968562500165,
          "durationTicks": 479,
          "midi": 53,
          "name": "F3",
          "ticks": 42000,
          "time": 96.9391575,
          "velocity": 0.6299212598425197
        },
        {
          "duration": 0.5334823562500048,
          "durationTicks": 239,
          "midi": 41,
          "name": "F2",
          "ticks": 42480,
          "time": 98.01058649999999,
          "velocity": 0.6299212598425197
        },
        {
          "duration": 1.337054106250008,
          "durationTicks": 599,
          "midi": 34,
          "name": "A#1",
          "ticks": 42720,
          "time": 98.546301,
          "velocity": 0.8818897637795275
        },
        {
          "duration": 1.337054106250008,
          "durationTicks": 599,
          "midi": 46,
          "name": "A#2",
          "ticks": 42720,
          "time": 98.546301,
          "velocity": 0.8818897637795275
        },
        {
          "duration": 0.265625106249999,
          "durationTicks": 119,
          "midi": 46,
          "name": "A#2",
          "ticks": 43320,
          "time": 99.88558725,
          "velocity": 0.8818897637795275
        },
        {
          "duration": 0.2656251062499848,
          "durationTicks": 119,
          "midi": 53,
          "name": "F3",
          "ticks": 43440,
          "time": 100.1534445,
          "velocity": 0.8818897637795275
        },
        {
          "duration": 0.265625106249999,
          "durationTicks": 119,
          "midi": 41,
          "name": "F2",
          "ticks": 43560,
          "time": 100.42130175,
          "velocity": 0.8818897637795275
        },
        {
          "duration": 1.337054106250008,
          "durationTicks": 599,
          "midi": 34,
          "name": "A#1",
          "ticks": 43680,
          "time": 100.68915899999999,
          "velocity": 0.8818897637795275
        },
        {
          "duration": 1.337054106250008,
          "durationTicks": 599,
          "midi": 46,
          "name": "A#2",
          "ticks": 43680,
          "time": 100.68915899999999,
          "velocity": 0.8818897637795275
        },
        {
          "duration": 0.265625106249999,
          "durationTicks": 119,
          "midi": 46,
          "name": "A#2",
          "ticks": 44280,
          "time": 102.02844525,
          "velocity": 0.8818897637795275
        },
        {
          "duration": 0.26562510625001323,
          "durationTicks": 119,
          "midi": 53,
          "name": "F3",
          "ticks": 44400,
          "time": 102.2963025,
          "velocity": 0.8818897637795275
        },
        {
          "duration": 0.265625106249999,
          "durationTicks": 119,
          "midi": 41,
          "name": "F2",
          "ticks": 44520,
          "time": 102.56415975,
          "velocity": 0.8818897637795275
        },
        {
          "duration": 1.6049113562499997,
          "durationTicks": 719,
          "midi": 34,
          "name": "A#1",
          "ticks": 44640,
          "time": 102.83201700000001,
          "velocity": 0.8818897637795275
        },
        {
          "duration": 1.6049113562499997,
          "durationTicks": 719,
          "midi": 46,
          "name": "A#2",
          "ticks": 44640,
          "time": 102.83201700000001,
          "velocity": 0.8818897637795275
        },
        {
          "duration": 0.5334823562499906,
          "durationTicks": 239,
          "midi": 46,
          "name": "A#2",
          "ticks": 45360,
          "time": 104.4391605,
          "velocity": 0.8818897637795275
        },
        {
          "duration": 1.0691968562500165,
          "durationTicks": 479,
          "midi": 39,
          "name": "D#2",
          "ticks": 45600,
          "time": 104.974875,
          "velocity": 0.8818897637795275
        },
        {
          "duration": 1.0691968562500165,
          "durationTicks": 479,
          "midi": 51,
          "name": "D#3",
          "ticks": 45600,
          "time": 104.974875,
          "velocity": 0.8818897637795275
        },
        {
          "duration": 0.26562510625001323,
          "durationTicks": 119,
          "midi": 41,
          "name": "F2",
          "ticks": 46080,
          "time": 106.04630399999999,
          "velocity": 0.8818897637795275
        },
        {
          "duration": 0.26562510625001323,
          "durationTicks": 119,
          "midi": 53,
          "name": "F3",
          "ticks": 46080,
          "time": 106.04630399999999,
          "velocity": 0.8818897637795275
        },
        {
          "duration": 0.2656251062499848,
          "durationTicks": 119,
          "midi": 58,
          "name": "A#3",
          "ticks": 46320,
          "time": 106.5820185,
          "velocity": 0.8818897637795275
        },
        {
          "duration": 0.26562510625001323,
          "durationTicks": 119,
          "midi": 57,
          "name": "A3",
          "ticks": 46440,
          "time": 106.84987575,
          "velocity": 0.8818897637795275
        },
        {
          "duration": 1.6049113562499997,
          "durationTicks": 719,
          "midi": 50,
          "name": "D3",
          "ticks": 46560,
          "time": 107.11773299999999,
          "velocity": 0.8818897637795275
        },
        {
          "duration": 1.6049113562499997,
          "durationTicks": 719,
          "midi": 53,
          "name": "F3",
          "ticks": 46560,
          "time": 107.11773299999999,
          "velocity": 0.8818897637795275
        },
        {
          "duration": 1.6049113562499997,
          "durationTicks": 719,
          "midi": 58,
          "name": "A#3",
          "ticks": 46560,
          "time": 107.11773299999999,
          "velocity": 0.8818897637795275
        },
        {
          "duration": 1.0691968562500165,
          "durationTicks": 479,
          "midi": 46,
          "name": "A#2",
          "ticks": 46560,
          "time": 107.11773299999999,
          "velocity": 0.8818897637795275
        },
        {
          "duration": 1.069196856249988,
          "durationTicks": 479,
          "midi": 46,
          "name": "A#2",
          "ticks": 47040,
          "time": 108.18916200000001,
          "velocity": 0.8818897637795275
        },
        {
          "duration": 0.26562510625001323,
          "durationTicks": 119,
          "midi": 50,
          "name": "D3",
          "ticks": 47280,
          "time": 108.7248765,
          "velocity": 0.8818897637795275
        },
        {
          "duration": 0.26562510625001323,
          "durationTicks": 119,
          "midi": 53,
          "name": "F3",
          "ticks": 47280,
          "time": 108.7248765,
          "velocity": 0.8818897637795275
        },
        {
          "duration": 0.26562510625001323,
          "durationTicks": 119,
          "midi": 58,
          "name": "A#3",
          "ticks": 47280,
          "time": 108.7248765,
          "velocity": 0.8818897637795275
        },
        {
          "duration": 0.26562510625001323,
          "durationTicks": 119,
          "midi": 57,
          "name": "A3",
          "ticks": 47400,
          "time": 108.99273374999999,
          "velocity": 0.8818897637795275
        },
        {
          "duration": 1.6049113562499997,
          "durationTicks": 719,
          "midi": 55,
          "name": "G3",
          "ticks": 47520,
          "time": 109.260591,
          "velocity": 0.8818897637795275
        },
        {
          "duration": 1.6049113562499997,
          "durationTicks": 719,
          "midi": 58,
          "name": "A#3",
          "ticks": 47520,
          "time": 109.260591,
          "velocity": 0.8818897637795275
        },
        {
          "duration": 1.069196856249988,
          "durationTicks": 479,
          "midi": 51,
          "name": "D#3",
          "ticks": 47520,
          "time": 109.260591,
          "velocity": 0.8818897637795275
        },
        {
          "duration": 1.069196856249988,
          "durationTicks": 479,
          "midi": 39,
          "name": "D#2",
          "ticks": 48000,
          "time": 110.33202,
          "velocity": 0.8818897637795275
        },
        {
          "duration": 0.2656251062499848,
          "durationTicks": 119,
          "midi": 51,
          "name": "D#3",
          "ticks": 48240,
          "time": 110.86773450000001,
          "velocity": 0.8818897637795275
        },
        {
          "duration": 0.2656251062499848,
          "durationTicks": 119,
          "midi": 55,
          "name": "G3",
          "ticks": 48240,
          "time": 110.86773450000001,
          "velocity": 0.8818897637795275
        },
        {
          "duration": 0.2656251062499848,
          "durationTicks": 119,
          "midi": 58,
          "name": "A#3",
          "ticks": 48240,
          "time": 110.86773450000001,
          "velocity": 0.8818897637795275
        },
        {
          "duration": 0.2656251062499848,
          "durationTicks": 119,
          "midi": 57,
          "name": "A3",
          "ticks": 48360,
          "time": 111.13559175,
          "velocity": 0.8818897637795275
        },
        {
          "duration": 0.8013396062499965,
          "durationTicks": 359,
          "midi": 50,
          "name": "D3",
          "ticks": 48480,
          "time": 111.403449,
          "velocity": 0.8818897637795275
        },
        {
          "duration": 0.8013396062499965,
          "durationTicks": 359,
          "midi": 53,
          "name": "F3",
          "ticks": 48480,
          "time": 111.403449,
          "velocity": 0.8818897637795275
        },
        {
          "duration": 0.8013396062499965,
          "durationTicks": 359,
          "midi": 58,
          "name": "A#3",
          "ticks": 48480,
          "time": 111.403449,
          "velocity": 0.8818897637795275
        },
        {
          "duration": 2.1406258562500113,
          "durationTicks": 959,
          "midi": 46,
          "name": "A#2",
          "ticks": 48480,
          "time": 111.403449,
          "velocity": 0.8818897637795275
        },
        {
          "duration": 0.26562510625001323,
          "durationTicks": 119,
          "midi": 53,
          "name": "F3",
          "ticks": 48840,
          "time": 112.20702075,
          "velocity": 0.8818897637795275
        },
        {
          "duration": 0.26562510625001323,
          "durationTicks": 119,
          "midi": 57,
          "name": "A3",
          "ticks": 48840,
          "time": 112.20702075,
          "velocity": 0.8818897637795275
        },
        {
          "duration": 0.26562510625001323,
          "durationTicks": 119,
          "midi": 60,
          "name": "C4",
          "ticks": 48840,
          "time": 112.20702075,
          "velocity": 0.8818897637795275
        },
        {
          "duration": 0.8013396062499965,
          "durationTicks": 359,
          "midi": 53,
          "name": "F3",
          "ticks": 48960,
          "time": 112.47487799999999,
          "velocity": 0.8818897637795275
        },
        {
          "duration": 0.8013396062499965,
          "durationTicks": 359,
          "midi": 57,
          "name": "A3",
          "ticks": 48960,
          "time": 112.47487799999999,
          "velocity": 0.8818897637795275
        },
        {
          "duration": 0.8013396062499965,
          "durationTicks": 359,
          "midi": 60,
          "name": "C4",
          "ticks": 48960,
          "time": 112.47487799999999,
          "velocity": 0.8818897637795275
        },
        {
          "duration": 0.26562510625001323,
          "durationTicks": 119,
          "midi": 55,
          "name": "G3",
          "ticks": 49320,
          "time": 113.27844975,
          "velocity": 0.8818897637795275
        },
        {
          "duration": 0.26562510625001323,
          "durationTicks": 119,
          "midi": 58,
          "name": "A#3",
          "ticks": 49320,
          "time": 113.27844975,
          "velocity": 0.8818897637795275
        },
        {
          "duration": 0.26562510625001323,
          "durationTicks": 119,
          "midi": 63,
          "name": "D#4",
          "ticks": 49320,
          "time": 113.27844975,
          "velocity": 0.8818897637795275
        },
        {
          "duration": 1.0691968562500165,
          "durationTicks": 479,
          "midi": 55,
          "name": "G3",
          "ticks": 49440,
          "time": 113.54630699999998,
          "velocity": 0.8818897637795275
        },
        {
          "duration": 1.0691968562500165,
          "durationTicks": 479,
          "midi": 58,
          "name": "A#3",
          "ticks": 49440,
          "time": 113.54630699999998,
          "velocity": 0.8818897637795275
        },
        {
          "duration": 1.0691968562500165,
          "durationTicks": 479,
          "midi": 63,
          "name": "D#4",
          "ticks": 49440,
          "time": 113.54630699999998,
          "velocity": 0.8818897637795275
        },
        {
          "duration": 0.5334823562500048,
          "durationTicks": 239,
          "midi": 46,
          "name": "A#2",
          "ticks": 49920,
          "time": 114.61773600000001,
          "velocity": 0.8818897637795275
        },
        {
          "duration": 0.26562510625001323,
          "durationTicks": 119,
          "midi": 53,
          "name": "F3",
          "ticks": 50160,
          "time": 115.15345049999999,
          "velocity": 0.8818897637795275
        },
        {
          "duration": 0.26562510625001323,
          "durationTicks": 119,
          "midi": 62,
          "name": "D4",
          "ticks": 50160,
          "time": 115.15345049999999,
          "velocity": 0.8818897637795275
        },
        {
          "duration": 0.2656251062499848,
          "durationTicks": 119,
          "midi": 58,
          "name": "A#3",
          "ticks": 50280,
          "time": 115.42130775000001,
          "velocity": 0.8818897637795275
        },
        {
          "duration": 0.8013396062499965,
          "durationTicks": 359,
          "midi": 53,
          "name": "F3",
          "ticks": 50400,
          "time": 115.689165,
          "velocity": 0.8818897637795275
        },
        {
          "duration": 0.8013396062499965,
          "durationTicks": 359,
          "midi": 57,
          "name": "A3",
          "ticks": 50400,
          "time": 115.689165,
          "velocity": 0.8818897637795275
        },
        {
          "duration": 0.8013396062499965,
          "durationTicks": 359,
          "midi": 60,
          "name": "C4",
          "ticks": 50400,
          "time": 115.689165,
          "velocity": 0.8818897637795275
        },
        {
          "duration": 0.2656251062499848,
          "durationTicks": 119,
          "midi": 57,
          "name": "A3",
          "ticks": 50760,
          "time": 116.49273675,
          "velocity": 0.8818897637795275
        },
        {
          "duration": 0.5334823562500048,
          "durationTicks": 239,
          "midi": 53,
          "name": "F3",
          "ticks": 50880,
          "time": 116.760594,
          "velocity": 0.8818897637795275
        },
        {
          "duration": 0.2656251062499848,
          "durationTicks": 119,
          "midi": 53,
          "name": "F3",
          "ticks": 51120,
          "time": 117.29630850000001,
          "velocity": 0.8818897637795275
        },
        {
          "duration": 0.2656251062499848,
          "durationTicks": 119,
          "midi": 62,
          "name": "D4",
          "ticks": 51120,
          "time": 117.29630850000001,
          "velocity": 0.8818897637795275
        },
        {
          "duration": 0.2656251062499848,
          "durationTicks": 119,
          "midi": 58,
          "name": "A#3",
          "ticks": 51240,
          "time": 117.56416575,
          "velocity": 0.8818897637795275
        },
        {
          "duration": 1.0691968562500165,
          "durationTicks": 479,
          "midi": 53,
          "name": "F3",
          "ticks": 51360,
          "time": 117.83202299999999,
          "velocity": 0.8818897637795275
        },
        {
          "duration": 1.0691968562500165,
          "durationTicks": 479,
          "midi": 57,
          "name": "A3",
          "ticks": 51360,
          "time": 117.83202299999999,
          "velocity": 0.8818897637795275
        },
        {
          "duration": 1.0691968562500165,
          "durationTicks": 479,
          "midi": 60,
          "name": "C4",
          "ticks": 51360,
          "time": 117.83202299999999,
          "velocity": 0.8818897637795275
        },
        {
          "duration": 0.5334823562500048,
          "durationTicks": 239,
          "midi": 41,
          "name": "F2",
          "ticks": 51840,
          "time": 118.90345199999999,
          "velocity": 0.8818897637795275
        },
        {
          "duration": 0.5334823562500048,
          "durationTicks": 239,
          "midi": 38,
          "name": "D2",
          "ticks": 52080,
          "time": 119.4391665,
          "velocity": 0.8818897637795275
        },
        {
          "duration": 0.5334823562500048,
          "durationTicks": 239,
          "midi": 50,
          "name": "D3",
          "ticks": 52080,
          "time": 119.4391665,
          "velocity": 0.8818897637795275
        },
        {
          "duration": 0.8013396062499965,
          "durationTicks": 359,
          "midi": 43,
          "name": "G2",
          "ticks": 52320,
          "time": 119.97488100000001,
          "velocity": 0.8818897637795275
        },
        {
          "duration": 0.8013396062499965,
          "durationTicks": 359,
          "midi": 55,
          "name": "G3",
          "ticks": 52320,
          "time": 119.97488100000001,
          "velocity": 0.8818897637795275
        },
        {
          "duration": 0.26562510625001323,
          "durationTicks": 119,
          "midi": 41,
          "name": "F2",
          "ticks": 52680,
          "time": 120.77845274999999,
          "velocity": 0.8818897637795275
        },
        {
          "duration": 0.26562510625001323,
          "durationTicks": 119,
          "midi": 53,
          "name": "F3",
          "ticks": 52680,
          "time": 120.77845274999999,
          "velocity": 0.8818897637795275
        },
        {
          "duration": 0.8013396062499965,
          "durationTicks": 359,
          "midi": 41,
          "name": "F2",
          "ticks": 52800,
          "time": 121.04631,
          "velocity": 0.8818897637795275
        },
        {
          "duration": 0.8013396062499965,
          "durationTicks": 359,
          "midi": 53,
          "name": "F3",
          "ticks": 52800,
          "time": 121.04631,
          "velocity": 0.8818897637795275
        },
        {
          "duration": 0.2656251062499848,
          "durationTicks": 119,
          "midi": 41,
          "name": "F2",
          "ticks": 53160,
          "time": 121.84988175000001,
          "velocity": 0.8818897637795275
        },
        {
          "duration": 0.2656251062499848,
          "durationTicks": 119,
          "midi": 53,
          "name": "F3",
          "ticks": 53160,
          "time": 121.84988175000001,
          "velocity": 0.8818897637795275
        },
        {
          "duration": 0.5334823562500048,
          "durationTicks": 239,
          "midi": 41,
          "name": "F2",
          "ticks": 53280,
          "time": 122.117739,
          "velocity": 0.8818897637795275
        },
        {
          "duration": 0.5334823562500048,
          "durationTicks": 239,
          "midi": 53,
          "name": "F3",
          "ticks": 53280,
          "time": 122.117739,
          "velocity": 0.8818897637795275
        },
        {
          "duration": 0.5334823562500048,
          "durationTicks": 239,
          "midi": 41,
          "name": "F2",
          "ticks": 53520,
          "time": 122.65345349999998,
          "velocity": 0.8818897637795275
        },
        {
          "duration": 0.5334823562500048,
          "durationTicks": 239,
          "midi": 41,
          "name": "F2",
          "ticks": 53760,
          "time": 123.189168,
          "velocity": 0.8818897637795275
        },
        {
          "duration": 0.5334823562500048,
          "durationTicks": 239,
          "midi": 41,
          "name": "F2",
          "ticks": 54000,
          "time": 123.7248825,
          "velocity": 0.8818897637795275
        },
        {
          "duration": 0.5334823562500048,
          "durationTicks": 239,
          "midi": 58,
          "name": "A#3",
          "ticks": 54240,
          "time": 124.26059699999999,
          "velocity": 0.8818897637795275
        },
        {
          "duration": 1.6049113562499997,
          "durationTicks": 719,
          "midi": 46,
          "name": "A#2",
          "ticks": 54240,
          "time": 124.26059699999999,
          "velocity": 0.8818897637795275
        },
        {
          "duration": 0.2656251062499848,
          "durationTicks": 119,
          "midi": 58,
          "name": "A#3",
          "ticks": 54480,
          "time": 124.7963115,
          "velocity": 0.8818897637795275
        },
        {
          "duration": 0.26562510625001323,
          "durationTicks": 119,
          "midi": 57,
          "name": "A3",
          "ticks": 54600,
          "time": 125.06416875,
          "velocity": 0.8818897637795275
        },
        {
          "duration": 1.6049113562500281,
          "durationTicks": 719,
          "midi": 58,
          "name": "A#3",
          "ticks": 54720,
          "time": 125.33202599999998,
          "velocity": 0.8818897637795275
        },
        {
          "duration": 0.5334823562500048,
          "durationTicks": 239,
          "midi": 46,
          "name": "A#2",
          "ticks": 54960,
          "time": 125.8677405,
          "velocity": 0.8818897637795275
        },
        {
          "duration": 1.6049113562499997,
          "durationTicks": 719,
          "midi": 51,
          "name": "D#3",
          "ticks": 55200,
          "time": 126.40345500000001,
          "velocity": 0.8818897637795275
        },
        {
          "duration": 0.26562510625001323,
          "durationTicks": 119,
          "midi": 58,
          "name": "A#3",
          "ticks": 55440,
          "time": 126.93916949999999,
          "velocity": 0.8818897637795275
        },
        {
          "duration": 0.2656251062499848,
          "durationTicks": 119,
          "midi": 57,
          "name": "A3",
          "ticks": 55560,
          "time": 127.20702675000001,
          "velocity": 0.8818897637795275
        },
        {
          "duration": 1.6049113562499997,
          "durationTicks": 719,
          "midi": 58,
          "name": "A#3",
          "ticks": 55680,
          "time": 127.474884,
          "velocity": 0.8818897637795275
        },
        {
          "duration": 0.5334823562500048,
          "durationTicks": 239,
          "midi": 51,
          "name": "D#3",
          "ticks": 55920,
          "time": 128.0105985,
          "velocity": 0.8818897637795275
        },
        {
          "duration": 1.6049113562499997,
          "durationTicks": 719,
          "midi": 46,
          "name": "A#2",
          "ticks": 56160,
          "time": 128.546313,
          "velocity": 0.8818897637795275
        },
        {
          "duration": 0.2656251062499848,
          "durationTicks": 119,
          "midi": 58,
          "name": "A#3",
          "ticks": 56400,
          "time": 129.0820275,
          "velocity": 0.8818897637795275
        },
        {
          "duration": 0.2656251062499848,
          "durationTicks": 119,
          "midi": 57,
          "name": "A3",
          "ticks": 56520,
          "time": 129.34988475,
          "velocity": 0.8818897637795275
        },
        {
          "duration": 1.6049113562499997,
          "durationTicks": 719,
          "midi": 58,
          "name": "A#3",
          "ticks": 56640,
          "time": 129.617742,
          "velocity": 0.8818897637795275
        },
        {
          "duration": 0.5334823562500048,
          "durationTicks": 239,
          "midi": 46,
          "name": "A#2",
          "ticks": 56880,
          "time": 130.1534565,
          "velocity": 0.8818897637795275
        },
        {
          "duration": 1.6049113562499997,
          "durationTicks": 719,
          "midi": 51,
          "name": "D#3",
          "ticks": 57120,
          "time": 130.689171,
          "velocity": 0.8818897637795275
        },
        {
          "duration": 0.26562510625001323,
          "durationTicks": 119,
          "midi": 58,
          "name": "A#3",
          "ticks": 57360,
          "time": 131.2248855,
          "velocity": 0.8818897637795275
        },
        {
          "duration": 0.26562510625001323,
          "durationTicks": 119,
          "midi": 57,
          "name": "A3",
          "ticks": 57480,
          "time": 131.49274275,
          "velocity": 0.8818897637795275
        },
        {
          "duration": 1.069196856249988,
          "durationTicks": 479,
          "midi": 58,
          "name": "A#3",
          "ticks": 57600,
          "time": 131.7606,
          "velocity": 0.8818897637795275
        },
        {
          "duration": 0.5334823562500048,
          "durationTicks": 239,
          "midi": 51,
          "name": "D#3",
          "ticks": 57840,
          "time": 132.2963145,
          "velocity": 0.8818897637795275
        },
        {
          "duration": 0.5334823562500048,
          "durationTicks": 239,
          "midi": 46,
          "name": "A#2",
          "ticks": 58080,
          "time": 132.832029,
          "velocity": 0.8818897637795275
        },
        {
          "duration": 0.5334823562500048,
          "durationTicks": 239,
          "midi": 53,
          "name": "F3",
          "ticks": 58080,
          "time": 132.832029,
          "velocity": 0.8818897637795275
        },
        {
          "duration": 0.5334823562500048,
          "durationTicks": 239,
          "midi": 46,
          "name": "A#2",
          "ticks": 58320,
          "time": 133.3677435,
          "velocity": 0.8818897637795275
        },
        {
          "duration": 0.5334823562500048,
          "durationTicks": 239,
          "midi": 53,
          "name": "F3",
          "ticks": 58320,
          "time": 133.3677435,
          "velocity": 0.8818897637795275
        },
        {
          "duration": 0.5334823562500048,
          "durationTicks": 239,
          "midi": 41,
          "name": "F2",
          "ticks": 58560,
          "time": 133.903458,
          "velocity": 0.8818897637795275
        },
        {
          "duration": 0.5334823562500048,
          "durationTicks": 239,
          "midi": 53,
          "name": "F3",
          "ticks": 58560,
          "time": 133.903458,
          "velocity": 0.8818897637795275
        },
        {
          "duration": 0.5334823562500048,
          "durationTicks": 239,
          "midi": 41,
          "name": "F2",
          "ticks": 58800,
          "time": 134.43917249999998,
          "velocity": 0.8818897637795275
        },
        {
          "duration": 0.5334823562500048,
          "durationTicks": 239,
          "midi": 53,
          "name": "F3",
          "ticks": 58800,
          "time": 134.43917249999998,
          "velocity": 0.8818897637795275
        },
        {
          "duration": 0.5334823562500048,
          "durationTicks": 239,
          "midi": 44,
          "name": "G#2",
          "ticks": 59040,
          "time": 134.974887,
          "velocity": 0.8818897637795275
        },
        {
          "duration": 0.5334823562500048,
          "durationTicks": 239,
          "midi": 51,
          "name": "D#3",
          "ticks": 59040,
          "time": 134.974887,
          "velocity": 0.8818897637795275
        },
        {
          "duration": 0.5334823562500048,
          "durationTicks": 239,
          "midi": 44,
          "name": "G#2",
          "ticks": 59280,
          "time": 135.5106015,
          "velocity": 0.8818897637795275
        },
        {
          "duration": 0.5334823562500048,
          "durationTicks": 239,
          "midi": 44,
          "name": "G#2",
          "ticks": 59520,
          "time": 136.046316,
          "velocity": 0.8818897637795275
        },
        {
          "duration": 0.5334823562500048,
          "durationTicks": 239,
          "midi": 41,
          "name": "F2",
          "ticks": 59760,
          "time": 136.5820305,
          "velocity": 0.8818897637795275
        },
        {
          "duration": 0.5334823562500048,
          "durationTicks": 239,
          "midi": 53,
          "name": "F3",
          "ticks": 59760,
          "time": 136.5820305,
          "velocity": 0.8818897637795275
        },
        {
          "duration": 0.8013396062500249,
          "durationTicks": 359,
          "midi": 43,
          "name": "G2",
          "ticks": 60000,
          "time": 137.11774499999999,
          "velocity": 0.8818897637795275
        },
        {
          "duration": 0.8013396062500249,
          "durationTicks": 359,
          "midi": 55,
          "name": "G3",
          "ticks": 60000,
          "time": 137.11774499999999,
          "velocity": 0.8818897637795275
        },
        {
          "duration": 0.26562510625001323,
          "durationTicks": 119,
          "midi": 41,
          "name": "F2",
          "ticks": 60360,
          "time": 137.92131675,
          "velocity": 0.8818897637795275
        },
        {
          "duration": 0.26562510625001323,
          "durationTicks": 119,
          "midi": 53,
          "name": "F3",
          "ticks": 60360,
          "time": 137.92131675,
          "velocity": 0.8818897637795275
        },
        {
          "duration": 0.5334823562500048,
          "durationTicks": 239,
          "midi": 39,
          "name": "D#2",
          "ticks": 60480,
          "time": 138.189174,
          "velocity": 0.8818897637795275
        },
        {
          "duration": 0.5334823562500048,
          "durationTicks": 239,
          "midi": 51,
          "name": "D#3",
          "ticks": 60480,
          "time": 138.189174,
          "velocity": 0.8818897637795275
        },
        {
          "duration": 0.5334823562500048,
          "durationTicks": 239,
          "midi": 36,
          "name": "C2",
          "ticks": 60720,
          "time": 138.7248885,
          "velocity": 0.8818897637795275
        },
        {
          "duration": 0.5334823562500048,
          "durationTicks": 239,
          "midi": 48,
          "name": "C3",
          "ticks": 60720,
          "time": 138.7248885,
          "velocity": 0.8818897637795275
        },
        {
          "duration": 0.5334823562500048,
          "durationTicks": 239,
          "midi": 41,
          "name": "F2",
          "ticks": 60960,
          "time": 139.260603,
          "velocity": 0.8818897637795275
        },
        {
          "duration": 0.5334823562500048,
          "durationTicks": 239,
          "midi": 53,
          "name": "F3",
          "ticks": 60960,
          "time": 139.260603,
          "velocity": 0.8818897637795275
        },
        {
          "duration": 0.5334823562500048,
          "durationTicks": 239,
          "midi": 41,
          "name": "F2",
          "ticks": 61200,
          "time": 139.7963175,
          "velocity": 0.8818897637795275
        },
        {
          "duration": 0.5334823562500048,
          "durationTicks": 239,
          "midi": 41,
          "name": "F2",
          "ticks": 61440,
          "time": 140.332032,
          "velocity": 0.8818897637795275
        },
        {
          "duration": 0.5334823562499764,
          "durationTicks": 239,
          "midi": 41,
          "name": "F2",
          "ticks": 61680,
          "time": 140.8677465,
          "velocity": 0.8818897637795275
        },
        {
          "duration": 0.5334823562500048,
          "durationTicks": 239,
          "midi": 34,
          "name": "A#1",
          "ticks": 61920,
          "time": 141.403461,
          "velocity": 0.8818897637795275
        },
        {
          "duration": 0.5334823562500048,
          "durationTicks": 239,
          "midi": 46,
          "name": "A#2",
          "ticks": 61920,
          "time": 141.403461,
          "velocity": 0.8818897637795275
        },
        {
          "duration": 0.5334823562500048,
          "durationTicks": 239,
          "midi": 34,
          "name": "A#1",
          "ticks": 62160,
          "time": 141.9391755,
          "velocity": 0.8818897637795275
        },
        {
          "duration": 0.5334823562500048,
          "durationTicks": 239,
          "midi": 46,
          "name": "A#2",
          "ticks": 62160,
          "time": 141.9391755,
          "velocity": 0.8818897637795275
        },
        {
          "duration": 0.5334823562500048,
          "durationTicks": 239,
          "midi": 39,
          "name": "D#2",
          "ticks": 62400,
          "time": 142.47489,
          "velocity": 0.8818897637795275
        },
        {
          "duration": 0.5334823562500048,
          "durationTicks": 239,
          "midi": 39,
          "name": "D#2",
          "ticks": 62640,
          "time": 143.0106045,
          "velocity": 0.8818897637795275
        },
        {
          "duration": 0.5334823562500048,
          "durationTicks": 239,
          "midi": 34,
          "name": "A#1",
          "ticks": 62880,
          "time": 143.54631899999998,
          "velocity": 0.8818897637795275
        },
        {
          "duration": 0.5334823562500048,
          "durationTicks": 239,
          "midi": 46,
          "name": "A#2",
          "ticks": 62880,
          "time": 143.54631899999998,
          "velocity": 0.8818897637795275
        },
        {
          "duration": 0.5334823562500048,
          "durationTicks": 239,
          "midi": 34,
          "name": "A#1",
          "ticks": 63120,
          "time": 144.0820335,
          "velocity": 0.8818897637795275
        },
        {
          "duration": 0.5334823562500048,
          "durationTicks": 239,
          "midi": 46,
          "name": "A#2",
          "ticks": 63120,
          "time": 144.0820335,
          "velocity": 0.8818897637795275
        },
        {
          "duration": 0.5334823562500048,
          "durationTicks": 239,
          "midi": 39,
          "name": "D#2",
          "ticks": 63360,
          "time": 144.617748,
          "velocity": 0.8818897637795275
        },
        {
          "duration": 0.5334823562500048,
          "durationTicks": 239,
          "midi": 39,
          "name": "D#2",
          "ticks": 63600,
          "time": 145.1534625,
          "velocity": 0.8818897637795275
        },
        {
          "duration": 0.5334823562500048,
          "durationTicks": 239,
          "midi": 34,
          "name": "A#1",
          "ticks": 63840,
          "time": 145.689177,
          "velocity": 0.8818897637795275
        },
        {
          "duration": 0.5334823562500048,
          "durationTicks": 239,
          "midi": 46,
          "name": "A#2",
          "ticks": 63840,
          "time": 145.689177,
          "velocity": 0.8818897637795275
        },
        {
          "duration": 0.5334823562500048,
          "durationTicks": 239,
          "midi": 34,
          "name": "A#1",
          "ticks": 64080,
          "time": 146.22489149999998,
          "velocity": 0.8818897637795275
        },
        {
          "duration": 0.5334823562500048,
          "durationTicks": 239,
          "midi": 46,
          "name": "A#2",
          "ticks": 64080,
          "time": 146.22489149999998,
          "velocity": 0.8818897637795275
        },
        {
          "duration": 0.5334823562500048,
          "durationTicks": 239,
          "midi": 38,
          "name": "D2",
          "ticks": 64320,
          "time": 146.760606,
          "velocity": 0.8818897637795275
        },
        {
          "duration": 0.5334823562500048,
          "durationTicks": 239,
          "midi": 50,
          "name": "D3",
          "ticks": 64320,
          "time": 146.760606,
          "velocity": 0.8818897637795275
        },
        {
          "duration": 0.5334823562500048,
          "durationTicks": 239,
          "midi": 38,
          "name": "D2",
          "ticks": 64560,
          "time": 147.2963205,
          "velocity": 0.8818897637795275
        },
        {
          "duration": 0.5334823562500048,
          "durationTicks": 239,
          "midi": 50,
          "name": "D3",
          "ticks": 64560,
          "time": 147.2963205,
          "velocity": 0.8818897637795275
        },
        {
          "duration": 0.5334823562500048,
          "durationTicks": 239,
          "midi": 39,
          "name": "D#2",
          "ticks": 64800,
          "time": 147.832035,
          "velocity": 0.8818897637795275
        },
        {
          "duration": 0.5334823562500048,
          "durationTicks": 239,
          "midi": 51,
          "name": "D#3",
          "ticks": 64800,
          "time": 147.832035,
          "velocity": 0.8818897637795275
        },
        {
          "duration": 0.5334823562500048,
          "durationTicks": 239,
          "midi": 51,
          "name": "D#3",
          "ticks": 65040,
          "time": 148.3677495,
          "velocity": 0.8818897637795275
        },
        {
          "duration": 0.5334823562500048,
          "durationTicks": 239,
          "midi": 39,
          "name": "D#2",
          "ticks": 65280,
          "time": 148.90346399999999,
          "velocity": 0.8818897637795275
        },
        {
          "duration": 0.5334823562500048,
          "durationTicks": 239,
          "midi": 39,
          "name": "D#2",
          "ticks": 65520,
          "time": 149.4391785,
          "velocity": 0.8818897637795275
        },
        {
          "duration": 0.5334823562499764,
          "durationTicks": 239,
          "midi": 34,
          "name": "A#1",
          "ticks": 65760,
          "time": 149.974893,
          "velocity": 0.8818897637795275
        },
        {
          "duration": 0.5334823562499764,
          "durationTicks": 239,
          "midi": 46,
          "name": "A#2",
          "ticks": 65760,
          "time": 149.974893,
          "velocity": 0.8818897637795275
        },
        {
          "duration": 0.5334823562500048,
          "durationTicks": 239,
          "midi": 34,
          "name": "A#1",
          "ticks": 66000,
          "time": 150.5106075,
          "velocity": 0.8818897637795275
        },
        {
          "duration": 0.5334823562500048,
          "durationTicks": 239,
          "midi": 46,
          "name": "A#2",
          "ticks": 66000,
          "time": 150.5106075,
          "velocity": 0.8818897637795275
        },
        {
          "duration": 0.5334823562500048,
          "durationTicks": 239,
          "midi": 39,
          "name": "D#2",
          "ticks": 66240,
          "time": 151.046322,
          "velocity": 0.8818897637795275
        },
        {
          "duration": 0.5334823562500048,
          "durationTicks": 239,
          "midi": 39,
          "name": "D#2",
          "ticks": 66480,
          "time": 151.5820365,
          "velocity": 0.8818897637795275
        },
        {
          "duration": 0.5334823562500048,
          "durationTicks": 239,
          "midi": 34,
          "name": "A#1",
          "ticks": 66720,
          "time": 152.117751,
          "velocity": 0.8818897637795275
        },
        {
          "duration": 0.5334823562500048,
          "durationTicks": 239,
          "midi": 46,
          "name": "A#2",
          "ticks": 66720,
          "time": 152.117751,
          "velocity": 0.8818897637795275
        },
        {
          "duration": 0.5334823562499764,
          "durationTicks": 239,
          "midi": 34,
          "name": "A#1",
          "ticks": 66960,
          "time": 152.6534655,
          "velocity": 0.8818897637795275
        },
        {
          "duration": 0.5334823562499764,
          "durationTicks": 239,
          "midi": 46,
          "name": "A#2",
          "ticks": 66960,
          "time": 152.6534655,
          "velocity": 0.8818897637795275
        },
        {
          "duration": 0.5334823562500048,
          "durationTicks": 239,
          "midi": 39,
          "name": "D#2",
          "ticks": 67200,
          "time": 153.18918,
          "velocity": 0.8818897637795275
        },
        {
          "duration": 0.5334823562500048,
          "durationTicks": 239,
          "midi": 39,
          "name": "D#2",
          "ticks": 67440,
          "time": 153.7248945,
          "velocity": 0.8818897637795275
        },
        {
          "duration": 0.5334823562500048,
          "durationTicks": 239,
          "midi": 34,
          "name": "A#1",
          "ticks": 67680,
          "time": 154.260609,
          "velocity": 0.8818897637795275
        },
        {
          "duration": 0.5334823562500048,
          "durationTicks": 239,
          "midi": 46,
          "name": "A#2",
          "ticks": 67680,
          "time": 154.260609,
          "velocity": 0.8818897637795275
        },
        {
          "duration": 0.5334823562500048,
          "durationTicks": 239,
          "midi": 34,
          "name": "A#1",
          "ticks": 67920,
          "time": 154.7963235,
          "velocity": 0.8818897637795275
        },
        {
          "duration": 0.5334823562500048,
          "durationTicks": 239,
          "midi": 46,
          "name": "A#2",
          "ticks": 67920,
          "time": 154.7963235,
          "velocity": 0.8818897637795275
        },
        {
          "duration": 0.5334823562500048,
          "durationTicks": 239,
          "midi": 34,
          "name": "A#1",
          "ticks": 68160,
          "time": 155.33203799999998,
          "velocity": 0.8818897637795275
        },
        {
          "duration": 0.5334823562500048,
          "durationTicks": 239,
          "midi": 46,
          "name": "A#2",
          "ticks": 68160,
          "time": 155.33203799999998,
          "velocity": 0.8818897637795275
        },
        {
          "duration": 0.5334823562500048,
          "durationTicks": 239,
          "midi": 34,
          "name": "A#1",
          "ticks": 68400,
          "time": 155.8677525,
          "velocity": 0.8818897637795275
        },
        {
          "duration": 0.5334823562500048,
          "durationTicks": 239,
          "midi": 46,
          "name": "A#2",
          "ticks": 68400,
          "time": 155.8677525,
          "velocity": 0.8818897637795275
        },
        {
          "duration": 0.5334823562500048,
          "durationTicks": 239,
          "midi": 41,
          "name": "F2",
          "ticks": 68640,
          "time": 156.403467,
          "velocity": 0.8818897637795275
        },
        {
          "duration": 0.5334823562500048,
          "durationTicks": 239,
          "midi": 53,
          "name": "F3",
          "ticks": 68640,
          "time": 156.403467,
          "velocity": 0.8818897637795275
        },
        {
          "duration": 0.5334823562500048,
          "durationTicks": 239,
          "midi": 41,
          "name": "F2",
          "ticks": 68880,
          "time": 156.9391815,
          "velocity": 0.8818897637795275
        },
        {
          "duration": 0.5334823562500048,
          "durationTicks": 239,
          "midi": 53,
          "name": "F3",
          "ticks": 68880,
          "time": 156.9391815,
          "velocity": 0.8818897637795275
        },
        {
          "duration": 0.5334823562500048,
          "durationTicks": 239,
          "midi": 29,
          "name": "F1",
          "ticks": 69120,
          "time": 157.474896,
          "velocity": 0.8818897637795275
        },
        {
          "duration": 0.5334823562500048,
          "durationTicks": 239,
          "midi": 41,
          "name": "F2",
          "ticks": 69120,
          "time": 157.474896,
          "velocity": 0.8818897637795275
        },
        {
          "duration": 0.5334823562500048,
          "durationTicks": 239,
          "midi": 29,
          "name": "F1",
          "ticks": 69360,
          "time": 158.01061049999998,
          "velocity": 0.8818897637795275
        },
        {
          "duration": 0.5334823562500048,
          "durationTicks": 239,
          "midi": 41,
          "name": "F2",
          "ticks": 69360,
          "time": 158.01061049999998,
          "velocity": 0.8818897637795275
        },
        {
          "duration": 1.0691968562500165,
          "durationTicks": 479,
          "midi": 34,
          "name": "A#1",
          "ticks": 69600,
          "time": 158.546325,
          "velocity": 0.8818897637795275
        },
        {
          "duration": 1.0691968562500165,
          "durationTicks": 479,
          "midi": 46,
          "name": "A#2",
          "ticks": 69600,
          "time": 158.546325,
          "velocity": 0.8818897637795275
        },
        {
          "duration": 1.0691968562500165,
          "durationTicks": 479,
          "midi": 39,
          "name": "D#2",
          "ticks": 70080,
          "time": 159.617754,
          "velocity": 0.8818897637795275
        },
        {
          "duration": 1.0691968562500165,
          "durationTicks": 479,
          "midi": 46,
          "name": "A#2",
          "ticks": 70560,
          "time": 160.68918299999999,
          "velocity": 0.8818897637795275
        },
        {
          "duration": 1.069196856249988,
          "durationTicks": 479,
          "midi": 51,
          "name": "D#3",
          "ticks": 71040,
          "time": 161.760612,
          "velocity": 0.8818897637795275
        },
        {
          "duration": 1.069196856249988,
          "durationTicks": 479,
          "midi": 55,
          "name": "G3",
          "ticks": 71040,
          "time": 161.760612,
          "velocity": 0.8818897637795275
        },
        {
          "duration": 0.5334823562500048,
          "durationTicks": 239,
          "midi": 46,
          "name": "A#2",
          "ticks": 71520,
          "time": 162.832041,
          "velocity": 0.8818897637795275
        },
        {
          "duration": 0.5334823562500048,
          "durationTicks": 239,
          "midi": 53,
          "name": "F3",
          "ticks": 71520,
          "time": 162.832041,
          "velocity": 0.8818897637795275
        },
        {
          "duration": 1.0691968562500165,
          "durationTicks": 479,
          "midi": 34,
          "name": "A#1",
          "ticks": 71760,
          "time": 163.3677555,
          "velocity": 0.8818897637795275
        },
        {
          "duration": 1.0691968562500165,
          "durationTicks": 479,
          "midi": 46,
          "name": "A#2",
          "ticks": 71760,
          "time": 163.3677555,
          "velocity": 0.8818897637795275
        },
        {
          "duration": 0.5334823562499764,
          "durationTicks": 239,
          "midi": 34,
          "name": "A#1",
          "ticks": 72240,
          "time": 164.4391845,
          "velocity": 0.8818897637795275
        },
        {
          "duration": 0.5334823562499764,
          "durationTicks": 239,
          "midi": 46,
          "name": "A#2",
          "ticks": 72240,
          "time": 164.4391845,
          "velocity": 0.8818897637795275
        },
        {
          "duration": 0.26562510625001323,
          "durationTicks": 119,
          "midi": 39,
          "name": "D#2",
          "ticks": 72600,
          "time": 165.24275624999999,
          "velocity": 0.8818897637795275
        },
        {
          "duration": 0.26562510625001323,
          "durationTicks": 119,
          "midi": 51,
          "name": "D#3",
          "ticks": 72600,
          "time": 165.24275624999999,
          "velocity": 0.8818897637795275
        },
        {
          "duration": 0.2656251062499848,
          "durationTicks": 119,
          "midi": 38,
          "name": "D2",
          "ticks": 72720,
          "time": 165.5106135,
          "velocity": 0.8818897637795275
        },
        {
          "duration": 0.2656251062499848,
          "durationTicks": 119,
          "midi": 50,
          "name": "D3",
          "ticks": 72720,
          "time": 165.5106135,
          "velocity": 0.8818897637795275
        },
        {
          "duration": 0.26562510625001323,
          "durationTicks": 119,
          "midi": 36,
          "name": "C2",
          "ticks": 72840,
          "time": 165.77847075,
          "velocity": 0.8818897637795275
        },
        {
          "duration": 0.26562510625001323,
          "durationTicks": 119,
          "midi": 48,
          "name": "C3",
          "ticks": 72840,
          "time": 165.77847075,
          "velocity": 0.8818897637795275
        },
        {
          "duration": 0.2656251062499848,
          "durationTicks": 119,
          "midi": 38,
          "name": "D2",
          "ticks": 73080,
          "time": 166.31418525,
          "velocity": 0.8818897637795275
        },
        {
          "duration": 0.2656251062499848,
          "durationTicks": 119,
          "midi": 50,
          "name": "D3",
          "ticks": 73080,
          "time": 166.31418525,
          "velocity": 0.8818897637795275
        },
        {
          "duration": 0.2656251062499848,
          "durationTicks": 119,
          "midi": 36,
          "name": "C2",
          "ticks": 73200,
          "time": 166.5820425,
          "velocity": 0.8818897637795275
        },
        {
          "duration": 0.2656251062499848,
          "durationTicks": 119,
          "midi": 48,
          "name": "C3",
          "ticks": 73200,
          "time": 166.5820425,
          "velocity": 0.8818897637795275
        },
        {
          "duration": 0.26562510625001323,
          "durationTicks": 119,
          "midi": 29,
          "name": "F1",
          "ticks": 73320,
          "time": 166.84989975,
          "velocity": 0.8818897637795275
        },
        {
          "duration": 0.26562510625001323,
          "durationTicks": 119,
          "midi": 41,
          "name": "F2",
          "ticks": 73320,
          "time": 166.84989975,
          "velocity": 0.8818897637795275
        },
        {
          "duration": 0.13169648125000322,
          "durationTicks": 59,
          "midi": 41,
          "name": "F2",
          "ticks": 73560,
          "time": 167.38561425,
          "velocity": 0.8818897637795275
        },
        {
          "duration": 0.13169648125000322,
          "durationTicks": 59,
          "midi": 53,
          "name": "F3",
          "ticks": 73560,
          "time": 167.38561425,
          "velocity": 0.8818897637795275
        },
        {
          "duration": 0.13169648125000322,
          "durationTicks": 59,
          "midi": 39,
          "name": "D#2",
          "ticks": 73620,
          "time": 167.51954287499998,
          "velocity": 0.8818897637795275
        },
        {
          "duration": 0.13169648125000322,
          "durationTicks": 59,
          "midi": 51,
          "name": "D#3",
          "ticks": 73620,
          "time": 167.51954287499998,
          "velocity": 0.8818897637795275
        },
        {
          "duration": 0.26562510625001323,
          "durationTicks": 119,
          "midi": 38,
          "name": "D2",
          "ticks": 73680,
          "time": 167.6534715,
          "velocity": 0.8818897637795275
        },
        {
          "duration": 0.26562510625001323,
          "durationTicks": 119,
          "midi": 50,
          "name": "D3",
          "ticks": 73680,
          "time": 167.6534715,
          "velocity": 0.8818897637795275
        },
        {
          "duration": 0.26562510625001323,
          "durationTicks": 119,
          "midi": 36,
          "name": "C2",
          "ticks": 73800,
          "time": 167.92132875,
          "velocity": 0.8818897637795275
        },
        {
          "duration": 0.26562510625001323,
          "durationTicks": 119,
          "midi": 48,
          "name": "C3",
          "ticks": 73800,
          "time": 167.92132875,
          "velocity": 0.8818897637795275
        },
        {
          "duration": 0.5334823562500048,
          "durationTicks": 239,
          "midi": 29,
          "name": "F1",
          "ticks": 74040,
          "time": 168.45704325,
          "velocity": 0.9921259842519685
        },
        {
          "duration": 0.5334823562500048,
          "durationTicks": 239,
          "midi": 41,
          "name": "F2",
          "ticks": 74040,
          "time": 168.45704325,
          "velocity": 0.9921259842519685
        },
        {
          "duration": 0.26562510625001323,
          "durationTicks": 119,
          "midi": 29,
          "name": "F1",
          "ticks": 74280,
          "time": 168.99275774999998,
          "velocity": 0.9921259842519685
        },
        {
          "duration": 0.26562510625001323,
          "durationTicks": 119,
          "midi": 41,
          "name": "F2",
          "ticks": 74280,
          "time": 168.99275774999998,
          "velocity": 0.9921259842519685
        },
        {
          "duration": 0.5636795083333368,
          "durationTicks": 239,
          "midi": 62,
          "name": "D4",
          "ticks": 74400,
          "time": 169.260615,
          "velocity": 0.8818897637795275
        },
        {
          "duration": 3.9599075083333446,
          "durationTicks": 1679,
          "midi": 50,
          "name": "D3",
          "ticks": 74400,
          "time": 169.260615,
          "velocity": 0.8818897637795275
        },
        {
          "duration": 0.2806605083333409,
          "durationTicks": 119,
          "midi": 61,
          "name": "C#4",
          "ticks": 74640,
          "time": 169.826653,
          "velocity": 0.8818897637795275
        },
        {
          "duration": 0.2806605083333409,
          "durationTicks": 119,
          "midi": 62,
          "name": "D4",
          "ticks": 74760,
          "time": 170.109672,
          "velocity": 0.8818897637795275
        },
        {
          "duration": 0.5636795083333084,
          "durationTicks": 239,
          "midi": 62,
          "name": "D4",
          "ticks": 74880,
          "time": 170.392691,
          "velocity": 0.8818897637795275
        },
        {
          "duration": 0.2806605083333409,
          "durationTicks": 119,
          "midi": 61,
          "name": "C#4",
          "ticks": 75120,
          "time": 170.958729,
          "velocity": 0.8818897637795275
        },
        {
          "duration": 0.2806605083333409,
          "durationTicks": 119,
          "midi": 62,
          "name": "D4",
          "ticks": 75240,
          "time": 171.241748,
          "velocity": 0.8818897637795275
        },
        {
          "duration": 0.5636795083333368,
          "durationTicks": 239,
          "midi": 62,
          "name": "D4",
          "ticks": 75360,
          "time": 171.524767,
          "velocity": 0.8818897637795275
        },
        {
          "duration": 0.2806605083333409,
          "durationTicks": 119,
          "midi": 61,
          "name": "C#4",
          "ticks": 75600,
          "time": 172.090805,
          "velocity": 0.8818897637795275
        },
        {
          "duration": 0.28066050833331246,
          "durationTicks": 119,
          "midi": 62,
          "name": "D4",
          "ticks": 75720,
          "time": 172.373824,
          "velocity": 0.8818897637795275
        },
        {
          "duration": 0.5636795083333368,
          "durationTicks": 239,
          "midi": 62,
          "name": "D4",
          "ticks": 75840,
          "time": 172.656843,
          "velocity": 0.8818897637795275
        },
        {
          "duration": 0,
          "durationTicks": 0,
          "midi": 50,
          "name": "D3",
          "ticks": 76080,
          "time": 173.222881,
          "velocity": 0.8818897637795275
        },
        {
          "duration": 0.5636795083333368,
          "durationTicks": 239,
          "midi": 50,
          "name": "D3",
          "ticks": 76080,
          "time": 173.222881,
          "velocity": 0.8818897637795275
        },
        {
          "duration": 4.525945508333336,
          "durationTicks": 1919,
          "midi": 43,
          "name": "G2",
          "ticks": 76320,
          "time": 173.788919,
          "velocity": 0.5039370078740157
        },
        {
          "duration": 2.2617935083333407,
          "durationTicks": 959,
          "midi": 50,
          "name": "D3",
          "ticks": 76320,
          "time": 173.788919,
          "velocity": 0.5039370078740157
        },
        {
          "duration": 1.129717508333357,
          "durationTicks": 479,
          "midi": 52,
          "name": "E3",
          "ticks": 77280,
          "time": 176.053071,
          "velocity": 0.5039370078740157
        },
        {
          "duration": 1.1297175083333286,
          "durationTicks": 479,
          "midi": 54,
          "name": "F#3",
          "ticks": 77760,
          "time": 177.185147,
          "velocity": 0.5039370078740157
        },
        {
          "duration": 2.2617935083333123,
          "durationTicks": 959,
          "midi": 43,
          "name": "G2",
          "ticks": 78240,
          "time": 178.317223,
          "velocity": 0.5039370078740157
        },
        {
          "duration": 2.2617935083333123,
          "durationTicks": 959,
          "midi": 50,
          "name": "D3",
          "ticks": 78240,
          "time": 178.317223,
          "velocity": 0.5039370078740157
        },
        {
          "duration": 1.1297175083333286,
          "durationTicks": 479,
          "midi": 48,
          "name": "C3",
          "ticks": 79200,
          "time": 180.581375,
          "velocity": 0.5039370078740157
        },
        {
          "duration": 1.129717508333357,
          "durationTicks": 479,
          "midi": 41,
          "name": "F2",
          "ticks": 79680,
          "time": 181.713451,
          "velocity": 0.5039370078740157
        },
        {
          "duration": 1.129717508333357,
          "durationTicks": 479,
          "midi": 53,
          "name": "F3",
          "ticks": 79680,
          "time": 181.713451,
          "velocity": 0.5039370078740157
        },
        {
          "duration": 0.2806605083333409,
          "durationTicks": 119,
          "midi": 46,
          "name": "A#2",
          "ticks": 80160,
          "time": 182.845527,
          "velocity": 0.5039370078740157
        },
        {
          "duration": 0.2806605083333409,
          "durationTicks": 119,
          "midi": 53,
          "name": "F3",
          "ticks": 80280,
          "time": 183.128546,
          "velocity": 0.5039370078740157
        },
        {
          "duration": 0.2806605083333409,
          "durationTicks": 119,
          "midi": 62,
          "name": "D4",
          "ticks": 80400,
          "time": 183.411565,
          "velocity": 0.5039370078740157
        },
        {
          "duration": 0.2806605083333409,
          "durationTicks": 119,
          "midi": 53,
          "name": "F3",
          "ticks": 80520,
          "time": 183.694584,
          "velocity": 0.5039370078740157
        },
        {
          "duration": 0.2806605083333409,
          "durationTicks": 119,
          "midi": 46,
          "name": "A#2",
          "ticks": 80640,
          "time": 183.977603,
          "velocity": 0.5039370078740157
        },
        {
          "duration": 0.28066050833331246,
          "durationTicks": 119,
          "midi": 53,
          "name": "F3",
          "ticks": 80760,
          "time": 184.260622,
          "velocity": 0.5039370078740157
        },
        {
          "duration": 0.2806605083333409,
          "durationTicks": 119,
          "midi": 62,
          "name": "D4",
          "ticks": 80880,
          "time": 184.543641,
          "velocity": 0.5039370078740157
        },
        {
          "duration": 0.2806605083333409,
          "durationTicks": 119,
          "midi": 53,
          "name": "F3",
          "ticks": 81000,
          "time": 184.82666,
          "velocity": 0.5039370078740157
        },
        {
          "duration": 0.2806605083333409,
          "durationTicks": 119,
          "midi": 50,
          "name": "D3",
          "ticks": 81120,
          "time": 185.109679,
          "velocity": 0.5039370078740157
        },
        {
          "duration": 0.2806605083333409,
          "durationTicks": 119,
          "midi": 57,
          "name": "A3",
          "ticks": 81240,
          "time": 185.392698,
          "velocity": 0.5039370078740157
        },
        {
          "duration": 0.2806605083333409,
          "durationTicks": 119,
          "midi": 65,
          "name": "F4",
          "ticks": 81360,
          "time": 185.675717,
          "velocity": 0.5039370078740157
        },
        {
          "duration": 0.2806605083333409,
          "durationTicks": 119,
          "midi": 57,
          "name": "A3",
          "ticks": 81480,
          "time": 185.958736,
          "velocity": 0.5039370078740157
        },
        {
          "duration": 0.28066050833331246,
          "durationTicks": 119,
          "midi": 50,
          "name": "D3",
          "ticks": 81600,
          "time": 186.241755,
          "velocity": 0.5039370078740157
        },
        {
          "duration": 0.2806605083333409,
          "durationTicks": 119,
          "midi": 57,
          "name": "A3",
          "ticks": 81720,
          "time": 186.524774,
          "velocity": 0.5039370078740157
        },
        {
          "duration": 0.2806605083333409,
          "durationTicks": 119,
          "midi": 62,
          "name": "D4",
          "ticks": 81840,
          "time": 186.807793,
          "velocity": 0.5039370078740157
        },
        {
          "duration": 0.2806605083333409,
          "durationTicks": 119,
          "midi": 65,
          "name": "F4",
          "ticks": 81960,
          "time": 187.090812,
          "velocity": 0.5039370078740157
        },
        {
          "duration": 2.2617935083333407,
          "durationTicks": 959,
          "midi": 55,
          "name": "G3",
          "ticks": 82080,
          "time": 187.373831,
          "velocity": 0.5039370078740157
        },
        {
          "duration": 2.1957557416666873,
          "durationTicks": 931,
          "midi": 62,
          "name": "D4",
          "ticks": 82107,
          "time": 187.437510275,
          "velocity": 0.5039370078740157
        },
        {
          "duration": 1.129717508333357,
          "durationTicks": 479,
          "midi": 48,
          "name": "C3",
          "ticks": 83040,
          "time": 189.637983,
          "velocity": 0.5039370078740157
        },
        {
          "duration": 1.129717508333357,
          "durationTicks": 479,
          "midi": 60,
          "name": "C4",
          "ticks": 83040,
          "time": 189.637983,
          "velocity": 0.5039370078740157
        },
        {
          "duration": 1.1297175083333286,
          "durationTicks": 479,
          "midi": 41,
          "name": "F2",
          "ticks": 83520,
          "time": 190.770059,
          "velocity": 0.5039370078740157
        },
        {
          "duration": 1.1297175083333286,
          "durationTicks": 479,
          "midi": 53,
          "name": "F3",
          "ticks": 83520,
          "time": 190.770059,
          "velocity": 0.5039370078740157
        },
        {
          "duration": 0,
          "durationTicks": 0,
          "midi": 38,
          "name": "D2",
          "ticks": 84000,
          "time": 191.902135,
          "velocity": 0.5039370078740157
        },
        {
          "duration": 2.2617935083333407,
          "durationTicks": 959,
          "midi": 38,
          "name": "D2",
          "ticks": 84000,
          "time": 191.902135,
          "velocity": 0.5039370078740157
        },
        {
          "duration": 0.28066050833331246,
          "durationTicks": 119,
          "midi": 45,
          "name": "A2",
          "ticks": 84120,
          "time": 192.185154,
          "velocity": 0.5039370078740157
        },
        {
          "duration": 0.2806605083333409,
          "durationTicks": 119,
          "midi": 54,
          "name": "F#3",
          "ticks": 84240,
          "time": 192.468173,
          "velocity": 0.5039370078740157
        },
        {
          "duration": 0.2806605083333409,
          "durationTicks": 119,
          "midi": 57,
          "name": "A3",
          "ticks": 84360,
          "time": 192.751192,
          "velocity": 0.5039370078740157
        },
        {
          "duration": 0.2806605083333409,
          "durationTicks": 119,
          "midi": 62,
          "name": "D4",
          "ticks": 84480,
          "time": 193.034211,
          "velocity": 0.5039370078740157
        },
        {
          "duration": 0.2806605083333409,
          "durationTicks": 119,
          "midi": 66,
          "name": "F#4",
          "ticks": 84600,
          "time": 193.31723,
          "velocity": 0.5039370078740157
        },
        {
          "duration": 0.5636795083333368,
          "durationTicks": 239,
          "midi": 69,
          "name": "A4",
          "ticks": 84720,
          "time": 193.600249,
          "velocity": 0.5039370078740157
        },
        {
          "duration": 0,
          "durationTicks": 0,
          "midi": 38,
          "name": "D2",
          "ticks": 84960,
          "time": 194.166287,
          "velocity": 0.5039370078740157
        },
        {
          "duration": 2.2617935083333123,
          "durationTicks": 959,
          "midi": 38,
          "name": "D2",
          "ticks": 84960,
          "time": 194.166287,
          "velocity": 0.5039370078740157
        },
        {
          "duration": 0.2806605083333409,
          "durationTicks": 119,
          "midi": 45,
          "name": "A2",
          "ticks": 85080,
          "time": 194.449306,
          "velocity": 0.5039370078740157
        },
        {
          "duration": 0.2806605083333409,
          "durationTicks": 119,
          "midi": 52,
          "name": "E3",
          "ticks": 85200,
          "time": 194.732325,
          "velocity": 0.5039370078740157
        },
        {
          "duration": 0.2806605083333409,
          "durationTicks": 119,
          "midi": 55,
          "name": "G3",
          "ticks": 85320,
          "time": 195.015344,
          "velocity": 0.5039370078740157
        },
        {
          "duration": 0.2806605083333409,
          "durationTicks": 119,
          "midi": 57,
          "name": "A3",
          "ticks": 85440,
          "time": 195.298363,
          "velocity": 0.5039370078740157
        },
        {
          "duration": 0.28066050833331246,
          "durationTicks": 119,
          "midi": 62,
          "name": "D4",
          "ticks": 85560,
          "time": 195.58138200000002,
          "velocity": 0.5039370078740157
        },
        {
          "duration": 0.5636795083333084,
          "durationTicks": 239,
          "midi": 69,
          "name": "A4",
          "ticks": 85680,
          "time": 195.86440100000002,
          "velocity": 0.5039370078740157
        },
        {
          "duration": 0.2806605083333409,
          "durationTicks": 119,
          "midi": 38,
          "name": "D2",
          "ticks": 85920,
          "time": 196.430439,
          "velocity": 0.5039370078740157
        },
        {
          "duration": 0.2806605083333409,
          "durationTicks": 119,
          "midi": 45,
          "name": "A2",
          "ticks": 86040,
          "time": 196.713458,
          "velocity": 0.5039370078740157
        },
        {
          "duration": 0.2806605083333409,
          "durationTicks": 119,
          "midi": 54,
          "name": "F#3",
          "ticks": 86160,
          "time": 196.996477,
          "velocity": 0.5039370078740157
        },
        {
          "duration": 0.2806605083333409,
          "durationTicks": 119,
          "midi": 57,
          "name": "A3",
          "ticks": 86280,
          "time": 197.279496,
          "velocity": 0.5039370078740157
        },
        {
          "duration": 0.28066050833331246,
          "durationTicks": 119,
          "midi": 50,
          "name": "D3",
          "ticks": 86400,
          "time": 197.56251500000002,
          "velocity": 0.5039370078740157
        },
        {
          "duration": 0.28066050833331246,
          "durationTicks": 119,
          "midi": 55,
          "name": "G3",
          "ticks": 86520,
          "time": 197.84553400000001,
          "velocity": 0.5039370078740157
        },
        {
          "duration": 0.28066050833331246,
          "durationTicks": 119,
          "midi": 57,
          "name": "A3",
          "ticks": 86640,
          "time": 198.128553,
          "velocity": 0.5039370078740157
        },
        {
          "duration": 0.2806605083333409,
          "durationTicks": 119,
          "midi": 62,
          "name": "D4",
          "ticks": 86760,
          "time": 198.411572,
          "velocity": 0.5039370078740157
        },
        {
          "duration": 0.2806605083333409,
          "durationTicks": 119,
          "midi": 38,
          "name": "D2",
          "ticks": 86880,
          "time": 198.694591,
          "velocity": 0.5039370078740157
        },
        {
          "duration": 0.2806605083333409,
          "durationTicks": 119,
          "midi": 43,
          "name": "G2",
          "ticks": 87000,
          "time": 198.97761,
          "velocity": 0.5039370078740157
        },
        {
          "duration": 0.2806605083333409,
          "durationTicks": 119,
          "midi": 50,
          "name": "D3",
          "ticks": 87120,
          "time": 199.260629,
          "velocity": 0.5039370078740157
        },
        {
          "duration": 0.28066050833331246,
          "durationTicks": 119,
          "midi": 52,
          "name": "E3",
          "ticks": 87240,
          "time": 199.54364800000002,
          "velocity": 0.5039370078740157
        },
        {
          "duration": 0.28066050833331246,
          "durationTicks": 119,
          "midi": 57,
          "name": "A3",
          "ticks": 87360,
          "time": 199.82666700000001,
          "velocity": 0.5039370078740157
        },
        {
          "duration": 0.8466985083333327,
          "durationTicks": 359,
          "midi": 62,
          "name": "D4",
          "ticks": 87480,
          "time": 200.109686,
          "velocity": 0.5039370078740157
        },
        {
          "duration": 2.2617935083333407,
          "durationTicks": 959,
          "midi": 50,
          "name": "D3",
          "ticks": 87840,
          "time": 200.958743,
          "velocity": 0.5039370078740157
        },
        {
          "duration": 2.1957557416666873,
          "durationTicks": 931,
          "midi": 57,
          "name": "A3",
          "ticks": 87867,
          "time": 201.022422275,
          "velocity": 0.5039370078740157
        },
        {
          "duration": 2.1297179750000055,
          "durationTicks": 903,
          "midi": 61,
          "name": "C#4",
          "ticks": 87895,
          "time": 201.08846004166668,
          "velocity": 0.5039370078740157
        },
        {
          "duration": 1.6957555083333489,
          "durationTicks": 719,
          "midi": 50,
          "name": "D3",
          "ticks": 88800,
          "time": 203.222895,
          "velocity": 0.5039370078740157
        },
        {
          "duration": 1.629717741666667,
          "durationTicks": 691,
          "midi": 55,
          "name": "G3",
          "ticks": 88827,
          "time": 203.286574275,
          "velocity": 0.5039370078740157
        },
        {
          "duration": 1.5613214833333302,
          "durationTicks": 662,
          "midi": 59,
          "name": "B3",
          "ticks": 88856,
          "time": 203.35497053333333,
          "velocity": 0.5039370078740157
        },
        {
          "duration": 1.4952837166666484,
          "durationTicks": 634,
          "midi": 62,
          "name": "D4",
          "ticks": 88884,
          "time": 203.4210083,
          "velocity": 0.5039370078740157
        },
        {
          "duration": 0.5636795083333368,
          "durationTicks": 239,
          "midi": 57,
          "name": "A3",
          "ticks": 89520,
          "time": 204.921009,
          "velocity": 0.5039370078740157
        },
        {
          "duration": 0.5636795083333368,
          "durationTicks": 239,
          "midi": 61,
          "name": "C#4",
          "ticks": 89520,
          "time": 204.921009,
          "velocity": 0.5039370078740157
        },
        {
          "duration": 1.1297175083333286,
          "durationTicks": 479,
          "midi": 55,
          "name": "G3",
          "ticks": 89760,
          "time": 205.48704700000002,
          "velocity": 0.5039370078740157
        },
        {
          "duration": 1.1297175083333286,
          "durationTicks": 479,
          "midi": 59,
          "name": "B3",
          "ticks": 89760,
          "time": 205.48704700000002,
          "velocity": 0.5039370078740157
        },
        {
          "duration": 1.1297175083333286,
          "durationTicks": 479,
          "midi": 57,
          "name": "A3",
          "ticks": 90240,
          "time": 206.619123,
          "velocity": 0.5039370078740157
        },
        {
          "duration": 1.1297175083333286,
          "durationTicks": 479,
          "midi": 61,
          "name": "C#4",
          "ticks": 90240,
          "time": 206.619123,
          "velocity": 0.5039370078740157
        },
        {
          "duration": 1.1297175083333286,
          "durationTicks": 479,
          "midi": 59,
          "name": "B3",
          "ticks": 90720,
          "time": 207.751199,
          "velocity": 0.5039370078740157
        },
        {
          "duration": 1.1297175083333286,
          "durationTicks": 479,
          "midi": 62,
          "name": "D4",
          "ticks": 90720,
          "time": 207.751199,
          "velocity": 0.5039370078740157
        },
        {
          "duration": 1.129717508333357,
          "durationTicks": 479,
          "midi": 57,
          "name": "A3",
          "ticks": 91200,
          "time": 208.883275,
          "velocity": 0.5039370078740157
        },
        {
          "duration": 1.0636797416666752,
          "durationTicks": 451,
          "midi": 61,
          "name": "C#4",
          "ticks": 91227,
          "time": 208.946954275,
          "velocity": 0.5039370078740157
        },
        {
          "duration": 0.9952834833333384,
          "durationTicks": 422,
          "midi": 64,
          "name": "E4",
          "ticks": 91256,
          "time": 209.01535053333333,
          "velocity": 0.5039370078740157
        },
        {
          "duration": 0.28066050833331246,
          "durationTicks": 119,
          "midi": 38,
          "name": "D2",
          "ticks": 91680,
          "time": 210.015351,
          "velocity": 0.5039370078740157
        },
        {
          "duration": 0.2806605083333409,
          "durationTicks": 119,
          "midi": 45,
          "name": "A2",
          "ticks": 91800,
          "time": 210.29837,
          "velocity": 0.5039370078740157
        },
        {
          "duration": 0.2806605083333409,
          "durationTicks": 119,
          "midi": 54,
          "name": "F#3",
          "ticks": 91920,
          "time": 210.581389,
          "velocity": 0.5039370078740157
        },
        {
          "duration": 0.2806605083333409,
          "durationTicks": 119,
          "midi": 57,
          "name": "A3",
          "ticks": 92040,
          "time": 210.864408,
          "velocity": 0.5039370078740157
        },
        {
          "duration": 1.129717508333357,
          "durationTicks": 479,
          "midi": 55,
          "name": "G3",
          "ticks": 92160,
          "time": 211.147427,
          "velocity": 0.5039370078740157
        },
        {
          "duration": 0.2806605083333409,
          "durationTicks": 119,
          "midi": 50,
          "name": "D3",
          "ticks": 92640,
          "time": 212.279503,
          "velocity": 0.5039370078740157
        },
        {
          "duration": 0.2806605083333409,
          "durationTicks": 119,
          "midi": 57,
          "name": "A3",
          "ticks": 92760,
          "time": 212.562522,
          "velocity": 0.5039370078740157
        },
        {
          "duration": 0.2806605083333409,
          "durationTicks": 119,
          "midi": 62,
          "name": "D4",
          "ticks": 92880,
          "time": 212.845541,
          "velocity": 0.5039370078740157
        },
        {
          "duration": 0.2806605083333409,
          "durationTicks": 119,
          "midi": 69,
          "name": "A4",
          "ticks": 93000,
          "time": 213.12856,
          "velocity": 0.5039370078740157
        },
        {
          "duration": 1.1297175083333286,
          "durationTicks": 479,
          "midi": 67,
          "name": "G4",
          "ticks": 93120,
          "time": 213.41157900000002,
          "velocity": 0.5039370078740157
        },
        {
          "duration": 0.2806605083333409,
          "durationTicks": 119,
          "midi": 62,
          "name": "D4",
          "ticks": 93600,
          "time": 214.543655,
          "velocity": 0.5039370078740157
        },
        {
          "duration": 0.2806605083333409,
          "durationTicks": 119,
          "midi": 66,
          "name": "F#4",
          "ticks": 93720,
          "time": 214.826674,
          "velocity": 0.5039370078740157
        },
        {
          "duration": 0.2806605083333409,
          "durationTicks": 119,
          "midi": 69,
          "name": "A4",
          "ticks": 93840,
          "time": 215.109693,
          "velocity": 0.5039370078740157
        },
        {
          "duration": 0.28066050833331246,
          "durationTicks": 119,
          "midi": 74,
          "name": "D5",
          "ticks": 93960,
          "time": 215.39271200000002,
          "velocity": 0.5039370078740157
        },
        {
          "duration": 1.1297175083333286,
          "durationTicks": 479,
          "midi": 78,
          "name": "F#5",
          "ticks": 94080,
          "time": 215.675731,
          "velocity": 0.5039370078740157
        },
        {
          "duration": 1.129717508333357,
          "durationTicks": 479,
          "midi": 57,
          "name": "A3",
          "ticks": 94560,
          "time": 216.807807,
          "velocity": 0.5039370078740157
        },
        {
          "duration": 1.0636797416666752,
          "durationTicks": 451,
          "midi": 62,
          "name": "D4",
          "ticks": 94587,
          "time": 216.871486275,
          "velocity": 0.5039370078740157
        },
        {
          "duration": 0.9952834833333384,
          "durationTicks": 422,
          "midi": 67,
          "name": "G4",
          "ticks": 94616,
          "time": 216.93988253333333,
          "velocity": 0.5039370078740157
        },
        {
          "duration": 1.1297175083333286,
          "durationTicks": 479,
          "midi": 57,
          "name": "A3",
          "ticks": 95040,
          "time": 217.939883,
          "velocity": 0.5039370078740157
        },
        {
          "duration": 1.0636797416666752,
          "durationTicks": 451,
          "midi": 62,
          "name": "D4",
          "ticks": 95067,
          "time": 218.003562275,
          "velocity": 0.5039370078740157
        },
        {
          "duration": 0.9952834833333384,
          "durationTicks": 422,
          "midi": 64,
          "name": "E4",
          "ticks": 95096,
          "time": 218.07195853333334,
          "velocity": 0.5039370078740157
        },
        {
          "duration": 0.929245716666685,
          "durationTicks": 394,
          "midi": 69,
          "name": "A4",
          "ticks": 95124,
          "time": 218.1379963,
          "velocity": 0.5039370078740157
        },
        {
          "duration": 1.129717508333357,
          "durationTicks": 479,
          "midi": 66,
          "name": "F#4",
          "ticks": 95520,
          "time": 219.071959,
          "velocity": 0.5039370078740157
        },
        {
          "duration": 2.2617935083333407,
          "durationTicks": 959,
          "midi": 62,
          "name": "D4",
          "ticks": 95520,
          "time": 219.071959,
          "velocity": 0.5039370078740157
        },
        {
          "duration": 1.0636797416666468,
          "durationTicks": 451,
          "midi": 69,
          "name": "A4",
          "ticks": 95547,
          "time": 219.13563827500002,
          "velocity": 0.5039370078740157
        },
        {
          "duration": 1.1297175083333286,
          "durationTicks": 479,
          "midi": 64,
          "name": "E4",
          "ticks": 96000,
          "time": 220.204035,
          "velocity": 0.5039370078740157
        },
        {
          "duration": 1.1297175083333286,
          "durationTicks": 479,
          "midi": 67,
          "name": "G4",
          "ticks": 96000,
          "time": 220.204035,
          "velocity": 0.5039370078740157
        },
        {
          "duration": 1.1297175083333286,
          "durationTicks": 479,
          "midi": 57,
          "name": "A3",
          "ticks": 96480,
          "time": 221.33611100000002,
          "velocity": 0.5039370078740157
        },
        {
          "duration": 1.1297175083333286,
          "durationTicks": 479,
          "midi": 62,
          "name": "D4",
          "ticks": 96480,
          "time": 221.33611100000002,
          "velocity": 0.5039370078740157
        },
        {
          "duration": 1.1297175083333286,
          "durationTicks": 479,
          "midi": 66,
          "name": "F#4",
          "ticks": 96480,
          "time": 221.33611100000002,
          "velocity": 0.5039370078740157
        },
        {
          "duration": 1.1297175083333286,
          "durationTicks": 479,
          "midi": 55,
          "name": "G3",
          "ticks": 96960,
          "time": 222.468187,
          "velocity": 0.5039370078740157
        },
        {
          "duration": 1.1297175083333286,
          "durationTicks": 479,
          "midi": 62,
          "name": "D4",
          "ticks": 96960,
          "time": 222.468187,
          "velocity": 0.5039370078740157
        },
        {
          "duration": 1.1297175083333286,
          "durationTicks": 479,
          "midi": 64,
          "name": "E4",
          "ticks": 96960,
          "time": 222.468187,
          "velocity": 0.5039370078740157
        },
        {
          "duration": 2.2617935083333407,
          "durationTicks": 959,
          "midi": 57,
          "name": "A3",
          "ticks": 97440,
          "time": 223.600263,
          "velocity": 0.5039370078740157
        },
        {
          "duration": 2.2617935083333407,
          "durationTicks": 959,
          "midi": 62,
          "name": "D4",
          "ticks": 97440,
          "time": 223.600263,
          "velocity": 0.5039370078740157
        },
        {
          "duration": 2.2617935083333407,
          "durationTicks": 959,
          "midi": 66,
          "name": "F#4",
          "ticks": 97440,
          "time": 223.600263,
          "velocity": 0.5039370078740157
        },
        {
          "duration": 1.1297175083333286,
          "durationTicks": 479,
          "midi": 57,
          "name": "A3",
          "ticks": 98400,
          "time": 225.864415,
          "velocity": 0.5039370078740157
        },
        {
          "duration": 1.0636797416666752,
          "durationTicks": 451,
          "midi": 62,
          "name": "D4",
          "ticks": 98427,
          "time": 225.928094275,
          "velocity": 0.5039370078740157
        },
        {
          "duration": 0.9952834833333384,
          "durationTicks": 422,
          "midi": 67,
          "name": "G4",
          "ticks": 98456,
          "time": 225.99649053333334,
          "velocity": 0.5039370078740157
        },
        {
          "duration": 0.929245716666685,
          "durationTicks": 394,
          "midi": 71,
          "name": "B4",
          "ticks": 98484,
          "time": 226.0625283,
          "velocity": 0.5039370078740157
        },
        {
          "duration": 1.129717508333357,
          "durationTicks": 479,
          "midi": 57,
          "name": "A3",
          "ticks": 98880,
          "time": 226.996491,
          "velocity": 0.5039370078740157
        },
        {
          "duration": 1.0636797416666468,
          "durationTicks": 451,
          "midi": 61,
          "name": "C#4",
          "ticks": 98907,
          "time": 227.06017027500002,
          "velocity": 0.5039370078740157
        },
        {
          "duration": 0.99528348333331,
          "durationTicks": 422,
          "midi": 64,
          "name": "E4",
          "ticks": 98936,
          "time": 227.12856653333336,
          "velocity": 0.5039370078740157
        },
        {
          "duration": 0.9292457166666566,
          "durationTicks": 394,
          "midi": 69,
          "name": "A4",
          "ticks": 98964,
          "time": 227.1946043,
          "velocity": 0.5039370078740157
        },
        {
          "duration": 0.5636795083333368,
          "durationTicks": 239,
          "midi": 38,
          "name": "D2",
          "ticks": 99360,
          "time": 228.128567,
          "velocity": 0.5039370078740157
        },
        {
          "duration": 0.5636795083333368,
          "durationTicks": 239,
          "midi": 45,
          "name": "A2",
          "ticks": 99600,
          "time": 228.694605,
          "velocity": 0.5039370078740157
        },
        {
          "duration": 0.5636795083333368,
          "durationTicks": 239,
          "midi": 50,
          "name": "D3",
          "ticks": 99840,
          "time": 229.26064300000002,
          "velocity": 0.5039370078740157
        },
        {
          "duration": 0.5636795083333368,
          "durationTicks": 239,
          "midi": 54,
          "name": "F#3",
          "ticks": 100080,
          "time": 229.826681,
          "velocity": 0.5039370078740157
        },
        {
          "duration": 0.5636795083333368,
          "durationTicks": 239,
          "midi": 57,
          "name": "A3",
          "ticks": 100320,
          "time": 230.392719,
          "velocity": 0.5039370078740157
        },
        {
          "duration": 0.5636795083333368,
          "durationTicks": 239,
          "midi": 62,
          "name": "D4",
          "ticks": 100560,
          "time": 230.958757,
          "velocity": 0.5039370078740157
        },
        {
          "duration": 1.1297175083333286,
          "durationTicks": 479,
          "midi": 38,
          "name": "D2",
          "ticks": 101760,
          "time": 233.788947,
          "velocity": 0.5039370078740157
        },
        {
          "duration": 2.261793508333369,
          "durationTicks": 959,
          "midi": 50,
          "name": "D3",
          "ticks": 102240,
          "time": 234.921023,
          "velocity": 0.5039370078740157
        },
        {
          "duration": 0.7391977895833293,
          "durationTicks": 479,
          "midi": 34,
          "name": "A#1",
          "ticks": 103200,
          "time": 237.18517500000002,
          "velocity": 0.7559055118110236
        },
        {
          "duration": 0.7391977895833293,
          "durationTicks": 479,
          "midi": 46,
          "name": "A#2",
          "ticks": 103200,
          "time": 237.18517500000002,
          "velocity": 0.7559055118110236
        },
        {
          "duration": 0.7391977895833293,
          "durationTicks": 479,
          "midi": 34,
          "name": "A#1",
          "ticks": 103680,
          "time": 237.92591600000003,
          "velocity": 0.905511811023622
        },
        {
          "duration": 0.7391977895833293,
          "durationTicks": 479,
          "midi": 46,
          "name": "A#2",
          "ticks": 103680,
          "time": 237.92591600000003,
          "velocity": 0.905511811023622
        },
        {
          "duration": 0.18364203958333292,
          "durationTicks": 119,
          "midi": 34,
          "name": "A#1",
          "ticks": 104400,
          "time": 239.03702750000002,
          "velocity": 0.7559055118110236
        },
        {
          "duration": 0.18364203958333292,
          "durationTicks": 119,
          "midi": 46,
          "name": "A#2",
          "ticks": 104400,
          "time": 239.03702750000002,
          "velocity": 0.7559055118110236
        },
        {
          "duration": 0.18364203958333292,
          "durationTicks": 119,
          "midi": 34,
          "name": "A#1",
          "ticks": 104520,
          "time": 239.22221275,
          "velocity": 0.7559055118110236
        },
        {
          "duration": 0.18364203958333292,
          "durationTicks": 119,
          "midi": 46,
          "name": "A#2",
          "ticks": 104520,
          "time": 239.22221275,
          "velocity": 0.7559055118110236
        },
        {
          "duration": 0.3688272895833222,
          "durationTicks": 239,
          "midi": 34,
          "name": "A#1",
          "ticks": 104640,
          "time": 239.40739800000003,
          "velocity": 0.7559055118110236
        },
        {
          "duration": 0.3688272895833222,
          "durationTicks": 239,
          "midi": 46,
          "name": "A#2",
          "ticks": 104640,
          "time": 239.40739800000003,
          "velocity": 0.7559055118110236
        },
        {
          "duration": 0.36882728958335065,
          "durationTicks": 239,
          "midi": 41,
          "name": "F2",
          "ticks": 104880,
          "time": 239.7777685,
          "velocity": 0.7559055118110236
        },
        {
          "duration": 0.7391977895833293,
          "durationTicks": 479,
          "midi": 34,
          "name": "A#1",
          "ticks": 105120,
          "time": 240.14813900000001,
          "velocity": 0.7559055118110236
        },
        {
          "duration": 0.7391977895833293,
          "durationTicks": 479,
          "midi": 46,
          "name": "A#2",
          "ticks": 105120,
          "time": 240.14813900000001,
          "velocity": 0.7559055118110236
        },
        {
          "duration": 0.7391977895833293,
          "durationTicks": 479,
          "midi": 34,
          "name": "A#1",
          "ticks": 105600,
          "time": 240.88888000000003,
          "velocity": 0.905511811023622
        },
        {
          "duration": 0.7391977895833293,
          "durationTicks": 479,
          "midi": 46,
          "name": "A#2",
          "ticks": 105600,
          "time": 240.88888000000003,
          "velocity": 0.905511811023622
        },
        {
          "duration": 0.18364203958333292,
          "durationTicks": 119,
          "midi": 34,
          "name": "A#1",
          "ticks": 106320,
          "time": 241.99999150000002,
          "velocity": 0.7559055118110236
        },
        {
          "duration": 0.18364203958333292,
          "durationTicks": 119,
          "midi": 46,
          "name": "A#2",
          "ticks": 106320,
          "time": 241.99999150000002,
          "velocity": 0.7559055118110236
        },
        {
          "duration": 0.18364203958333292,
          "durationTicks": 119,
          "midi": 34,
          "name": "A#1",
          "ticks": 106440,
          "time": 242.18517675,
          "velocity": 0.7559055118110236
        },
        {
          "duration": 0.18364203958333292,
          "durationTicks": 119,
          "midi": 46,
          "name": "A#2",
          "ticks": 106440,
          "time": 242.18517675,
          "velocity": 0.7559055118110236
        },
        {
          "duration": 0.3688272895833222,
          "durationTicks": 239,
          "midi": 34,
          "name": "A#1",
          "ticks": 106560,
          "time": 242.37036200000003,
          "velocity": 0.7559055118110236
        },
        {
          "duration": 0.3688272895833222,
          "durationTicks": 239,
          "midi": 46,
          "name": "A#2",
          "ticks": 106560,
          "time": 242.37036200000003,
          "velocity": 0.7559055118110236
        },
        {
          "duration": 0.36882728958335065,
          "durationTicks": 239,
          "midi": 41,
          "name": "F2",
          "ticks": 106800,
          "time": 242.7407325,
          "velocity": 0.7559055118110236
        },
        {
          "duration": 1.1095682895833363,
          "durationTicks": 719,
          "midi": 34,
          "name": "A#1",
          "ticks": 107040,
          "time": 243.111103,
          "velocity": 0.7559055118110236
        },
        {
          "duration": 1.1095682895833363,
          "durationTicks": 719,
          "midi": 46,
          "name": "A#2",
          "ticks": 107040,
          "time": 243.111103,
          "velocity": 0.7559055118110236
        },
        {
          "duration": 0.18364203958333292,
          "durationTicks": 119,
          "midi": 34,
          "name": "A#1",
          "ticks": 107760,
          "time": 244.2222145,
          "velocity": 0.7559055118110236
        },
        {
          "duration": 0.18364203958333292,
          "durationTicks": 119,
          "midi": 46,
          "name": "A#2",
          "ticks": 107760,
          "time": 244.2222145,
          "velocity": 0.7559055118110236
        },
        {
          "duration": 0.18364203958333292,
          "durationTicks": 119,
          "midi": 34,
          "name": "A#1",
          "ticks": 107880,
          "time": 244.40739975000002,
          "velocity": 0.7559055118110236
        },
        {
          "duration": 0.18364203958333292,
          "durationTicks": 119,
          "midi": 46,
          "name": "A#2",
          "ticks": 107880,
          "time": 244.40739975000002,
          "velocity": 0.7559055118110236
        },
        {
          "duration": 0.7391977895833293,
          "durationTicks": 479,
          "midi": 34,
          "name": "A#1",
          "ticks": 108000,
          "time": 244.592585,
          "velocity": 0.7559055118110236
        },
        {
          "duration": 0.7391977895833293,
          "durationTicks": 479,
          "midi": 46,
          "name": "A#2",
          "ticks": 108000,
          "time": 244.592585,
          "velocity": 0.7559055118110236
        },
        {
          "duration": 0.3688272895833222,
          "durationTicks": 239,
          "midi": 34,
          "name": "A#1",
          "ticks": 108480,
          "time": 245.33332600000003,
          "velocity": 0.7559055118110236
        },
        {
          "duration": 0.3688272895833222,
          "durationTicks": 239,
          "midi": 46,
          "name": "A#2",
          "ticks": 108480,
          "time": 245.33332600000003,
          "velocity": 0.7559055118110236
        },
        {
          "duration": 0.36882728958335065,
          "durationTicks": 239,
          "midi": 34,
          "name": "A#1",
          "ticks": 108720,
          "time": 245.7036965,
          "velocity": 0.7559055118110236
        },
        {
          "duration": 0.36882728958335065,
          "durationTicks": 239,
          "midi": 46,
          "name": "A#2",
          "ticks": 108720,
          "time": 245.7036965,
          "velocity": 0.7559055118110236
        },
        {
          "duration": 0.7391977895833293,
          "durationTicks": 479,
          "midi": 43,
          "name": "G2",
          "ticks": 108960,
          "time": 246.074067,
          "velocity": 0.7559055118110236
        },
        {
          "duration": 0.7391977895833293,
          "durationTicks": 479,
          "midi": 41,
          "name": "F2",
          "ticks": 109440,
          "time": 246.81480800000003,
          "velocity": 0.7559055118110236
        },
        {
          "duration": 1.4799387895833434,
          "durationTicks": 959,
          "midi": 39,
          "name": "D#2",
          "ticks": 109920,
          "time": 247.555549,
          "velocity": 0.7559055118110236
        },
        {
          "duration": 0.7391977895833293,
          "durationTicks": 479,
          "midi": 43,
          "name": "G2",
          "ticks": 110880,
          "time": 249.037031,
          "velocity": 0.7559055118110236
        },
        {
          "duration": 0.7391977895833293,
          "durationTicks": 479,
          "midi": 55,
          "name": "G3",
          "ticks": 110880,
          "time": 249.037031,
          "velocity": 0.7559055118110236
        },
        {
          "duration": 0.7391977895833293,
          "durationTicks": 479,
          "midi": 41,
          "name": "F2",
          "ticks": 111360,
          "time": 249.77777200000003,
          "velocity": 0.7559055118110236
        },
        {
          "duration": 0.7391977895833293,
          "durationTicks": 479,
          "midi": 53,
          "name": "F3",
          "ticks": 111360,
          "time": 249.77777200000003,
          "velocity": 0.7559055118110236
        },
        {
          "duration": 0.7391977895833293,
          "durationTicks": 479,
          "midi": 38,
          "name": "D2",
          "ticks": 111840,
          "time": 250.518513,
          "velocity": 0.7559055118110236
        },
        {
          "duration": 0.7391977895833293,
          "durationTicks": 479,
          "midi": 50,
          "name": "D3",
          "ticks": 111840,
          "time": 250.518513,
          "velocity": 0.7559055118110236
        },
        {
          "duration": 0.7391977895833293,
          "durationTicks": 479,
          "midi": 43,
          "name": "G2",
          "ticks": 112320,
          "time": 251.25925400000003,
          "velocity": 0.7559055118110236
        },
        {
          "duration": 0.7391977895833293,
          "durationTicks": 479,
          "midi": 55,
          "name": "G3",
          "ticks": 112320,
          "time": 251.25925400000003,
          "velocity": 0.7559055118110236
        },
        {
          "duration": 1.1095682895833363,
          "durationTicks": 719,
          "midi": 39,
          "name": "D#2",
          "ticks": 112800,
          "time": 251.999995,
          "velocity": 0.7559055118110236
        },
        {
          "duration": 1.1095682895833363,
          "durationTicks": 719,
          "midi": 51,
          "name": "D#3",
          "ticks": 112800,
          "time": 251.999995,
          "velocity": 0.7559055118110236
        },
        {
          "duration": 0.36882728958335065,
          "durationTicks": 239,
          "midi": 39,
          "name": "D#2",
          "ticks": 113520,
          "time": 253.1111065,
          "velocity": 0.7559055118110236
        },
        {
          "duration": 0.7391977895833293,
          "durationTicks": 479,
          "midi": 45,
          "name": "A2",
          "ticks": 113760,
          "time": 253.481477,
          "velocity": 0.7559055118110236
        },
        {
          "duration": 0.7391977895833293,
          "durationTicks": 479,
          "midi": 33,
          "name": "A1",
          "ticks": 114240,
          "time": 254.22221800000003,
          "velocity": 0.7559055118110236
        },
        {
          "duration": 1.1095682895833079,
          "durationTicks": 719,
          "midi": 34,
          "name": "A#1",
          "ticks": 114720,
          "time": 254.962959,
          "velocity": 0.7559055118110236
        },
        {
          "duration": 1.1095682895833079,
          "durationTicks": 719,
          "midi": 46,
          "name": "A#2",
          "ticks": 114720,
          "time": 254.962959,
          "velocity": 0.7559055118110236
        },
        {
          "duration": 0.18364203958333292,
          "durationTicks": 119,
          "midi": 34,
          "name": "A#1",
          "ticks": 115440,
          "time": 256.0740705,
          "velocity": 0.7559055118110236
        },
        {
          "duration": 0.18364203958333292,
          "durationTicks": 119,
          "midi": 46,
          "name": "A#2",
          "ticks": 115440,
          "time": 256.0740705,
          "velocity": 0.7559055118110236
        },
        {
          "duration": 0.18364203958333292,
          "durationTicks": 119,
          "midi": 34,
          "name": "A#1",
          "ticks": 115560,
          "time": 256.25925575,
          "velocity": 0.7559055118110236
        },
        {
          "duration": 0.18364203958333292,
          "durationTicks": 119,
          "midi": 46,
          "name": "A#2",
          "ticks": 115560,
          "time": 256.25925575,
          "velocity": 0.7559055118110236
        },
        {
          "duration": 0.5540125395833115,
          "durationTicks": 359,
          "midi": 34,
          "name": "A#1",
          "ticks": 115680,
          "time": 256.44444100000004,
          "velocity": 0.7559055118110236
        },
        {
          "duration": 0.5540125395833115,
          "durationTicks": 359,
          "midi": 46,
          "name": "A#2",
          "ticks": 115680,
          "time": 256.44444100000004,
          "velocity": 0.7559055118110236
        },
        {
          "duration": 0.18364203958333292,
          "durationTicks": 119,
          "midi": 34,
          "name": "A#1",
          "ticks": 116040,
          "time": 256.99999675000004,
          "velocity": 0.7559055118110236
        },
        {
          "duration": 0.18364203958333292,
          "durationTicks": 119,
          "midi": 46,
          "name": "A#2",
          "ticks": 116040,
          "time": 256.99999675000004,
          "velocity": 0.7559055118110236
        },
        {
          "duration": 0.36882728958335065,
          "durationTicks": 239,
          "midi": 34,
          "name": "A#1",
          "ticks": 116160,
          "time": 257.185182,
          "velocity": 0.7559055118110236
        },
        {
          "duration": 0.36882728958335065,
          "durationTicks": 239,
          "midi": 46,
          "name": "A#2",
          "ticks": 116160,
          "time": 257.185182,
          "velocity": 0.7559055118110236
        },
        {
          "duration": 0.3688272895832938,
          "durationTicks": 239,
          "midi": 34,
          "name": "A#1",
          "ticks": 116400,
          "time": 257.55555250000003,
          "velocity": 0.7559055118110236
        },
        {
          "duration": 0.3688272895832938,
          "durationTicks": 239,
          "midi": 46,
          "name": "A#2",
          "ticks": 116400,
          "time": 257.55555250000003,
          "velocity": 0.7559055118110236
        },
        {
          "duration": 0.7391977895833293,
          "durationTicks": 479,
          "midi": 43,
          "name": "G2",
          "ticks": 116640,
          "time": 257.925923,
          "velocity": 0.7559055118110236
        },
        {
          "duration": 0.7391977895833293,
          "durationTicks": 479,
          "midi": 41,
          "name": "F2",
          "ticks": 117120,
          "time": 258.666664,
          "velocity": 0.7559055118110236
        },
        {
          "duration": 1.4799387895832865,
          "durationTicks": 959,
          "midi": 39,
          "name": "D#2",
          "ticks": 117600,
          "time": 259.40740500000004,
          "velocity": 0.7559055118110236
        },
        {
          "duration": 0.7391977895833293,
          "durationTicks": 479,
          "midi": 43,
          "name": "G2",
          "ticks": 118560,
          "time": 260.888887,
          "velocity": 0.7559055118110236
        },
        {
          "duration": 0.7391977895833293,
          "durationTicks": 479,
          "midi": 55,
          "name": "G3",
          "ticks": 118560,
          "time": 260.888887,
          "velocity": 0.7559055118110236
        },
        {
          "duration": 0.7391977895833293,
          "durationTicks": 479,
          "midi": 41,
          "name": "F2",
          "ticks": 119040,
          "time": 261.629628,
          "velocity": 0.7559055118110236
        },
        {
          "duration": 0.7391977895833293,
          "durationTicks": 479,
          "midi": 53,
          "name": "F3",
          "ticks": 119040,
          "time": 261.629628,
          "velocity": 0.7559055118110236
        },
        {
          "duration": 0.7391977895833293,
          "durationTicks": 479,
          "midi": 33,
          "name": "A1",
          "ticks": 119520,
          "time": 262.37036900000004,
          "velocity": 0.7559055118110236
        },
        {
          "duration": 0.7391977895833293,
          "durationTicks": 479,
          "midi": 45,
          "name": "A2",
          "ticks": 119520,
          "time": 262.37036900000004,
          "velocity": 0.7559055118110236
        },
        {
          "duration": 0.7391977895833293,
          "durationTicks": 479,
          "midi": 36,
          "name": "C2",
          "ticks": 120000,
          "time": 263.11111,
          "velocity": 0.7559055118110236
        },
        {
          "duration": 0.7391977895833293,
          "durationTicks": 479,
          "midi": 48,
          "name": "C3",
          "ticks": 120000,
          "time": 263.11111,
          "velocity": 0.7559055118110236
        },
        {
          "duration": 0.18364203958338976,
          "durationTicks": 119,
          "midi": 38,
          "name": "D2",
          "ticks": 120720,
          "time": 264.2222215,
          "velocity": 0.7559055118110236
        },
        {
          "duration": 0.18364203958338976,
          "durationTicks": 119,
          "midi": 50,
          "name": "D3",
          "ticks": 120720,
          "time": 264.2222215,
          "velocity": 0.7559055118110236
        },
        {
          "duration": 0.18364203958333292,
          "durationTicks": 119,
          "midi": 38,
          "name": "D2",
          "ticks": 121200,
          "time": 264.9629625,
          "velocity": 0.7559055118110236
        },
        {
          "duration": 0.18364203958333292,
          "durationTicks": 119,
          "midi": 50,
          "name": "D3",
          "ticks": 121200,
          "time": 264.9629625,
          "velocity": 0.7559055118110236
        },
        {
          "duration": 0.7391977895833293,
          "durationTicks": 479,
          "midi": 36,
          "name": "C2",
          "ticks": 121680,
          "time": 265.7037035,
          "velocity": 0.905511811023622
        },
        {
          "duration": 0.7391977895833293,
          "durationTicks": 479,
          "midi": 48,
          "name": "C3",
          "ticks": 121680,
          "time": 265.7037035,
          "velocity": 0.905511811023622
        },
        {
          "duration": 0.18364203958333292,
          "durationTicks": 119,
          "midi": 38,
          "name": "D2",
          "ticks": 122160,
          "time": 266.44444450000003,
          "velocity": 0.7559055118110236
        },
        {
          "duration": 0.18364203958333292,
          "durationTicks": 119,
          "midi": 50,
          "name": "D3",
          "ticks": 122160,
          "time": 266.44444450000003,
          "velocity": 0.7559055118110236
        },
        {
          "duration": 0.36882728958335065,
          "durationTicks": 239,
          "midi": 62,
          "name": "D4",
          "ticks": 122400,
          "time": 266.814815,
          "velocity": 0.6299212598425197
        },
        {
          "duration": 0.36882728958335065,
          "durationTicks": 239,
          "midi": 67,
          "name": "G4",
          "ticks": 122400,
          "time": 266.814815,
          "velocity": 0.6299212598425197
        },
        {
          "duration": 0.36882728958335065,
          "durationTicks": 239,
          "midi": 70,
          "name": "A#4",
          "ticks": 122400,
          "time": 266.814815,
          "velocity": 0.6299212598425197
        },
        {
          "duration": 0.7391977895833861,
          "durationTicks": 479,
          "midi": 62,
          "name": "D4",
          "ticks": 122640,
          "time": 267.1851855,
          "velocity": 0.6299212598425197
        },
        {
          "duration": 0.7391977895833861,
          "durationTicks": 479,
          "midi": 67,
          "name": "G4",
          "ticks": 122640,
          "time": 267.1851855,
          "velocity": 0.6299212598425197
        },
        {
          "duration": 0.7391977895833861,
          "durationTicks": 479,
          "midi": 70,
          "name": "A#4",
          "ticks": 122640,
          "time": 267.1851855,
          "velocity": 0.6299212598425197
        },
        {
          "duration": 0.36882728958335065,
          "durationTicks": 239,
          "midi": 62,
          "name": "D4",
          "ticks": 123120,
          "time": 267.9259265,
          "velocity": 0.6299212598425197
        },
        {
          "duration": 0.36882728958335065,
          "durationTicks": 239,
          "midi": 67,
          "name": "G4",
          "ticks": 123120,
          "time": 267.9259265,
          "velocity": 0.6299212598425197
        },
        {
          "duration": 0.36882728958335065,
          "durationTicks": 239,
          "midi": 70,
          "name": "A#4",
          "ticks": 123120,
          "time": 267.9259265,
          "velocity": 0.6299212598425197
        },
        {
          "duration": 0.3688272895832938,
          "durationTicks": 239,
          "midi": 62,
          "name": "D4",
          "ticks": 123360,
          "time": 268.29629700000004,
          "velocity": 0.6299212598425197
        },
        {
          "duration": 0.3688272895832938,
          "durationTicks": 239,
          "midi": 65,
          "name": "F4",
          "ticks": 123360,
          "time": 268.29629700000004,
          "velocity": 0.6299212598425197
        },
        {
          "duration": 0.3688272895832938,
          "durationTicks": 239,
          "midi": 67,
          "name": "G4",
          "ticks": 123360,
          "time": 268.29629700000004,
          "velocity": 0.6299212598425197
        },
        {
          "duration": 0.3688272895832938,
          "durationTicks": 239,
          "midi": 70,
          "name": "A#4",
          "ticks": 123360,
          "time": 268.29629700000004,
          "velocity": 0.6299212598425197
        },
        {
          "duration": 0.7391977895833293,
          "durationTicks": 479,
          "midi": 62,
          "name": "D4",
          "ticks": 123600,
          "time": 268.6666675,
          "velocity": 0.6299212598425197
        },
        {
          "duration": 0.7391977895833293,
          "durationTicks": 479,
          "midi": 65,
          "name": "F4",
          "ticks": 123600,
          "time": 268.6666675,
          "velocity": 0.6299212598425197
        },
        {
          "duration": 0.7391977895833293,
          "durationTicks": 479,
          "midi": 67,
          "name": "G4",
          "ticks": 123600,
          "time": 268.6666675,
          "velocity": 0.6299212598425197
        },
        {
          "duration": 0.7391977895833293,
          "durationTicks": 479,
          "midi": 70,
          "name": "A#4",
          "ticks": 123600,
          "time": 268.6666675,
          "velocity": 0.6299212598425197
        },
        {
          "duration": 0.3688272895832938,
          "durationTicks": 239,
          "midi": 62,
          "name": "D4",
          "ticks": 124080,
          "time": 269.40740850000003,
          "velocity": 0.6299212598425197
        },
        {
          "duration": 0.3688272895832938,
          "durationTicks": 239,
          "midi": 65,
          "name": "F4",
          "ticks": 124080,
          "time": 269.40740850000003,
          "velocity": 0.6299212598425197
        },
        {
          "duration": 0.3688272895832938,
          "durationTicks": 239,
          "midi": 67,
          "name": "G4",
          "ticks": 124080,
          "time": 269.40740850000003,
          "velocity": 0.6299212598425197
        },
        {
          "duration": 0.3688272895832938,
          "durationTicks": 239,
          "midi": 70,
          "name": "A#4",
          "ticks": 124080,
          "time": 269.40740850000003,
          "velocity": 0.6299212598425197
        },
        {
          "duration": 0.36882728958335065,
          "durationTicks": 239,
          "midi": 60,
          "name": "C4",
          "ticks": 124320,
          "time": 269.777779,
          "velocity": 0.6299212598425197
        },
        {
          "duration": 0.36882728958335065,
          "durationTicks": 239,
          "midi": 65,
          "name": "F4",
          "ticks": 124320,
          "time": 269.777779,
          "velocity": 0.6299212598425197
        },
        {
          "duration": 0.36882728958335065,
          "durationTicks": 239,
          "midi": 67,
          "name": "G4",
          "ticks": 124320,
          "time": 269.777779,
          "velocity": 0.6299212598425197
        },
        {
          "duration": 0.36882728958335065,
          "durationTicks": 239,
          "midi": 70,
          "name": "A#4",
          "ticks": 124320,
          "time": 269.777779,
          "velocity": 0.6299212598425197
        },
        {
          "duration": 0.7391977895833861,
          "durationTicks": 479,
          "midi": 60,
          "name": "C4",
          "ticks": 124560,
          "time": 270.1481495,
          "velocity": 0.6299212598425197
        },
        {
          "duration": 0.7391977895833861,
          "durationTicks": 479,
          "midi": 65,
          "name": "F4",
          "ticks": 124560,
          "time": 270.1481495,
          "velocity": 0.6299212598425197
        },
        {
          "duration": 0.7391977895833861,
          "durationTicks": 479,
          "midi": 67,
          "name": "G4",
          "ticks": 124560,
          "time": 270.1481495,
          "velocity": 0.6299212598425197
        },
        {
          "duration": 0.7391977895833861,
          "durationTicks": 479,
          "midi": 70,
          "name": "A#4",
          "ticks": 124560,
          "time": 270.1481495,
          "velocity": 0.6299212598425197
        },
        {
          "duration": 0.36882728958335065,
          "durationTicks": 239,
          "midi": 60,
          "name": "C4",
          "ticks": 125040,
          "time": 270.8888905,
          "velocity": 0.6299212598425197
        },
        {
          "duration": 0.36882728958335065,
          "durationTicks": 239,
          "midi": 65,
          "name": "F4",
          "ticks": 125040,
          "time": 270.8888905,
          "velocity": 0.6299212598425197
        },
        {
          "duration": 0.36882728958335065,
          "durationTicks": 239,
          "midi": 67,
          "name": "G4",
          "ticks": 125040,
          "time": 270.8888905,
          "velocity": 0.6299212598425197
        },
        {
          "duration": 0.36882728958335065,
          "durationTicks": 239,
          "midi": 70,
          "name": "A#4",
          "ticks": 125040,
          "time": 270.8888905,
          "velocity": 0.6299212598425197
        },
        {
          "duration": 0.7391977895833293,
          "durationTicks": 479,
          "midi": 65,
          "name": "F4",
          "ticks": 125280,
          "time": 271.25926100000004,
          "velocity": 0.6299212598425197
        },
        {
          "duration": 0.7391977895833293,
          "durationTicks": 479,
          "midi": 70,
          "name": "A#4",
          "ticks": 125280,
          "time": 271.25926100000004,
          "velocity": 0.6299212598425197
        },
        {
          "duration": 0.3688272895832938,
          "durationTicks": 239,
          "midi": 60,
          "name": "C4",
          "ticks": 125280,
          "time": 271.25926100000004,
          "velocity": 0.6299212598425197
        },
        {
          "duration": 0.7391977895833293,
          "durationTicks": 479,
          "midi": 60,
          "name": "C4",
          "ticks": 125520,
          "time": 271.6296315,
          "velocity": 0.6299212598425197
        },
        {
          "duration": 0.7391977895833293,
          "durationTicks": 479,
          "midi": 65,
          "name": "F4",
          "ticks": 125760,
          "time": 272.000002,
          "velocity": 0.6299212598425197
        },
        {
          "duration": 0.7391977895833293,
          "durationTicks": 479,
          "midi": 69,
          "name": "A4",
          "ticks": 125760,
          "time": 272.000002,
          "velocity": 0.6299212598425197
        },
        {
          "duration": 0.3688272895832938,
          "durationTicks": 239,
          "midi": 60,
          "name": "C4",
          "ticks": 126000,
          "time": 272.37037250000003,
          "velocity": 0.6299212598425197
        },
        {
          "duration": 0.36882728958335065,
          "durationTicks": 239,
          "midi": 62,
          "name": "D4",
          "ticks": 126240,
          "time": 272.740743,
          "velocity": 0.6299212598425197
        },
        {
          "duration": 0.36882728958335065,
          "durationTicks": 239,
          "midi": 64,
          "name": "E4",
          "ticks": 126240,
          "time": 272.740743,
          "velocity": 0.6299212598425197
        },
        {
          "duration": 0.36882728958335065,
          "durationTicks": 239,
          "midi": 67,
          "name": "G4",
          "ticks": 126240,
          "time": 272.740743,
          "velocity": 0.6299212598425197
        },
        {
          "duration": 0.36882728958335065,
          "durationTicks": 239,
          "midi": 69,
          "name": "A4",
          "ticks": 126240,
          "time": 272.740743,
          "velocity": 0.6299212598425197
        },
        {
          "duration": 0.7391977895833861,
          "durationTicks": 479,
          "midi": 62,
          "name": "D4",
          "ticks": 126480,
          "time": 273.1111135,
          "velocity": 0.6299212598425197
        },
        {
          "duration": 0.7391977895833861,
          "durationTicks": 479,
          "midi": 64,
          "name": "E4",
          "ticks": 126480,
          "time": 273.1111135,
          "velocity": 0.6299212598425197
        },
        {
          "duration": 0.7391977895833861,
          "durationTicks": 479,
          "midi": 67,
          "name": "G4",
          "ticks": 126480,
          "time": 273.1111135,
          "velocity": 0.6299212598425197
        },
        {
          "duration": 0.7391977895833861,
          "durationTicks": 479,
          "midi": 69,
          "name": "A4",
          "ticks": 126480,
          "time": 273.1111135,
          "velocity": 0.6299212598425197
        },
        {
          "duration": 0.36882728958335065,
          "durationTicks": 239,
          "midi": 62,
          "name": "D4",
          "ticks": 126960,
          "time": 273.8518545,
          "velocity": 0.6299212598425197
        },
        {
          "duration": 0.36882728958335065,
          "durationTicks": 239,
          "midi": 64,
          "name": "E4",
          "ticks": 126960,
          "time": 273.8518545,
          "velocity": 0.6299212598425197
        },
        {
          "duration": 0.36882728958335065,
          "durationTicks": 239,
          "midi": 67,
          "name": "G4",
          "ticks": 126960,
          "time": 273.8518545,
          "velocity": 0.6299212598425197
        },
        {
          "duration": 0.36882728958335065,
          "durationTicks": 239,
          "midi": 69,
          "name": "A4",
          "ticks": 126960,
          "time": 273.8518545,
          "velocity": 0.6299212598425197
        },
        {
          "duration": 0.3688272895832938,
          "durationTicks": 239,
          "midi": 62,
          "name": "D4",
          "ticks": 127200,
          "time": 274.22222500000004,
          "velocity": 0.6299212598425197
        },
        {
          "duration": 0.3688272895832938,
          "durationTicks": 239,
          "midi": 64,
          "name": "E4",
          "ticks": 127200,
          "time": 274.22222500000004,
          "velocity": 0.6299212598425197
        },
        {
          "duration": 0.3688272895832938,
          "durationTicks": 239,
          "midi": 67,
          "name": "G4",
          "ticks": 127200,
          "time": 274.22222500000004,
          "velocity": 0.6299212598425197
        },
        {
          "duration": 0.3688272895832938,
          "durationTicks": 239,
          "midi": 69,
          "name": "A4",
          "ticks": 127200,
          "time": 274.22222500000004,
          "velocity": 0.6299212598425197
        },
        {
          "duration": 0.36882728958335065,
          "durationTicks": 239,
          "midi": 62,
          "name": "D4",
          "ticks": 127440,
          "time": 274.5925955,
          "velocity": 0.6299212598425197
        },
        {
          "duration": 0.36882728958335065,
          "durationTicks": 239,
          "midi": 64,
          "name": "E4",
          "ticks": 127440,
          "time": 274.5925955,
          "velocity": 0.6299212598425197
        },
        {
          "duration": 0.36882728958335065,
          "durationTicks": 239,
          "midi": 67,
          "name": "G4",
          "ticks": 127440,
          "time": 274.5925955,
          "velocity": 0.6299212598425197
        },
        {
          "duration": 0.36882728958335065,
          "durationTicks": 239,
          "midi": 69,
          "name": "A4",
          "ticks": 127440,
          "time": 274.5925955,
          "velocity": 0.6299212598425197
        },
        {
          "duration": 0.18364203958333292,
          "durationTicks": 119,
          "midi": 62,
          "name": "D4",
          "ticks": 127680,
          "time": 274.962966,
          "velocity": 0.6299212598425197
        },
        {
          "duration": 0.18364203958333292,
          "durationTicks": 119,
          "midi": 64,
          "name": "E4",
          "ticks": 127680,
          "time": 274.962966,
          "velocity": 0.6299212598425197
        },
        {
          "duration": 0.18364203958333292,
          "durationTicks": 119,
          "midi": 67,
          "name": "G4",
          "ticks": 127680,
          "time": 274.962966,
          "velocity": 0.6299212598425197
        },
        {
          "duration": 0.18364203958333292,
          "durationTicks": 119,
          "midi": 69,
          "name": "A4",
          "ticks": 127680,
          "time": 274.962966,
          "velocity": 0.6299212598425197
        },
        {
          "duration": 0.18364203958333292,
          "durationTicks": 119,
          "midi": 62,
          "name": "D4",
          "ticks": 127800,
          "time": 275.14815125,
          "velocity": 0.6299212598425197
        },
        {
          "duration": 0.18364203958333292,
          "durationTicks": 119,
          "midi": 64,
          "name": "E4",
          "ticks": 127800,
          "time": 275.14815125,
          "velocity": 0.6299212598425197
        },
        {
          "duration": 0.18364203958333292,
          "durationTicks": 119,
          "midi": 67,
          "name": "G4",
          "ticks": 127800,
          "time": 275.14815125,
          "velocity": 0.6299212598425197
        },
        {
          "duration": 0.18364203958333292,
          "durationTicks": 119,
          "midi": 69,
          "name": "A4",
          "ticks": 127800,
          "time": 275.14815125,
          "velocity": 0.6299212598425197
        },
        {
          "duration": 0.3688272895832938,
          "durationTicks": 239,
          "midi": 62,
          "name": "D4",
          "ticks": 127920,
          "time": 275.33333650000003,
          "velocity": 0.6299212598425197
        },
        {
          "duration": 0.3688272895832938,
          "durationTicks": 239,
          "midi": 64,
          "name": "E4",
          "ticks": 127920,
          "time": 275.33333650000003,
          "velocity": 0.6299212598425197
        },
        {
          "duration": 0.3688272895832938,
          "durationTicks": 239,
          "midi": 67,
          "name": "G4",
          "ticks": 127920,
          "time": 275.33333650000003,
          "velocity": 0.6299212598425197
        },
        {
          "duration": 0.3688272895832938,
          "durationTicks": 239,
          "midi": 69,
          "name": "A4",
          "ticks": 127920,
          "time": 275.33333650000003,
          "velocity": 0.6299212598425197
        },
        {
          "duration": 1.850309289583322,
          "durationTicks": 1199,
          "midi": 55,
          "name": "G3",
          "ticks": 128160,
          "time": 275.703707,
          "velocity": 0.6299212598425197
        },
        {
          "duration": 1.850309289583322,
          "durationTicks": 1199,
          "midi": 57,
          "name": "A3",
          "ticks": 128160,
          "time": 275.703707,
          "velocity": 0.6299212598425197
        },
        {
          "duration": 0.3688272895832938,
          "durationTicks": 239,
          "midi": 52,
          "name": "E3",
          "ticks": 128400,
          "time": 276.07407750000004,
          "velocity": 0.6299212598425197
        },
        {
          "duration": 0.36882728958335065,
          "durationTicks": 239,
          "midi": 50,
          "name": "D3",
          "ticks": 128880,
          "time": 276.8148185,
          "velocity": 0.6299212598425197
        },
        {
          "duration": 0.36882728958335065,
          "durationTicks": 239,
          "midi": 48,
          "name": "C3",
          "ticks": 129360,
          "time": 277.5555595,
          "velocity": 0.6299212598425197
        },
        {
          "duration": 0.36882728958335065,
          "durationTicks": 239,
          "midi": 57,
          "name": "A3",
          "ticks": 129360,
          "time": 277.5555595,
          "velocity": 0.6299212598425197
        },
        {
          "duration": 0.18364203958333292,
          "durationTicks": 119,
          "midi": 55,
          "name": "G3",
          "ticks": 129600,
          "time": 277.92593,
          "velocity": 0.6299212598425197
        },
        {
          "duration": 0.18364203958333292,
          "durationTicks": 119,
          "midi": 54,
          "name": "F#3",
          "ticks": 129720,
          "time": 278.11111525,
          "velocity": 0.6299212598425197
        },
        {
          "duration": 0.36882728958335065,
          "durationTicks": 239,
          "midi": 47,
          "name": "B2",
          "ticks": 129840,
          "time": 278.29630050000003,
          "velocity": 0.6299212598425197
        },
        {
          "duration": 0.36882728958335065,
          "durationTicks": 239,
          "midi": 52,
          "name": "E3",
          "ticks": 129840,
          "time": 278.29630050000003,
          "velocity": 0.6299212598425197
        },
        {
          "duration": 0.18364203958333292,
          "durationTicks": 119,
          "midi": 46,
          "name": "A#2",
          "ticks": 130080,
          "time": 278.666671,
          "velocity": 0.6299212598425197
        },
        {
          "duration": 1.850309289583322,
          "durationTicks": 1199,
          "midi": 50,
          "name": "D3",
          "ticks": 130080,
          "time": 278.666671,
          "velocity": 0.6299212598425197
        },
        {
          "duration": 0.18364203958333292,
          "durationTicks": 119,
          "midi": 45,
          "name": "A2",
          "ticks": 130200,
          "time": 278.85185625,
          "velocity": 0.6299212598425197
        },
        {
          "duration": 0.18364203958333292,
          "durationTicks": 119,
          "midi": 43,
          "name": "G2",
          "ticks": 130320,
          "time": 279.0370415,
          "velocity": 0.6299212598425197
        },
        {
          "duration": 0.18364203958333292,
          "durationTicks": 119,
          "midi": 42,
          "name": "F#2",
          "ticks": 130440,
          "time": 279.22222675,
          "velocity": 0.6299212598425197
        },
        {
          "duration": 0.36882728958335065,
          "durationTicks": 239,
          "midi": 40,
          "name": "E2",
          "ticks": 130560,
          "time": 279.407412,
          "velocity": 0.6299212598425197
        },
        {
          "duration": 0.7391977895833293,
          "durationTicks": 479,
          "midi": 45,
          "name": "A2",
          "ticks": 130800,
          "time": 279.7777825,
          "velocity": 0.6299212598425197
        },
        {
          "duration": 0.7391977895833293,
          "durationTicks": 479,
          "midi": 38,
          "name": "D2",
          "ticks": 131280,
          "time": 280.5185235,
          "velocity": 0.6299212598425197
        },
        {
          "duration": 0.7391977895833293,
          "durationTicks": 479,
          "midi": 50,
          "name": "D3",
          "ticks": 131280,
          "time": 280.5185235,
          "velocity": 0.6299212598425197
        },
        {
          "duration": 0.3688272895832938,
          "durationTicks": 239,
          "midi": 38,
          "name": "D2",
          "ticks": 131760,
          "time": 281.25926450000003,
          "velocity": 0.6299212598425197
        },
        {
          "duration": 0.3688272895832938,
          "durationTicks": 239,
          "midi": 50,
          "name": "D3",
          "ticks": 131760,
          "time": 281.25926450000003,
          "velocity": 0.6299212598425197
        },
        {
          "duration": 1.4799387895833434,
          "durationTicks": 959,
          "midi": 58,
          "name": "A#3",
          "ticks": 132000,
          "time": 281.629635,
          "velocity": 0.3858267716535433
        },
        {
          "duration": 1.4135807416666353,
          "durationTicks": 916,
          "midi": 61,
          "name": "C#4",
          "ticks": 132042,
          "time": 281.69444983750003,
          "velocity": 0.3858267716535433
        },
        {
          "duration": 1.347222693749984,
          "durationTicks": 873,
          "midi": 65,
          "name": "F4",
          "ticks": 132085,
          "time": 281.7608078854167,
          "velocity": 0.3858267716535433
        },
        {
          "duration": 1.4799387895833434,
          "durationTicks": 959,
          "midi": 56,
          "name": "G#3",
          "ticks": 132960,
          "time": 283.11111700000004,
          "velocity": 0.3858267716535433
        },
        {
          "duration": 1.4135807416666921,
          "durationTicks": 916,
          "midi": 58,
          "name": "A#3",
          "ticks": 133002,
          "time": 283.1759318375,
          "velocity": 0.3858267716535433
        },
        {
          "duration": 1.347222693750041,
          "durationTicks": 873,
          "midi": 61,
          "name": "C#4",
          "ticks": 133045,
          "time": 283.24228988541665,
          "velocity": 0.3858267716535433
        },
        {
          "duration": 1.2793214354167048,
          "durationTicks": 829,
          "midi": 65,
          "name": "F4",
          "ticks": 133089,
          "time": 283.31019114375,
          "velocity": 0.3858267716535433
        },
        {
          "duration": 1.4799387895833434,
          "durationTicks": 959,
          "midi": 51,
          "name": "D#3",
          "ticks": 133920,
          "time": 284.592599,
          "velocity": 0.3858267716535433
        },
        {
          "duration": 1.4135807416666353,
          "durationTicks": 916,
          "midi": 56,
          "name": "G#3",
          "ticks": 133962,
          "time": 284.65741383750003,
          "velocity": 0.3858267716535433
        },
        {
          "duration": 1.347222693749984,
          "durationTicks": 873,
          "midi": 58,
          "name": "A#3",
          "ticks": 134005,
          "time": 284.7237718854167,
          "velocity": 0.3858267716535433
        },
        {
          "duration": 1.279321435416648,
          "durationTicks": 829,
          "midi": 61,
          "name": "C#4",
          "ticks": 134049,
          "time": 284.79167314375,
          "velocity": 0.3858267716535433
        },
        {
          "duration": 0.8472225187500158,
          "durationTicks": 549,
          "midi": 63,
          "name": "D#4",
          "ticks": 134091,
          "time": 284.85648798125,
          "velocity": 0.3858267716535433
        },
        {
          "duration": 0.36882728958335065,
          "durationTicks": 239,
          "midi": 51,
          "name": "D#3",
          "ticks": 135120,
          "time": 286.4444515,
          "velocity": 0.3858267716535433
        },
        {
          "duration": 0.36882728958335065,
          "durationTicks": 239,
          "midi": 63,
          "name": "D#4",
          "ticks": 135360,
          "time": 286.814822,
          "velocity": 0.3858267716535433
        },
        {
          "duration": 0.18364203958333292,
          "durationTicks": 119,
          "midi": 51,
          "name": "D#3",
          "ticks": 135600,
          "time": 287.1851925,
          "velocity": 0.3858267716535433
        },
        {
          "duration": 0.18364203958333292,
          "durationTicks": 119,
          "midi": 61,
          "name": "C#4",
          "ticks": 135720,
          "time": 287.37037775,
          "velocity": 0.3858267716535433
        },
        {
          "duration": 0.7391977895833293,
          "durationTicks": 479,
          "midi": 60,
          "name": "C4",
          "ticks": 135840,
          "time": 287.555563,
          "velocity": 0.3858267716535433
        },
        {
          "duration": 0.7391977895833293,
          "durationTicks": 479,
          "midi": 58,
          "name": "A#3",
          "ticks": 136320,
          "time": 288.296304,
          "velocity": 0.3858267716535433
        },
        {
          "duration": 0.7391977895833293,
          "durationTicks": 479,
          "midi": 53,
          "name": "F3",
          "ticks": 136800,
          "time": 289.03704500000003,
          "velocity": 0.3858267716535433
        },
        {
          "duration": 0.36882728958335065,
          "durationTicks": 239,
          "midi": 65,
          "name": "F4",
          "ticks": 137280,
          "time": 289.777786,
          "velocity": 0.3858267716535433
        },
        {
          "duration": 0.18364203958333292,
          "durationTicks": 119,
          "midi": 64,
          "name": "E4",
          "ticks": 137520,
          "time": 290.1481565,
          "velocity": 0.3858267716535433
        },
        {
          "duration": 0.18364203958333292,
          "durationTicks": 119,
          "midi": 62,
          "name": "D4",
          "ticks": 137640,
          "time": 290.33334175000005,
          "velocity": 0.3858267716535433
        },
        {
          "duration": 1.1095682895833647,
          "durationTicks": 719,
          "midi": 60,
          "name": "C4",
          "ticks": 137760,
          "time": 290.518527,
          "velocity": 0.3858267716535433
        },
        {
          "duration": 0.36882728958335065,
          "durationTicks": 239,
          "midi": 48,
          "name": "C3",
          "ticks": 138480,
          "time": 291.6296385,
          "velocity": 0.3858267716535433
        },
        {
          "duration": 0.36882728958335065,
          "durationTicks": 239,
          "midi": 60,
          "name": "C4",
          "ticks": 138480,
          "time": 291.6296385,
          "velocity": 0.3858267716535433
        },
        {
          "duration": 0.3688272895832938,
          "durationTicks": 239,
          "midi": 48,
          "name": "C3",
          "ticks": 138720,
          "time": 292.00000900000003,
          "velocity": 0.3858267716535433
        },
        {
          "duration": 0.3688272895832938,
          "durationTicks": 239,
          "midi": 60,
          "name": "C4",
          "ticks": 138720,
          "time": 292.00000900000003,
          "velocity": 0.3858267716535433
        },
        {
          "duration": 0.7391977895833293,
          "durationTicks": 479,
          "midi": 36,
          "name": "C2",
          "ticks": 138960,
          "time": 292.3703795,
          "velocity": 0.3858267716535433
        },
        {
          "duration": 0.7391977895833293,
          "durationTicks": 479,
          "midi": 48,
          "name": "C3",
          "ticks": 138960,
          "time": 292.3703795,
          "velocity": 0.3858267716535433
        },
        {
          "duration": 0.3688272895832938,
          "durationTicks": 239,
          "midi": 36,
          "name": "C2",
          "ticks": 139440,
          "time": 293.1111205,
          "velocity": 0.3858267716535433
        },
        {
          "duration": 0.3688272895832938,
          "durationTicks": 239,
          "midi": 48,
          "name": "C3",
          "ticks": 139440,
          "time": 293.1111205,
          "velocity": 0.3858267716535433
        },
        {
          "duration": 0.36882728958335065,
          "durationTicks": 239,
          "midi": 38,
          "name": "D2",
          "ticks": 139680,
          "time": 293.481491,
          "velocity": 0.7559055118110236
        },
        {
          "duration": 0.36882728958335065,
          "durationTicks": 239,
          "midi": 50,
          "name": "D3",
          "ticks": 139680,
          "time": 293.481491,
          "velocity": 0.7559055118110236
        },
        {
          "duration": 0.5540125395833115,
          "durationTicks": 359,
          "midi": 50,
          "name": "D3",
          "ticks": 140160,
          "time": 294.222232,
          "velocity": 0.7559055118110236
        },
        {
          "duration": 0.5540125395833115,
          "durationTicks": 359,
          "midi": 55,
          "name": "G3",
          "ticks": 140160,
          "time": 294.222232,
          "velocity": 0.7559055118110236
        },
        {
          "duration": 0.5540125395833115,
          "durationTicks": 359,
          "midi": 57,
          "name": "A3",
          "ticks": 140160,
          "time": 294.222232,
          "velocity": 0.7559055118110236
        },
        {
          "duration": 0.18364203958333292,
          "durationTicks": 119,
          "midi": 50,
          "name": "D3",
          "ticks": 140520,
          "time": 294.77778775,
          "velocity": 0.7559055118110236
        },
        {
          "duration": 0.18364203958333292,
          "durationTicks": 119,
          "midi": 55,
          "name": "G3",
          "ticks": 140520,
          "time": 294.77778775,
          "velocity": 0.7559055118110236
        },
        {
          "duration": 0.18364203958333292,
          "durationTicks": 119,
          "midi": 57,
          "name": "A3",
          "ticks": 140520,
          "time": 294.77778775,
          "velocity": 0.7559055118110236
        },
        {
          "duration": 0.5540125395833115,
          "durationTicks": 359,
          "midi": 50,
          "name": "D3",
          "ticks": 140640,
          "time": 294.96297300000003,
          "velocity": 0.7559055118110236
        },
        {
          "duration": 0.5540125395833115,
          "durationTicks": 359,
          "midi": 54,
          "name": "F#3",
          "ticks": 140640,
          "time": 294.96297300000003,
          "velocity": 0.7559055118110236
        },
        {
          "duration": 0.5540125395833115,
          "durationTicks": 359,
          "midi": 57,
          "name": "A3",
          "ticks": 140640,
          "time": 294.96297300000003,
          "velocity": 0.7559055118110236
        },
        {
          "duration": 0.18364203958333292,
          "durationTicks": 119,
          "midi": 50,
          "name": "D3",
          "ticks": 141000,
          "time": 295.51852875000003,
          "velocity": 0.7559055118110236
        },
        {
          "duration": 0.18364203958333292,
          "durationTicks": 119,
          "midi": 54,
          "name": "F#3",
          "ticks": 141000,
          "time": 295.51852875000003,
          "velocity": 0.7559055118110236
        },
        {
          "duration": 0.18364203958333292,
          "durationTicks": 119,
          "midi": 57,
          "name": "A3",
          "ticks": 141000,
          "time": 295.51852875000003,
          "velocity": 0.7559055118110236
        },
        {
          "duration": 0.18364203958333292,
          "durationTicks": 119,
          "midi": 50,
          "name": "D3",
          "ticks": 141120,
          "time": 295.703714,
          "velocity": 0.7559055118110236
        },
        {
          "duration": 0.18364203958333292,
          "durationTicks": 119,
          "midi": 55,
          "name": "G3",
          "ticks": 141120,
          "time": 295.703714,
          "velocity": 0.7559055118110236
        },
        {
          "duration": 0.18364203958333292,
          "durationTicks": 119,
          "midi": 57,
          "name": "A3",
          "ticks": 141120,
          "time": 295.703714,
          "velocity": 0.7559055118110236
        },
        {
          "duration": 0.18364203958333292,
          "durationTicks": 119,
          "midi": 50,
          "name": "D3",
          "ticks": 141360,
          "time": 296.0740845,
          "velocity": 0.7559055118110236
        },
        {
          "duration": 0.18364203958333292,
          "durationTicks": 119,
          "midi": 55,
          "name": "G3",
          "ticks": 141360,
          "time": 296.0740845,
          "velocity": 0.7559055118110236
        },
        {
          "duration": 0.18364203958333292,
          "durationTicks": 119,
          "midi": 58,
          "name": "A#3",
          "ticks": 141360,
          "time": 296.0740845,
          "velocity": 0.7559055118110236
        },
        {
          "duration": 0.5540125395833115,
          "durationTicks": 359,
          "midi": 50,
          "name": "D3",
          "ticks": 141600,
          "time": 296.444455,
          "velocity": 0.7559055118110236
        },
        {
          "duration": 0.5540125395833115,
          "durationTicks": 359,
          "midi": 54,
          "name": "F#3",
          "ticks": 141600,
          "time": 296.444455,
          "velocity": 0.7559055118110236
        },
        {
          "duration": 0.5540125395833115,
          "durationTicks": 359,
          "midi": 57,
          "name": "A3",
          "ticks": 141600,
          "time": 296.444455,
          "velocity": 0.7559055118110236
        },
        {
          "duration": 0.18364203958333292,
          "durationTicks": 119,
          "midi": 50,
          "name": "D3",
          "ticks": 141960,
          "time": 297.00001075,
          "velocity": 0.7559055118110236
        },
        {
          "duration": 0.18364203958333292,
          "durationTicks": 119,
          "midi": 54,
          "name": "F#3",
          "ticks": 141960,
          "time": 297.00001075,
          "velocity": 0.7559055118110236
        },
        {
          "duration": 0.18364203958333292,
          "durationTicks": 119,
          "midi": 57,
          "name": "A3",
          "ticks": 141960,
          "time": 297.00001075,
          "velocity": 0.7559055118110236
        },
        {
          "duration": 0.5540125395833115,
          "durationTicks": 359,
          "midi": 50,
          "name": "D3",
          "ticks": 142080,
          "time": 297.185196,
          "velocity": 0.7559055118110236
        },
        {
          "duration": 0.5540125395833115,
          "durationTicks": 359,
          "midi": 55,
          "name": "G3",
          "ticks": 142080,
          "time": 297.185196,
          "velocity": 0.7559055118110236
        },
        {
          "duration": 0.5540125395833115,
          "durationTicks": 359,
          "midi": 57,
          "name": "A3",
          "ticks": 142080,
          "time": 297.185196,
          "velocity": 0.7559055118110236
        },
        {
          "duration": 0.18364203958333292,
          "durationTicks": 119,
          "midi": 50,
          "name": "D3",
          "ticks": 142440,
          "time": 297.74075175,
          "velocity": 0.7559055118110236
        },
        {
          "duration": 0.18364203958333292,
          "durationTicks": 119,
          "midi": 55,
          "name": "G3",
          "ticks": 142440,
          "time": 297.74075175,
          "velocity": 0.7559055118110236
        },
        {
          "duration": 0.18364203958333292,
          "durationTicks": 119,
          "midi": 57,
          "name": "A3",
          "ticks": 142440,
          "time": 297.74075175,
          "velocity": 0.7559055118110236
        },
        {
          "duration": 0.36882728958335065,
          "durationTicks": 239,
          "midi": 43,
          "name": "G2",
          "ticks": 142800,
          "time": 298.2963075,
          "velocity": 0.7559055118110236
        },
        {
          "duration": 0.3688272895832938,
          "durationTicks": 239,
          "midi": 45,
          "name": "A2",
          "ticks": 143280,
          "time": 299.0370485,
          "velocity": 0.7559055118110236
        },
        {
          "duration": 1.1095682895833647,
          "durationTicks": 719,
          "midi": 34,
          "name": "A#1",
          "ticks": 143520,
          "time": 299.407419,
          "velocity": 0.8818897637795275
        },
        {
          "duration": 1.1095682895833647,
          "durationTicks": 719,
          "midi": 46,
          "name": "A#2",
          "ticks": 143520,
          "time": 299.407419,
          "velocity": 0.8818897637795275
        },
        {
          "duration": 0.18364203958333292,
          "durationTicks": 119,
          "midi": 34,
          "name": "A#1",
          "ticks": 144240,
          "time": 300.5185305,
          "velocity": 0.8818897637795275
        },
        {
          "duration": 0.18364203958333292,
          "durationTicks": 119,
          "midi": 46,
          "name": "A#2",
          "ticks": 144240,
          "time": 300.5185305,
          "velocity": 0.8818897637795275
        },
        {
          "duration": 0.18364203958333292,
          "durationTicks": 119,
          "midi": 34,
          "name": "A#1",
          "ticks": 144360,
          "time": 300.70371575,
          "velocity": 0.8818897637795275
        },
        {
          "duration": 0.18364203958333292,
          "durationTicks": 119,
          "midi": 46,
          "name": "A#2",
          "ticks": 144360,
          "time": 300.70371575,
          "velocity": 0.8818897637795275
        },
        {
          "duration": 0.5540125395833115,
          "durationTicks": 359,
          "midi": 34,
          "name": "A#1",
          "ticks": 144480,
          "time": 300.88890100000003,
          "velocity": 0.8818897637795275
        },
        {
          "duration": 0.5540125395833115,
          "durationTicks": 359,
          "midi": 46,
          "name": "A#2",
          "ticks": 144480,
          "time": 300.88890100000003,
          "velocity": 0.8818897637795275
        },
        {
          "duration": 0.18364203958333292,
          "durationTicks": 119,
          "midi": 34,
          "name": "A#1",
          "ticks": 144840,
          "time": 301.44445675000003,
          "velocity": 0.8818897637795275
        },
        {
          "duration": 0.18364203958333292,
          "durationTicks": 119,
          "midi": 46,
          "name": "A#2",
          "ticks": 144840,
          "time": 301.44445675000003,
          "velocity": 0.8818897637795275
        },
        {
          "duration": 0.36882728958335065,
          "durationTicks": 239,
          "midi": 34,
          "name": "A#1",
          "ticks": 144960,
          "time": 301.629642,
          "velocity": 0.8818897637795275
        },
        {
          "duration": 0.36882728958335065,
          "durationTicks": 239,
          "midi": 46,
          "name": "A#2",
          "ticks": 144960,
          "time": 301.629642,
          "velocity": 0.8818897637795275
        },
        {
          "duration": 0.36882728958335065,
          "durationTicks": 239,
          "midi": 34,
          "name": "A#1",
          "ticks": 145200,
          "time": 302.0000125,
          "velocity": 0.8818897637795275
        },
        {
          "duration": 0.36882728958335065,
          "durationTicks": 239,
          "midi": 46,
          "name": "A#2",
          "ticks": 145200,
          "time": 302.0000125,
          "velocity": 0.8818897637795275
        },
        {
          "duration": 0.7391977895833293,
          "durationTicks": 479,
          "midi": 55,
          "name": "G3",
          "ticks": 145440,
          "time": 302.370383,
          "velocity": 0.8818897637795275
        },
        {
          "duration": 0.7391977895833293,
          "durationTicks": 479,
          "midi": 62,
          "name": "D4",
          "ticks": 145440,
          "time": 302.370383,
          "velocity": 0.8818897637795275
        },
        {
          "duration": 0.7391977895833293,
          "durationTicks": 479,
          "midi": 53,
          "name": "F3",
          "ticks": 145920,
          "time": 303.111124,
          "velocity": 0.8818897637795275
        },
        {
          "duration": 0.7391977895833293,
          "durationTicks": 479,
          "midi": 62,
          "name": "D4",
          "ticks": 145920,
          "time": 303.111124,
          "velocity": 0.8818897637795275
        },
        {
          "duration": 0.18364203958333292,
          "durationTicks": 119,
          "midi": 46,
          "name": "A#2",
          "ticks": 146640,
          "time": 304.2222355,
          "velocity": 0.8818897637795275
        },
        {
          "duration": 0.18364203958333292,
          "durationTicks": 119,
          "midi": 48,
          "name": "C3",
          "ticks": 146760,
          "time": 304.40742075,
          "velocity": 0.8818897637795275
        },
        {
          "duration": 0.3688272895832938,
          "durationTicks": 239,
          "midi": 51,
          "name": "D#3",
          "ticks": 146880,
          "time": 304.59260600000005,
          "velocity": 0.8818897637795275
        },
        {
          "duration": 0.3688272895832938,
          "durationTicks": 239,
          "midi": 46,
          "name": "A#2",
          "ticks": 147120,
          "time": 304.9629765,
          "velocity": 0.8818897637795275
        },
        {
          "duration": 0.7391977895833293,
          "durationTicks": 479,
          "midi": 39,
          "name": "D#2",
          "ticks": 147360,
          "time": 305.333347,
          "velocity": 1
        },
        {
          "duration": 0.7391977895833293,
          "durationTicks": 479,
          "midi": 51,
          "name": "D#3",
          "ticks": 147360,
          "time": 305.333347,
          "velocity": 1
        },
        {
          "duration": 0.7391977895833293,
          "durationTicks": 479,
          "midi": 38,
          "name": "D2",
          "ticks": 148320,
          "time": 306.81482900000003,
          "velocity": 1
        },
        {
          "duration": 0.7391977895833293,
          "durationTicks": 479,
          "midi": 50,
          "name": "D3",
          "ticks": 148320,
          "time": 306.81482900000003,
          "velocity": 1
        },
        {
          "duration": 0.7391977895833861,
          "durationTicks": 479,
          "midi": 31,
          "name": "G1",
          "ticks": 148800,
          "time": 307.55557,
          "velocity": 1
        },
        {
          "duration": 0.7391977895833861,
          "durationTicks": 479,
          "midi": 43,
          "name": "G2",
          "ticks": 148800,
          "time": 307.55557,
          "velocity": 1
        },
        {
          "duration": 0.18364203958333292,
          "durationTicks": 119,
          "midi": 51,
          "name": "D#3",
          "ticks": 149520,
          "time": 308.6666815,
          "velocity": 0.8818897637795275
        },
        {
          "duration": 0.7391977895833293,
          "durationTicks": 479,
          "midi": 39,
          "name": "D#2",
          "ticks": 149760,
          "time": 309.037052,
          "velocity": 1
        },
        {
          "duration": 0.18364203958333292,
          "durationTicks": 119,
          "midi": 45,
          "name": "A2",
          "ticks": 150480,
          "time": 310.1481635,
          "velocity": 0.8818897637795275
        },
        {
          "duration": 0.7391977895832724,
          "durationTicks": 479,
          "midi": 33,
          "name": "A1",
          "ticks": 150720,
          "time": 310.51853400000005,
          "velocity": 1
        },
        {
          "duration": 1.1095682895833647,
          "durationTicks": 719,
          "midi": 37,
          "name": "C#2",
          "ticks": 151200,
          "time": 311.259275,
          "velocity": 0.7559055118110236
        },
        {
          "duration": 1.1095682895833647,
          "durationTicks": 719,
          "midi": 44,
          "name": "G#2",
          "ticks": 151200,
          "time": 311.259275,
          "velocity": 0.7559055118110236
        },
        {
          "duration": 0.36882728958335065,
          "durationTicks": 239,
          "midi": 37,
          "name": "C#2",
          "ticks": 151920,
          "time": 312.3703865,
          "velocity": 0.7559055118110236
        },
        {
          "duration": 0.36882728958335065,
          "durationTicks": 239,
          "midi": 49,
          "name": "C#3",
          "ticks": 151920,
          "time": 312.3703865,
          "velocity": 0.7559055118110236
        },
        {
          "duration": 1.1095682895833079,
          "durationTicks": 719,
          "midi": 37,
          "name": "C#2",
          "ticks": 152160,
          "time": 312.74075700000003,
          "velocity": 0.7559055118110236
        },
        {
          "duration": 1.1095682895833079,
          "durationTicks": 719,
          "midi": 49,
          "name": "C#3",
          "ticks": 152160,
          "time": 312.74075700000003,
          "velocity": 0.7559055118110236
        },
        {
          "duration": 0.36882728958335065,
          "durationTicks": 239,
          "midi": 37,
          "name": "C#2",
          "ticks": 152880,
          "time": 313.8518685,
          "velocity": 0.7559055118110236
        },
        {
          "duration": 0.36882728958335065,
          "durationTicks": 239,
          "midi": 49,
          "name": "C#3",
          "ticks": 152880,
          "time": 313.8518685,
          "velocity": 0.7559055118110236
        },
        {
          "duration": 0.7391977895833293,
          "durationTicks": 479,
          "midi": 46,
          "name": "A#2",
          "ticks": 153120,
          "time": 314.222239,
          "velocity": 0.7559055118110236
        },
        {
          "duration": 0.7391977895833293,
          "durationTicks": 479,
          "midi": 58,
          "name": "A#3",
          "ticks": 153120,
          "time": 314.222239,
          "velocity": 0.7559055118110236
        },
        {
          "duration": 0.7391977895833293,
          "durationTicks": 479,
          "midi": 44,
          "name": "G#2",
          "ticks": 153600,
          "time": 314.96298,
          "velocity": 0.7559055118110236
        },
        {
          "duration": 0.7391977895833293,
          "durationTicks": 479,
          "midi": 56,
          "name": "G#3",
          "ticks": 153600,
          "time": 314.96298,
          "velocity": 0.7559055118110236
        },
        {
          "duration": 0.7391977895833293,
          "durationTicks": 479,
          "midi": 42,
          "name": "F#2",
          "ticks": 154080,
          "time": 315.70372100000003,
          "velocity": 0.7559055118110236
        },
        {
          "duration": 0.7391977895833293,
          "durationTicks": 479,
          "midi": 54,
          "name": "F#3",
          "ticks": 154080,
          "time": 315.70372100000003,
          "velocity": 0.7559055118110236
        },
        {
          "duration": 0.3688272895832938,
          "durationTicks": 239,
          "midi": 42,
          "name": "F#2",
          "ticks": 154560,
          "time": 316.44446200000004,
          "velocity": 0.7559055118110236
        },
        {
          "duration": 0.3688272895832938,
          "durationTicks": 239,
          "midi": 54,
          "name": "F#3",
          "ticks": 154560,
          "time": 316.44446200000004,
          "velocity": 0.7559055118110236
        },
        {
          "duration": 0.18364203958333292,
          "durationTicks": 119,
          "midi": 42,
          "name": "F#2",
          "ticks": 154800,
          "time": 316.8148325,
          "velocity": 0.7559055118110236
        },
        {
          "duration": 0.18364203958333292,
          "durationTicks": 119,
          "midi": 54,
          "name": "F#3",
          "ticks": 154800,
          "time": 316.8148325,
          "velocity": 0.7559055118110236
        },
        {
          "duration": 0.18364203958333292,
          "durationTicks": 119,
          "midi": 42,
          "name": "F#2",
          "ticks": 154920,
          "time": 317.00001775,
          "velocity": 0.7559055118110236
        },
        {
          "duration": 0.18364203958333292,
          "durationTicks": 119,
          "midi": 54,
          "name": "F#3",
          "ticks": 154920,
          "time": 317.00001775,
          "velocity": 0.7559055118110236
        },
        {
          "duration": 0.7391977895833293,
          "durationTicks": 479,
          "midi": 46,
          "name": "A#2",
          "ticks": 155040,
          "time": 317.185203,
          "velocity": 0.7559055118110236
        },
        {
          "duration": 0.7391977895833293,
          "durationTicks": 479,
          "midi": 58,
          "name": "A#3",
          "ticks": 155040,
          "time": 317.185203,
          "velocity": 0.7559055118110236
        },
        {
          "duration": 0.7391977895833293,
          "durationTicks": 479,
          "midi": 44,
          "name": "G#2",
          "ticks": 155520,
          "time": 317.925944,
          "velocity": 0.7559055118110236
        },
        {
          "duration": 0.7391977895833293,
          "durationTicks": 479,
          "midi": 56,
          "name": "G#3",
          "ticks": 155520,
          "time": 317.925944,
          "velocity": 0.7559055118110236
        },
        {
          "duration": 0.7391977895833293,
          "durationTicks": 479,
          "midi": 41,
          "name": "F2",
          "ticks": 156000,
          "time": 318.66668500000003,
          "velocity": 0.7559055118110236
        },
        {
          "duration": 0.7391977895833293,
          "durationTicks": 479,
          "midi": 53,
          "name": "F3",
          "ticks": 156000,
          "time": 318.66668500000003,
          "velocity": 0.7559055118110236
        },
        {
          "duration": 0.36882728958335065,
          "durationTicks": 239,
          "midi": 46,
          "name": "A#2",
          "ticks": 156480,
          "time": 319.407426,
          "velocity": 0.7559055118110236
        },
        {
          "duration": 0.36882728958335065,
          "durationTicks": 239,
          "midi": 58,
          "name": "A#3",
          "ticks": 156480,
          "time": 319.407426,
          "velocity": 0.7559055118110236
        },
        {
          "duration": 0.36882728958335065,
          "durationTicks": 239,
          "midi": 46,
          "name": "A#2",
          "ticks": 156720,
          "time": 319.7777965,
          "velocity": 0.7559055118110236
        },
        {
          "duration": 0.36882728958335065,
          "durationTicks": 239,
          "midi": 58,
          "name": "A#3",
          "ticks": 156720,
          "time": 319.7777965,
          "velocity": 0.7559055118110236
        },
        {
          "duration": 0.0910494145833809,
          "durationTicks": 59,
          "midi": 59,
          "name": "B3",
          "ticks": 157200,
          "time": 320.5185375,
          "velocity": 0.6299212598425197
        },
        {
          "duration": 0.0910494145833809,
          "durationTicks": 59,
          "midi": 54,
          "name": "F#3",
          "ticks": 157320,
          "time": 320.70372275,
          "velocity": 0.6299212598425197
        },
        {
          "duration": 0.09104941458332405,
          "durationTicks": 59,
          "midi": 57,
          "name": "A3",
          "ticks": 157440,
          "time": 320.888908,
          "velocity": 0.6299212598425197
        },
        {
          "duration": 0.09104941458332405,
          "durationTicks": 59,
          "midi": 52,
          "name": "E3",
          "ticks": 157560,
          "time": 321.07409325000003,
          "velocity": 0.6299212598425197
        },
        {
          "duration": 0.18364203958333292,
          "durationTicks": 119,
          "midi": 45,
          "name": "A2",
          "ticks": 157680,
          "time": 321.2592785,
          "velocity": 0.6299212598425197
        },
        {
          "duration": 0.36882728958335065,
          "durationTicks": 239,
          "midi": 54,
          "name": "F#3",
          "ticks": 158160,
          "time": 322.0000195,
          "velocity": 0.6299212598425197
        },
        {
          "duration": 0.7391977895832724,
          "durationTicks": 479,
          "midi": 59,
          "name": "B3",
          "ticks": 158400,
          "time": 322.37039000000004,
          "velocity": 0.6299212598425197
        },
        {
          "duration": 0.09104941458332405,
          "durationTicks": 59,
          "midi": 52,
          "name": "E3",
          "ticks": 159000,
          "time": 323.29631625,
          "velocity": 0.6299212598425197
        },
        {
          "duration": 0.09104941458332405,
          "durationTicks": 59,
          "midi": 50,
          "name": "D3",
          "ticks": 159120,
          "time": 323.48150150000004,
          "velocity": 0.6299212598425197
        },
        {
          "duration": 0.09104941458332405,
          "durationTicks": 59,
          "midi": 57,
          "name": "A3",
          "ticks": 159240,
          "time": 323.66668675,
          "velocity": 0.6299212598425197
        },
        {
          "duration": 0.5540125395833115,
          "durationTicks": 359,
          "midi": 62,
          "name": "D4",
          "ticks": 159360,
          "time": 323.851872,
          "velocity": 0.6299212598425197
        },
        {
          "duration": 0.18364203958333292,
          "durationTicks": 119,
          "midi": 62,
          "name": "D4",
          "ticks": 159720,
          "time": 324.40742775,
          "velocity": 0.6299212598425197
        },
        {
          "duration": 0.36882728958335065,
          "durationTicks": 239,
          "midi": 60,
          "name": "C4",
          "ticks": 159840,
          "time": 324.59261300000003,
          "velocity": 0.6299212598425197
        },
        {
          "duration": 0.7391977895833293,
          "durationTicks": 479,
          "midi": 67,
          "name": "G4",
          "ticks": 160080,
          "time": 324.9629835,
          "velocity": 0.6299212598425197
        },
        {
          "duration": 0.18364203958333292,
          "durationTicks": 119,
          "midi": 67,
          "name": "G4",
          "ticks": 160560,
          "time": 325.7037245,
          "velocity": 0.6299212598425197
        },
        {
          "duration": 0.18364203958333292,
          "durationTicks": 119,
          "midi": 69,
          "name": "A4",
          "ticks": 160680,
          "time": 325.88890975000004,
          "velocity": 0.6299212598425197
        },
        {
          "duration": 2.2206797895833006,
          "durationTicks": 1439,
          "midi": 39,
          "name": "D#2",
          "ticks": 161280,
          "time": 326.814836,
          "velocity": 1
        },
        {
          "duration": 2.2206797895833006,
          "durationTicks": 1439,
          "midi": 51,
          "name": "D#3",
          "ticks": 161280,
          "time": 326.814836,
          "velocity": 1
        },
        {
          "duration": 0.7391977895833293,
          "durationTicks": 479,
          "midi": 39,
          "name": "D#2",
          "ticks": 163200,
          "time": 329.7778,
          "velocity": 0.8818897637795275
        },
        {
          "duration": 0.7391977895833293,
          "durationTicks": 479,
          "midi": 51,
          "name": "D#3",
          "ticks": 163200,
          "time": 329.7778,
          "velocity": 0.8818897637795275
        },
        {
          "duration": 0.09104941458332405,
          "durationTicks": 59,
          "midi": 46,
          "name": "A#2",
          "ticks": 163920,
          "time": 330.8889115,
          "velocity": 0.8818897637795275
        },
        {
          "duration": 0.09104941458332405,
          "durationTicks": 59,
          "midi": 58,
          "name": "A#3",
          "ticks": 163920,
          "time": 330.8889115,
          "velocity": 0.8818897637795275
        },
        {
          "duration": 0.09104941458332405,
          "durationTicks": 59,
          "midi": 44,
          "name": "G#2",
          "ticks": 164040,
          "time": 331.07409675,
          "velocity": 0.8818897637795275
        },
        {
          "duration": 0.09104941458332405,
          "durationTicks": 59,
          "midi": 56,
          "name": "G#3",
          "ticks": 164040,
          "time": 331.07409675,
          "velocity": 0.8818897637795275
        },
        {
          "duration": 0.18364203958333292,
          "durationTicks": 119,
          "midi": 39,
          "name": "D#2",
          "ticks": 164160,
          "time": 331.259282,
          "velocity": 0.8818897637795275
        },
        {
          "duration": 0.18364203958333292,
          "durationTicks": 119,
          "midi": 51,
          "name": "D#3",
          "ticks": 164160,
          "time": 331.259282,
          "velocity": 0.8818897637795275
        },
        {
          "duration": 0.18364203958333292,
          "durationTicks": 119,
          "midi": 32,
          "name": "G#1",
          "ticks": 164400,
          "time": 331.6296525,
          "velocity": 0.8818897637795275
        },
        {
          "duration": 0.18364203958333292,
          "durationTicks": 119,
          "midi": 44,
          "name": "G#2",
          "ticks": 164400,
          "time": 331.6296525,
          "velocity": 0.8818897637795275
        },
        {
          "duration": 1.1095682895833647,
          "durationTicks": 719,
          "midi": 36,
          "name": "C2",
          "ticks": 164640,
          "time": 332.000023,
          "velocity": 0.8818897637795275
        },
        {
          "duration": 1.1095682895833647,
          "durationTicks": 719,
          "midi": 48,
          "name": "C3",
          "ticks": 164640,
          "time": 332.000023,
          "velocity": 0.8818897637795275
        },
        {
          "duration": 0.18364203958338976,
          "durationTicks": 119,
          "midi": 36,
          "name": "C2",
          "ticks": 165360,
          "time": 333.1111345,
          "velocity": 0.8818897637795275
        },
        {
          "duration": 0.18364203958338976,
          "durationTicks": 119,
          "midi": 48,
          "name": "C3",
          "ticks": 165360,
          "time": 333.1111345,
          "velocity": 0.8818897637795275
        },
        {
          "duration": 0.18364203958333292,
          "durationTicks": 119,
          "midi": 36,
          "name": "C2",
          "ticks": 165480,
          "time": 333.29631975,
          "velocity": 0.8818897637795275
        },
        {
          "duration": 0.18364203958333292,
          "durationTicks": 119,
          "midi": 48,
          "name": "C3",
          "ticks": 165480,
          "time": 333.29631975,
          "velocity": 0.8818897637795275
        },
        {
          "duration": 0.7391977895833293,
          "durationTicks": 479,
          "midi": 36,
          "name": "C2",
          "ticks": 165840,
          "time": 333.8518755,
          "velocity": 0.8818897637795275
        },
        {
          "duration": 0.7391977895833293,
          "durationTicks": 479,
          "midi": 48,
          "name": "C3",
          "ticks": 165840,
          "time": 333.8518755,
          "velocity": 0.8818897637795275
        },
        {
          "duration": 0.18364203958333292,
          "durationTicks": 119,
          "midi": 36,
          "name": "C2",
          "ticks": 166320,
          "time": 334.5926165,
          "velocity": 0.8818897637795275
        },
        {
          "duration": 0.18364203958333292,
          "durationTicks": 119,
          "midi": 48,
          "name": "C3",
          "ticks": 166320,
          "time": 334.5926165,
          "velocity": 0.8818897637795275
        },
        {
          "duration": 0.18364203958333292,
          "durationTicks": 119,
          "midi": 36,
          "name": "C2",
          "ticks": 166440,
          "time": 334.77780175,
          "velocity": 0.8818897637795275
        },
        {
          "duration": 0.18364203958333292,
          "durationTicks": 119,
          "midi": 48,
          "name": "C3",
          "ticks": 166440,
          "time": 334.77780175,
          "velocity": 0.8818897637795275
        },
        {
          "duration": 0.3688272895832938,
          "durationTicks": 239,
          "midi": 33,
          "name": "A1",
          "ticks": 166800,
          "time": 335.33335750000003,
          "velocity": 0.8818897637795275
        },
        {
          "duration": 0.3688272895832938,
          "durationTicks": 239,
          "midi": 45,
          "name": "A2",
          "ticks": 166800,
          "time": 335.33335750000003,
          "velocity": 0.8818897637795275
        },
        {
          "duration": 0.36882728958335065,
          "durationTicks": 239,
          "midi": 31,
          "name": "G1",
          "ticks": 167280,
          "time": 336.0740985,
          "velocity": 0.8818897637795275
        },
        {
          "duration": 0.36882728958335065,
          "durationTicks": 239,
          "midi": 43,
          "name": "G2",
          "ticks": 167280,
          "time": 336.0740985,
          "velocity": 0.8818897637795275
        },
        {
          "duration": 0.18364203958333292,
          "durationTicks": 119,
          "midi": 29,
          "name": "F1",
          "ticks": 167760,
          "time": 336.8148395,
          "velocity": 0.8818897637795275
        },
        {
          "duration": 0.18364203958333292,
          "durationTicks": 119,
          "midi": 41,
          "name": "F2",
          "ticks": 167760,
          "time": 336.8148395,
          "velocity": 0.8818897637795275
        },
        {
          "duration": 0.18364203958333292,
          "durationTicks": 119,
          "midi": 29,
          "name": "F1",
          "ticks": 167880,
          "time": 337.00002475,
          "velocity": 0.8818897637795275
        },
        {
          "duration": 0.18364203958333292,
          "durationTicks": 119,
          "midi": 41,
          "name": "F2",
          "ticks": 167880,
          "time": 337.00002475,
          "velocity": 0.8818897637795275
        },
        {
          "duration": 0.18364203958333292,
          "durationTicks": 119,
          "midi": 29,
          "name": "F1",
          "ticks": 168000,
          "time": 337.18521,
          "velocity": 0.8818897637795275
        },
        {
          "duration": 0.18364203958333292,
          "durationTicks": 119,
          "midi": 41,
          "name": "F2",
          "ticks": 168000,
          "time": 337.18521,
          "velocity": 0.8818897637795275
        },
        {
          "duration": 0.18364203958333292,
          "durationTicks": 119,
          "midi": 29,
          "name": "F1",
          "ticks": 168120,
          "time": 337.37039525,
          "velocity": 0.8818897637795275
        },
        {
          "duration": 0.18364203958333292,
          "durationTicks": 119,
          "midi": 41,
          "name": "F2",
          "ticks": 168120,
          "time": 337.37039525,
          "velocity": 0.8818897637795275
        },
        {
          "duration": 0.18364203958333292,
          "durationTicks": 119,
          "midi": 29,
          "name": "F1",
          "ticks": 168240,
          "time": 337.5555805,
          "velocity": 0.8818897637795275
        },
        {
          "duration": 0.18364203958333292,
          "durationTicks": 119,
          "midi": 41,
          "name": "F2",
          "ticks": 168240,
          "time": 337.5555805,
          "velocity": 0.8818897637795275
        },
        {
          "duration": 0.36882728958335065,
          "durationTicks": 239,
          "midi": 29,
          "name": "F1",
          "ticks": 168480,
          "time": 337.925951,
          "velocity": 0.905511811023622
        },
        {
          "duration": 0.36882728958335065,
          "durationTicks": 239,
          "midi": 41,
          "name": "F2",
          "ticks": 168480,
          "time": 337.925951,
          "velocity": 0.905511811023622
        },
        {
          "duration": 0.7391977895833293,
          "durationTicks": 479,
          "midi": 67,
          "name": "G4",
          "ticks": 169440,
          "time": 339.407433,
          "velocity": 0.6299212598425197
        },
        {
          "duration": 0.7391977895832724,
          "durationTicks": 479,
          "midi": 65,
          "name": "F4",
          "ticks": 169920,
          "time": 340.14817400000004,
          "velocity": 0.6299212598425197
        },
        {
          "duration": 0.7391977895832724,
          "durationTicks": 479,
          "midi": 69,
          "name": "A4",
          "ticks": 169920,
          "time": 340.14817400000004,
          "velocity": 0.6299212598425197
        },
        {
          "duration": 0.36882728958335065,
          "durationTicks": 239,
          "midi": 49,
          "name": "C#3",
          "ticks": 170400,
          "time": 340.888915,
          "velocity": 0.6299212598425197
        },
        {
          "duration": 0.36882728958335065,
          "durationTicks": 239,
          "midi": 53,
          "name": "F3",
          "ticks": 170400,
          "time": 340.888915,
          "velocity": 0.6299212598425197
        },
        {
          "duration": 0.36882728958335065,
          "durationTicks": 239,
          "midi": 56,
          "name": "G#3",
          "ticks": 170400,
          "time": 340.888915,
          "velocity": 0.6299212598425197
        },
        {
          "duration": 0.3688272895832938,
          "durationTicks": 239,
          "midi": 44,
          "name": "G#2",
          "ticks": 170640,
          "time": 341.25928550000003,
          "velocity": 0.6299212598425197
        },
        {
          "duration": 0.36882728958335065,
          "durationTicks": 239,
          "midi": 51,
          "name": "D#3",
          "ticks": 170880,
          "time": 341.629656,
          "velocity": 0.6299212598425197
        },
        {
          "duration": 0.36882728958335065,
          "durationTicks": 239,
          "midi": 54,
          "name": "F#3",
          "ticks": 170880,
          "time": 341.629656,
          "velocity": 0.6299212598425197
        },
        {
          "duration": 0.36882728958335065,
          "durationTicks": 239,
          "midi": 56,
          "name": "G#3",
          "ticks": 170880,
          "time": 341.629656,
          "velocity": 0.6299212598425197
        },
        {
          "duration": 0.36882728958335065,
          "durationTicks": 239,
          "midi": 44,
          "name": "G#2",
          "ticks": 171120,
          "time": 342.0000265,
          "velocity": 0.6299212598425197
        },
        {
          "duration": 0.36882728958335065,
          "durationTicks": 239,
          "midi": 49,
          "name": "C#3",
          "ticks": 171360,
          "time": 342.370397,
          "velocity": 0.6299212598425197
        },
        {
          "duration": 0.36882728958335065,
          "durationTicks": 239,
          "midi": 53,
          "name": "F3",
          "ticks": 171360,
          "time": 342.370397,
          "velocity": 0.6299212598425197
        },
        {
          "duration": 0.36882728958335065,
          "durationTicks": 239,
          "midi": 56,
          "name": "G#3",
          "ticks": 171360,
          "time": 342.370397,
          "velocity": 0.6299212598425197
        },
        {
          "duration": 0.36882728958335065,
          "durationTicks": 239,
          "midi": 44,
          "name": "G#2",
          "ticks": 171600,
          "time": 342.7407675,
          "velocity": 0.6299212598425197
        },
        {
          "duration": 0.36882728958335065,
          "durationTicks": 239,
          "midi": 48,
          "name": "C3",
          "ticks": 171840,
          "time": 343.111138,
          "velocity": 0.6299212598425197
        },
        {
          "duration": 0.36882728958335065,
          "durationTicks": 239,
          "midi": 54,
          "name": "F#3",
          "ticks": 171840,
          "time": 343.111138,
          "velocity": 0.6299212598425197
        },
        {
          "duration": 0.36882728958335065,
          "durationTicks": 239,
          "midi": 56,
          "name": "G#3",
          "ticks": 171840,
          "time": 343.111138,
          "velocity": 0.6299212598425197
        },
        {
          "duration": 0.36882728958335065,
          "durationTicks": 239,
          "midi": 59,
          "name": "B3",
          "ticks": 172080,
          "time": 343.4815085,
          "velocity": 0.6299212598425197
        },
        {
          "duration": 0.36882728958335065,
          "durationTicks": 239,
          "midi": 53,
          "name": "F3",
          "ticks": 172320,
          "time": 343.851879,
          "velocity": 0.6299212598425197
        },
        {
          "duration": 0.36882728958335065,
          "durationTicks": 239,
          "midi": 57,
          "name": "A3",
          "ticks": 172320,
          "time": 343.851879,
          "velocity": 0.6299212598425197
        },
        {
          "duration": 0.36882728958335065,
          "durationTicks": 239,
          "midi": 60,
          "name": "C4",
          "ticks": 172320,
          "time": 343.851879,
          "velocity": 0.6299212598425197
        },
        {
          "duration": 0.3688272895832938,
          "durationTicks": 239,
          "midi": 48,
          "name": "C3",
          "ticks": 172560,
          "time": 344.22224950000003,
          "velocity": 0.6299212598425197
        },
        {
          "duration": 0.36882728958335065,
          "durationTicks": 239,
          "midi": 51,
          "name": "D#3",
          "ticks": 172800,
          "time": 344.59262,
          "velocity": 0.6299212598425197
        },
        {
          "duration": 0.36882728958335065,
          "durationTicks": 239,
          "midi": 58,
          "name": "A#3",
          "ticks": 172800,
          "time": 344.59262,
          "velocity": 0.6299212598425197
        },
        {
          "duration": 0.36882728958335065,
          "durationTicks": 239,
          "midi": 60,
          "name": "C4",
          "ticks": 172800,
          "time": 344.59262,
          "velocity": 0.6299212598425197
        },
        {
          "duration": 0.3688272895832938,
          "durationTicks": 239,
          "midi": 48,
          "name": "C3",
          "ticks": 173040,
          "time": 344.96299050000005,
          "velocity": 0.6299212598425197
        },
        {
          "duration": 0.3688272895832938,
          "durationTicks": 239,
          "midi": 53,
          "name": "F3",
          "ticks": 173280,
          "time": 345.333361,
          "velocity": 0.6299212598425197
        },
        {
          "duration": 0.3688272895832938,
          "durationTicks": 239,
          "midi": 57,
          "name": "A3",
          "ticks": 173280,
          "time": 345.333361,
          "velocity": 0.6299212598425197
        },
        {
          "duration": 0.3688272895832938,
          "durationTicks": 239,
          "midi": 60,
          "name": "C4",
          "ticks": 173280,
          "time": 345.333361,
          "velocity": 0.6299212598425197
        },
        {
          "duration": 0.36882728958335065,
          "durationTicks": 239,
          "midi": 48,
          "name": "C3",
          "ticks": 173520,
          "time": 345.7037315,
          "velocity": 0.6299212598425197
        },
        {
          "duration": 0.3688272895832938,
          "durationTicks": 239,
          "midi": 53,
          "name": "F3",
          "ticks": 173760,
          "time": 346.07410200000004,
          "velocity": 0.6299212598425197
        },
        {
          "duration": 0.3688272895832938,
          "durationTicks": 239,
          "midi": 58,
          "name": "A#3",
          "ticks": 173760,
          "time": 346.07410200000004,
          "velocity": 0.6299212598425197
        },
        {
          "duration": 0.3688272895832938,
          "durationTicks": 239,
          "midi": 60,
          "name": "C4",
          "ticks": 173760,
          "time": 346.07410200000004,
          "velocity": 0.6299212598425197
        },
        {
          "duration": 0.36882728958335065,
          "durationTicks": 239,
          "midi": 62,
          "name": "D4",
          "ticks": 174000,
          "time": 346.4444725,
          "velocity": 0.6299212598425197
        },
        {
          "duration": 0.5540125395833684,
          "durationTicks": 359,
          "midi": 55,
          "name": "G3",
          "ticks": 174240,
          "time": 346.814843,
          "velocity": 0.6299212598425197
        },
        {
          "duration": 0.18364203958338976,
          "durationTicks": 119,
          "midi": 55,
          "name": "G3",
          "ticks": 174600,
          "time": 347.37039875,
          "velocity": 0.6299212598425197
        },
        {
          "duration": 0.18364203958338976,
          "durationTicks": 119,
          "midi": 60,
          "name": "C4",
          "ticks": 174600,
          "time": 347.37039875,
          "velocity": 0.6299212598425197
        },
        {
          "duration": 0.5540125395833115,
          "durationTicks": 359,
          "midi": 55,
          "name": "G3",
          "ticks": 174720,
          "time": 347.555584,
          "velocity": 0.6299212598425197
        },
        {
          "duration": 0.18364203958333292,
          "durationTicks": 119,
          "midi": 55,
          "name": "G3",
          "ticks": 175080,
          "time": 348.11113975,
          "velocity": 0.6299212598425197
        },
        {
          "duration": 0.5540125395833115,
          "durationTicks": 359,
          "midi": 55,
          "name": "G3",
          "ticks": 175200,
          "time": 348.296325,
          "velocity": 0.6299212598425197
        },
        {
          "duration": 0.5540125395833115,
          "durationTicks": 359,
          "midi": 60,
          "name": "C4",
          "ticks": 175200,
          "time": 348.296325,
          "velocity": 0.6299212598425197
        },
        {
          "duration": 0.18364203958333292,
          "durationTicks": 119,
          "midi": 55,
          "name": "G3",
          "ticks": 175560,
          "time": 348.85188075,
          "velocity": 0.6299212598425197
        },
        {
          "duration": 0.18364203958333292,
          "durationTicks": 119,
          "midi": 60,
          "name": "C4",
          "ticks": 175560,
          "time": 348.85188075,
          "velocity": 0.6299212598425197
        },
        {
          "duration": 0.36882728958335065,
          "durationTicks": 239,
          "midi": 55,
          "name": "G3",
          "ticks": 175680,
          "time": 349.037066,
          "velocity": 0.7559055118110236
        },
        {
          "duration": 0.36882728958335065,
          "durationTicks": 239,
          "midi": 60,
          "name": "C4",
          "ticks": 175680,
          "time": 349.037066,
          "velocity": 0.7559055118110236
        },
        {
          "duration": 0.36882728958335065,
          "durationTicks": 239,
          "midi": 55,
          "name": "G3",
          "ticks": 175920,
          "time": 349.4074365,
          "velocity": 0.7559055118110236
        },
        {
          "duration": 0.36882728958335065,
          "durationTicks": 239,
          "midi": 60,
          "name": "C4",
          "ticks": 175920,
          "time": 349.4074365,
          "velocity": 0.7559055118110236
        },
        {
          "duration": 2.591050289583336,
          "durationTicks": 1679,
          "midi": 36,
          "name": "C2",
          "ticks": 176160,
          "time": 349.777807,
          "velocity": 0.8818897637795275
        },
        {
          "duration": 2.591050289583336,
          "durationTicks": 1679,
          "midi": 48,
          "name": "C3",
          "ticks": 176160,
          "time": 349.777807,
          "velocity": 0.8818897637795275
        },
        {
          "duration": 0.18364203958333292,
          "durationTicks": 119,
          "midi": 65,
          "name": "F4",
          "ticks": 176280,
          "time": 349.96299225,
          "velocity": 0.8818897637795275
        },
        {
          "duration": 0.09104941458332405,
          "durationTicks": 59,
          "midi": 64,
          "name": "E4",
          "ticks": 176400,
          "time": 350.14817750000003,
          "velocity": 0.8818897637795275
        },
        {
          "duration": 0.0910494145833809,
          "durationTicks": 59,
          "midi": 62,
          "name": "D4",
          "ticks": 176520,
          "time": 350.33336275,
          "velocity": 0.8818897637795275
        },
        {
          "duration": 0.18364203958333292,
          "durationTicks": 119,
          "midi": 60,
          "name": "C4",
          "ticks": 176640,
          "time": 350.518548,
          "velocity": 0.8818897637795275
        },
        {
          "duration": 0.18364203958333292,
          "durationTicks": 119,
          "midi": 67,
          "name": "G4",
          "ticks": 176880,
          "time": 350.88891850000005,
          "velocity": 0.8818897637795275
        },
        {
          "duration": 0.18364203958333292,
          "durationTicks": 119,
          "midi": 65,
          "name": "F4",
          "ticks": 177240,
          "time": 351.44447425,
          "velocity": 0.8818897637795275
        },
        {
          "duration": 0.09104941458332405,
          "durationTicks": 59,
          "midi": 64,
          "name": "E4",
          "ticks": 177360,
          "time": 351.6296595,
          "velocity": 0.8818897637795275
        },
        {
          "duration": 0.09104941458332405,
          "durationTicks": 59,
          "midi": 62,
          "name": "D4",
          "ticks": 177480,
          "time": 351.81484475,
          "velocity": 0.8818897637795275
        },
        {
          "duration": 0.18364203958333292,
          "durationTicks": 119,
          "midi": 60,
          "name": "C4",
          "ticks": 177600,
          "time": 352.00003000000004,
          "velocity": 0.8818897637795275
        },
        {
          "duration": 0.36882728958335065,
          "durationTicks": 239,
          "midi": 43,
          "name": "G2",
          "ticks": 177840,
          "time": 352.3704005,
          "velocity": 0.8818897637795275
        },
        {
          "duration": 2.9614207895833715,
          "durationTicks": 1919,
          "midi": 36,
          "name": "C2",
          "ticks": 178080,
          "time": 352.740771,
          "velocity": 0.8818897637795275
        },
        {
          "duration": 2.9614207895833715,
          "durationTicks": 1919,
          "midi": 48,
          "name": "C3",
          "ticks": 178080,
          "time": 352.740771,
          "velocity": 0.8818897637795275
        },
        {
          "duration": 0.18364203958333292,
          "durationTicks": 119,
          "midi": 65,
          "name": "F4",
          "ticks": 178200,
          "time": 352.92595625,
          "velocity": 0.8818897637795275
        },
        {
          "duration": 0.09104941458332405,
          "durationTicks": 59,
          "midi": 64,
          "name": "E4",
          "ticks": 178320,
          "time": 353.11114150000003,
          "velocity": 0.8818897637795275
        },
        {
          "duration": 0.09104941458332405,
          "durationTicks": 59,
          "midi": 62,
          "name": "D4",
          "ticks": 178440,
          "time": 353.29632675,
          "velocity": 0.8818897637795275
        },
        {
          "duration": 0.18364203958333292,
          "durationTicks": 119,
          "midi": 60,
          "name": "C4",
          "ticks": 178560,
          "time": 353.481512,
          "velocity": 0.8818897637795275
        },
        {
          "duration": 0.0910494145833809,
          "durationTicks": 59,
          "midi": 67,
          "name": "G4",
          "ticks": 178800,
          "time": 353.8518825,
          "velocity": 0.8818897637795275
        },
        {
          "duration": 0.18364203958333292,
          "durationTicks": 119,
          "midi": 67,
          "name": "G4",
          "ticks": 178920,
          "time": 354.03706775,
          "velocity": 0.8818897637795275
        },
        {
          "duration": 0.36882728958335065,
          "durationTicks": 239,
          "midi": 67,
          "name": "G4",
          "ticks": 179040,
          "time": 354.222253,
          "velocity": 0.8818897637795275
        },
        {
          "duration": 0.18364203958333292,
          "durationTicks": 119,
          "midi": 65,
          "name": "F4",
          "ticks": 179280,
          "time": 354.5926235,
          "velocity": 0.8818897637795275
        },
        {
          "duration": 0.18364203958333292,
          "durationTicks": 119,
          "midi": 64,
          "name": "E4",
          "ticks": 179400,
          "time": 354.77780875,
          "velocity": 0.8818897637795275
        },
        {
          "duration": 0.18364203958333292,
          "durationTicks": 119,
          "midi": 62,
          "name": "D4",
          "ticks": 179520,
          "time": 354.962994,
          "velocity": 0.8818897637795275
        },
        {
          "duration": 0.18364203958333292,
          "durationTicks": 119,
          "midi": 60,
          "name": "C4",
          "ticks": 179640,
          "time": 355.14817925,
          "velocity": 0.8818897637795275
        },
        {
          "duration": 0.18364203958333292,
          "durationTicks": 119,
          "midi": 59,
          "name": "B3",
          "ticks": 179760,
          "time": 355.3333645,
          "velocity": 0.8818897637795275
        },
        {
          "duration": 0.18364203958333292,
          "durationTicks": 119,
          "midi": 57,
          "name": "A3",
          "ticks": 179880,
          "time": 355.51854975000003,
          "velocity": 0.8818897637795275
        },
        {
          "duration": 0.36882728958335065,
          "durationTicks": 239,
          "midi": 48,
          "name": "C3",
          "ticks": 180000,
          "time": 355.703735,
          "velocity": 1
        },
        {
          "duration": 0.36882728958335065,
          "durationTicks": 239,
          "midi": 55,
          "name": "G3",
          "ticks": 180000,
          "time": 355.703735,
          "velocity": 1
        },
        {
          "duration": 0.3688272895832938,
          "durationTicks": 239,
          "midi": 55,
          "name": "G3",
          "ticks": 180240,
          "time": 356.07410550000003,
          "velocity": 1
        },
        {
          "duration": 0.3688272895832938,
          "durationTicks": 239,
          "midi": 60,
          "name": "C4",
          "ticks": 180240,
          "time": 356.07410550000003,
          "velocity": 1
        },
        {
          "duration": 0.3688272895832938,
          "durationTicks": 239,
          "midi": 64,
          "name": "E4",
          "ticks": 180240,
          "time": 356.07410550000003,
          "velocity": 1
        },
        {
          "duration": 0.18364203958333292,
          "durationTicks": 119,
          "midi": 41,
          "name": "F2",
          "ticks": 182040,
          "time": 358.85188425,
          "velocity": 0.8818897637795275
        },
        {
          "duration": 0.09104941458332405,
          "durationTicks": 59,
          "midi": 48,
          "name": "C3",
          "ticks": 182160,
          "time": 359.03706950000003,
          "velocity": 0.8818897637795275
        },
        {
          "duration": 0.09104941458326721,
          "durationTicks": 59,
          "midi": 43,
          "name": "G2",
          "ticks": 182280,
          "time": 359.22225475000005,
          "velocity": 0.8818897637795275
        },
        {
          "duration": 0.09104941458332405,
          "durationTicks": 59,
          "midi": 49,
          "name": "C#3",
          "ticks": 182400,
          "time": 359.40744,
          "velocity": 0.8818897637795275
        },
        {
          "duration": 0.09104941458332405,
          "durationTicks": 59,
          "midi": 44,
          "name": "G#2",
          "ticks": 182520,
          "time": 359.59262525,
          "velocity": 0.8818897637795275
        },
        {
          "duration": 0.0910494145833809,
          "durationTicks": 59,
          "midi": 51,
          "name": "D#3",
          "ticks": 182640,
          "time": 359.7778105,
          "velocity": 0.8818897637795275
        },
        {
          "duration": 0.09104941458332405,
          "durationTicks": 59,
          "midi": 46,
          "name": "A#2",
          "ticks": 182760,
          "time": 359.96299575,
          "velocity": 0.8818897637795275
        },
        {
          "duration": 0.36882728958335065,
          "durationTicks": 239,
          "midi": 36,
          "name": "C2",
          "ticks": 183360,
          "time": 360.888922,
          "velocity": 1
        },
        {
          "duration": 0.36882728958335065,
          "durationTicks": 239,
          "midi": 48,
          "name": "C3",
          "ticks": 183360,
          "time": 360.888922,
          "velocity": 1
        }
      ],
      "endOfTrackTicks": 183600
    }
  ]
}
