{
  "header": {
    "keySignatures": [
      {
        "key": "E",
        "scale": "major",
        "ticks": 0
      },
      {
        "key": "E",
        "scale": "major",
        "ticks": 0
      }
    ],
    "meta": [],
    "name": "Piano\u0000",
    "ppq": 480,
    "tempos": [
      {
        "bpm": 50.99998215000625,
        "ticks": 0
      }
    ],
    "timeSignatures": [
      {
        "ticks": 0,
        "timeSignature": [2, 2],
        "measures": 0
      }
    ]
  },
  "tracks": [
    {
      "channel": 0,
      "controlChanges": {
        "7": [
          {
            "number": 7,
            "ticks": 0,
            "time": 0,
            "value": 0.7874015748031497
          }
        ],
        "10": [
          {
            "number": 10,
            "ticks": 0,
            "time": 0,
            "value": 0.49606299212598426
          }
        ],
        "91": [
          {
            "number": 91,
            "ticks": 0,
            "time": 0,
            "value": 0
          }
        ],
        "93": [
          {
            "number": 93,
            "ticks": 0,
            "time": 0,
            "value": 0
          }
        ],
        "121": [
          {
            "number": 121,
            "ticks": 0,
            "time": 0,
            "value": 0
          }
        ]
      },
      "pitchBends": [],
      "instrument": {
        "family": "piano",
        "name": "acoustic grand piano",
        "number": 0
      },
      "name": "Piano\u0000",
      "notes": [
        {
          "duration": 0.38970601875,
          "durationTicks": 159,
          "midi": 56,
          "name": "G#3",
          "ticks": 0,
          "time": 0,
          "velocity": 0.6299212598425197
        },
        {
          "duration": 0.38970601875,
          "durationTicks": 159,
          "midi": 61,
          "name": "C#4",
          "ticks": 160,
          "time": 0.392157,
          "velocity": 0.6299212598425197
        },
        {
          "duration": 0.3897060187500001,
          "durationTicks": 159,
          "midi": 64,
          "name": "E4",
          "ticks": 320,
          "time": 0.784314,
          "velocity": 0.6299212598425197
        },
        {
          "duration": 0.3897060187500001,
          "durationTicks": 159,
          "midi": 56,
          "name": "G#3",
          "ticks": 480,
          "time": 1.176471,
          "velocity": 0.6299212598425197
        },
        {
          "duration": 0.3897060187500001,
          "durationTicks": 159,
          "midi": 61,
          "name": "C#4",
          "ticks": 640,
          "time": 1.568628,
          "velocity": 0.6299212598425197
        },
        {
          "duration": 0.3897060187499999,
          "durationTicks": 159,
          "midi": 64,
          "name": "E4",
          "ticks": 800,
          "time": 1.9607850000000002,
          "velocity": 0.6299212598425197
        },
        {
          "duration": 0.38970601874999966,
          "durationTicks": 159,
          "midi": 56,
          "name": "G#3",
          "ticks": 960,
          "time": 2.352942,
          "velocity": 0.6299212598425197
        },
        {
          "duration": 0.3897060187500001,
          "durationTicks": 159,
          "midi": 61,
          "name": "C#4",
          "ticks": 1120,
          "time": 2.745099,
          "velocity": 0.6299212598425197
        },
        {
          "duration": 0.38970601875000055,
          "durationTicks": 159,
          "midi": 64,
          "name": "E4",
          "ticks": 1280,
          "time": 3.137256,
          "velocity": 0.6299212598425197
        },
        {
          "duration": 0.3897060187500001,
          "durationTicks": 159,
          "midi": 56,
          "name": "G#3",
          "ticks": 1440,
          "time": 3.529413,
          "velocity": 0.6299212598425197
        },
        {
          "duration": 0.38970601874999966,
          "durationTicks": 159,
          "midi": 61,
          "name": "C#4",
          "ticks": 1600,
          "time": 3.9215700000000004,
          "velocity": 0.6299212598425197
        },
        {
          "duration": 0.3897060187500001,
          "durationTicks": 159,
          "midi": 64,
          "name": "E4",
          "ticks": 1760,
          "time": 4.313727,
          "velocity": 0.6299212598425197
        },
        {
          "duration": 0.3897060187500001,
          "durationTicks": 159,
          "midi": 56,
          "name": "G#3",
          "ticks": 1920,
          "time": 4.705884,
          "velocity": 0.6299212598425197
        },
        {
          "duration": 0.3897060187500001,
          "durationTicks": 159,
          "midi": 61,
          "name": "C#4",
          "ticks": 2080,
          "time": 5.098041,
          "velocity": 0.6299212598425197
        },
        {
          "duration": 0.3897060187500001,
          "durationTicks": 159,
          "midi": 64,
          "name": "E4",
          "ticks": 2240,
          "time": 5.490198,
          "velocity": 0.6299212598425197
        },
        {
          "duration": 0.3897060187499992,
          "durationTicks": 159,
          "midi": 56,
          "name": "G#3",
          "ticks": 2400,
          "time": 5.8823550000000004,
          "velocity": 0.6299212598425197
        },
        {
          "duration": 0.389706018750001,
          "durationTicks": 159,
          "midi": 61,
          "name": "C#4",
          "ticks": 2560,
          "time": 6.274512,
          "velocity": 0.6299212598425197
        },
        {
          "duration": 0.3897060187500001,
          "durationTicks": 159,
          "midi": 64,
          "name": "E4",
          "ticks": 2720,
          "time": 6.666669000000001,
          "velocity": 0.6299212598425197
        },
        {
          "duration": 0.3897060187500001,
          "durationTicks": 159,
          "midi": 56,
          "name": "G#3",
          "ticks": 2880,
          "time": 7.058826,
          "velocity": 0.6299212598425197
        },
        {
          "duration": 0.389706018750001,
          "durationTicks": 159,
          "midi": 61,
          "name": "C#4",
          "ticks": 3040,
          "time": 7.450983,
          "velocity": 0.6299212598425197
        },
        {
          "duration": 0.3897060187500001,
          "durationTicks": 159,
          "midi": 64,
          "name": "E4",
          "ticks": 3200,
          "time": 7.843140000000001,
          "velocity": 0.6299212598425197
        },
        {
          "duration": 0.3897060187499992,
          "durationTicks": 159,
          "midi": 56,
          "name": "G#3",
          "ticks": 3360,
          "time": 8.235297000000001,
          "velocity": 0.6299212598425197
        },
        {
          "duration": 0.389706018750001,
          "durationTicks": 159,
          "midi": 61,
          "name": "C#4",
          "ticks": 3520,
          "time": 8.627454,
          "velocity": 0.6299212598425197
        },
        {
          "duration": 0.3897060187499992,
          "durationTicks": 159,
          "midi": 64,
          "name": "E4",
          "ticks": 3680,
          "time": 9.019611000000001,
          "velocity": 0.6299212598425197
        },
        {
          "duration": 0.389706018750001,
          "durationTicks": 159,
          "midi": 57,
          "name": "A3",
          "ticks": 3840,
          "time": 9.411768,
          "velocity": 0.6299212598425197
        },
        {
          "duration": 0.3897060187499992,
          "durationTicks": 159,
          "midi": 61,
          "name": "C#4",
          "ticks": 4000,
          "time": 9.803925000000001,
          "velocity": 0.6299212598425197
        },
        {
          "duration": 0.3897060187499992,
          "durationTicks": 159,
          "midi": 64,
          "name": "E4",
          "ticks": 4160,
          "time": 10.196082,
          "velocity": 0.6299212598425197
        },
        {
          "duration": 0.389706018750001,
          "durationTicks": 159,
          "midi": 57,
          "name": "A3",
          "ticks": 4320,
          "time": 10.588239,
          "velocity": 0.6299212598425197
        },
        {
          "duration": 0.3897060187499992,
          "durationTicks": 159,
          "midi": 61,
          "name": "C#4",
          "ticks": 4480,
          "time": 10.980396,
          "velocity": 0.6299212598425197
        },
        {
          "duration": 0.389706018750001,
          "durationTicks": 159,
          "midi": 64,
          "name": "E4",
          "ticks": 4640,
          "time": 11.372553,
          "velocity": 0.6299212598425197
        },
        {
          "duration": 0.389706018750001,
          "durationTicks": 159,
          "midi": 57,
          "name": "A3",
          "ticks": 4800,
          "time": 11.764710000000001,
          "velocity": 0.6299212598425197
        },
        {
          "duration": 0.38970601874999744,
          "durationTicks": 159,
          "midi": 62,
          "name": "D4",
          "ticks": 4960,
          "time": 12.156867000000002,
          "velocity": 0.6299212598425197
        },
        {
          "duration": 0.389706018750001,
          "durationTicks": 159,
          "midi": 66,
          "name": "F#4",
          "ticks": 5120,
          "time": 12.549024,
          "velocity": 0.6299212598425197
        },
        {
          "duration": 0.389706018750001,
          "durationTicks": 159,
          "midi": 57,
          "name": "A3",
          "ticks": 5280,
          "time": 12.941181,
          "velocity": 0.6299212598425197
        },
        {
          "duration": 0.3897060187499992,
          "durationTicks": 159,
          "midi": 62,
          "name": "D4",
          "ticks": 5440,
          "time": 13.333338000000001,
          "velocity": 0.6299212598425197
        },
        {
          "duration": 0.389706018750001,
          "durationTicks": 159,
          "midi": 66,
          "name": "F#4",
          "ticks": 5600,
          "time": 13.725495,
          "velocity": 0.6299212598425197
        },
        {
          "duration": 0.389706018750001,
          "durationTicks": 159,
          "midi": 56,
          "name": "G#3",
          "ticks": 5760,
          "time": 14.117652,
          "velocity": 0.6299212598425197
        },
        {
          "duration": 0.3897060187499992,
          "durationTicks": 159,
          "midi": 60,
          "name": "C4",
          "ticks": 5920,
          "time": 14.509809,
          "velocity": 0.6299212598425197
        },
        {
          "duration": 0.389706018750001,
          "durationTicks": 159,
          "midi": 66,
          "name": "F#4",
          "ticks": 6080,
          "time": 14.901966,
          "velocity": 0.6299212598425197
        },
        {
          "duration": 0.389706018750001,
          "durationTicks": 159,
          "midi": 56,
          "name": "G#3",
          "ticks": 6240,
          "time": 15.294123,
          "velocity": 0.6299212598425197
        },
        {
          "duration": 0.3897060187499992,
          "durationTicks": 159,
          "midi": 61,
          "name": "C#4",
          "ticks": 6400,
          "time": 15.686280000000002,
          "velocity": 0.6299212598425197
        },
        {
          "duration": 0.389706018750001,
          "durationTicks": 159,
          "midi": 64,
          "name": "E4",
          "ticks": 6560,
          "time": 16.078437,
          "velocity": 0.6299212598425197
        },
        {
          "duration": 0.389706018750001,
          "durationTicks": 159,
          "midi": 56,
          "name": "G#3",
          "ticks": 6720,
          "time": 16.470594000000002,
          "velocity": 0.6299212598425197
        },
        {
          "duration": 0.38970601874999744,
          "durationTicks": 159,
          "midi": 61,
          "name": "C#4",
          "ticks": 6880,
          "time": 16.862751000000003,
          "velocity": 0.6299212598425197
        },
        {
          "duration": 0.389706018750001,
          "durationTicks": 159,
          "midi": 63,
          "name": "D#4",
          "ticks": 7040,
          "time": 17.254908,
          "velocity": 0.6299212598425197
        },
        {
          "duration": 0.389706018750001,
          "durationTicks": 159,
          "midi": 54,
          "name": "F#3",
          "ticks": 7200,
          "time": 17.647065,
          "velocity": 0.6299212598425197
        },
        {
          "duration": 0.38970601874999744,
          "durationTicks": 159,
          "midi": 60,
          "name": "C4",
          "ticks": 7360,
          "time": 18.039222000000002,
          "velocity": 0.6299212598425197
        },
        {
          "duration": 0.389706018750001,
          "durationTicks": 159,
          "midi": 63,
          "name": "D#4",
          "ticks": 7520,
          "time": 18.431379,
          "velocity": 0.6299212598425197
        },
        {
          "duration": 0.389706018750001,
          "durationTicks": 159,
          "midi": 56,
          "name": "G#3",
          "ticks": 8160,
          "time": 20.000007,
          "velocity": 0.6299212598425197
        },
        {
          "duration": 0.38970601874999744,
          "durationTicks": 159,
          "midi": 61,
          "name": "C#4",
          "ticks": 8320,
          "time": 20.392164,
          "velocity": 0.6299212598425197
        },
        {
          "duration": 0.38970601874999744,
          "durationTicks": 159,
          "midi": 64,
          "name": "E4",
          "ticks": 8480,
          "time": 20.784321000000002,
          "velocity": 0.6299212598425197
        },
        {
          "duration": 0.389706018750001,
          "durationTicks": 159,
          "midi": 56,
          "name": "G#3",
          "ticks": 8640,
          "time": 21.176478,
          "velocity": 0.6299212598425197
        },
        {
          "duration": 0.389706018750001,
          "durationTicks": 159,
          "midi": 61,
          "name": "C#4",
          "ticks": 8800,
          "time": 21.568635,
          "velocity": 0.6299212598425197
        },
        {
          "duration": 0.38970601874999744,
          "durationTicks": 159,
          "midi": 64,
          "name": "E4",
          "ticks": 8960,
          "time": 21.960792,
          "velocity": 0.6299212598425197
        },
        {
          "duration": 0.8799022687499978,
          "durationTicks": 359,
          "midi": 68,
          "name": "G#4",
          "ticks": 9120,
          "time": 22.352949000000002,
          "velocity": 0.6299212598425197
        },
        {
          "duration": 0.389706018750001,
          "durationTicks": 159,
          "midi": 56,
          "name": "G#3",
          "ticks": 9120,
          "time": 22.352949000000002,
          "velocity": 0.6299212598425197
        },
        {
          "duration": 0.389706018750001,
          "durationTicks": 159,
          "midi": 61,
          "name": "C#4",
          "ticks": 9280,
          "time": 22.745106,
          "velocity": 0.6299212598425197
        },
        {
          "duration": 0.38970601874999744,
          "durationTicks": 159,
          "midi": 64,
          "name": "E4",
          "ticks": 9440,
          "time": 23.137263,
          "velocity": 0.6299212598425197
        },
        {
          "duration": 0.2916667687499981,
          "durationTicks": 119,
          "midi": 68,
          "name": "G#4",
          "ticks": 9480,
          "time": 23.23530225,
          "velocity": 0.6299212598425197
        },
        {
          "duration": 3.526962018749998,
          "durationTicks": 1439,
          "midi": 68,
          "name": "G#4",
          "ticks": 9600,
          "time": 23.529420000000002,
          "velocity": 0.6299212598425197
        },
        {
          "duration": 0.389706018750001,
          "durationTicks": 159,
          "midi": 56,
          "name": "G#3",
          "ticks": 9600,
          "time": 23.529420000000002,
          "velocity": 0.6299212598425197
        },
        {
          "duration": 0.389706018750001,
          "durationTicks": 159,
          "midi": 63,
          "name": "D#4",
          "ticks": 9760,
          "time": 23.921577,
          "velocity": 0.6299212598425197
        },
        {
          "duration": 0.3897060187499939,
          "durationTicks": 159,
          "midi": 66,
          "name": "F#4",
          "ticks": 9920,
          "time": 24.313734000000004,
          "velocity": 0.6299212598425197
        },
        {
          "duration": 0.389706018750001,
          "durationTicks": 159,
          "midi": 56,
          "name": "G#3",
          "ticks": 10080,
          "time": 24.705891,
          "velocity": 0.6299212598425197
        },
        {
          "duration": 0.389706018750001,
          "durationTicks": 159,
          "midi": 63,
          "name": "D#4",
          "ticks": 10240,
          "time": 25.098048,
          "velocity": 0.6299212598425197
        },
        {
          "duration": 0.38970601874999744,
          "durationTicks": 159,
          "midi": 66,
          "name": "F#4",
          "ticks": 10400,
          "time": 25.490205000000003,
          "velocity": 0.6299212598425197
        },
        {
          "duration": 0.389706018750001,
          "durationTicks": 159,
          "midi": 56,
          "name": "G#3",
          "ticks": 10560,
          "time": 25.882362,
          "velocity": 0.6299212598425197
        },
        {
          "duration": 0.389706018750001,
          "durationTicks": 159,
          "midi": 63,
          "name": "D#4",
          "ticks": 10720,
          "time": 26.274518999999998,
          "velocity": 0.6299212598425197
        },
        {
          "duration": 0.38970601874999744,
          "durationTicks": 159,
          "midi": 66,
          "name": "F#4",
          "ticks": 10880,
          "time": 26.666676000000002,
          "velocity": 0.6299212598425197
        },
        {
          "duration": 0.8799022687499978,
          "durationTicks": 359,
          "midi": 68,
          "name": "G#4",
          "ticks": 11040,
          "time": 27.058833,
          "velocity": 0.6299212598425197
        },
        {
          "duration": 0.389706018750001,
          "durationTicks": 159,
          "midi": 56,
          "name": "G#3",
          "ticks": 11040,
          "time": 27.058833,
          "velocity": 0.6299212598425197
        },
        {
          "duration": 0.389706018750001,
          "durationTicks": 159,
          "midi": 63,
          "name": "D#4",
          "ticks": 11200,
          "time": 27.45099,
          "velocity": 0.6299212598425197
        },
        {
          "duration": 0.38970601874999744,
          "durationTicks": 159,
          "midi": 66,
          "name": "F#4",
          "ticks": 11360,
          "time": 27.843147000000002,
          "velocity": 0.6299212598425197
        },
        {
          "duration": 0.2916667687499981,
          "durationTicks": 119,
          "midi": 68,
          "name": "G#4",
          "ticks": 11400,
          "time": 27.94118625,
          "velocity": 0.6299212598425197
        },
        {
          "duration": 2.3504910187499988,
          "durationTicks": 959,
          "midi": 68,
          "name": "G#4",
          "ticks": 11520,
          "time": 28.235304,
          "velocity": 0.6299212598425197
        },
        {
          "duration": 0.389706018750001,
          "durationTicks": 159,
          "midi": 56,
          "name": "G#3",
          "ticks": 11520,
          "time": 28.235304,
          "velocity": 0.6299212598425197
        },
        {
          "duration": 0.389706018750001,
          "durationTicks": 159,
          "midi": 61,
          "name": "C#4",
          "ticks": 11680,
          "time": 28.627461,
          "velocity": 0.6299212598425197
        },
        {
          "duration": 0.38970601874999744,
          "durationTicks": 159,
          "midi": 64,
          "name": "E4",
          "ticks": 11840,
          "time": 29.019618,
          "velocity": 0.6299212598425197
        },
        {
          "duration": 0.389706018750001,
          "durationTicks": 159,
          "midi": 56,
          "name": "G#3",
          "ticks": 12000,
          "time": 29.411775000000002,
          "velocity": 0.6299212598425197
        },
        {
          "duration": 0.389706018750001,
          "durationTicks": 159,
          "midi": 61,
          "name": "C#4",
          "ticks": 12160,
          "time": 29.803932,
          "velocity": 0.6299212598425197
        },
        {
          "duration": 0.3897060187499939,
          "durationTicks": 159,
          "midi": 64,
          "name": "E4",
          "ticks": 12320,
          "time": 30.196089000000004,
          "velocity": 0.6299212598425197
        },
        {
          "duration": 2.350491018749995,
          "durationTicks": 959,
          "midi": 69,
          "name": "A4",
          "ticks": 12480,
          "time": 30.588246,
          "velocity": 0.6299212598425197
        },
        {
          "duration": 0.389706018750001,
          "durationTicks": 159,
          "midi": 57,
          "name": "A3",
          "ticks": 12480,
          "time": 30.588246,
          "velocity": 0.6299212598425197
        },
        {
          "duration": 0.389706018750001,
          "durationTicks": 159,
          "midi": 61,
          "name": "C#4",
          "ticks": 12640,
          "time": 30.980403,
          "velocity": 0.6299212598425197
        },
        {
          "duration": 0.38970601874999744,
          "durationTicks": 159,
          "midi": 66,
          "name": "F#4",
          "ticks": 12800,
          "time": 31.372560000000004,
          "velocity": 0.6299212598425197
        },
        {
          "duration": 0.389706018750001,
          "durationTicks": 159,
          "midi": 57,
          "name": "A3",
          "ticks": 12960,
          "time": 31.764717,
          "velocity": 0.6299212598425197
        },
        {
          "duration": 0.38970601874999744,
          "durationTicks": 159,
          "midi": 61,
          "name": "C#4",
          "ticks": 13120,
          "time": 32.156874,
          "velocity": 0.6299212598425197
        },
        {
          "duration": 0.38970601874999744,
          "durationTicks": 159,
          "midi": 66,
          "name": "F#4",
          "ticks": 13280,
          "time": 32.549031,
          "velocity": 0.6299212598425197
        },
        {
          "duration": 2.3504910187499988,
          "durationTicks": 959,
          "midi": 68,
          "name": "G#4",
          "ticks": 13440,
          "time": 32.941188000000004,
          "velocity": 0.6299212598425197
        },
        {
          "duration": 0.38970601874999744,
          "durationTicks": 159,
          "midi": 56,
          "name": "G#3",
          "ticks": 13440,
          "time": 32.941188000000004,
          "velocity": 0.6299212598425197
        },
        {
          "duration": 0.38970601874999744,
          "durationTicks": 159,
          "midi": 59,
          "name": "B3",
          "ticks": 13600,
          "time": 33.333345,
          "velocity": 0.6299212598425197
        },
        {
          "duration": 0.38970601874999033,
          "durationTicks": 159,
          "midi": 64,
          "name": "E4",
          "ticks": 13760,
          "time": 33.725502000000006,
          "velocity": 0.6299212598425197
        },
        {
          "duration": 0.38970601874999744,
          "durationTicks": 159,
          "midi": 56,
          "name": "G#3",
          "ticks": 13920,
          "time": 34.117659,
          "velocity": 0.6299212598425197
        },
        {
          "duration": 0.38970601874999744,
          "durationTicks": 159,
          "midi": 59,
          "name": "B3",
          "ticks": 14080,
          "time": 34.509816,
          "velocity": 0.6299212598425197
        },
        {
          "duration": 0.38970601874999744,
          "durationTicks": 159,
          "midi": 64,
          "name": "E4",
          "ticks": 14240,
          "time": 34.901973000000005,
          "velocity": 0.6299212598425197
        },
        {
          "duration": 1.1740200187499994,
          "durationTicks": 479,
          "midi": 66,
          "name": "F#4",
          "ticks": 14400,
          "time": 35.29413,
          "velocity": 0.6299212598425197
        },
        {
          "duration": 0.38970601874999744,
          "durationTicks": 159,
          "midi": 57,
          "name": "A3",
          "ticks": 14400,
          "time": 35.29413,
          "velocity": 0.6299212598425197
        },
        {
          "duration": 0.38970601874999744,
          "durationTicks": 159,
          "midi": 59,
          "name": "B3",
          "ticks": 14560,
          "time": 35.686287,
          "velocity": 0.6299212598425197
        },
        {
          "duration": 0.38970601874999744,
          "durationTicks": 159,
          "midi": 63,
          "name": "D#4",
          "ticks": 14720,
          "time": 36.078444000000005,
          "velocity": 0.6299212598425197
        },
        {
          "duration": 1.1740200187499994,
          "durationTicks": 479,
          "midi": 71,
          "name": "B4",
          "ticks": 14880,
          "time": 36.470601,
          "velocity": 0.6299212598425197
        },
        {
          "duration": 0.38970601874999744,
          "durationTicks": 159,
          "midi": 57,
          "name": "A3",
          "ticks": 14880,
          "time": 36.470601,
          "velocity": 0.6299212598425197
        },
        {
          "duration": 0.38970601875000455,
          "durationTicks": 159,
          "midi": 59,
          "name": "B3",
          "ticks": 15040,
          "time": 36.862758,
          "velocity": 0.6299212598425197
        },
        {
          "duration": 0.38970601874999744,
          "durationTicks": 159,
          "midi": 63,
          "name": "D#4",
          "ticks": 15200,
          "time": 37.254915000000004,
          "velocity": 0.6299212598425197
        },
        {
          "duration": 0.7843139999999948,
          "durationTicks": 320,
          "midi": 64,
          "name": "E4",
          "ticks": 15360,
          "time": 37.647072,
          "velocity": 0.6299212598425197
        },
        {
          "duration": 0.38970601874999744,
          "durationTicks": 159,
          "midi": 56,
          "name": "G#3",
          "ticks": 15360,
          "time": 37.647072,
          "velocity": 0.6299212598425197
        },
        {
          "duration": 0.38970601874999744,
          "durationTicks": 159,
          "midi": 59,
          "name": "B3",
          "ticks": 15520,
          "time": 38.039229000000006,
          "velocity": 0.6299212598425197
        },
        {
          "duration": 0.38970601875000455,
          "durationTicks": 159,
          "midi": 64,
          "name": "E4",
          "ticks": 15680,
          "time": 38.431385999999996,
          "velocity": 0.6299212598425197
        },
        {
          "duration": 0.38970601874999744,
          "durationTicks": 159,
          "midi": 56,
          "name": "G#3",
          "ticks": 15840,
          "time": 38.823543,
          "velocity": 0.6299212598425197
        },
        {
          "duration": 0.38970601874999744,
          "durationTicks": 159,
          "midi": 59,
          "name": "B3",
          "ticks": 16000,
          "time": 39.215700000000005,
          "velocity": 0.6299212598425197
        },
        {
          "duration": 0.38970601875000455,
          "durationTicks": 159,
          "midi": 64,
          "name": "E4",
          "ticks": 16160,
          "time": 39.607856999999996,
          "velocity": 0.6299212598425197
        },
        {
          "duration": 0.38970601874999744,
          "durationTicks": 159,
          "midi": 56,
          "name": "G#3",
          "ticks": 16320,
          "time": 40.000014,
          "velocity": 0.6299212598425197
        },
        {
          "duration": 0.38970601874999744,
          "durationTicks": 159,
          "midi": 59,
          "name": "B3",
          "ticks": 16480,
          "time": 40.392171000000005,
          "velocity": 0.6299212598425197
        },
        {
          "duration": 0.38970601875000455,
          "durationTicks": 159,
          "midi": 64,
          "name": "E4",
          "ticks": 16640,
          "time": 40.784328,
          "velocity": 0.6299212598425197
        },
        {
          "duration": 0.38970601874999744,
          "durationTicks": 159,
          "midi": 56,
          "name": "G#3",
          "ticks": 16800,
          "time": 41.176485,
          "velocity": 0.6299212598425197
        },
        {
          "duration": 0.38970601874999744,
          "durationTicks": 159,
          "midi": 59,
          "name": "B3",
          "ticks": 16960,
          "time": 41.568642000000004,
          "velocity": 0.6299212598425197
        },
        {
          "duration": 0.38970601875000455,
          "durationTicks": 159,
          "midi": 64,
          "name": "E4",
          "ticks": 17120,
          "time": 41.960799,
          "velocity": 0.6299212598425197
        },
        {
          "duration": 0.38970601874999744,
          "durationTicks": 159,
          "midi": 55,
          "name": "G3",
          "ticks": 17280,
          "time": 42.352956,
          "velocity": 0.6299212598425197
        },
        {
          "duration": 0.38970601874999744,
          "durationTicks": 159,
          "midi": 59,
          "name": "B3",
          "ticks": 17440,
          "time": 42.745113,
          "velocity": 0.6299212598425197
        },
        {
          "duration": 0.38970601875000455,
          "durationTicks": 159,
          "midi": 64,
          "name": "E4",
          "ticks": 17600,
          "time": 43.13727,
          "velocity": 0.6299212598425197
        },
        {
          "duration": 0.38970601874999744,
          "durationTicks": 159,
          "midi": 55,
          "name": "G3",
          "ticks": 17760,
          "time": 43.529427,
          "velocity": 0.6299212598425197
        },
        {
          "duration": 0.38970601874999744,
          "durationTicks": 159,
          "midi": 59,
          "name": "B3",
          "ticks": 17920,
          "time": 43.921584,
          "velocity": 0.6299212598425197
        },
        {
          "duration": 0.38970601875000455,
          "durationTicks": 159,
          "midi": 64,
          "name": "E4",
          "ticks": 18080,
          "time": 44.313741,
          "velocity": 0.6299212598425197
        },
        {
          "duration": 0.38970601874999033,
          "durationTicks": 159,
          "midi": 55,
          "name": "G3",
          "ticks": 18240,
          "time": 44.705898000000005,
          "velocity": 0.6299212598425197
        },
        {
          "duration": 0.38970601874999744,
          "durationTicks": 159,
          "midi": 59,
          "name": "B3",
          "ticks": 18400,
          "time": 45.098055,
          "velocity": 0.6299212598425197
        },
        {
          "duration": 0.38970601875000455,
          "durationTicks": 159,
          "midi": 64,
          "name": "E4",
          "ticks": 18560,
          "time": 45.490212,
          "velocity": 0.6299212598425197
        },
        {
          "duration": 0.8799022687500013,
          "durationTicks": 359,
          "midi": 67,
          "name": "G4",
          "ticks": 18720,
          "time": 45.882369000000004,
          "velocity": 0.6299212598425197
        },
        {
          "duration": 0.38970601874999744,
          "durationTicks": 159,
          "midi": 55,
          "name": "G3",
          "ticks": 18720,
          "time": 45.882369000000004,
          "velocity": 0.6299212598425197
        },
        {
          "duration": 0.38970601874999744,
          "durationTicks": 159,
          "midi": 59,
          "name": "B3",
          "ticks": 18880,
          "time": 46.274526,
          "velocity": 0.6299212598425197
        },
        {
          "duration": 0.38970601875000455,
          "durationTicks": 159,
          "midi": 64,
          "name": "E4",
          "ticks": 19040,
          "time": 46.666683,
          "velocity": 0.6299212598425197
        },
        {
          "duration": 0.2916667687500052,
          "durationTicks": 119,
          "midi": 67,
          "name": "G4",
          "ticks": 19080,
          "time": 46.76472225,
          "velocity": 0.6299212598425197
        },
        {
          "duration": 3.526962018749998,
          "durationTicks": 1439,
          "midi": 67,
          "name": "G4",
          "ticks": 19200,
          "time": 47.058840000000004,
          "velocity": 0.6299212598425197
        },
        {
          "duration": 0.38970601874999744,
          "durationTicks": 159,
          "midi": 55,
          "name": "G3",
          "ticks": 19200,
          "time": 47.058840000000004,
          "velocity": 0.6299212598425197
        },
        {
          "duration": 0.38970601874999033,
          "durationTicks": 159,
          "midi": 59,
          "name": "B3",
          "ticks": 19360,
          "time": 47.45099700000001,
          "velocity": 0.6299212598425197
        },
        {
          "duration": 0.38970601875000455,
          "durationTicks": 159,
          "midi": 65,
          "name": "F4",
          "ticks": 19520,
          "time": 47.843154,
          "velocity": 0.6299212598425197
        },
        {
          "duration": 0.38970601874999744,
          "durationTicks": 159,
          "midi": 55,
          "name": "G3",
          "ticks": 19680,
          "time": 48.235311,
          "velocity": 0.6299212598425197
        },
        {
          "duration": 0.38970601874999033,
          "durationTicks": 159,
          "midi": 59,
          "name": "B3",
          "ticks": 19840,
          "time": 48.62746800000001,
          "velocity": 0.6299212598425197
        },
        {
          "duration": 0.38970601875000455,
          "durationTicks": 159,
          "midi": 65,
          "name": "F4",
          "ticks": 20000,
          "time": 49.019625,
          "velocity": 0.6299212598425197
        },
        {
          "duration": 0.38970601874999744,
          "durationTicks": 159,
          "midi": 55,
          "name": "G3",
          "ticks": 20160,
          "time": 49.411782,
          "velocity": 0.6299212598425197
        },
        {
          "duration": 0.38970601874999744,
          "durationTicks": 159,
          "midi": 59,
          "name": "B3",
          "ticks": 20320,
          "time": 49.80393900000001,
          "velocity": 0.6299212598425197
        },
        {
          "duration": 0.38970601875000455,
          "durationTicks": 159,
          "midi": 65,
          "name": "F4",
          "ticks": 20480,
          "time": 50.196096,
          "velocity": 0.6299212598425197
        },
        {
          "duration": 0.8799022687500013,
          "durationTicks": 359,
          "midi": 67,
          "name": "G4",
          "ticks": 20640,
          "time": 50.588253,
          "velocity": 0.6299212598425197
        },
        {
          "duration": 0.38970601874999744,
          "durationTicks": 159,
          "midi": 55,
          "name": "G3",
          "ticks": 20640,
          "time": 50.588253,
          "velocity": 0.6299212598425197
        },
        {
          "duration": 0.38970601874999744,
          "durationTicks": 159,
          "midi": 59,
          "name": "B3",
          "ticks": 20800,
          "time": 50.980410000000006,
          "velocity": 0.6299212598425197
        },
        {
          "duration": 0.38970601875000455,
          "durationTicks": 159,
          "midi": 65,
          "name": "F4",
          "ticks": 20960,
          "time": 51.372567,
          "velocity": 0.6299212598425197
        },
        {
          "duration": 0.2916667687499981,
          "durationTicks": 119,
          "midi": 67,
          "name": "G4",
          "ticks": 21000,
          "time": 51.47060625,
          "velocity": 0.6299212598425197
        },
        {
          "duration": 3.5269620187500053,
          "durationTicks": 1439,
          "midi": 67,
          "name": "G4",
          "ticks": 21120,
          "time": 51.764724,
          "velocity": 0.6299212598425197
        },
        {
          "duration": 0.38970601874999744,
          "durationTicks": 159,
          "midi": 55,
          "name": "G3",
          "ticks": 21120,
          "time": 51.764724,
          "velocity": 0.6299212598425197
        },
        {
          "duration": 0.38970601874999744,
          "durationTicks": 159,
          "midi": 60,
          "name": "C4",
          "ticks": 21280,
          "time": 52.156881000000006,
          "velocity": 0.6299212598425197
        },
        {
          "duration": 0.38970601875001165,
          "durationTicks": 159,
          "midi": 64,
          "name": "E4",
          "ticks": 21440,
          "time": 52.549037999999996,
          "velocity": 0.6299212598425197
        },
        {
          "duration": 0.38970601874999744,
          "durationTicks": 159,
          "midi": 55,
          "name": "G3",
          "ticks": 21600,
          "time": 52.941195,
          "velocity": 0.6299212598425197
        },
        {
          "duration": 0.38970601874999744,
          "durationTicks": 159,
          "midi": 59,
          "name": "B3",
          "ticks": 21760,
          "time": 53.333352000000005,
          "velocity": 0.6299212598425197
        },
        {
          "duration": 0.38970601875000455,
          "durationTicks": 159,
          "midi": 64,
          "name": "E4",
          "ticks": 21920,
          "time": 53.725509,
          "velocity": 0.6299212598425197
        },
        {
          "duration": 0.38970601874999744,
          "durationTicks": 159,
          "midi": 55,
          "name": "G3",
          "ticks": 22080,
          "time": 54.117666,
          "velocity": 0.6299212598425197
        },
        {
          "duration": 0.38970601874999744,
          "durationTicks": 159,
          "midi": 61,
          "name": "C#4",
          "ticks": 22240,
          "time": 54.509823000000004,
          "velocity": 0.6299212598425197
        },
        {
          "duration": 0.38970601875000455,
          "durationTicks": 159,
          "midi": 64,
          "name": "E4",
          "ticks": 22400,
          "time": 54.90198,
          "velocity": 0.6299212598425197
        },
        {
          "duration": 1.1740200187500065,
          "durationTicks": 479,
          "midi": 66,
          "name": "F#4",
          "ticks": 22560,
          "time": 55.294137,
          "velocity": 0.6299212598425197
        },
        {
          "duration": 2.350491018750006,
          "durationTicks": 959,
          "midi": 66,
          "name": "F#4",
          "ticks": 23040,
          "time": 56.470608,
          "velocity": 0.6299212598425197
        },
        {
          "duration": 1.1740200187499994,
          "durationTicks": 479,
          "midi": 67,
          "name": "G4",
          "ticks": 24000,
          "time": 58.823550000000004,
          "velocity": 0.6299212598425197
        },
        {
          "duration": 1.1740200187499994,
          "durationTicks": 479,
          "midi": 64,
          "name": "E4",
          "ticks": 24480,
          "time": 60.000021000000004,
          "velocity": 0.6299212598425197
        },
        {
          "duration": 2.3504910187499988,
          "durationTicks": 959,
          "midi": 66,
          "name": "F#4",
          "ticks": 24960,
          "time": 61.176492,
          "velocity": 0.6299212598425197
        },
        {
          "duration": 2.3504910187499988,
          "durationTicks": 959,
          "midi": 66,
          "name": "F#4",
          "ticks": 25920,
          "time": 63.529434,
          "velocity": 0.6299212598425197
        },
        {
          "duration": 0,
          "durationTicks": 0,
          "midi": 59,
          "name": "B3",
          "ticks": 26880,
          "time": 65.88237600000001,
          "velocity": 0.6299212598425197
        },
        {
          "duration": 1.1740200187499994,
          "durationTicks": 479,
          "midi": 59,
          "name": "B3",
          "ticks": 26880,
          "time": 65.88237600000001,
          "velocity": 0.6299212598425197
        },
        {
          "duration": 0.38970601874999033,
          "durationTicks": 159,
          "midi": 62,
          "name": "D4",
          "ticks": 27040,
          "time": 66.274533,
          "velocity": 0.6299212598425197
        },
        {
          "duration": 0.38970601875000455,
          "durationTicks": 159,
          "midi": 66,
          "name": "F#4",
          "ticks": 27200,
          "time": 66.66669,
          "velocity": 0.6299212598425197
        },
        {
          "duration": 0.38970601875000455,
          "durationTicks": 159,
          "midi": 59,
          "name": "B3",
          "ticks": 27360,
          "time": 67.058847,
          "velocity": 0.6299212598425197
        },
        {
          "duration": 0.38970601874999033,
          "durationTicks": 159,
          "midi": 62,
          "name": "D4",
          "ticks": 27520,
          "time": 67.45100400000001,
          "velocity": 0.6299212598425197
        },
        {
          "duration": 0.38970601875000455,
          "durationTicks": 159,
          "midi": 66,
          "name": "F#4",
          "ticks": 27680,
          "time": 67.843161,
          "velocity": 0.6299212598425197
        },
        {
          "duration": 0.38970601874999033,
          "durationTicks": 159,
          "midi": 59,
          "name": "B3",
          "ticks": 27840,
          "time": 68.235318,
          "velocity": 0.6299212598425197
        },
        {
          "duration": 0.38970601875000455,
          "durationTicks": 159,
          "midi": 63,
          "name": "D#4",
          "ticks": 28000,
          "time": 68.627475,
          "velocity": 0.6299212598425197
        },
        {
          "duration": 0.38970601875000455,
          "durationTicks": 159,
          "midi": 66,
          "name": "F#4",
          "ticks": 28160,
          "time": 69.019632,
          "velocity": 0.6299212598425197
        },
        {
          "duration": 1.1740200187499994,
          "durationTicks": 479,
          "midi": 71,
          "name": "B4",
          "ticks": 28320,
          "time": 69.411789,
          "velocity": 0.6299212598425197
        },
        {
          "duration": 0.38970601875000455,
          "durationTicks": 159,
          "midi": 59,
          "name": "B3",
          "ticks": 28320,
          "time": 69.411789,
          "velocity": 0.6299212598425197
        },
        {
          "duration": 0.38970601874999033,
          "durationTicks": 159,
          "midi": 63,
          "name": "D#4",
          "ticks": 28480,
          "time": 69.80394600000001,
          "velocity": 0.6299212598425197
        },
        {
          "duration": 0.38970601875000455,
          "durationTicks": 159,
          "midi": 66,
          "name": "F#4",
          "ticks": 28640,
          "time": 70.196103,
          "velocity": 0.6299212598425197
        },
        {
          "duration": 3.526962018749998,
          "durationTicks": 1439,
          "midi": 72,
          "name": "C5",
          "ticks": 28800,
          "time": 70.58826,
          "velocity": 0.6299212598425197
        },
        {
          "duration": 0.38970601874999033,
          "durationTicks": 159,
          "midi": 59,
          "name": "B3",
          "ticks": 28800,
          "time": 70.58826,
          "velocity": 0.6299212598425197
        },
        {
          "duration": 0.38970601875000455,
          "durationTicks": 159,
          "midi": 64,
          "name": "E4",
          "ticks": 28960,
          "time": 70.980417,
          "velocity": 0.6299212598425197
        },
        {
          "duration": 0.38970601875000455,
          "durationTicks": 159,
          "midi": 67,
          "name": "G4",
          "ticks": 29120,
          "time": 71.372574,
          "velocity": 0.6299212598425197
        },
        {
          "duration": 0.38970601875000455,
          "durationTicks": 159,
          "midi": 59,
          "name": "B3",
          "ticks": 29280,
          "time": 71.764731,
          "velocity": 0.6299212598425197
        },
        {
          "duration": 0.38970601874999033,
          "durationTicks": 159,
          "midi": 64,
          "name": "E4",
          "ticks": 29440,
          "time": 72.15688800000001,
          "velocity": 0.6299212598425197
        },
        {
          "duration": 0.38970601875000455,
          "durationTicks": 159,
          "midi": 67,
          "name": "G4",
          "ticks": 29600,
          "time": 72.549045,
          "velocity": 0.6299212598425197
        },
        {
          "duration": 0.38970601874999033,
          "durationTicks": 159,
          "midi": 59,
          "name": "B3",
          "ticks": 29760,
          "time": 72.941202,
          "velocity": 0.6299212598425197
        },
        {
          "duration": 0.38970601875000455,
          "durationTicks": 159,
          "midi": 64,
          "name": "E4",
          "ticks": 29920,
          "time": 73.333359,
          "velocity": 0.6299212598425197
        },
        {
          "duration": 0.38970601875000455,
          "durationTicks": 159,
          "midi": 67,
          "name": "G4",
          "ticks": 30080,
          "time": 73.725516,
          "velocity": 0.6299212598425197
        },
        {
          "duration": 1.1740200187500136,
          "durationTicks": 479,
          "midi": 70,
          "name": "A#4",
          "ticks": 30240,
          "time": 74.117673,
          "velocity": 0.6299212598425197
        },
        {
          "duration": 0.38970601875000455,
          "durationTicks": 159,
          "midi": 59,
          "name": "B3",
          "ticks": 30240,
          "time": 74.117673,
          "velocity": 0.6299212598425197
        },
        {
          "duration": 0.38970601874999033,
          "durationTicks": 159,
          "midi": 64,
          "name": "E4",
          "ticks": 30400,
          "time": 74.50983000000001,
          "velocity": 0.6299212598425197
        },
        {
          "duration": 0.38970601875000455,
          "durationTicks": 159,
          "midi": 67,
          "name": "G4",
          "ticks": 30560,
          "time": 74.901987,
          "velocity": 0.6299212598425197
        },
        {
          "duration": 3.526962018749998,
          "durationTicks": 1439,
          "midi": 71,
          "name": "B4",
          "ticks": 30720,
          "time": 75.294144,
          "velocity": 0.6299212598425197
        },
        {
          "duration": 0.38970601874999033,
          "durationTicks": 159,
          "midi": 59,
          "name": "B3",
          "ticks": 30720,
          "time": 75.294144,
          "velocity": 0.6299212598425197
        },
        {
          "duration": 0.38970601875000455,
          "durationTicks": 159,
          "midi": 63,
          "name": "D#4",
          "ticks": 30880,
          "time": 75.686301,
          "velocity": 0.6299212598425197
        },
        {
          "duration": 0.38970601874999033,
          "durationTicks": 159,
          "midi": 66,
          "name": "F#4",
          "ticks": 31040,
          "time": 76.07845800000001,
          "velocity": 0.6299212598425197
        },
        {
          "duration": 0.38970601874999033,
          "durationTicks": 159,
          "midi": 59,
          "name": "B3",
          "ticks": 31200,
          "time": 76.47061500000001,
          "velocity": 0.6299212598425197
        },
        {
          "duration": 0.38970601875001876,
          "durationTicks": 159,
          "midi": 63,
          "name": "D#4",
          "ticks": 31360,
          "time": 76.86277199999999,
          "velocity": 0.6299212598425197
        },
        {
          "duration": 0.38970601875000455,
          "durationTicks": 159,
          "midi": 66,
          "name": "F#4",
          "ticks": 31520,
          "time": 77.254929,
          "velocity": 0.6299212598425197
        },
        {
          "duration": 0.38970601875000455,
          "durationTicks": 159,
          "midi": 59,
          "name": "B3",
          "ticks": 31680,
          "time": 77.647086,
          "velocity": 0.6299212598425197
        },
        {
          "duration": 0.38970601875001876,
          "durationTicks": 159,
          "midi": 63,
          "name": "D#4",
          "ticks": 31840,
          "time": 78.039243,
          "velocity": 0.6299212598425197
        },
        {
          "duration": 0.38970601874999033,
          "durationTicks": 159,
          "midi": 66,
          "name": "F#4",
          "ticks": 32000,
          "time": 78.43140000000001,
          "velocity": 0.6299212598425197
        },
        {
          "duration": 1.1740200187499994,
          "durationTicks": 479,
          "midi": 71,
          "name": "B4",
          "ticks": 32160,
          "time": 78.82355700000001,
          "velocity": 0.6299212598425197
        },
        {
          "duration": 0.38970601874999033,
          "durationTicks": 159,
          "midi": 59,
          "name": "B3",
          "ticks": 32160,
          "time": 78.82355700000001,
          "velocity": 0.6299212598425197
        },
        {
          "duration": 0.38970601875001876,
          "durationTicks": 159,
          "midi": 63,
          "name": "D#4",
          "ticks": 32320,
          "time": 79.21571399999999,
          "velocity": 0.6299212598425197
        },
        {
          "duration": 0.38970601875000455,
          "durationTicks": 159,
          "midi": 66,
          "name": "F#4",
          "ticks": 32480,
          "time": 79.607871,
          "velocity": 0.6299212598425197
        },
        {
          "duration": 3.526962018749998,
          "durationTicks": 1439,
          "midi": 72,
          "name": "C5",
          "ticks": 32640,
          "time": 80.000028,
          "velocity": 0.6299212598425197
        },
        {
          "duration": 0.38970601875000455,
          "durationTicks": 159,
          "midi": 59,
          "name": "B3",
          "ticks": 32640,
          "time": 80.000028,
          "velocity": 0.6299212598425197
        },
        {
          "duration": 0.38970601875001876,
          "durationTicks": 159,
          "midi": 64,
          "name": "E4",
          "ticks": 32800,
          "time": 80.392185,
          "velocity": 0.6299212598425197
        },
        {
          "duration": 0.38970601874999033,
          "durationTicks": 159,
          "midi": 67,
          "name": "G4",
          "ticks": 32960,
          "time": 80.78434200000001,
          "velocity": 0.6299212598425197
        },
        {
          "duration": 0.38970601874999033,
          "durationTicks": 159,
          "midi": 59,
          "name": "B3",
          "ticks": 33120,
          "time": 81.176499,
          "velocity": 0.6299212598425197
        },
        {
          "duration": 0.38970601875000455,
          "durationTicks": 159,
          "midi": 64,
          "name": "E4",
          "ticks": 33280,
          "time": 81.568656,
          "velocity": 0.6299212598425197
        },
        {
          "duration": 0.38970601875000455,
          "durationTicks": 159,
          "midi": 67,
          "name": "G4",
          "ticks": 33440,
          "time": 81.960813,
          "velocity": 0.6299212598425197
        },
        {
          "duration": 0.38970601875000455,
          "durationTicks": 159,
          "midi": 59,
          "name": "B3",
          "ticks": 33600,
          "time": 82.35297,
          "velocity": 0.6299212598425197
        },
        {
          "duration": 0.38970601875001876,
          "durationTicks": 159,
          "midi": 64,
          "name": "E4",
          "ticks": 33760,
          "time": 82.745127,
          "velocity": 0.6299212598425197
        },
        {
          "duration": 0.38970601874999033,
          "durationTicks": 159,
          "midi": 67,
          "name": "G4",
          "ticks": 33920,
          "time": 83.13728400000001,
          "velocity": 0.6299212598425197
        },
        {
          "duration": 1.1740200187499994,
          "durationTicks": 479,
          "midi": 70,
          "name": "A#4",
          "ticks": 34080,
          "time": 83.529441,
          "velocity": 0.6299212598425197
        },
        {
          "duration": 0.38970601874999033,
          "durationTicks": 159,
          "midi": 59,
          "name": "B3",
          "ticks": 34080,
          "time": 83.529441,
          "velocity": 0.6299212598425197
        },
        {
          "duration": 0.38970601875000455,
          "durationTicks": 159,
          "midi": 64,
          "name": "E4",
          "ticks": 34240,
          "time": 83.921598,
          "velocity": 0.6299212598425197
        },
        {
          "duration": 0.38970601874999033,
          "durationTicks": 159,
          "midi": 67,
          "name": "G4",
          "ticks": 34400,
          "time": 84.31375500000001,
          "velocity": 0.6299212598425197
        },
        {
          "duration": 2.350491018750006,
          "durationTicks": 959,
          "midi": 71,
          "name": "B4",
          "ticks": 34560,
          "time": 84.705912,
          "velocity": 0.6299212598425197
        },
        {
          "duration": 0.38970601875000455,
          "durationTicks": 159,
          "midi": 59,
          "name": "B3",
          "ticks": 34560,
          "time": 84.705912,
          "velocity": 0.6299212598425197
        },
        {
          "duration": 0.38970601875001876,
          "durationTicks": 159,
          "midi": 63,
          "name": "D#4",
          "ticks": 34720,
          "time": 85.098069,
          "velocity": 0.6299212598425197
        },
        {
          "duration": 0.38970601875000455,
          "durationTicks": 159,
          "midi": 66,
          "name": "F#4",
          "ticks": 34880,
          "time": 85.490226,
          "velocity": 0.6299212598425197
        },
        {
          "duration": 0.38970601874999033,
          "durationTicks": 159,
          "midi": 59,
          "name": "B3",
          "ticks": 35040,
          "time": 85.882383,
          "velocity": 0.6299212598425197
        },
        {
          "duration": 0.38970601875000455,
          "durationTicks": 159,
          "midi": 63,
          "name": "D#4",
          "ticks": 35200,
          "time": 86.27454,
          "velocity": 0.6299212598425197
        },
        {
          "duration": 0.38970601874999033,
          "durationTicks": 159,
          "midi": 66,
          "name": "F#4",
          "ticks": 35360,
          "time": 86.66669700000001,
          "velocity": 0.6299212598425197
        },
        {
          "duration": 2.350491018750006,
          "durationTicks": 959,
          "midi": 71,
          "name": "B4",
          "ticks": 35520,
          "time": 87.058854,
          "velocity": 0.6299212598425197
        },
        {
          "duration": 0.38970601875000455,
          "durationTicks": 159,
          "midi": 59,
          "name": "B3",
          "ticks": 35520,
          "time": 87.058854,
          "velocity": 0.6299212598425197
        },
        {
          "duration": 0.38970601875001876,
          "durationTicks": 159,
          "midi": 62,
          "name": "D4",
          "ticks": 35680,
          "time": 87.451011,
          "velocity": 0.6299212598425197
        },
        {
          "duration": 0.38970601875000455,
          "durationTicks": 159,
          "midi": 65,
          "name": "F4",
          "ticks": 35840,
          "time": 87.843168,
          "velocity": 0.6299212598425197
        },
        {
          "duration": 0.38970601874999033,
          "durationTicks": 159,
          "midi": 59,
          "name": "B3",
          "ticks": 36000,
          "time": 88.235325,
          "velocity": 0.6299212598425197
        },
        {
          "duration": 0.38970601875000455,
          "durationTicks": 159,
          "midi": 62,
          "name": "D4",
          "ticks": 36160,
          "time": 88.627482,
          "velocity": 0.6299212598425197
        },
        {
          "duration": 0.38970601874999033,
          "durationTicks": 159,
          "midi": 65,
          "name": "F4",
          "ticks": 36320,
          "time": 89.01963900000001,
          "velocity": 0.6299212598425197
        },
        {
          "duration": 2.3504910187499917,
          "durationTicks": 959,
          "midi": 71,
          "name": "B4",
          "ticks": 36480,
          "time": 89.41179600000001,
          "velocity": 0.6299212598425197
        },
        {
          "duration": 0.38970601874999033,
          "durationTicks": 159,
          "midi": 59,
          "name": "B3",
          "ticks": 36480,
          "time": 89.41179600000001,
          "velocity": 0.6299212598425197
        },
        {
          "duration": 0.38970601875001876,
          "durationTicks": 159,
          "midi": 61,
          "name": "C#4",
          "ticks": 36640,
          "time": 89.80395299999999,
          "velocity": 0.6299212598425197
        },
        {
          "duration": 0.38970601875000455,
          "durationTicks": 159,
          "midi": 68,
          "name": "G#4",
          "ticks": 36800,
          "time": 90.19611,
          "velocity": 0.6299212598425197
        },
        {
          "duration": 0.38970601875000455,
          "durationTicks": 159,
          "midi": 59,
          "name": "B3",
          "ticks": 36960,
          "time": 90.588267,
          "velocity": 0.6299212598425197
        },
        {
          "duration": 0.38970601875001876,
          "durationTicks": 159,
          "midi": 61,
          "name": "C#4",
          "ticks": 37120,
          "time": 90.980424,
          "velocity": 0.6299212598425197
        },
        {
          "duration": 0.38970601874999033,
          "durationTicks": 159,
          "midi": 68,
          "name": "G#4",
          "ticks": 37280,
          "time": 91.37258100000001,
          "velocity": 0.6299212598425197
        },
        {
          "duration": 2.3504910187499917,
          "durationTicks": 959,
          "midi": 69,
          "name": "A4",
          "ticks": 37440,
          "time": 91.76473800000001,
          "velocity": 0.6299212598425197
        },
        {
          "duration": 0.38970601874999033,
          "durationTicks": 159,
          "midi": 57,
          "name": "A3",
          "ticks": 37440,
          "time": 91.76473800000001,
          "velocity": 0.6299212598425197
        },
        {
          "duration": 0.38970601875001876,
          "durationTicks": 159,
          "midi": 61,
          "name": "C#4",
          "ticks": 37600,
          "time": 92.15689499999999,
          "velocity": 0.6299212598425197
        },
        {
          "duration": 0.38970601875000455,
          "durationTicks": 159,
          "midi": 66,
          "name": "F#4",
          "ticks": 37760,
          "time": 92.549052,
          "velocity": 0.6299212598425197
        },
        {
          "duration": 0.38970601875000455,
          "durationTicks": 159,
          "midi": 57,
          "name": "A3",
          "ticks": 37920,
          "time": 92.941209,
          "velocity": 0.6299212598425197
        },
        {
          "duration": 0.38970601875001876,
          "durationTicks": 159,
          "midi": 61,
          "name": "C#4",
          "ticks": 38080,
          "time": 93.333366,
          "velocity": 0.6299212598425197
        },
        {
          "duration": 0.38970601874999033,
          "durationTicks": 159,
          "midi": 66,
          "name": "F#4",
          "ticks": 38240,
          "time": 93.72552300000001,
          "velocity": 0.6299212598425197
        },
        {
          "duration": 2.3504910187499917,
          "durationTicks": 959,
          "midi": 67,
          "name": "G4",
          "ticks": 38400,
          "time": 94.11768000000001,
          "velocity": 0.6299212598425197
        },
        {
          "duration": 2.350491018750006,
          "durationTicks": 959,
          "midi": 66,
          "name": "F#4",
          "ticks": 39360,
          "time": 96.470622,
          "velocity": 0.6299212598425197
        },
        {
          "duration": 2.350491018750006,
          "durationTicks": 959,
          "midi": 61,
          "name": "C#4",
          "ticks": 40320,
          "time": 98.823564,
          "velocity": 0.6299212598425197
        },
        {
          "duration": 1.1740200187499994,
          "durationTicks": 479,
          "midi": 61,
          "name": "C#4",
          "ticks": 41280,
          "time": 101.176506,
          "velocity": 0.6299212598425197
        },
        {
          "duration": 1.1740200187499994,
          "durationTicks": 479,
          "midi": 61,
          "name": "C#4",
          "ticks": 41760,
          "time": 102.35297700000001,
          "velocity": 0.6299212598425197
        },
        {
          "duration": 0.38970601875000455,
          "durationTicks": 159,
          "midi": 66,
          "name": "F#4",
          "ticks": 43040,
          "time": 105.490233,
          "velocity": 0.6299212598425197
        },
        {
          "duration": 0.38970601875000455,
          "durationTicks": 159,
          "midi": 61,
          "name": "C#4",
          "ticks": 43200,
          "time": 105.88239,
          "velocity": 0.6299212598425197
        },
        {
          "duration": 0.38970601875001876,
          "durationTicks": 159,
          "midi": 66,
          "name": "F#4",
          "ticks": 43360,
          "time": 106.274547,
          "velocity": 0.6299212598425197
        },
        {
          "duration": 0.38970601874999033,
          "durationTicks": 159,
          "midi": 69,
          "name": "A4",
          "ticks": 43520,
          "time": 106.66670400000001,
          "velocity": 0.6299212598425197
        },
        {
          "duration": 0.8799022687500013,
          "durationTicks": 359,
          "midi": 73,
          "name": "C#5",
          "ticks": 43680,
          "time": 107.05886100000001,
          "velocity": 0.6299212598425197
        },
        {
          "duration": 0.38970601874999033,
          "durationTicks": 159,
          "midi": 61,
          "name": "C#4",
          "ticks": 43680,
          "time": 107.05886100000001,
          "velocity": 0.6299212598425197
        },
        {
          "duration": 0.38970601875000455,
          "durationTicks": 159,
          "midi": 66,
          "name": "F#4",
          "ticks": 43840,
          "time": 107.451018,
          "velocity": 0.6299212598425197
        },
        {
          "duration": 0.38970601874999033,
          "durationTicks": 159,
          "midi": 69,
          "name": "A4",
          "ticks": 44000,
          "time": 107.84317500000002,
          "velocity": 0.6299212598425197
        },
        {
          "duration": 0.2916667687500052,
          "durationTicks": 119,
          "midi": 73,
          "name": "C#5",
          "ticks": 44040,
          "time": 107.94121425,
          "velocity": 0.6299212598425197
        },
        {
          "duration": 3.5269620187500124,
          "durationTicks": 1439,
          "midi": 73,
          "name": "C#5",
          "ticks": 44160,
          "time": 108.235332,
          "velocity": 0.6299212598425197
        },
        {
          "duration": 0.38970601875000455,
          "durationTicks": 159,
          "midi": 61,
          "name": "C#4",
          "ticks": 44160,
          "time": 108.235332,
          "velocity": 0.6299212598425197
        },
        {
          "duration": 0.38970601875001876,
          "durationTicks": 159,
          "midi": 68,
          "name": "G#4",
          "ticks": 44320,
          "time": 108.627489,
          "velocity": 0.6299212598425197
        },
        {
          "duration": 0.38970601875000455,
          "durationTicks": 159,
          "midi": 71,
          "name": "B4",
          "ticks": 44480,
          "time": 109.01964600000001,
          "velocity": 0.6299212598425197
        },
        {
          "duration": 0.38970601874999033,
          "durationTicks": 159,
          "midi": 61,
          "name": "C#4",
          "ticks": 44640,
          "time": 109.411803,
          "velocity": 0.6299212598425197
        },
        {
          "duration": 0.38970601875000455,
          "durationTicks": 159,
          "midi": 68,
          "name": "G#4",
          "ticks": 44800,
          "time": 109.80396,
          "velocity": 0.6299212598425197
        },
        {
          "duration": 0.38970601874999033,
          "durationTicks": 159,
          "midi": 71,
          "name": "B4",
          "ticks": 44960,
          "time": 110.19611700000002,
          "velocity": 0.6299212598425197
        },
        {
          "duration": 0.38970601875000455,
          "durationTicks": 159,
          "midi": 61,
          "name": "C#4",
          "ticks": 45120,
          "time": 110.588274,
          "velocity": 0.6299212598425197
        },
        {
          "duration": 0.38970601875001876,
          "durationTicks": 159,
          "midi": 68,
          "name": "G#4",
          "ticks": 45280,
          "time": 110.980431,
          "velocity": 0.6299212598425197
        },
        {
          "duration": 0.38970601875000455,
          "durationTicks": 159,
          "midi": 71,
          "name": "B4",
          "ticks": 45440,
          "time": 111.37258800000001,
          "velocity": 0.6299212598425197
        },
        {
          "duration": 0.8799022687500013,
          "durationTicks": 359,
          "midi": 73,
          "name": "C#5",
          "ticks": 45600,
          "time": 111.764745,
          "velocity": 0.6299212598425197
        },
        {
          "duration": 0.38970601874999033,
          "durationTicks": 159,
          "midi": 61,
          "name": "C#4",
          "ticks": 45600,
          "time": 111.764745,
          "velocity": 0.6299212598425197
        },
        {
          "duration": 0.38970601875000455,
          "durationTicks": 159,
          "midi": 68,
          "name": "G#4",
          "ticks": 45760,
          "time": 112.156902,
          "velocity": 0.6299212598425197
        },
        {
          "duration": 0.38970601874999033,
          "durationTicks": 159,
          "midi": 71,
          "name": "B4",
          "ticks": 45920,
          "time": 112.54905900000001,
          "velocity": 0.6299212598425197
        },
        {
          "duration": 0.2916667687500052,
          "durationTicks": 119,
          "midi": 73,
          "name": "C#5",
          "ticks": 45960,
          "time": 112.64709825,
          "velocity": 0.6299212598425197
        },
        {
          "duration": 2.350491018750006,
          "durationTicks": 959,
          "midi": 73,
          "name": "C#5",
          "ticks": 46080,
          "time": 112.941216,
          "velocity": 0.6299212598425197
        },
        {
          "duration": 0.38970601875000455,
          "durationTicks": 159,
          "midi": 61,
          "name": "C#4",
          "ticks": 46080,
          "time": 112.941216,
          "velocity": 0.6299212598425197
        },
        {
          "duration": 0.38970601875001876,
          "durationTicks": 159,
          "midi": 66,
          "name": "F#4",
          "ticks": 46240,
          "time": 113.333373,
          "velocity": 0.6299212598425197
        },
        {
          "duration": 0.38970601875000455,
          "durationTicks": 159,
          "midi": 69,
          "name": "A4",
          "ticks": 46400,
          "time": 113.72553,
          "velocity": 0.6299212598425197
        },
        {
          "duration": 0.38970601874999033,
          "durationTicks": 159,
          "midi": 61,
          "name": "C#4",
          "ticks": 46560,
          "time": 114.117687,
          "velocity": 0.6299212598425197
        },
        {
          "duration": 0.38970601875000455,
          "durationTicks": 159,
          "midi": 66,
          "name": "F#4",
          "ticks": 46720,
          "time": 114.509844,
          "velocity": 0.6299212598425197
        },
        {
          "duration": 0.38970601874999033,
          "durationTicks": 159,
          "midi": 69,
          "name": "A4",
          "ticks": 46880,
          "time": 114.90200100000001,
          "velocity": 0.6299212598425197
        },
        {
          "duration": 1.1740200187499994,
          "durationTicks": 479,
          "midi": 72,
          "name": "C5",
          "ticks": 47040,
          "time": 115.29415800000001,
          "velocity": 0.6299212598425197
        },
        {
          "duration": 0.38970601874999033,
          "durationTicks": 159,
          "midi": 60,
          "name": "C4",
          "ticks": 47040,
          "time": 115.29415800000001,
          "velocity": 0.6299212598425197
        },
        {
          "duration": 0.38970601875001876,
          "durationTicks": 159,
          "midi": 66,
          "name": "F#4",
          "ticks": 47200,
          "time": 115.686315,
          "velocity": 0.6299212598425197
        },
        {
          "duration": 0.38970601875000455,
          "durationTicks": 159,
          "midi": 69,
          "name": "A4",
          "ticks": 47360,
          "time": 116.078472,
          "velocity": 0.6299212598425197
        },
        {
          "duration": 1.1740200187499994,
          "durationTicks": 479,
          "midi": 73,
          "name": "C#5",
          "ticks": 47520,
          "time": 116.470629,
          "velocity": 0.6299212598425197
        },
        {
          "duration": 0.38970601875000455,
          "durationTicks": 159,
          "midi": 61,
          "name": "C#4",
          "ticks": 47520,
          "time": 116.470629,
          "velocity": 0.6299212598425197
        },
        {
          "duration": 0.38970601875001876,
          "durationTicks": 159,
          "midi": 66,
          "name": "F#4",
          "ticks": 47680,
          "time": 116.862786,
          "velocity": 0.6299212598425197
        },
        {
          "duration": 0.38970601874999033,
          "durationTicks": 159,
          "midi": 69,
          "name": "A4",
          "ticks": 47840,
          "time": 117.25494300000001,
          "velocity": 0.6299212598425197
        },
        {
          "duration": 3.526962018749998,
          "durationTicks": 1439,
          "midi": 75,
          "name": "D#5",
          "ticks": 48000,
          "time": 117.64710000000001,
          "velocity": 0.6299212598425197
        },
        {
          "duration": 0.38970601874999033,
          "durationTicks": 159,
          "midi": 63,
          "name": "D#4",
          "ticks": 48000,
          "time": 117.64710000000001,
          "velocity": 0.6299212598425197
        },
        {
          "duration": 0.38970601875001876,
          "durationTicks": 159,
          "midi": 66,
          "name": "F#4",
          "ticks": 48160,
          "time": 118.03925699999999,
          "velocity": 0.6299212598425197
        },
        {
          "duration": 0.38970601875000455,
          "durationTicks": 159,
          "midi": 68,
          "name": "G#4",
          "ticks": 48320,
          "time": 118.431414,
          "velocity": 0.6299212598425197
        },
        {
          "duration": 0.38970601875000455,
          "durationTicks": 159,
          "midi": 63,
          "name": "D#4",
          "ticks": 48480,
          "time": 118.823571,
          "velocity": 0.6299212598425197
        },
        {
          "duration": 0.38970601875001876,
          "durationTicks": 159,
          "midi": 66,
          "name": "F#4",
          "ticks": 48640,
          "time": 119.215728,
          "velocity": 0.6299212598425197
        },
        {
          "duration": 0.38970601874999033,
          "durationTicks": 159,
          "midi": 68,
          "name": "G#4",
          "ticks": 48800,
          "time": 119.60788500000001,
          "velocity": 0.6299212598425197
        },
        {
          "duration": 0.38970601874999033,
          "durationTicks": 159,
          "midi": 63,
          "name": "D#4",
          "ticks": 48960,
          "time": 120.00004200000001,
          "velocity": 0.6299212598425197
        },
        {
          "duration": 0.38970601875000455,
          "durationTicks": 159,
          "midi": 66,
          "name": "F#4",
          "ticks": 49120,
          "time": 120.392199,
          "velocity": 0.6299212598425197
        },
        {
          "duration": 0.38970601874999033,
          "durationTicks": 159,
          "midi": 68,
          "name": "G#4",
          "ticks": 49280,
          "time": 120.78435600000002,
          "velocity": 0.6299212598425197
        },
        {
          "duration": 1.1740200187500136,
          "durationTicks": 479,
          "midi": 75,
          "name": "D#5",
          "ticks": 49440,
          "time": 121.176513,
          "velocity": 0.6299212598425197
        },
        {
          "duration": 0.38970601875000455,
          "durationTicks": 159,
          "midi": 63,
          "name": "D#4",
          "ticks": 49440,
          "time": 121.176513,
          "velocity": 0.6299212598425197
        },
        {
          "duration": 0.38970601875001876,
          "durationTicks": 159,
          "midi": 66,
          "name": "F#4",
          "ticks": 49600,
          "time": 121.56867,
          "velocity": 0.6299212598425197
        },
        {
          "duration": 0.38970601875000455,
          "durationTicks": 159,
          "midi": 68,
          "name": "G#4",
          "ticks": 49760,
          "time": 121.96082700000001,
          "velocity": 0.6299212598425197
        },
        {
          "duration": 2.350491018750006,
          "durationTicks": 959,
          "midi": 76,
          "name": "E5",
          "ticks": 49920,
          "time": 122.352984,
          "velocity": 0.6299212598425197
        },
        {
          "duration": 0.38970601874999033,
          "durationTicks": 159,
          "midi": 64,
          "name": "E4",
          "ticks": 49920,
          "time": 122.352984,
          "velocity": 0.6299212598425197
        },
        {
          "duration": 0.38970601875000455,
          "durationTicks": 159,
          "midi": 68,
          "name": "G#4",
          "ticks": 50080,
          "time": 122.745141,
          "velocity": 0.6299212598425197
        },
        {
          "duration": 0.38970601874999033,
          "durationTicks": 159,
          "midi": 73,
          "name": "C#5",
          "ticks": 50240,
          "time": 123.13729800000002,
          "velocity": 0.6299212598425197
        },
        {
          "duration": 0.38970601875000455,
          "durationTicks": 159,
          "midi": 64,
          "name": "E4",
          "ticks": 50400,
          "time": 123.529455,
          "velocity": 0.6299212598425197
        },
        {
          "duration": 0.38970601875001876,
          "durationTicks": 159,
          "midi": 68,
          "name": "G#4",
          "ticks": 50560,
          "time": 123.921612,
          "velocity": 0.6299212598425197
        },
        {
          "duration": 0.38970601875000455,
          "durationTicks": 159,
          "midi": 73,
          "name": "C#5",
          "ticks": 50720,
          "time": 124.31376900000001,
          "velocity": 0.6299212598425197
        },
        {
          "duration": 1.1740200187499994,
          "durationTicks": 479,
          "midi": 75,
          "name": "D#5",
          "ticks": 50880,
          "time": 124.705926,
          "velocity": 0.6299212598425197
        },
        {
          "duration": 0.38970601874999033,
          "durationTicks": 159,
          "midi": 63,
          "name": "D#4",
          "ticks": 50880,
          "time": 124.705926,
          "velocity": 0.6299212598425197
        },
        {
          "duration": 0.38970601875000455,
          "durationTicks": 159,
          "midi": 66,
          "name": "F#4",
          "ticks": 51040,
          "time": 125.098083,
          "velocity": 0.6299212598425197
        },
        {
          "duration": 0.38970601874999033,
          "durationTicks": 159,
          "midi": 69,
          "name": "A4",
          "ticks": 51200,
          "time": 125.49024000000001,
          "velocity": 0.6299212598425197
        },
        {
          "duration": 1.1740200187499994,
          "durationTicks": 479,
          "midi": 73,
          "name": "C#5",
          "ticks": 51360,
          "time": 125.88239700000001,
          "velocity": 0.6299212598425197
        },
        {
          "duration": 0.38970601874999033,
          "durationTicks": 159,
          "midi": 61,
          "name": "C#4",
          "ticks": 51360,
          "time": 125.88239700000001,
          "velocity": 0.6299212598425197
        },
        {
          "duration": 0.38970601875001876,
          "durationTicks": 159,
          "midi": 64,
          "name": "E4",
          "ticks": 51520,
          "time": 126.274554,
          "velocity": 0.6299212598425197
        },
        {
          "duration": 0.38970601875000455,
          "durationTicks": 159,
          "midi": 70,
          "name": "A#4",
          "ticks": 51680,
          "time": 126.666711,
          "velocity": 0.6299212598425197
        },
        {
          "duration": 0.38970601875000455,
          "durationTicks": 159,
          "midi": 72,
          "name": "C5",
          "ticks": 51840,
          "time": 127.058868,
          "velocity": 0.6299212598425197
        },
        {
          "duration": 0.38970601875000455,
          "durationTicks": 159,
          "midi": 60,
          "name": "C4",
          "ticks": 52000,
          "time": 127.451025,
          "velocity": 0.6299212598425197
        },
        {
          "duration": 0.38970601874999033,
          "durationTicks": 159,
          "midi": 63,
          "name": "D#4",
          "ticks": 52160,
          "time": 127.84318200000001,
          "velocity": 0.6299212598425197
        },
        {
          "duration": 0.38970601874999033,
          "durationTicks": 159,
          "midi": 68,
          "name": "G#4",
          "ticks": 52320,
          "time": 128.235339,
          "velocity": 0.6299212598425197
        },
        {
          "duration": 0.38970601875001876,
          "durationTicks": 159,
          "midi": 60,
          "name": "C4",
          "ticks": 52480,
          "time": 128.627496,
          "velocity": 0.6299212598425197
        },
        {
          "duration": 0.38970601874999033,
          "durationTicks": 159,
          "midi": 63,
          "name": "D#4",
          "ticks": 52640,
          "time": 129.019653,
          "velocity": 0.6299212598425197
        },
        {
          "duration": 0.38970601874999033,
          "durationTicks": 159,
          "midi": 69,
          "name": "A4",
          "ticks": 52800,
          "time": 129.41181,
          "velocity": 0.6299212598425197
        },
        {
          "duration": 0.38970601875001876,
          "durationTicks": 159,
          "midi": 60,
          "name": "C4",
          "ticks": 52960,
          "time": 129.803967,
          "velocity": 0.6299212598425197
        },
        {
          "duration": 0.38970601875001876,
          "durationTicks": 159,
          "midi": 63,
          "name": "D#4",
          "ticks": 53120,
          "time": 130.196124,
          "velocity": 0.6299212598425197
        },
        {
          "duration": 0.38970601875001876,
          "durationTicks": 159,
          "midi": 66,
          "name": "F#4",
          "ticks": 53280,
          "time": 130.588281,
          "velocity": 0.6299212598425197
        },
        {
          "duration": 0.38970601875001876,
          "durationTicks": 159,
          "midi": 60,
          "name": "C4",
          "ticks": 53440,
          "time": 130.980438,
          "velocity": 0.6299212598425197
        },
        {
          "duration": 0.38970601874999033,
          "durationTicks": 159,
          "midi": 63,
          "name": "D#4",
          "ticks": 53600,
          "time": 131.37259500000002,
          "velocity": 0.6299212598425197
        },
        {
          "duration": 0.38970601874999033,
          "durationTicks": 159,
          "midi": 60,
          "name": "C4",
          "ticks": 53920,
          "time": 132.156909,
          "velocity": 0.6299212598425197
        },
        {
          "duration": 0.38970601874999033,
          "durationTicks": 159,
          "midi": 63,
          "name": "D#4",
          "ticks": 54080,
          "time": 132.549066,
          "velocity": 0.6299212598425197
        },
        {
          "duration": 0.38970601874999033,
          "durationTicks": 159,
          "midi": 56,
          "name": "G#3",
          "ticks": 54240,
          "time": 132.941223,
          "velocity": 0.6299212598425197
        },
        {
          "duration": 0.38970601875001876,
          "durationTicks": 159,
          "midi": 60,
          "name": "C4",
          "ticks": 54400,
          "time": 133.33338,
          "velocity": 0.6299212598425197
        },
        {
          "duration": 0.38970601874999033,
          "durationTicks": 159,
          "midi": 63,
          "name": "D#4",
          "ticks": 54560,
          "time": 133.725537,
          "velocity": 0.6299212598425197
        },
        {
          "duration": 0.38970601874999033,
          "durationTicks": 159,
          "midi": 57,
          "name": "A3",
          "ticks": 54720,
          "time": 134.117694,
          "velocity": 0.6299212598425197
        },
        {
          "duration": 0.38970601875001876,
          "durationTicks": 159,
          "midi": 60,
          "name": "C4",
          "ticks": 54880,
          "time": 134.509851,
          "velocity": 0.6299212598425197
        },
        {
          "duration": 0.38970601874999033,
          "durationTicks": 159,
          "midi": 63,
          "name": "D#4",
          "ticks": 55040,
          "time": 134.90200800000002,
          "velocity": 0.6299212598425197
        },
        {
          "duration": 0.38970601875001876,
          "durationTicks": 159,
          "midi": 54,
          "name": "F#3",
          "ticks": 55200,
          "time": 135.294165,
          "velocity": 0.6299212598425197
        },
        {
          "duration": 0.38970601875001876,
          "durationTicks": 159,
          "midi": 60,
          "name": "C4",
          "ticks": 55360,
          "time": 135.686322,
          "velocity": 0.6299212598425197
        },
        {
          "duration": 0.38970601874999033,
          "durationTicks": 159,
          "midi": 63,
          "name": "D#4",
          "ticks": 55520,
          "time": 136.07847900000002,
          "velocity": 0.6299212598425197
        },
        {
          "duration": 0.38970601874999033,
          "durationTicks": 159,
          "midi": 64,
          "name": "E4",
          "ticks": 55840,
          "time": 136.862793,
          "velocity": 0.6299212598425197
        },
        {
          "duration": 0.38970601874999033,
          "durationTicks": 159,
          "midi": 68,
          "name": "G#4",
          "ticks": 56000,
          "time": 137.25495,
          "velocity": 0.6299212598425197
        },
        {
          "duration": 0.38970601874999033,
          "durationTicks": 159,
          "midi": 73,
          "name": "C#5",
          "ticks": 56160,
          "time": 137.647107,
          "velocity": 0.6299212598425197
        },
        {
          "duration": 0.38970601875001876,
          "durationTicks": 159,
          "midi": 64,
          "name": "E4",
          "ticks": 56320,
          "time": 138.039264,
          "velocity": 0.6299212598425197
        },
        {
          "duration": 0.38970601875001876,
          "durationTicks": 159,
          "midi": 68,
          "name": "G#4",
          "ticks": 56480,
          "time": 138.431421,
          "velocity": 0.6299212598425197
        },
        {
          "duration": 0.38970601874999033,
          "durationTicks": 159,
          "midi": 76,
          "name": "E5",
          "ticks": 56640,
          "time": 138.823578,
          "velocity": 0.6299212598425197
        },
        {
          "duration": 0.38970601875001876,
          "durationTicks": 159,
          "midi": 64,
          "name": "E4",
          "ticks": 56800,
          "time": 139.215735,
          "velocity": 0.6299212598425197
        },
        {
          "duration": 0.38970601874999033,
          "durationTicks": 159,
          "midi": 68,
          "name": "G#4",
          "ticks": 56960,
          "time": 139.60789200000002,
          "velocity": 0.6299212598425197
        },
        {
          "duration": 0.38970601874999033,
          "durationTicks": 159,
          "midi": 73,
          "name": "C#5",
          "ticks": 57120,
          "time": 140.00004900000002,
          "velocity": 0.6299212598425197
        },
        {
          "duration": 0.38970601875001876,
          "durationTicks": 159,
          "midi": 64,
          "name": "E4",
          "ticks": 57280,
          "time": 140.392206,
          "velocity": 0.6299212598425197
        },
        {
          "duration": 0.38970601874999033,
          "durationTicks": 159,
          "midi": 68,
          "name": "G#4",
          "ticks": 57440,
          "time": 140.784363,
          "velocity": 0.6299212598425197
        },
        {
          "duration": 0.38970601874999033,
          "durationTicks": 159,
          "midi": 60,
          "name": "C4",
          "ticks": 60000,
          "time": 147.058875,
          "velocity": 0.6299212598425197
        },
        {
          "duration": 0.38970601875001876,
          "durationTicks": 159,
          "midi": 57,
          "name": "A3",
          "ticks": 60160,
          "time": 147.451032,
          "velocity": 0.6299212598425197
        },
        {
          "duration": 0.38970601874999033,
          "durationTicks": 159,
          "midi": 63,
          "name": "D#4",
          "ticks": 60320,
          "time": 147.84318900000002,
          "velocity": 0.6299212598425197
        },
        {
          "duration": 0.38970601875001876,
          "durationTicks": 159,
          "midi": 60,
          "name": "C4",
          "ticks": 60480,
          "time": 148.235346,
          "velocity": 0.6299212598425197
        },
        {
          "duration": 0.38970601875001876,
          "durationTicks": 159,
          "midi": 66,
          "name": "F#4",
          "ticks": 60640,
          "time": 148.627503,
          "velocity": 0.6299212598425197
        },
        {
          "duration": 0.38970601874999033,
          "durationTicks": 159,
          "midi": 63,
          "name": "D#4",
          "ticks": 60800,
          "time": 149.01966000000002,
          "velocity": 0.6299212598425197
        },
        {
          "duration": 0.38970601874999033,
          "durationTicks": 159,
          "midi": 69,
          "name": "A4",
          "ticks": 60960,
          "time": 149.411817,
          "velocity": 0.6299212598425197
        },
        {
          "duration": 0.38970601874999033,
          "durationTicks": 159,
          "midi": 66,
          "name": "F#4",
          "ticks": 61120,
          "time": 149.803974,
          "velocity": 0.6299212598425197
        },
        {
          "duration": 0.38970601874999033,
          "durationTicks": 159,
          "midi": 72,
          "name": "C5",
          "ticks": 61280,
          "time": 150.196131,
          "velocity": 0.6299212598425197
        },
        {
          "duration": 0.38970601875001876,
          "durationTicks": 159,
          "midi": 64,
          "name": "E4",
          "ticks": 61920,
          "time": 151.764759,
          "velocity": 0.6299212598425197
        },
        {
          "duration": 0.3897060187499619,
          "durationTicks": 159,
          "midi": 61,
          "name": "C#4",
          "ticks": 62080,
          "time": 152.15691600000002,
          "velocity": 0.6299212598425197
        },
        {
          "duration": 0.38970601875001876,
          "durationTicks": 159,
          "midi": 68,
          "name": "G#4",
          "ticks": 62240,
          "time": 152.549073,
          "velocity": 0.6299212598425197
        },
        {
          "duration": 0.38970601874999033,
          "durationTicks": 159,
          "midi": 64,
          "name": "E4",
          "ticks": 62400,
          "time": 152.94123000000002,
          "velocity": 0.6299212598425197
        },
        {
          "duration": 0.38970601874999033,
          "durationTicks": 159,
          "midi": 73,
          "name": "C#5",
          "ticks": 62560,
          "time": 153.33338700000002,
          "velocity": 0.6299212598425197
        },
        {
          "duration": 0.38970601875001876,
          "durationTicks": 159,
          "midi": 68,
          "name": "G#4",
          "ticks": 62720,
          "time": 153.72554399999999,
          "velocity": 0.6299212598425197
        },
        {
          "duration": 0.38970601875001876,
          "durationTicks": 159,
          "midi": 76,
          "name": "E5",
          "ticks": 62880,
          "time": 154.117701,
          "velocity": 0.6299212598425197
        },
        {
          "duration": 0.38970601874999033,
          "durationTicks": 159,
          "midi": 73,
          "name": "C#5",
          "ticks": 63040,
          "time": 154.509858,
          "velocity": 0.6299212598425197
        },
        {
          "duration": 0.38970601874999033,
          "durationTicks": 159,
          "midi": 68,
          "name": "G#4",
          "ticks": 63200,
          "time": 154.902015,
          "velocity": 0.6299212598425197
        },
        {
          "duration": 0.38970601875001876,
          "durationTicks": 159,
          "midi": 61,
          "name": "C#4",
          "ticks": 63360,
          "time": 155.294172,
          "velocity": 0.6299212598425197
        },
        {
          "duration": 0.3897060187499619,
          "durationTicks": 159,
          "midi": 67,
          "name": "G4",
          "ticks": 63520,
          "time": 155.68632900000003,
          "velocity": 0.6299212598425197
        },
        {
          "duration": 0.38970601875001876,
          "durationTicks": 159,
          "midi": 64,
          "name": "E4",
          "ticks": 63680,
          "time": 156.078486,
          "velocity": 0.6299212598425197
        },
        {
          "duration": 0.38970601875001876,
          "durationTicks": 159,
          "midi": 70,
          "name": "A#4",
          "ticks": 63840,
          "time": 156.470643,
          "velocity": 0.6299212598425197
        },
        {
          "duration": 0.3897060187499619,
          "durationTicks": 159,
          "midi": 67,
          "name": "G4",
          "ticks": 64000,
          "time": 156.86280000000002,
          "velocity": 0.6299212598425197
        },
        {
          "duration": 0.38970601875001876,
          "durationTicks": 159,
          "midi": 73,
          "name": "C#5",
          "ticks": 64160,
          "time": 157.254957,
          "velocity": 0.6299212598425197
        },
        {
          "duration": 0.38970601874999033,
          "durationTicks": 159,
          "midi": 70,
          "name": "A#4",
          "ticks": 64320,
          "time": 157.64711400000002,
          "velocity": 0.6299212598425197
        },
        {
          "duration": 0.38970601874999033,
          "durationTicks": 159,
          "midi": 76,
          "name": "E5",
          "ticks": 64480,
          "time": 158.039271,
          "velocity": 0.6299212598425197
        },
        {
          "duration": 0.38970601875001876,
          "durationTicks": 159,
          "midi": 73,
          "name": "C#5",
          "ticks": 64640,
          "time": 158.43142799999998,
          "velocity": 0.6299212598425197
        },
        {
          "duration": 0.38970601875001876,
          "durationTicks": 159,
          "midi": 79,
          "name": "G5",
          "ticks": 64800,
          "time": 158.823585,
          "velocity": 0.6299212598425197
        },
        {
          "duration": 0.38970601874999033,
          "durationTicks": 159,
          "midi": 76,
          "name": "E5",
          "ticks": 64960,
          "time": 159.215742,
          "velocity": 0.6299212598425197
        },
        {
          "duration": 0.38970601875001876,
          "durationTicks": 159,
          "midi": 82,
          "name": "A#5",
          "ticks": 65120,
          "time": 159.607899,
          "velocity": 0.6299212598425197
        },
        {
          "duration": 0.38970601875001876,
          "durationTicks": 159,
          "midi": 66,
          "name": "F#4",
          "ticks": 65280,
          "time": 160.000056,
          "velocity": 0.6299212598425197
        },
        {
          "duration": 0.3897060187499619,
          "durationTicks": 159,
          "midi": 72,
          "name": "C5",
          "ticks": 65440,
          "time": 160.39221300000003,
          "velocity": 0.6299212598425197
        },
        {
          "duration": 0.38970601875001876,
          "durationTicks": 159,
          "midi": 69,
          "name": "A4",
          "ticks": 65600,
          "time": 160.78437,
          "velocity": 0.6299212598425197
        },
        {
          "duration": 0.38970601875001876,
          "durationTicks": 159,
          "midi": 75,
          "name": "D#5",
          "ticks": 65760,
          "time": 161.176527,
          "velocity": 0.6299212598425197
        },
        {
          "duration": 0.38970601874999033,
          "durationTicks": 159,
          "midi": 72,
          "name": "C5",
          "ticks": 65920,
          "time": 161.56868400000002,
          "velocity": 0.6299212598425197
        },
        {
          "duration": 0.38970601875001876,
          "durationTicks": 159,
          "midi": 78,
          "name": "F#5",
          "ticks": 66080,
          "time": 161.960841,
          "velocity": 0.6299212598425197
        },
        {
          "duration": 0.38970601875001876,
          "durationTicks": 159,
          "midi": 75,
          "name": "D#5",
          "ticks": 66240,
          "time": 162.352998,
          "velocity": 0.6299212598425197
        },
        {
          "duration": 0.38970601874999033,
          "durationTicks": 159,
          "midi": 81,
          "name": "A5",
          "ticks": 66400,
          "time": 162.745155,
          "velocity": 0.6299212598425197
        },
        {
          "duration": 0.38970601874999033,
          "durationTicks": 159,
          "midi": 78,
          "name": "F#5",
          "ticks": 66560,
          "time": 163.137312,
          "velocity": 0.6299212598425197
        },
        {
          "duration": 0.38970601875001876,
          "durationTicks": 159,
          "midi": 84,
          "name": "C6",
          "ticks": 66720,
          "time": 163.529469,
          "velocity": 0.6299212598425197
        },
        {
          "duration": 0.38970601874999033,
          "durationTicks": 159,
          "midi": 81,
          "name": "A5",
          "ticks": 66880,
          "time": 163.921626,
          "velocity": 0.6299212598425197
        },
        {
          "duration": 0.38970601875001876,
          "durationTicks": 159,
          "midi": 87,
          "name": "D#6",
          "ticks": 67040,
          "time": 164.313783,
          "velocity": 0.6299212598425197
        },
        {
          "duration": 0.38970601875001876,
          "durationTicks": 159,
          "midi": 84,
          "name": "C6",
          "ticks": 67200,
          "time": 164.70594,
          "velocity": 0.6299212598425197
        },
        {
          "duration": 0.3897060187499619,
          "durationTicks": 159,
          "midi": 78,
          "name": "F#5",
          "ticks": 67360,
          "time": 165.09809700000002,
          "velocity": 0.6299212598425197
        },
        {
          "duration": 0.38970601875001876,
          "durationTicks": 159,
          "midi": 81,
          "name": "A5",
          "ticks": 67520,
          "time": 165.490254,
          "velocity": 0.6299212598425197
        },
        {
          "duration": 0.38970601874999033,
          "durationTicks": 159,
          "midi": 75,
          "name": "D#5",
          "ticks": 67680,
          "time": 165.88241100000002,
          "velocity": 0.6299212598425197
        },
        {
          "duration": 0.38970601874999033,
          "durationTicks": 159,
          "midi": 78,
          "name": "F#5",
          "ticks": 67840,
          "time": 166.27456800000002,
          "velocity": 0.6299212598425197
        },
        {
          "duration": 0.38970601875001876,
          "durationTicks": 159,
          "midi": 72,
          "name": "C5",
          "ticks": 68000,
          "time": 166.66672499999999,
          "velocity": 0.6299212598425197
        },
        {
          "duration": 0.38970601875001876,
          "durationTicks": 159,
          "midi": 75,
          "name": "D#5",
          "ticks": 68160,
          "time": 167.058882,
          "velocity": 0.6299212598425197
        },
        {
          "duration": 0.38970601874999033,
          "durationTicks": 159,
          "midi": 69,
          "name": "A4",
          "ticks": 68320,
          "time": 167.451039,
          "velocity": 0.6299212598425197
        },
        {
          "duration": 0.38970601874999033,
          "durationTicks": 159,
          "midi": 72,
          "name": "C5",
          "ticks": 68480,
          "time": 167.843196,
          "velocity": 0.6299212598425197
        },
        {
          "duration": 0.38970601875001876,
          "durationTicks": 159,
          "midi": 66,
          "name": "F#4",
          "ticks": 68640,
          "time": 168.235353,
          "velocity": 0.6299212598425197
        },
        {
          "duration": 0.3897060187499619,
          "durationTicks": 159,
          "midi": 69,
          "name": "A4",
          "ticks": 68800,
          "time": 168.62751000000003,
          "velocity": 0.6299212598425197
        },
        {
          "duration": 0.38970601875001876,
          "durationTicks": 159,
          "midi": 63,
          "name": "D#4",
          "ticks": 68960,
          "time": 169.019667,
          "velocity": 0.6299212598425197
        },
        {
          "duration": 0.38970601875001876,
          "durationTicks": 159,
          "midi": 66,
          "name": "F#4",
          "ticks": 69120,
          "time": 169.411824,
          "velocity": 0.6299212598425197
        },
        {
          "duration": 0.3897060187499619,
          "durationTicks": 159,
          "midi": 60,
          "name": "C4",
          "ticks": 69280,
          "time": 169.80398100000002,
          "velocity": 0.6299212598425197
        },
        {
          "duration": 0.38970601875001876,
          "durationTicks": 159,
          "midi": 63,
          "name": "D#4",
          "ticks": 69440,
          "time": 170.196138,
          "velocity": 0.6299212598425197
        },
        {
          "duration": 0.38970601874999033,
          "durationTicks": 159,
          "midi": 57,
          "name": "A3",
          "ticks": 69600,
          "time": 170.58829500000002,
          "velocity": 0.6299212598425197
        },
        {
          "duration": 0.38970601874999033,
          "durationTicks": 159,
          "midi": 60,
          "name": "C4",
          "ticks": 69760,
          "time": 170.980452,
          "velocity": 0.6299212598425197
        },
        {
          "duration": 0.38970601875001876,
          "durationTicks": 159,
          "midi": 54,
          "name": "F#3",
          "ticks": 69920,
          "time": 171.37260899999998,
          "velocity": 0.6299212598425197
        },
        {
          "duration": 0.38970601875001876,
          "durationTicks": 159,
          "midi": 57,
          "name": "A3",
          "ticks": 70080,
          "time": 171.764766,
          "velocity": 0.6299212598425197
        },
        {
          "duration": 0.38970601874999033,
          "durationTicks": 159,
          "midi": 51,
          "name": "D#3",
          "ticks": 70240,
          "time": 172.156923,
          "velocity": 0.6299212598425197
        },
        {
          "duration": 0.38970601875001876,
          "durationTicks": 159,
          "midi": 54,
          "name": "F#3",
          "ticks": 70400,
          "time": 172.54908,
          "velocity": 0.6299212598425197
        },
        {
          "duration": 0.38970601875001876,
          "durationTicks": 159,
          "midi": 49,
          "name": "C#3",
          "ticks": 70560,
          "time": 172.941237,
          "velocity": 0.6299212598425197
        },
        {
          "duration": 0.3897060187499619,
          "durationTicks": 159,
          "midi": 54,
          "name": "F#3",
          "ticks": 70720,
          "time": 173.33339400000003,
          "velocity": 0.6299212598425197
        },
        {
          "duration": 0.38970601875001876,
          "durationTicks": 159,
          "midi": 57,
          "name": "A3",
          "ticks": 70880,
          "time": 173.725551,
          "velocity": 0.6299212598425197
        },
        {
          "duration": 0,
          "durationTicks": 0,
          "midi": 48,
          "name": "C3",
          "ticks": 71040,
          "time": 174.117708,
          "velocity": 0.6299212598425197
        },
        {
          "duration": 2.350491018750006,
          "durationTicks": 959,
          "midi": 48,
          "name": "C3",
          "ticks": 71040,
          "time": 174.117708,
          "velocity": 0.6299212598425197
        },
        {
          "duration": 0.38970601874999033,
          "durationTicks": 159,
          "midi": 54,
          "name": "F#3",
          "ticks": 71200,
          "time": 174.50986500000002,
          "velocity": 0.6299212598425197
        },
        {
          "duration": 0.38970601875001876,
          "durationTicks": 159,
          "midi": 56,
          "name": "G#3",
          "ticks": 71360,
          "time": 174.902022,
          "velocity": 0.6299212598425197
        },
        {
          "duration": 0.38970601875001876,
          "durationTicks": 159,
          "midi": 57,
          "name": "A3",
          "ticks": 71520,
          "time": 175.294179,
          "velocity": 0.6299212598425197
        },
        {
          "duration": 0.38970601874999033,
          "durationTicks": 159,
          "midi": 56,
          "name": "G#3",
          "ticks": 71680,
          "time": 175.686336,
          "velocity": 0.6299212598425197
        },
        {
          "duration": 0.38970601874999033,
          "durationTicks": 159,
          "midi": 54,
          "name": "F#3",
          "ticks": 71840,
          "time": 176.078493,
          "velocity": 0.6299212598425197
        },
        {
          "duration": 0,
          "durationTicks": 0,
          "midi": 51,
          "name": "D#3",
          "ticks": 72000,
          "time": 176.47065,
          "velocity": 0.6299212598425197
        },
        {
          "duration": 1.1740200187500136,
          "durationTicks": 479,
          "midi": 51,
          "name": "D#3",
          "ticks": 72000,
          "time": 176.47065,
          "velocity": 0.6299212598425197
        },
        {
          "duration": 0.38970601874999033,
          "durationTicks": 159,
          "midi": 54,
          "name": "F#3",
          "ticks": 72160,
          "time": 176.862807,
          "velocity": 0.6299212598425197
        },
        {
          "duration": 0.38970601875001876,
          "durationTicks": 159,
          "midi": 57,
          "name": "A3",
          "ticks": 72320,
          "time": 177.254964,
          "velocity": 0.6299212598425197
        },
        {
          "duration": 0,
          "durationTicks": 0,
          "midi": 49,
          "name": "C#3",
          "ticks": 72480,
          "time": 177.647121,
          "velocity": 0.6299212598425197
        },
        {
          "duration": 1.1740200187500136,
          "durationTicks": 479,
          "midi": 49,
          "name": "C#3",
          "ticks": 72480,
          "time": 177.647121,
          "velocity": 0.6299212598425197
        },
        {
          "duration": 0.3897060187499619,
          "durationTicks": 159,
          "midi": 54,
          "name": "F#3",
          "ticks": 72640,
          "time": 178.03927800000002,
          "velocity": 0.6299212598425197
        },
        {
          "duration": 0.38970601875001876,
          "durationTicks": 159,
          "midi": 57,
          "name": "A3",
          "ticks": 72800,
          "time": 178.431435,
          "velocity": 0.6299212598425197
        },
        {
          "duration": 0,
          "durationTicks": 0,
          "midi": 48,
          "name": "C3",
          "ticks": 72960,
          "time": 178.82359200000002,
          "velocity": 0.6299212598425197
        },
        {
          "duration": 2.3504910187499775,
          "durationTicks": 959,
          "midi": 48,
          "name": "C3",
          "ticks": 72960,
          "time": 178.82359200000002,
          "velocity": 0.6299212598425197
        },
        {
          "duration": 0.38970601874999033,
          "durationTicks": 159,
          "midi": 54,
          "name": "F#3",
          "ticks": 73120,
          "time": 179.21574900000002,
          "velocity": 0.6299212598425197
        },
        {
          "duration": 0.38970601875001876,
          "durationTicks": 159,
          "midi": 56,
          "name": "G#3",
          "ticks": 73280,
          "time": 179.60790599999999,
          "velocity": 0.6299212598425197
        },
        {
          "duration": 0.38970601875001876,
          "durationTicks": 159,
          "midi": 57,
          "name": "A3",
          "ticks": 73440,
          "time": 180.000063,
          "velocity": 0.6299212598425197
        },
        {
          "duration": 0.38970601874999033,
          "durationTicks": 159,
          "midi": 56,
          "name": "G#3",
          "ticks": 73600,
          "time": 180.39222,
          "velocity": 0.6299212598425197
        },
        {
          "duration": 0.38970601874999033,
          "durationTicks": 159,
          "midi": 54,
          "name": "F#3",
          "ticks": 73760,
          "time": 180.784377,
          "velocity": 0.6299212598425197
        },
        {
          "duration": 0,
          "durationTicks": 0,
          "midi": 51,
          "name": "D#3",
          "ticks": 73920,
          "time": 181.176534,
          "velocity": 0.6299212598425197
        },
        {
          "duration": 1.1740200187500136,
          "durationTicks": 479,
          "midi": 51,
          "name": "D#3",
          "ticks": 73920,
          "time": 181.176534,
          "velocity": 0.6299212598425197
        },
        {
          "duration": 0.3897060187499619,
          "durationTicks": 159,
          "midi": 54,
          "name": "F#3",
          "ticks": 74080,
          "time": 181.56869100000003,
          "velocity": 0.6299212598425197
        },
        {
          "duration": 0.38970601875001876,
          "durationTicks": 159,
          "midi": 57,
          "name": "A3",
          "ticks": 74240,
          "time": 181.960848,
          "velocity": 0.6299212598425197
        },
        {
          "duration": 0,
          "durationTicks": 0,
          "midi": 49,
          "name": "C#3",
          "ticks": 74400,
          "time": 182.353005,
          "velocity": 0.6299212598425197
        },
        {
          "duration": 1.1740200187500136,
          "durationTicks": 479,
          "midi": 49,
          "name": "C#3",
          "ticks": 74400,
          "time": 182.353005,
          "velocity": 0.6299212598425197
        },
        {
          "duration": 0.38970601874999033,
          "durationTicks": 159,
          "midi": 54,
          "name": "F#3",
          "ticks": 74560,
          "time": 182.74516200000002,
          "velocity": 0.6299212598425197
        },
        {
          "duration": 0.38970601875001876,
          "durationTicks": 159,
          "midi": 57,
          "name": "A3",
          "ticks": 74720,
          "time": 183.137319,
          "velocity": 0.6299212598425197
        },
        {
          "duration": 0,
          "durationTicks": 0,
          "midi": 48,
          "name": "C3",
          "ticks": 74880,
          "time": 183.52947600000002,
          "velocity": 0.6299212598425197
        },
        {
          "duration": 2.350491018750006,
          "durationTicks": 959,
          "midi": 48,
          "name": "C3",
          "ticks": 74880,
          "time": 183.52947600000002,
          "velocity": 0.6299212598425197
        },
        {
          "duration": 0.38970601874999033,
          "durationTicks": 159,
          "midi": 54,
          "name": "F#3",
          "ticks": 75040,
          "time": 183.921633,
          "velocity": 0.6299212598425197
        },
        {
          "duration": 0.38970601875001876,
          "durationTicks": 159,
          "midi": 56,
          "name": "G#3",
          "ticks": 75200,
          "time": 184.31378999999998,
          "velocity": 0.6299212598425197
        },
        {
          "duration": 0.38970601875001876,
          "durationTicks": 159,
          "midi": 57,
          "name": "A3",
          "ticks": 75360,
          "time": 184.705947,
          "velocity": 0.6299212598425197
        },
        {
          "duration": 0.38970601874999033,
          "durationTicks": 159,
          "midi": 56,
          "name": "G#3",
          "ticks": 75520,
          "time": 185.098104,
          "velocity": 0.6299212598425197
        },
        {
          "duration": 0.38970601875001876,
          "durationTicks": 159,
          "midi": 54,
          "name": "F#3",
          "ticks": 75680,
          "time": 185.490261,
          "velocity": 0.6299212598425197
        },
        {
          "duration": 0,
          "durationTicks": 0,
          "midi": 49,
          "name": "C#3",
          "ticks": 75840,
          "time": 185.882418,
          "velocity": 0.6299212598425197
        },
        {
          "duration": 1.1740200187500136,
          "durationTicks": 479,
          "midi": 49,
          "name": "C#3",
          "ticks": 75840,
          "time": 185.882418,
          "velocity": 0.6299212598425197
        },
        {
          "duration": 0.3897060187499619,
          "durationTicks": 159,
          "midi": 52,
          "name": "E3",
          "ticks": 76000,
          "time": 186.27457500000003,
          "velocity": 0.6299212598425197
        },
        {
          "duration": 0.38970601875001876,
          "durationTicks": 159,
          "midi": 61,
          "name": "C#4",
          "ticks": 76160,
          "time": 186.666732,
          "velocity": 0.6299212598425197
        },
        {
          "duration": 0,
          "durationTicks": 0,
          "midi": 49,
          "name": "C#3",
          "ticks": 76320,
          "time": 187.058889,
          "velocity": 0.6299212598425197
        },
        {
          "duration": 1.1740200187500136,
          "durationTicks": 479,
          "midi": 49,
          "name": "C#3",
          "ticks": 76320,
          "time": 187.058889,
          "velocity": 0.6299212598425197
        },
        {
          "duration": 0.38970601874999033,
          "durationTicks": 159,
          "midi": 52,
          "name": "E3",
          "ticks": 76480,
          "time": 187.45104600000002,
          "velocity": 0.6299212598425197
        },
        {
          "duration": 0.38970601875001876,
          "durationTicks": 159,
          "midi": 61,
          "name": "C#4",
          "ticks": 76640,
          "time": 187.843203,
          "velocity": 0.6299212598425197
        },
        {
          "duration": 0.38970601875001876,
          "durationTicks": 159,
          "midi": 51,
          "name": "D#3",
          "ticks": 76800,
          "time": 188.23536000000001,
          "velocity": 0.6299212598425197
        },
        {
          "duration": 0.38970601874999033,
          "durationTicks": 159,
          "midi": 54,
          "name": "F#3",
          "ticks": 76960,
          "time": 188.627517,
          "velocity": 0.6299212598425197
        },
        {
          "duration": 0.38970601874999033,
          "durationTicks": 159,
          "midi": 57,
          "name": "A3",
          "ticks": 77120,
          "time": 189.019674,
          "velocity": 0.6299212598425197
        },
        {
          "duration": 0.38970601875001876,
          "durationTicks": 159,
          "midi": 51,
          "name": "D#3",
          "ticks": 77280,
          "time": 189.411831,
          "velocity": 0.6299212598425197
        },
        {
          "duration": 0.3897060187499619,
          "durationTicks": 159,
          "midi": 54,
          "name": "F#3",
          "ticks": 77440,
          "time": 189.80398800000003,
          "velocity": 0.6299212598425197
        },
        {
          "duration": 0.38970601875001876,
          "durationTicks": 159,
          "midi": 57,
          "name": "A3",
          "ticks": 77600,
          "time": 190.196145,
          "velocity": 0.6299212598425197
        },
        {
          "duration": 0.38970601875001876,
          "durationTicks": 159,
          "midi": 51,
          "name": "D#3",
          "ticks": 77760,
          "time": 190.588302,
          "velocity": 0.6299212598425197
        },
        {
          "duration": 0.3897060187499619,
          "durationTicks": 159,
          "midi": 56,
          "name": "G#3",
          "ticks": 77920,
          "time": 190.98045900000002,
          "velocity": 0.6299212598425197
        },
        {
          "duration": 0.38970601875001876,
          "durationTicks": 159,
          "midi": 60,
          "name": "C4",
          "ticks": 78080,
          "time": 191.372616,
          "velocity": 0.6299212598425197
        },
        {
          "duration": 0.38970601874999033,
          "durationTicks": 159,
          "midi": 51,
          "name": "D#3",
          "ticks": 78240,
          "time": 191.76477300000002,
          "velocity": 0.6299212598425197
        },
        {
          "duration": 0.38970601874999033,
          "durationTicks": 159,
          "midi": 54,
          "name": "F#3",
          "ticks": 78400,
          "time": 192.15693000000002,
          "velocity": 0.6299212598425197
        },
        {
          "duration": 0.38970601875001876,
          "durationTicks": 159,
          "midi": 60,
          "name": "C4",
          "ticks": 78560,
          "time": 192.549087,
          "velocity": 0.6299212598425197
        },
        {
          "duration": 0.38970601875001876,
          "durationTicks": 159,
          "midi": 52,
          "name": "E3",
          "ticks": 78720,
          "time": 192.941244,
          "velocity": 0.6299212598425197
        },
        {
          "duration": 0.38970601874999033,
          "durationTicks": 159,
          "midi": 56,
          "name": "G#3",
          "ticks": 78880,
          "time": 193.333401,
          "velocity": 0.6299212598425197
        },
        {
          "duration": 0.38970601874999033,
          "durationTicks": 159,
          "midi": 61,
          "name": "C#4",
          "ticks": 79040,
          "time": 193.725558,
          "velocity": 0.6299212598425197
        },
        {
          "duration": 0.38970601875001876,
          "durationTicks": 159,
          "midi": 56,
          "name": "G#3",
          "ticks": 79200,
          "time": 194.117715,
          "velocity": 0.6299212598425197
        },
        {
          "duration": 0.3897060187499619,
          "durationTicks": 159,
          "midi": 61,
          "name": "C#4",
          "ticks": 79360,
          "time": 194.50987200000003,
          "velocity": 0.6299212598425197
        },
        {
          "duration": 0.38970601875001876,
          "durationTicks": 159,
          "midi": 64,
          "name": "E4",
          "ticks": 79520,
          "time": 194.902029,
          "velocity": 0.6299212598425197
        },
        {
          "duration": 0.38970601875001876,
          "durationTicks": 159,
          "midi": 56,
          "name": "G#3",
          "ticks": 79680,
          "time": 195.294186,
          "velocity": 0.6299212598425197
        },
        {
          "duration": 0.38970601874999033,
          "durationTicks": 159,
          "midi": 61,
          "name": "C#4",
          "ticks": 79840,
          "time": 195.68634300000002,
          "velocity": 0.6299212598425197
        },
        {
          "duration": 0.38970601875001876,
          "durationTicks": 159,
          "midi": 64,
          "name": "E4",
          "ticks": 80000,
          "time": 196.0785,
          "velocity": 0.6299212598425197
        },
        {
          "duration": 0.8799022687499871,
          "durationTicks": 359,
          "midi": 68,
          "name": "G#4",
          "ticks": 80160,
          "time": 196.47065700000002,
          "velocity": 0.6299212598425197
        },
        {
          "duration": 0.38970601874999033,
          "durationTicks": 159,
          "midi": 56,
          "name": "G#3",
          "ticks": 80160,
          "time": 196.47065700000002,
          "velocity": 0.6299212598425197
        },
        {
          "duration": 0.38970601874999033,
          "durationTicks": 159,
          "midi": 61,
          "name": "C#4",
          "ticks": 80320,
          "time": 196.86281400000001,
          "velocity": 0.6299212598425197
        },
        {
          "duration": 0.38970601875001876,
          "durationTicks": 159,
          "midi": 64,
          "name": "E4",
          "ticks": 80480,
          "time": 197.25497099999998,
          "velocity": 0.6299212598425197
        },
        {
          "duration": 0.291666768749991,
          "durationTicks": 119,
          "midi": 68,
          "name": "G#4",
          "ticks": 80520,
          "time": 197.35301025,
          "velocity": 0.6299212598425197
        },
        {
          "duration": 3.526962018749998,
          "durationTicks": 1439,
          "midi": 68,
          "name": "G#4",
          "ticks": 80640,
          "time": 197.647128,
          "velocity": 0.6299212598425197
        },
        {
          "duration": 0.38970601875001876,
          "durationTicks": 159,
          "midi": 56,
          "name": "G#3",
          "ticks": 80640,
          "time": 197.647128,
          "velocity": 0.6299212598425197
        },
        {
          "duration": 0.38970601874999033,
          "durationTicks": 159,
          "midi": 63,
          "name": "D#4",
          "ticks": 80800,
          "time": 198.039285,
          "velocity": 0.6299212598425197
        },
        {
          "duration": 0.38970601875001876,
          "durationTicks": 159,
          "midi": 66,
          "name": "F#4",
          "ticks": 80960,
          "time": 198.431442,
          "velocity": 0.6299212598425197
        },
        {
          "duration": 0.38970601875001876,
          "durationTicks": 159,
          "midi": 56,
          "name": "G#3",
          "ticks": 81120,
          "time": 198.823599,
          "velocity": 0.6299212598425197
        },
        {
          "duration": 0.3897060187499619,
          "durationTicks": 159,
          "midi": 63,
          "name": "D#4",
          "ticks": 81280,
          "time": 199.21575600000003,
          "velocity": 0.6299212598425197
        },
        {
          "duration": 0.38970601875001876,
          "durationTicks": 159,
          "midi": 66,
          "name": "F#4",
          "ticks": 81440,
          "time": 199.607913,
          "velocity": 0.6299212598425197
        },
        {
          "duration": 0.38970601875001876,
          "durationTicks": 159,
          "midi": 56,
          "name": "G#3",
          "ticks": 81600,
          "time": 200.00007,
          "velocity": 0.6299212598425197
        },
        {
          "duration": 0.38970601874999033,
          "durationTicks": 159,
          "midi": 63,
          "name": "D#4",
          "ticks": 81760,
          "time": 200.39222700000002,
          "velocity": 0.6299212598425197
        },
        {
          "duration": 0.38970601875001876,
          "durationTicks": 159,
          "midi": 66,
          "name": "F#4",
          "ticks": 81920,
          "time": 200.784384,
          "velocity": 0.6299212598425197
        },
        {
          "duration": 0.8799022687499871,
          "durationTicks": 359,
          "midi": 68,
          "name": "G#4",
          "ticks": 82080,
          "time": 201.17654100000001,
          "velocity": 0.6299212598425197
        },
        {
          "duration": 0.38970601875001876,
          "durationTicks": 159,
          "midi": 56,
          "name": "G#3",
          "ticks": 82080,
          "time": 201.17654100000001,
          "velocity": 0.6299212598425197
        },
        {
          "duration": 0.38970601874999033,
          "durationTicks": 159,
          "midi": 63,
          "name": "D#4",
          "ticks": 82240,
          "time": 201.568698,
          "velocity": 0.6299212598425197
        },
        {
          "duration": 0.38970601874999033,
          "durationTicks": 159,
          "midi": 66,
          "name": "F#4",
          "ticks": 82400,
          "time": 201.960855,
          "velocity": 0.6299212598425197
        },
        {
          "duration": 0.291666768749991,
          "durationTicks": 119,
          "midi": 68,
          "name": "G#4",
          "ticks": 82440,
          "time": 202.05889425,
          "velocity": 0.6299212598425197
        },
        {
          "duration": 2.350491018750006,
          "durationTicks": 959,
          "midi": 68,
          "name": "G#4",
          "ticks": 82560,
          "time": 202.353012,
          "velocity": 0.6299212598425197
        },
        {
          "duration": 0.38970601875001876,
          "durationTicks": 159,
          "midi": 56,
          "name": "G#3",
          "ticks": 82560,
          "time": 202.353012,
          "velocity": 0.6299212598425197
        },
        {
          "duration": 0.3897060187499619,
          "durationTicks": 159,
          "midi": 61,
          "name": "C#4",
          "ticks": 82720,
          "time": 202.74516900000003,
          "velocity": 0.6299212598425197
        },
        {
          "duration": 0.38970601875001876,
          "durationTicks": 159,
          "midi": 64,
          "name": "E4",
          "ticks": 82880,
          "time": 203.137326,
          "velocity": 0.6299212598425197
        },
        {
          "duration": 0.38970601875001876,
          "durationTicks": 159,
          "midi": 56,
          "name": "G#3",
          "ticks": 83040,
          "time": 203.529483,
          "velocity": 0.6299212598425197
        },
        {
          "duration": 0.3897060187499619,
          "durationTicks": 159,
          "midi": 61,
          "name": "C#4",
          "ticks": 83200,
          "time": 203.92164000000002,
          "velocity": 0.6299212598425197
        },
        {
          "duration": 0.38970601875001876,
          "durationTicks": 159,
          "midi": 64,
          "name": "E4",
          "ticks": 83360,
          "time": 204.313797,
          "velocity": 0.6299212598425197
        },
        {
          "duration": 2.3504910187499775,
          "durationTicks": 959,
          "midi": 69,
          "name": "A4",
          "ticks": 83520,
          "time": 204.70595400000002,
          "velocity": 0.6299212598425197
        },
        {
          "duration": 0.38970601874999033,
          "durationTicks": 159,
          "midi": 57,
          "name": "A3",
          "ticks": 83520,
          "time": 204.70595400000002,
          "velocity": 0.6299212598425197
        },
        {
          "duration": 0.38970601874999033,
          "durationTicks": 159,
          "midi": 61,
          "name": "C#4",
          "ticks": 83680,
          "time": 205.09811100000002,
          "velocity": 0.6299212598425197
        },
        {
          "duration": 0.38970601875001876,
          "durationTicks": 159,
          "midi": 66,
          "name": "F#4",
          "ticks": 83840,
          "time": 205.490268,
          "velocity": 0.6299212598425197
        },
        {
          "duration": 0.38970601875001876,
          "durationTicks": 159,
          "midi": 57,
          "name": "A3",
          "ticks": 84000,
          "time": 205.882425,
          "velocity": 0.6299212598425197
        },
        {
          "duration": 0.38970601874999033,
          "durationTicks": 159,
          "midi": 61,
          "name": "C#4",
          "ticks": 84160,
          "time": 206.274582,
          "velocity": 0.6299212598425197
        },
        {
          "duration": 0.38970601874999033,
          "durationTicks": 159,
          "midi": 66,
          "name": "F#4",
          "ticks": 84320,
          "time": 206.666739,
          "velocity": 0.6299212598425197
        },
        {
          "duration": 2.350491018750006,
          "durationTicks": 959,
          "midi": 68,
          "name": "G#4",
          "ticks": 84480,
          "time": 207.058896,
          "velocity": 0.6299212598425197
        },
        {
          "duration": 0.38970601875001876,
          "durationTicks": 159,
          "midi": 56,
          "name": "G#3",
          "ticks": 84480,
          "time": 207.058896,
          "velocity": 0.6299212598425197
        },
        {
          "duration": 0.3897060187499619,
          "durationTicks": 159,
          "midi": 59,
          "name": "B3",
          "ticks": 84640,
          "time": 207.45105300000003,
          "velocity": 0.6299212598425197
        },
        {
          "duration": 0.38970601875001876,
          "durationTicks": 159,
          "midi": 64,
          "name": "E4",
          "ticks": 84800,
          "time": 207.84321,
          "velocity": 0.6299212598425197
        },
        {
          "duration": 0.38970601875001876,
          "durationTicks": 159,
          "midi": 56,
          "name": "G#3",
          "ticks": 84960,
          "time": 208.235367,
          "velocity": 0.6299212598425197
        },
        {
          "duration": 0.38970601874999033,
          "durationTicks": 159,
          "midi": 59,
          "name": "B3",
          "ticks": 85120,
          "time": 208.62752400000002,
          "velocity": 0.6299212598425197
        },
        {
          "duration": 0.38970601875001876,
          "durationTicks": 159,
          "midi": 64,
          "name": "E4",
          "ticks": 85280,
          "time": 209.019681,
          "velocity": 0.6299212598425197
        },
        {
          "duration": 1.1740200187499852,
          "durationTicks": 479,
          "midi": 66,
          "name": "F#4",
          "ticks": 85440,
          "time": 209.41183800000002,
          "velocity": 0.6299212598425197
        },
        {
          "duration": 0.38970601874999033,
          "durationTicks": 159,
          "midi": 57,
          "name": "A3",
          "ticks": 85440,
          "time": 209.41183800000002,
          "velocity": 0.6299212598425197
        },
        {
          "duration": 0.38970601874999033,
          "durationTicks": 159,
          "midi": 59,
          "name": "B3",
          "ticks": 85600,
          "time": 209.80399500000001,
          "velocity": 0.6299212598425197
        },
        {
          "duration": 0.38970601875001876,
          "durationTicks": 159,
          "midi": 63,
          "name": "D#4",
          "ticks": 85760,
          "time": 210.19615199999998,
          "velocity": 0.6299212598425197
        },
        {
          "duration": 1.1740200187500136,
          "durationTicks": 479,
          "midi": 71,
          "name": "B4",
          "ticks": 85920,
          "time": 210.588309,
          "velocity": 0.6299212598425197
        },
        {
          "duration": 0.38970601875001876,
          "durationTicks": 159,
          "midi": 57,
          "name": "A3",
          "ticks": 85920,
          "time": 210.588309,
          "velocity": 0.6299212598425197
        },
        {
          "duration": 0.38970601874999033,
          "durationTicks": 159,
          "midi": 59,
          "name": "B3",
          "ticks": 86080,
          "time": 210.980466,
          "velocity": 0.6299212598425197
        },
        {
          "duration": 0.38970601875001876,
          "durationTicks": 159,
          "midi": 63,
          "name": "D#4",
          "ticks": 86240,
          "time": 211.372623,
          "velocity": 0.6299212598425197
        },
        {
          "duration": 0.7843139999999948,
          "durationTicks": 320,
          "midi": 64,
          "name": "E4",
          "ticks": 86400,
          "time": 211.76478,
          "velocity": 0.6299212598425197
        },
        {
          "duration": 0.38970601875001876,
          "durationTicks": 159,
          "midi": 56,
          "name": "G#3",
          "ticks": 86400,
          "time": 211.76478,
          "velocity": 0.6299212598425197
        },
        {
          "duration": 0.3897060187499619,
          "durationTicks": 159,
          "midi": 59,
          "name": "B3",
          "ticks": 86560,
          "time": 212.15693700000003,
          "velocity": 0.6299212598425197
        },
        {
          "duration": 0.38970601875001876,
          "durationTicks": 159,
          "midi": 64,
          "name": "E4",
          "ticks": 86720,
          "time": 212.549094,
          "velocity": 0.6299212598425197
        },
        {
          "duration": 0.38970601875001876,
          "durationTicks": 159,
          "midi": 59,
          "name": "B3",
          "ticks": 86880,
          "time": 212.941251,
          "velocity": 0.6299212598425197
        },
        {
          "duration": 0.38970601874999033,
          "durationTicks": 159,
          "midi": 64,
          "name": "E4",
          "ticks": 87040,
          "time": 213.33340800000002,
          "velocity": 0.6299212598425197
        },
        {
          "duration": 0.38970601875001876,
          "durationTicks": 159,
          "midi": 68,
          "name": "G#4",
          "ticks": 87200,
          "time": 213.725565,
          "velocity": 0.6299212598425197
        },
        {
          "duration": 0.38970601875001876,
          "durationTicks": 159,
          "midi": 59,
          "name": "B3",
          "ticks": 87360,
          "time": 214.11772200000001,
          "velocity": 0.6299212598425197
        },
        {
          "duration": 0.38970601874999033,
          "durationTicks": 159,
          "midi": 64,
          "name": "E4",
          "ticks": 87520,
          "time": 214.509879,
          "velocity": 0.6299212598425197
        },
        {
          "duration": 0.38970601874999033,
          "durationTicks": 159,
          "midi": 68,
          "name": "G#4",
          "ticks": 87680,
          "time": 214.902036,
          "velocity": 0.6299212598425197
        },
        {
          "duration": 0.7843139999999948,
          "durationTicks": 320,
          "midi": 68,
          "name": "G#4",
          "ticks": 87840,
          "time": 215.294193,
          "velocity": 0.6299212598425197
        },
        {
          "duration": 0.38970601875001876,
          "durationTicks": 159,
          "midi": 59,
          "name": "B3",
          "ticks": 87840,
          "time": 215.294193,
          "velocity": 0.6299212598425197
        },
        {
          "duration": 0.3897060187499619,
          "durationTicks": 159,
          "midi": 64,
          "name": "E4",
          "ticks": 88000,
          "time": 215.68635000000003,
          "velocity": 0.6299212598425197
        },
        {
          "duration": 0.09803924999999936,
          "durationTicks": 40,
          "midi": 68,
          "name": "G#4",
          "ticks": 88160,
          "time": 216.078507,
          "velocity": 0.6299212598425197
        },
        {
          "duration": 0.2916667687500194,
          "durationTicks": 119,
          "midi": 68,
          "name": "G#4",
          "ticks": 88200,
          "time": 216.17654625,
          "velocity": 0.6299212598425197
        },
        {
          "duration": 3.526962018749998,
          "durationTicks": 1439,
          "midi": 68,
          "name": "G#4",
          "ticks": 88320,
          "time": 216.470664,
          "velocity": 0.6299212598425197
        },
        {
          "duration": 0.38970601875001876,
          "durationTicks": 159,
          "midi": 59,
          "name": "B3",
          "ticks": 88320,
          "time": 216.470664,
          "velocity": 0.6299212598425197
        },
        {
          "duration": 0.3897060187499619,
          "durationTicks": 159,
          "midi": 66,
          "name": "F#4",
          "ticks": 88480,
          "time": 216.86282100000003,
          "velocity": 0.6299212598425197
        },
        {
          "duration": 0.38970601875001876,
          "durationTicks": 159,
          "midi": 69,
          "name": "A4",
          "ticks": 88640,
          "time": 217.254978,
          "velocity": 0.6299212598425197
        },
        {
          "duration": 0.38970601874999033,
          "durationTicks": 159,
          "midi": 59,
          "name": "B3",
          "ticks": 88800,
          "time": 217.64713500000002,
          "velocity": 0.6299212598425197
        },
        {
          "duration": 0.38970601874999033,
          "durationTicks": 159,
          "midi": 66,
          "name": "F#4",
          "ticks": 88960,
          "time": 218.03929200000002,
          "velocity": 0.6299212598425197
        },
        {
          "duration": 0.38970601875001876,
          "durationTicks": 159,
          "midi": 69,
          "name": "A4",
          "ticks": 89120,
          "time": 218.431449,
          "velocity": 0.6299212598425197
        },
        {
          "duration": 0.38970601875001876,
          "durationTicks": 159,
          "midi": 59,
          "name": "B3",
          "ticks": 89280,
          "time": 218.823606,
          "velocity": 0.6299212598425197
        },
        {
          "duration": 0.38970601874999033,
          "durationTicks": 159,
          "midi": 66,
          "name": "F#4",
          "ticks": 89440,
          "time": 219.215763,
          "velocity": 0.6299212598425197
        },
        {
          "duration": 0.38970601874999033,
          "durationTicks": 159,
          "midi": 69,
          "name": "A4",
          "ticks": 89600,
          "time": 219.60792,
          "velocity": 0.6299212598425197
        },
        {
          "duration": 0.8799022687500155,
          "durationTicks": 359,
          "midi": 68,
          "name": "G#4",
          "ticks": 89760,
          "time": 220.000077,
          "velocity": 0.6299212598425197
        },
        {
          "duration": 0.38970601875001876,
          "durationTicks": 159,
          "midi": 59,
          "name": "B3",
          "ticks": 89760,
          "time": 220.000077,
          "velocity": 0.6299212598425197
        },
        {
          "duration": 0.3897060187499619,
          "durationTicks": 159,
          "midi": 66,
          "name": "F#4",
          "ticks": 89920,
          "time": 220.39223400000003,
          "velocity": 0.6299212598425197
        },
        {
          "duration": 0.38970601875001876,
          "durationTicks": 159,
          "midi": 69,
          "name": "A4",
          "ticks": 90080,
          "time": 220.784391,
          "velocity": 0.6299212598425197
        },
        {
          "duration": 0.2916667687500194,
          "durationTicks": 119,
          "midi": 68,
          "name": "G#4",
          "ticks": 90120,
          "time": 220.88243025,
          "velocity": 0.6299212598425197
        },
        {
          "duration": 2.350491018750006,
          "durationTicks": 959,
          "midi": 71,
          "name": "B4",
          "ticks": 90240,
          "time": 221.176548,
          "velocity": 0.6299212598425197
        },
        {
          "duration": 0.38970601875001876,
          "durationTicks": 159,
          "midi": 59,
          "name": "B3",
          "ticks": 90240,
          "time": 221.176548,
          "velocity": 0.6299212598425197
        },
        {
          "duration": 0.38970601874999033,
          "durationTicks": 159,
          "midi": 64,
          "name": "E4",
          "ticks": 90400,
          "time": 221.56870500000002,
          "velocity": 0.6299212598425197
        },
        {
          "duration": 0.38970601875001876,
          "durationTicks": 159,
          "midi": 68,
          "name": "G#4",
          "ticks": 90560,
          "time": 221.960862,
          "velocity": 0.6299212598425197
        },
        {
          "duration": 0.38970601874999033,
          "durationTicks": 159,
          "midi": 59,
          "name": "B3",
          "ticks": 90720,
          "time": 222.35301900000002,
          "velocity": 0.6299212598425197
        },
        {
          "duration": 0.38970601874999033,
          "durationTicks": 159,
          "midi": 64,
          "name": "E4",
          "ticks": 90880,
          "time": 222.74517600000001,
          "velocity": 0.6299212598425197
        },
        {
          "duration": 0.38970601875001876,
          "durationTicks": 159,
          "midi": 68,
          "name": "G#4",
          "ticks": 91040,
          "time": 223.13733299999998,
          "velocity": 0.6299212598425197
        },
        {
          "duration": 1.1740200187500136,
          "durationTicks": 479,
          "midi": 72,
          "name": "C5",
          "ticks": 91200,
          "time": 223.52949,
          "velocity": 0.6299212598425197
        },
        {
          "duration": 0.38970601875001876,
          "durationTicks": 159,
          "midi": 60,
          "name": "C4",
          "ticks": 91200,
          "time": 223.52949,
          "velocity": 0.6299212598425197
        },
        {
          "duration": 0.38970601874999033,
          "durationTicks": 159,
          "midi": 66,
          "name": "F#4",
          "ticks": 91360,
          "time": 223.921647,
          "velocity": 0.6299212598425197
        },
        {
          "duration": 0.38970601875001876,
          "durationTicks": 159,
          "midi": 68,
          "name": "G#4",
          "ticks": 91520,
          "time": 224.313804,
          "velocity": 0.6299212598425197
        },
        {
          "duration": 1.1740200187500136,
          "durationTicks": 479,
          "midi": 73,
          "name": "C#5",
          "ticks": 91680,
          "time": 224.705961,
          "velocity": 0.6299212598425197
        },
        {
          "duration": 0.38970601875001876,
          "durationTicks": 159,
          "midi": 61,
          "name": "C#4",
          "ticks": 91680,
          "time": 224.705961,
          "velocity": 0.6299212598425197
        },
        {
          "duration": 0.3897060187499619,
          "durationTicks": 159,
          "midi": 64,
          "name": "E4",
          "ticks": 91840,
          "time": 225.09811800000003,
          "velocity": 0.6299212598425197
        },
        {
          "duration": 0.38970601875001876,
          "durationTicks": 159,
          "midi": 68,
          "name": "G#4",
          "ticks": 92000,
          "time": 225.490275,
          "velocity": 0.6299212598425197
        },
        {
          "duration": 2.350491018750006,
          "durationTicks": 959,
          "midi": 75,
          "name": "D#5",
          "ticks": 92160,
          "time": 225.882432,
          "velocity": 0.6299212598425197
        },
        {
          "duration": 0.38970601875001876,
          "durationTicks": 159,
          "midi": 63,
          "name": "D#4",
          "ticks": 92160,
          "time": 225.882432,
          "velocity": 0.6299212598425197
        },
        {
          "duration": 0.38970601874999033,
          "durationTicks": 159,
          "midi": 66,
          "name": "F#4",
          "ticks": 92320,
          "time": 226.27458900000002,
          "velocity": 0.6299212598425197
        },
        {
          "duration": 0.38970601875001876,
          "durationTicks": 159,
          "midi": 68,
          "name": "G#4",
          "ticks": 92480,
          "time": 226.666746,
          "velocity": 0.6299212598425197
        },
        {
          "duration": 0.38970601875001876,
          "durationTicks": 159,
          "midi": 63,
          "name": "D#4",
          "ticks": 92640,
          "time": 227.05890300000002,
          "velocity": 0.6299212598425197
        },
        {
          "duration": 0.38970601874999033,
          "durationTicks": 159,
          "midi": 66,
          "name": "F#4",
          "ticks": 92800,
          "time": 227.45106,
          "velocity": 0.6299212598425197
        },
        {
          "duration": 0.38970601874999033,
          "durationTicks": 159,
          "midi": 68,
          "name": "G#4",
          "ticks": 92960,
          "time": 227.843217,
          "velocity": 0.6299212598425197
        },
        {
          "duration": 2.350491018750006,
          "durationTicks": 959,
          "midi": 76,
          "name": "E5",
          "ticks": 93120,
          "time": 228.235374,
          "velocity": 0.6299212598425197
        },
        {
          "duration": 0.38970601875001876,
          "durationTicks": 159,
          "midi": 64,
          "name": "E4",
          "ticks": 93120,
          "time": 228.235374,
          "velocity": 0.6299212598425197
        },
        {
          "duration": 0.3897060187499619,
          "durationTicks": 159,
          "midi": 68,
          "name": "G#4",
          "ticks": 93280,
          "time": 228.62753100000003,
          "velocity": 0.6299212598425197
        },
        {
          "duration": 0.38970601875001876,
          "durationTicks": 159,
          "midi": 73,
          "name": "C#5",
          "ticks": 93440,
          "time": 229.019688,
          "velocity": 0.6299212598425197
        },
        {
          "duration": 0.38970601875001876,
          "durationTicks": 159,
          "midi": 64,
          "name": "E4",
          "ticks": 93600,
          "time": 229.411845,
          "velocity": 0.6299212598425197
        },
        {
          "duration": 0.3897060187499619,
          "durationTicks": 159,
          "midi": 68,
          "name": "G#4",
          "ticks": 93760,
          "time": 229.80400200000003,
          "velocity": 0.6299212598425197
        },
        {
          "duration": 0.38970601875001876,
          "durationTicks": 159,
          "midi": 73,
          "name": "C#5",
          "ticks": 93920,
          "time": 230.196159,
          "velocity": 0.6299212598425197
        },
        {
          "duration": 2.3504910187499775,
          "durationTicks": 959,
          "midi": 74,
          "name": "D5",
          "ticks": 94080,
          "time": 230.58831600000002,
          "velocity": 0.6299212598425197
        },
        {
          "duration": 0.38970601874999033,
          "durationTicks": 159,
          "midi": 62,
          "name": "D4",
          "ticks": 94080,
          "time": 230.58831600000002,
          "velocity": 0.6299212598425197
        },
        {
          "duration": 0.38970601874999033,
          "durationTicks": 159,
          "midi": 66,
          "name": "F#4",
          "ticks": 94240,
          "time": 230.98047300000002,
          "velocity": 0.6299212598425197
        },
        {
          "duration": 0.38970601875001876,
          "durationTicks": 159,
          "midi": 69,
          "name": "A4",
          "ticks": 94400,
          "time": 231.37263,
          "velocity": 0.6299212598425197
        },
        {
          "duration": 0.38970601875001876,
          "durationTicks": 159,
          "midi": 62,
          "name": "D4",
          "ticks": 94560,
          "time": 231.764787,
          "velocity": 0.6299212598425197
        },
        {
          "duration": 0.38970601874999033,
          "durationTicks": 159,
          "midi": 66,
          "name": "F#4",
          "ticks": 94720,
          "time": 232.156944,
          "velocity": 0.6299212598425197
        },
        {
          "duration": 0.38970601874999033,
          "durationTicks": 159,
          "midi": 69,
          "name": "A4",
          "ticks": 94880,
          "time": 232.549101,
          "velocity": 0.6299212598425197
        },
        {
          "duration": 2.350491018750006,
          "durationTicks": 959,
          "midi": 72,
          "name": "C5",
          "ticks": 95040,
          "time": 232.941258,
          "velocity": 0.6299212598425197
        },
        {
          "duration": 0.38970601875001876,
          "durationTicks": 159,
          "midi": 60,
          "name": "C4",
          "ticks": 95040,
          "time": 232.941258,
          "velocity": 0.6299212598425197
        },
        {
          "duration": 0.3897060187499619,
          "durationTicks": 159,
          "midi": 66,
          "name": "F#4",
          "ticks": 95200,
          "time": 233.33341500000003,
          "velocity": 0.6299212598425197
        },
        {
          "duration": 0.38970601875001876,
          "durationTicks": 159,
          "midi": 68,
          "name": "G#4",
          "ticks": 95360,
          "time": 233.725572,
          "velocity": 0.6299212598425197
        },
        {
          "duration": 0.38970601875001876,
          "durationTicks": 159,
          "midi": 60,
          "name": "C4",
          "ticks": 95520,
          "time": 234.117729,
          "velocity": 0.6299212598425197
        },
        {
          "duration": 0.38970601874999033,
          "durationTicks": 159,
          "midi": 66,
          "name": "F#4",
          "ticks": 95680,
          "time": 234.50988600000002,
          "velocity": 0.6299212598425197
        },
        {
          "duration": 0.38970601875001876,
          "durationTicks": 159,
          "midi": 68,
          "name": "G#4",
          "ticks": 95840,
          "time": 234.902043,
          "velocity": 0.6299212598425197
        },
        {
          "duration": 3.526962018749998,
          "durationTicks": 1439,
          "midi": 73,
          "name": "C#5",
          "ticks": 96000,
          "time": 235.29420000000002,
          "velocity": 0.6299212598425197
        },
        {
          "duration": 0.38970601874999033,
          "durationTicks": 159,
          "midi": 61,
          "name": "C#4",
          "ticks": 96000,
          "time": 235.29420000000002,
          "velocity": 0.6299212598425197
        },
        {
          "duration": 0.38970601874999033,
          "durationTicks": 159,
          "midi": 64,
          "name": "E4",
          "ticks": 96160,
          "time": 235.68635700000002,
          "velocity": 0.6299212598425197
        },
        {
          "duration": 0.38970601875001876,
          "durationTicks": 159,
          "midi": 68,
          "name": "G#4",
          "ticks": 96320,
          "time": 236.07851399999998,
          "velocity": 0.6299212598425197
        },
        {
          "duration": 0.38970601875001876,
          "durationTicks": 159,
          "midi": 61,
          "name": "C#4",
          "ticks": 96480,
          "time": 236.470671,
          "velocity": 0.6299212598425197
        },
        {
          "duration": 0.38970601874999033,
          "durationTicks": 159,
          "midi": 64,
          "name": "E4",
          "ticks": 96640,
          "time": 236.862828,
          "velocity": 0.6299212598425197
        },
        {
          "duration": 0.38970601875001876,
          "durationTicks": 159,
          "midi": 68,
          "name": "G#4",
          "ticks": 96800,
          "time": 237.254985,
          "velocity": 0.6299212598425197
        },
        {
          "duration": 0.38970601875001876,
          "durationTicks": 159,
          "midi": 61,
          "name": "C#4",
          "ticks": 96960,
          "time": 237.647142,
          "velocity": 0.6299212598425197
        },
        {
          "duration": 0.3897060187499619,
          "durationTicks": 159,
          "midi": 65,
          "name": "F4",
          "ticks": 97120,
          "time": 238.03929900000003,
          "velocity": 0.6299212598425197
        },
        {
          "duration": 0.38970601875001876,
          "durationTicks": 159,
          "midi": 68,
          "name": "G#4",
          "ticks": 97280,
          "time": 238.431456,
          "velocity": 0.6299212598425197
        },
        {
          "duration": 1.1740200187499852,
          "durationTicks": 479,
          "midi": 73,
          "name": "C#5",
          "ticks": 97440,
          "time": 238.82361300000002,
          "velocity": 0.6299212598425197
        },
        {
          "duration": 0.38970601874999033,
          "durationTicks": 159,
          "midi": 61,
          "name": "C#4",
          "ticks": 97440,
          "time": 238.82361300000002,
          "velocity": 0.6299212598425197
        },
        {
          "duration": 0.38970601874999033,
          "durationTicks": 159,
          "midi": 65,
          "name": "F4",
          "ticks": 97600,
          "time": 239.21577000000002,
          "velocity": 0.6299212598425197
        },
        {
          "duration": 0.38970601875001876,
          "durationTicks": 159,
          "midi": 68,
          "name": "G#4",
          "ticks": 97760,
          "time": 239.607927,
          "velocity": 0.6299212598425197
        },
        {
          "duration": 3.526962018749998,
          "durationTicks": 1439,
          "midi": 74,
          "name": "D5",
          "ticks": 97920,
          "time": 240.00008400000002,
          "velocity": 0.6299212598425197
        },
        {
          "duration": 0.38970601875001876,
          "durationTicks": 159,
          "midi": 61,
          "name": "C#4",
          "ticks": 97920,
          "time": 240.00008400000002,
          "velocity": 0.6299212598425197
        },
        {
          "duration": 0.38970601874999033,
          "durationTicks": 159,
          "midi": 66,
          "name": "F#4",
          "ticks": 98080,
          "time": 240.392241,
          "velocity": 0.6299212598425197
        },
        {
          "duration": 0.38970601874999033,
          "durationTicks": 159,
          "midi": 69,
          "name": "A4",
          "ticks": 98240,
          "time": 240.784398,
          "velocity": 0.6299212598425197
        },
        {
          "duration": 0.38970601875001876,
          "durationTicks": 159,
          "midi": 61,
          "name": "C#4",
          "ticks": 98400,
          "time": 241.176555,
          "velocity": 0.6299212598425197
        },
        {
          "duration": 0.3897060187499619,
          "durationTicks": 159,
          "midi": 66,
          "name": "F#4",
          "ticks": 98560,
          "time": 241.56871200000003,
          "velocity": 0.6299212598425197
        },
        {
          "duration": 0.38970601875001876,
          "durationTicks": 159,
          "midi": 69,
          "name": "A4",
          "ticks": 98720,
          "time": 241.960869,
          "velocity": 0.6299212598425197
        },
        {
          "duration": 0.38970601875001876,
          "durationTicks": 159,
          "midi": 61,
          "name": "C#4",
          "ticks": 98880,
          "time": 242.353026,
          "velocity": 0.6299212598425197
        },
        {
          "duration": 0.3897060187499619,
          "durationTicks": 159,
          "midi": 66,
          "name": "F#4",
          "ticks": 99040,
          "time": 242.74518300000003,
          "velocity": 0.6299212598425197
        },
        {
          "duration": 0.38970601875001876,
          "durationTicks": 159,
          "midi": 69,
          "name": "A4",
          "ticks": 99200,
          "time": 243.13734,
          "velocity": 0.6299212598425197
        },
        {
          "duration": 1.1740200187499852,
          "durationTicks": 479,
          "midi": 72,
          "name": "C5",
          "ticks": 99360,
          "time": 243.52949700000002,
          "velocity": 0.6299212598425197
        },
        {
          "duration": 0.38970601874999033,
          "durationTicks": 159,
          "midi": 61,
          "name": "C#4",
          "ticks": 99360,
          "time": 243.52949700000002,
          "velocity": 0.6299212598425197
        },
        {
          "duration": 0.38970601874999033,
          "durationTicks": 159,
          "midi": 66,
          "name": "F#4",
          "ticks": 99520,
          "time": 243.92165400000002,
          "velocity": 0.6299212598425197
        },
        {
          "duration": 0.38970601875001876,
          "durationTicks": 159,
          "midi": 69,
          "name": "A4",
          "ticks": 99680,
          "time": 244.313811,
          "velocity": 0.6299212598425197
        },
        {
          "duration": 3.526962018749998,
          "durationTicks": 1439,
          "midi": 73,
          "name": "C#5",
          "ticks": 99840,
          "time": 244.705968,
          "velocity": 0.6299212598425197
        },
        {
          "duration": 0.38970601875001876,
          "durationTicks": 159,
          "midi": 61,
          "name": "C#4",
          "ticks": 99840,
          "time": 244.705968,
          "velocity": 0.6299212598425197
        },
        {
          "duration": 0.38970601874999033,
          "durationTicks": 159,
          "midi": 65,
          "name": "F4",
          "ticks": 100000,
          "time": 245.098125,
          "velocity": 0.6299212598425197
        },
        {
          "duration": 0.38970601874999033,
          "durationTicks": 159,
          "midi": 68,
          "name": "G#4",
          "ticks": 100160,
          "time": 245.490282,
          "velocity": 0.6299212598425197
        },
        {
          "duration": 0.38970601875001876,
          "durationTicks": 159,
          "midi": 61,
          "name": "C#4",
          "ticks": 100320,
          "time": 245.882439,
          "velocity": 0.6299212598425197
        },
        {
          "duration": 0.3897060187499619,
          "durationTicks": 159,
          "midi": 65,
          "name": "F4",
          "ticks": 100480,
          "time": 246.27459600000003,
          "velocity": 0.6299212598425197
        },
        {
          "duration": 0.38970601875001876,
          "durationTicks": 159,
          "midi": 68,
          "name": "G#4",
          "ticks": 100640,
          "time": 246.666753,
          "velocity": 0.6299212598425197
        },
        {
          "duration": 0.38970601875001876,
          "durationTicks": 159,
          "midi": 61,
          "name": "C#4",
          "ticks": 100800,
          "time": 247.05891,
          "velocity": 0.6299212598425197
        },
        {
          "duration": 0.38970601874999033,
          "durationTicks": 159,
          "midi": 65,
          "name": "F4",
          "ticks": 100960,
          "time": 247.45106700000002,
          "velocity": 0.6299212598425197
        },
        {
          "duration": 0.38970601875001876,
          "durationTicks": 159,
          "midi": 68,
          "name": "G#4",
          "ticks": 101120,
          "time": 247.843224,
          "velocity": 0.6299212598425197
        },
        {
          "duration": 1.1740200187499852,
          "durationTicks": 479,
          "midi": 73,
          "name": "C#5",
          "ticks": 101280,
          "time": 248.23538100000002,
          "velocity": 0.6299212598425197
        },
        {
          "duration": 0.38970601875001876,
          "durationTicks": 159,
          "midi": 61,
          "name": "C#4",
          "ticks": 101280,
          "time": 248.23538100000002,
          "velocity": 0.6299212598425197
        },
        {
          "duration": 0.38970601874999033,
          "durationTicks": 159,
          "midi": 65,
          "name": "F4",
          "ticks": 101440,
          "time": 248.62753800000002,
          "velocity": 0.6299212598425197
        },
        {
          "duration": 0.38970601875001876,
          "durationTicks": 159,
          "midi": 68,
          "name": "G#4",
          "ticks": 101600,
          "time": 249.01969499999998,
          "velocity": 0.6299212598425197
        },
        {
          "duration": 3.526962018749998,
          "durationTicks": 1439,
          "midi": 74,
          "name": "D5",
          "ticks": 101760,
          "time": 249.411852,
          "velocity": 0.6299212598425197
        },
        {
          "duration": 0.38970601875001876,
          "durationTicks": 159,
          "midi": 61,
          "name": "C#4",
          "ticks": 101760,
          "time": 249.411852,
          "velocity": 0.6299212598425197
        },
        {
          "duration": 0.38970601874999033,
          "durationTicks": 159,
          "midi": 66,
          "name": "F#4",
          "ticks": 101920,
          "time": 249.804009,
          "velocity": 0.6299212598425197
        },
        {
          "duration": 0.38970601875001876,
          "durationTicks": 159,
          "midi": 69,
          "name": "A4",
          "ticks": 102080,
          "time": 250.196166,
          "velocity": 0.6299212598425197
        },
        {
          "duration": 0.38970601875001876,
          "durationTicks": 159,
          "midi": 61,
          "name": "C#4",
          "ticks": 102240,
          "time": 250.588323,
          "velocity": 0.6299212598425197
        },
        {
          "duration": 0.3897060187499619,
          "durationTicks": 159,
          "midi": 66,
          "name": "F#4",
          "ticks": 102400,
          "time": 250.98048000000003,
          "velocity": 0.6299212598425197
        },
        {
          "duration": 0.38970601875001876,
          "durationTicks": 159,
          "midi": 69,
          "name": "A4",
          "ticks": 102560,
          "time": 251.372637,
          "velocity": 0.6299212598425197
        },
        {
          "duration": 0.38970601874999033,
          "durationTicks": 159,
          "midi": 61,
          "name": "C#4",
          "ticks": 102720,
          "time": 251.76479400000002,
          "velocity": 0.6299212598425197
        },
        {
          "duration": 0.38970601874999033,
          "durationTicks": 159,
          "midi": 66,
          "name": "F#4",
          "ticks": 102880,
          "time": 252.15695100000002,
          "velocity": 0.6299212598425197
        },
        {
          "duration": 0.38970601875001876,
          "durationTicks": 159,
          "midi": 69,
          "name": "A4",
          "ticks": 103040,
          "time": 252.549108,
          "velocity": 0.6299212598425197
        },
        {
          "duration": 1.1740200187499852,
          "durationTicks": 479,
          "midi": 72,
          "name": "C5",
          "ticks": 103200,
          "time": 252.94126500000002,
          "velocity": 0.6299212598425197
        },
        {
          "duration": 0.38970601875001876,
          "durationTicks": 159,
          "midi": 61,
          "name": "C#4",
          "ticks": 103200,
          "time": 252.94126500000002,
          "velocity": 0.6299212598425197
        },
        {
          "duration": 0.38970601874999033,
          "durationTicks": 159,
          "midi": 66,
          "name": "F#4",
          "ticks": 103360,
          "time": 253.333422,
          "velocity": 0.6299212598425197
        },
        {
          "duration": 0.38970601874999033,
          "durationTicks": 159,
          "midi": 69,
          "name": "A4",
          "ticks": 103520,
          "time": 253.725579,
          "velocity": 0.6299212598425197
        },
        {
          "duration": 2.3504910187499775,
          "durationTicks": 959,
          "midi": 73,
          "name": "C#5",
          "ticks": 103680,
          "time": 254.117736,
          "velocity": 0.6299212598425197
        },
        {
          "duration": 0.38970601875001876,
          "durationTicks": 159,
          "midi": 61,
          "name": "C#4",
          "ticks": 103680,
          "time": 254.117736,
          "velocity": 0.6299212598425197
        },
        {
          "duration": 0.3897060187499619,
          "durationTicks": 159,
          "midi": 65,
          "name": "F4",
          "ticks": 103840,
          "time": 254.50989300000003,
          "velocity": 0.6299212598425197
        },
        {
          "duration": 0.38970601875001876,
          "durationTicks": 159,
          "midi": 68,
          "name": "G#4",
          "ticks": 104000,
          "time": 254.90205,
          "velocity": 0.6299212598425197
        },
        {
          "duration": 0.38970601875001876,
          "durationTicks": 159,
          "midi": 61,
          "name": "C#4",
          "ticks": 104160,
          "time": 255.294207,
          "velocity": 0.6299212598425197
        },
        {
          "duration": 0.3897060187499619,
          "durationTicks": 159,
          "midi": 65,
          "name": "F4",
          "ticks": 104320,
          "time": 255.68636400000003,
          "velocity": 0.6299212598425197
        },
        {
          "duration": 0.3897060187499619,
          "durationTicks": 159,
          "midi": 68,
          "name": "G#4",
          "ticks": 104480,
          "time": 256.078521,
          "velocity": 0.6299212598425197
        },
        {
          "duration": 2.350491018750006,
          "durationTicks": 959,
          "midi": 73,
          "name": "C#5",
          "ticks": 104640,
          "time": 256.470678,
          "velocity": 0.6299212598425197
        },
        {
          "duration": 0.38970601875001876,
          "durationTicks": 159,
          "midi": 61,
          "name": "C#4",
          "ticks": 104640,
          "time": 256.470678,
          "velocity": 0.6299212598425197
        },
        {
          "duration": 0.3897060187499619,
          "durationTicks": 159,
          "midi": 66,
          "name": "F#4",
          "ticks": 104800,
          "time": 256.862835,
          "velocity": 0.6299212598425197
        },
        {
          "duration": 0.38970601875001876,
          "durationTicks": 159,
          "midi": 69,
          "name": "A4",
          "ticks": 104960,
          "time": 257.254992,
          "velocity": 0.6299212598425197
        },
        {
          "duration": 0.38970601875001876,
          "durationTicks": 159,
          "midi": 61,
          "name": "C#4",
          "ticks": 105120,
          "time": 257.647149,
          "velocity": 0.6299212598425197
        },
        {
          "duration": 0.38970601875001876,
          "durationTicks": 159,
          "midi": 66,
          "name": "F#4",
          "ticks": 105280,
          "time": 258.039306,
          "velocity": 0.6299212598425197
        },
        {
          "duration": 0.38970601875001876,
          "durationTicks": 159,
          "midi": 69,
          "name": "A4",
          "ticks": 105440,
          "time": 258.431463,
          "velocity": 0.6299212598425197
        },
        {
          "duration": 3.526962018749998,
          "durationTicks": 1439,
          "midi": 71,
          "name": "B4",
          "ticks": 105600,
          "time": 258.82362,
          "velocity": 0.6299212598425197
        },
        {
          "duration": 0.38970601875001876,
          "durationTicks": 159,
          "midi": 59,
          "name": "B3",
          "ticks": 105600,
          "time": 258.82362,
          "velocity": 0.6299212598425197
        },
        {
          "duration": 0.38970601875001876,
          "durationTicks": 159,
          "midi": 66,
          "name": "F#4",
          "ticks": 105760,
          "time": 259.215777,
          "velocity": 0.6299212598425197
        },
        {
          "duration": 0.38970601875001876,
          "durationTicks": 159,
          "midi": 69,
          "name": "A4",
          "ticks": 105920,
          "time": 259.607934,
          "velocity": 0.6299212598425197
        },
        {
          "duration": 0.38970601875001876,
          "durationTicks": 159,
          "midi": 59,
          "name": "B3",
          "ticks": 106080,
          "time": 260.000091,
          "velocity": 0.6299212598425197
        },
        {
          "duration": 0.38970601875001876,
          "durationTicks": 159,
          "midi": 66,
          "name": "F#4",
          "ticks": 106240,
          "time": 260.392248,
          "velocity": 0.6299212598425197
        },
        {
          "duration": 0.38970601875001876,
          "durationTicks": 159,
          "midi": 69,
          "name": "A4",
          "ticks": 106400,
          "time": 260.784405,
          "velocity": 0.6299212598425197
        },
        {
          "duration": 0.38970601875001876,
          "durationTicks": 159,
          "midi": 59,
          "name": "B3",
          "ticks": 106560,
          "time": 261.176562,
          "velocity": 0.6299212598425197
        },
        {
          "duration": 0.3897060187499619,
          "durationTicks": 159,
          "midi": 66,
          "name": "F#4",
          "ticks": 106720,
          "time": 261.56871900000004,
          "velocity": 0.6299212598425197
        },
        {
          "duration": 0.38970601875001876,
          "durationTicks": 159,
          "midi": 69,
          "name": "A4",
          "ticks": 106880,
          "time": 261.960876,
          "velocity": 0.6299212598425197
        },
        {
          "duration": 1.1740200187500136,
          "durationTicks": 479,
          "midi": 71,
          "name": "B4",
          "ticks": 107040,
          "time": 262.353033,
          "velocity": 0.6299212598425197
        },
        {
          "duration": 0.38970601875001876,
          "durationTicks": 159,
          "midi": 59,
          "name": "B3",
          "ticks": 107040,
          "time": 262.353033,
          "velocity": 0.6299212598425197
        },
        {
          "duration": 0.3897060187499619,
          "durationTicks": 159,
          "midi": 64,
          "name": "E4",
          "ticks": 107200,
          "time": 262.74519000000004,
          "velocity": 0.6299212598425197
        },
        {
          "duration": 0.38970601875001876,
          "durationTicks": 159,
          "midi": 68,
          "name": "G#4",
          "ticks": 107360,
          "time": 263.137347,
          "velocity": 0.6299212598425197
        },
        {
          "duration": 1.1740200187499568,
          "durationTicks": 479,
          "midi": 69,
          "name": "A4",
          "ticks": 107520,
          "time": 263.52950400000003,
          "velocity": 0.6299212598425197
        },
        {
          "duration": 0.38970601875001876,
          "durationTicks": 159,
          "midi": 57,
          "name": "A3",
          "ticks": 107520,
          "time": 263.52950400000003,
          "velocity": 0.6299212598425197
        },
        {
          "duration": 0.3897060187499619,
          "durationTicks": 159,
          "midi": 64,
          "name": "E4",
          "ticks": 107680,
          "time": 263.92166100000003,
          "velocity": 0.6299212598425197
        },
        {
          "duration": 0.3897060187499619,
          "durationTicks": 159,
          "midi": 68,
          "name": "G#4",
          "ticks": 107840,
          "time": 264.313818,
          "velocity": 0.6299212598425197
        },
        {
          "duration": 1.1740200187500136,
          "durationTicks": 479,
          "midi": 69,
          "name": "A4",
          "ticks": 108000,
          "time": 264.705975,
          "velocity": 0.6299212598425197
        },
        {
          "duration": 0.38970601875001876,
          "durationTicks": 159,
          "midi": 57,
          "name": "A3",
          "ticks": 108000,
          "time": 264.705975,
          "velocity": 0.6299212598425197
        },
        {
          "duration": 0.3897060187499619,
          "durationTicks": 159,
          "midi": 63,
          "name": "D#4",
          "ticks": 108160,
          "time": 265.098132,
          "velocity": 0.6299212598425197
        },
        {
          "duration": 0.38970601875001876,
          "durationTicks": 159,
          "midi": 66,
          "name": "F#4",
          "ticks": 108320,
          "time": 265.490289,
          "velocity": 0.6299212598425197
        },
        {
          "duration": 1.1740200187500136,
          "durationTicks": 479,
          "midi": 68,
          "name": "G#4",
          "ticks": 108480,
          "time": 265.882446,
          "velocity": 0.6299212598425197
        },
        {
          "duration": 0.38970601875001876,
          "durationTicks": 159,
          "midi": 56,
          "name": "G#3",
          "ticks": 108480,
          "time": 265.882446,
          "velocity": 0.6299212598425197
        },
        {
          "duration": 0.3897060187499619,
          "durationTicks": 159,
          "midi": 63,
          "name": "D#4",
          "ticks": 108640,
          "time": 266.274603,
          "velocity": 0.6299212598425197
        },
        {
          "duration": 0.38970601875001876,
          "durationTicks": 159,
          "midi": 66,
          "name": "F#4",
          "ticks": 108800,
          "time": 266.66676,
          "velocity": 0.6299212598425197
        },
        {
          "duration": 1.1740200187500136,
          "durationTicks": 479,
          "midi": 68,
          "name": "G#4",
          "ticks": 108960,
          "time": 267.058917,
          "velocity": 0.6299212598425197
        },
        {
          "duration": 0.38970601875001876,
          "durationTicks": 159,
          "midi": 56,
          "name": "G#3",
          "ticks": 108960,
          "time": 267.058917,
          "velocity": 0.6299212598425197
        },
        {
          "duration": 0.38970601875001876,
          "durationTicks": 159,
          "midi": 61,
          "name": "C#4",
          "ticks": 109120,
          "time": 267.451074,
          "velocity": 0.6299212598425197
        },
        {
          "duration": 0.38970601875001876,
          "durationTicks": 159,
          "midi": 64,
          "name": "E4",
          "ticks": 109280,
          "time": 267.843231,
          "velocity": 0.6299212598425197
        },
        {
          "duration": 2.350491018750006,
          "durationTicks": 959,
          "midi": 66,
          "name": "F#4",
          "ticks": 109440,
          "time": 268.235388,
          "velocity": 0.6299212598425197
        },
        {
          "duration": 1.1740200187500136,
          "durationTicks": 479,
          "midi": 68,
          "name": "G#4",
          "ticks": 110400,
          "time": 270.58833,
          "velocity": 0.6299212598425197
        },
        {
          "duration": 1.1740200187499568,
          "durationTicks": 479,
          "midi": 69,
          "name": "A4",
          "ticks": 110880,
          "time": 271.76480100000003,
          "velocity": 0.6299212598425197
        },
        {
          "duration": 2.350491018750006,
          "durationTicks": 959,
          "midi": 68,
          "name": "G#4",
          "ticks": 111360,
          "time": 272.941272,
          "velocity": 0.6299212598425197
        },
        {
          "duration": 2.350491018750006,
          "durationTicks": 959,
          "midi": 68,
          "name": "G#4",
          "ticks": 112320,
          "time": 275.294214,
          "velocity": 0.6299212598425197
        },
        {
          "duration": 0.7843139999999948,
          "durationTicks": 320,
          "midi": 61,
          "name": "C#4",
          "ticks": 113280,
          "time": 277.647156,
          "velocity": 0.6299212598425197
        },
        {
          "duration": 0.38970601875001876,
          "durationTicks": 159,
          "midi": 56,
          "name": "G#3",
          "ticks": 113760,
          "time": 278.823627,
          "velocity": 0.6299212598425197
        },
        {
          "duration": 0.3897060187499619,
          "durationTicks": 159,
          "midi": 61,
          "name": "C#4",
          "ticks": 113920,
          "time": 279.21578400000004,
          "velocity": 0.6299212598425197
        },
        {
          "duration": 0.38970601875001876,
          "durationTicks": 159,
          "midi": 64,
          "name": "E4",
          "ticks": 114080,
          "time": 279.607941,
          "velocity": 0.6299212598425197
        },
        {
          "duration": 0.3897060187499619,
          "durationTicks": 159,
          "midi": 56,
          "name": "G#3",
          "ticks": 114240,
          "time": 280.00009800000004,
          "velocity": 0.6299212598425197
        },
        {
          "duration": 0.3897060187499619,
          "durationTicks": 159,
          "midi": 61,
          "name": "C#4",
          "ticks": 114400,
          "time": 280.39225500000003,
          "velocity": 0.6299212598425197
        },
        {
          "duration": 0.38970601875001876,
          "durationTicks": 159,
          "midi": 64,
          "name": "E4",
          "ticks": 114560,
          "time": 280.784412,
          "velocity": 0.6299212598425197
        },
        {
          "duration": 0.38970601875001876,
          "durationTicks": 159,
          "midi": 56,
          "name": "G#3",
          "ticks": 114720,
          "time": 281.17656900000003,
          "velocity": 0.6299212598425197
        },
        {
          "duration": 0.3897060187499619,
          "durationTicks": 159,
          "midi": 61,
          "name": "C#4",
          "ticks": 114880,
          "time": 281.568726,
          "velocity": 0.6299212598425197
        },
        {
          "duration": 0.3897060187499619,
          "durationTicks": 159,
          "midi": 64,
          "name": "E4",
          "ticks": 115040,
          "time": 281.960883,
          "velocity": 0.6299212598425197
        },
        {
          "duration": 0.38970601875001876,
          "durationTicks": 159,
          "midi": 56,
          "name": "G#3",
          "ticks": 115200,
          "time": 282.35304,
          "velocity": 0.6299212598425197
        },
        {
          "duration": 0.3897060187499619,
          "durationTicks": 159,
          "midi": 63,
          "name": "D#4",
          "ticks": 115360,
          "time": 282.745197,
          "velocity": 0.6299212598425197
        },
        {
          "duration": 0.38970601875001876,
          "durationTicks": 159,
          "midi": 66,
          "name": "F#4",
          "ticks": 115520,
          "time": 283.137354,
          "velocity": 0.6299212598425197
        },
        {
          "duration": 0.38970601875001876,
          "durationTicks": 159,
          "midi": 56,
          "name": "G#3",
          "ticks": 115680,
          "time": 283.529511,
          "velocity": 0.6299212598425197
        },
        {
          "duration": 0.38970601875001876,
          "durationTicks": 159,
          "midi": 63,
          "name": "D#4",
          "ticks": 115840,
          "time": 283.921668,
          "velocity": 0.6299212598425197
        },
        {
          "duration": 0.38970601875001876,
          "durationTicks": 159,
          "midi": 66,
          "name": "F#4",
          "ticks": 116000,
          "time": 284.313825,
          "velocity": 0.6299212598425197
        },
        {
          "duration": 0.38970601875001876,
          "durationTicks": 159,
          "midi": 56,
          "name": "G#3",
          "ticks": 116160,
          "time": 284.705982,
          "velocity": 0.6299212598425197
        },
        {
          "duration": 0.38970601875001876,
          "durationTicks": 159,
          "midi": 63,
          "name": "D#4",
          "ticks": 116320,
          "time": 285.098139,
          "velocity": 0.6299212598425197
        },
        {
          "duration": 0.38970601875001876,
          "durationTicks": 159,
          "midi": 66,
          "name": "F#4",
          "ticks": 116480,
          "time": 285.490296,
          "velocity": 0.6299212598425197
        },
        {
          "duration": 0.38970601875001876,
          "durationTicks": 159,
          "midi": 56,
          "name": "G#3",
          "ticks": 116640,
          "time": 285.882453,
          "velocity": 0.6299212598425197
        },
        {
          "duration": 0.38970601875001876,
          "durationTicks": 159,
          "midi": 63,
          "name": "D#4",
          "ticks": 116800,
          "time": 286.27461,
          "velocity": 0.6299212598425197
        },
        {
          "duration": 0.38970601875001876,
          "durationTicks": 159,
          "midi": 66,
          "name": "F#4",
          "ticks": 116960,
          "time": 286.666767,
          "velocity": 0.6299212598425197
        },
        {
          "duration": 0.38970601875001876,
          "durationTicks": 159,
          "midi": 56,
          "name": "G#3",
          "ticks": 117120,
          "time": 287.058924,
          "velocity": 0.6299212598425197
        },
        {
          "duration": 0.3897060187499619,
          "durationTicks": 159,
          "midi": 64,
          "name": "E4",
          "ticks": 117280,
          "time": 287.45108100000004,
          "velocity": 0.6299212598425197
        },
        {
          "duration": 0.38970601875001876,
          "durationTicks": 159,
          "midi": 61,
          "name": "C#4",
          "ticks": 117440,
          "time": 287.843238,
          "velocity": 0.6299212598425197
        },
        {
          "duration": 0.38970601875001876,
          "durationTicks": 159,
          "midi": 68,
          "name": "G#4",
          "ticks": 117600,
          "time": 288.235395,
          "velocity": 0.6299212598425197
        },
        {
          "duration": 0.3897060187499619,
          "durationTicks": 159,
          "midi": 64,
          "name": "E4",
          "ticks": 117760,
          "time": 288.62755200000004,
          "velocity": 0.6299212598425197
        },
        {
          "duration": 0.38970601875001876,
          "durationTicks": 159,
          "midi": 73,
          "name": "C#5",
          "ticks": 117920,
          "time": 289.019709,
          "velocity": 0.6299212598425197
        },
        {
          "duration": 0.38970601875001876,
          "durationTicks": 159,
          "midi": 68,
          "name": "G#4",
          "ticks": 118080,
          "time": 289.41186600000003,
          "velocity": 0.6299212598425197
        },
        {
          "duration": 0.3897060187499619,
          "durationTicks": 159,
          "midi": 76,
          "name": "E5",
          "ticks": 118240,
          "time": 289.80402300000003,
          "velocity": 0.6299212598425197
        },
        {
          "duration": 0.3897060187499619,
          "durationTicks": 159,
          "midi": 73,
          "name": "C#5",
          "ticks": 118400,
          "time": 290.19618,
          "velocity": 0.6299212598425197
        },
        {
          "duration": 0.38970601875001876,
          "durationTicks": 159,
          "midi": 80,
          "name": "G#5",
          "ticks": 118560,
          "time": 290.588337,
          "velocity": 0.6299212598425197
        },
        {
          "duration": 0.3897060187499619,
          "durationTicks": 159,
          "midi": 76,
          "name": "E5",
          "ticks": 118720,
          "time": 290.980494,
          "velocity": 0.6299212598425197
        },
        {
          "duration": 0.38970601875001876,
          "durationTicks": 159,
          "midi": 73,
          "name": "C#5",
          "ticks": 118880,
          "time": 291.372651,
          "velocity": 0.6299212598425197
        },
        {
          "duration": 0.38970601875001876,
          "durationTicks": 159,
          "midi": 72,
          "name": "C5",
          "ticks": 119040,
          "time": 291.764808,
          "velocity": 0.6299212598425197
        },
        {
          "duration": 0.3897060187499619,
          "durationTicks": 159,
          "midi": 75,
          "name": "D#5",
          "ticks": 119200,
          "time": 292.156965,
          "velocity": 0.6299212598425197
        },
        {
          "duration": 0.38970601875001876,
          "durationTicks": 159,
          "midi": 69,
          "name": "A4",
          "ticks": 119360,
          "time": 292.549122,
          "velocity": 0.6299212598425197
        },
        {
          "duration": 0.38970601875001876,
          "durationTicks": 159,
          "midi": 72,
          "name": "C5",
          "ticks": 119520,
          "time": 292.941279,
          "velocity": 0.6299212598425197
        },
        {
          "duration": 0.38970601875001876,
          "durationTicks": 159,
          "midi": 66,
          "name": "F#4",
          "ticks": 119680,
          "time": 293.333436,
          "velocity": 0.6299212598425197
        },
        {
          "duration": 0.38970601875001876,
          "durationTicks": 159,
          "midi": 69,
          "name": "A4",
          "ticks": 119840,
          "time": 293.725593,
          "velocity": 0.6299212598425197
        },
        {
          "duration": 0.38970601875001876,
          "durationTicks": 159,
          "midi": 63,
          "name": "D#4",
          "ticks": 120000,
          "time": 294.11775,
          "velocity": 0.6299212598425197
        },
        {
          "duration": 0.38970601875001876,
          "durationTicks": 159,
          "midi": 66,
          "name": "F#4",
          "ticks": 120160,
          "time": 294.509907,
          "velocity": 0.6299212598425197
        },
        {
          "duration": 0.38970601875001876,
          "durationTicks": 159,
          "midi": 57,
          "name": "A3",
          "ticks": 120320,
          "time": 294.902064,
          "velocity": 0.6299212598425197
        },
        {
          "duration": 0.38970601875001876,
          "durationTicks": 159,
          "midi": 57,
          "name": "A3",
          "ticks": 120480,
          "time": 295.294221,
          "velocity": 0.6299212598425197
        },
        {
          "duration": 0.38970601875001876,
          "durationTicks": 159,
          "midi": 60,
          "name": "C4",
          "ticks": 120480,
          "time": 295.294221,
          "velocity": 0.6299212598425197
        },
        {
          "duration": 0.3897060187499619,
          "durationTicks": 159,
          "midi": 56,
          "name": "G#3",
          "ticks": 120640,
          "time": 295.68637800000005,
          "velocity": 0.6299212598425197
        },
        {
          "duration": 0.38970601875001876,
          "durationTicks": 159,
          "midi": 54,
          "name": "F#3",
          "ticks": 120800,
          "time": 296.078535,
          "velocity": 0.6299212598425197
        },
        {
          "duration": 0.38970601875001876,
          "durationTicks": 159,
          "midi": 52,
          "name": "E3",
          "ticks": 120960,
          "time": 296.470692,
          "velocity": 0.6299212598425197
        },
        {
          "duration": 0.38970601875001876,
          "durationTicks": 159,
          "midi": 61,
          "name": "C#4",
          "ticks": 120960,
          "time": 296.470692,
          "velocity": 0.6299212598425197
        },
        {
          "duration": 0.3897060187499619,
          "durationTicks": 159,
          "midi": 64,
          "name": "E4",
          "ticks": 121120,
          "time": 296.86284900000004,
          "velocity": 0.6299212598425197
        },
        {
          "duration": 0.38970601875001876,
          "durationTicks": 159,
          "midi": 61,
          "name": "C#4",
          "ticks": 121280,
          "time": 297.255006,
          "velocity": 0.6299212598425197
        },
        {
          "duration": 0.3897060187499619,
          "durationTicks": 159,
          "midi": 68,
          "name": "G#4",
          "ticks": 121440,
          "time": 297.64716300000003,
          "velocity": 0.6299212598425197
        },
        {
          "duration": 0.3897060187499619,
          "durationTicks": 159,
          "midi": 64,
          "name": "E4",
          "ticks": 121600,
          "time": 298.03932000000003,
          "velocity": 0.6299212598425197
        },
        {
          "duration": 0.38970601875001876,
          "durationTicks": 159,
          "midi": 73,
          "name": "C#5",
          "ticks": 121760,
          "time": 298.431477,
          "velocity": 0.6299212598425197
        },
        {
          "duration": 0.38970601875001876,
          "durationTicks": 159,
          "midi": 68,
          "name": "G#4",
          "ticks": 121920,
          "time": 298.823634,
          "velocity": 0.6299212598425197
        },
        {
          "duration": 0.3897060187499619,
          "durationTicks": 159,
          "midi": 76,
          "name": "E5",
          "ticks": 122080,
          "time": 299.215791,
          "velocity": 0.6299212598425197
        },
        {
          "duration": 0.38970601875001876,
          "durationTicks": 159,
          "midi": 73,
          "name": "C#5",
          "ticks": 122240,
          "time": 299.607948,
          "velocity": 0.6299212598425197
        },
        {
          "duration": 0.38970601875001876,
          "durationTicks": 159,
          "midi": 80,
          "name": "G#5",
          "ticks": 122400,
          "time": 300.000105,
          "velocity": 0.6299212598425197
        },
        {
          "duration": 0.3897060187499619,
          "durationTicks": 159,
          "midi": 76,
          "name": "E5",
          "ticks": 122560,
          "time": 300.392262,
          "velocity": 0.6299212598425197
        },
        {
          "duration": 0.38970601875001876,
          "durationTicks": 159,
          "midi": 73,
          "name": "C#5",
          "ticks": 122720,
          "time": 300.784419,
          "velocity": 0.6299212598425197
        },
        {
          "duration": 0.38970601875001876,
          "durationTicks": 159,
          "midi": 72,
          "name": "C5",
          "ticks": 122880,
          "time": 301.176576,
          "velocity": 0.6299212598425197
        },
        {
          "duration": 0.38970601875001876,
          "durationTicks": 159,
          "midi": 75,
          "name": "D#5",
          "ticks": 123040,
          "time": 301.568733,
          "velocity": 0.6299212598425197
        },
        {
          "duration": 0.3897060187499619,
          "durationTicks": 159,
          "midi": 69,
          "name": "A4",
          "ticks": 123200,
          "time": 301.96089,
          "velocity": 0.6299212598425197
        },
        {
          "duration": 0.38970601875001876,
          "durationTicks": 159,
          "midi": 72,
          "name": "C5",
          "ticks": 123360,
          "time": 302.353047,
          "velocity": 0.6299212598425197
        },
        {
          "duration": 0.38970601875001876,
          "durationTicks": 159,
          "midi": 66,
          "name": "F#4",
          "ticks": 123520,
          "time": 302.745204,
          "velocity": 0.6299212598425197
        },
        {
          "duration": 0.38970601874990507,
          "durationTicks": 159,
          "midi": 69,
          "name": "A4",
          "ticks": 123680,
          "time": 303.13736100000006,
          "velocity": 0.6299212598425197
        },
        {
          "duration": 0.38970601875001876,
          "durationTicks": 159,
          "midi": 63,
          "name": "D#4",
          "ticks": 123840,
          "time": 303.529518,
          "velocity": 0.6299212598425197
        },
        {
          "duration": 0.38970601875001876,
          "durationTicks": 159,
          "midi": 66,
          "name": "F#4",
          "ticks": 124000,
          "time": 303.921675,
          "velocity": 0.6299212598425197
        },
        {
          "duration": 0.38970601874990507,
          "durationTicks": 159,
          "midi": 57,
          "name": "A3",
          "ticks": 124160,
          "time": 304.31383200000005,
          "velocity": 0.6299212598425197
        },
        {
          "duration": 0.38970601875001876,
          "durationTicks": 159,
          "midi": 57,
          "name": "A3",
          "ticks": 124320,
          "time": 304.705989,
          "velocity": 0.6299212598425197
        },
        {
          "duration": 0.38970601875001876,
          "durationTicks": 159,
          "midi": 60,
          "name": "C4",
          "ticks": 124320,
          "time": 304.705989,
          "velocity": 0.6299212598425197
        },
        {
          "duration": 0.38970601875001876,
          "durationTicks": 159,
          "midi": 56,
          "name": "G#3",
          "ticks": 124480,
          "time": 305.098146,
          "velocity": 0.6299212598425197
        },
        {
          "duration": 0.3897060187499619,
          "durationTicks": 159,
          "midi": 54,
          "name": "F#3",
          "ticks": 124640,
          "time": 305.49030300000004,
          "velocity": 0.6299212598425197
        },
        {
          "duration": 0.3897060187499619,
          "durationTicks": 159,
          "midi": 52,
          "name": "E3",
          "ticks": 124800,
          "time": 305.88246000000004,
          "velocity": 0.6299212598425197
        },
        {
          "duration": 0.3897060187499619,
          "durationTicks": 159,
          "midi": 61,
          "name": "C#4",
          "ticks": 124800,
          "time": 305.88246000000004,
          "velocity": 0.6299212598425197
        },
        {
          "duration": 0.38970601875001876,
          "durationTicks": 159,
          "midi": 56,
          "name": "G#3",
          "ticks": 124960,
          "time": 306.274617,
          "velocity": 0.6299212598425197
        },
        {
          "duration": 0.3897060187499619,
          "durationTicks": 159,
          "midi": 61,
          "name": "C#4",
          "ticks": 125120,
          "time": 306.66677400000003,
          "velocity": 0.6299212598425197
        },
        {
          "duration": 0.38970601875001876,
          "durationTicks": 159,
          "midi": 64,
          "name": "E4",
          "ticks": 125280,
          "time": 307.05893100000003,
          "velocity": 0.6299212598425197
        },
        {
          "duration": 0.38970601875001876,
          "durationTicks": 159,
          "midi": 61,
          "name": "C#4",
          "ticks": 125440,
          "time": 307.45108799999997,
          "velocity": 0.6299212598425197
        },
        {
          "duration": 0.3897060187499619,
          "durationTicks": 159,
          "midi": 56,
          "name": "G#3",
          "ticks": 125600,
          "time": 307.843245,
          "velocity": 0.6299212598425197
        },
        {
          "duration": 0.38970601875001876,
          "durationTicks": 159,
          "midi": 52,
          "name": "E3",
          "ticks": 125920,
          "time": 308.62755899999996,
          "velocity": 0.6299212598425197
        },
        {
          "duration": 0.3897060187499619,
          "durationTicks": 159,
          "midi": 56,
          "name": "G#3",
          "ticks": 126080,
          "time": 309.019716,
          "velocity": 0.6299212598425197
        },
        {
          "duration": 0.38970601875001876,
          "durationTicks": 159,
          "midi": 61,
          "name": "C#4",
          "ticks": 126240,
          "time": 309.411873,
          "velocity": 0.6299212598425197
        },
        {
          "duration": 0.38970601875001876,
          "durationTicks": 159,
          "midi": 56,
          "name": "G#3",
          "ticks": 126400,
          "time": 309.80403,
          "velocity": 0.6299212598425197
        },
        {
          "duration": 0.3897060187499619,
          "durationTicks": 159,
          "midi": 52,
          "name": "E3",
          "ticks": 126560,
          "time": 310.196187,
          "velocity": 0.6299212598425197
        },
        {
          "duration": 0.38970601875001876,
          "durationTicks": 159,
          "midi": 49,
          "name": "C#3",
          "ticks": 126880,
          "time": 310.980501,
          "velocity": 0.6299212598425197
        },
        {
          "duration": 0.38970601874990507,
          "durationTicks": 159,
          "midi": 52,
          "name": "E3",
          "ticks": 127040,
          "time": 311.37265800000006,
          "velocity": 0.6299212598425197
        },
        {
          "duration": 0.38970601875001876,
          "durationTicks": 159,
          "midi": 56,
          "name": "G#3",
          "ticks": 127200,
          "time": 311.764815,
          "velocity": 0.6299212598425197
        },
        {
          "duration": 0.38970601875001876,
          "durationTicks": 159,
          "midi": 52,
          "name": "E3",
          "ticks": 127360,
          "time": 312.156972,
          "velocity": 0.6299212598425197
        },
        {
          "duration": 0.38970601874990507,
          "durationTicks": 159,
          "midi": 49,
          "name": "C#3",
          "ticks": 127520,
          "time": 312.54912900000005,
          "velocity": 0.6299212598425197
        },
        {
          "duration": 2.350491018749949,
          "durationTicks": 959,
          "midi": 52,
          "name": "E3",
          "ticks": 129600,
          "time": 317.64717,
          "velocity": 0.6299212598425197
        },
        {
          "duration": 2.350491018749949,
          "durationTicks": 959,
          "midi": 56,
          "name": "G#3",
          "ticks": 129600,
          "time": 317.64717,
          "velocity": 0.6299212598425197
        },
        {
          "duration": 2.350491018749949,
          "durationTicks": 959,
          "midi": 61,
          "name": "C#4",
          "ticks": 129600,
          "time": 317.64717,
          "velocity": 0.6299212598425197
        },
        {
          "duration": 4.70343301874999,
          "durationTicks": 1919,
          "midi": 52,
          "name": "E3",
          "ticks": 130560,
          "time": 320.000112,
          "velocity": 0.6299212598425197
        },
        {
          "duration": 4.70343301874999,
          "durationTicks": 1919,
          "midi": 56,
          "name": "G#3",
          "ticks": 130560,
          "time": 320.000112,
          "velocity": 0.6299212598425197
        },
        {
          "duration": 4.70343301874999,
          "durationTicks": 1919,
          "midi": 61,
          "name": "C#4",
          "ticks": 130560,
          "time": 320.000112,
          "velocity": 0.6299212598425197
        }
      ],
      "endOfTrackTicks": 132480
    },
    {
      "channel": 0,
      "controlChanges": {},
      "pitchBends": [],
      "instrument": {
        "family": "piano",
        "name": "acoustic grand piano",
        "number": 0
      },
      "name": "Piano\u0000",
      "notes": [
        {
          "duration": 4.70343301875,
          "durationTicks": 1919,
          "midi": 37,
          "name": "C#2",
          "ticks": 0,
          "time": 0,
          "velocity": 0.6299212598425197
        },
        {
          "duration": 4.70343301875,
          "durationTicks": 1919,
          "midi": 49,
          "name": "C#3",
          "ticks": 0,
          "time": 0,
          "velocity": 0.6299212598425197
        },
        {
          "duration": 4.70343301875,
          "durationTicks": 1919,
          "midi": 35,
          "name": "B1",
          "ticks": 1920,
          "time": 4.705884,
          "velocity": 0.6299212598425197
        },
        {
          "duration": 4.70343301875,
          "durationTicks": 1919,
          "midi": 47,
          "name": "B2",
          "ticks": 1920,
          "time": 4.705884,
          "velocity": 0.6299212598425197
        },
        {
          "duration": 2.3504910187500005,
          "durationTicks": 959,
          "midi": 33,
          "name": "A1",
          "ticks": 3840,
          "time": 9.411768,
          "velocity": 0.6299212598425197
        },
        {
          "duration": 2.3504910187500005,
          "durationTicks": 959,
          "midi": 45,
          "name": "A2",
          "ticks": 3840,
          "time": 9.411768,
          "velocity": 0.6299212598425197
        },
        {
          "duration": 2.3504910187500005,
          "durationTicks": 959,
          "midi": 30,
          "name": "F#1",
          "ticks": 4800,
          "time": 11.764710000000001,
          "velocity": 0.6299212598425197
        },
        {
          "duration": 2.3504910187500005,
          "durationTicks": 959,
          "midi": 42,
          "name": "F#2",
          "ticks": 4800,
          "time": 11.764710000000001,
          "velocity": 0.6299212598425197
        },
        {
          "duration": 2.3504910187500023,
          "durationTicks": 959,
          "midi": 32,
          "name": "G#1",
          "ticks": 5760,
          "time": 14.117652,
          "velocity": 0.6299212598425197
        },
        {
          "duration": 2.3504910187500023,
          "durationTicks": 959,
          "midi": 44,
          "name": "G#2",
          "ticks": 5760,
          "time": 14.117652,
          "velocity": 0.6299212598425197
        },
        {
          "duration": 2.3504910187499988,
          "durationTicks": 959,
          "midi": 32,
          "name": "G#1",
          "ticks": 6720,
          "time": 16.470594000000002,
          "velocity": 0.6299212598425197
        },
        {
          "duration": 2.3504910187499988,
          "durationTicks": 959,
          "midi": 44,
          "name": "G#2",
          "ticks": 6720,
          "time": 16.470594000000002,
          "velocity": 0.6299212598425197
        },
        {
          "duration": 0.389706018750001,
          "durationTicks": 159,
          "midi": 52,
          "name": "E3",
          "ticks": 7680,
          "time": 18.823536,
          "velocity": 0.6299212598425197
        },
        {
          "duration": 4.7034330187499975,
          "durationTicks": 1919,
          "midi": 37,
          "name": "C#2",
          "ticks": 7680,
          "time": 18.823536,
          "velocity": 0.6299212598425197
        },
        {
          "duration": 4.7034330187499975,
          "durationTicks": 1919,
          "midi": 44,
          "name": "G#2",
          "ticks": 7680,
          "time": 18.823536,
          "velocity": 0.6299212598425197
        },
        {
          "duration": 4.7034330187499975,
          "durationTicks": 1919,
          "midi": 49,
          "name": "C#3",
          "ticks": 7680,
          "time": 18.823536,
          "velocity": 0.6299212598425197
        },
        {
          "duration": 0.389706018750001,
          "durationTicks": 159,
          "midi": 56,
          "name": "G#3",
          "ticks": 7840,
          "time": 19.215692999999998,
          "velocity": 0.6299212598425197
        },
        {
          "duration": 0.38970601874999744,
          "durationTicks": 159,
          "midi": 61,
          "name": "C#4",
          "ticks": 8000,
          "time": 19.607850000000003,
          "velocity": 0.6299212598425197
        },
        {
          "duration": 4.7034330187499975,
          "durationTicks": 1919,
          "midi": 36,
          "name": "C2",
          "ticks": 9600,
          "time": 23.529420000000002,
          "velocity": 0.6299212598425197
        },
        {
          "duration": 4.7034330187499975,
          "durationTicks": 1919,
          "midi": 44,
          "name": "G#2",
          "ticks": 9600,
          "time": 23.529420000000002,
          "velocity": 0.6299212598425197
        },
        {
          "duration": 4.7034330187499975,
          "durationTicks": 1919,
          "midi": 48,
          "name": "C3",
          "ticks": 9600,
          "time": 23.529420000000002,
          "velocity": 0.6299212598425197
        },
        {
          "duration": 2.3504910187499988,
          "durationTicks": 959,
          "midi": 37,
          "name": "C#2",
          "ticks": 11520,
          "time": 28.235304,
          "velocity": 0.6299212598425197
        },
        {
          "duration": 2.3504910187499988,
          "durationTicks": 959,
          "midi": 49,
          "name": "C#3",
          "ticks": 11520,
          "time": 28.235304,
          "velocity": 0.6299212598425197
        },
        {
          "duration": 2.350491018749995,
          "durationTicks": 959,
          "midi": 30,
          "name": "F#1",
          "ticks": 12480,
          "time": 30.588246,
          "velocity": 0.6299212598425197
        },
        {
          "duration": 2.350491018749995,
          "durationTicks": 959,
          "midi": 42,
          "name": "F#2",
          "ticks": 12480,
          "time": 30.588246,
          "velocity": 0.6299212598425197
        },
        {
          "duration": 2.3504910187499988,
          "durationTicks": 959,
          "midi": 35,
          "name": "B1",
          "ticks": 13440,
          "time": 32.941188000000004,
          "velocity": 0.6299212598425197
        },
        {
          "duration": 2.3504910187499988,
          "durationTicks": 959,
          "midi": 47,
          "name": "B2",
          "ticks": 13440,
          "time": 32.941188000000004,
          "velocity": 0.6299212598425197
        },
        {
          "duration": 2.3504910187499988,
          "durationTicks": 959,
          "midi": 35,
          "name": "B1",
          "ticks": 14400,
          "time": 35.29413,
          "velocity": 0.6299212598425197
        },
        {
          "duration": 2.3504910187499988,
          "durationTicks": 959,
          "midi": 47,
          "name": "B2",
          "ticks": 14400,
          "time": 35.29413,
          "velocity": 0.6299212598425197
        },
        {
          "duration": 4.703433018750005,
          "durationTicks": 1919,
          "midi": 40,
          "name": "E2",
          "ticks": 15360,
          "time": 37.647072,
          "velocity": 0.6299212598425197
        },
        {
          "duration": 4.703433018750005,
          "durationTicks": 1919,
          "midi": 52,
          "name": "E3",
          "ticks": 15360,
          "time": 37.647072,
          "velocity": 0.6299212598425197
        },
        {
          "duration": 4.703433018750005,
          "durationTicks": 1919,
          "midi": 40,
          "name": "E2",
          "ticks": 17280,
          "time": 42.352956,
          "velocity": 0.6299212598425197
        },
        {
          "duration": 4.703433018750005,
          "durationTicks": 1919,
          "midi": 52,
          "name": "E3",
          "ticks": 17280,
          "time": 42.352956,
          "velocity": 0.6299212598425197
        },
        {
          "duration": 4.7034330187499975,
          "durationTicks": 1919,
          "midi": 38,
          "name": "D2",
          "ticks": 19200,
          "time": 47.058840000000004,
          "velocity": 0.6299212598425197
        },
        {
          "duration": 4.7034330187499975,
          "durationTicks": 1919,
          "midi": 50,
          "name": "D3",
          "ticks": 19200,
          "time": 47.058840000000004,
          "velocity": 0.6299212598425197
        },
        {
          "duration": 1.1740200187500065,
          "durationTicks": 479,
          "midi": 36,
          "name": "C2",
          "ticks": 21120,
          "time": 51.764724,
          "velocity": 0.6299212598425197
        },
        {
          "duration": 1.1740200187500065,
          "durationTicks": 479,
          "midi": 48,
          "name": "C3",
          "ticks": 21120,
          "time": 51.764724,
          "velocity": 0.6299212598425197
        },
        {
          "duration": 1.1740200187500065,
          "durationTicks": 479,
          "midi": 35,
          "name": "B1",
          "ticks": 21600,
          "time": 52.941195,
          "velocity": 0.6299212598425197
        },
        {
          "duration": 1.1740200187500065,
          "durationTicks": 479,
          "midi": 47,
          "name": "B2",
          "ticks": 21600,
          "time": 52.941195,
          "velocity": 0.6299212598425197
        },
        {
          "duration": 2.350491018750006,
          "durationTicks": 959,
          "midi": 34,
          "name": "A#1",
          "ticks": 22080,
          "time": 54.117666,
          "velocity": 0.6299212598425197
        },
        {
          "duration": 2.350491018750006,
          "durationTicks": 959,
          "midi": 46,
          "name": "A#2",
          "ticks": 22080,
          "time": 54.117666,
          "velocity": 0.6299212598425197
        },
        {
          "duration": 0.38970601874999744,
          "durationTicks": 159,
          "midi": 54,
          "name": "F#3",
          "ticks": 22560,
          "time": 55.294137,
          "velocity": 0.6299212598425197
        },
        {
          "duration": 0.38970601874999744,
          "durationTicks": 159,
          "midi": 61,
          "name": "C#4",
          "ticks": 22720,
          "time": 55.686294000000004,
          "velocity": 0.6299212598425197
        },
        {
          "duration": 0.38970601875000455,
          "durationTicks": 159,
          "midi": 64,
          "name": "E4",
          "ticks": 22880,
          "time": 56.078451,
          "velocity": 0.6299212598425197
        },
        {
          "duration": 0.38970601874999744,
          "durationTicks": 159,
          "midi": 54,
          "name": "F#3",
          "ticks": 23040,
          "time": 56.470608,
          "velocity": 0.6299212598425197
        },
        {
          "duration": 2.350491018750006,
          "durationTicks": 959,
          "midi": 35,
          "name": "B1",
          "ticks": 23040,
          "time": 56.470608,
          "velocity": 0.6299212598425197
        },
        {
          "duration": 2.350491018750006,
          "durationTicks": 959,
          "midi": 47,
          "name": "B2",
          "ticks": 23040,
          "time": 56.470608,
          "velocity": 0.6299212598425197
        },
        {
          "duration": 0.38970601874999744,
          "durationTicks": 159,
          "midi": 59,
          "name": "B3",
          "ticks": 23200,
          "time": 56.862765,
          "velocity": 0.6299212598425197
        },
        {
          "duration": 0.38970601875000455,
          "durationTicks": 159,
          "midi": 62,
          "name": "D4",
          "ticks": 23360,
          "time": 57.254922,
          "velocity": 0.6299212598425197
        },
        {
          "duration": 0.38970601874999033,
          "durationTicks": 159,
          "midi": 54,
          "name": "F#3",
          "ticks": 23520,
          "time": 57.647079000000005,
          "velocity": 0.6299212598425197
        },
        {
          "duration": 0.38970601874999744,
          "durationTicks": 159,
          "midi": 59,
          "name": "B3",
          "ticks": 23680,
          "time": 58.039236,
          "velocity": 0.6299212598425197
        },
        {
          "duration": 0.38970601875000455,
          "durationTicks": 159,
          "midi": 62,
          "name": "D4",
          "ticks": 23840,
          "time": 58.431393,
          "velocity": 0.6299212598425197
        },
        {
          "duration": 0.38970601874999744,
          "durationTicks": 159,
          "midi": 55,
          "name": "G3",
          "ticks": 24000,
          "time": 58.823550000000004,
          "velocity": 0.6299212598425197
        },
        {
          "duration": 1.1740200187499994,
          "durationTicks": 479,
          "midi": 40,
          "name": "E2",
          "ticks": 24000,
          "time": 58.823550000000004,
          "velocity": 0.6299212598425197
        },
        {
          "duration": 0.38970601874999744,
          "durationTicks": 159,
          "midi": 59,
          "name": "B3",
          "ticks": 24160,
          "time": 59.215707,
          "velocity": 0.6299212598425197
        },
        {
          "duration": 0.38970601875000455,
          "durationTicks": 159,
          "midi": 61,
          "name": "C#4",
          "ticks": 24320,
          "time": 59.607864,
          "velocity": 0.6299212598425197
        },
        {
          "duration": 0.38970601874999744,
          "durationTicks": 159,
          "midi": 52,
          "name": "E3",
          "ticks": 24480,
          "time": 60.000021000000004,
          "velocity": 0.6299212598425197
        },
        {
          "duration": 1.1740200187499994,
          "durationTicks": 479,
          "midi": 43,
          "name": "G2",
          "ticks": 24480,
          "time": 60.000021000000004,
          "velocity": 0.6299212598425197
        },
        {
          "duration": 0.38970601874999033,
          "durationTicks": 159,
          "midi": 59,
          "name": "B3",
          "ticks": 24640,
          "time": 60.39217800000001,
          "velocity": 0.6299212598425197
        },
        {
          "duration": 0.38970601875000455,
          "durationTicks": 159,
          "midi": 61,
          "name": "C#4",
          "ticks": 24800,
          "time": 60.784335,
          "velocity": 0.6299212598425197
        },
        {
          "duration": 0.38970601874999744,
          "durationTicks": 159,
          "midi": 54,
          "name": "F#3",
          "ticks": 24960,
          "time": 61.176492,
          "velocity": 0.6299212598425197
        },
        {
          "duration": 2.3504910187499988,
          "durationTicks": 959,
          "midi": 42,
          "name": "F#2",
          "ticks": 24960,
          "time": 61.176492,
          "velocity": 0.6299212598425197
        },
        {
          "duration": 0.38970601874999744,
          "durationTicks": 159,
          "midi": 59,
          "name": "B3",
          "ticks": 25120,
          "time": 61.56864900000001,
          "velocity": 0.6299212598425197
        },
        {
          "duration": 0.38970601875000455,
          "durationTicks": 159,
          "midi": 62,
          "name": "D4",
          "ticks": 25280,
          "time": 61.960806,
          "velocity": 0.6299212598425197
        },
        {
          "duration": 0.38970601874999744,
          "durationTicks": 159,
          "midi": 54,
          "name": "F#3",
          "ticks": 25440,
          "time": 62.352963,
          "velocity": 0.6299212598425197
        },
        {
          "duration": 0.38970601874999744,
          "durationTicks": 159,
          "midi": 59,
          "name": "B3",
          "ticks": 25600,
          "time": 62.74512000000001,
          "velocity": 0.6299212598425197
        },
        {
          "duration": 0.38970601875000455,
          "durationTicks": 159,
          "midi": 62,
          "name": "D4",
          "ticks": 25760,
          "time": 63.137277,
          "velocity": 0.6299212598425197
        },
        {
          "duration": 0.38970601874999744,
          "durationTicks": 159,
          "midi": 54,
          "name": "F#3",
          "ticks": 25920,
          "time": 63.529434,
          "velocity": 0.6299212598425197
        },
        {
          "duration": 2.3504910187499988,
          "durationTicks": 959,
          "midi": 30,
          "name": "F#1",
          "ticks": 25920,
          "time": 63.529434,
          "velocity": 0.6299212598425197
        },
        {
          "duration": 2.3504910187499988,
          "durationTicks": 959,
          "midi": 42,
          "name": "F#2",
          "ticks": 25920,
          "time": 63.529434,
          "velocity": 0.6299212598425197
        },
        {
          "duration": 0.38970601874999033,
          "durationTicks": 159,
          "midi": 58,
          "name": "A#3",
          "ticks": 26080,
          "time": 63.92159100000001,
          "velocity": 0.6299212598425197
        },
        {
          "duration": 0.38970601875000455,
          "durationTicks": 159,
          "midi": 61,
          "name": "C#4",
          "ticks": 26240,
          "time": 64.313748,
          "velocity": 0.6299212598425197
        },
        {
          "duration": 0.38970601875000455,
          "durationTicks": 159,
          "midi": 54,
          "name": "F#3",
          "ticks": 26400,
          "time": 64.705905,
          "velocity": 0.6299212598425197
        },
        {
          "duration": 0.38970601875000455,
          "durationTicks": 159,
          "midi": 58,
          "name": "A#3",
          "ticks": 26560,
          "time": 65.098062,
          "velocity": 0.6299212598425197
        },
        {
          "duration": 0.38970601875000455,
          "durationTicks": 159,
          "midi": 61,
          "name": "C#4",
          "ticks": 26720,
          "time": 65.490219,
          "velocity": 0.6299212598425197
        },
        {
          "duration": 5.879904018749997,
          "durationTicks": 2399,
          "midi": 35,
          "name": "B1",
          "ticks": 26880,
          "time": 65.88237600000001,
          "velocity": 0.6299212598425197
        },
        {
          "duration": 5.879904018749997,
          "durationTicks": 2399,
          "midi": 47,
          "name": "B2",
          "ticks": 26880,
          "time": 65.88237600000001,
          "velocity": 0.6299212598425197
        },
        {
          "duration": 1.1740200187500136,
          "durationTicks": 479,
          "midi": 40,
          "name": "E2",
          "ticks": 29280,
          "time": 71.764731,
          "velocity": 0.6299212598425197
        },
        {
          "duration": 1.1740200187500136,
          "durationTicks": 479,
          "midi": 52,
          "name": "E3",
          "ticks": 29280,
          "time": 71.764731,
          "velocity": 0.6299212598425197
        },
        {
          "duration": 1.1740200187499994,
          "durationTicks": 479,
          "midi": 43,
          "name": "G2",
          "ticks": 29760,
          "time": 72.941202,
          "velocity": 0.6299212598425197
        },
        {
          "duration": 1.1740200187499994,
          "durationTicks": 479,
          "midi": 55,
          "name": "G3",
          "ticks": 29760,
          "time": 72.941202,
          "velocity": 0.6299212598425197
        },
        {
          "duration": 1.1740200187500136,
          "durationTicks": 479,
          "midi": 40,
          "name": "E2",
          "ticks": 30240,
          "time": 74.117673,
          "velocity": 0.6299212598425197
        },
        {
          "duration": 1.1740200187500136,
          "durationTicks": 479,
          "midi": 52,
          "name": "E3",
          "ticks": 30240,
          "time": 74.117673,
          "velocity": 0.6299212598425197
        },
        {
          "duration": 5.879904018749997,
          "durationTicks": 2399,
          "midi": 35,
          "name": "B1",
          "ticks": 30720,
          "time": 75.294144,
          "velocity": 0.6299212598425197
        },
        {
          "duration": 5.879904018749997,
          "durationTicks": 2399,
          "midi": 47,
          "name": "B2",
          "ticks": 30720,
          "time": 75.294144,
          "velocity": 0.6299212598425197
        },
        {
          "duration": 1.1740200187499994,
          "durationTicks": 479,
          "midi": 40,
          "name": "E2",
          "ticks": 33120,
          "time": 81.176499,
          "velocity": 0.6299212598425197
        },
        {
          "duration": 1.1740200187499994,
          "durationTicks": 479,
          "midi": 52,
          "name": "E3",
          "ticks": 33120,
          "time": 81.176499,
          "velocity": 0.6299212598425197
        },
        {
          "duration": 1.1740200187499994,
          "durationTicks": 479,
          "midi": 43,
          "name": "G2",
          "ticks": 33600,
          "time": 82.35297,
          "velocity": 0.6299212598425197
        },
        {
          "duration": 1.1740200187499994,
          "durationTicks": 479,
          "midi": 55,
          "name": "G3",
          "ticks": 33600,
          "time": 82.35297,
          "velocity": 0.6299212598425197
        },
        {
          "duration": 1.1740200187499994,
          "durationTicks": 479,
          "midi": 40,
          "name": "E2",
          "ticks": 34080,
          "time": 83.529441,
          "velocity": 0.6299212598425197
        },
        {
          "duration": 1.1740200187499994,
          "durationTicks": 479,
          "midi": 52,
          "name": "E3",
          "ticks": 34080,
          "time": 83.529441,
          "velocity": 0.6299212598425197
        },
        {
          "duration": 2.350491018750006,
          "durationTicks": 959,
          "midi": 35,
          "name": "B1",
          "ticks": 34560,
          "time": 84.705912,
          "velocity": 0.6299212598425197
        },
        {
          "duration": 2.350491018750006,
          "durationTicks": 959,
          "midi": 47,
          "name": "B2",
          "ticks": 34560,
          "time": 84.705912,
          "velocity": 0.6299212598425197
        },
        {
          "duration": 2.350491018750006,
          "durationTicks": 959,
          "midi": 32,
          "name": "G#1",
          "ticks": 35520,
          "time": 87.058854,
          "velocity": 0.6299212598425197
        },
        {
          "duration": 2.350491018750006,
          "durationTicks": 959,
          "midi": 44,
          "name": "G#2",
          "ticks": 35520,
          "time": 87.058854,
          "velocity": 0.6299212598425197
        },
        {
          "duration": 2.3504910187499917,
          "durationTicks": 959,
          "midi": 29,
          "name": "F1",
          "ticks": 36480,
          "time": 89.41179600000001,
          "velocity": 0.6299212598425197
        },
        {
          "duration": 2.3504910187499917,
          "durationTicks": 959,
          "midi": 41,
          "name": "F2",
          "ticks": 36480,
          "time": 89.41179600000001,
          "velocity": 0.6299212598425197
        },
        {
          "duration": 2.3504910187499917,
          "durationTicks": 959,
          "midi": 30,
          "name": "F#1",
          "ticks": 37440,
          "time": 91.76473800000001,
          "velocity": 0.6299212598425197
        },
        {
          "duration": 2.3504910187499917,
          "durationTicks": 959,
          "midi": 42,
          "name": "F#2",
          "ticks": 37440,
          "time": 91.76473800000001,
          "velocity": 0.6299212598425197
        },
        {
          "duration": 0.38970601874999033,
          "durationTicks": 159,
          "midi": 55,
          "name": "G3",
          "ticks": 38400,
          "time": 94.11768000000001,
          "velocity": 0.6299212598425197
        },
        {
          "duration": 2.3504910187499917,
          "durationTicks": 959,
          "midi": 35,
          "name": "B1",
          "ticks": 38400,
          "time": 94.11768000000001,
          "velocity": 0.6299212598425197
        },
        {
          "duration": 2.3504910187499917,
          "durationTicks": 959,
          "midi": 47,
          "name": "B2",
          "ticks": 38400,
          "time": 94.11768000000001,
          "velocity": 0.6299212598425197
        },
        {
          "duration": 0.38970601875000455,
          "durationTicks": 159,
          "midi": 59,
          "name": "B3",
          "ticks": 38560,
          "time": 94.509837,
          "velocity": 0.6299212598425197
        },
        {
          "duration": 0.38970601874999033,
          "durationTicks": 159,
          "midi": 62,
          "name": "D4",
          "ticks": 38720,
          "time": 94.90199400000002,
          "velocity": 0.6299212598425197
        },
        {
          "duration": 0.38970601875000455,
          "durationTicks": 159,
          "midi": 55,
          "name": "G3",
          "ticks": 38880,
          "time": 95.294151,
          "velocity": 0.6299212598425197
        },
        {
          "duration": 0.38970601875001876,
          "durationTicks": 159,
          "midi": 59,
          "name": "B3",
          "ticks": 39040,
          "time": 95.686308,
          "velocity": 0.6299212598425197
        },
        {
          "duration": 0.38970601874999033,
          "durationTicks": 159,
          "midi": 62,
          "name": "D4",
          "ticks": 39200,
          "time": 96.07846500000001,
          "velocity": 0.6299212598425197
        },
        {
          "duration": 0.38970601874999033,
          "durationTicks": 159,
          "midi": 54,
          "name": "F#3",
          "ticks": 39360,
          "time": 96.470622,
          "velocity": 0.6299212598425197
        },
        {
          "duration": 2.350491018750006,
          "durationTicks": 959,
          "midi": 36,
          "name": "C2",
          "ticks": 39360,
          "time": 96.470622,
          "velocity": 0.6299212598425197
        },
        {
          "duration": 2.350491018750006,
          "durationTicks": 959,
          "midi": 48,
          "name": "C3",
          "ticks": 39360,
          "time": 96.470622,
          "velocity": 0.6299212598425197
        },
        {
          "duration": 0.38970601875000455,
          "durationTicks": 159,
          "midi": 57,
          "name": "A3",
          "ticks": 39520,
          "time": 96.862779,
          "velocity": 0.6299212598425197
        },
        {
          "duration": 0.38970601874999033,
          "durationTicks": 159,
          "midi": 63,
          "name": "D#4",
          "ticks": 39680,
          "time": 97.25493600000001,
          "velocity": 0.6299212598425197
        },
        {
          "duration": 0.38970601875000455,
          "durationTicks": 159,
          "midi": 54,
          "name": "F#3",
          "ticks": 39840,
          "time": 97.647093,
          "velocity": 0.6299212598425197
        },
        {
          "duration": 0.38970601875001876,
          "durationTicks": 159,
          "midi": 57,
          "name": "A3",
          "ticks": 40000,
          "time": 98.03925,
          "velocity": 0.6299212598425197
        },
        {
          "duration": 0.38970601875000455,
          "durationTicks": 159,
          "midi": 63,
          "name": "D#4",
          "ticks": 40160,
          "time": 98.43140700000001,
          "velocity": 0.6299212598425197
        },
        {
          "duration": 0.38970601874999033,
          "durationTicks": 159,
          "midi": 49,
          "name": "C#3",
          "ticks": 40320,
          "time": 98.823564,
          "velocity": 0.6299212598425197
        },
        {
          "duration": 2.350491018750006,
          "durationTicks": 959,
          "midi": 37,
          "name": "C#2",
          "ticks": 40320,
          "time": 98.823564,
          "velocity": 0.6299212598425197
        },
        {
          "duration": 0.38970601875000455,
          "durationTicks": 159,
          "midi": 54,
          "name": "F#3",
          "ticks": 40480,
          "time": 99.215721,
          "velocity": 0.6299212598425197
        },
        {
          "duration": 0.38970601874999033,
          "durationTicks": 159,
          "midi": 57,
          "name": "A3",
          "ticks": 40640,
          "time": 99.60787800000001,
          "velocity": 0.6299212598425197
        },
        {
          "duration": 0.38970601875000455,
          "durationTicks": 159,
          "midi": 49,
          "name": "C#3",
          "ticks": 40800,
          "time": 100.000035,
          "velocity": 0.6299212598425197
        },
        {
          "duration": 0.38970601875001876,
          "durationTicks": 159,
          "midi": 54,
          "name": "F#3",
          "ticks": 40960,
          "time": 100.392192,
          "velocity": 0.6299212598425197
        },
        {
          "duration": 0.38970601875000455,
          "durationTicks": 159,
          "midi": 57,
          "name": "A3",
          "ticks": 41120,
          "time": 100.784349,
          "velocity": 0.6299212598425197
        },
        {
          "duration": 0.38970601874999033,
          "durationTicks": 159,
          "midi": 49,
          "name": "C#3",
          "ticks": 41280,
          "time": 101.176506,
          "velocity": 0.6299212598425197
        },
        {
          "duration": 2.350491018750006,
          "durationTicks": 959,
          "midi": 37,
          "name": "C#2",
          "ticks": 41280,
          "time": 101.176506,
          "velocity": 0.6299212598425197
        },
        {
          "duration": 0.38970601875000455,
          "durationTicks": 159,
          "midi": 54,
          "name": "F#3",
          "ticks": 41440,
          "time": 101.568663,
          "velocity": 0.6299212598425197
        },
        {
          "duration": 0.38970601874999033,
          "durationTicks": 159,
          "midi": 56,
          "name": "G#3",
          "ticks": 41600,
          "time": 101.96082000000001,
          "velocity": 0.6299212598425197
        },
        {
          "duration": 0.38970601874999033,
          "durationTicks": 159,
          "midi": 49,
          "name": "C#3",
          "ticks": 41760,
          "time": 102.35297700000001,
          "velocity": 0.6299212598425197
        },
        {
          "duration": 0.38970601875001876,
          "durationTicks": 159,
          "midi": 53,
          "name": "F3",
          "ticks": 41920,
          "time": 102.745134,
          "velocity": 0.6299212598425197
        },
        {
          "duration": 0.38970601875000455,
          "durationTicks": 159,
          "midi": 56,
          "name": "G#3",
          "ticks": 42080,
          "time": 103.137291,
          "velocity": 0.6299212598425197
        },
        {
          "duration": 0.38970601875000455,
          "durationTicks": 159,
          "midi": 54,
          "name": "F#3",
          "ticks": 42240,
          "time": 103.529448,
          "velocity": 0.6299212598425197
        },
        {
          "duration": 4.703433018750005,
          "durationTicks": 1919,
          "midi": 30,
          "name": "F#1",
          "ticks": 42240,
          "time": 103.529448,
          "velocity": 0.6299212598425197
        },
        {
          "duration": 4.703433018750005,
          "durationTicks": 1919,
          "midi": 37,
          "name": "C#2",
          "ticks": 42240,
          "time": 103.529448,
          "velocity": 0.6299212598425197
        },
        {
          "duration": 4.703433018750005,
          "durationTicks": 1919,
          "midi": 42,
          "name": "F#2",
          "ticks": 42240,
          "time": 103.529448,
          "velocity": 0.6299212598425197
        },
        {
          "duration": 0.38970601875001876,
          "durationTicks": 159,
          "midi": 57,
          "name": "A3",
          "ticks": 42400,
          "time": 103.921605,
          "velocity": 0.6299212598425197
        },
        {
          "duration": 0.38970601874999033,
          "durationTicks": 159,
          "midi": 61,
          "name": "C#4",
          "ticks": 42560,
          "time": 104.31376200000001,
          "velocity": 0.6299212598425197
        },
        {
          "duration": 0.38970601874999033,
          "durationTicks": 159,
          "midi": 57,
          "name": "A3",
          "ticks": 42720,
          "time": 104.70591900000001,
          "velocity": 0.6299212598425197
        },
        {
          "duration": 0.38970601875001876,
          "durationTicks": 159,
          "midi": 61,
          "name": "C#4",
          "ticks": 42880,
          "time": 105.09807599999999,
          "velocity": 0.6299212598425197
        },
        {
          "duration": 4.703433018750005,
          "durationTicks": 1919,
          "midi": 41,
          "name": "F2",
          "ticks": 44160,
          "time": 108.235332,
          "velocity": 0.6299212598425197
        },
        {
          "duration": 4.703433018750005,
          "durationTicks": 1919,
          "midi": 49,
          "name": "C#3",
          "ticks": 44160,
          "time": 108.235332,
          "velocity": 0.6299212598425197
        },
        {
          "duration": 4.703433018750005,
          "durationTicks": 1919,
          "midi": 53,
          "name": "F3",
          "ticks": 44160,
          "time": 108.235332,
          "velocity": 0.6299212598425197
        },
        {
          "duration": 2.350491018750006,
          "durationTicks": 959,
          "midi": 42,
          "name": "F#2",
          "ticks": 46080,
          "time": 112.941216,
          "velocity": 0.6299212598425197
        },
        {
          "duration": 2.350491018750006,
          "durationTicks": 959,
          "midi": 54,
          "name": "F#3",
          "ticks": 46080,
          "time": 112.941216,
          "velocity": 0.6299212598425197
        },
        {
          "duration": 1.1740200187499994,
          "durationTicks": 479,
          "midi": 39,
          "name": "D#2",
          "ticks": 47040,
          "time": 115.29415800000001,
          "velocity": 0.6299212598425197
        },
        {
          "duration": 1.1740200187499994,
          "durationTicks": 479,
          "midi": 51,
          "name": "D#3",
          "ticks": 47040,
          "time": 115.29415800000001,
          "velocity": 0.6299212598425197
        },
        {
          "duration": 1.1740200187499994,
          "durationTicks": 479,
          "midi": 37,
          "name": "C#2",
          "ticks": 47520,
          "time": 116.470629,
          "velocity": 0.6299212598425197
        },
        {
          "duration": 1.1740200187499994,
          "durationTicks": 479,
          "midi": 49,
          "name": "C#3",
          "ticks": 47520,
          "time": 116.470629,
          "velocity": 0.6299212598425197
        },
        {
          "duration": 3.526962018749998,
          "durationTicks": 1439,
          "midi": 36,
          "name": "C2",
          "ticks": 48000,
          "time": 117.64710000000001,
          "velocity": 0.6299212598425197
        },
        {
          "duration": 3.526962018749998,
          "durationTicks": 1439,
          "midi": 44,
          "name": "G#2",
          "ticks": 48000,
          "time": 117.64710000000001,
          "velocity": 0.6299212598425197
        },
        {
          "duration": 3.526962018749998,
          "durationTicks": 1439,
          "midi": 48,
          "name": "C3",
          "ticks": 48000,
          "time": 117.64710000000001,
          "velocity": 0.6299212598425197
        },
        {
          "duration": 1.1740200187500136,
          "durationTicks": 479,
          "midi": 36,
          "name": "C2",
          "ticks": 49440,
          "time": 121.176513,
          "velocity": 0.6299212598425197
        },
        {
          "duration": 1.1740200187500136,
          "durationTicks": 479,
          "midi": 44,
          "name": "G#2",
          "ticks": 49440,
          "time": 121.176513,
          "velocity": 0.6299212598425197
        },
        {
          "duration": 1.1740200187500136,
          "durationTicks": 479,
          "midi": 48,
          "name": "C3",
          "ticks": 49440,
          "time": 121.176513,
          "velocity": 0.6299212598425197
        },
        {
          "duration": 2.350491018750006,
          "durationTicks": 959,
          "midi": 37,
          "name": "C#2",
          "ticks": 49920,
          "time": 122.352984,
          "velocity": 0.6299212598425197
        },
        {
          "duration": 2.350491018750006,
          "durationTicks": 959,
          "midi": 44,
          "name": "G#2",
          "ticks": 49920,
          "time": 122.352984,
          "velocity": 0.6299212598425197
        },
        {
          "duration": 2.350491018750006,
          "durationTicks": 959,
          "midi": 49,
          "name": "C#3",
          "ticks": 49920,
          "time": 122.352984,
          "velocity": 0.6299212598425197
        },
        {
          "duration": 1.1740200187499994,
          "durationTicks": 479,
          "midi": 30,
          "name": "F#1",
          "ticks": 50880,
          "time": 124.705926,
          "velocity": 0.6299212598425197
        },
        {
          "duration": 1.1740200187499994,
          "durationTicks": 479,
          "midi": 42,
          "name": "F#2",
          "ticks": 50880,
          "time": 124.705926,
          "velocity": 0.6299212598425197
        },
        {
          "duration": 1.1740200187499994,
          "durationTicks": 479,
          "midi": 31,
          "name": "G1",
          "ticks": 51360,
          "time": 125.88239700000001,
          "velocity": 0.6299212598425197
        },
        {
          "duration": 1.1740200187499994,
          "durationTicks": 479,
          "midi": 43,
          "name": "G2",
          "ticks": 51360,
          "time": 125.88239700000001,
          "velocity": 0.6299212598425197
        },
        {
          "duration": 4.703433018750005,
          "durationTicks": 1919,
          "midi": 32,
          "name": "G#1",
          "ticks": 51840,
          "time": 127.058868,
          "velocity": 0.6299212598425197
        },
        {
          "duration": 4.703433018750005,
          "durationTicks": 1919,
          "midi": 44,
          "name": "G#2",
          "ticks": 51840,
          "time": 127.058868,
          "velocity": 0.6299212598425197
        },
        {
          "duration": 4.70343301874999,
          "durationTicks": 1919,
          "midi": 32,
          "name": "G#1",
          "ticks": 53760,
          "time": 131.76475200000002,
          "velocity": 0.6299212598425197
        },
        {
          "duration": 4.70343301874999,
          "durationTicks": 1919,
          "midi": 44,
          "name": "G#2",
          "ticks": 53760,
          "time": 131.76475200000002,
          "velocity": 0.6299212598425197
        },
        {
          "duration": 0.38970601874999033,
          "durationTicks": 159,
          "midi": 52,
          "name": "E3",
          "ticks": 55680,
          "time": 136.470636,
          "velocity": 0.6299212598425197
        },
        {
          "duration": 4.70343301874999,
          "durationTicks": 1919,
          "midi": 32,
          "name": "G#1",
          "ticks": 55680,
          "time": 136.470636,
          "velocity": 0.6299212598425197
        },
        {
          "duration": 4.70343301874999,
          "durationTicks": 1919,
          "midi": 44,
          "name": "G#2",
          "ticks": 55680,
          "time": 136.470636,
          "velocity": 0.6299212598425197
        },
        {
          "duration": 4.70343301874999,
          "durationTicks": 1919,
          "midi": 32,
          "name": "G#1",
          "ticks": 57600,
          "time": 141.17652,
          "velocity": 0.6299212598425197
        },
        {
          "duration": 4.70343301874999,
          "durationTicks": 1919,
          "midi": 44,
          "name": "G#2",
          "ticks": 57600,
          "time": 141.17652,
          "velocity": 0.6299212598425197
        },
        {
          "duration": 0.38970601875001876,
          "durationTicks": 159,
          "midi": 52,
          "name": "E3",
          "ticks": 57760,
          "time": 141.568677,
          "velocity": 0.6299212598425197
        },
        {
          "duration": 0.38970601874999033,
          "durationTicks": 159,
          "midi": 56,
          "name": "G#3",
          "ticks": 57920,
          "time": 141.960834,
          "velocity": 0.6299212598425197
        },
        {
          "duration": 0.38970601874999033,
          "durationTicks": 159,
          "midi": 61,
          "name": "C#4",
          "ticks": 58080,
          "time": 142.352991,
          "velocity": 0.6299212598425197
        },
        {
          "duration": 0.38970601875001876,
          "durationTicks": 159,
          "midi": 52,
          "name": "E3",
          "ticks": 58240,
          "time": 142.745148,
          "velocity": 0.6299212598425197
        },
        {
          "duration": 0.38970601875001876,
          "durationTicks": 159,
          "midi": 56,
          "name": "G#3",
          "ticks": 58400,
          "time": 143.137305,
          "velocity": 0.6299212598425197
        },
        {
          "duration": 0.38970601875001876,
          "durationTicks": 159,
          "midi": 64,
          "name": "E4",
          "ticks": 58560,
          "time": 143.529462,
          "velocity": 0.6299212598425197
        },
        {
          "duration": 0.38970601875001876,
          "durationTicks": 159,
          "midi": 52,
          "name": "E3",
          "ticks": 58720,
          "time": 143.921619,
          "velocity": 0.6299212598425197
        },
        {
          "duration": 0.38970601874999033,
          "durationTicks": 159,
          "midi": 56,
          "name": "G#3",
          "ticks": 58880,
          "time": 144.31377600000002,
          "velocity": 0.6299212598425197
        },
        {
          "duration": 0.38970601874999033,
          "durationTicks": 159,
          "midi": 61,
          "name": "C#4",
          "ticks": 59040,
          "time": 144.70593300000002,
          "velocity": 0.6299212598425197
        },
        {
          "duration": 0.38970601874999033,
          "durationTicks": 159,
          "midi": 52,
          "name": "E3",
          "ticks": 59200,
          "time": 145.09809,
          "velocity": 0.6299212598425197
        },
        {
          "duration": 0.38970601874999033,
          "durationTicks": 159,
          "midi": 56,
          "name": "G#3",
          "ticks": 59360,
          "time": 145.490247,
          "velocity": 0.6299212598425197
        },
        {
          "duration": 0.38970601874999033,
          "durationTicks": 159,
          "midi": 51,
          "name": "D#3",
          "ticks": 59520,
          "time": 145.882404,
          "velocity": 0.6299212598425197
        },
        {
          "duration": 4.70343301874999,
          "durationTicks": 1919,
          "midi": 32,
          "name": "G#1",
          "ticks": 59520,
          "time": 145.882404,
          "velocity": 0.6299212598425197
        },
        {
          "duration": 4.70343301874999,
          "durationTicks": 1919,
          "midi": 44,
          "name": "G#2",
          "ticks": 59520,
          "time": 145.882404,
          "velocity": 0.6299212598425197
        },
        {
          "duration": 0.38970601875001876,
          "durationTicks": 159,
          "midi": 57,
          "name": "A3",
          "ticks": 59680,
          "time": 146.274561,
          "velocity": 0.6299212598425197
        },
        {
          "duration": 0.38970601875001876,
          "durationTicks": 159,
          "midi": 54,
          "name": "F#3",
          "ticks": 59840,
          "time": 146.666718,
          "velocity": 0.6299212598425197
        },
        {
          "duration": 0.38970601875001876,
          "durationTicks": 159,
          "midi": 52,
          "name": "E3",
          "ticks": 61440,
          "time": 150.588288,
          "velocity": 0.6299212598425197
        },
        {
          "duration": 4.70343301874999,
          "durationTicks": 1919,
          "midi": 32,
          "name": "G#1",
          "ticks": 61440,
          "time": 150.588288,
          "velocity": 0.6299212598425197
        },
        {
          "duration": 4.70343301874999,
          "durationTicks": 1919,
          "midi": 44,
          "name": "G#2",
          "ticks": 61440,
          "time": 150.588288,
          "velocity": 0.6299212598425197
        },
        {
          "duration": 0.38970601874999033,
          "durationTicks": 159,
          "midi": 61,
          "name": "C#4",
          "ticks": 61600,
          "time": 150.980445,
          "velocity": 0.6299212598425197
        },
        {
          "duration": 0.38970601875001876,
          "durationTicks": 159,
          "midi": 56,
          "name": "G#3",
          "ticks": 61760,
          "time": 151.372602,
          "velocity": 0.6299212598425197
        },
        {
          "duration": 4.703433018750019,
          "durationTicks": 1919,
          "midi": 32,
          "name": "G#1",
          "ticks": 63360,
          "time": 155.294172,
          "velocity": 0.6299212598425197
        },
        {
          "duration": 4.703433018750019,
          "durationTicks": 1919,
          "midi": 44,
          "name": "G#2",
          "ticks": 63360,
          "time": 155.294172,
          "velocity": 0.6299212598425197
        },
        {
          "duration": 14.115201018750014,
          "durationTicks": 5759,
          "midi": 32,
          "name": "G#1",
          "ticks": 65280,
          "time": 160.000056,
          "velocity": 0.6299212598425197
        },
        {
          "duration": 14.115201018750014,
          "durationTicks": 5759,
          "midi": 44,
          "name": "G#2",
          "ticks": 65280,
          "time": 160.000056,
          "velocity": 0.6299212598425197
        },
        {
          "duration": 4.703433018750019,
          "durationTicks": 1919,
          "midi": 32,
          "name": "G#1",
          "ticks": 71040,
          "time": 174.117708,
          "velocity": 0.6299212598425197
        },
        {
          "duration": 4.703433018750019,
          "durationTicks": 1919,
          "midi": 44,
          "name": "G#2",
          "ticks": 71040,
          "time": 174.117708,
          "velocity": 0.6299212598425197
        },
        {
          "duration": 4.70343301874999,
          "durationTicks": 1919,
          "midi": 32,
          "name": "G#1",
          "ticks": 72960,
          "time": 178.82359200000002,
          "velocity": 0.6299212598425197
        },
        {
          "duration": 4.70343301874999,
          "durationTicks": 1919,
          "midi": 44,
          "name": "G#2",
          "ticks": 72960,
          "time": 178.82359200000002,
          "velocity": 0.6299212598425197
        },
        {
          "duration": 2.350491018750006,
          "durationTicks": 959,
          "midi": 32,
          "name": "G#1",
          "ticks": 74880,
          "time": 183.52947600000002,
          "velocity": 0.6299212598425197
        },
        {
          "duration": 2.350491018750006,
          "durationTicks": 959,
          "midi": 44,
          "name": "G#2",
          "ticks": 74880,
          "time": 183.52947600000002,
          "velocity": 0.6299212598425197
        },
        {
          "duration": 2.350491018750006,
          "durationTicks": 959,
          "midi": 33,
          "name": "A1",
          "ticks": 75840,
          "time": 185.882418,
          "velocity": 0.6299212598425197
        },
        {
          "duration": 2.350491018750006,
          "durationTicks": 959,
          "midi": 45,
          "name": "A2",
          "ticks": 75840,
          "time": 185.882418,
          "velocity": 0.6299212598425197
        },
        {
          "duration": 2.350491018750006,
          "durationTicks": 959,
          "midi": 30,
          "name": "F#1",
          "ticks": 76800,
          "time": 188.23536000000001,
          "velocity": 0.6299212598425197
        },
        {
          "duration": 2.350491018750006,
          "durationTicks": 959,
          "midi": 42,
          "name": "F#2",
          "ticks": 76800,
          "time": 188.23536000000001,
          "velocity": 0.6299212598425197
        },
        {
          "duration": 2.350491018750006,
          "durationTicks": 959,
          "midi": 32,
          "name": "G#1",
          "ticks": 77760,
          "time": 190.588302,
          "velocity": 0.6299212598425197
        },
        {
          "duration": 2.350491018750006,
          "durationTicks": 959,
          "midi": 44,
          "name": "G#2",
          "ticks": 77760,
          "time": 190.588302,
          "velocity": 0.6299212598425197
        },
        {
          "duration": 4.70343301874999,
          "durationTicks": 1919,
          "midi": 37,
          "name": "C#2",
          "ticks": 78720,
          "time": 192.941244,
          "velocity": 0.6299212598425197
        },
        {
          "duration": 4.70343301874999,
          "durationTicks": 1919,
          "midi": 44,
          "name": "G#2",
          "ticks": 78720,
          "time": 192.941244,
          "velocity": 0.6299212598425197
        },
        {
          "duration": 4.70343301874999,
          "durationTicks": 1919,
          "midi": 49,
          "name": "C#3",
          "ticks": 78720,
          "time": 192.941244,
          "velocity": 0.6299212598425197
        },
        {
          "duration": 4.70343301874999,
          "durationTicks": 1919,
          "midi": 36,
          "name": "C2",
          "ticks": 80640,
          "time": 197.647128,
          "velocity": 0.6299212598425197
        },
        {
          "duration": 4.70343301874999,
          "durationTicks": 1919,
          "midi": 44,
          "name": "G#2",
          "ticks": 80640,
          "time": 197.647128,
          "velocity": 0.6299212598425197
        },
        {
          "duration": 4.70343301874999,
          "durationTicks": 1919,
          "midi": 48,
          "name": "C3",
          "ticks": 80640,
          "time": 197.647128,
          "velocity": 0.6299212598425197
        },
        {
          "duration": 2.350491018750006,
          "durationTicks": 959,
          "midi": 37,
          "name": "C#2",
          "ticks": 82560,
          "time": 202.353012,
          "velocity": 0.6299212598425197
        },
        {
          "duration": 2.350491018750006,
          "durationTicks": 959,
          "midi": 49,
          "name": "C#3",
          "ticks": 82560,
          "time": 202.353012,
          "velocity": 0.6299212598425197
        },
        {
          "duration": 2.3504910187499775,
          "durationTicks": 959,
          "midi": 30,
          "name": "F#1",
          "ticks": 83520,
          "time": 204.70595400000002,
          "velocity": 0.6299212598425197
        },
        {
          "duration": 2.3504910187499775,
          "durationTicks": 959,
          "midi": 42,
          "name": "F#2",
          "ticks": 83520,
          "time": 204.70595400000002,
          "velocity": 0.6299212598425197
        },
        {
          "duration": 2.350491018750006,
          "durationTicks": 959,
          "midi": 35,
          "name": "B1",
          "ticks": 84480,
          "time": 207.058896,
          "velocity": 0.6299212598425197
        },
        {
          "duration": 2.350491018750006,
          "durationTicks": 959,
          "midi": 47,
          "name": "B2",
          "ticks": 84480,
          "time": 207.058896,
          "velocity": 0.6299212598425197
        },
        {
          "duration": 2.350491018750006,
          "durationTicks": 959,
          "midi": 35,
          "name": "B1",
          "ticks": 85440,
          "time": 209.41183800000002,
          "velocity": 0.6299212598425197
        },
        {
          "duration": 2.350491018750006,
          "durationTicks": 959,
          "midi": 47,
          "name": "B2",
          "ticks": 85440,
          "time": 209.41183800000002,
          "velocity": 0.6299212598425197
        },
        {
          "duration": 4.703433018750019,
          "durationTicks": 1919,
          "midi": 40,
          "name": "E2",
          "ticks": 86400,
          "time": 211.76478,
          "velocity": 0.6299212598425197
        },
        {
          "duration": 4.703433018750019,
          "durationTicks": 1919,
          "midi": 52,
          "name": "E3",
          "ticks": 86400,
          "time": 211.76478,
          "velocity": 0.6299212598425197
        },
        {
          "duration": 4.703433018750019,
          "durationTicks": 1919,
          "midi": 39,
          "name": "D#2",
          "ticks": 88320,
          "time": 216.470664,
          "velocity": 0.6299212598425197
        },
        {
          "duration": 4.703433018750019,
          "durationTicks": 1919,
          "midi": 51,
          "name": "D#3",
          "ticks": 88320,
          "time": 216.470664,
          "velocity": 0.6299212598425197
        },
        {
          "duration": 2.350491018750006,
          "durationTicks": 959,
          "midi": 40,
          "name": "E2",
          "ticks": 90240,
          "time": 221.176548,
          "velocity": 0.6299212598425197
        },
        {
          "duration": 2.350491018750006,
          "durationTicks": 959,
          "midi": 52,
          "name": "E3",
          "ticks": 90240,
          "time": 221.176548,
          "velocity": 0.6299212598425197
        },
        {
          "duration": 1.1740200187500136,
          "durationTicks": 479,
          "midi": 39,
          "name": "D#2",
          "ticks": 91200,
          "time": 223.52949,
          "velocity": 0.6299212598425197
        },
        {
          "duration": 1.1740200187500136,
          "durationTicks": 479,
          "midi": 51,
          "name": "D#3",
          "ticks": 91200,
          "time": 223.52949,
          "velocity": 0.6299212598425197
        },
        {
          "duration": 1.1740200187500136,
          "durationTicks": 479,
          "midi": 37,
          "name": "C#2",
          "ticks": 91680,
          "time": 224.705961,
          "velocity": 0.6299212598425197
        },
        {
          "duration": 1.1740200187500136,
          "durationTicks": 479,
          "midi": 49,
          "name": "C#3",
          "ticks": 91680,
          "time": 224.705961,
          "velocity": 0.6299212598425197
        },
        {
          "duration": 2.350491018750006,
          "durationTicks": 959,
          "midi": 36,
          "name": "C2",
          "ticks": 92160,
          "time": 225.882432,
          "velocity": 0.6299212598425197
        },
        {
          "duration": 2.350491018750006,
          "durationTicks": 959,
          "midi": 44,
          "name": "G#2",
          "ticks": 92160,
          "time": 225.882432,
          "velocity": 0.6299212598425197
        },
        {
          "duration": 2.350491018750006,
          "durationTicks": 959,
          "midi": 48,
          "name": "C3",
          "ticks": 92160,
          "time": 225.882432,
          "velocity": 0.6299212598425197
        },
        {
          "duration": 2.350491018750006,
          "durationTicks": 959,
          "midi": 37,
          "name": "C#2",
          "ticks": 93120,
          "time": 228.235374,
          "velocity": 0.6299212598425197
        },
        {
          "duration": 2.350491018750006,
          "durationTicks": 959,
          "midi": 44,
          "name": "G#2",
          "ticks": 93120,
          "time": 228.235374,
          "velocity": 0.6299212598425197
        },
        {
          "duration": 2.350491018750006,
          "durationTicks": 959,
          "midi": 49,
          "name": "C#3",
          "ticks": 93120,
          "time": 228.235374,
          "velocity": 0.6299212598425197
        },
        {
          "duration": 2.3504910187499775,
          "durationTicks": 959,
          "midi": 30,
          "name": "F#1",
          "ticks": 94080,
          "time": 230.58831600000002,
          "velocity": 0.6299212598425197
        },
        {
          "duration": 2.3504910187499775,
          "durationTicks": 959,
          "midi": 42,
          "name": "F#2",
          "ticks": 94080,
          "time": 230.58831600000002,
          "velocity": 0.6299212598425197
        },
        {
          "duration": 2.350491018750006,
          "durationTicks": 959,
          "midi": 32,
          "name": "G#1",
          "ticks": 95040,
          "time": 232.941258,
          "velocity": 0.6299212598425197
        },
        {
          "duration": 2.350491018750006,
          "durationTicks": 959,
          "midi": 44,
          "name": "G#2",
          "ticks": 95040,
          "time": 232.941258,
          "velocity": 0.6299212598425197
        },
        {
          "duration": 5.879904018749983,
          "durationTicks": 2399,
          "midi": 37,
          "name": "C#2",
          "ticks": 96000,
          "time": 235.29420000000002,
          "velocity": 0.6299212598425197
        },
        {
          "duration": 5.879904018749983,
          "durationTicks": 2399,
          "midi": 49,
          "name": "C#3",
          "ticks": 96000,
          "time": 235.29420000000002,
          "velocity": 0.6299212598425197
        },
        {
          "duration": 1.1740200187500136,
          "durationTicks": 479,
          "midi": 42,
          "name": "F#2",
          "ticks": 98400,
          "time": 241.176555,
          "velocity": 0.6299212598425197
        },
        {
          "duration": 1.1740200187500136,
          "durationTicks": 479,
          "midi": 54,
          "name": "F#3",
          "ticks": 98400,
          "time": 241.176555,
          "velocity": 0.6299212598425197
        },
        {
          "duration": 1.1740200187500136,
          "durationTicks": 479,
          "midi": 45,
          "name": "A2",
          "ticks": 98880,
          "time": 242.353026,
          "velocity": 0.6299212598425197
        },
        {
          "duration": 1.1740200187500136,
          "durationTicks": 479,
          "midi": 57,
          "name": "A3",
          "ticks": 98880,
          "time": 242.353026,
          "velocity": 0.6299212598425197
        },
        {
          "duration": 1.1740200187499852,
          "durationTicks": 479,
          "midi": 42,
          "name": "F#2",
          "ticks": 99360,
          "time": 243.52949700000002,
          "velocity": 0.6299212598425197
        },
        {
          "duration": 1.1740200187499852,
          "durationTicks": 479,
          "midi": 54,
          "name": "F#3",
          "ticks": 99360,
          "time": 243.52949700000002,
          "velocity": 0.6299212598425197
        },
        {
          "duration": 5.879904018750011,
          "durationTicks": 2399,
          "midi": 37,
          "name": "C#2",
          "ticks": 99840,
          "time": 244.705968,
          "velocity": 0.6299212598425197
        },
        {
          "duration": 5.879904018750011,
          "durationTicks": 2399,
          "midi": 49,
          "name": "C#3",
          "ticks": 99840,
          "time": 244.705968,
          "velocity": 0.6299212598425197
        },
        {
          "duration": 1.1740200187500136,
          "durationTicks": 479,
          "midi": 42,
          "name": "F#2",
          "ticks": 102240,
          "time": 250.588323,
          "velocity": 0.6299212598425197
        },
        {
          "duration": 1.1740200187500136,
          "durationTicks": 479,
          "midi": 54,
          "name": "F#3",
          "ticks": 102240,
          "time": 250.588323,
          "velocity": 0.6299212598425197
        },
        {
          "duration": 1.1740200187499852,
          "durationTicks": 479,
          "midi": 45,
          "name": "A2",
          "ticks": 102720,
          "time": 251.76479400000002,
          "velocity": 0.6299212598425197
        },
        {
          "duration": 1.1740200187499852,
          "durationTicks": 479,
          "midi": 57,
          "name": "A3",
          "ticks": 102720,
          "time": 251.76479400000002,
          "velocity": 0.6299212598425197
        },
        {
          "duration": 1.1740200187499852,
          "durationTicks": 479,
          "midi": 42,
          "name": "F#2",
          "ticks": 103200,
          "time": 252.94126500000002,
          "velocity": 0.6299212598425197
        },
        {
          "duration": 1.1740200187499852,
          "durationTicks": 479,
          "midi": 54,
          "name": "F#3",
          "ticks": 103200,
          "time": 252.94126500000002,
          "velocity": 0.6299212598425197
        },
        {
          "duration": 2.3504910187499775,
          "durationTicks": 959,
          "midi": 37,
          "name": "C#2",
          "ticks": 103680,
          "time": 254.117736,
          "velocity": 0.6299212598425197
        },
        {
          "duration": 2.3504910187499775,
          "durationTicks": 959,
          "midi": 49,
          "name": "C#3",
          "ticks": 103680,
          "time": 254.117736,
          "velocity": 0.6299212598425197
        },
        {
          "duration": 2.350491018750006,
          "durationTicks": 959,
          "midi": 30,
          "name": "F#1",
          "ticks": 104640,
          "time": 256.470678,
          "velocity": 0.6299212598425197
        },
        {
          "duration": 2.350491018750006,
          "durationTicks": 959,
          "midi": 42,
          "name": "F#2",
          "ticks": 104640,
          "time": 256.470678,
          "velocity": 0.6299212598425197
        },
        {
          "duration": 3.526962018749998,
          "durationTicks": 1439,
          "midi": 39,
          "name": "D#2",
          "ticks": 105600,
          "time": 258.82362,
          "velocity": 0.6299212598425197
        },
        {
          "duration": 3.526962018749998,
          "durationTicks": 1439,
          "midi": 51,
          "name": "D#3",
          "ticks": 105600,
          "time": 258.82362,
          "velocity": 0.6299212598425197
        },
        {
          "duration": 1.1740200187500136,
          "durationTicks": 479,
          "midi": 40,
          "name": "E2",
          "ticks": 107040,
          "time": 262.353033,
          "velocity": 0.6299212598425197
        },
        {
          "duration": 1.1740200187500136,
          "durationTicks": 479,
          "midi": 52,
          "name": "E3",
          "ticks": 107040,
          "time": 262.353033,
          "velocity": 0.6299212598425197
        },
        {
          "duration": 1.1740200187499568,
          "durationTicks": 479,
          "midi": 37,
          "name": "C#2",
          "ticks": 107520,
          "time": 263.52950400000003,
          "velocity": 0.6299212598425197
        },
        {
          "duration": 1.1740200187499568,
          "durationTicks": 479,
          "midi": 49,
          "name": "C#3",
          "ticks": 107520,
          "time": 263.52950400000003,
          "velocity": 0.6299212598425197
        },
        {
          "duration": 1.1740200187500136,
          "durationTicks": 479,
          "midi": 39,
          "name": "D#2",
          "ticks": 108000,
          "time": 264.705975,
          "velocity": 0.6299212598425197
        },
        {
          "duration": 1.1740200187500136,
          "durationTicks": 479,
          "midi": 51,
          "name": "D#3",
          "ticks": 108000,
          "time": 264.705975,
          "velocity": 0.6299212598425197
        },
        {
          "duration": 1.1740200187500136,
          "durationTicks": 479,
          "midi": 36,
          "name": "C2",
          "ticks": 108480,
          "time": 265.882446,
          "velocity": 0.6299212598425197
        },
        {
          "duration": 1.1740200187500136,
          "durationTicks": 479,
          "midi": 48,
          "name": "C3",
          "ticks": 108480,
          "time": 265.882446,
          "velocity": 0.6299212598425197
        },
        {
          "duration": 1.1740200187500136,
          "durationTicks": 479,
          "midi": 37,
          "name": "C#2",
          "ticks": 108960,
          "time": 267.058917,
          "velocity": 0.6299212598425197
        },
        {
          "duration": 1.1740200187500136,
          "durationTicks": 479,
          "midi": 49,
          "name": "C#3",
          "ticks": 108960,
          "time": 267.058917,
          "velocity": 0.6299212598425197
        },
        {
          "duration": 0.38970601875001876,
          "durationTicks": 159,
          "midi": 54,
          "name": "F#3",
          "ticks": 109440,
          "time": 268.235388,
          "velocity": 0.6299212598425197
        },
        {
          "duration": 2.350491018750006,
          "durationTicks": 959,
          "midi": 33,
          "name": "A1",
          "ticks": 109440,
          "time": 268.235388,
          "velocity": 0.6299212598425197
        },
        {
          "duration": 2.350491018750006,
          "durationTicks": 959,
          "midi": 45,
          "name": "A2",
          "ticks": 109440,
          "time": 268.235388,
          "velocity": 0.6299212598425197
        },
        {
          "duration": 0.38970601875001876,
          "durationTicks": 159,
          "midi": 61,
          "name": "C#4",
          "ticks": 109600,
          "time": 268.627545,
          "velocity": 0.6299212598425197
        },
        {
          "duration": 0.38970601875001876,
          "durationTicks": 159,
          "midi": 63,
          "name": "D#4",
          "ticks": 109760,
          "time": 269.019702,
          "velocity": 0.6299212598425197
        },
        {
          "duration": 0.38970601875001876,
          "durationTicks": 159,
          "midi": 54,
          "name": "F#3",
          "ticks": 109920,
          "time": 269.411859,
          "velocity": 0.6299212598425197
        },
        {
          "duration": 0.3897060187499619,
          "durationTicks": 159,
          "midi": 61,
          "name": "C#4",
          "ticks": 110080,
          "time": 269.80401600000005,
          "velocity": 0.6299212598425197
        },
        {
          "duration": 0.38970601875001876,
          "durationTicks": 159,
          "midi": 63,
          "name": "D#4",
          "ticks": 110240,
          "time": 270.196173,
          "velocity": 0.6299212598425197
        },
        {
          "duration": 0.38970601875001876,
          "durationTicks": 159,
          "midi": 56,
          "name": "G#3",
          "ticks": 110400,
          "time": 270.58833,
          "velocity": 0.6299212598425197
        },
        {
          "duration": 1.1740200187500136,
          "durationTicks": 479,
          "midi": 32,
          "name": "G#1",
          "ticks": 110400,
          "time": 270.58833,
          "velocity": 0.6299212598425197
        },
        {
          "duration": 1.1740200187500136,
          "durationTicks": 479,
          "midi": 44,
          "name": "G#2",
          "ticks": 110400,
          "time": 270.58833,
          "velocity": 0.6299212598425197
        },
        {
          "duration": 0.3897060187499619,
          "durationTicks": 159,
          "midi": 61,
          "name": "C#4",
          "ticks": 110560,
          "time": 270.98048700000004,
          "velocity": 0.6299212598425197
        },
        {
          "duration": 0.38970601875001876,
          "durationTicks": 159,
          "midi": 63,
          "name": "D#4",
          "ticks": 110720,
          "time": 271.372644,
          "velocity": 0.6299212598425197
        },
        {
          "duration": 0.3897060187499619,
          "durationTicks": 159,
          "midi": 57,
          "name": "A3",
          "ticks": 110880,
          "time": 271.76480100000003,
          "velocity": 0.6299212598425197
        },
        {
          "duration": 1.1740200187499568,
          "durationTicks": 479,
          "midi": 30,
          "name": "F#1",
          "ticks": 110880,
          "time": 271.76480100000003,
          "velocity": 0.6299212598425197
        },
        {
          "duration": 1.1740200187499568,
          "durationTicks": 479,
          "midi": 42,
          "name": "F#2",
          "ticks": 110880,
          "time": 271.76480100000003,
          "velocity": 0.6299212598425197
        },
        {
          "duration": 0.3897060187499619,
          "durationTicks": 159,
          "midi": 61,
          "name": "C#4",
          "ticks": 111040,
          "time": 272.15695800000003,
          "velocity": 0.6299212598425197
        },
        {
          "duration": 0.38970601875001876,
          "durationTicks": 159,
          "midi": 63,
          "name": "D#4",
          "ticks": 111200,
          "time": 272.549115,
          "velocity": 0.6299212598425197
        },
        {
          "duration": 0.38970601875001876,
          "durationTicks": 159,
          "midi": 56,
          "name": "G#3",
          "ticks": 111360,
          "time": 272.941272,
          "velocity": 0.6299212598425197
        },
        {
          "duration": 2.350491018750006,
          "durationTicks": 959,
          "midi": 32,
          "name": "G#1",
          "ticks": 111360,
          "time": 272.941272,
          "velocity": 0.6299212598425197
        },
        {
          "duration": 2.350491018750006,
          "durationTicks": 959,
          "midi": 44,
          "name": "G#2",
          "ticks": 111360,
          "time": 272.941272,
          "velocity": 0.6299212598425197
        },
        {
          "duration": 0.3897060187499619,
          "durationTicks": 159,
          "midi": 61,
          "name": "C#4",
          "ticks": 111520,
          "time": 273.333429,
          "velocity": 0.6299212598425197
        },
        {
          "duration": 0.38970601875001876,
          "durationTicks": 159,
          "midi": 64,
          "name": "E4",
          "ticks": 111680,
          "time": 273.725586,
          "velocity": 0.6299212598425197
        },
        {
          "duration": 0.38970601875001876,
          "durationTicks": 159,
          "midi": 56,
          "name": "G#3",
          "ticks": 111840,
          "time": 274.117743,
          "velocity": 0.6299212598425197
        },
        {
          "duration": 0.3897060187499619,
          "durationTicks": 159,
          "midi": 61,
          "name": "C#4",
          "ticks": 112000,
          "time": 274.5099,
          "velocity": 0.6299212598425197
        },
        {
          "duration": 0.38970601875001876,
          "durationTicks": 159,
          "midi": 64,
          "name": "E4",
          "ticks": 112160,
          "time": 274.902057,
          "velocity": 0.6299212598425197
        },
        {
          "duration": 0.38970601875001876,
          "durationTicks": 159,
          "midi": 54,
          "name": "F#3",
          "ticks": 112320,
          "time": 275.294214,
          "velocity": 0.6299212598425197
        },
        {
          "duration": 2.350491018750006,
          "durationTicks": 959,
          "midi": 32,
          "name": "G#1",
          "ticks": 112320,
          "time": 275.294214,
          "velocity": 0.6299212598425197
        },
        {
          "duration": 2.350491018750006,
          "durationTicks": 959,
          "midi": 44,
          "name": "G#2",
          "ticks": 112320,
          "time": 275.294214,
          "velocity": 0.6299212598425197
        },
        {
          "duration": 0.38970601875001876,
          "durationTicks": 159,
          "midi": 60,
          "name": "C4",
          "ticks": 112480,
          "time": 275.686371,
          "velocity": 0.6299212598425197
        },
        {
          "duration": 0.38970601875001876,
          "durationTicks": 159,
          "midi": 63,
          "name": "D#4",
          "ticks": 112640,
          "time": 276.078528,
          "velocity": 0.6299212598425197
        },
        {
          "duration": 0.38970601875001876,
          "durationTicks": 159,
          "midi": 54,
          "name": "F#3",
          "ticks": 112800,
          "time": 276.470685,
          "velocity": 0.6299212598425197
        },
        {
          "duration": 0.38970601875001876,
          "durationTicks": 159,
          "midi": 60,
          "name": "C4",
          "ticks": 112960,
          "time": 276.862842,
          "velocity": 0.6299212598425197
        },
        {
          "duration": 0.38970601875001876,
          "durationTicks": 159,
          "midi": 63,
          "name": "D#4",
          "ticks": 113120,
          "time": 277.254999,
          "velocity": 0.6299212598425197
        },
        {
          "duration": 0.38970601875001876,
          "durationTicks": 159,
          "midi": 52,
          "name": "E3",
          "ticks": 113280,
          "time": 277.647156,
          "velocity": 0.6299212598425197
        },
        {
          "duration": 3.526962018749998,
          "durationTicks": 1439,
          "midi": 37,
          "name": "C#2",
          "ticks": 113280,
          "time": 277.647156,
          "velocity": 0.6299212598425197
        },
        {
          "duration": 3.526962018749998,
          "durationTicks": 1439,
          "midi": 44,
          "name": "G#2",
          "ticks": 113280,
          "time": 277.647156,
          "velocity": 0.6299212598425197
        },
        {
          "duration": 0.3897060187499619,
          "durationTicks": 159,
          "midi": 56,
          "name": "G#3",
          "ticks": 113440,
          "time": 278.03931300000005,
          "velocity": 0.6299212598425197
        },
        {
          "duration": 0.38970601875001876,
          "durationTicks": 159,
          "midi": 61,
          "name": "C#4",
          "ticks": 113600,
          "time": 278.43147,
          "velocity": 0.6299212598425197
        },
        {
          "duration": 0.8799022687499587,
          "durationTicks": 359,
          "midi": 44,
          "name": "G#2",
          "ticks": 114720,
          "time": 281.17656900000003,
          "velocity": 0.6299212598425197
        },
        {
          "duration": 0.29166676874996256,
          "durationTicks": 119,
          "midi": 44,
          "name": "G#2",
          "ticks": 115080,
          "time": 282.05892225,
          "velocity": 0.6299212598425197
        },
        {
          "duration": 3.526962018749998,
          "durationTicks": 1439,
          "midi": 44,
          "name": "G#2",
          "ticks": 115200,
          "time": 282.35304,
          "velocity": 0.6299212598425197
        },
        {
          "duration": 4.70343301874999,
          "durationTicks": 1919,
          "midi": 36,
          "name": "C2",
          "ticks": 115200,
          "time": 282.35304,
          "velocity": 0.6299212598425197
        },
        {
          "duration": 0.8799022687500155,
          "durationTicks": 359,
          "midi": 44,
          "name": "G#2",
          "ticks": 116640,
          "time": 285.882453,
          "velocity": 0.6299212598425197
        },
        {
          "duration": 0.2916667687500194,
          "durationTicks": 119,
          "midi": 44,
          "name": "G#2",
          "ticks": 117000,
          "time": 286.76480625,
          "velocity": 0.6299212598425197
        },
        {
          "duration": 3.526962018749998,
          "durationTicks": 1439,
          "midi": 44,
          "name": "G#2",
          "ticks": 117120,
          "time": 287.058924,
          "velocity": 0.6299212598425197
        },
        {
          "duration": 4.703433018750047,
          "durationTicks": 1919,
          "midi": 37,
          "name": "C#2",
          "ticks": 117120,
          "time": 287.058924,
          "velocity": 0.6299212598425197
        },
        {
          "duration": 0.8799022687500155,
          "durationTicks": 359,
          "midi": 44,
          "name": "G#2",
          "ticks": 118560,
          "time": 290.588337,
          "velocity": 0.6299212598425197
        },
        {
          "duration": 0.2916667687500194,
          "durationTicks": 119,
          "midi": 44,
          "name": "G#2",
          "ticks": 118920,
          "time": 291.47069025,
          "velocity": 0.6299212598425197
        },
        {
          "duration": 3.526962018749998,
          "durationTicks": 1439,
          "midi": 44,
          "name": "G#2",
          "ticks": 119040,
          "time": 291.764808,
          "velocity": 0.6299212598425197
        },
        {
          "duration": 4.70343301874999,
          "durationTicks": 1919,
          "midi": 32,
          "name": "G#1",
          "ticks": 119040,
          "time": 291.764808,
          "velocity": 0.6299212598425197
        },
        {
          "duration": 0.8799022687500155,
          "durationTicks": 359,
          "midi": 44,
          "name": "G#2",
          "ticks": 120480,
          "time": 295.294221,
          "velocity": 0.6299212598425197
        },
        {
          "duration": 0.2916667687500194,
          "durationTicks": 119,
          "midi": 44,
          "name": "G#2",
          "ticks": 120840,
          "time": 296.17657425,
          "velocity": 0.6299212598425197
        },
        {
          "duration": 3.526962018750055,
          "durationTicks": 1439,
          "midi": 44,
          "name": "G#2",
          "ticks": 120960,
          "time": 296.470692,
          "velocity": 0.6299212598425197
        },
        {
          "duration": 4.703433018750047,
          "durationTicks": 1919,
          "midi": 37,
          "name": "C#2",
          "ticks": 120960,
          "time": 296.470692,
          "velocity": 0.6299212598425197
        },
        {
          "duration": 0.8799022687500155,
          "durationTicks": 359,
          "midi": 44,
          "name": "G#2",
          "ticks": 122400,
          "time": 300.000105,
          "velocity": 0.6299212598425197
        },
        {
          "duration": 0.2916667687500194,
          "durationTicks": 119,
          "midi": 44,
          "name": "G#2",
          "ticks": 122760,
          "time": 300.88245825,
          "velocity": 0.6299212598425197
        },
        {
          "duration": 3.5269620187499413,
          "durationTicks": 1439,
          "midi": 44,
          "name": "G#2",
          "ticks": 122880,
          "time": 301.176576,
          "velocity": 0.6299212598425197
        },
        {
          "duration": 4.70343301874999,
          "durationTicks": 1919,
          "midi": 32,
          "name": "G#1",
          "ticks": 122880,
          "time": 301.176576,
          "velocity": 0.6299212598425197
        },
        {
          "duration": 0.8799022687500155,
          "durationTicks": 359,
          "midi": 44,
          "name": "G#2",
          "ticks": 124320,
          "time": 304.705989,
          "velocity": 0.6299212598425197
        },
        {
          "duration": 0.29166676874996256,
          "durationTicks": 119,
          "midi": 44,
          "name": "G#2",
          "ticks": 124680,
          "time": 305.58834225000004,
          "velocity": 0.6299212598425197
        },
        {
          "duration": 2.350491018749949,
          "durationTicks": 959,
          "midi": 44,
          "name": "G#2",
          "ticks": 124800,
          "time": 305.88246000000004,
          "velocity": 0.6299212598425197
        },
        {
          "duration": 9.40931701874996,
          "durationTicks": 3839,
          "midi": 37,
          "name": "C#2",
          "ticks": 124800,
          "time": 305.88246000000004,
          "velocity": 0.6299212598425197
        },
        {
          "duration": 2.350491018749949,
          "durationTicks": 959,
          "midi": 49,
          "name": "C#3",
          "ticks": 125760,
          "time": 308.235402,
          "velocity": 0.6299212598425197
        },
        {
          "duration": 2.350491018749949,
          "durationTicks": 959,
          "midi": 44,
          "name": "G#2",
          "ticks": 126720,
          "time": 310.588344,
          "velocity": 0.6299212598425197
        },
        {
          "duration": 0.38970601875001876,
          "durationTicks": 159,
          "midi": 44,
          "name": "G#2",
          "ticks": 127680,
          "time": 312.941286,
          "velocity": 0.6299212598425197
        },
        {
          "duration": 0.38970601875001876,
          "durationTicks": 159,
          "midi": 49,
          "name": "C#3",
          "ticks": 127840,
          "time": 313.333443,
          "velocity": 0.6299212598425197
        },
        {
          "duration": 0.3897060187499619,
          "durationTicks": 159,
          "midi": 44,
          "name": "G#2",
          "ticks": 128000,
          "time": 313.72560000000004,
          "velocity": 0.6299212598425197
        },
        {
          "duration": 0.3897060187499619,
          "durationTicks": 159,
          "midi": 40,
          "name": "E2",
          "ticks": 128160,
          "time": 314.11775700000004,
          "velocity": 0.6299212598425197
        },
        {
          "duration": 0.38970601875001876,
          "durationTicks": 159,
          "midi": 44,
          "name": "G#2",
          "ticks": 128320,
          "time": 314.509914,
          "velocity": 0.6299212598425197
        },
        {
          "duration": 0.3897060187499619,
          "durationTicks": 159,
          "midi": 40,
          "name": "E2",
          "ticks": 128480,
          "time": 314.90207100000003,
          "velocity": 0.6299212598425197
        },
        {
          "duration": 2.350491018749949,
          "durationTicks": 959,
          "midi": 37,
          "name": "C#2",
          "ticks": 128640,
          "time": 315.29422800000003,
          "velocity": 0.6299212598425197
        },
        {
          "duration": 2.350491018749949,
          "durationTicks": 959,
          "midi": 37,
          "name": "C#2",
          "ticks": 129600,
          "time": 317.64717,
          "velocity": 0.6299212598425197
        },
        {
          "duration": 2.350491018749949,
          "durationTicks": 959,
          "midi": 44,
          "name": "G#2",
          "ticks": 129600,
          "time": 317.64717,
          "velocity": 0.6299212598425197
        },
        {
          "duration": 2.350491018749949,
          "durationTicks": 959,
          "midi": 49,
          "name": "C#3",
          "ticks": 129600,
          "time": 317.64717,
          "velocity": 0.6299212598425197
        },
        {
          "duration": 4.70343301874999,
          "durationTicks": 1919,
          "midi": 37,
          "name": "C#2",
          "ticks": 130560,
          "time": 320.000112,
          "velocity": 0.6299212598425197
        },
        {
          "duration": 4.70343301874999,
          "durationTicks": 1919,
          "midi": 44,
          "name": "G#2",
          "ticks": 130560,
          "time": 320.000112,
          "velocity": 0.6299212598425197
        },
        {
          "duration": 4.70343301874999,
          "durationTicks": 1919,
          "midi": 49,
          "name": "C#3",
          "ticks": 130560,
          "time": 320.000112,
          "velocity": 0.6299212598425197
        }
      ],
      "endOfTrackTicks": 132480
    }
  ]
}
