{
  "header": {
    "keySignatures": [
      {
        "key": "D",
        "scale": "major",
        "ticks": 0
      },
      {
        "key": "D",
        "scale": "major",
        "ticks": 0
      }
    ],
    "meta": [],
    "name": "",
    "ppq": 480,
    "tempos": [
      {
        "bpm": 100.00016666694445,
        "ticks": 0
      }
    ],
    "timeSignatures": [
      {
        "ticks": 0,
        "timeSignature": [
          12,
          8
        ],
        "measures": 0
      }
    ]
  },
  "tracks": [
    {
      "channel": 0,
      "controlChanges": {
        "7": [
          {
            "number": 7,
            "ticks": 0,
            "time": 0,
            "value": 1
          }
        ],
        "10": [
          {
            "number": 10,
            "ticks": 0,
            "time": 0,
            "value": 0.5039370078740157
          }
        ],
        "91": [
          {
            "number": 91,
            "ticks": 0,
            "time": 0,
            "value": 0.23622047244094488
          }
        ],
        "93": [
          {
            "number": 93,
            "ticks": 0,
            "time": 0,
            "value": 0.25984251968503935
          }
        ],
        "121": [
          {
            "number": 121,
            "ticks": 0,
            "time": 0,
            "value": 0
          }
        ]
      },
      "pitchBends": [],
      "instrument": {
        "family": "piano",
        "number": 0,
        "name": "acoustic grand piano"
      },
      "name": "",
      "notes": [
        {
          "duration": 0.29874950208333306,
          "durationTicks": 239,
          "midi": 66,
          "name": "F#4",
          "ticks": 5760,
          "time": 7.199987999999999,
          "velocity": 0.3858267716535433
        },
        {
          "duration": 0.29874950208333306,
          "durationTicks": 239,
          "midi": 71,
          "name": "B4",
          "ticks": 5760,
          "time": 7.199987999999999,
          "velocity": 0.3858267716535433
        },
        {
          "duration": 0.29874950208333306,
          "durationTicks": 239,
          "midi": 71,
          "name": "B4",
          "ticks": 6000,
          "time": 7.4999875,
          "velocity": 0.3858267716535433
        },
        {
          "duration": 0.2987495020833322,
          "durationTicks": 239,
          "midi": 71,
          "name": "B4",
          "ticks": 6240,
          "time": 7.799987,
          "velocity": 0.3858267716535433
        },
        {
          "duration": 0.2987495020833322,
          "durationTicks": 239,
          "midi": 62,
          "name": "D4",
          "ticks": 6480,
          "time": 8.0999865,
          "velocity": 0.3858267716535433
        },
        {
          "duration": 0.2987495020833322,
          "durationTicks": 239,
          "midi": 67,
          "name": "G4",
          "ticks": 6480,
          "time": 8.0999865,
          "velocity": 0.3858267716535433
        },
        {
          "duration": 0.2987495020833322,
          "durationTicks": 239,
          "midi": 71,
          "name": "B4",
          "ticks": 6480,
          "time": 8.0999865,
          "velocity": 0.3858267716535433
        },
        {
          "duration": 0.29874950208333395,
          "durationTicks": 239,
          "midi": 71,
          "name": "B4",
          "ticks": 6720,
          "time": 8.399985999999998,
          "velocity": 0.3858267716535433
        },
        {
          "duration": 0.29874950208333395,
          "durationTicks": 239,
          "midi": 71,
          "name": "B4",
          "ticks": 6960,
          "time": 8.699985499999999,
          "velocity": 0.3858267716535433
        },
        {
          "duration": 0.29874950208333395,
          "durationTicks": 239,
          "midi": 64,
          "name": "E4",
          "ticks": 7200,
          "time": 8.999984999999999,
          "velocity": 0.3858267716535433
        },
        {
          "duration": 0.29874950208333395,
          "durationTicks": 239,
          "midi": 69,
          "name": "A4",
          "ticks": 7200,
          "time": 8.999984999999999,
          "velocity": 0.3858267716535433
        },
        {
          "duration": 0.29874950208333395,
          "durationTicks": 239,
          "midi": 71,
          "name": "B4",
          "ticks": 7200,
          "time": 8.999984999999999,
          "velocity": 0.3858267716535433
        },
        {
          "duration": 0.29874950208333395,
          "durationTicks": 239,
          "midi": 71,
          "name": "B4",
          "ticks": 7440,
          "time": 9.299984499999999,
          "velocity": 0.3858267716535433
        },
        {
          "duration": 0.2987495020833322,
          "durationTicks": 239,
          "midi": 71,
          "name": "B4",
          "ticks": 7680,
          "time": 9.599984,
          "velocity": 0.3858267716535433
        },
        {
          "duration": 0.2987495020833322,
          "durationTicks": 239,
          "midi": 64,
          "name": "E4",
          "ticks": 7920,
          "time": 9.8999835,
          "velocity": 0.3858267716535433
        },
        {
          "duration": 0.2987495020833322,
          "durationTicks": 239,
          "midi": 71,
          "name": "B4",
          "ticks": 7920,
          "time": 9.8999835,
          "velocity": 0.3858267716535433
        },
        {
          "duration": 0.2987495020833322,
          "durationTicks": 239,
          "midi": 71,
          "name": "B4",
          "ticks": 8160,
          "time": 10.199983,
          "velocity": 0.3858267716535433
        },
        {
          "duration": 0.1487497520833312,
          "durationTicks": 119,
          "midi": 73,
          "name": "C#5",
          "ticks": 8400,
          "time": 10.4999825,
          "velocity": 0.3858267716535433
        },
        {
          "duration": 0.14874975208333296,
          "durationTicks": 119,
          "midi": 74,
          "name": "D5",
          "ticks": 8520,
          "time": 10.649982249999999,
          "velocity": 0.3858267716535433
        },
        {
          "duration": 0.2987495020833322,
          "durationTicks": 239,
          "midi": 66,
          "name": "F#4",
          "ticks": 8640,
          "time": 10.799982,
          "velocity": 0.3858267716535433
        },
        {
          "duration": 0.2987495020833322,
          "durationTicks": 239,
          "midi": 71,
          "name": "B4",
          "ticks": 8640,
          "time": 10.799982,
          "velocity": 0.3858267716535433
        },
        {
          "duration": 0.2987495020833322,
          "durationTicks": 239,
          "midi": 71,
          "name": "B4",
          "ticks": 8880,
          "time": 11.099981499999998,
          "velocity": 0.3858267716535433
        },
        {
          "duration": 0.2987495020833322,
          "durationTicks": 239,
          "midi": 71,
          "name": "B4",
          "ticks": 9120,
          "time": 11.399980999999999,
          "velocity": 0.3858267716535433
        },
        {
          "duration": 0.2987495020833322,
          "durationTicks": 239,
          "midi": 62,
          "name": "D4",
          "ticks": 9360,
          "time": 11.699980499999999,
          "velocity": 0.3858267716535433
        },
        {
          "duration": 0.2987495020833322,
          "durationTicks": 239,
          "midi": 67,
          "name": "G4",
          "ticks": 9360,
          "time": 11.699980499999999,
          "velocity": 0.3858267716535433
        },
        {
          "duration": 0.2987495020833322,
          "durationTicks": 239,
          "midi": 71,
          "name": "B4",
          "ticks": 9360,
          "time": 11.699980499999999,
          "velocity": 0.3858267716535433
        },
        {
          "duration": 0.2987495020833322,
          "durationTicks": 239,
          "midi": 71,
          "name": "B4",
          "ticks": 9600,
          "time": 11.999979999999999,
          "velocity": 0.3858267716535433
        },
        {
          "duration": 0.2987495020833322,
          "durationTicks": 239,
          "midi": 71,
          "name": "B4",
          "ticks": 9840,
          "time": 12.2999795,
          "velocity": 0.3858267716535433
        },
        {
          "duration": 0.2987495020833322,
          "durationTicks": 239,
          "midi": 64,
          "name": "E4",
          "ticks": 10080,
          "time": 12.599979,
          "velocity": 0.3858267716535433
        },
        {
          "duration": 0.2987495020833322,
          "durationTicks": 239,
          "midi": 69,
          "name": "A4",
          "ticks": 10080,
          "time": 12.599979,
          "velocity": 0.3858267716535433
        },
        {
          "duration": 0.2987495020833322,
          "durationTicks": 239,
          "midi": 71,
          "name": "B4",
          "ticks": 10080,
          "time": 12.599979,
          "velocity": 0.3858267716535433
        },
        {
          "duration": 0.2987495020833322,
          "durationTicks": 239,
          "midi": 71,
          "name": "B4",
          "ticks": 10320,
          "time": 12.8999785,
          "velocity": 0.3858267716535433
        },
        {
          "duration": 0.29874950208333395,
          "durationTicks": 239,
          "midi": 71,
          "name": "B4",
          "ticks": 10560,
          "time": 13.199977999999998,
          "velocity": 0.3858267716535433
        },
        {
          "duration": 0.2987495020833322,
          "durationTicks": 239,
          "midi": 64,
          "name": "E4",
          "ticks": 10800,
          "time": 13.499977499999998,
          "velocity": 0.3858267716535433
        },
        {
          "duration": 0.2987495020833322,
          "durationTicks": 239,
          "midi": 71,
          "name": "B4",
          "ticks": 10800,
          "time": 13.499977499999998,
          "velocity": 0.3858267716535433
        },
        {
          "duration": 0.2987495020833322,
          "durationTicks": 239,
          "midi": 71,
          "name": "B4",
          "ticks": 11040,
          "time": 13.799976999999998,
          "velocity": 0.3858267716535433
        },
        {
          "duration": 0.14874975208333296,
          "durationTicks": 119,
          "midi": 73,
          "name": "C#5",
          "ticks": 11280,
          "time": 14.099976499999999,
          "velocity": 0.3858267716535433
        },
        {
          "duration": 0.1487497520833312,
          "durationTicks": 119,
          "midi": 74,
          "name": "D5",
          "ticks": 11400,
          "time": 14.24997625,
          "velocity": 0.3858267716535433
        },
        {
          "duration": 0.2987495020833322,
          "durationTicks": 239,
          "midi": 66,
          "name": "F#4",
          "ticks": 11520,
          "time": 14.399975999999999,
          "velocity": 0.6299212598425197
        },
        {
          "duration": 0.2987495020833322,
          "durationTicks": 239,
          "midi": 71,
          "name": "B4",
          "ticks": 11520,
          "time": 14.399975999999999,
          "velocity": 0.6299212598425197
        },
        {
          "duration": 0.2987495020833322,
          "durationTicks": 239,
          "midi": 71,
          "name": "B4",
          "ticks": 11760,
          "time": 14.699975499999999,
          "velocity": 0.6299212598425197
        },
        {
          "duration": 0.2987495020833322,
          "durationTicks": 239,
          "midi": 71,
          "name": "B4",
          "ticks": 12000,
          "time": 14.999975,
          "velocity": 0.6299212598425197
        },
        {
          "duration": 0.2987495020833322,
          "durationTicks": 239,
          "midi": 62,
          "name": "D4",
          "ticks": 12240,
          "time": 15.2999745,
          "velocity": 0.6299212598425197
        },
        {
          "duration": 0.2987495020833322,
          "durationTicks": 239,
          "midi": 67,
          "name": "G4",
          "ticks": 12240,
          "time": 15.2999745,
          "velocity": 0.6299212598425197
        },
        {
          "duration": 0.2987495020833322,
          "durationTicks": 239,
          "midi": 71,
          "name": "B4",
          "ticks": 12240,
          "time": 15.2999745,
          "velocity": 0.6299212598425197
        },
        {
          "duration": 0.2987495020833322,
          "durationTicks": 239,
          "midi": 71,
          "name": "B4",
          "ticks": 12480,
          "time": 15.599974,
          "velocity": 0.6299212598425197
        },
        {
          "duration": 0.2987495020833322,
          "durationTicks": 239,
          "midi": 71,
          "name": "B4",
          "ticks": 12720,
          "time": 15.899973499999998,
          "velocity": 0.6299212598425197
        },
        {
          "duration": 0.2987495020833322,
          "durationTicks": 239,
          "midi": 64,
          "name": "E4",
          "ticks": 12960,
          "time": 16.199973,
          "velocity": 0.6299212598425197
        },
        {
          "duration": 0.2987495020833322,
          "durationTicks": 239,
          "midi": 69,
          "name": "A4",
          "ticks": 12960,
          "time": 16.199973,
          "velocity": 0.6299212598425197
        },
        {
          "duration": 0.2987495020833322,
          "durationTicks": 239,
          "midi": 71,
          "name": "B4",
          "ticks": 12960,
          "time": 16.199973,
          "velocity": 0.6299212598425197
        },
        {
          "duration": 0.2987495020833322,
          "durationTicks": 239,
          "midi": 71,
          "name": "B4",
          "ticks": 13200,
          "time": 16.4999725,
          "velocity": 0.6299212598425197
        },
        {
          "duration": 0.2987495020833357,
          "durationTicks": 239,
          "midi": 71,
          "name": "B4",
          "ticks": 13440,
          "time": 16.799971999999997,
          "velocity": 0.6299212598425197
        },
        {
          "duration": 0.2987495020833322,
          "durationTicks": 239,
          "midi": 64,
          "name": "E4",
          "ticks": 13680,
          "time": 17.0999715,
          "velocity": 0.6299212598425197
        },
        {
          "duration": 0.2987495020833322,
          "durationTicks": 239,
          "midi": 71,
          "name": "B4",
          "ticks": 13680,
          "time": 17.0999715,
          "velocity": 0.6299212598425197
        },
        {
          "duration": 0.2987495020833322,
          "durationTicks": 239,
          "midi": 71,
          "name": "B4",
          "ticks": 13920,
          "time": 17.399970999999997,
          "velocity": 0.6299212598425197
        },
        {
          "duration": 0.14874975208333296,
          "durationTicks": 119,
          "midi": 73,
          "name": "C#5",
          "ticks": 14160,
          "time": 17.6999705,
          "velocity": 0.6299212598425197
        },
        {
          "duration": 0.14874975208333296,
          "durationTicks": 119,
          "midi": 74,
          "name": "D5",
          "ticks": 14280,
          "time": 17.84997025,
          "velocity": 0.6299212598425197
        },
        {
          "duration": 0.2987495020833322,
          "durationTicks": 239,
          "midi": 66,
          "name": "F#4",
          "ticks": 14400,
          "time": 17.999969999999998,
          "velocity": 0.6299212598425197
        },
        {
          "duration": 0.2987495020833322,
          "durationTicks": 239,
          "midi": 71,
          "name": "B4",
          "ticks": 14400,
          "time": 17.999969999999998,
          "velocity": 0.6299212598425197
        },
        {
          "duration": 0.2987495020833322,
          "durationTicks": 239,
          "midi": 71,
          "name": "B4",
          "ticks": 14640,
          "time": 18.2999695,
          "velocity": 0.6299212598425197
        },
        {
          "duration": 0.2987495020833322,
          "durationTicks": 239,
          "midi": 71,
          "name": "B4",
          "ticks": 14880,
          "time": 18.599968999999998,
          "velocity": 0.6299212598425197
        },
        {
          "duration": 0.2987495020833322,
          "durationTicks": 239,
          "midi": 62,
          "name": "D4",
          "ticks": 15120,
          "time": 18.8999685,
          "velocity": 0.6299212598425197
        },
        {
          "duration": 0.2987495020833322,
          "durationTicks": 239,
          "midi": 67,
          "name": "G4",
          "ticks": 15120,
          "time": 18.8999685,
          "velocity": 0.6299212598425197
        },
        {
          "duration": 0.2987495020833322,
          "durationTicks": 239,
          "midi": 71,
          "name": "B4",
          "ticks": 15120,
          "time": 18.8999685,
          "velocity": 0.6299212598425197
        },
        {
          "duration": 0.2987495020833357,
          "durationTicks": 239,
          "midi": 71,
          "name": "B4",
          "ticks": 15360,
          "time": 19.199968,
          "velocity": 0.6299212598425197
        },
        {
          "duration": 0.2987495020833357,
          "durationTicks": 239,
          "midi": 71,
          "name": "B4",
          "ticks": 15600,
          "time": 19.499967499999997,
          "velocity": 0.6299212598425197
        },
        {
          "duration": 0.2987495020833357,
          "durationTicks": 239,
          "midi": 64,
          "name": "E4",
          "ticks": 15840,
          "time": 19.799967,
          "velocity": 0.6299212598425197
        },
        {
          "duration": 0.2987495020833357,
          "durationTicks": 239,
          "midi": 69,
          "name": "A4",
          "ticks": 15840,
          "time": 19.799967,
          "velocity": 0.6299212598425197
        },
        {
          "duration": 0.2987495020833357,
          "durationTicks": 239,
          "midi": 71,
          "name": "B4",
          "ticks": 15840,
          "time": 19.799967,
          "velocity": 0.6299212598425197
        },
        {
          "duration": 0.2987495020833357,
          "durationTicks": 239,
          "midi": 71,
          "name": "B4",
          "ticks": 16080,
          "time": 20.099966499999997,
          "velocity": 0.6299212598425197
        },
        {
          "duration": 0.2987495020833322,
          "durationTicks": 239,
          "midi": 71,
          "name": "B4",
          "ticks": 16320,
          "time": 20.399966,
          "velocity": 0.6299212598425197
        },
        {
          "duration": 0.2987495020833357,
          "durationTicks": 239,
          "midi": 64,
          "name": "E4",
          "ticks": 16560,
          "time": 20.699965499999998,
          "velocity": 0.6299212598425197
        },
        {
          "duration": 0.2987495020833357,
          "durationTicks": 239,
          "midi": 71,
          "name": "B4",
          "ticks": 16560,
          "time": 20.699965499999998,
          "velocity": 0.6299212598425197
        },
        {
          "duration": 0.2987495020833322,
          "durationTicks": 239,
          "midi": 71,
          "name": "B4",
          "ticks": 16800,
          "time": 20.999965,
          "velocity": 0.6299212598425197
        },
        {
          "duration": 0.14874975208333296,
          "durationTicks": 119,
          "midi": 73,
          "name": "C#5",
          "ticks": 17040,
          "time": 21.299964499999998,
          "velocity": 0.6299212598425197
        },
        {
          "duration": 0.14874975208333652,
          "durationTicks": 119,
          "midi": 74,
          "name": "D5",
          "ticks": 17160,
          "time": 21.449964249999997,
          "velocity": 0.6299212598425197
        },
        {
          "duration": 0.2987495020833322,
          "durationTicks": 239,
          "midi": 71,
          "name": "B4",
          "ticks": 17280,
          "time": 21.599964,
          "velocity": 0.6299212598425197
        },
        {
          "duration": 0.14874975208333296,
          "durationTicks": 119,
          "midi": 73,
          "name": "C#5",
          "ticks": 17520,
          "time": 21.8999635,
          "velocity": 0.6299212598425197
        },
        {
          "duration": 0.14874975208333652,
          "durationTicks": 119,
          "midi": 74,
          "name": "D5",
          "ticks": 17640,
          "time": 22.049963249999998,
          "velocity": 0.6299212598425197
        },
        {
          "duration": 0.2987495020833357,
          "durationTicks": 239,
          "midi": 71,
          "name": "B4",
          "ticks": 17760,
          "time": 22.199962999999997,
          "velocity": 0.6299212598425197
        },
        {
          "duration": 1.798747002083335,
          "durationTicks": 1439,
          "midi": 59,
          "name": "B3",
          "ticks": 18000,
          "time": 22.4999625,
          "velocity": 0.3858267716535433
        },
        {
          "duration": 1.798747002083335,
          "durationTicks": 1439,
          "midi": 64,
          "name": "E4",
          "ticks": 19440,
          "time": 24.299959499999996,
          "velocity": 0.3858267716535433
        },
        {
          "duration": 1.798747002083335,
          "durationTicks": 1439,
          "midi": 59,
          "name": "B3",
          "ticks": 20880,
          "time": 26.099956499999998,
          "velocity": 0.3858267716535433
        },
        {
          "duration": 1.798747002083335,
          "durationTicks": 1439,
          "midi": 62,
          "name": "D4",
          "ticks": 20880,
          "time": 26.099956499999998,
          "velocity": 0.3858267716535433
        },
        {
          "duration": 1.798747002083335,
          "durationTicks": 1439,
          "midi": 71,
          "name": "B4",
          "ticks": 20880,
          "time": 26.099956499999998,
          "velocity": 0.3858267716535433
        },
        {
          "duration": 1.798747002083335,
          "durationTicks": 1439,
          "midi": 61,
          "name": "C#4",
          "ticks": 22320,
          "time": 27.8999535,
          "velocity": 0.3858267716535433
        },
        {
          "duration": 1.798747002083335,
          "durationTicks": 1439,
          "midi": 64,
          "name": "E4",
          "ticks": 22320,
          "time": 27.8999535,
          "velocity": 0.3858267716535433
        },
        {
          "duration": 1.798747002083335,
          "durationTicks": 1439,
          "midi": 69,
          "name": "A4",
          "ticks": 22320,
          "time": 27.8999535,
          "velocity": 0.3858267716535433
        },
        {
          "duration": 1.798747002083335,
          "durationTicks": 1439,
          "midi": 59,
          "name": "B3",
          "ticks": 23760,
          "time": 29.699950499999996,
          "velocity": 0.6299212598425197
        },
        {
          "duration": 1.798747002083335,
          "durationTicks": 1439,
          "midi": 71,
          "name": "B4",
          "ticks": 23760,
          "time": 29.699950499999996,
          "velocity": 0.6299212598425197
        },
        {
          "duration": 1.7987470020833314,
          "durationTicks": 1439,
          "midi": 64,
          "name": "E4",
          "ticks": 25200,
          "time": 31.499947499999998,
          "velocity": 0.6299212598425197
        },
        {
          "duration": 1.7987470020833314,
          "durationTicks": 1439,
          "midi": 76,
          "name": "E5",
          "ticks": 25200,
          "time": 31.499947499999998,
          "velocity": 0.6299212598425197
        },
        {
          "duration": 1.7987470020833385,
          "durationTicks": 1439,
          "midi": 71,
          "name": "B4",
          "ticks": 26640,
          "time": 33.299944499999995,
          "velocity": 0.6299212598425197
        },
        {
          "duration": 1.7987470020833385,
          "durationTicks": 1439,
          "midi": 76,
          "name": "E5",
          "ticks": 26640,
          "time": 33.299944499999995,
          "velocity": 0.6299212598425197
        },
        {
          "duration": 1.7987470020833385,
          "durationTicks": 1439,
          "midi": 83,
          "name": "B5",
          "ticks": 26640,
          "time": 33.299944499999995,
          "velocity": 0.6299212598425197
        },
        {
          "duration": 1.7987470020833314,
          "durationTicks": 1439,
          "midi": 73,
          "name": "C#5",
          "ticks": 28080,
          "time": 35.0999415,
          "velocity": 0.6299212598425197
        },
        {
          "duration": 1.7987470020833314,
          "durationTicks": 1439,
          "midi": 76,
          "name": "E5",
          "ticks": 28080,
          "time": 35.0999415,
          "velocity": 0.6299212598425197
        },
        {
          "duration": 1.7987470020833314,
          "durationTicks": 1439,
          "midi": 81,
          "name": "A5",
          "ticks": 28080,
          "time": 35.0999415,
          "velocity": 0.6299212598425197
        },
        {
          "duration": 1.7987470020833314,
          "durationTicks": 1439,
          "midi": 85,
          "name": "C#6",
          "ticks": 28080,
          "time": 35.0999415,
          "velocity": 0.6299212598425197
        },
        {
          "duration": 0.2987495020833322,
          "durationTicks": 239,
          "midi": 83,
          "name": "B5",
          "ticks": 29520,
          "time": 36.8999385,
          "velocity": 0.7559055118110236
        },
        {
          "duration": 0.14874975208333296,
          "durationTicks": 119,
          "midi": 83,
          "name": "B5",
          "ticks": 29760,
          "time": 37.199937999999996,
          "velocity": 0.7559055118110236
        },
        {
          "duration": 0.14874975208333296,
          "durationTicks": 119,
          "midi": 83,
          "name": "B5",
          "ticks": 29880,
          "time": 37.349937749999995,
          "velocity": 0.7559055118110236
        },
        {
          "duration": 0.14874975208334007,
          "durationTicks": 119,
          "midi": 83,
          "name": "B5",
          "ticks": 30000,
          "time": 37.499937499999994,
          "velocity": 0.7559055118110236
        },
        {
          "duration": 0.14874975208334007,
          "durationTicks": 119,
          "midi": 83,
          "name": "B5",
          "ticks": 30120,
          "time": 37.649937249999994,
          "velocity": 0.7559055118110236
        },
        {
          "duration": 0.2987495020833322,
          "durationTicks": 239,
          "midi": 79,
          "name": "G5",
          "ticks": 30240,
          "time": 37.799937,
          "velocity": 0.7559055118110236
        },
        {
          "duration": 0.2987495020833322,
          "durationTicks": 239,
          "midi": 83,
          "name": "B5",
          "ticks": 30240,
          "time": 37.799937,
          "velocity": 0.7559055118110236
        },
        {
          "duration": 0.14874975208333296,
          "durationTicks": 119,
          "midi": 79,
          "name": "G5",
          "ticks": 30480,
          "time": 38.0999365,
          "velocity": 0.7559055118110236
        },
        {
          "duration": 0.14874975208333296,
          "durationTicks": 119,
          "midi": 83,
          "name": "B5",
          "ticks": 30480,
          "time": 38.0999365,
          "velocity": 0.7559055118110236
        },
        {
          "duration": 0.14874975208333296,
          "durationTicks": 119,
          "midi": 79,
          "name": "G5",
          "ticks": 30600,
          "time": 38.24993625,
          "velocity": 0.7559055118110236
        },
        {
          "duration": 0.14874975208333296,
          "durationTicks": 119,
          "midi": 83,
          "name": "B5",
          "ticks": 30600,
          "time": 38.24993625,
          "velocity": 0.7559055118110236
        },
        {
          "duration": 0.14874975208333296,
          "durationTicks": 119,
          "midi": 79,
          "name": "G5",
          "ticks": 30720,
          "time": 38.399936,
          "velocity": 0.7559055118110236
        },
        {
          "duration": 0.14874975208333296,
          "durationTicks": 119,
          "midi": 83,
          "name": "B5",
          "ticks": 30720,
          "time": 38.399936,
          "velocity": 0.7559055118110236
        },
        {
          "duration": 0.14874975208333296,
          "durationTicks": 119,
          "midi": 79,
          "name": "G5",
          "ticks": 30840,
          "time": 38.549935749999996,
          "velocity": 0.7559055118110236
        },
        {
          "duration": 0.14874975208333296,
          "durationTicks": 119,
          "midi": 83,
          "name": "B5",
          "ticks": 30840,
          "time": 38.549935749999996,
          "velocity": 0.7559055118110236
        },
        {
          "duration": 0.2987495020833393,
          "durationTicks": 239,
          "midi": 81,
          "name": "A5",
          "ticks": 30960,
          "time": 38.699935499999995,
          "velocity": 0.7559055118110236
        },
        {
          "duration": 0.2987495020833393,
          "durationTicks": 239,
          "midi": 83,
          "name": "B5",
          "ticks": 30960,
          "time": 38.699935499999995,
          "velocity": 0.7559055118110236
        },
        {
          "duration": 0.2987495020833393,
          "durationTicks": 239,
          "midi": 81,
          "name": "A5",
          "ticks": 31200,
          "time": 38.999934999999994,
          "velocity": 0.7559055118110236
        },
        {
          "duration": 0.2987495020833393,
          "durationTicks": 239,
          "midi": 83,
          "name": "B5",
          "ticks": 31200,
          "time": 38.999934999999994,
          "velocity": 0.7559055118110236
        },
        {
          "duration": 0.2987495020833322,
          "durationTicks": 239,
          "midi": 81,
          "name": "A5",
          "ticks": 31440,
          "time": 39.2999345,
          "velocity": 0.7559055118110236
        },
        {
          "duration": 0.2987495020833322,
          "durationTicks": 239,
          "midi": 83,
          "name": "B5",
          "ticks": 31440,
          "time": 39.2999345,
          "velocity": 0.7559055118110236
        },
        {
          "duration": 0.2987495020833322,
          "durationTicks": 239,
          "midi": 76,
          "name": "E5",
          "ticks": 31680,
          "time": 39.599934,
          "velocity": 0.7559055118110236
        },
        {
          "duration": 0.2987495020833322,
          "durationTicks": 239,
          "midi": 83,
          "name": "B5",
          "ticks": 31680,
          "time": 39.599934,
          "velocity": 0.7559055118110236
        },
        {
          "duration": 0.2987495020833322,
          "durationTicks": 239,
          "midi": 76,
          "name": "E5",
          "ticks": 31920,
          "time": 39.899933499999996,
          "velocity": 0.7559055118110236
        },
        {
          "duration": 0.2987495020833322,
          "durationTicks": 239,
          "midi": 83,
          "name": "B5",
          "ticks": 31920,
          "time": 39.899933499999996,
          "velocity": 0.7559055118110236
        },
        {
          "duration": 0.2987495020833393,
          "durationTicks": 239,
          "midi": 76,
          "name": "E5",
          "ticks": 32160,
          "time": 40.199932999999994,
          "velocity": 0.7559055118110236
        },
        {
          "duration": 0.2987495020833393,
          "durationTicks": 239,
          "midi": 83,
          "name": "B5",
          "ticks": 32160,
          "time": 40.199932999999994,
          "velocity": 0.7559055118110236
        },
        {
          "duration": 0.2987495020833322,
          "durationTicks": 239,
          "midi": 83,
          "name": "B5",
          "ticks": 32400,
          "time": 40.4999325,
          "velocity": 0.7559055118110236
        },
        {
          "duration": 0.14874975208333296,
          "durationTicks": 119,
          "midi": 83,
          "name": "B5",
          "ticks": 32640,
          "time": 40.799932,
          "velocity": 0.7559055118110236
        },
        {
          "duration": 0.14874975208333296,
          "durationTicks": 119,
          "midi": 83,
          "name": "B5",
          "ticks": 32760,
          "time": 40.94993175,
          "velocity": 0.7559055118110236
        },
        {
          "duration": 0.14874975208333296,
          "durationTicks": 119,
          "midi": 83,
          "name": "B5",
          "ticks": 32880,
          "time": 41.0999315,
          "velocity": 0.7559055118110236
        },
        {
          "duration": 0.14874975208333296,
          "durationTicks": 119,
          "midi": 83,
          "name": "B5",
          "ticks": 33000,
          "time": 41.249931249999996,
          "velocity": 0.7559055118110236
        },
        {
          "duration": 0.2987495020833393,
          "durationTicks": 239,
          "midi": 79,
          "name": "G5",
          "ticks": 33120,
          "time": 41.399930999999995,
          "velocity": 0.7559055118110236
        },
        {
          "duration": 0.2987495020833393,
          "durationTicks": 239,
          "midi": 83,
          "name": "B5",
          "ticks": 33120,
          "time": 41.399930999999995,
          "velocity": 0.7559055118110236
        },
        {
          "duration": 0.14874975208334007,
          "durationTicks": 119,
          "midi": 79,
          "name": "G5",
          "ticks": 33360,
          "time": 41.699930499999994,
          "velocity": 0.7559055118110236
        },
        {
          "duration": 0.14874975208334007,
          "durationTicks": 119,
          "midi": 83,
          "name": "B5",
          "ticks": 33360,
          "time": 41.699930499999994,
          "velocity": 0.7559055118110236
        },
        {
          "duration": 0.14874975208333296,
          "durationTicks": 119,
          "midi": 79,
          "name": "G5",
          "ticks": 33480,
          "time": 41.84993025,
          "velocity": 0.7559055118110236
        },
        {
          "duration": 0.14874975208333296,
          "durationTicks": 119,
          "midi": 83,
          "name": "B5",
          "ticks": 33480,
          "time": 41.84993025,
          "velocity": 0.7559055118110236
        },
        {
          "duration": 0.14874975208333296,
          "durationTicks": 119,
          "midi": 79,
          "name": "G5",
          "ticks": 33600,
          "time": 41.99993,
          "velocity": 0.7559055118110236
        },
        {
          "duration": 0.14874975208333296,
          "durationTicks": 119,
          "midi": 83,
          "name": "B5",
          "ticks": 33600,
          "time": 41.99993,
          "velocity": 0.7559055118110236
        },
        {
          "duration": 0.14874975208333296,
          "durationTicks": 119,
          "midi": 79,
          "name": "G5",
          "ticks": 33720,
          "time": 42.14992975,
          "velocity": 0.7559055118110236
        },
        {
          "duration": 0.14874975208333296,
          "durationTicks": 119,
          "midi": 83,
          "name": "B5",
          "ticks": 33720,
          "time": 42.14992975,
          "velocity": 0.7559055118110236
        },
        {
          "duration": 0.2987495020833322,
          "durationTicks": 239,
          "midi": 81,
          "name": "A5",
          "ticks": 33840,
          "time": 42.2999295,
          "velocity": 0.7559055118110236
        },
        {
          "duration": 0.2987495020833322,
          "durationTicks": 239,
          "midi": 83,
          "name": "B5",
          "ticks": 33840,
          "time": 42.2999295,
          "velocity": 0.7559055118110236
        },
        {
          "duration": 0.2987495020833322,
          "durationTicks": 239,
          "midi": 81,
          "name": "A5",
          "ticks": 34080,
          "time": 42.599928999999996,
          "velocity": 0.7559055118110236
        },
        {
          "duration": 0.2987495020833322,
          "durationTicks": 239,
          "midi": 83,
          "name": "B5",
          "ticks": 34080,
          "time": 42.599928999999996,
          "velocity": 0.7559055118110236
        },
        {
          "duration": 0.2987495020833393,
          "durationTicks": 239,
          "midi": 81,
          "name": "A5",
          "ticks": 34320,
          "time": 42.899928499999994,
          "velocity": 0.7559055118110236
        },
        {
          "duration": 0.2987495020833393,
          "durationTicks": 239,
          "midi": 83,
          "name": "B5",
          "ticks": 34320,
          "time": 42.899928499999994,
          "velocity": 0.7559055118110236
        },
        {
          "duration": 0.2987495020833322,
          "durationTicks": 239,
          "midi": 76,
          "name": "E5",
          "ticks": 34560,
          "time": 43.199928,
          "velocity": 0.7559055118110236
        },
        {
          "duration": 0.2987495020833322,
          "durationTicks": 239,
          "midi": 83,
          "name": "B5",
          "ticks": 34560,
          "time": 43.199928,
          "velocity": 0.7559055118110236
        },
        {
          "duration": 0.2987495020833322,
          "durationTicks": 239,
          "midi": 76,
          "name": "E5",
          "ticks": 34800,
          "time": 43.4999275,
          "velocity": 0.7559055118110236
        },
        {
          "duration": 0.2987495020833322,
          "durationTicks": 239,
          "midi": 83,
          "name": "B5",
          "ticks": 34800,
          "time": 43.4999275,
          "velocity": 0.7559055118110236
        },
        {
          "duration": 0.2987495020833322,
          "durationTicks": 239,
          "midi": 76,
          "name": "E5",
          "ticks": 35040,
          "time": 43.799927,
          "velocity": 0.7559055118110236
        },
        {
          "duration": 0.2987495020833322,
          "durationTicks": 239,
          "midi": 83,
          "name": "B5",
          "ticks": 35040,
          "time": 43.799927,
          "velocity": 0.7559055118110236
        },
        {
          "duration": 0.2987495020833322,
          "durationTicks": 239,
          "midi": 83,
          "name": "B5",
          "ticks": 35280,
          "time": 44.099926499999995,
          "velocity": 0.7559055118110236
        },
        {
          "duration": 0.2987495020833322,
          "durationTicks": 239,
          "midi": 86,
          "name": "D6",
          "ticks": 35280,
          "time": 44.099926499999995,
          "velocity": 0.7559055118110236
        },
        {
          "duration": 0.14874975208334007,
          "durationTicks": 119,
          "midi": 83,
          "name": "B5",
          "ticks": 35520,
          "time": 44.399925999999994,
          "velocity": 0.7559055118110236
        },
        {
          "duration": 0.14874975208334007,
          "durationTicks": 119,
          "midi": 86,
          "name": "D6",
          "ticks": 35520,
          "time": 44.399925999999994,
          "velocity": 0.7559055118110236
        },
        {
          "duration": 0.14874975208334007,
          "durationTicks": 119,
          "midi": 83,
          "name": "B5",
          "ticks": 35640,
          "time": 44.54992574999999,
          "velocity": 0.7559055118110236
        },
        {
          "duration": 0.14874975208334007,
          "durationTicks": 119,
          "midi": 86,
          "name": "D6",
          "ticks": 35640,
          "time": 44.54992574999999,
          "velocity": 0.7559055118110236
        },
        {
          "duration": 0.14874975208333296,
          "durationTicks": 119,
          "midi": 83,
          "name": "B5",
          "ticks": 35760,
          "time": 44.6999255,
          "velocity": 0.7559055118110236
        },
        {
          "duration": 0.14874975208333296,
          "durationTicks": 119,
          "midi": 86,
          "name": "D6",
          "ticks": 35760,
          "time": 44.6999255,
          "velocity": 0.7559055118110236
        },
        {
          "duration": 0.14874975208333296,
          "durationTicks": 119,
          "midi": 83,
          "name": "B5",
          "ticks": 35880,
          "time": 44.84992525,
          "velocity": 0.7559055118110236
        },
        {
          "duration": 0.14874975208333296,
          "durationTicks": 119,
          "midi": 86,
          "name": "D6",
          "ticks": 35880,
          "time": 44.84992525,
          "velocity": 0.7559055118110236
        },
        {
          "duration": 0.2987495020833322,
          "durationTicks": 239,
          "midi": 83,
          "name": "B5",
          "ticks": 36000,
          "time": 44.999925,
          "velocity": 0.7559055118110236
        },
        {
          "duration": 0.2987495020833322,
          "durationTicks": 239,
          "midi": 86,
          "name": "D6",
          "ticks": 36000,
          "time": 44.999925,
          "velocity": 0.7559055118110236
        },
        {
          "duration": 0.14874975208333296,
          "durationTicks": 119,
          "midi": 83,
          "name": "B5",
          "ticks": 36240,
          "time": 45.299924499999996,
          "velocity": 0.7559055118110236
        },
        {
          "duration": 0.14874975208333296,
          "durationTicks": 119,
          "midi": 86,
          "name": "D6",
          "ticks": 36240,
          "time": 45.299924499999996,
          "velocity": 0.7559055118110236
        },
        {
          "duration": 0.14874975208333296,
          "durationTicks": 119,
          "midi": 83,
          "name": "B5",
          "ticks": 36360,
          "time": 45.449924249999995,
          "velocity": 0.7559055118110236
        },
        {
          "duration": 0.14874975208333296,
          "durationTicks": 119,
          "midi": 86,
          "name": "D6",
          "ticks": 36360,
          "time": 45.449924249999995,
          "velocity": 0.7559055118110236
        },
        {
          "duration": 0.14874975208333296,
          "durationTicks": 119,
          "midi": 83,
          "name": "B5",
          "ticks": 36480,
          "time": 45.599923999999994,
          "velocity": 0.7559055118110236
        },
        {
          "duration": 0.14874975208333296,
          "durationTicks": 119,
          "midi": 86,
          "name": "D6",
          "ticks": 36480,
          "time": 45.599923999999994,
          "velocity": 0.7559055118110236
        },
        {
          "duration": 0.14874975208334007,
          "durationTicks": 119,
          "midi": 83,
          "name": "B5",
          "ticks": 36600,
          "time": 45.749923749999994,
          "velocity": 0.7559055118110236
        },
        {
          "duration": 0.14874975208334007,
          "durationTicks": 119,
          "midi": 86,
          "name": "D6",
          "ticks": 36600,
          "time": 45.749923749999994,
          "velocity": 0.7559055118110236
        },
        {
          "duration": 0.2987495020833393,
          "durationTicks": 239,
          "midi": 81,
          "name": "A5",
          "ticks": 36720,
          "time": 45.89992349999999,
          "velocity": 0.7559055118110236
        },
        {
          "duration": 0.2987495020833393,
          "durationTicks": 239,
          "midi": 85,
          "name": "C#6",
          "ticks": 36720,
          "time": 45.89992349999999,
          "velocity": 0.7559055118110236
        },
        {
          "duration": 0.2987495020833322,
          "durationTicks": 239,
          "midi": 81,
          "name": "A5",
          "ticks": 36960,
          "time": 46.199923,
          "velocity": 0.7559055118110236
        },
        {
          "duration": 0.2987495020833322,
          "durationTicks": 239,
          "midi": 85,
          "name": "C#6",
          "ticks": 36960,
          "time": 46.199923,
          "velocity": 0.7559055118110236
        },
        {
          "duration": 0.2987495020833322,
          "durationTicks": 239,
          "midi": 81,
          "name": "A5",
          "ticks": 37200,
          "time": 46.4999225,
          "velocity": 0.7559055118110236
        },
        {
          "duration": 0.2987495020833322,
          "durationTicks": 239,
          "midi": 85,
          "name": "C#6",
          "ticks": 37200,
          "time": 46.4999225,
          "velocity": 0.7559055118110236
        },
        {
          "duration": 0.2987495020833322,
          "durationTicks": 239,
          "midi": 76,
          "name": "E5",
          "ticks": 37440,
          "time": 46.799921999999995,
          "velocity": 0.7559055118110236
        },
        {
          "duration": 0.2987495020833322,
          "durationTicks": 239,
          "midi": 83,
          "name": "B5",
          "ticks": 37440,
          "time": 46.799921999999995,
          "velocity": 0.7559055118110236
        },
        {
          "duration": 0.2987495020833393,
          "durationTicks": 239,
          "midi": 76,
          "name": "E5",
          "ticks": 37680,
          "time": 47.099921499999994,
          "velocity": 0.7559055118110236
        },
        {
          "duration": 0.2987495020833393,
          "durationTicks": 239,
          "midi": 83,
          "name": "B5",
          "ticks": 37680,
          "time": 47.099921499999994,
          "velocity": 0.7559055118110236
        },
        {
          "duration": 0.2987495020833322,
          "durationTicks": 239,
          "midi": 76,
          "name": "E5",
          "ticks": 37920,
          "time": 47.399921,
          "velocity": 0.7559055118110236
        },
        {
          "duration": 0.2987495020833322,
          "durationTicks": 239,
          "midi": 83,
          "name": "B5",
          "ticks": 37920,
          "time": 47.399921,
          "velocity": 0.7559055118110236
        },
        {
          "duration": 0.2987495020833322,
          "durationTicks": 239,
          "midi": 83,
          "name": "B5",
          "ticks": 38160,
          "time": 47.6999205,
          "velocity": 0.7559055118110236
        },
        {
          "duration": 0.2987495020833322,
          "durationTicks": 239,
          "midi": 86,
          "name": "D6",
          "ticks": 38160,
          "time": 47.6999205,
          "velocity": 0.7559055118110236
        },
        {
          "duration": 0.14874975208333296,
          "durationTicks": 119,
          "midi": 83,
          "name": "B5",
          "ticks": 38400,
          "time": 47.999919999999996,
          "velocity": 0.7559055118110236
        },
        {
          "duration": 0.14874975208333296,
          "durationTicks": 119,
          "midi": 86,
          "name": "D6",
          "ticks": 38400,
          "time": 47.999919999999996,
          "velocity": 0.7559055118110236
        },
        {
          "duration": 0.14874975208333296,
          "durationTicks": 119,
          "midi": 83,
          "name": "B5",
          "ticks": 38520,
          "time": 48.149919749999995,
          "velocity": 0.7559055118110236
        },
        {
          "duration": 0.14874975208333296,
          "durationTicks": 119,
          "midi": 86,
          "name": "D6",
          "ticks": 38520,
          "time": 48.149919749999995,
          "velocity": 0.7559055118110236
        },
        {
          "duration": 0.14874975208333296,
          "durationTicks": 119,
          "midi": 83,
          "name": "B5",
          "ticks": 38640,
          "time": 48.299919499999994,
          "velocity": 0.7559055118110236
        },
        {
          "duration": 0.14874975208333296,
          "durationTicks": 119,
          "midi": 86,
          "name": "D6",
          "ticks": 38640,
          "time": 48.299919499999994,
          "velocity": 0.7559055118110236
        },
        {
          "duration": 0.14874975208334007,
          "durationTicks": 119,
          "midi": 83,
          "name": "B5",
          "ticks": 38760,
          "time": 48.449919249999994,
          "velocity": 0.7559055118110236
        },
        {
          "duration": 0.14874975208334007,
          "durationTicks": 119,
          "midi": 86,
          "name": "D6",
          "ticks": 38760,
          "time": 48.449919249999994,
          "velocity": 0.7559055118110236
        },
        {
          "duration": 0.2987495020833393,
          "durationTicks": 239,
          "midi": 83,
          "name": "B5",
          "ticks": 38880,
          "time": 48.59991899999999,
          "velocity": 0.7559055118110236
        },
        {
          "duration": 0.2987495020833393,
          "durationTicks": 239,
          "midi": 86,
          "name": "D6",
          "ticks": 38880,
          "time": 48.59991899999999,
          "velocity": 0.7559055118110236
        },
        {
          "duration": 0.14874975208333296,
          "durationTicks": 119,
          "midi": 83,
          "name": "B5",
          "ticks": 39120,
          "time": 48.8999185,
          "velocity": 0.7559055118110236
        },
        {
          "duration": 0.14874975208333296,
          "durationTicks": 119,
          "midi": 86,
          "name": "D6",
          "ticks": 39120,
          "time": 48.8999185,
          "velocity": 0.7559055118110236
        },
        {
          "duration": 0.14874975208333296,
          "durationTicks": 119,
          "midi": 83,
          "name": "B5",
          "ticks": 39240,
          "time": 49.04991825,
          "velocity": 0.7559055118110236
        },
        {
          "duration": 0.14874975208333296,
          "durationTicks": 119,
          "midi": 86,
          "name": "D6",
          "ticks": 39240,
          "time": 49.04991825,
          "velocity": 0.7559055118110236
        },
        {
          "duration": 0.14874975208333296,
          "durationTicks": 119,
          "midi": 83,
          "name": "B5",
          "ticks": 39360,
          "time": 49.199918,
          "velocity": 0.7559055118110236
        },
        {
          "duration": 0.14874975208333296,
          "durationTicks": 119,
          "midi": 86,
          "name": "D6",
          "ticks": 39360,
          "time": 49.199918,
          "velocity": 0.7559055118110236
        },
        {
          "duration": 0.14874975208333296,
          "durationTicks": 119,
          "midi": 83,
          "name": "B5",
          "ticks": 39480,
          "time": 49.349917749999996,
          "velocity": 0.7559055118110236
        },
        {
          "duration": 0.14874975208333296,
          "durationTicks": 119,
          "midi": 86,
          "name": "D6",
          "ticks": 39480,
          "time": 49.349917749999996,
          "velocity": 0.7559055118110236
        },
        {
          "duration": 0.2987495020833322,
          "durationTicks": 239,
          "midi": 81,
          "name": "A5",
          "ticks": 39600,
          "time": 49.499917499999995,
          "velocity": 0.7559055118110236
        },
        {
          "duration": 0.2987495020833322,
          "durationTicks": 239,
          "midi": 85,
          "name": "C#6",
          "ticks": 39600,
          "time": 49.499917499999995,
          "velocity": 0.7559055118110236
        },
        {
          "duration": 0.2987495020833393,
          "durationTicks": 239,
          "midi": 81,
          "name": "A5",
          "ticks": 39840,
          "time": 49.79991699999999,
          "velocity": 0.7559055118110236
        },
        {
          "duration": 0.2987495020833393,
          "durationTicks": 239,
          "midi": 85,
          "name": "C#6",
          "ticks": 39840,
          "time": 49.79991699999999,
          "velocity": 0.7559055118110236
        },
        {
          "duration": 0.2987495020833322,
          "durationTicks": 239,
          "midi": 81,
          "name": "A5",
          "ticks": 40080,
          "time": 50.0999165,
          "velocity": 0.7559055118110236
        },
        {
          "duration": 0.2987495020833322,
          "durationTicks": 239,
          "midi": 85,
          "name": "C#6",
          "ticks": 40080,
          "time": 50.0999165,
          "velocity": 0.7559055118110236
        },
        {
          "duration": 0.2987495020833322,
          "durationTicks": 239,
          "midi": 76,
          "name": "E5",
          "ticks": 40320,
          "time": 50.399916,
          "velocity": 0.7559055118110236
        },
        {
          "duration": 0.2987495020833322,
          "durationTicks": 239,
          "midi": 83,
          "name": "B5",
          "ticks": 40320,
          "time": 50.399916,
          "velocity": 0.7559055118110236
        },
        {
          "duration": 0.2987495020833322,
          "durationTicks": 239,
          "midi": 71,
          "name": "B4",
          "ticks": 40560,
          "time": 50.699915499999996,
          "velocity": 0.7952755905511811
        },
        {
          "duration": 0.2987495020833322,
          "durationTicks": 239,
          "midi": 83,
          "name": "B5",
          "ticks": 40560,
          "time": 50.699915499999996,
          "velocity": 0.7952755905511811
        },
        {
          "duration": 0.2987495020833393,
          "durationTicks": 239,
          "midi": 73,
          "name": "C#5",
          "ticks": 40800,
          "time": 50.999914999999994,
          "velocity": 0.8346456692913385
        },
        {
          "duration": 0.2987495020833393,
          "durationTicks": 239,
          "midi": 85,
          "name": "C#6",
          "ticks": 40800,
          "time": 50.999914999999994,
          "velocity": 0.8346456692913385
        },
        {
          "duration": 1.1987480020833345,
          "durationTicks": 959,
          "midi": 74,
          "name": "D5",
          "ticks": 41040,
          "time": 51.29991449999999,
          "velocity": 0.8818897637795275
        },
        {
          "duration": 1.1987480020833345,
          "durationTicks": 959,
          "midi": 78,
          "name": "F#5",
          "ticks": 41040,
          "time": 51.29991449999999,
          "velocity": 0.8818897637795275
        },
        {
          "duration": 1.1987480020833345,
          "durationTicks": 959,
          "midi": 86,
          "name": "D6",
          "ticks": 41040,
          "time": 51.29991449999999,
          "velocity": 0.8818897637795275
        },
        {
          "duration": 0.2987495020833393,
          "durationTicks": 239,
          "midi": 74,
          "name": "D5",
          "ticks": 42000,
          "time": 52.49991249999999,
          "velocity": 0.8818897637795275
        },
        {
          "duration": 0.2987495020833393,
          "durationTicks": 239,
          "midi": 86,
          "name": "D6",
          "ticks": 42000,
          "time": 52.49991249999999,
          "velocity": 0.8818897637795275
        },
        {
          "duration": 0.2987495020833393,
          "durationTicks": 239,
          "midi": 76,
          "name": "E5",
          "ticks": 42240,
          "time": 52.79991199999999,
          "velocity": 0.8818897637795275
        },
        {
          "duration": 0.2987495020833393,
          "durationTicks": 239,
          "midi": 88,
          "name": "E6",
          "ticks": 42240,
          "time": 52.79991199999999,
          "velocity": 0.8818897637795275
        },
        {
          "duration": 1.1987480020833345,
          "durationTicks": 959,
          "midi": 78,
          "name": "F#5",
          "ticks": 42480,
          "time": 53.0999115,
          "velocity": 0.8818897637795275
        },
        {
          "duration": 1.1987480020833345,
          "durationTicks": 959,
          "midi": 90,
          "name": "F#6",
          "ticks": 42480,
          "time": 53.0999115,
          "velocity": 0.8818897637795275
        },
        {
          "duration": 0.2987495020833322,
          "durationTicks": 239,
          "midi": 78,
          "name": "F#5",
          "ticks": 43440,
          "time": 54.2999095,
          "velocity": 0.8818897637795275
        },
        {
          "duration": 0.2987495020833322,
          "durationTicks": 239,
          "midi": 90,
          "name": "F#6",
          "ticks": 43440,
          "time": 54.2999095,
          "velocity": 0.8818897637795275
        },
        {
          "duration": 0.2987495020833322,
          "durationTicks": 239,
          "midi": 81,
          "name": "A5",
          "ticks": 43680,
          "time": 54.599909,
          "velocity": 0.8818897637795275
        },
        {
          "duration": 0.2987495020833322,
          "durationTicks": 239,
          "midi": 93,
          "name": "A6",
          "ticks": 43680,
          "time": 54.599909,
          "velocity": 0.8818897637795275
        },
        {
          "duration": 1.1987480020833345,
          "durationTicks": 959,
          "midi": 76,
          "name": "E5",
          "ticks": 43920,
          "time": 54.899908499999995,
          "velocity": 0.8818897637795275
        },
        {
          "duration": 1.1987480020833345,
          "durationTicks": 959,
          "midi": 81,
          "name": "A5",
          "ticks": 43920,
          "time": 54.899908499999995,
          "velocity": 0.8818897637795275
        },
        {
          "duration": 1.1987480020833345,
          "durationTicks": 959,
          "midi": 85,
          "name": "C#6",
          "ticks": 43920,
          "time": 54.899908499999995,
          "velocity": 0.8818897637795275
        },
        {
          "duration": 1.1987480020833345,
          "durationTicks": 959,
          "midi": 88,
          "name": "E6",
          "ticks": 43920,
          "time": 54.899908499999995,
          "velocity": 0.8818897637795275
        },
        {
          "duration": 0.2987495020833322,
          "durationTicks": 239,
          "midi": 74,
          "name": "D5",
          "ticks": 44880,
          "time": 56.099906499999996,
          "velocity": 0.8818897637795275
        },
        {
          "duration": 0.2987495020833322,
          "durationTicks": 239,
          "midi": 86,
          "name": "D6",
          "ticks": 44880,
          "time": 56.099906499999996,
          "velocity": 0.8818897637795275
        },
        {
          "duration": 0.2987495020833322,
          "durationTicks": 239,
          "midi": 73,
          "name": "C#5",
          "ticks": 45120,
          "time": 56.399905999999994,
          "velocity": 0.8818897637795275
        },
        {
          "duration": 0.2987495020833322,
          "durationTicks": 239,
          "midi": 85,
          "name": "C#6",
          "ticks": 45120,
          "time": 56.399905999999994,
          "velocity": 0.8818897637795275
        },
        {
          "duration": 1.1987480020833345,
          "durationTicks": 959,
          "midi": 71,
          "name": "B4",
          "ticks": 45360,
          "time": 56.69990549999999,
          "velocity": 0.8818897637795275
        },
        {
          "duration": 1.1987480020833345,
          "durationTicks": 959,
          "midi": 76,
          "name": "E5",
          "ticks": 45360,
          "time": 56.69990549999999,
          "velocity": 0.8818897637795275
        },
        {
          "duration": 1.1987480020833345,
          "durationTicks": 959,
          "midi": 80,
          "name": "G#5",
          "ticks": 45360,
          "time": 56.69990549999999,
          "velocity": 0.8818897637795275
        },
        {
          "duration": 1.1987480020833345,
          "durationTicks": 959,
          "midi": 83,
          "name": "B5",
          "ticks": 45360,
          "time": 56.69990549999999,
          "velocity": 0.8818897637795275
        },
        {
          "duration": 0.2987495020833393,
          "durationTicks": 239,
          "midi": 71,
          "name": "B4",
          "ticks": 46320,
          "time": 57.89990349999999,
          "velocity": 0.8818897637795275
        },
        {
          "duration": 0.2987495020833393,
          "durationTicks": 239,
          "midi": 83,
          "name": "B5",
          "ticks": 46320,
          "time": 57.89990349999999,
          "velocity": 0.8818897637795275
        },
        {
          "duration": 0.2987495020833393,
          "durationTicks": 239,
          "midi": 73,
          "name": "C#5",
          "ticks": 46560,
          "time": 58.19990299999999,
          "velocity": 0.8818897637795275
        },
        {
          "duration": 0.2987495020833393,
          "durationTicks": 239,
          "midi": 85,
          "name": "C#6",
          "ticks": 46560,
          "time": 58.19990299999999,
          "velocity": 0.8818897637795275
        },
        {
          "duration": 1.1987480020833345,
          "durationTicks": 959,
          "midi": 74,
          "name": "D5",
          "ticks": 46800,
          "time": 58.4999025,
          "velocity": 0.8818897637795275
        },
        {
          "duration": 1.1987480020833345,
          "durationTicks": 959,
          "midi": 78,
          "name": "F#5",
          "ticks": 46800,
          "time": 58.4999025,
          "velocity": 0.8818897637795275
        },
        {
          "duration": 1.1987480020833345,
          "durationTicks": 959,
          "midi": 86,
          "name": "D6",
          "ticks": 46800,
          "time": 58.4999025,
          "velocity": 0.8818897637795275
        },
        {
          "duration": 0.2987495020833322,
          "durationTicks": 239,
          "midi": 74,
          "name": "D5",
          "ticks": 47760,
          "time": 59.6999005,
          "velocity": 0.8818897637795275
        },
        {
          "duration": 0.2987495020833322,
          "durationTicks": 239,
          "midi": 86,
          "name": "D6",
          "ticks": 47760,
          "time": 59.6999005,
          "velocity": 0.8818897637795275
        },
        {
          "duration": 0.2987495020833322,
          "durationTicks": 239,
          "midi": 76,
          "name": "E5",
          "ticks": 48000,
          "time": 59.9999,
          "velocity": 0.8818897637795275
        },
        {
          "duration": 0.2987495020833322,
          "durationTicks": 239,
          "midi": 88,
          "name": "E6",
          "ticks": 48000,
          "time": 59.9999,
          "velocity": 0.8818897637795275
        },
        {
          "duration": 1.1987480020833345,
          "durationTicks": 959,
          "midi": 78,
          "name": "F#5",
          "ticks": 48240,
          "time": 60.299899499999995,
          "velocity": 0.8818897637795275
        },
        {
          "duration": 1.1987480020833345,
          "durationTicks": 959,
          "midi": 83,
          "name": "B5",
          "ticks": 48240,
          "time": 60.299899499999995,
          "velocity": 0.8818897637795275
        },
        {
          "duration": 1.1987480020833345,
          "durationTicks": 959,
          "midi": 90,
          "name": "F#6",
          "ticks": 48240,
          "time": 60.299899499999995,
          "velocity": 0.8818897637795275
        },
        {
          "duration": 0.2987495020833322,
          "durationTicks": 239,
          "midi": 78,
          "name": "F#5",
          "ticks": 49200,
          "time": 61.499897499999996,
          "velocity": 0.8818897637795275
        },
        {
          "duration": 0.2987495020833322,
          "durationTicks": 239,
          "midi": 90,
          "name": "F#6",
          "ticks": 49200,
          "time": 61.499897499999996,
          "velocity": 0.8818897637795275
        },
        {
          "duration": 0.2987495020833322,
          "durationTicks": 239,
          "midi": 81,
          "name": "A5",
          "ticks": 49440,
          "time": 61.799896999999994,
          "velocity": 0.8818897637795275
        },
        {
          "duration": 0.2987495020833322,
          "durationTicks": 239,
          "midi": 93,
          "name": "A6",
          "ticks": 49440,
          "time": 61.799896999999994,
          "velocity": 0.8818897637795275
        },
        {
          "duration": 1.1987480020833345,
          "durationTicks": 959,
          "midi": 83,
          "name": "B5",
          "ticks": 49680,
          "time": 62.09989649999999,
          "velocity": 0.8818897637795275
        },
        {
          "duration": 1.1987480020833345,
          "durationTicks": 959,
          "midi": 86,
          "name": "D6",
          "ticks": 49680,
          "time": 62.09989649999999,
          "velocity": 0.8818897637795275
        },
        {
          "duration": 1.1987480020833345,
          "durationTicks": 959,
          "midi": 95,
          "name": "B6",
          "ticks": 49680,
          "time": 62.09989649999999,
          "velocity": 0.8818897637795275
        },
        {
          "duration": 0.2987495020833322,
          "durationTicks": 239,
          "midi": 81,
          "name": "A5",
          "ticks": 50640,
          "time": 63.29989449999999,
          "velocity": 0.8818897637795275
        },
        {
          "duration": 0.2987495020833322,
          "durationTicks": 239,
          "midi": 93,
          "name": "A6",
          "ticks": 50640,
          "time": 63.29989449999999,
          "velocity": 0.8818897637795275
        },
        {
          "duration": 0.2987495020833393,
          "durationTicks": 239,
          "midi": 85,
          "name": "C#6",
          "ticks": 50880,
          "time": 63.59989399999999,
          "velocity": 0.8818897637795275
        },
        {
          "duration": 0.2987495020833393,
          "durationTicks": 239,
          "midi": 97,
          "name": "C#7",
          "ticks": 50880,
          "time": 63.59989399999999,
          "velocity": 0.8818897637795275
        },
        {
          "duration": 1.1987480020833274,
          "durationTicks": 959,
          "midi": 83,
          "name": "B5",
          "ticks": 51120,
          "time": 63.8998935,
          "velocity": 0.8818897637795275
        },
        {
          "duration": 1.1987480020833274,
          "durationTicks": 959,
          "midi": 95,
          "name": "B6",
          "ticks": 51120,
          "time": 63.8998935,
          "velocity": 0.8818897637795275
        },
        {
          "duration": 0.29874950208332507,
          "durationTicks": 239,
          "midi": 71,
          "name": "B4",
          "ticks": 52080,
          "time": 65.0998915,
          "velocity": 0.8818897637795275
        },
        {
          "duration": 0.29874950208332507,
          "durationTicks": 239,
          "midi": 83,
          "name": "B5",
          "ticks": 52080,
          "time": 65.0998915,
          "velocity": 0.8818897637795275
        },
        {
          "duration": 0.2987495020833393,
          "durationTicks": 239,
          "midi": 73,
          "name": "C#5",
          "ticks": 52320,
          "time": 65.399891,
          "velocity": 0.8818897637795275
        },
        {
          "duration": 0.2987495020833393,
          "durationTicks": 239,
          "midi": 85,
          "name": "C#6",
          "ticks": 52320,
          "time": 65.399891,
          "velocity": 0.8818897637795275
        },
        {
          "duration": 0.5987490020833377,
          "durationTicks": 479,
          "midi": 74,
          "name": "D5",
          "ticks": 52560,
          "time": 65.6998905,
          "velocity": 0.8818897637795275
        },
        {
          "duration": 0.5987490020833377,
          "durationTicks": 479,
          "midi": 86,
          "name": "D6",
          "ticks": 52560,
          "time": 65.6998905,
          "velocity": 0.8818897637795275
        },
        {
          "duration": 0.5987490020833377,
          "durationTicks": 479,
          "midi": 73,
          "name": "C#5",
          "ticks": 53040,
          "time": 66.29988949999999,
          "velocity": 0.8818897637795275
        },
        {
          "duration": 0.5987490020833377,
          "durationTicks": 479,
          "midi": 85,
          "name": "C#6",
          "ticks": 53040,
          "time": 66.29988949999999,
          "velocity": 0.8818897637795275
        },
        {
          "duration": 0.5987490020833377,
          "durationTicks": 479,
          "midi": 71,
          "name": "B4",
          "ticks": 53520,
          "time": 66.89988849999999,
          "velocity": 0.8818897637795275
        },
        {
          "duration": 0.5987490020833377,
          "durationTicks": 479,
          "midi": 83,
          "name": "B5",
          "ticks": 53520,
          "time": 66.89988849999999,
          "velocity": 0.8818897637795275
        },
        {
          "duration": 0.5987490020833235,
          "durationTicks": 479,
          "midi": 69,
          "name": "A4",
          "ticks": 54000,
          "time": 67.4998875,
          "velocity": 0.8818897637795275
        },
        {
          "duration": 0.5987490020833235,
          "durationTicks": 479,
          "midi": 81,
          "name": "A5",
          "ticks": 54000,
          "time": 67.4998875,
          "velocity": 0.8818897637795275
        },
        {
          "duration": 0.5987490020833377,
          "durationTicks": 479,
          "midi": 67,
          "name": "G4",
          "ticks": 54480,
          "time": 68.0998865,
          "velocity": 0.8818897637795275
        },
        {
          "duration": 0.5987490020833377,
          "durationTicks": 479,
          "midi": 79,
          "name": "G5",
          "ticks": 54480,
          "time": 68.0998865,
          "velocity": 0.8818897637795275
        },
        {
          "duration": 0.5987490020833377,
          "durationTicks": 479,
          "midi": 66,
          "name": "F#4",
          "ticks": 54960,
          "time": 68.6998855,
          "velocity": 0.8818897637795275
        },
        {
          "duration": 0.5987490020833377,
          "durationTicks": 479,
          "midi": 78,
          "name": "F#5",
          "ticks": 54960,
          "time": 68.6998855,
          "velocity": 0.8818897637795275
        },
        {
          "duration": 1.1987480020833345,
          "durationTicks": 959,
          "midi": 64,
          "name": "E4",
          "ticks": 55440,
          "time": 69.29988449999999,
          "velocity": 0.8818897637795275
        },
        {
          "duration": 1.1987480020833345,
          "durationTicks": 959,
          "midi": 76,
          "name": "E5",
          "ticks": 55440,
          "time": 69.29988449999999,
          "velocity": 0.8818897637795275
        },
        {
          "duration": 0.29874950208332507,
          "durationTicks": 239,
          "midi": 62,
          "name": "D4",
          "ticks": 56400,
          "time": 70.4998825,
          "velocity": 0.8818897637795275
        },
        {
          "duration": 0.29874950208332507,
          "durationTicks": 239,
          "midi": 74,
          "name": "D5",
          "ticks": 56400,
          "time": 70.4998825,
          "velocity": 0.8818897637795275
        },
        {
          "duration": 0.29874950208332507,
          "durationTicks": 239,
          "midi": 64,
          "name": "E4",
          "ticks": 56640,
          "time": 70.799882,
          "velocity": 0.8818897637795275
        },
        {
          "duration": 0.29874950208332507,
          "durationTicks": 239,
          "midi": 78,
          "name": "F#5",
          "ticks": 56640,
          "time": 70.799882,
          "velocity": 0.8818897637795275
        },
        {
          "duration": 1.498747502083333,
          "durationTicks": 1199,
          "midi": 64,
          "name": "E4",
          "ticks": 56880,
          "time": 71.0998815,
          "velocity": 0.8818897637795275
        },
        {
          "duration": 1.498747502083333,
          "durationTicks": 1199,
          "midi": 76,
          "name": "E5",
          "ticks": 56880,
          "time": 71.0998815,
          "velocity": 0.8818897637795275
        },
        {
          "duration": 0.14874975208334718,
          "durationTicks": 119,
          "midi": 74,
          "name": "D5",
          "ticks": 58080,
          "time": 72.59987899999999,
          "velocity": 0.8818897637795275
        },
        {
          "duration": 0.14874975208334718,
          "durationTicks": 119,
          "midi": 86,
          "name": "D6",
          "ticks": 58080,
          "time": 72.59987899999999,
          "velocity": 0.8818897637795275
        },
        {
          "duration": 0.14874975208333296,
          "durationTicks": 119,
          "midi": 73,
          "name": "C#5",
          "ticks": 58200,
          "time": 72.74987875,
          "velocity": 0.8818897637795275
        },
        {
          "duration": 0.14874975208333296,
          "durationTicks": 119,
          "midi": 85,
          "name": "C#6",
          "ticks": 58200,
          "time": 72.74987875,
          "velocity": 0.8818897637795275
        },
        {
          "duration": 0.5987490020833235,
          "durationTicks": 479,
          "midi": 74,
          "name": "D5",
          "ticks": 58320,
          "time": 72.8998785,
          "velocity": 0.8818897637795275
        },
        {
          "duration": 0.5987490020833235,
          "durationTicks": 479,
          "midi": 86,
          "name": "D6",
          "ticks": 58320,
          "time": 72.8998785,
          "velocity": 0.8818897637795275
        },
        {
          "duration": 0.14874975208333296,
          "durationTicks": 119,
          "midi": 74,
          "name": "D5",
          "ticks": 58800,
          "time": 73.4998775,
          "velocity": 0.8818897637795275
        },
        {
          "duration": 0.14874975208333296,
          "durationTicks": 119,
          "midi": 86,
          "name": "D6",
          "ticks": 58800,
          "time": 73.4998775,
          "velocity": 0.8818897637795275
        },
        {
          "duration": 0.14874975208333296,
          "durationTicks": 119,
          "midi": 73,
          "name": "C#5",
          "ticks": 58920,
          "time": 73.64987724999999,
          "velocity": 0.8818897637795275
        },
        {
          "duration": 0.14874975208333296,
          "durationTicks": 119,
          "midi": 85,
          "name": "C#6",
          "ticks": 58920,
          "time": 73.64987724999999,
          "velocity": 0.8818897637795275
        },
        {
          "duration": 0.5987490020833377,
          "durationTicks": 479,
          "midi": 74,
          "name": "D5",
          "ticks": 59040,
          "time": 73.799877,
          "velocity": 0.8818897637795275
        },
        {
          "duration": 0.5987490020833377,
          "durationTicks": 479,
          "midi": 86,
          "name": "D6",
          "ticks": 59040,
          "time": 73.799877,
          "velocity": 0.8818897637795275
        },
        {
          "duration": 0.14874975208333296,
          "durationTicks": 119,
          "midi": 74,
          "name": "D5",
          "ticks": 59520,
          "time": 74.39987599999999,
          "velocity": 0.8818897637795275
        },
        {
          "duration": 0.14874975208333296,
          "durationTicks": 119,
          "midi": 86,
          "name": "D6",
          "ticks": 59520,
          "time": 74.39987599999999,
          "velocity": 0.8818897637795275
        },
        {
          "duration": 0.14874975208333296,
          "durationTicks": 119,
          "midi": 73,
          "name": "C#5",
          "ticks": 59640,
          "time": 74.54987575,
          "velocity": 0.8818897637795275
        },
        {
          "duration": 0.14874975208333296,
          "durationTicks": 119,
          "midi": 85,
          "name": "C#6",
          "ticks": 59640,
          "time": 74.54987575,
          "velocity": 0.8818897637795275
        },
        {
          "duration": 0.2987495020833393,
          "durationTicks": 239,
          "midi": 76,
          "name": "E5",
          "ticks": 59760,
          "time": 74.69987549999999,
          "velocity": 0.8818897637795275
        },
        {
          "duration": 0.2987495020833393,
          "durationTicks": 239,
          "midi": 88,
          "name": "E6",
          "ticks": 59760,
          "time": 74.69987549999999,
          "velocity": 0.8818897637795275
        },
        {
          "duration": 0.2987495020833393,
          "durationTicks": 239,
          "midi": 74,
          "name": "D5",
          "ticks": 60000,
          "time": 74.99987499999999,
          "velocity": 0.8818897637795275
        },
        {
          "duration": 0.2987495020833393,
          "durationTicks": 239,
          "midi": 86,
          "name": "D6",
          "ticks": 60000,
          "time": 74.99987499999999,
          "velocity": 0.8818897637795275
        },
        {
          "duration": 0.2987495020833393,
          "durationTicks": 239,
          "midi": 73,
          "name": "C#5",
          "ticks": 60240,
          "time": 75.29987449999999,
          "velocity": 0.8818897637795275
        },
        {
          "duration": 0.2987495020833393,
          "durationTicks": 239,
          "midi": 85,
          "name": "C#6",
          "ticks": 60240,
          "time": 75.29987449999999,
          "velocity": 0.8818897637795275
        },
        {
          "duration": 0.5987490020833235,
          "durationTicks": 479,
          "midi": 71,
          "name": "B4",
          "ticks": 60480,
          "time": 75.599874,
          "velocity": 0.8818897637795275
        },
        {
          "duration": 0.5987490020833235,
          "durationTicks": 479,
          "midi": 74,
          "name": "D5",
          "ticks": 60480,
          "time": 75.599874,
          "velocity": 0.8818897637795275
        },
        {
          "duration": 0.5987490020833235,
          "durationTicks": 479,
          "midi": 83,
          "name": "B5",
          "ticks": 60480,
          "time": 75.599874,
          "velocity": 0.8818897637795275
        },
        {
          "duration": 0.14874975208333296,
          "durationTicks": 119,
          "midi": 71,
          "name": "B4",
          "ticks": 60960,
          "time": 76.199873,
          "velocity": 0.8818897637795275
        },
        {
          "duration": 0.14874975208333296,
          "durationTicks": 119,
          "midi": 74,
          "name": "D5",
          "ticks": 60960,
          "time": 76.199873,
          "velocity": 0.8818897637795275
        },
        {
          "duration": 0.14874975208333296,
          "durationTicks": 119,
          "midi": 83,
          "name": "B5",
          "ticks": 60960,
          "time": 76.199873,
          "velocity": 0.8818897637795275
        },
        {
          "duration": 0.14874975208333296,
          "durationTicks": 119,
          "midi": 69,
          "name": "A4",
          "ticks": 61080,
          "time": 76.34987274999999,
          "velocity": 0.8818897637795275
        },
        {
          "duration": 0.14874975208333296,
          "durationTicks": 119,
          "midi": 81,
          "name": "A5",
          "ticks": 61080,
          "time": 76.34987274999999,
          "velocity": 0.8818897637795275
        },
        {
          "duration": 0.5987490020833377,
          "durationTicks": 479,
          "midi": 71,
          "name": "B4",
          "ticks": 61200,
          "time": 76.4998725,
          "velocity": 0.8818897637795275
        },
        {
          "duration": 0.5987490020833377,
          "durationTicks": 479,
          "midi": 74,
          "name": "D5",
          "ticks": 61200,
          "time": 76.4998725,
          "velocity": 0.8818897637795275
        },
        {
          "duration": 0.5987490020833377,
          "durationTicks": 479,
          "midi": 83,
          "name": "B5",
          "ticks": 61200,
          "time": 76.4998725,
          "velocity": 0.8818897637795275
        },
        {
          "duration": 0.14874975208333296,
          "durationTicks": 119,
          "midi": 71,
          "name": "B4",
          "ticks": 61680,
          "time": 77.09987149999999,
          "velocity": 0.8818897637795275
        },
        {
          "duration": 0.14874975208333296,
          "durationTicks": 119,
          "midi": 83,
          "name": "B5",
          "ticks": 61680,
          "time": 77.09987149999999,
          "velocity": 0.8818897637795275
        },
        {
          "duration": 0.14874975208333296,
          "durationTicks": 119,
          "midi": 71,
          "name": "B4",
          "ticks": 61800,
          "time": 77.24987125,
          "velocity": 0.8818897637795275
        },
        {
          "duration": 0.14874975208333296,
          "durationTicks": 119,
          "midi": 81,
          "name": "A5",
          "ticks": 61800,
          "time": 77.24987125,
          "velocity": 0.8818897637795275
        },
        {
          "duration": 0.5987490020833377,
          "durationTicks": 479,
          "midi": 71,
          "name": "B4",
          "ticks": 61920,
          "time": 77.39987099999999,
          "velocity": 0.8818897637795275
        },
        {
          "duration": 0.5987490020833377,
          "durationTicks": 479,
          "midi": 76,
          "name": "E5",
          "ticks": 61920,
          "time": 77.39987099999999,
          "velocity": 0.8818897637795275
        },
        {
          "duration": 0.5987490020833377,
          "durationTicks": 479,
          "midi": 83,
          "name": "B5",
          "ticks": 61920,
          "time": 77.39987099999999,
          "velocity": 0.8818897637795275
        },
        {
          "duration": 0.14874975208334718,
          "durationTicks": 119,
          "midi": 69,
          "name": "A4",
          "ticks": 62400,
          "time": 77.99986999999999,
          "velocity": 0.8818897637795275
        },
        {
          "duration": 0.14874975208334718,
          "durationTicks": 119,
          "midi": 81,
          "name": "A5",
          "ticks": 62400,
          "time": 77.99986999999999,
          "velocity": 0.8818897637795275
        },
        {
          "duration": 0.14874975208333296,
          "durationTicks": 119,
          "midi": 71,
          "name": "B4",
          "ticks": 62520,
          "time": 78.14986975,
          "velocity": 0.8818897637795275
        },
        {
          "duration": 0.14874975208333296,
          "durationTicks": 119,
          "midi": 83,
          "name": "B5",
          "ticks": 62520,
          "time": 78.14986975,
          "velocity": 0.8818897637795275
        },
        {
          "duration": 0.29874950208332507,
          "durationTicks": 239,
          "midi": 73,
          "name": "C#5",
          "ticks": 62640,
          "time": 78.2998695,
          "velocity": 0.8818897637795275
        },
        {
          "duration": 0.29874950208332507,
          "durationTicks": 239,
          "midi": 85,
          "name": "C#6",
          "ticks": 62640,
          "time": 78.2998695,
          "velocity": 0.8818897637795275
        },
        {
          "duration": 0.29874950208332507,
          "durationTicks": 239,
          "midi": 74,
          "name": "D5",
          "ticks": 62880,
          "time": 78.599869,
          "velocity": 0.8818897637795275
        },
        {
          "duration": 0.29874950208332507,
          "durationTicks": 239,
          "midi": 86,
          "name": "D6",
          "ticks": 62880,
          "time": 78.599869,
          "velocity": 0.8818897637795275
        },
        {
          "duration": 0.29874950208332507,
          "durationTicks": 239,
          "midi": 69,
          "name": "A4",
          "ticks": 63120,
          "time": 78.8998685,
          "velocity": 0.8818897637795275
        },
        {
          "duration": 0.29874950208332507,
          "durationTicks": 239,
          "midi": 81,
          "name": "A5",
          "ticks": 63120,
          "time": 78.8998685,
          "velocity": 0.8818897637795275
        },
        {
          "duration": 0.5987490020833377,
          "durationTicks": 479,
          "midi": 71,
          "name": "B4",
          "ticks": 63360,
          "time": 79.199868,
          "velocity": 0.8818897637795275
        },
        {
          "duration": 0.5987490020833377,
          "durationTicks": 479,
          "midi": 74,
          "name": "D5",
          "ticks": 63360,
          "time": 79.199868,
          "velocity": 0.8818897637795275
        },
        {
          "duration": 0.5987490020833377,
          "durationTicks": 479,
          "midi": 83,
          "name": "B5",
          "ticks": 63360,
          "time": 79.199868,
          "velocity": 0.8818897637795275
        },
        {
          "duration": 0.14874975208333296,
          "durationTicks": 119,
          "midi": 71,
          "name": "B4",
          "ticks": 63840,
          "time": 79.79986699999999,
          "velocity": 0.8818897637795275
        },
        {
          "duration": 0.14874975208333296,
          "durationTicks": 119,
          "midi": 83,
          "name": "B5",
          "ticks": 63840,
          "time": 79.79986699999999,
          "velocity": 0.8818897637795275
        },
        {
          "duration": 0.14874975208333296,
          "durationTicks": 119,
          "midi": 73,
          "name": "C#5",
          "ticks": 63960,
          "time": 79.94986675,
          "velocity": 0.8818897637795275
        },
        {
          "duration": 0.14874975208333296,
          "durationTicks": 119,
          "midi": 85,
          "name": "C#6",
          "ticks": 63960,
          "time": 79.94986675,
          "velocity": 0.8818897637795275
        },
        {
          "duration": 0.2987495020833393,
          "durationTicks": 239,
          "midi": 74,
          "name": "D5",
          "ticks": 64080,
          "time": 80.09986649999999,
          "velocity": 0.8818897637795275
        },
        {
          "duration": 0.2987495020833393,
          "durationTicks": 239,
          "midi": 86,
          "name": "D6",
          "ticks": 64080,
          "time": 80.09986649999999,
          "velocity": 0.8818897637795275
        },
        {
          "duration": 0.2987495020833393,
          "durationTicks": 239,
          "midi": 74,
          "name": "D5",
          "ticks": 64320,
          "time": 80.39986599999999,
          "velocity": 0.8818897637795275
        },
        {
          "duration": 0.2987495020833393,
          "durationTicks": 239,
          "midi": 86,
          "name": "D6",
          "ticks": 64320,
          "time": 80.39986599999999,
          "velocity": 0.8818897637795275
        },
        {
          "duration": 0.14874975208334718,
          "durationTicks": 119,
          "midi": 74,
          "name": "D5",
          "ticks": 64560,
          "time": 80.69986549999999,
          "velocity": 0.8818897637795275
        },
        {
          "duration": 0.14874975208334718,
          "durationTicks": 119,
          "midi": 86,
          "name": "D6",
          "ticks": 64560,
          "time": 80.69986549999999,
          "velocity": 0.8818897637795275
        },
        {
          "duration": 0.14874975208333296,
          "durationTicks": 119,
          "midi": 76,
          "name": "E5",
          "ticks": 64680,
          "time": 80.84986525,
          "velocity": 0.8818897637795275
        },
        {
          "duration": 0.14874975208333296,
          "durationTicks": 119,
          "midi": 88,
          "name": "E6",
          "ticks": 64680,
          "time": 80.84986525,
          "velocity": 0.8818897637795275
        },
        {
          "duration": 0.5987490020833235,
          "durationTicks": 479,
          "midi": 78,
          "name": "F#5",
          "ticks": 64800,
          "time": 80.999865,
          "velocity": 0.8818897637795275
        },
        {
          "duration": 0.5987490020833235,
          "durationTicks": 479,
          "midi": 90,
          "name": "F#6",
          "ticks": 64800,
          "time": 80.999865,
          "velocity": 0.8818897637795275
        },
        {
          "duration": 0.14874975208333296,
          "durationTicks": 119,
          "midi": 73,
          "name": "C#5",
          "ticks": 65280,
          "time": 81.599864,
          "velocity": 0.8818897637795275
        },
        {
          "duration": 0.14874975208333296,
          "durationTicks": 119,
          "midi": 85,
          "name": "C#6",
          "ticks": 65280,
          "time": 81.599864,
          "velocity": 0.8818897637795275
        },
        {
          "duration": 0.14874975208333296,
          "durationTicks": 119,
          "midi": 74,
          "name": "D5",
          "ticks": 65400,
          "time": 81.74986374999999,
          "velocity": 0.8818897637795275
        },
        {
          "duration": 0.14874975208333296,
          "durationTicks": 119,
          "midi": 86,
          "name": "D6",
          "ticks": 65400,
          "time": 81.74986374999999,
          "velocity": 0.8818897637795275
        },
        {
          "duration": 0.2987495020833393,
          "durationTicks": 239,
          "midi": 76,
          "name": "E5",
          "ticks": 65520,
          "time": 81.8998635,
          "velocity": 0.8818897637795275
        },
        {
          "duration": 0.2987495020833393,
          "durationTicks": 239,
          "midi": 88,
          "name": "E6",
          "ticks": 65520,
          "time": 81.8998635,
          "velocity": 0.8818897637795275
        },
        {
          "duration": 0.2987495020833393,
          "durationTicks": 239,
          "midi": 74,
          "name": "D5",
          "ticks": 65760,
          "time": 82.199863,
          "velocity": 0.8818897637795275
        },
        {
          "duration": 0.2987495020833393,
          "durationTicks": 239,
          "midi": 86,
          "name": "D6",
          "ticks": 65760,
          "time": 82.199863,
          "velocity": 0.8818897637795275
        },
        {
          "duration": 0.2987495020833393,
          "durationTicks": 239,
          "midi": 73,
          "name": "C#5",
          "ticks": 66000,
          "time": 82.49986249999999,
          "velocity": 0.8818897637795275
        },
        {
          "duration": 0.2987495020833393,
          "durationTicks": 239,
          "midi": 85,
          "name": "C#6",
          "ticks": 66000,
          "time": 82.49986249999999,
          "velocity": 0.8818897637795275
        },
        {
          "duration": 0.5987490020833377,
          "durationTicks": 479,
          "midi": 71,
          "name": "B4",
          "ticks": 66240,
          "time": 82.79986199999999,
          "velocity": 0.8818897637795275
        },
        {
          "duration": 0.5987490020833377,
          "durationTicks": 479,
          "midi": 83,
          "name": "B5",
          "ticks": 66240,
          "time": 82.79986199999999,
          "velocity": 0.8818897637795275
        },
        {
          "duration": 0.14874975208334718,
          "durationTicks": 119,
          "midi": 71,
          "name": "B4",
          "ticks": 66720,
          "time": 83.39986099999999,
          "velocity": 0.8818897637795275
        },
        {
          "duration": 0.14874975208334718,
          "durationTicks": 119,
          "midi": 83,
          "name": "B5",
          "ticks": 66720,
          "time": 83.39986099999999,
          "velocity": 0.8818897637795275
        },
        {
          "duration": 0.14874975208333296,
          "durationTicks": 119,
          "midi": 69,
          "name": "A4",
          "ticks": 66840,
          "time": 83.54986075,
          "velocity": 0.8818897637795275
        },
        {
          "duration": 0.14874975208333296,
          "durationTicks": 119,
          "midi": 81,
          "name": "A5",
          "ticks": 66840,
          "time": 83.54986075,
          "velocity": 0.8818897637795275
        },
        {
          "duration": 0.5987490020833235,
          "durationTicks": 479,
          "midi": 71,
          "name": "B4",
          "ticks": 66960,
          "time": 83.6998605,
          "velocity": 0.8818897637795275
        },
        {
          "duration": 0.5987490020833235,
          "durationTicks": 479,
          "midi": 74,
          "name": "D5",
          "ticks": 66960,
          "time": 83.6998605,
          "velocity": 0.8818897637795275
        },
        {
          "duration": 0.5987490020833235,
          "durationTicks": 479,
          "midi": 83,
          "name": "B5",
          "ticks": 66960,
          "time": 83.6998605,
          "velocity": 0.8818897637795275
        },
        {
          "duration": 0.14874975208333296,
          "durationTicks": 119,
          "midi": 71,
          "name": "B4",
          "ticks": 67440,
          "time": 84.2998595,
          "velocity": 0.8818897637795275
        },
        {
          "duration": 0.14874975208333296,
          "durationTicks": 119,
          "midi": 83,
          "name": "B5",
          "ticks": 67440,
          "time": 84.2998595,
          "velocity": 0.8818897637795275
        },
        {
          "duration": 0.14874975208333296,
          "durationTicks": 119,
          "midi": 69,
          "name": "A4",
          "ticks": 67560,
          "time": 84.44985924999999,
          "velocity": 0.8818897637795275
        },
        {
          "duration": 0.14874975208333296,
          "durationTicks": 119,
          "midi": 81,
          "name": "A5",
          "ticks": 67560,
          "time": 84.44985924999999,
          "velocity": 0.8818897637795275
        },
        {
          "duration": 0.5987490020833377,
          "durationTicks": 479,
          "midi": 71,
          "name": "B4",
          "ticks": 67680,
          "time": 84.599859,
          "velocity": 0.8818897637795275
        },
        {
          "duration": 0.5987490020833377,
          "durationTicks": 479,
          "midi": 76,
          "name": "E5",
          "ticks": 67680,
          "time": 84.599859,
          "velocity": 0.8818897637795275
        },
        {
          "duration": 0.5987490020833377,
          "durationTicks": 479,
          "midi": 83,
          "name": "B5",
          "ticks": 67680,
          "time": 84.599859,
          "velocity": 0.8818897637795275
        },
        {
          "duration": 0.14874975208333296,
          "durationTicks": 119,
          "midi": 69,
          "name": "A4",
          "ticks": 68160,
          "time": 85.19985799999999,
          "velocity": 0.8818897637795275
        },
        {
          "duration": 0.14874975208333296,
          "durationTicks": 119,
          "midi": 71,
          "name": "B4",
          "ticks": 68280,
          "time": 85.34985775,
          "velocity": 0.8818897637795275
        },
        {
          "duration": 0.2987495020833393,
          "durationTicks": 239,
          "midi": 73,
          "name": "C#5",
          "ticks": 68400,
          "time": 85.49985749999999,
          "velocity": 0.8818897637795275
        },
        {
          "duration": 0.2987495020833393,
          "durationTicks": 239,
          "midi": 85,
          "name": "C#6",
          "ticks": 68400,
          "time": 85.49985749999999,
          "velocity": 0.8818897637795275
        },
        {
          "duration": 0.2987495020833393,
          "durationTicks": 239,
          "midi": 74,
          "name": "D5",
          "ticks": 68640,
          "time": 85.79985699999999,
          "velocity": 0.8818897637795275
        },
        {
          "duration": 0.2987495020833393,
          "durationTicks": 239,
          "midi": 86,
          "name": "D6",
          "ticks": 68640,
          "time": 85.79985699999999,
          "velocity": 0.8818897637795275
        },
        {
          "duration": 0.2987495020833393,
          "durationTicks": 239,
          "midi": 69,
          "name": "A4",
          "ticks": 68880,
          "time": 86.09985649999999,
          "velocity": 0.8818897637795275
        },
        {
          "duration": 0.2987495020833393,
          "durationTicks": 239,
          "midi": 81,
          "name": "A5",
          "ticks": 68880,
          "time": 86.09985649999999,
          "velocity": 0.8818897637795275
        },
        {
          "duration": 0.8987485020833219,
          "durationTicks": 719,
          "midi": 71,
          "name": "B4",
          "ticks": 69120,
          "time": 86.399856,
          "velocity": 0.8818897637795275
        },
        {
          "duration": 0.8987485020833219,
          "durationTicks": 719,
          "midi": 74,
          "name": "D5",
          "ticks": 69120,
          "time": 86.399856,
          "velocity": 0.8818897637795275
        },
        {
          "duration": 0.8987485020833219,
          "durationTicks": 719,
          "midi": 78,
          "name": "F#5",
          "ticks": 69120,
          "time": 86.399856,
          "velocity": 0.8818897637795275
        },
        {
          "duration": 0.8987485020833219,
          "durationTicks": 719,
          "midi": 83,
          "name": "B5",
          "ticks": 69120,
          "time": 86.399856,
          "velocity": 0.8818897637795275
        },
        {
          "duration": 0.5987490020833377,
          "durationTicks": 479,
          "midi": 78,
          "name": "F#5",
          "ticks": 69840,
          "time": 87.2998545,
          "velocity": 0.8818897637795275
        },
        {
          "duration": 0.5987490020833377,
          "durationTicks": 479,
          "midi": 83,
          "name": "B5",
          "ticks": 69840,
          "time": 87.2998545,
          "velocity": 0.8818897637795275
        },
        {
          "duration": 0.5987490020833377,
          "durationTicks": 479,
          "midi": 90,
          "name": "F#6",
          "ticks": 69840,
          "time": 87.2998545,
          "velocity": 0.8818897637795275
        },
        {
          "duration": 0.2987495020833393,
          "durationTicks": 239,
          "midi": 83,
          "name": "B5",
          "ticks": 70320,
          "time": 87.89985349999999,
          "velocity": 0.8818897637795275
        },
        {
          "duration": 0.5987490020833377,
          "durationTicks": 479,
          "midi": 78,
          "name": "F#5",
          "ticks": 70560,
          "time": 88.19985299999999,
          "velocity": 0.8818897637795275
        },
        {
          "duration": 0.5987490020833377,
          "durationTicks": 479,
          "midi": 83,
          "name": "B5",
          "ticks": 70560,
          "time": 88.19985299999999,
          "velocity": 0.8818897637795275
        },
        {
          "duration": 0.5987490020833377,
          "durationTicks": 479,
          "midi": 90,
          "name": "F#6",
          "ticks": 70560,
          "time": 88.19985299999999,
          "velocity": 0.8818897637795275
        },
        {
          "duration": 0.2987495020833393,
          "durationTicks": 239,
          "midi": 83,
          "name": "B5",
          "ticks": 71040,
          "time": 88.79985199999999,
          "velocity": 0.8818897637795275
        },
        {
          "duration": 0.5987490020833377,
          "durationTicks": 479,
          "midi": 78,
          "name": "F#5",
          "ticks": 71280,
          "time": 89.09985149999999,
          "velocity": 0.8818897637795275
        },
        {
          "duration": 0.5987490020833377,
          "durationTicks": 479,
          "midi": 83,
          "name": "B5",
          "ticks": 71280,
          "time": 89.09985149999999,
          "velocity": 0.8818897637795275
        },
        {
          "duration": 0.5987490020833377,
          "durationTicks": 479,
          "midi": 90,
          "name": "F#6",
          "ticks": 71280,
          "time": 89.09985149999999,
          "velocity": 0.8818897637795275
        },
        {
          "duration": 0.29874950208332507,
          "durationTicks": 239,
          "midi": 66,
          "name": "F#4",
          "ticks": 71760,
          "time": 89.6998505,
          "velocity": 0.8818897637795275
        },
        {
          "duration": 0.29874950208332507,
          "durationTicks": 239,
          "midi": 78,
          "name": "F#5",
          "ticks": 71760,
          "time": 89.6998505,
          "velocity": 0.8818897637795275
        },
        {
          "duration": 0.8987485020833361,
          "durationTicks": 719,
          "midi": 66,
          "name": "F#4",
          "ticks": 72000,
          "time": 89.99985,
          "velocity": 0.8818897637795275
        },
        {
          "duration": 0.8987485020833361,
          "durationTicks": 719,
          "midi": 78,
          "name": "F#5",
          "ticks": 72000,
          "time": 89.99985,
          "velocity": 0.8818897637795275
        },
        {
          "duration": 0.5987490020833377,
          "durationTicks": 479,
          "midi": 78,
          "name": "F#5",
          "ticks": 72720,
          "time": 90.89984849999999,
          "velocity": 0.8818897637795275
        },
        {
          "duration": 0.5987490020833377,
          "durationTicks": 479,
          "midi": 83,
          "name": "B5",
          "ticks": 72720,
          "time": 90.89984849999999,
          "velocity": 0.8818897637795275
        },
        {
          "duration": 0.5987490020833377,
          "durationTicks": 479,
          "midi": 90,
          "name": "F#6",
          "ticks": 72720,
          "time": 90.89984849999999,
          "velocity": 0.8818897637795275
        },
        {
          "duration": 0.2987495020833393,
          "durationTicks": 239,
          "midi": 83,
          "name": "B5",
          "ticks": 73200,
          "time": 91.49984749999999,
          "velocity": 0.8818897637795275
        },
        {
          "duration": 0.5987490020833377,
          "durationTicks": 479,
          "midi": 78,
          "name": "F#5",
          "ticks": 73440,
          "time": 91.79984699999999,
          "velocity": 0.8818897637795275
        },
        {
          "duration": 0.5987490020833377,
          "durationTicks": 479,
          "midi": 83,
          "name": "B5",
          "ticks": 73440,
          "time": 91.79984699999999,
          "velocity": 0.8818897637795275
        },
        {
          "duration": 0.5987490020833377,
          "durationTicks": 479,
          "midi": 90,
          "name": "F#6",
          "ticks": 73440,
          "time": 91.79984699999999,
          "velocity": 0.8818897637795275
        },
        {
          "duration": 0.29874950208332507,
          "durationTicks": 239,
          "midi": 83,
          "name": "B5",
          "ticks": 73920,
          "time": 92.399846,
          "velocity": 0.8818897637795275
        },
        {
          "duration": 0.5987490020833377,
          "durationTicks": 479,
          "midi": 78,
          "name": "F#5",
          "ticks": 74160,
          "time": 92.6998455,
          "velocity": 0.8818897637795275
        },
        {
          "duration": 0.5987490020833377,
          "durationTicks": 479,
          "midi": 83,
          "name": "B5",
          "ticks": 74160,
          "time": 92.6998455,
          "velocity": 0.8818897637795275
        },
        {
          "duration": 0.5987490020833377,
          "durationTicks": 479,
          "midi": 90,
          "name": "F#6",
          "ticks": 74160,
          "time": 92.6998455,
          "velocity": 0.8818897637795275
        },
        {
          "duration": 0.2987495020833393,
          "durationTicks": 239,
          "midi": 66,
          "name": "F#4",
          "ticks": 74640,
          "time": 93.29984449999999,
          "velocity": 0.8818897637795275
        },
        {
          "duration": 0.2987495020833393,
          "durationTicks": 239,
          "midi": 78,
          "name": "F#5",
          "ticks": 74640,
          "time": 93.29984449999999,
          "velocity": 0.8818897637795275
        },
        {
          "duration": 2.698745502083341,
          "durationTicks": 2159,
          "midi": 66,
          "name": "F#4",
          "ticks": 74880,
          "time": 93.59984399999999,
          "velocity": 0.8818897637795275
        },
        {
          "duration": 2.698745502083341,
          "durationTicks": 2159,
          "midi": 71,
          "name": "B4",
          "ticks": 74880,
          "time": 93.59984399999999,
          "velocity": 0.8818897637795275
        },
        {
          "duration": 2.698745502083341,
          "durationTicks": 2159,
          "midi": 78,
          "name": "F#5",
          "ticks": 74880,
          "time": 93.59984399999999,
          "velocity": 0.8818897637795275
        },
        {
          "duration": 0.4487492520833314,
          "durationTicks": 359,
          "midi": 71,
          "name": "B4",
          "ticks": 77040,
          "time": 96.29983949999999,
          "velocity": 0.3858267716535433
        },
        {
          "duration": 0.4487492520833314,
          "durationTicks": 359,
          "midi": 73,
          "name": "C#5",
          "ticks": 77400,
          "time": 96.74983875,
          "velocity": 0.3858267716535433
        },
        {
          "duration": 1.7987470020833456,
          "durationTicks": 1439,
          "midi": 66,
          "name": "F#4",
          "ticks": 77760,
          "time": 97.19983799999999,
          "velocity": 0.3858267716535433
        },
        {
          "duration": 1.7987470020833456,
          "durationTicks": 1439,
          "midi": 74,
          "name": "D5",
          "ticks": 77760,
          "time": 97.19983799999999,
          "velocity": 0.3858267716535433
        },
        {
          "duration": 1.7987470020833314,
          "durationTicks": 1439,
          "midi": 73,
          "name": "C#5",
          "ticks": 79200,
          "time": 98.99983499999999,
          "velocity": 0.3858267716535433
        },
        {
          "duration": 1.7987470020833314,
          "durationTicks": 1439,
          "midi": 66,
          "name": "F#4",
          "ticks": 80640,
          "time": 100.799832,
          "velocity": 0.3858267716535433
        },
        {
          "duration": 1.7187471354166775,
          "durationTicks": 1375,
          "midi": 71,
          "name": "B4",
          "ticks": 80703,
          "time": 100.87858186874999,
          "velocity": 0.3858267716535433
        },
        {
          "duration": 1.6399972666666827,
          "durationTicks": 1312,
          "midi": 78,
          "name": "F#5",
          "ticks": 80766,
          "time": 100.95733173749998,
          "velocity": 0.3858267716535433
        },
        {
          "duration": 0.8987485020833361,
          "durationTicks": 719,
          "midi": 71,
          "name": "B4",
          "ticks": 82080,
          "time": 102.59982899999999,
          "velocity": 0.3858267716535433
        },
        {
          "duration": 0.8987485020833361,
          "durationTicks": 719,
          "midi": 73,
          "name": "C#5",
          "ticks": 82800,
          "time": 103.4998275,
          "velocity": 0.3858267716535433
        },
        {
          "duration": 0.8987485020833361,
          "durationTicks": 719,
          "midi": 74,
          "name": "D5",
          "ticks": 83520,
          "time": 104.39982599999999,
          "velocity": 0.3858267716535433
        },
        {
          "duration": 0.8987485020833361,
          "durationTicks": 719,
          "midi": 78,
          "name": "F#5",
          "ticks": 84240,
          "time": 105.29982449999999,
          "velocity": 0.3858267716535433
        },
        {
          "duration": 1.7987470020833314,
          "durationTicks": 1439,
          "midi": 59,
          "name": "B3",
          "ticks": 84960,
          "time": 106.199823,
          "velocity": 0.3858267716535433
        },
        {
          "duration": 1.7987470020833314,
          "durationTicks": 1439,
          "midi": 62,
          "name": "D4",
          "ticks": 84960,
          "time": 106.199823,
          "velocity": 0.3858267716535433
        },
        {
          "duration": 1.7987470020833314,
          "durationTicks": 1439,
          "midi": 67,
          "name": "G4",
          "ticks": 84960,
          "time": 106.199823,
          "velocity": 0.3858267716535433
        },
        {
          "duration": 1.7987470020833314,
          "durationTicks": 1439,
          "midi": 71,
          "name": "B4",
          "ticks": 84960,
          "time": 106.199823,
          "velocity": 0.3858267716535433
        },
        {
          "duration": 0.8987485020833361,
          "durationTicks": 719,
          "midi": 71,
          "name": "B4",
          "ticks": 86400,
          "time": 107.99981999999999,
          "velocity": 0.3858267716535433
        },
        {
          "duration": 0.8987485020833361,
          "durationTicks": 719,
          "midi": 83,
          "name": "B5",
          "ticks": 86400,
          "time": 107.99981999999999,
          "velocity": 0.3858267716535433
        },
        {
          "duration": 0.8987485020833361,
          "durationTicks": 719,
          "midi": 69,
          "name": "A4",
          "ticks": 87120,
          "time": 108.8998185,
          "velocity": 0.3858267716535433
        },
        {
          "duration": 0.8987485020833361,
          "durationTicks": 719,
          "midi": 81,
          "name": "A5",
          "ticks": 87120,
          "time": 108.8998185,
          "velocity": 0.3858267716535433
        },
        {
          "duration": 0.8987485020833361,
          "durationTicks": 719,
          "midi": 67,
          "name": "G4",
          "ticks": 87840,
          "time": 109.79981699999999,
          "velocity": 0.3858267716535433
        },
        {
          "duration": 0.8987485020833361,
          "durationTicks": 719,
          "midi": 79,
          "name": "G5",
          "ticks": 87840,
          "time": 109.79981699999999,
          "velocity": 0.3858267716535433
        },
        {
          "duration": 0.8987485020833361,
          "durationTicks": 719,
          "midi": 66,
          "name": "F#4",
          "ticks": 88560,
          "time": 110.69981549999999,
          "velocity": 0.3858267716535433
        },
        {
          "duration": 0.8987485020833361,
          "durationTicks": 719,
          "midi": 78,
          "name": "F#5",
          "ticks": 88560,
          "time": 110.69981549999999,
          "velocity": 0.3858267716535433
        },
        {
          "duration": 0.8987485020833361,
          "durationTicks": 719,
          "midi": 64,
          "name": "E4",
          "ticks": 89280,
          "time": 111.599814,
          "velocity": 0.3858267716535433
        },
        {
          "duration": 0.8987485020833361,
          "durationTicks": 719,
          "midi": 76,
          "name": "E5",
          "ticks": 89280,
          "time": 111.599814,
          "velocity": 0.3858267716535433
        },
        {
          "duration": 1.7987470020833314,
          "durationTicks": 1439,
          "midi": 56,
          "name": "G#3",
          "ticks": 90000,
          "time": 112.49981249999999,
          "velocity": 0.3858267716535433
        },
        {
          "duration": 1.7987470020833314,
          "durationTicks": 1439,
          "midi": 64,
          "name": "E4",
          "ticks": 90000,
          "time": 112.49981249999999,
          "velocity": 0.3858267716535433
        },
        {
          "duration": 1.7987470020833314,
          "durationTicks": 1439,
          "midi": 52,
          "name": "E3",
          "ticks": 91440,
          "time": 114.2998095,
          "velocity": 0.3858267716535433
        },
        {
          "duration": 1.7987470020833456,
          "durationTicks": 1439,
          "midi": 59,
          "name": "B3",
          "ticks": 92880,
          "time": 116.09980649999999,
          "velocity": 0.3858267716535433
        },
        {
          "duration": 1.7987470020833314,
          "durationTicks": 1439,
          "midi": 64,
          "name": "E4",
          "ticks": 94320,
          "time": 117.89980349999999,
          "velocity": 0.3858267716535433
        },
        {
          "duration": 1.7987470020833314,
          "durationTicks": 1439,
          "midi": 68,
          "name": "G#4",
          "ticks": 94320,
          "time": 117.89980349999999,
          "velocity": 0.3858267716535433
        }
      ],
      "endOfTrackTicks": 95760
    },
    {
      "channel": 0,
      "controlChanges": {},
      "pitchBends": [],
      "instrument": {
        "family": "piano",
        "number": 0,
        "name": "acoustic grand piano"
      },
      "name": "",
      "notes": [
        {
          "duration": 1.4987475020833332,
          "durationTicks": 1199,
          "midi": 47,
          "name": "B2",
          "ticks": 0,
          "time": 0,
          "velocity": 0.3858267716535433
        },
        {
          "duration": 1.4987475020833332,
          "durationTicks": 1199,
          "midi": 59,
          "name": "B3",
          "ticks": 0,
          "time": 0,
          "velocity": 0.3858267716535433
        },
        {
          "duration": 0.2987495020833333,
          "durationTicks": 239,
          "midi": 47,
          "name": "B2",
          "ticks": 1200,
          "time": 1.4999974999999999,
          "velocity": 0.3858267716535433
        },
        {
          "duration": 0.2987495020833333,
          "durationTicks": 239,
          "midi": 59,
          "name": "B3",
          "ticks": 1200,
          "time": 1.4999974999999999,
          "velocity": 0.3858267716535433
        },
        {
          "duration": 1.7987470020833332,
          "durationTicks": 1439,
          "midi": 47,
          "name": "B2",
          "ticks": 1440,
          "time": 1.7999969999999998,
          "velocity": 0.3858267716535433
        },
        {
          "duration": 1.7987470020833332,
          "durationTicks": 1439,
          "midi": 59,
          "name": "B3",
          "ticks": 1440,
          "time": 1.7999969999999998,
          "velocity": 0.3858267716535433
        },
        {
          "duration": 1.498747502083333,
          "durationTicks": 1199,
          "midi": 47,
          "name": "B2",
          "ticks": 2880,
          "time": 3.5999939999999997,
          "velocity": 0.3858267716535433
        },
        {
          "duration": 1.498747502083333,
          "durationTicks": 1199,
          "midi": 59,
          "name": "B3",
          "ticks": 2880,
          "time": 3.5999939999999997,
          "velocity": 0.3858267716535433
        },
        {
          "duration": 0.29874950208333306,
          "durationTicks": 239,
          "midi": 47,
          "name": "B2",
          "ticks": 4080,
          "time": 5.0999915,
          "velocity": 0.3858267716535433
        },
        {
          "duration": 0.29874950208333306,
          "durationTicks": 239,
          "midi": 59,
          "name": "B3",
          "ticks": 4080,
          "time": 5.0999915,
          "velocity": 0.3858267716535433
        },
        {
          "duration": 1.7987470020833332,
          "durationTicks": 1439,
          "midi": 47,
          "name": "B2",
          "ticks": 4320,
          "time": 5.399991,
          "velocity": 0.3858267716535433
        },
        {
          "duration": 1.7987470020833332,
          "durationTicks": 1439,
          "midi": 59,
          "name": "B3",
          "ticks": 4320,
          "time": 5.399991,
          "velocity": 0.3858267716535433
        },
        {
          "duration": 0.8987485020833326,
          "durationTicks": 719,
          "midi": 47,
          "name": "B2",
          "ticks": 5760,
          "time": 7.199987999999999,
          "velocity": 0.3858267716535433
        },
        {
          "duration": 0.8987485020833326,
          "durationTicks": 719,
          "midi": 59,
          "name": "B3",
          "ticks": 5760,
          "time": 7.199987999999999,
          "velocity": 0.3858267716535433
        },
        {
          "duration": 0.8987485020833326,
          "durationTicks": 719,
          "midi": 47,
          "name": "B2",
          "ticks": 6480,
          "time": 8.0999865,
          "velocity": 0.3858267716535433
        },
        {
          "duration": 0.8987485020833326,
          "durationTicks": 719,
          "midi": 55,
          "name": "G3",
          "ticks": 6480,
          "time": 8.0999865,
          "velocity": 0.3858267716535433
        },
        {
          "duration": 0.8987485020833326,
          "durationTicks": 719,
          "midi": 47,
          "name": "B2",
          "ticks": 7200,
          "time": 8.999984999999999,
          "velocity": 0.3858267716535433
        },
        {
          "duration": 0.8987485020833326,
          "durationTicks": 719,
          "midi": 57,
          "name": "A3",
          "ticks": 7200,
          "time": 8.999984999999999,
          "velocity": 0.3858267716535433
        },
        {
          "duration": 0.8987485020833326,
          "durationTicks": 719,
          "midi": 47,
          "name": "B2",
          "ticks": 7920,
          "time": 9.8999835,
          "velocity": 0.3858267716535433
        },
        {
          "duration": 0.8987485020833326,
          "durationTicks": 719,
          "midi": 52,
          "name": "E3",
          "ticks": 7920,
          "time": 9.8999835,
          "velocity": 0.3858267716535433
        },
        {
          "duration": 0.8987485020833308,
          "durationTicks": 719,
          "midi": 47,
          "name": "B2",
          "ticks": 8640,
          "time": 10.799982,
          "velocity": 0.3858267716535433
        },
        {
          "duration": 0.8987485020833308,
          "durationTicks": 719,
          "midi": 59,
          "name": "B3",
          "ticks": 8640,
          "time": 10.799982,
          "velocity": 0.3858267716535433
        },
        {
          "duration": 0.8987485020833326,
          "durationTicks": 719,
          "midi": 47,
          "name": "B2",
          "ticks": 9360,
          "time": 11.699980499999999,
          "velocity": 0.3858267716535433
        },
        {
          "duration": 0.8987485020833326,
          "durationTicks": 719,
          "midi": 55,
          "name": "G3",
          "ticks": 9360,
          "time": 11.699980499999999,
          "velocity": 0.3858267716535433
        },
        {
          "duration": 0.8987485020833326,
          "durationTicks": 719,
          "midi": 47,
          "name": "B2",
          "ticks": 10080,
          "time": 12.599979,
          "velocity": 0.3858267716535433
        },
        {
          "duration": 0.8987485020833326,
          "durationTicks": 719,
          "midi": 57,
          "name": "A3",
          "ticks": 10080,
          "time": 12.599979,
          "velocity": 0.3858267716535433
        },
        {
          "duration": 0.8987485020833326,
          "durationTicks": 719,
          "midi": 47,
          "name": "B2",
          "ticks": 10800,
          "time": 13.499977499999998,
          "velocity": 0.3858267716535433
        },
        {
          "duration": 0.8987485020833326,
          "durationTicks": 719,
          "midi": 52,
          "name": "E3",
          "ticks": 10800,
          "time": 13.499977499999998,
          "velocity": 0.3858267716535433
        },
        {
          "duration": 0.8987485020833326,
          "durationTicks": 719,
          "midi": 47,
          "name": "B2",
          "ticks": 11520,
          "time": 14.399975999999999,
          "velocity": 0.6299212598425197
        },
        {
          "duration": 0.8987485020833326,
          "durationTicks": 719,
          "midi": 59,
          "name": "B3",
          "ticks": 11520,
          "time": 14.399975999999999,
          "velocity": 0.6299212598425197
        },
        {
          "duration": 0.8987485020833308,
          "durationTicks": 719,
          "midi": 47,
          "name": "B2",
          "ticks": 12240,
          "time": 15.2999745,
          "velocity": 0.6299212598425197
        },
        {
          "duration": 0.8987485020833308,
          "durationTicks": 719,
          "midi": 55,
          "name": "G3",
          "ticks": 12240,
          "time": 15.2999745,
          "velocity": 0.6299212598425197
        },
        {
          "duration": 0.8987485020833326,
          "durationTicks": 719,
          "midi": 47,
          "name": "B2",
          "ticks": 12960,
          "time": 16.199973,
          "velocity": 0.6299212598425197
        },
        {
          "duration": 0.8987485020833326,
          "durationTicks": 719,
          "midi": 57,
          "name": "A3",
          "ticks": 12960,
          "time": 16.199973,
          "velocity": 0.6299212598425197
        },
        {
          "duration": 0.8987485020833326,
          "durationTicks": 719,
          "midi": 47,
          "name": "B2",
          "ticks": 13680,
          "time": 17.0999715,
          "velocity": 0.6299212598425197
        },
        {
          "duration": 0.8987485020833326,
          "durationTicks": 719,
          "midi": 52,
          "name": "E3",
          "ticks": 13680,
          "time": 17.0999715,
          "velocity": 0.6299212598425197
        },
        {
          "duration": 0.8987485020833326,
          "durationTicks": 719,
          "midi": 47,
          "name": "B2",
          "ticks": 14400,
          "time": 17.999969999999998,
          "velocity": 0.6299212598425197
        },
        {
          "duration": 0.8987485020833326,
          "durationTicks": 719,
          "midi": 59,
          "name": "B3",
          "ticks": 14400,
          "time": 17.999969999999998,
          "velocity": 0.6299212598425197
        },
        {
          "duration": 0.8987485020833326,
          "durationTicks": 719,
          "midi": 43,
          "name": "G2",
          "ticks": 15120,
          "time": 18.8999685,
          "velocity": 0.6299212598425197
        },
        {
          "duration": 0.8987485020833326,
          "durationTicks": 719,
          "midi": 55,
          "name": "G3",
          "ticks": 15120,
          "time": 18.8999685,
          "velocity": 0.6299212598425197
        },
        {
          "duration": 0.8987485020833326,
          "durationTicks": 719,
          "midi": 45,
          "name": "A2",
          "ticks": 15840,
          "time": 19.799967,
          "velocity": 0.6299212598425197
        },
        {
          "duration": 0.8987485020833326,
          "durationTicks": 719,
          "midi": 57,
          "name": "A3",
          "ticks": 15840,
          "time": 19.799967,
          "velocity": 0.6299212598425197
        },
        {
          "duration": 0.8987485020833361,
          "durationTicks": 719,
          "midi": 40,
          "name": "E2",
          "ticks": 16560,
          "time": 20.699965499999998,
          "velocity": 0.6299212598425197
        },
        {
          "duration": 0.8987485020833361,
          "durationTicks": 719,
          "midi": 52,
          "name": "E3",
          "ticks": 16560,
          "time": 20.699965499999998,
          "velocity": 0.6299212598425197
        },
        {
          "duration": 0.5987490020833341,
          "durationTicks": 479,
          "midi": 47,
          "name": "B2",
          "ticks": 17280,
          "time": 21.599964,
          "velocity": 0.6299212598425197
        },
        {
          "duration": 0.5987490020833341,
          "durationTicks": 479,
          "midi": 59,
          "name": "B3",
          "ticks": 17280,
          "time": 21.599964,
          "velocity": 0.6299212598425197
        },
        {
          "duration": 0.2987495020833357,
          "durationTicks": 239,
          "midi": 47,
          "name": "B2",
          "ticks": 17760,
          "time": 22.199962999999997,
          "velocity": 0.6299212598425197
        },
        {
          "duration": 0.2987495020833357,
          "durationTicks": 239,
          "midi": 59,
          "name": "B3",
          "ticks": 17760,
          "time": 22.199962999999997,
          "velocity": 0.6299212598425197
        },
        {
          "duration": 0.44874925208333494,
          "durationTicks": 359,
          "midi": 47,
          "name": "B2",
          "ticks": 18000,
          "time": 22.4999625,
          "velocity": 0.3858267716535433
        },
        {
          "duration": 0.14874975208333652,
          "durationTicks": 119,
          "midi": 47,
          "name": "B2",
          "ticks": 18360,
          "time": 22.949961749999996,
          "velocity": 0.3858267716535433
        },
        {
          "duration": 0.2987495020833322,
          "durationTicks": 239,
          "midi": 47,
          "name": "B2",
          "ticks": 18480,
          "time": 23.0999615,
          "velocity": 0.3858267716535433
        },
        {
          "duration": 0.2987495020833357,
          "durationTicks": 239,
          "midi": 47,
          "name": "B2",
          "ticks": 18720,
          "time": 23.399960999999998,
          "velocity": 0.3858267716535433
        },
        {
          "duration": 0.2987495020833322,
          "durationTicks": 239,
          "midi": 47,
          "name": "B2",
          "ticks": 18960,
          "time": 23.6999605,
          "velocity": 0.3858267716535433
        },
        {
          "duration": 0.2987495020833357,
          "durationTicks": 239,
          "midi": 47,
          "name": "B2",
          "ticks": 19200,
          "time": 23.999959999999998,
          "velocity": 0.3858267716535433
        },
        {
          "duration": 0.44874925208333494,
          "durationTicks": 359,
          "midi": 47,
          "name": "B2",
          "ticks": 19440,
          "time": 24.299959499999996,
          "velocity": 0.3858267716535433
        },
        {
          "duration": 0.14874975208333652,
          "durationTicks": 119,
          "midi": 47,
          "name": "B2",
          "ticks": 19800,
          "time": 24.749958749999998,
          "velocity": 0.3858267716535433
        },
        {
          "duration": 0.2987495020833357,
          "durationTicks": 239,
          "midi": 47,
          "name": "B2",
          "ticks": 19920,
          "time": 24.899958499999997,
          "velocity": 0.3858267716535433
        },
        {
          "duration": 0.2987495020833322,
          "durationTicks": 239,
          "midi": 47,
          "name": "B2",
          "ticks": 20160,
          "time": 25.199958,
          "velocity": 0.3858267716535433
        },
        {
          "duration": 0.2987495020833357,
          "durationTicks": 239,
          "midi": 47,
          "name": "B2",
          "ticks": 20400,
          "time": 25.499957499999997,
          "velocity": 0.3858267716535433
        },
        {
          "duration": 0.2987495020833322,
          "durationTicks": 239,
          "midi": 47,
          "name": "B2",
          "ticks": 20640,
          "time": 25.799957,
          "velocity": 0.3858267716535433
        },
        {
          "duration": 0.44874925208333494,
          "durationTicks": 359,
          "midi": 43,
          "name": "G2",
          "ticks": 20880,
          "time": 26.099956499999998,
          "velocity": 0.3858267716535433
        },
        {
          "duration": 0.14874975208333296,
          "durationTicks": 119,
          "midi": 43,
          "name": "G2",
          "ticks": 21240,
          "time": 26.54995575,
          "velocity": 0.3858267716535433
        },
        {
          "duration": 0.2987495020833357,
          "durationTicks": 239,
          "midi": 43,
          "name": "G2",
          "ticks": 21360,
          "time": 26.699955499999998,
          "velocity": 0.3858267716535433
        },
        {
          "duration": 0.2987495020833357,
          "durationTicks": 239,
          "midi": 43,
          "name": "G2",
          "ticks": 21600,
          "time": 26.999954999999996,
          "velocity": 0.3858267716535433
        },
        {
          "duration": 0.2987495020833322,
          "durationTicks": 239,
          "midi": 43,
          "name": "G2",
          "ticks": 21840,
          "time": 27.2999545,
          "velocity": 0.3858267716535433
        },
        {
          "duration": 0.2987495020833357,
          "durationTicks": 239,
          "midi": 43,
          "name": "G2",
          "ticks": 22080,
          "time": 27.599953999999997,
          "velocity": 0.3858267716535433
        },
        {
          "duration": 0.44874925208333494,
          "durationTicks": 359,
          "midi": 45,
          "name": "A2",
          "ticks": 22320,
          "time": 27.8999535,
          "velocity": 0.3858267716535433
        },
        {
          "duration": 0.14874975208333652,
          "durationTicks": 119,
          "midi": 45,
          "name": "A2",
          "ticks": 22680,
          "time": 28.349952749999996,
          "velocity": 0.3858267716535433
        },
        {
          "duration": 0.2987495020833322,
          "durationTicks": 239,
          "midi": 45,
          "name": "A2",
          "ticks": 22800,
          "time": 28.4999525,
          "velocity": 0.3858267716535433
        },
        {
          "duration": 0.2987495020833357,
          "durationTicks": 239,
          "midi": 45,
          "name": "A2",
          "ticks": 23040,
          "time": 28.799951999999998,
          "velocity": 0.3858267716535433
        },
        {
          "duration": 0.2987495020833357,
          "durationTicks": 239,
          "midi": 45,
          "name": "A2",
          "ticks": 23280,
          "time": 29.099951499999996,
          "velocity": 0.3858267716535433
        },
        {
          "duration": 0.2987495020833357,
          "durationTicks": 239,
          "midi": 45,
          "name": "A2",
          "ticks": 23520,
          "time": 29.399950999999998,
          "velocity": 0.3858267716535433
        },
        {
          "duration": 0.44874925208333494,
          "durationTicks": 359,
          "midi": 47,
          "name": "B2",
          "ticks": 23760,
          "time": 29.699950499999996,
          "velocity": 0.6299212598425197
        },
        {
          "duration": 0.14874975208333296,
          "durationTicks": 119,
          "midi": 47,
          "name": "B2",
          "ticks": 24120,
          "time": 30.149949749999998,
          "velocity": 0.6299212598425197
        },
        {
          "duration": 0.2987495020833357,
          "durationTicks": 239,
          "midi": 47,
          "name": "B2",
          "ticks": 24240,
          "time": 30.299949499999997,
          "velocity": 0.6299212598425197
        },
        {
          "duration": 0.2987495020833322,
          "durationTicks": 239,
          "midi": 47,
          "name": "B2",
          "ticks": 24480,
          "time": 30.599949,
          "velocity": 0.6299212598425197
        },
        {
          "duration": 0.2987495020833357,
          "durationTicks": 239,
          "midi": 47,
          "name": "B2",
          "ticks": 24720,
          "time": 30.899948499999997,
          "velocity": 0.6299212598425197
        },
        {
          "duration": 0.2987495020833322,
          "durationTicks": 239,
          "midi": 47,
          "name": "B2",
          "ticks": 24960,
          "time": 31.199948,
          "velocity": 0.6299212598425197
        },
        {
          "duration": 0.44874925208333494,
          "durationTicks": 359,
          "midi": 47,
          "name": "B2",
          "ticks": 25200,
          "time": 31.499947499999998,
          "velocity": 0.6299212598425197
        },
        {
          "duration": 0.14874975208333652,
          "durationTicks": 119,
          "midi": 47,
          "name": "B2",
          "ticks": 25560,
          "time": 31.94994675,
          "velocity": 0.6299212598425197
        },
        {
          "duration": 0.2987495020833393,
          "durationTicks": 239,
          "midi": 47,
          "name": "B2",
          "ticks": 25680,
          "time": 32.099946499999994,
          "velocity": 0.6299212598425197
        },
        {
          "duration": 0.2987495020833322,
          "durationTicks": 239,
          "midi": 47,
          "name": "B2",
          "ticks": 25920,
          "time": 32.399946,
          "velocity": 0.6299212598425197
        },
        {
          "duration": 0.2987495020833322,
          "durationTicks": 239,
          "midi": 47,
          "name": "B2",
          "ticks": 26160,
          "time": 32.6999455,
          "velocity": 0.6299212598425197
        },
        {
          "duration": 0.2987495020833322,
          "durationTicks": 239,
          "midi": 47,
          "name": "B2",
          "ticks": 26400,
          "time": 32.999945,
          "velocity": 0.6299212598425197
        },
        {
          "duration": 0.4487492520833385,
          "durationTicks": 359,
          "midi": 43,
          "name": "G2",
          "ticks": 26640,
          "time": 33.299944499999995,
          "velocity": 0.6299212598425197
        },
        {
          "duration": 0.4487492520833385,
          "durationTicks": 359,
          "midi": 55,
          "name": "G3",
          "ticks": 26640,
          "time": 33.299944499999995,
          "velocity": 0.6299212598425197
        },
        {
          "duration": 0.14874975208333296,
          "durationTicks": 119,
          "midi": 43,
          "name": "G2",
          "ticks": 27000,
          "time": 33.74994375,
          "velocity": 0.6299212598425197
        },
        {
          "duration": 0.14874975208333296,
          "durationTicks": 119,
          "midi": 55,
          "name": "G3",
          "ticks": 27000,
          "time": 33.74994375,
          "velocity": 0.6299212598425197
        },
        {
          "duration": 0.2987495020833322,
          "durationTicks": 239,
          "midi": 43,
          "name": "G2",
          "ticks": 27120,
          "time": 33.8999435,
          "velocity": 0.6299212598425197
        },
        {
          "duration": 0.2987495020833322,
          "durationTicks": 239,
          "midi": 55,
          "name": "G3",
          "ticks": 27120,
          "time": 33.8999435,
          "velocity": 0.6299212598425197
        },
        {
          "duration": 0.2987495020833322,
          "durationTicks": 239,
          "midi": 43,
          "name": "G2",
          "ticks": 27360,
          "time": 34.199943,
          "velocity": 0.6299212598425197
        },
        {
          "duration": 0.2987495020833322,
          "durationTicks": 239,
          "midi": 55,
          "name": "G3",
          "ticks": 27360,
          "time": 34.199943,
          "velocity": 0.6299212598425197
        },
        {
          "duration": 0.2987495020833322,
          "durationTicks": 239,
          "midi": 43,
          "name": "G2",
          "ticks": 27600,
          "time": 34.499942499999996,
          "velocity": 0.6299212598425197
        },
        {
          "duration": 0.2987495020833322,
          "durationTicks": 239,
          "midi": 55,
          "name": "G3",
          "ticks": 27600,
          "time": 34.499942499999996,
          "velocity": 0.6299212598425197
        },
        {
          "duration": 0.2987495020833393,
          "durationTicks": 239,
          "midi": 43,
          "name": "G2",
          "ticks": 27840,
          "time": 34.799941999999994,
          "velocity": 0.6299212598425197
        },
        {
          "duration": 0.2987495020833393,
          "durationTicks": 239,
          "midi": 55,
          "name": "G3",
          "ticks": 27840,
          "time": 34.799941999999994,
          "velocity": 0.6299212598425197
        },
        {
          "duration": 0.4487492520833314,
          "durationTicks": 359,
          "midi": 45,
          "name": "A2",
          "ticks": 28080,
          "time": 35.0999415,
          "velocity": 0.6299212598425197
        },
        {
          "duration": 0.4487492520833314,
          "durationTicks": 359,
          "midi": 57,
          "name": "A3",
          "ticks": 28080,
          "time": 35.0999415,
          "velocity": 0.6299212598425197
        },
        {
          "duration": 0.14874975208333296,
          "durationTicks": 119,
          "midi": 45,
          "name": "A2",
          "ticks": 28440,
          "time": 35.54994075,
          "velocity": 0.6299212598425197
        },
        {
          "duration": 0.14874975208333296,
          "durationTicks": 119,
          "midi": 57,
          "name": "A3",
          "ticks": 28440,
          "time": 35.54994075,
          "velocity": 0.6299212598425197
        },
        {
          "duration": 0.2987495020833322,
          "durationTicks": 239,
          "midi": 45,
          "name": "A2",
          "ticks": 28560,
          "time": 35.6999405,
          "velocity": 0.6299212598425197
        },
        {
          "duration": 0.2987495020833322,
          "durationTicks": 239,
          "midi": 57,
          "name": "A3",
          "ticks": 28560,
          "time": 35.6999405,
          "velocity": 0.6299212598425197
        },
        {
          "duration": 0.2987495020833393,
          "durationTicks": 239,
          "midi": 45,
          "name": "A2",
          "ticks": 28800,
          "time": 35.999939999999995,
          "velocity": 0.6299212598425197
        },
        {
          "duration": 0.2987495020833393,
          "durationTicks": 239,
          "midi": 57,
          "name": "A3",
          "ticks": 28800,
          "time": 35.999939999999995,
          "velocity": 0.6299212598425197
        },
        {
          "duration": 0.2987495020833393,
          "durationTicks": 239,
          "midi": 45,
          "name": "A2",
          "ticks": 29040,
          "time": 36.299939499999994,
          "velocity": 0.6299212598425197
        },
        {
          "duration": 0.2987495020833393,
          "durationTicks": 239,
          "midi": 57,
          "name": "A3",
          "ticks": 29040,
          "time": 36.299939499999994,
          "velocity": 0.6299212598425197
        },
        {
          "duration": 0.2987495020833322,
          "durationTicks": 239,
          "midi": 45,
          "name": "A2",
          "ticks": 29280,
          "time": 36.599939,
          "velocity": 0.6299212598425197
        },
        {
          "duration": 0.2987495020833322,
          "durationTicks": 239,
          "midi": 57,
          "name": "A3",
          "ticks": 29280,
          "time": 36.599939,
          "velocity": 0.6299212598425197
        },
        {
          "duration": 0.8987485020833361,
          "durationTicks": 719,
          "midi": 47,
          "name": "B2",
          "ticks": 29520,
          "time": 36.8999385,
          "velocity": 0.7559055118110236
        },
        {
          "duration": 0.8987485020833361,
          "durationTicks": 719,
          "midi": 59,
          "name": "B3",
          "ticks": 29520,
          "time": 36.8999385,
          "velocity": 0.7559055118110236
        },
        {
          "duration": 0.898748502083329,
          "durationTicks": 719,
          "midi": 43,
          "name": "G2",
          "ticks": 30240,
          "time": 37.799937,
          "velocity": 0.7559055118110236
        },
        {
          "duration": 0.898748502083329,
          "durationTicks": 719,
          "midi": 55,
          "name": "G3",
          "ticks": 30240,
          "time": 37.799937,
          "velocity": 0.7559055118110236
        },
        {
          "duration": 0.8987485020833361,
          "durationTicks": 719,
          "midi": 45,
          "name": "A2",
          "ticks": 30960,
          "time": 38.699935499999995,
          "velocity": 0.7559055118110236
        },
        {
          "duration": 0.8987485020833361,
          "durationTicks": 719,
          "midi": 57,
          "name": "A3",
          "ticks": 30960,
          "time": 38.699935499999995,
          "velocity": 0.7559055118110236
        },
        {
          "duration": 0.8987485020833361,
          "durationTicks": 719,
          "midi": 40,
          "name": "E2",
          "ticks": 31680,
          "time": 39.599934,
          "velocity": 0.7559055118110236
        },
        {
          "duration": 0.8987485020833361,
          "durationTicks": 719,
          "midi": 52,
          "name": "E3",
          "ticks": 31680,
          "time": 39.599934,
          "velocity": 0.7559055118110236
        },
        {
          "duration": 0.898748502083329,
          "durationTicks": 719,
          "midi": 47,
          "name": "B2",
          "ticks": 32400,
          "time": 40.4999325,
          "velocity": 0.7559055118110236
        },
        {
          "duration": 0.898748502083329,
          "durationTicks": 719,
          "midi": 59,
          "name": "B3",
          "ticks": 32400,
          "time": 40.4999325,
          "velocity": 0.7559055118110236
        },
        {
          "duration": 0.8987485020833361,
          "durationTicks": 719,
          "midi": 43,
          "name": "G2",
          "ticks": 33120,
          "time": 41.399930999999995,
          "velocity": 0.7559055118110236
        },
        {
          "duration": 0.8987485020833361,
          "durationTicks": 719,
          "midi": 55,
          "name": "G3",
          "ticks": 33120,
          "time": 41.399930999999995,
          "velocity": 0.7559055118110236
        },
        {
          "duration": 0.8987485020833361,
          "durationTicks": 719,
          "midi": 45,
          "name": "A2",
          "ticks": 33840,
          "time": 42.2999295,
          "velocity": 0.7559055118110236
        },
        {
          "duration": 0.8987485020833361,
          "durationTicks": 719,
          "midi": 57,
          "name": "A3",
          "ticks": 33840,
          "time": 42.2999295,
          "velocity": 0.7559055118110236
        },
        {
          "duration": 0.898748502083329,
          "durationTicks": 719,
          "midi": 40,
          "name": "E2",
          "ticks": 34560,
          "time": 43.199928,
          "velocity": 0.7559055118110236
        },
        {
          "duration": 0.898748502083329,
          "durationTicks": 719,
          "midi": 52,
          "name": "E3",
          "ticks": 34560,
          "time": 43.199928,
          "velocity": 0.7559055118110236
        },
        {
          "duration": 0.8987485020833361,
          "durationTicks": 719,
          "midi": 47,
          "name": "B2",
          "ticks": 35280,
          "time": 44.099926499999995,
          "velocity": 0.7559055118110236
        },
        {
          "duration": 0.8987485020833361,
          "durationTicks": 719,
          "midi": 59,
          "name": "B3",
          "ticks": 35280,
          "time": 44.099926499999995,
          "velocity": 0.7559055118110236
        },
        {
          "duration": 0.8987485020833361,
          "durationTicks": 719,
          "midi": 43,
          "name": "G2",
          "ticks": 36000,
          "time": 44.999925,
          "velocity": 0.7559055118110236
        },
        {
          "duration": 0.8987485020833361,
          "durationTicks": 719,
          "midi": 55,
          "name": "G3",
          "ticks": 36000,
          "time": 44.999925,
          "velocity": 0.7559055118110236
        },
        {
          "duration": 0.5987490020833377,
          "durationTicks": 479,
          "midi": 45,
          "name": "A2",
          "ticks": 36720,
          "time": 45.89992349999999,
          "velocity": 0.7559055118110236
        },
        {
          "duration": 0.5987490020833377,
          "durationTicks": 479,
          "midi": 57,
          "name": "A3",
          "ticks": 36720,
          "time": 45.89992349999999,
          "velocity": 0.7559055118110236
        },
        {
          "duration": 0.2987495020833322,
          "durationTicks": 239,
          "midi": 45,
          "name": "A2",
          "ticks": 37200,
          "time": 46.4999225,
          "velocity": 0.7559055118110236
        },
        {
          "duration": 0.2987495020833322,
          "durationTicks": 239,
          "midi": 57,
          "name": "A3",
          "ticks": 37200,
          "time": 46.4999225,
          "velocity": 0.7559055118110236
        },
        {
          "duration": 0.8987485020833361,
          "durationTicks": 719,
          "midi": 40,
          "name": "E2",
          "ticks": 37440,
          "time": 46.799921999999995,
          "velocity": 0.7559055118110236
        },
        {
          "duration": 0.8987485020833361,
          "durationTicks": 719,
          "midi": 52,
          "name": "E3",
          "ticks": 37440,
          "time": 46.799921999999995,
          "velocity": 0.7559055118110236
        },
        {
          "duration": 0.8987485020833361,
          "durationTicks": 719,
          "midi": 47,
          "name": "B2",
          "ticks": 38160,
          "time": 47.6999205,
          "velocity": 0.7559055118110236
        },
        {
          "duration": 0.8987485020833361,
          "durationTicks": 719,
          "midi": 59,
          "name": "B3",
          "ticks": 38160,
          "time": 47.6999205,
          "velocity": 0.7559055118110236
        },
        {
          "duration": 0.8987485020833361,
          "durationTicks": 719,
          "midi": 43,
          "name": "G2",
          "ticks": 38880,
          "time": 48.59991899999999,
          "velocity": 0.7559055118110236
        },
        {
          "duration": 0.8987485020833361,
          "durationTicks": 719,
          "midi": 55,
          "name": "G3",
          "ticks": 38880,
          "time": 48.59991899999999,
          "velocity": 0.7559055118110236
        },
        {
          "duration": 0.2987495020833322,
          "durationTicks": 239,
          "midi": 45,
          "name": "A2",
          "ticks": 39600,
          "time": 49.499917499999995,
          "velocity": 0.7559055118110236
        },
        {
          "duration": 0.2987495020833322,
          "durationTicks": 239,
          "midi": 57,
          "name": "A3",
          "ticks": 39600,
          "time": 49.499917499999995,
          "velocity": 0.7559055118110236
        },
        {
          "duration": 0.2987495020833393,
          "durationTicks": 239,
          "midi": 45,
          "name": "A2",
          "ticks": 39840,
          "time": 49.79991699999999,
          "velocity": 0.7559055118110236
        },
        {
          "duration": 0.2987495020833393,
          "durationTicks": 239,
          "midi": 57,
          "name": "A3",
          "ticks": 39840,
          "time": 49.79991699999999,
          "velocity": 0.7559055118110236
        },
        {
          "duration": 0.2987495020833322,
          "durationTicks": 239,
          "midi": 45,
          "name": "A2",
          "ticks": 40080,
          "time": 50.0999165,
          "velocity": 0.7559055118110236
        },
        {
          "duration": 0.2987495020833322,
          "durationTicks": 239,
          "midi": 57,
          "name": "A3",
          "ticks": 40080,
          "time": 50.0999165,
          "velocity": 0.7559055118110236
        },
        {
          "duration": 0.2987495020833322,
          "durationTicks": 239,
          "midi": 40,
          "name": "E2",
          "ticks": 40320,
          "time": 50.399916,
          "velocity": 0.7559055118110236
        },
        {
          "duration": 0.2987495020833322,
          "durationTicks": 239,
          "midi": 52,
          "name": "E3",
          "ticks": 40320,
          "time": 50.399916,
          "velocity": 0.7559055118110236
        },
        {
          "duration": 0.2987495020833322,
          "durationTicks": 239,
          "midi": 40,
          "name": "E2",
          "ticks": 40560,
          "time": 50.699915499999996,
          "velocity": 0.7952755905511811
        },
        {
          "duration": 0.2987495020833322,
          "durationTicks": 239,
          "midi": 52,
          "name": "E3",
          "ticks": 40560,
          "time": 50.699915499999996,
          "velocity": 0.7952755905511811
        },
        {
          "duration": 0.2987495020833393,
          "durationTicks": 239,
          "midi": 40,
          "name": "E2",
          "ticks": 40800,
          "time": 50.999914999999994,
          "velocity": 0.8346456692913385
        },
        {
          "duration": 0.2987495020833393,
          "durationTicks": 239,
          "midi": 52,
          "name": "E3",
          "ticks": 40800,
          "time": 50.999914999999994,
          "velocity": 0.8346456692913385
        },
        {
          "duration": 0.14874975208334007,
          "durationTicks": 119,
          "midi": 47,
          "name": "B2",
          "ticks": 41040,
          "time": 51.29991449999999,
          "velocity": 0.8818897637795275
        },
        {
          "duration": 0.14874975208333296,
          "durationTicks": 119,
          "midi": 50,
          "name": "D3",
          "ticks": 41160,
          "time": 51.44991425,
          "velocity": 0.8818897637795275
        },
        {
          "duration": 0.14874975208333296,
          "durationTicks": 119,
          "midi": 54,
          "name": "F#3",
          "ticks": 41280,
          "time": 51.599914,
          "velocity": 0.8818897637795275
        },
        {
          "duration": 0.14874975208333296,
          "durationTicks": 119,
          "midi": 59,
          "name": "B3",
          "ticks": 41400,
          "time": 51.74991375,
          "velocity": 0.8818897637795275
        },
        {
          "duration": 0.14874975208333296,
          "durationTicks": 119,
          "midi": 62,
          "name": "D4",
          "ticks": 41520,
          "time": 51.8999135,
          "velocity": 0.8818897637795275
        },
        {
          "duration": 0.14874975208333296,
          "durationTicks": 119,
          "midi": 66,
          "name": "F#4",
          "ticks": 41640,
          "time": 52.049913249999996,
          "velocity": 0.8818897637795275
        },
        {
          "duration": 0.14874975208333296,
          "durationTicks": 119,
          "midi": 69,
          "name": "A4",
          "ticks": 41760,
          "time": 52.199912999999995,
          "velocity": 0.8818897637795275
        },
        {
          "duration": 0.14874975208333296,
          "durationTicks": 119,
          "midi": 66,
          "name": "F#4",
          "ticks": 41880,
          "time": 52.349912749999994,
          "velocity": 0.8818897637795275
        },
        {
          "duration": 0.14874975208333296,
          "durationTicks": 119,
          "midi": 62,
          "name": "D4",
          "ticks": 42000,
          "time": 52.49991249999999,
          "velocity": 0.8818897637795275
        },
        {
          "duration": 0.14874975208334007,
          "durationTicks": 119,
          "midi": 59,
          "name": "B3",
          "ticks": 42120,
          "time": 52.64991224999999,
          "velocity": 0.8818897637795275
        },
        {
          "duration": 0.14874975208334007,
          "durationTicks": 119,
          "midi": 54,
          "name": "F#3",
          "ticks": 42240,
          "time": 52.79991199999999,
          "velocity": 0.8818897637795275
        },
        {
          "duration": 0.14874975208333296,
          "durationTicks": 119,
          "midi": 50,
          "name": "D3",
          "ticks": 42360,
          "time": 52.94991175,
          "velocity": 0.8818897637795275
        },
        {
          "duration": 0.14874975208333296,
          "durationTicks": 119,
          "midi": 47,
          "name": "B2",
          "ticks": 42480,
          "time": 53.0999115,
          "velocity": 0.8818897637795275
        },
        {
          "duration": 0.14874975208333296,
          "durationTicks": 119,
          "midi": 50,
          "name": "D3",
          "ticks": 42600,
          "time": 53.24991125,
          "velocity": 0.8818897637795275
        },
        {
          "duration": 0.14874975208333296,
          "durationTicks": 119,
          "midi": 54,
          "name": "F#3",
          "ticks": 42720,
          "time": 53.399910999999996,
          "velocity": 0.8818897637795275
        },
        {
          "duration": 0.14874975208333296,
          "durationTicks": 119,
          "midi": 59,
          "name": "B3",
          "ticks": 42840,
          "time": 53.549910749999995,
          "velocity": 0.8818897637795275
        },
        {
          "duration": 0.14874975208333296,
          "durationTicks": 119,
          "midi": 62,
          "name": "D4",
          "ticks": 42960,
          "time": 53.699910499999994,
          "velocity": 0.8818897637795275
        },
        {
          "duration": 0.14874975208333296,
          "durationTicks": 119,
          "midi": 66,
          "name": "F#4",
          "ticks": 43080,
          "time": 53.84991024999999,
          "velocity": 0.8818897637795275
        },
        {
          "duration": 0.14874975208334007,
          "durationTicks": 119,
          "midi": 69,
          "name": "A4",
          "ticks": 43200,
          "time": 53.99990999999999,
          "velocity": 0.8818897637795275
        },
        {
          "duration": 0.14874975208334007,
          "durationTicks": 119,
          "midi": 66,
          "name": "F#4",
          "ticks": 43320,
          "time": 54.14990974999999,
          "velocity": 0.8818897637795275
        },
        {
          "duration": 0.14874975208333296,
          "durationTicks": 119,
          "midi": 62,
          "name": "D4",
          "ticks": 43440,
          "time": 54.2999095,
          "velocity": 0.8818897637795275
        },
        {
          "duration": 0.14874975208333296,
          "durationTicks": 119,
          "midi": 59,
          "name": "B3",
          "ticks": 43560,
          "time": 54.44990925,
          "velocity": 0.8818897637795275
        },
        {
          "duration": 0.14874975208333296,
          "durationTicks": 119,
          "midi": 54,
          "name": "F#3",
          "ticks": 43680,
          "time": 54.599909,
          "velocity": 0.8818897637795275
        },
        {
          "duration": 0.14874975208333296,
          "durationTicks": 119,
          "midi": 50,
          "name": "D3",
          "ticks": 43800,
          "time": 54.749908749999996,
          "velocity": 0.8818897637795275
        },
        {
          "duration": 0.14874975208333296,
          "durationTicks": 119,
          "midi": 45,
          "name": "A2",
          "ticks": 43920,
          "time": 54.899908499999995,
          "velocity": 0.8818897637795275
        },
        {
          "duration": 0.14874975208333296,
          "durationTicks": 119,
          "midi": 49,
          "name": "C#3",
          "ticks": 44040,
          "time": 55.049908249999994,
          "velocity": 0.8818897637795275
        },
        {
          "duration": 0.14874975208333296,
          "durationTicks": 119,
          "midi": 52,
          "name": "E3",
          "ticks": 44160,
          "time": 55.19990799999999,
          "velocity": 0.8818897637795275
        },
        {
          "duration": 0.14874975208334007,
          "durationTicks": 119,
          "midi": 57,
          "name": "A3",
          "ticks": 44280,
          "time": 55.34990774999999,
          "velocity": 0.8818897637795275
        },
        {
          "duration": 0.14874975208334007,
          "durationTicks": 119,
          "midi": 61,
          "name": "C#4",
          "ticks": 44400,
          "time": 55.49990749999999,
          "velocity": 0.8818897637795275
        },
        {
          "duration": 0.14874975208333296,
          "durationTicks": 119,
          "midi": 64,
          "name": "E4",
          "ticks": 44520,
          "time": 55.64990725,
          "velocity": 0.8818897637795275
        },
        {
          "duration": 0.14874975208333296,
          "durationTicks": 119,
          "midi": 69,
          "name": "A4",
          "ticks": 44640,
          "time": 55.799907,
          "velocity": 0.8818897637795275
        },
        {
          "duration": 0.14874975208333296,
          "durationTicks": 119,
          "midi": 64,
          "name": "E4",
          "ticks": 44760,
          "time": 55.94990675,
          "velocity": 0.8818897637795275
        },
        {
          "duration": 0.14874975208333296,
          "durationTicks": 119,
          "midi": 61,
          "name": "C#4",
          "ticks": 44880,
          "time": 56.099906499999996,
          "velocity": 0.8818897637795275
        },
        {
          "duration": 0.14874975208333296,
          "durationTicks": 119,
          "midi": 57,
          "name": "A3",
          "ticks": 45000,
          "time": 56.249906249999995,
          "velocity": 0.8818897637795275
        },
        {
          "duration": 0.14874975208333296,
          "durationTicks": 119,
          "midi": 52,
          "name": "E3",
          "ticks": 45120,
          "time": 56.399905999999994,
          "velocity": 0.8818897637795275
        },
        {
          "duration": 0.14874975208333296,
          "durationTicks": 119,
          "midi": 49,
          "name": "C#3",
          "ticks": 45240,
          "time": 56.54990574999999,
          "velocity": 0.8818897637795275
        },
        {
          "duration": 0.14874975208334007,
          "durationTicks": 119,
          "midi": 52,
          "name": "E3",
          "ticks": 45360,
          "time": 56.69990549999999,
          "velocity": 0.8818897637795275
        },
        {
          "duration": 0.14874975208334007,
          "durationTicks": 119,
          "midi": 56,
          "name": "G#3",
          "ticks": 45480,
          "time": 56.84990524999999,
          "velocity": 0.8818897637795275
        },
        {
          "duration": 0.14874975208333296,
          "durationTicks": 119,
          "midi": 59,
          "name": "B3",
          "ticks": 45600,
          "time": 56.999905,
          "velocity": 0.8818897637795275
        },
        {
          "duration": 0.14874975208333296,
          "durationTicks": 119,
          "midi": 64,
          "name": "E4",
          "ticks": 45720,
          "time": 57.14990475,
          "velocity": 0.8818897637795275
        },
        {
          "duration": 0.14874975208333296,
          "durationTicks": 119,
          "midi": 67,
          "name": "G4",
          "ticks": 45840,
          "time": 57.2999045,
          "velocity": 0.8818897637795275
        },
        {
          "duration": 0.14874975208333296,
          "durationTicks": 119,
          "midi": 71,
          "name": "B4",
          "ticks": 45960,
          "time": 57.449904249999996,
          "velocity": 0.8818897637795275
        },
        {
          "duration": 0.14874975208333296,
          "durationTicks": 119,
          "midi": 76,
          "name": "E5",
          "ticks": 46080,
          "time": 57.599903999999995,
          "velocity": 0.8818897637795275
        },
        {
          "duration": 0.14874975208333296,
          "durationTicks": 119,
          "midi": 71,
          "name": "B4",
          "ticks": 46200,
          "time": 57.749903749999994,
          "velocity": 0.8818897637795275
        },
        {
          "duration": 0.14874975208333296,
          "durationTicks": 119,
          "midi": 67,
          "name": "G4",
          "ticks": 46320,
          "time": 57.89990349999999,
          "velocity": 0.8818897637795275
        },
        {
          "duration": 0.14874975208334007,
          "durationTicks": 119,
          "midi": 64,
          "name": "E4",
          "ticks": 46440,
          "time": 58.04990324999999,
          "velocity": 0.8818897637795275
        },
        {
          "duration": 0.14874975208334007,
          "durationTicks": 119,
          "midi": 59,
          "name": "B3",
          "ticks": 46560,
          "time": 58.19990299999999,
          "velocity": 0.8818897637795275
        },
        {
          "duration": 0.14874975208333296,
          "durationTicks": 119,
          "midi": 56,
          "name": "G#3",
          "ticks": 46680,
          "time": 58.34990275,
          "velocity": 0.8818897637795275
        },
        {
          "duration": 0.14874975208333296,
          "durationTicks": 119,
          "midi": 47,
          "name": "B2",
          "ticks": 46800,
          "time": 58.4999025,
          "velocity": 0.8818897637795275
        },
        {
          "duration": 0.14874975208333296,
          "durationTicks": 119,
          "midi": 50,
          "name": "D3",
          "ticks": 46920,
          "time": 58.64990225,
          "velocity": 0.8818897637795275
        },
        {
          "duration": 0.14874975208333296,
          "durationTicks": 119,
          "midi": 54,
          "name": "F#3",
          "ticks": 47040,
          "time": 58.799901999999996,
          "velocity": 0.8818897637795275
        },
        {
          "duration": 0.14874975208333296,
          "durationTicks": 119,
          "midi": 59,
          "name": "B3",
          "ticks": 47160,
          "time": 58.949901749999995,
          "velocity": 0.8818897637795275
        },
        {
          "duration": 0.14874975208333296,
          "durationTicks": 119,
          "midi": 62,
          "name": "D4",
          "ticks": 47280,
          "time": 59.099901499999994,
          "velocity": 0.8818897637795275
        },
        {
          "duration": 0.14874975208333296,
          "durationTicks": 119,
          "midi": 66,
          "name": "F#4",
          "ticks": 47400,
          "time": 59.24990124999999,
          "velocity": 0.8818897637795275
        },
        {
          "duration": 0.14874975208334007,
          "durationTicks": 119,
          "midi": 69,
          "name": "A4",
          "ticks": 47520,
          "time": 59.39990099999999,
          "velocity": 0.8818897637795275
        },
        {
          "duration": 0.14874975208334007,
          "durationTicks": 119,
          "midi": 66,
          "name": "F#4",
          "ticks": 47640,
          "time": 59.54990074999999,
          "velocity": 0.8818897637795275
        },
        {
          "duration": 0.14874975208333296,
          "durationTicks": 119,
          "midi": 62,
          "name": "D4",
          "ticks": 47760,
          "time": 59.6999005,
          "velocity": 0.8818897637795275
        },
        {
          "duration": 0.14874975208333296,
          "durationTicks": 119,
          "midi": 59,
          "name": "B3",
          "ticks": 47880,
          "time": 59.84990025,
          "velocity": 0.8818897637795275
        },
        {
          "duration": 0.14874975208333296,
          "durationTicks": 119,
          "midi": 54,
          "name": "F#3",
          "ticks": 48000,
          "time": 59.9999,
          "velocity": 0.8818897637795275
        },
        {
          "duration": 0.14874975208333296,
          "durationTicks": 119,
          "midi": 50,
          "name": "D3",
          "ticks": 48120,
          "time": 60.149899749999996,
          "velocity": 0.8818897637795275
        },
        {
          "duration": 0.14874975208333296,
          "durationTicks": 119,
          "midi": 47,
          "name": "B2",
          "ticks": 48240,
          "time": 60.299899499999995,
          "velocity": 0.8818897637795275
        },
        {
          "duration": 0.14874975208333296,
          "durationTicks": 119,
          "midi": 50,
          "name": "D3",
          "ticks": 48360,
          "time": 60.449899249999994,
          "velocity": 0.8818897637795275
        },
        {
          "duration": 0.14874975208333296,
          "durationTicks": 119,
          "midi": 54,
          "name": "F#3",
          "ticks": 48480,
          "time": 60.59989899999999,
          "velocity": 0.8818897637795275
        },
        {
          "duration": 0.14874975208334007,
          "durationTicks": 119,
          "midi": 59,
          "name": "B3",
          "ticks": 48600,
          "time": 60.74989874999999,
          "velocity": 0.8818897637795275
        },
        {
          "duration": 0.14874975208334007,
          "durationTicks": 119,
          "midi": 62,
          "name": "D4",
          "ticks": 48720,
          "time": 60.89989849999999,
          "velocity": 0.8818897637795275
        },
        {
          "duration": 0.14874975208333296,
          "durationTicks": 119,
          "midi": 66,
          "name": "F#4",
          "ticks": 48840,
          "time": 61.04989825,
          "velocity": 0.8818897637795275
        },
        {
          "duration": 0.14874975208333296,
          "durationTicks": 119,
          "midi": 69,
          "name": "A4",
          "ticks": 48960,
          "time": 61.199898,
          "velocity": 0.8818897637795275
        },
        {
          "duration": 0.14874975208333296,
          "durationTicks": 119,
          "midi": 66,
          "name": "F#4",
          "ticks": 49080,
          "time": 61.34989775,
          "velocity": 0.8818897637795275
        },
        {
          "duration": 0.14874975208333296,
          "durationTicks": 119,
          "midi": 62,
          "name": "D4",
          "ticks": 49200,
          "time": 61.499897499999996,
          "velocity": 0.8818897637795275
        },
        {
          "duration": 0.14874975208333296,
          "durationTicks": 119,
          "midi": 59,
          "name": "B3",
          "ticks": 49320,
          "time": 61.649897249999995,
          "velocity": 0.8818897637795275
        },
        {
          "duration": 0.14874975208333296,
          "durationTicks": 119,
          "midi": 54,
          "name": "F#3",
          "ticks": 49440,
          "time": 61.799896999999994,
          "velocity": 0.8818897637795275
        },
        {
          "duration": 0.14874975208333296,
          "durationTicks": 119,
          "midi": 50,
          "name": "D3",
          "ticks": 49560,
          "time": 61.94989674999999,
          "velocity": 0.8818897637795275
        },
        {
          "duration": 0.14874975208333296,
          "durationTicks": 119,
          "midi": 45,
          "name": "A2",
          "ticks": 49680,
          "time": 62.09989649999999,
          "velocity": 0.8818897637795275
        },
        {
          "duration": 0.14874975208334007,
          "durationTicks": 119,
          "midi": 47,
          "name": "B2",
          "ticks": 49800,
          "time": 62.24989624999999,
          "velocity": 0.8818897637795275
        },
        {
          "duration": 0.14874975208333296,
          "durationTicks": 119,
          "midi": 50,
          "name": "D3",
          "ticks": 49920,
          "time": 62.399896,
          "velocity": 0.8818897637795275
        },
        {
          "duration": 0.14874975208333296,
          "durationTicks": 119,
          "midi": 55,
          "name": "G3",
          "ticks": 50040,
          "time": 62.54989575,
          "velocity": 0.8818897637795275
        },
        {
          "duration": 0.14874975208333296,
          "durationTicks": 119,
          "midi": 59,
          "name": "B3",
          "ticks": 50160,
          "time": 62.6998955,
          "velocity": 0.8818897637795275
        },
        {
          "duration": 0.14874975208333296,
          "durationTicks": 119,
          "midi": 62,
          "name": "D4",
          "ticks": 50280,
          "time": 62.849895249999996,
          "velocity": 0.8818897637795275
        },
        {
          "duration": 0.14874975208333296,
          "durationTicks": 119,
          "midi": 67,
          "name": "G4",
          "ticks": 50400,
          "time": 62.999894999999995,
          "velocity": 0.8818897637795275
        },
        {
          "duration": 0.14874975208333296,
          "durationTicks": 119,
          "midi": 62,
          "name": "D4",
          "ticks": 50520,
          "time": 63.149894749999994,
          "velocity": 0.8818897637795275
        },
        {
          "duration": 0.14874975208333296,
          "durationTicks": 119,
          "midi": 59,
          "name": "B3",
          "ticks": 50640,
          "time": 63.29989449999999,
          "velocity": 0.8818897637795275
        },
        {
          "duration": 0.14874975208333296,
          "durationTicks": 119,
          "midi": 55,
          "name": "G3",
          "ticks": 50760,
          "time": 63.44989424999999,
          "velocity": 0.8818897637795275
        },
        {
          "duration": 0.14874975208334007,
          "durationTicks": 119,
          "midi": 50,
          "name": "D3",
          "ticks": 50880,
          "time": 63.59989399999999,
          "velocity": 0.8818897637795275
        },
        {
          "duration": 0.14874975208334007,
          "durationTicks": 119,
          "midi": 47,
          "name": "B2",
          "ticks": 51000,
          "time": 63.74989374999999,
          "velocity": 0.8818897637795275
        },
        {
          "duration": 0.14874975208332586,
          "durationTicks": 119,
          "midi": 40,
          "name": "E2",
          "ticks": 51120,
          "time": 63.8998935,
          "velocity": 0.8818897637795275
        },
        {
          "duration": 0.14874975208333296,
          "durationTicks": 119,
          "midi": 43,
          "name": "G2",
          "ticks": 51240,
          "time": 64.04989325,
          "velocity": 0.8818897637795275
        },
        {
          "duration": 0.14874975208334718,
          "durationTicks": 119,
          "midi": 47,
          "name": "B2",
          "ticks": 51360,
          "time": 64.19989299999999,
          "velocity": 0.8818897637795275
        },
        {
          "duration": 0.14874975208333296,
          "durationTicks": 119,
          "midi": 52,
          "name": "E3",
          "ticks": 51480,
          "time": 64.34989275,
          "velocity": 0.8818897637795275
        },
        {
          "duration": 0.14874975208333296,
          "durationTicks": 119,
          "midi": 55,
          "name": "G3",
          "ticks": 51600,
          "time": 64.4998925,
          "velocity": 0.8818897637795275
        },
        {
          "duration": 0.14874975208333296,
          "durationTicks": 119,
          "midi": 59,
          "name": "B3",
          "ticks": 51720,
          "time": 64.64989225,
          "velocity": 0.8818897637795275
        },
        {
          "duration": 0.14874975208333296,
          "durationTicks": 119,
          "midi": 64,
          "name": "E4",
          "ticks": 51840,
          "time": 64.799892,
          "velocity": 0.8818897637795275
        },
        {
          "duration": 0.14874975208333296,
          "durationTicks": 119,
          "midi": 59,
          "name": "B3",
          "ticks": 51960,
          "time": 64.94989174999999,
          "velocity": 0.8818897637795275
        },
        {
          "duration": 0.14874975208333296,
          "durationTicks": 119,
          "midi": 55,
          "name": "G3",
          "ticks": 52080,
          "time": 65.0998915,
          "velocity": 0.8818897637795275
        },
        {
          "duration": 0.14874975208333296,
          "durationTicks": 119,
          "midi": 52,
          "name": "E3",
          "ticks": 52200,
          "time": 65.24989124999999,
          "velocity": 0.8818897637795275
        },
        {
          "duration": 0.14874975208333296,
          "durationTicks": 119,
          "midi": 47,
          "name": "B2",
          "ticks": 52320,
          "time": 65.399891,
          "velocity": 0.8818897637795275
        },
        {
          "duration": 0.14874975208334718,
          "durationTicks": 119,
          "midi": 43,
          "name": "G2",
          "ticks": 52440,
          "time": 65.54989074999999,
          "velocity": 0.8818897637795275
        },
        {
          "duration": 0.4487492520833314,
          "durationTicks": 359,
          "midi": 47,
          "name": "B2",
          "ticks": 52560,
          "time": 65.6998905,
          "velocity": 0.8818897637795275
        },
        {
          "duration": 0.4487492520833314,
          "durationTicks": 359,
          "midi": 50,
          "name": "D3",
          "ticks": 52560,
          "time": 65.6998905,
          "velocity": 0.8818897637795275
        },
        {
          "duration": 0.4487492520833314,
          "durationTicks": 359,
          "midi": 54,
          "name": "F#3",
          "ticks": 52560,
          "time": 65.6998905,
          "velocity": 0.8818897637795275
        },
        {
          "duration": 0.4487492520833314,
          "durationTicks": 359,
          "midi": 59,
          "name": "B3",
          "ticks": 52560,
          "time": 65.6998905,
          "velocity": 0.8818897637795275
        },
        {
          "duration": 0.4487492520833314,
          "durationTicks": 359,
          "midi": 47,
          "name": "B2",
          "ticks": 52920,
          "time": 66.14988975,
          "velocity": 0.8818897637795275
        },
        {
          "duration": 0.4487492520833314,
          "durationTicks": 359,
          "midi": 50,
          "name": "D3",
          "ticks": 52920,
          "time": 66.14988975,
          "velocity": 0.8818897637795275
        },
        {
          "duration": 0.4487492520833314,
          "durationTicks": 359,
          "midi": 54,
          "name": "F#3",
          "ticks": 52920,
          "time": 66.14988975,
          "velocity": 0.8818897637795275
        },
        {
          "duration": 0.4487492520833314,
          "durationTicks": 359,
          "midi": 59,
          "name": "B3",
          "ticks": 52920,
          "time": 66.14988975,
          "velocity": 0.8818897637795275
        },
        {
          "duration": 0.5987490020833377,
          "durationTicks": 479,
          "midi": 47,
          "name": "B2",
          "ticks": 53280,
          "time": 66.59988899999999,
          "velocity": 0.8818897637795275
        },
        {
          "duration": 0.5987490020833377,
          "durationTicks": 479,
          "midi": 50,
          "name": "D3",
          "ticks": 53280,
          "time": 66.59988899999999,
          "velocity": 0.8818897637795275
        },
        {
          "duration": 0.5987490020833377,
          "durationTicks": 479,
          "midi": 54,
          "name": "F#3",
          "ticks": 53280,
          "time": 66.59988899999999,
          "velocity": 0.8818897637795275
        },
        {
          "duration": 0.5987490020833377,
          "durationTicks": 479,
          "midi": 59,
          "name": "B3",
          "ticks": 53280,
          "time": 66.59988899999999,
          "velocity": 0.8818897637795275
        },
        {
          "duration": 0.2987495020833393,
          "durationTicks": 239,
          "midi": 47,
          "name": "B2",
          "ticks": 53760,
          "time": 67.19988799999999,
          "velocity": 0.8818897637795275
        },
        {
          "duration": 0.2987495020833393,
          "durationTicks": 239,
          "midi": 50,
          "name": "D3",
          "ticks": 53760,
          "time": 67.19988799999999,
          "velocity": 0.8818897637795275
        },
        {
          "duration": 0.2987495020833393,
          "durationTicks": 239,
          "midi": 54,
          "name": "F#3",
          "ticks": 53760,
          "time": 67.19988799999999,
          "velocity": 0.8818897637795275
        },
        {
          "duration": 0.2987495020833393,
          "durationTicks": 239,
          "midi": 59,
          "name": "B3",
          "ticks": 53760,
          "time": 67.19988799999999,
          "velocity": 0.8818897637795275
        },
        {
          "duration": 0.4487492520833314,
          "durationTicks": 359,
          "midi": 43,
          "name": "G2",
          "ticks": 54000,
          "time": 67.4998875,
          "velocity": 0.8818897637795275
        },
        {
          "duration": 0.4487492520833314,
          "durationTicks": 359,
          "midi": 47,
          "name": "B2",
          "ticks": 54000,
          "time": 67.4998875,
          "velocity": 0.8818897637795275
        },
        {
          "duration": 0.4487492520833314,
          "durationTicks": 359,
          "midi": 50,
          "name": "D3",
          "ticks": 54000,
          "time": 67.4998875,
          "velocity": 0.8818897637795275
        },
        {
          "duration": 0.4487492520833314,
          "durationTicks": 359,
          "midi": 55,
          "name": "G3",
          "ticks": 54000,
          "time": 67.4998875,
          "velocity": 0.8818897637795275
        },
        {
          "duration": 0.4487492520833314,
          "durationTicks": 359,
          "midi": 43,
          "name": "G2",
          "ticks": 54360,
          "time": 67.94988674999999,
          "velocity": 0.8818897637795275
        },
        {
          "duration": 0.4487492520833314,
          "durationTicks": 359,
          "midi": 47,
          "name": "B2",
          "ticks": 54360,
          "time": 67.94988674999999,
          "velocity": 0.8818897637795275
        },
        {
          "duration": 0.4487492520833314,
          "durationTicks": 359,
          "midi": 50,
          "name": "D3",
          "ticks": 54360,
          "time": 67.94988674999999,
          "velocity": 0.8818897637795275
        },
        {
          "duration": 0.4487492520833314,
          "durationTicks": 359,
          "midi": 55,
          "name": "G3",
          "ticks": 54360,
          "time": 67.94988674999999,
          "velocity": 0.8818897637795275
        },
        {
          "duration": 0.5987490020833377,
          "durationTicks": 479,
          "midi": 43,
          "name": "G2",
          "ticks": 54720,
          "time": 68.399886,
          "velocity": 0.8818897637795275
        },
        {
          "duration": 0.5987490020833377,
          "durationTicks": 479,
          "midi": 47,
          "name": "B2",
          "ticks": 54720,
          "time": 68.399886,
          "velocity": 0.8818897637795275
        },
        {
          "duration": 0.5987490020833377,
          "durationTicks": 479,
          "midi": 50,
          "name": "D3",
          "ticks": 54720,
          "time": 68.399886,
          "velocity": 0.8818897637795275
        },
        {
          "duration": 0.5987490020833377,
          "durationTicks": 479,
          "midi": 55,
          "name": "G3",
          "ticks": 54720,
          "time": 68.399886,
          "velocity": 0.8818897637795275
        },
        {
          "duration": 0.2987495020833393,
          "durationTicks": 239,
          "midi": 43,
          "name": "G2",
          "ticks": 55200,
          "time": 68.99988499999999,
          "velocity": 0.8818897637795275
        },
        {
          "duration": 0.2987495020833393,
          "durationTicks": 239,
          "midi": 47,
          "name": "B2",
          "ticks": 55200,
          "time": 68.99988499999999,
          "velocity": 0.8818897637795275
        },
        {
          "duration": 0.2987495020833393,
          "durationTicks": 239,
          "midi": 50,
          "name": "D3",
          "ticks": 55200,
          "time": 68.99988499999999,
          "velocity": 0.8818897637795275
        },
        {
          "duration": 0.2987495020833393,
          "durationTicks": 239,
          "midi": 55,
          "name": "G3",
          "ticks": 55200,
          "time": 68.99988499999999,
          "velocity": 0.8818897637795275
        },
        {
          "duration": 0.4487492520833314,
          "durationTicks": 359,
          "midi": 40,
          "name": "E2",
          "ticks": 55440,
          "time": 69.29988449999999,
          "velocity": 0.8818897637795275
        },
        {
          "duration": 0.4487492520833314,
          "durationTicks": 359,
          "midi": 43,
          "name": "G2",
          "ticks": 55440,
          "time": 69.29988449999999,
          "velocity": 0.8818897637795275
        },
        {
          "duration": 0.4487492520833314,
          "durationTicks": 359,
          "midi": 47,
          "name": "B2",
          "ticks": 55440,
          "time": 69.29988449999999,
          "velocity": 0.8818897637795275
        },
        {
          "duration": 0.14874975208333296,
          "durationTicks": 119,
          "midi": 40,
          "name": "E2",
          "ticks": 55800,
          "time": 69.74988375,
          "velocity": 0.8818897637795275
        },
        {
          "duration": 0.14874975208333296,
          "durationTicks": 119,
          "midi": 43,
          "name": "G2",
          "ticks": 55800,
          "time": 69.74988375,
          "velocity": 0.8818897637795275
        },
        {
          "duration": 0.14874975208333296,
          "durationTicks": 119,
          "midi": 47,
          "name": "B2",
          "ticks": 55800,
          "time": 69.74988375,
          "velocity": 0.8818897637795275
        },
        {
          "duration": 0.2987495020833393,
          "durationTicks": 239,
          "midi": 40,
          "name": "E2",
          "ticks": 55920,
          "time": 69.89988349999999,
          "velocity": 0.8818897637795275
        },
        {
          "duration": 0.2987495020833393,
          "durationTicks": 239,
          "midi": 43,
          "name": "G2",
          "ticks": 55920,
          "time": 69.89988349999999,
          "velocity": 0.8818897637795275
        },
        {
          "duration": 0.2987495020833393,
          "durationTicks": 239,
          "midi": 47,
          "name": "B2",
          "ticks": 55920,
          "time": 69.89988349999999,
          "velocity": 0.8818897637795275
        },
        {
          "duration": 0.29874950208332507,
          "durationTicks": 239,
          "midi": 40,
          "name": "E2",
          "ticks": 56160,
          "time": 70.199883,
          "velocity": 0.8818897637795275
        },
        {
          "duration": 0.29874950208332507,
          "durationTicks": 239,
          "midi": 43,
          "name": "G2",
          "ticks": 56160,
          "time": 70.199883,
          "velocity": 0.8818897637795275
        },
        {
          "duration": 0.29874950208332507,
          "durationTicks": 239,
          "midi": 47,
          "name": "B2",
          "ticks": 56160,
          "time": 70.199883,
          "velocity": 0.8818897637795275
        },
        {
          "duration": 0.29874950208332507,
          "durationTicks": 239,
          "midi": 40,
          "name": "E2",
          "ticks": 56400,
          "time": 70.4998825,
          "velocity": 0.8818897637795275
        },
        {
          "duration": 0.29874950208332507,
          "durationTicks": 239,
          "midi": 43,
          "name": "G2",
          "ticks": 56400,
          "time": 70.4998825,
          "velocity": 0.8818897637795275
        },
        {
          "duration": 0.29874950208332507,
          "durationTicks": 239,
          "midi": 47,
          "name": "B2",
          "ticks": 56400,
          "time": 70.4998825,
          "velocity": 0.8818897637795275
        },
        {
          "duration": 0.29874950208332507,
          "durationTicks": 239,
          "midi": 40,
          "name": "E2",
          "ticks": 56640,
          "time": 70.799882,
          "velocity": 0.8818897637795275
        },
        {
          "duration": 0.29874950208332507,
          "durationTicks": 239,
          "midi": 43,
          "name": "G2",
          "ticks": 56640,
          "time": 70.799882,
          "velocity": 0.8818897637795275
        },
        {
          "duration": 0.29874950208332507,
          "durationTicks": 239,
          "midi": 47,
          "name": "B2",
          "ticks": 56640,
          "time": 70.799882,
          "velocity": 0.8818897637795275
        },
        {
          "duration": 0.4487492520833314,
          "durationTicks": 359,
          "midi": 33,
          "name": "A1",
          "ticks": 56880,
          "time": 71.0998815,
          "velocity": 0.8818897637795275
        },
        {
          "duration": 0.4487492520833314,
          "durationTicks": 359,
          "midi": 37,
          "name": "C#2",
          "ticks": 56880,
          "time": 71.0998815,
          "velocity": 0.8818897637795275
        },
        {
          "duration": 0.4487492520833314,
          "durationTicks": 359,
          "midi": 40,
          "name": "E2",
          "ticks": 56880,
          "time": 71.0998815,
          "velocity": 0.8818897637795275
        },
        {
          "duration": 0.4487492520833314,
          "durationTicks": 359,
          "midi": 45,
          "name": "A2",
          "ticks": 56880,
          "time": 71.0998815,
          "velocity": 0.8818897637795275
        },
        {
          "duration": 0.14874975208333296,
          "durationTicks": 119,
          "midi": 33,
          "name": "A1",
          "ticks": 57240,
          "time": 71.54988075,
          "velocity": 0.8818897637795275
        },
        {
          "duration": 0.14874975208333296,
          "durationTicks": 119,
          "midi": 37,
          "name": "C#2",
          "ticks": 57240,
          "time": 71.54988075,
          "velocity": 0.8818897637795275
        },
        {
          "duration": 0.14874975208333296,
          "durationTicks": 119,
          "midi": 40,
          "name": "E2",
          "ticks": 57240,
          "time": 71.54988075,
          "velocity": 0.8818897637795275
        },
        {
          "duration": 0.14874975208333296,
          "durationTicks": 119,
          "midi": 45,
          "name": "A2",
          "ticks": 57240,
          "time": 71.54988075,
          "velocity": 0.8818897637795275
        },
        {
          "duration": 0.2987495020833393,
          "durationTicks": 239,
          "midi": 33,
          "name": "A1",
          "ticks": 57360,
          "time": 71.69988049999999,
          "velocity": 0.8818897637795275
        },
        {
          "duration": 0.2987495020833393,
          "durationTicks": 239,
          "midi": 37,
          "name": "C#2",
          "ticks": 57360,
          "time": 71.69988049999999,
          "velocity": 0.8818897637795275
        },
        {
          "duration": 0.2987495020833393,
          "durationTicks": 239,
          "midi": 40,
          "name": "E2",
          "ticks": 57360,
          "time": 71.69988049999999,
          "velocity": 0.8818897637795275
        },
        {
          "duration": 0.2987495020833393,
          "durationTicks": 239,
          "midi": 45,
          "name": "A2",
          "ticks": 57360,
          "time": 71.69988049999999,
          "velocity": 0.8818897637795275
        },
        {
          "duration": 0.2987495020833393,
          "durationTicks": 239,
          "midi": 33,
          "name": "A1",
          "ticks": 57600,
          "time": 71.99987999999999,
          "velocity": 0.8818897637795275
        },
        {
          "duration": 0.2987495020833393,
          "durationTicks": 239,
          "midi": 37,
          "name": "C#2",
          "ticks": 57600,
          "time": 71.99987999999999,
          "velocity": 0.8818897637795275
        },
        {
          "duration": 0.2987495020833393,
          "durationTicks": 239,
          "midi": 40,
          "name": "E2",
          "ticks": 57600,
          "time": 71.99987999999999,
          "velocity": 0.8818897637795275
        },
        {
          "duration": 0.2987495020833393,
          "durationTicks": 239,
          "midi": 45,
          "name": "A2",
          "ticks": 57600,
          "time": 71.99987999999999,
          "velocity": 0.8818897637795275
        },
        {
          "duration": 0.2987495020833393,
          "durationTicks": 239,
          "midi": 33,
          "name": "A1",
          "ticks": 57840,
          "time": 72.29987949999999,
          "velocity": 0.8818897637795275
        },
        {
          "duration": 0.2987495020833393,
          "durationTicks": 239,
          "midi": 37,
          "name": "C#2",
          "ticks": 57840,
          "time": 72.29987949999999,
          "velocity": 0.8818897637795275
        },
        {
          "duration": 0.2987495020833393,
          "durationTicks": 239,
          "midi": 40,
          "name": "E2",
          "ticks": 57840,
          "time": 72.29987949999999,
          "velocity": 0.8818897637795275
        },
        {
          "duration": 0.2987495020833393,
          "durationTicks": 239,
          "midi": 45,
          "name": "A2",
          "ticks": 57840,
          "time": 72.29987949999999,
          "velocity": 0.8818897637795275
        },
        {
          "duration": 0.2987495020833393,
          "durationTicks": 239,
          "midi": 33,
          "name": "A1",
          "ticks": 58080,
          "time": 72.59987899999999,
          "velocity": 0.8818897637795275
        },
        {
          "duration": 0.2987495020833393,
          "durationTicks": 239,
          "midi": 37,
          "name": "C#2",
          "ticks": 58080,
          "time": 72.59987899999999,
          "velocity": 0.8818897637795275
        },
        {
          "duration": 0.2987495020833393,
          "durationTicks": 239,
          "midi": 40,
          "name": "E2",
          "ticks": 58080,
          "time": 72.59987899999999,
          "velocity": 0.8818897637795275
        },
        {
          "duration": 0.2987495020833393,
          "durationTicks": 239,
          "midi": 45,
          "name": "A2",
          "ticks": 58080,
          "time": 72.59987899999999,
          "velocity": 0.8818897637795275
        },
        {
          "duration": 0.29874950208332507,
          "durationTicks": 239,
          "midi": 47,
          "name": "B2",
          "ticks": 58320,
          "time": 72.8998785,
          "velocity": 0.8818897637795275
        },
        {
          "duration": 0.29874950208332507,
          "durationTicks": 239,
          "midi": 50,
          "name": "D3",
          "ticks": 58320,
          "time": 72.8998785,
          "velocity": 0.8818897637795275
        },
        {
          "duration": 0.29874950208332507,
          "durationTicks": 239,
          "midi": 54,
          "name": "F#3",
          "ticks": 58320,
          "time": 72.8998785,
          "velocity": 0.8818897637795275
        },
        {
          "duration": 0.29874950208332507,
          "durationTicks": 239,
          "midi": 59,
          "name": "B3",
          "ticks": 58320,
          "time": 72.8998785,
          "velocity": 0.8818897637795275
        },
        {
          "duration": 0.5987490020833235,
          "durationTicks": 479,
          "midi": 35,
          "name": "B1",
          "ticks": 58560,
          "time": 73.199878,
          "velocity": 0.8818897637795275
        },
        {
          "duration": 0.5987490020833235,
          "durationTicks": 479,
          "midi": 47,
          "name": "B2",
          "ticks": 58560,
          "time": 73.199878,
          "velocity": 0.8818897637795275
        },
        {
          "duration": 0.2987495020833393,
          "durationTicks": 239,
          "midi": 47,
          "name": "B2",
          "ticks": 59040,
          "time": 73.799877,
          "velocity": 0.8818897637795275
        },
        {
          "duration": 0.2987495020833393,
          "durationTicks": 239,
          "midi": 50,
          "name": "D3",
          "ticks": 59040,
          "time": 73.799877,
          "velocity": 0.8818897637795275
        },
        {
          "duration": 0.2987495020833393,
          "durationTicks": 239,
          "midi": 54,
          "name": "F#3",
          "ticks": 59040,
          "time": 73.799877,
          "velocity": 0.8818897637795275
        },
        {
          "duration": 0.2987495020833393,
          "durationTicks": 239,
          "midi": 59,
          "name": "B3",
          "ticks": 59040,
          "time": 73.799877,
          "velocity": 0.8818897637795275
        },
        {
          "duration": 0.5987490020833377,
          "durationTicks": 479,
          "midi": 35,
          "name": "B1",
          "ticks": 59280,
          "time": 74.0998765,
          "velocity": 0.8818897637795275
        },
        {
          "duration": 0.5987490020833377,
          "durationTicks": 479,
          "midi": 47,
          "name": "B2",
          "ticks": 59280,
          "time": 74.0998765,
          "velocity": 0.8818897637795275
        },
        {
          "duration": 0.2987495020833393,
          "durationTicks": 239,
          "midi": 45,
          "name": "A2",
          "ticks": 59760,
          "time": 74.69987549999999,
          "velocity": 0.8818897637795275
        },
        {
          "duration": 0.2987495020833393,
          "durationTicks": 239,
          "midi": 49,
          "name": "C#3",
          "ticks": 59760,
          "time": 74.69987549999999,
          "velocity": 0.8818897637795275
        },
        {
          "duration": 0.2987495020833393,
          "durationTicks": 239,
          "midi": 52,
          "name": "E3",
          "ticks": 59760,
          "time": 74.69987549999999,
          "velocity": 0.8818897637795275
        },
        {
          "duration": 0.2987495020833393,
          "durationTicks": 239,
          "midi": 57,
          "name": "A3",
          "ticks": 59760,
          "time": 74.69987549999999,
          "velocity": 0.8818897637795275
        },
        {
          "duration": 0.5987490020833377,
          "durationTicks": 479,
          "midi": 33,
          "name": "A1",
          "ticks": 60000,
          "time": 74.99987499999999,
          "velocity": 0.8818897637795275
        },
        {
          "duration": 0.5987490020833377,
          "durationTicks": 479,
          "midi": 45,
          "name": "A2",
          "ticks": 60000,
          "time": 74.99987499999999,
          "velocity": 0.8818897637795275
        },
        {
          "duration": 0.29874950208332507,
          "durationTicks": 239,
          "midi": 47,
          "name": "B2",
          "ticks": 60480,
          "time": 75.599874,
          "velocity": 0.8818897637795275
        },
        {
          "duration": 0.29874950208332507,
          "durationTicks": 239,
          "midi": 50,
          "name": "D3",
          "ticks": 60480,
          "time": 75.599874,
          "velocity": 0.8818897637795275
        },
        {
          "duration": 0.29874950208332507,
          "durationTicks": 239,
          "midi": 54,
          "name": "F#3",
          "ticks": 60480,
          "time": 75.599874,
          "velocity": 0.8818897637795275
        },
        {
          "duration": 0.5987490020833235,
          "durationTicks": 479,
          "midi": 35,
          "name": "B1",
          "ticks": 60720,
          "time": 75.8998735,
          "velocity": 0.8818897637795275
        },
        {
          "duration": 0.5987490020833235,
          "durationTicks": 479,
          "midi": 47,
          "name": "B2",
          "ticks": 60720,
          "time": 75.8998735,
          "velocity": 0.8818897637795275
        },
        {
          "duration": 0.2987495020833393,
          "durationTicks": 239,
          "midi": 43,
          "name": "G2",
          "ticks": 61200,
          "time": 76.4998725,
          "velocity": 0.8818897637795275
        },
        {
          "duration": 0.2987495020833393,
          "durationTicks": 239,
          "midi": 47,
          "name": "B2",
          "ticks": 61200,
          "time": 76.4998725,
          "velocity": 0.8818897637795275
        },
        {
          "duration": 0.2987495020833393,
          "durationTicks": 239,
          "midi": 50,
          "name": "D3",
          "ticks": 61200,
          "time": 76.4998725,
          "velocity": 0.8818897637795275
        },
        {
          "duration": 0.2987495020833393,
          "durationTicks": 239,
          "midi": 55,
          "name": "G3",
          "ticks": 61200,
          "time": 76.4998725,
          "velocity": 0.8818897637795275
        },
        {
          "duration": 0.5987490020833377,
          "durationTicks": 479,
          "midi": 31,
          "name": "G1",
          "ticks": 61440,
          "time": 76.799872,
          "velocity": 0.8818897637795275
        },
        {
          "duration": 0.5987490020833377,
          "durationTicks": 479,
          "midi": 43,
          "name": "G2",
          "ticks": 61440,
          "time": 76.799872,
          "velocity": 0.8818897637795275
        },
        {
          "duration": 0.2987495020833393,
          "durationTicks": 239,
          "midi": 40,
          "name": "E2",
          "ticks": 61920,
          "time": 77.39987099999999,
          "velocity": 0.8818897637795275
        },
        {
          "duration": 0.2987495020833393,
          "durationTicks": 239,
          "midi": 43,
          "name": "G2",
          "ticks": 61920,
          "time": 77.39987099999999,
          "velocity": 0.8818897637795275
        },
        {
          "duration": 0.2987495020833393,
          "durationTicks": 239,
          "midi": 47,
          "name": "B2",
          "ticks": 61920,
          "time": 77.39987099999999,
          "velocity": 0.8818897637795275
        },
        {
          "duration": 0.2987495020833393,
          "durationTicks": 239,
          "midi": 52,
          "name": "E3",
          "ticks": 61920,
          "time": 77.39987099999999,
          "velocity": 0.8818897637795275
        },
        {
          "duration": 0.5987490020833377,
          "durationTicks": 479,
          "midi": 28,
          "name": "E1",
          "ticks": 62160,
          "time": 77.69987049999999,
          "velocity": 0.8818897637795275
        },
        {
          "duration": 0.5987490020833377,
          "durationTicks": 479,
          "midi": 40,
          "name": "E2",
          "ticks": 62160,
          "time": 77.69987049999999,
          "velocity": 0.8818897637795275
        },
        {
          "duration": 0.29874950208332507,
          "durationTicks": 239,
          "midi": 45,
          "name": "A2",
          "ticks": 62640,
          "time": 78.2998695,
          "velocity": 0.8818897637795275
        },
        {
          "duration": 0.29874950208332507,
          "durationTicks": 239,
          "midi": 49,
          "name": "C#3",
          "ticks": 62640,
          "time": 78.2998695,
          "velocity": 0.8818897637795275
        },
        {
          "duration": 0.29874950208332507,
          "durationTicks": 239,
          "midi": 52,
          "name": "E3",
          "ticks": 62640,
          "time": 78.2998695,
          "velocity": 0.8818897637795275
        },
        {
          "duration": 0.29874950208332507,
          "durationTicks": 239,
          "midi": 57,
          "name": "A3",
          "ticks": 62640,
          "time": 78.2998695,
          "velocity": 0.8818897637795275
        },
        {
          "duration": 0.5987490020833235,
          "durationTicks": 479,
          "midi": 33,
          "name": "A1",
          "ticks": 62880,
          "time": 78.599869,
          "velocity": 0.8818897637795275
        },
        {
          "duration": 0.5987490020833235,
          "durationTicks": 479,
          "midi": 45,
          "name": "A2",
          "ticks": 62880,
          "time": 78.599869,
          "velocity": 0.8818897637795275
        },
        {
          "duration": 0.2987495020833393,
          "durationTicks": 239,
          "midi": 47,
          "name": "B2",
          "ticks": 63360,
          "time": 79.199868,
          "velocity": 0.8818897637795275
        },
        {
          "duration": 0.2987495020833393,
          "durationTicks": 239,
          "midi": 50,
          "name": "D3",
          "ticks": 63360,
          "time": 79.199868,
          "velocity": 0.8818897637795275
        },
        {
          "duration": 0.2987495020833393,
          "durationTicks": 239,
          "midi": 54,
          "name": "F#3",
          "ticks": 63360,
          "time": 79.199868,
          "velocity": 0.8818897637795275
        },
        {
          "duration": 0.5987490020833377,
          "durationTicks": 479,
          "midi": 35,
          "name": "B1",
          "ticks": 63600,
          "time": 79.4998675,
          "velocity": 0.8818897637795275
        },
        {
          "duration": 0.5987490020833377,
          "durationTicks": 479,
          "midi": 47,
          "name": "B2",
          "ticks": 63600,
          "time": 79.4998675,
          "velocity": 0.8818897637795275
        },
        {
          "duration": 0.2987495020833393,
          "durationTicks": 239,
          "midi": 47,
          "name": "B2",
          "ticks": 64080,
          "time": 80.09986649999999,
          "velocity": 0.8818897637795275
        },
        {
          "duration": 0.2987495020833393,
          "durationTicks": 239,
          "midi": 50,
          "name": "D3",
          "ticks": 64080,
          "time": 80.09986649999999,
          "velocity": 0.8818897637795275
        },
        {
          "duration": 0.2987495020833393,
          "durationTicks": 239,
          "midi": 54,
          "name": "F#3",
          "ticks": 64080,
          "time": 80.09986649999999,
          "velocity": 0.8818897637795275
        },
        {
          "duration": 0.2987495020833393,
          "durationTicks": 239,
          "midi": 59,
          "name": "B3",
          "ticks": 64080,
          "time": 80.09986649999999,
          "velocity": 0.8818897637795275
        },
        {
          "duration": 0.5987490020833377,
          "durationTicks": 479,
          "midi": 35,
          "name": "B1",
          "ticks": 64320,
          "time": 80.39986599999999,
          "velocity": 0.8818897637795275
        },
        {
          "duration": 0.5987490020833377,
          "durationTicks": 479,
          "midi": 47,
          "name": "B2",
          "ticks": 64320,
          "time": 80.39986599999999,
          "velocity": 0.8818897637795275
        },
        {
          "duration": 0.29874950208332507,
          "durationTicks": 239,
          "midi": 43,
          "name": "G2",
          "ticks": 64800,
          "time": 80.999865,
          "velocity": 0.8818897637795275
        },
        {
          "duration": 0.29874950208332507,
          "durationTicks": 239,
          "midi": 47,
          "name": "B2",
          "ticks": 64800,
          "time": 80.999865,
          "velocity": 0.8818897637795275
        },
        {
          "duration": 0.29874950208332507,
          "durationTicks": 239,
          "midi": 50,
          "name": "D3",
          "ticks": 64800,
          "time": 80.999865,
          "velocity": 0.8818897637795275
        },
        {
          "duration": 0.29874950208332507,
          "durationTicks": 239,
          "midi": 55,
          "name": "G3",
          "ticks": 64800,
          "time": 80.999865,
          "velocity": 0.8818897637795275
        },
        {
          "duration": 0.5987490020833235,
          "durationTicks": 479,
          "midi": 31,
          "name": "G1",
          "ticks": 65040,
          "time": 81.2998645,
          "velocity": 0.8818897637795275
        },
        {
          "duration": 0.5987490020833235,
          "durationTicks": 479,
          "midi": 43,
          "name": "G2",
          "ticks": 65040,
          "time": 81.2998645,
          "velocity": 0.8818897637795275
        },
        {
          "duration": 0.2987495020833393,
          "durationTicks": 239,
          "midi": 45,
          "name": "A2",
          "ticks": 65520,
          "time": 81.8998635,
          "velocity": 0.8818897637795275
        },
        {
          "duration": 0.2987495020833393,
          "durationTicks": 239,
          "midi": 49,
          "name": "C#3",
          "ticks": 65520,
          "time": 81.8998635,
          "velocity": 0.8818897637795275
        },
        {
          "duration": 0.2987495020833393,
          "durationTicks": 239,
          "midi": 52,
          "name": "E3",
          "ticks": 65520,
          "time": 81.8998635,
          "velocity": 0.8818897637795275
        },
        {
          "duration": 0.2987495020833393,
          "durationTicks": 239,
          "midi": 57,
          "name": "A3",
          "ticks": 65520,
          "time": 81.8998635,
          "velocity": 0.8818897637795275
        },
        {
          "duration": 0.5987490020833377,
          "durationTicks": 479,
          "midi": 33,
          "name": "A1",
          "ticks": 65760,
          "time": 82.199863,
          "velocity": 0.8818897637795275
        },
        {
          "duration": 0.5987490020833377,
          "durationTicks": 479,
          "midi": 45,
          "name": "A2",
          "ticks": 65760,
          "time": 82.199863,
          "velocity": 0.8818897637795275
        },
        {
          "duration": 0.2987495020833393,
          "durationTicks": 239,
          "midi": 47,
          "name": "B2",
          "ticks": 66240,
          "time": 82.79986199999999,
          "velocity": 0.8818897637795275
        },
        {
          "duration": 0.2987495020833393,
          "durationTicks": 239,
          "midi": 50,
          "name": "D3",
          "ticks": 66240,
          "time": 82.79986199999999,
          "velocity": 0.8818897637795275
        },
        {
          "duration": 0.2987495020833393,
          "durationTicks": 239,
          "midi": 54,
          "name": "F#3",
          "ticks": 66240,
          "time": 82.79986199999999,
          "velocity": 0.8818897637795275
        },
        {
          "duration": 0.5987490020833377,
          "durationTicks": 479,
          "midi": 35,
          "name": "B1",
          "ticks": 66480,
          "time": 83.09986149999999,
          "velocity": 0.8818897637795275
        },
        {
          "duration": 0.5987490020833377,
          "durationTicks": 479,
          "midi": 47,
          "name": "B2",
          "ticks": 66480,
          "time": 83.09986149999999,
          "velocity": 0.8818897637795275
        },
        {
          "duration": 0.29874950208332507,
          "durationTicks": 239,
          "midi": 43,
          "name": "G2",
          "ticks": 66960,
          "time": 83.6998605,
          "velocity": 0.8818897637795275
        },
        {
          "duration": 0.29874950208332507,
          "durationTicks": 239,
          "midi": 47,
          "name": "B2",
          "ticks": 66960,
          "time": 83.6998605,
          "velocity": 0.8818897637795275
        },
        {
          "duration": 0.29874950208332507,
          "durationTicks": 239,
          "midi": 50,
          "name": "D3",
          "ticks": 66960,
          "time": 83.6998605,
          "velocity": 0.8818897637795275
        },
        {
          "duration": 0.29874950208332507,
          "durationTicks": 239,
          "midi": 55,
          "name": "G3",
          "ticks": 66960,
          "time": 83.6998605,
          "velocity": 0.8818897637795275
        },
        {
          "duration": 0.5987490020833235,
          "durationTicks": 479,
          "midi": 31,
          "name": "G1",
          "ticks": 67200,
          "time": 83.99986,
          "velocity": 0.8818897637795275
        },
        {
          "duration": 0.5987490020833235,
          "durationTicks": 479,
          "midi": 43,
          "name": "G2",
          "ticks": 67200,
          "time": 83.99986,
          "velocity": 0.8818897637795275
        },
        {
          "duration": 0.2987495020833393,
          "durationTicks": 239,
          "midi": 40,
          "name": "E2",
          "ticks": 67680,
          "time": 84.599859,
          "velocity": 0.8818897637795275
        },
        {
          "duration": 0.2987495020833393,
          "durationTicks": 239,
          "midi": 43,
          "name": "G2",
          "ticks": 67680,
          "time": 84.599859,
          "velocity": 0.8818897637795275
        },
        {
          "duration": 0.2987495020833393,
          "durationTicks": 239,
          "midi": 47,
          "name": "B2",
          "ticks": 67680,
          "time": 84.599859,
          "velocity": 0.8818897637795275
        },
        {
          "duration": 0.2987495020833393,
          "durationTicks": 239,
          "midi": 52,
          "name": "E3",
          "ticks": 67680,
          "time": 84.599859,
          "velocity": 0.8818897637795275
        },
        {
          "duration": 0.5987490020833377,
          "durationTicks": 479,
          "midi": 28,
          "name": "E1",
          "ticks": 67920,
          "time": 84.8998585,
          "velocity": 0.8818897637795275
        },
        {
          "duration": 0.5987490020833377,
          "durationTicks": 479,
          "midi": 40,
          "name": "E2",
          "ticks": 67920,
          "time": 84.8998585,
          "velocity": 0.8818897637795275
        },
        {
          "duration": 0.2987495020833393,
          "durationTicks": 239,
          "midi": 45,
          "name": "A2",
          "ticks": 68400,
          "time": 85.49985749999999,
          "velocity": 0.8818897637795275
        },
        {
          "duration": 0.2987495020833393,
          "durationTicks": 239,
          "midi": 49,
          "name": "C#3",
          "ticks": 68400,
          "time": 85.49985749999999,
          "velocity": 0.8818897637795275
        },
        {
          "duration": 0.2987495020833393,
          "durationTicks": 239,
          "midi": 52,
          "name": "E3",
          "ticks": 68400,
          "time": 85.49985749999999,
          "velocity": 0.8818897637795275
        },
        {
          "duration": 0.2987495020833393,
          "durationTicks": 239,
          "midi": 57,
          "name": "A3",
          "ticks": 68400,
          "time": 85.49985749999999,
          "velocity": 0.8818897637795275
        },
        {
          "duration": 0.5987490020833377,
          "durationTicks": 479,
          "midi": 33,
          "name": "A1",
          "ticks": 68640,
          "time": 85.79985699999999,
          "velocity": 0.8818897637795275
        },
        {
          "duration": 0.5987490020833377,
          "durationTicks": 479,
          "midi": 45,
          "name": "A2",
          "ticks": 68640,
          "time": 85.79985699999999,
          "velocity": 0.8818897637795275
        },
        {
          "duration": 0.5987490020833235,
          "durationTicks": 479,
          "midi": 47,
          "name": "B2",
          "ticks": 69120,
          "time": 86.399856,
          "velocity": 0.8818897637795275
        },
        {
          "duration": 0.5987490020833235,
          "durationTicks": 479,
          "midi": 50,
          "name": "D3",
          "ticks": 69120,
          "time": 86.399856,
          "velocity": 0.8818897637795275
        },
        {
          "duration": 0.5987490020833235,
          "durationTicks": 479,
          "midi": 54,
          "name": "F#3",
          "ticks": 69120,
          "time": 86.399856,
          "velocity": 0.8818897637795275
        },
        {
          "duration": 0.5987490020833235,
          "durationTicks": 479,
          "midi": 59,
          "name": "B3",
          "ticks": 69120,
          "time": 86.399856,
          "velocity": 0.8818897637795275
        },
        {
          "duration": 0.29874950208332507,
          "durationTicks": 239,
          "midi": 47,
          "name": "B2",
          "ticks": 69600,
          "time": 86.999855,
          "velocity": 0.8818897637795275
        },
        {
          "duration": 0.29874950208332507,
          "durationTicks": 239,
          "midi": 50,
          "name": "D3",
          "ticks": 69600,
          "time": 86.999855,
          "velocity": 0.8818897637795275
        },
        {
          "duration": 0.29874950208332507,
          "durationTicks": 239,
          "midi": 54,
          "name": "F#3",
          "ticks": 69600,
          "time": 86.999855,
          "velocity": 0.8818897637795275
        },
        {
          "duration": 0.29874950208332507,
          "durationTicks": 239,
          "midi": 59,
          "name": "B3",
          "ticks": 69600,
          "time": 86.999855,
          "velocity": 0.8818897637795275
        },
        {
          "duration": 0.5987490020833377,
          "durationTicks": 479,
          "midi": 47,
          "name": "B2",
          "ticks": 69840,
          "time": 87.2998545,
          "velocity": 0.8818897637795275
        },
        {
          "duration": 0.5987490020833377,
          "durationTicks": 479,
          "midi": 50,
          "name": "D3",
          "ticks": 69840,
          "time": 87.2998545,
          "velocity": 0.8818897637795275
        },
        {
          "duration": 0.5987490020833377,
          "durationTicks": 479,
          "midi": 54,
          "name": "F#3",
          "ticks": 69840,
          "time": 87.2998545,
          "velocity": 0.8818897637795275
        },
        {
          "duration": 0.5987490020833377,
          "durationTicks": 479,
          "midi": 59,
          "name": "B3",
          "ticks": 69840,
          "time": 87.2998545,
          "velocity": 0.8818897637795275
        },
        {
          "duration": 0.2987495020833393,
          "durationTicks": 239,
          "midi": 47,
          "name": "B2",
          "ticks": 70320,
          "time": 87.89985349999999,
          "velocity": 0.8818897637795275
        },
        {
          "duration": 0.2987495020833393,
          "durationTicks": 239,
          "midi": 50,
          "name": "D3",
          "ticks": 70320,
          "time": 87.89985349999999,
          "velocity": 0.8818897637795275
        },
        {
          "duration": 0.2987495020833393,
          "durationTicks": 239,
          "midi": 54,
          "name": "F#3",
          "ticks": 70320,
          "time": 87.89985349999999,
          "velocity": 0.8818897637795275
        },
        {
          "duration": 0.2987495020833393,
          "durationTicks": 239,
          "midi": 59,
          "name": "B3",
          "ticks": 70320,
          "time": 87.89985349999999,
          "velocity": 0.8818897637795275
        },
        {
          "duration": 0.5987490020833377,
          "durationTicks": 479,
          "midi": 47,
          "name": "B2",
          "ticks": 70560,
          "time": 88.19985299999999,
          "velocity": 0.8818897637795275
        },
        {
          "duration": 0.5987490020833377,
          "durationTicks": 479,
          "midi": 50,
          "name": "D3",
          "ticks": 70560,
          "time": 88.19985299999999,
          "velocity": 0.8818897637795275
        },
        {
          "duration": 0.5987490020833377,
          "durationTicks": 479,
          "midi": 54,
          "name": "F#3",
          "ticks": 70560,
          "time": 88.19985299999999,
          "velocity": 0.8818897637795275
        },
        {
          "duration": 0.5987490020833377,
          "durationTicks": 479,
          "midi": 59,
          "name": "B3",
          "ticks": 70560,
          "time": 88.19985299999999,
          "velocity": 0.8818897637795275
        },
        {
          "duration": 0.2987495020833393,
          "durationTicks": 239,
          "midi": 47,
          "name": "B2",
          "ticks": 71040,
          "time": 88.79985199999999,
          "velocity": 0.8818897637795275
        },
        {
          "duration": 0.2987495020833393,
          "durationTicks": 239,
          "midi": 50,
          "name": "D3",
          "ticks": 71040,
          "time": 88.79985199999999,
          "velocity": 0.8818897637795275
        },
        {
          "duration": 0.2987495020833393,
          "durationTicks": 239,
          "midi": 54,
          "name": "F#3",
          "ticks": 71040,
          "time": 88.79985199999999,
          "velocity": 0.8818897637795275
        },
        {
          "duration": 0.2987495020833393,
          "durationTicks": 239,
          "midi": 59,
          "name": "B3",
          "ticks": 71040,
          "time": 88.79985199999999,
          "velocity": 0.8818897637795275
        },
        {
          "duration": 0.5987490020833377,
          "durationTicks": 479,
          "midi": 43,
          "name": "G2",
          "ticks": 71280,
          "time": 89.09985149999999,
          "velocity": 0.8818897637795275
        },
        {
          "duration": 0.5987490020833377,
          "durationTicks": 479,
          "midi": 47,
          "name": "B2",
          "ticks": 71280,
          "time": 89.09985149999999,
          "velocity": 0.8818897637795275
        },
        {
          "duration": 0.5987490020833377,
          "durationTicks": 479,
          "midi": 50,
          "name": "D3",
          "ticks": 71280,
          "time": 89.09985149999999,
          "velocity": 0.8818897637795275
        },
        {
          "duration": 0.5987490020833377,
          "durationTicks": 479,
          "midi": 55,
          "name": "G3",
          "ticks": 71280,
          "time": 89.09985149999999,
          "velocity": 0.8818897637795275
        },
        {
          "duration": 0.29874950208332507,
          "durationTicks": 239,
          "midi": 43,
          "name": "G2",
          "ticks": 71760,
          "time": 89.6998505,
          "velocity": 0.8818897637795275
        },
        {
          "duration": 0.29874950208332507,
          "durationTicks": 239,
          "midi": 47,
          "name": "B2",
          "ticks": 71760,
          "time": 89.6998505,
          "velocity": 0.8818897637795275
        },
        {
          "duration": 0.29874950208332507,
          "durationTicks": 239,
          "midi": 50,
          "name": "D3",
          "ticks": 71760,
          "time": 89.6998505,
          "velocity": 0.8818897637795275
        },
        {
          "duration": 0.29874950208332507,
          "durationTicks": 239,
          "midi": 55,
          "name": "G3",
          "ticks": 71760,
          "time": 89.6998505,
          "velocity": 0.8818897637795275
        },
        {
          "duration": 0.5987490020833377,
          "durationTicks": 479,
          "midi": 43,
          "name": "G2",
          "ticks": 72000,
          "time": 89.99985,
          "velocity": 0.8818897637795275
        },
        {
          "duration": 0.5987490020833377,
          "durationTicks": 479,
          "midi": 47,
          "name": "B2",
          "ticks": 72000,
          "time": 89.99985,
          "velocity": 0.8818897637795275
        },
        {
          "duration": 0.5987490020833377,
          "durationTicks": 479,
          "midi": 50,
          "name": "D3",
          "ticks": 72000,
          "time": 89.99985,
          "velocity": 0.8818897637795275
        },
        {
          "duration": 0.5987490020833377,
          "durationTicks": 479,
          "midi": 55,
          "name": "G3",
          "ticks": 72000,
          "time": 89.99985,
          "velocity": 0.8818897637795275
        },
        {
          "duration": 0.2987495020833393,
          "durationTicks": 239,
          "midi": 43,
          "name": "G2",
          "ticks": 72480,
          "time": 90.59984899999999,
          "velocity": 0.8818897637795275
        },
        {
          "duration": 0.2987495020833393,
          "durationTicks": 239,
          "midi": 47,
          "name": "B2",
          "ticks": 72480,
          "time": 90.59984899999999,
          "velocity": 0.8818897637795275
        },
        {
          "duration": 0.2987495020833393,
          "durationTicks": 239,
          "midi": 50,
          "name": "D3",
          "ticks": 72480,
          "time": 90.59984899999999,
          "velocity": 0.8818897637795275
        },
        {
          "duration": 0.2987495020833393,
          "durationTicks": 239,
          "midi": 55,
          "name": "G3",
          "ticks": 72480,
          "time": 90.59984899999999,
          "velocity": 0.8818897637795275
        },
        {
          "duration": 0.5987490020833377,
          "durationTicks": 479,
          "midi": 47,
          "name": "B2",
          "ticks": 72720,
          "time": 90.89984849999999,
          "velocity": 0.8818897637795275
        },
        {
          "duration": 0.5987490020833377,
          "durationTicks": 479,
          "midi": 50,
          "name": "D3",
          "ticks": 72720,
          "time": 90.89984849999999,
          "velocity": 0.8818897637795275
        },
        {
          "duration": 0.5987490020833377,
          "durationTicks": 479,
          "midi": 54,
          "name": "F#3",
          "ticks": 72720,
          "time": 90.89984849999999,
          "velocity": 0.8818897637795275
        },
        {
          "duration": 0.5987490020833377,
          "durationTicks": 479,
          "midi": 59,
          "name": "B3",
          "ticks": 72720,
          "time": 90.89984849999999,
          "velocity": 0.8818897637795275
        },
        {
          "duration": 0.2987495020833393,
          "durationTicks": 239,
          "midi": 47,
          "name": "B2",
          "ticks": 73200,
          "time": 91.49984749999999,
          "velocity": 0.8818897637795275
        },
        {
          "duration": 0.2987495020833393,
          "durationTicks": 239,
          "midi": 50,
          "name": "D3",
          "ticks": 73200,
          "time": 91.49984749999999,
          "velocity": 0.8818897637795275
        },
        {
          "duration": 0.2987495020833393,
          "durationTicks": 239,
          "midi": 54,
          "name": "F#3",
          "ticks": 73200,
          "time": 91.49984749999999,
          "velocity": 0.8818897637795275
        },
        {
          "duration": 0.2987495020833393,
          "durationTicks": 239,
          "midi": 59,
          "name": "B3",
          "ticks": 73200,
          "time": 91.49984749999999,
          "velocity": 0.8818897637795275
        },
        {
          "duration": 0.5987490020833377,
          "durationTicks": 479,
          "midi": 47,
          "name": "B2",
          "ticks": 73440,
          "time": 91.79984699999999,
          "velocity": 0.8818897637795275
        },
        {
          "duration": 0.5987490020833377,
          "durationTicks": 479,
          "midi": 50,
          "name": "D3",
          "ticks": 73440,
          "time": 91.79984699999999,
          "velocity": 0.8818897637795275
        },
        {
          "duration": 0.5987490020833377,
          "durationTicks": 479,
          "midi": 54,
          "name": "F#3",
          "ticks": 73440,
          "time": 91.79984699999999,
          "velocity": 0.8818897637795275
        },
        {
          "duration": 0.5987490020833377,
          "durationTicks": 479,
          "midi": 59,
          "name": "B3",
          "ticks": 73440,
          "time": 91.79984699999999,
          "velocity": 0.8818897637795275
        },
        {
          "duration": 0.29874950208332507,
          "durationTicks": 239,
          "midi": 47,
          "name": "B2",
          "ticks": 73920,
          "time": 92.399846,
          "velocity": 0.8818897637795275
        },
        {
          "duration": 0.29874950208332507,
          "durationTicks": 239,
          "midi": 50,
          "name": "D3",
          "ticks": 73920,
          "time": 92.399846,
          "velocity": 0.8818897637795275
        },
        {
          "duration": 0.29874950208332507,
          "durationTicks": 239,
          "midi": 54,
          "name": "F#3",
          "ticks": 73920,
          "time": 92.399846,
          "velocity": 0.8818897637795275
        },
        {
          "duration": 0.29874950208332507,
          "durationTicks": 239,
          "midi": 59,
          "name": "B3",
          "ticks": 73920,
          "time": 92.399846,
          "velocity": 0.8818897637795275
        },
        {
          "duration": 0.5987490020833377,
          "durationTicks": 479,
          "midi": 43,
          "name": "G2",
          "ticks": 74160,
          "time": 92.6998455,
          "velocity": 0.8818897637795275
        },
        {
          "duration": 0.5987490020833377,
          "durationTicks": 479,
          "midi": 47,
          "name": "B2",
          "ticks": 74160,
          "time": 92.6998455,
          "velocity": 0.8818897637795275
        },
        {
          "duration": 0.5987490020833377,
          "durationTicks": 479,
          "midi": 50,
          "name": "D3",
          "ticks": 74160,
          "time": 92.6998455,
          "velocity": 0.8818897637795275
        },
        {
          "duration": 0.5987490020833377,
          "durationTicks": 479,
          "midi": 55,
          "name": "G3",
          "ticks": 74160,
          "time": 92.6998455,
          "velocity": 0.8818897637795275
        },
        {
          "duration": 0.2987495020833393,
          "durationTicks": 239,
          "midi": 43,
          "name": "G2",
          "ticks": 74640,
          "time": 93.29984449999999,
          "velocity": 0.8818897637795275
        },
        {
          "duration": 0.2987495020833393,
          "durationTicks": 239,
          "midi": 47,
          "name": "B2",
          "ticks": 74640,
          "time": 93.29984449999999,
          "velocity": 0.8818897637795275
        },
        {
          "duration": 0.2987495020833393,
          "durationTicks": 239,
          "midi": 50,
          "name": "D3",
          "ticks": 74640,
          "time": 93.29984449999999,
          "velocity": 0.8818897637795275
        },
        {
          "duration": 0.2987495020833393,
          "durationTicks": 239,
          "midi": 55,
          "name": "G3",
          "ticks": 74640,
          "time": 93.29984449999999,
          "velocity": 0.8818897637795275
        },
        {
          "duration": 2.698745502083341,
          "durationTicks": 2159,
          "midi": 47,
          "name": "B2",
          "ticks": 74880,
          "time": 93.59984399999999,
          "velocity": 0.8818897637795275
        },
        {
          "duration": 2.698745502083341,
          "durationTicks": 2159,
          "midi": 50,
          "name": "D3",
          "ticks": 74880,
          "time": 93.59984399999999,
          "velocity": 0.8818897637795275
        },
        {
          "duration": 2.698745502083341,
          "durationTicks": 2159,
          "midi": 54,
          "name": "F#3",
          "ticks": 74880,
          "time": 93.59984399999999,
          "velocity": 0.8818897637795275
        },
        {
          "duration": 2.698745502083341,
          "durationTicks": 2159,
          "midi": 59,
          "name": "B3",
          "ticks": 74880,
          "time": 93.59984399999999,
          "velocity": 0.8818897637795275
        },
        {
          "duration": 2.698745502083341,
          "durationTicks": 2159,
          "midi": 47,
          "name": "B2",
          "ticks": 82080,
          "time": 102.59982899999999,
          "velocity": 0.3858267716535433
        },
        {
          "duration": 2.698745502083341,
          "durationTicks": 2159,
          "midi": 59,
          "name": "B3",
          "ticks": 82080,
          "time": 102.59982899999999,
          "velocity": 0.3858267716535433
        },
        {
          "duration": 0.8987485020833361,
          "durationTicks": 719,
          "midi": 45,
          "name": "A2",
          "ticks": 84240,
          "time": 105.29982449999999,
          "velocity": 0.3858267716535433
        },
        {
          "duration": 0.8987485020833361,
          "durationTicks": 719,
          "midi": 57,
          "name": "A3",
          "ticks": 84240,
          "time": 105.29982449999999,
          "velocity": 0.3858267716535433
        },
        {
          "duration": 6.298739502083336,
          "durationTicks": 5039,
          "midi": 43,
          "name": "G2",
          "ticks": 84960,
          "time": 106.199823,
          "velocity": 0.3858267716535433
        },
        {
          "duration": 6.298739502083336,
          "durationTicks": 5039,
          "midi": 55,
          "name": "G3",
          "ticks": 84960,
          "time": 106.199823,
          "velocity": 0.3858267716535433
        },
        {
          "duration": 7.198738002083331,
          "durationTicks": 5759,
          "midi": 47,
          "name": "B2",
          "ticks": 90000,
          "time": 112.49981249999999,
          "velocity": 0.3858267716535433
        },
        {
          "duration": 7.198738002083331,
          "durationTicks": 5759,
          "midi": 59,
          "name": "B3",
          "ticks": 90000,
          "time": 112.49981249999999,
          "velocity": 0.3858267716535433
        },
        {
          "duration": 2.6987455020833266,
          "durationTicks": 2159,
          "midi": 35,
          "name": "B1",
          "ticks": 95760,
          "time": 119.6998005,
          "velocity": 0.12598425196850394
        },
        {
          "duration": 2.6987455020833266,
          "durationTicks": 2159,
          "midi": 47,
          "name": "B2",
          "ticks": 95760,
          "time": 119.6998005,
          "velocity": 0.12598425196850394
        }
      ],
      "endOfTrackTicks": 97920
    }
  ]
}