{
  "header": {
    "keySignatures": [
      {
        "key": "C",
        "scale": "major",
        "ticks": 0
      },
      {
        "key": "C",
        "scale": "major",
        "ticks": 0
      }
    ],
    "meta": [],
    "name": "Piano\u0000",
    "ppq": 480,
    "tempos": [
      {
        "bpm": 75,
        "ticks": 0
      },
      {
        "bpm": 75,
        "ticks": 61440
      }
    ],
    "timeSignatures": [
      {
        "ticks": 0,
        "timeSignature": [4, 4],
        "measures": 0
      },
      {
        "ticks": 61440,
        "timeSignature": [4, 4],
        "measures": 32
      }
    ]
  },
  "tracks": [
    {
      "channel": 0,
      "controlChanges": {
        "7": [
          {
            "number": 7,
            "ticks": 0,
            "time": 0,
            "value": 0.7874015748031497
          }
        ],
        "10": [
          {
            "number": 10,
            "ticks": 0,
            "time": 0,
            "value": 0.5039370078740157
          }
        ],
        "91": [
          {
            "number": 91,
            "ticks": 0,
            "time": 0,
            "value": 0
          }
        ],
        "93": [
          {
            "number": 93,
            "ticks": 0,
            "time": 0,
            "value": 0
          }
        ],
        "121": [
          {
            "number": 121,
            "ticks": 0,
            "time": 0,
            "value": 0
          }
        ]
      },
      "pitchBends": [],
      "instrument": {
        "family": "piano",
        "name": "acoustic grand piano",
        "number": 0
      },
      "name": "Piano\u0000",
      "notes": [
        {
          "duration": 3.418333333333333,
          "durationTicks": 2051,
          "midi": 64,
          "name": "E4",
          "ticks": 0,
          "time": 0,
          "velocity": 0.6299212598425197
        },
        {
          "duration": 0.3783333333333334,
          "durationTicks": 227,
          "midi": 62,
          "name": "D4",
          "ticks": 2160,
          "time": 3.6,
          "velocity": 0.6299212598425197
        },
        {
          "duration": 0.37833333333333297,
          "durationTicks": 227,
          "midi": 60,
          "name": "C4",
          "ticks": 2400,
          "time": 4,
          "velocity": 0.6299212598425197
        },
        {
          "duration": 0.37833333333333297,
          "durationTicks": 227,
          "midi": 59,
          "name": "B3",
          "ticks": 2640,
          "time": 4.4,
          "velocity": 0.6299212598425197
        },
        {
          "duration": 0.37833333333333297,
          "durationTicks": 227,
          "midi": 60,
          "name": "C4",
          "ticks": 2880,
          "time": 4.800000000000001,
          "velocity": 0.6299212598425197
        },
        {
          "duration": 0.37833333333333297,
          "durationTicks": 227,
          "midi": 62,
          "name": "D4",
          "ticks": 3120,
          "time": 5.2,
          "velocity": 0.6299212598425197
        },
        {
          "duration": 0.37833333333333297,
          "durationTicks": 227,
          "midi": 64,
          "name": "E4",
          "ticks": 3360,
          "time": 5.6000000000000005,
          "velocity": 0.6299212598425197
        },
        {
          "duration": 0.37833333333333385,
          "durationTicks": 227,
          "midi": 60,
          "name": "C4",
          "ticks": 3600,
          "time": 6,
          "velocity": 0.6299212598425197
        },
        {
          "duration": 2.2783333333333324,
          "durationTicks": 1367,
          "midi": 69,
          "name": "A4",
          "ticks": 3840,
          "time": 6.4,
          "velocity": 0.6299212598425197
        },
        {
          "duration": 0.3783333333333321,
          "durationTicks": 227,
          "midi": 71,
          "name": "B4",
          "ticks": 5280,
          "time": 8.8,
          "velocity": 0.6299212598425197
        },
        {
          "duration": 0.3783333333333321,
          "durationTicks": 227,
          "midi": 72,
          "name": "C5",
          "ticks": 5520,
          "time": 9.200000000000001,
          "velocity": 0.6299212598425197
        },
        {
          "duration": 0.18833333333333258,
          "durationTicks": 113,
          "midi": 65,
          "name": "F4",
          "ticks": 5760,
          "time": 9.600000000000001,
          "velocity": 0.6299212598425197
        },
        {
          "duration": 0.18833333333333435,
          "durationTicks": 113,
          "midi": 64,
          "name": "E4",
          "ticks": 5880,
          "time": 9.8,
          "velocity": 0.6299212598425197
        },
        {
          "duration": 1.8983333333333334,
          "durationTicks": 1139,
          "midi": 65,
          "name": "F4",
          "ticks": 6000,
          "time": 10,
          "velocity": 0.6299212598425197
        },
        {
          "duration": 0.7583333333333329,
          "durationTicks": 455,
          "midi": 62,
          "name": "D4",
          "ticks": 7200,
          "time": 12,
          "velocity": 0.6299212598425197
        },
        {
          "duration": 2.2783333333333324,
          "durationTicks": 1367,
          "midi": 71,
          "name": "B4",
          "ticks": 7680,
          "time": 12.8,
          "velocity": 0.6299212598425197
        },
        {
          "duration": 0.3783333333333321,
          "durationTicks": 227,
          "midi": 72,
          "name": "C5",
          "ticks": 9120,
          "time": 15.200000000000001,
          "velocity": 0.6299212598425197
        },
        {
          "duration": 0.3783333333333321,
          "durationTicks": 227,
          "midi": 74,
          "name": "D5",
          "ticks": 9360,
          "time": 15.600000000000001,
          "velocity": 0.6299212598425197
        },
        {
          "duration": 0.18833333333333258,
          "durationTicks": 113,
          "midi": 67,
          "name": "G4",
          "ticks": 9600,
          "time": 16,
          "velocity": 0.6299212598425197
        },
        {
          "duration": 0.18833333333333258,
          "durationTicks": 113,
          "midi": 65,
          "name": "F4",
          "ticks": 9720,
          "time": 16.2,
          "velocity": 0.6299212598425197
        },
        {
          "duration": 1.5183333333333309,
          "durationTicks": 911,
          "midi": 67,
          "name": "G4",
          "ticks": 9840,
          "time": 16.400000000000002,
          "velocity": 0.6299212598425197
        },
        {
          "duration": 0.37833333333333385,
          "durationTicks": 227,
          "midi": 65,
          "name": "F4",
          "ticks": 10800,
          "time": 18,
          "velocity": 0.6299212598425197
        },
        {
          "duration": 0.3783333333333303,
          "durationTicks": 227,
          "midi": 64,
          "name": "E4",
          "ticks": 11040,
          "time": 18.400000000000002,
          "velocity": 0.6299212598425197
        },
        {
          "duration": 0.37833333333333385,
          "durationTicks": 227,
          "midi": 65,
          "name": "F4",
          "ticks": 11280,
          "time": 18.8,
          "velocity": 0.6299212598425197
        },
        {
          "duration": 0.3783333333333303,
          "durationTicks": 227,
          "midi": 65,
          "name": "F4",
          "ticks": 11520,
          "time": 19.200000000000003,
          "velocity": 0.6299212598425197
        },
        {
          "duration": 0.37833333333333385,
          "durationTicks": 227,
          "midi": 64,
          "name": "E4",
          "ticks": 11760,
          "time": 19.6,
          "velocity": 0.6299212598425197
        },
        {
          "duration": 0.37833333333333385,
          "durationTicks": 227,
          "midi": 62,
          "name": "D4",
          "ticks": 12000,
          "time": 20,
          "velocity": 0.6299212598425197
        },
        {
          "duration": 0.37833333333333385,
          "durationTicks": 227,
          "midi": 60,
          "name": "C4",
          "ticks": 12240,
          "time": 20.400000000000002,
          "velocity": 0.6299212598425197
        },
        {
          "duration": 0.37833333333333385,
          "durationTicks": 227,
          "midi": 60,
          "name": "C4",
          "ticks": 12480,
          "time": 20.8,
          "velocity": 0.6299212598425197
        },
        {
          "duration": 0.3783333333333303,
          "durationTicks": 227,
          "midi": 62,
          "name": "D4",
          "ticks": 12720,
          "time": 21.200000000000003,
          "velocity": 0.6299212598425197
        },
        {
          "duration": 0.37833333333333385,
          "durationTicks": 227,
          "midi": 64,
          "name": "E4",
          "ticks": 12960,
          "time": 21.6,
          "velocity": 0.6299212598425197
        },
        {
          "duration": 0.37833333333333385,
          "durationTicks": 227,
          "midi": 65,
          "name": "F4",
          "ticks": 13200,
          "time": 22,
          "velocity": 0.6299212598425197
        },
        {
          "duration": 0.37833333333333385,
          "durationTicks": 227,
          "midi": 59,
          "name": "B3",
          "ticks": 13440,
          "time": 22.400000000000002,
          "velocity": 0.6299212598425197
        },
        {
          "duration": 0.37833333333333385,
          "durationTicks": 227,
          "midi": 60,
          "name": "C4",
          "ticks": 13680,
          "time": 22.8,
          "velocity": 0.6299212598425197
        },
        {
          "duration": 0.3783333333333303,
          "durationTicks": 227,
          "midi": 62,
          "name": "D4",
          "ticks": 13920,
          "time": 23.200000000000003,
          "velocity": 0.6299212598425197
        },
        {
          "duration": 0.37833333333333385,
          "durationTicks": 227,
          "midi": 64,
          "name": "E4",
          "ticks": 14160,
          "time": 23.6,
          "velocity": 0.6299212598425197
        },
        {
          "duration": 0.37833333333333385,
          "durationTicks": 227,
          "midi": 65,
          "name": "F4",
          "ticks": 14400,
          "time": 24,
          "velocity": 0.6299212598425197
        },
        {
          "duration": 0.37833333333333385,
          "durationTicks": 227,
          "midi": 64,
          "name": "E4",
          "ticks": 14640,
          "time": 24.400000000000002,
          "velocity": 0.6299212598425197
        },
        {
          "duration": 0.37833333333333385,
          "durationTicks": 227,
          "midi": 65,
          "name": "F4",
          "ticks": 14880,
          "time": 24.8,
          "velocity": 0.6299212598425197
        },
        {
          "duration": 0.3783333333333303,
          "durationTicks": 227,
          "midi": 62,
          "name": "D4",
          "ticks": 15120,
          "time": 25.200000000000003,
          "velocity": 0.6299212598425197
        },
        {
          "duration": 0.7583333333333329,
          "durationTicks": 455,
          "midi": 64,
          "name": "E4",
          "ticks": 15360,
          "time": 25.6,
          "velocity": 0.6299212598425197
        },
        {
          "duration": 0.3783333333333374,
          "durationTicks": 227,
          "midi": 67,
          "name": "G4",
          "ticks": 16080,
          "time": 26.8,
          "velocity": 0.6299212598425197
        },
        {
          "duration": 0.37833333333333385,
          "durationTicks": 227,
          "midi": 76,
          "name": "E5",
          "ticks": 16320,
          "time": 27.200000000000003,
          "velocity": 0.6299212598425197
        },
        {
          "duration": 0.3783333333333374,
          "durationTicks": 227,
          "midi": 74,
          "name": "D5",
          "ticks": 16560,
          "time": 27.6,
          "velocity": 0.6299212598425197
        },
        {
          "duration": 0.3783333333333374,
          "durationTicks": 227,
          "midi": 76,
          "name": "E5",
          "ticks": 16800,
          "time": 28,
          "velocity": 0.6299212598425197
        },
        {
          "duration": 0.37833333333333385,
          "durationTicks": 227,
          "midi": 74,
          "name": "D5",
          "ticks": 17040,
          "time": 28.400000000000002,
          "velocity": 0.6299212598425197
        },
        {
          "duration": 0.3783333333333374,
          "durationTicks": 227,
          "midi": 74,
          "name": "D5",
          "ticks": 17280,
          "time": 28.8,
          "velocity": 0.6299212598425197
        },
        {
          "duration": 2.6583333333333314,
          "durationTicks": 1595,
          "midi": 72,
          "name": "C5",
          "ticks": 17520,
          "time": 29.200000000000003,
          "velocity": 0.6299212598425197
        },
        {
          "duration": 0.3783333333333303,
          "durationTicks": 227,
          "midi": 69,
          "name": "A4",
          "ticks": 19680,
          "time": 32.800000000000004,
          "velocity": 0.6299212598425197
        },
        {
          "duration": 0.3783333333333374,
          "durationTicks": 227,
          "midi": 72,
          "name": "C5",
          "ticks": 19920,
          "time": 33.2,
          "velocity": 0.6299212598425197
        },
        {
          "duration": 0.3783333333333374,
          "durationTicks": 227,
          "midi": 74,
          "name": "D5",
          "ticks": 20160,
          "time": 33.6,
          "velocity": 0.6299212598425197
        },
        {
          "duration": 0.3783333333333374,
          "durationTicks": 227,
          "midi": 72,
          "name": "C5",
          "ticks": 20400,
          "time": 34,
          "velocity": 0.6299212598425197
        },
        {
          "duration": 0.3783333333333374,
          "durationTicks": 227,
          "midi": 72,
          "name": "C5",
          "ticks": 20640,
          "time": 34.4,
          "velocity": 0.6299212598425197
        },
        {
          "duration": 0.3783333333333303,
          "durationTicks": 227,
          "midi": 69,
          "name": "A4",
          "ticks": 20880,
          "time": 34.800000000000004,
          "velocity": 0.6299212598425197
        },
        {
          "duration": 0.3783333333333374,
          "durationTicks": 227,
          "midi": 72,
          "name": "C5",
          "ticks": 21120,
          "time": 35.2,
          "velocity": 0.6299212598425197
        },
        {
          "duration": 2.6583333333333314,
          "durationTicks": 1595,
          "midi": 69,
          "name": "A4",
          "ticks": 21360,
          "time": 35.6,
          "velocity": 0.6299212598425197
        },
        {
          "duration": 0.18833333333333258,
          "durationTicks": 113,
          "midi": 71,
          "name": "B4",
          "ticks": 23760,
          "time": 39.6,
          "velocity": 0.6299212598425197
        },
        {
          "duration": 0.18833333333333258,
          "durationTicks": 113,
          "midi": 69,
          "name": "A4",
          "ticks": 23880,
          "time": 39.800000000000004,
          "velocity": 0.6299212598425197
        },
        {
          "duration": 1.1383333333333354,
          "durationTicks": 683,
          "midi": 71,
          "name": "B4",
          "ticks": 24000,
          "time": 40,
          "velocity": 0.6299212598425197
        },
        {
          "duration": 0.3783333333333374,
          "durationTicks": 227,
          "midi": 69,
          "name": "A4",
          "ticks": 24720,
          "time": 41.2,
          "velocity": 0.6299212598425197
        },
        {
          "duration": 0.3783333333333374,
          "durationTicks": 227,
          "midi": 69,
          "name": "A4",
          "ticks": 24960,
          "time": 41.6,
          "velocity": 0.6299212598425197
        },
        {
          "duration": 2.6583333333333314,
          "durationTicks": 1595,
          "midi": 67,
          "name": "G4",
          "ticks": 25200,
          "time": 42,
          "velocity": 0.6299212598425197
        },
        {
          "duration": 0.3783333333333374,
          "durationTicks": 227,
          "midi": 67,
          "name": "G4",
          "ticks": 27600,
          "time": 46,
          "velocity": 0.6299212598425197
        },
        {
          "duration": 0.3783333333333303,
          "durationTicks": 227,
          "midi": 76,
          "name": "E5",
          "ticks": 27840,
          "time": 46.400000000000006,
          "velocity": 0.6299212598425197
        },
        {
          "duration": 0.3783333333333374,
          "durationTicks": 227,
          "midi": 74,
          "name": "D5",
          "ticks": 28080,
          "time": 46.800000000000004,
          "velocity": 0.6299212598425197
        },
        {
          "duration": 0.3783333333333374,
          "durationTicks": 227,
          "midi": 72,
          "name": "C5",
          "ticks": 28320,
          "time": 47.2,
          "velocity": 0.6299212598425197
        },
        {
          "duration": 0.3783333333333374,
          "durationTicks": 227,
          "midi": 69,
          "name": "A4",
          "ticks": 28560,
          "time": 47.6,
          "velocity": 0.6299212598425197
        },
        {
          "duration": 4.178333333333335,
          "durationTicks": 2507,
          "midi": 76,
          "name": "E5",
          "ticks": 28800,
          "time": 48,
          "velocity": 0.6299212598425197
        },
        {
          "duration": 0.3783333333333303,
          "durationTicks": 227,
          "midi": 72,
          "name": "C5",
          "ticks": 31440,
          "time": 52.400000000000006,
          "velocity": 0.6299212598425197
        },
        {
          "duration": 0.3783333333333303,
          "durationTicks": 227,
          "midi": 74,
          "name": "D5",
          "ticks": 31680,
          "time": 52.800000000000004,
          "velocity": 0.6299212598425197
        },
        {
          "duration": 0.3783333333333303,
          "durationTicks": 227,
          "midi": 72,
          "name": "C5",
          "ticks": 31920,
          "time": 53.2,
          "velocity": 0.6299212598425197
        },
        {
          "duration": 0.3783333333333303,
          "durationTicks": 227,
          "midi": 74,
          "name": "D5",
          "ticks": 32160,
          "time": 53.6,
          "velocity": 0.6299212598425197
        },
        {
          "duration": 0.3783333333333303,
          "durationTicks": 227,
          "midi": 69,
          "name": "A4",
          "ticks": 32400,
          "time": 54,
          "velocity": 0.6299212598425197
        },
        {
          "duration": 0.3783333333333303,
          "durationTicks": 227,
          "midi": 72,
          "name": "C5",
          "ticks": 32640,
          "time": 54.400000000000006,
          "velocity": 0.6299212598425197
        },
        {
          "duration": 2.6583333333333385,
          "durationTicks": 1595,
          "midi": 74,
          "name": "D5",
          "ticks": 32880,
          "time": 54.800000000000004,
          "velocity": 0.6299212598425197
        },
        {
          "duration": 0.18833333333333258,
          "durationTicks": 113,
          "midi": 71,
          "name": "B4",
          "ticks": 35280,
          "time": 58.800000000000004,
          "velocity": 0.6299212598425197
        },
        {
          "duration": 0.18833333333333258,
          "durationTicks": 113,
          "midi": 69,
          "name": "A4",
          "ticks": 35400,
          "time": 59,
          "velocity": 0.6299212598425197
        },
        {
          "duration": 1.1383333333333354,
          "durationTicks": 683,
          "midi": 71,
          "name": "B4",
          "ticks": 35520,
          "time": 59.2,
          "velocity": 0.6299212598425197
        },
        {
          "duration": 0.3783333333333303,
          "durationTicks": 227,
          "midi": 69,
          "name": "A4",
          "ticks": 36240,
          "time": 60.400000000000006,
          "velocity": 0.6299212598425197
        },
        {
          "duration": 0.39833333333333343,
          "durationTicks": 239,
          "midi": 69,
          "name": "A4",
          "ticks": 36480,
          "time": 60.800000000000004,
          "velocity": 0.6299212598425197
        },
        {
          "duration": 1.1383333333333354,
          "durationTicks": 683,
          "midi": 67,
          "name": "G4",
          "ticks": 36720,
          "time": 61.2,
          "velocity": 0.6299212598425197
        },
        {
          "duration": 0.3783333333333303,
          "durationTicks": 227,
          "midi": 71,
          "name": "B4",
          "ticks": 37680,
          "time": 62.800000000000004,
          "velocity": 0.6299212598425197
        },
        {
          "duration": 0.3783333333333303,
          "durationTicks": 227,
          "midi": 72,
          "name": "C5",
          "ticks": 37920,
          "time": 63.2,
          "velocity": 0.6299212598425197
        },
        {
          "duration": 0.3783333333333303,
          "durationTicks": 227,
          "midi": 74,
          "name": "D5",
          "ticks": 38160,
          "time": 63.6,
          "velocity": 0.6299212598425197
        },
        {
          "duration": 0.3783333333333303,
          "durationTicks": 227,
          "midi": 76,
          "name": "E5",
          "ticks": 38400,
          "time": 64,
          "velocity": 0.6299212598425197
        },
        {
          "duration": 0.3783333333333303,
          "durationTicks": 227,
          "midi": 74,
          "name": "D5",
          "ticks": 38640,
          "time": 64.4,
          "velocity": 0.6299212598425197
        },
        {
          "duration": 0.3783333333333303,
          "durationTicks": 227,
          "midi": 76,
          "name": "E5",
          "ticks": 38880,
          "time": 64.8,
          "velocity": 0.6299212598425197
        },
        {
          "duration": 0.3783333333333303,
          "durationTicks": 227,
          "midi": 74,
          "name": "D5",
          "ticks": 39120,
          "time": 65.2,
          "velocity": 0.6299212598425197
        },
        {
          "duration": 0.3783333333333303,
          "durationTicks": 227,
          "midi": 79,
          "name": "G5",
          "ticks": 39360,
          "time": 65.60000000000001,
          "velocity": 0.6299212598425197
        },
        {
          "duration": 0.75833333333334,
          "durationTicks": 455,
          "midi": 79,
          "name": "G5",
          "ticks": 39600,
          "time": 66,
          "velocity": 0.6299212598425197
        },
        {
          "duration": 0.3783333333333303,
          "durationTicks": 227,
          "midi": 76,
          "name": "E5",
          "ticks": 40080,
          "time": 66.8,
          "velocity": 0.6299212598425197
        },
        {
          "duration": 1.5183333333333309,
          "durationTicks": 911,
          "midi": 81,
          "name": "A5",
          "ticks": 40320,
          "time": 67.2,
          "velocity": 0.6299212598425197
        },
        {
          "duration": 2.6583333333333456,
          "durationTicks": 1595,
          "midi": 76,
          "name": "E5",
          "ticks": 41280,
          "time": 68.8,
          "velocity": 0.6299212598425197
        },
        {
          "duration": 0.3783333333333303,
          "durationTicks": 227,
          "midi": 72,
          "name": "C5",
          "ticks": 42960,
          "time": 71.60000000000001,
          "velocity": 0.6299212598425197
        },
        {
          "duration": 0.3783333333333303,
          "durationTicks": 227,
          "midi": 74,
          "name": "D5",
          "ticks": 43200,
          "time": 72,
          "velocity": 0.6299212598425197
        },
        {
          "duration": 0.3783333333333303,
          "durationTicks": 227,
          "midi": 72,
          "name": "C5",
          "ticks": 43440,
          "time": 72.4,
          "velocity": 0.6299212598425197
        },
        {
          "duration": 0.3783333333333303,
          "durationTicks": 227,
          "midi": 74,
          "name": "D5",
          "ticks": 43680,
          "time": 72.8,
          "velocity": 0.6299212598425197
        },
        {
          "duration": 0.3783333333333303,
          "durationTicks": 227,
          "midi": 69,
          "name": "A4",
          "ticks": 43920,
          "time": 73.2,
          "velocity": 0.6299212598425197
        },
        {
          "duration": 0.3783333333333303,
          "durationTicks": 227,
          "midi": 72,
          "name": "C5",
          "ticks": 44160,
          "time": 73.60000000000001,
          "velocity": 0.6299212598425197
        },
        {
          "duration": 1.1383333333333354,
          "durationTicks": 683,
          "midi": 69,
          "name": "A4",
          "ticks": 44400,
          "time": 74,
          "velocity": 0.6299212598425197
        },
        {
          "duration": 0.5049999999999955,
          "durationTicks": 303,
          "midi": 71,
          "name": "B4",
          "ticks": 45120,
          "time": 75.2,
          "velocity": 0.6299212598425197
        },
        {
          "duration": 0.5049999999999955,
          "durationTicks": 303,
          "midi": 76,
          "name": "E5",
          "ticks": 45120,
          "time": 75.2,
          "velocity": 0.6299212598425197
        },
        {
          "duration": 0.5049999999999955,
          "durationTicks": 303,
          "midi": 71,
          "name": "B4",
          "ticks": 45440,
          "time": 75.73333333333333,
          "velocity": 0.6299212598425197
        },
        {
          "duration": 0.5049999999999955,
          "durationTicks": 303,
          "midi": 76,
          "name": "E5",
          "ticks": 45440,
          "time": 75.73333333333333,
          "velocity": 0.6299212598425197
        },
        {
          "duration": 0.5050000000000097,
          "durationTicks": 303,
          "midi": 71,
          "name": "B4",
          "ticks": 45760,
          "time": 76.26666666666667,
          "velocity": 0.6299212598425197
        },
        {
          "duration": 0.5050000000000097,
          "durationTicks": 303,
          "midi": 79,
          "name": "G5",
          "ticks": 45760,
          "time": 76.26666666666667,
          "velocity": 0.6299212598425197
        },
        {
          "duration": 1.5183333333333167,
          "durationTicks": 911,
          "midi": 72,
          "name": "C5",
          "ticks": 46080,
          "time": 76.80000000000001,
          "velocity": 0.6299212598425197
        },
        {
          "duration": 1.5183333333333167,
          "durationTicks": 911,
          "midi": 81,
          "name": "A5",
          "ticks": 46080,
          "time": 76.80000000000001,
          "velocity": 0.6299212598425197
        },
        {
          "duration": 1.1383333333333354,
          "durationTicks": 683,
          "midi": 79,
          "name": "G5",
          "ticks": 47040,
          "time": 78.4,
          "velocity": 0.6299212598425197
        },
        {
          "duration": 0.3783333333333303,
          "durationTicks": 227,
          "midi": 76,
          "name": "E5",
          "ticks": 47760,
          "time": 79.60000000000001,
          "velocity": 0.6299212598425197
        },
        {
          "duration": 0.3783333333333303,
          "durationTicks": 227,
          "midi": 76,
          "name": "E5",
          "ticks": 48000,
          "time": 80,
          "velocity": 0.6299212598425197
        },
        {
          "duration": 0.3783333333333303,
          "durationTicks": 227,
          "midi": 74,
          "name": "D5",
          "ticks": 48240,
          "time": 80.4,
          "velocity": 0.6299212598425197
        },
        {
          "duration": 2.2783333333333218,
          "durationTicks": 1367,
          "midi": 72,
          "name": "C5",
          "ticks": 48480,
          "time": 80.80000000000001,
          "velocity": 0.6299212598425197
        },
        {
          "duration": 0.3783333333333303,
          "durationTicks": 227,
          "midi": 69,
          "name": "A4",
          "ticks": 50400,
          "time": 84,
          "velocity": 0.6299212598425197
        },
        {
          "duration": 0.3783333333333303,
          "durationTicks": 227,
          "midi": 72,
          "name": "C5",
          "ticks": 50640,
          "time": 84.4,
          "velocity": 0.6299212598425197
        },
        {
          "duration": 0.3783333333333303,
          "durationTicks": 227,
          "midi": 74,
          "name": "D5",
          "ticks": 50880,
          "time": 84.80000000000001,
          "velocity": 0.6299212598425197
        },
        {
          "duration": 0.3783333333333303,
          "durationTicks": 227,
          "midi": 72,
          "name": "C5",
          "ticks": 51120,
          "time": 85.2,
          "velocity": 0.6299212598425197
        },
        {
          "duration": 0.3783333333333303,
          "durationTicks": 227,
          "midi": 72,
          "name": "C5",
          "ticks": 51360,
          "time": 85.60000000000001,
          "velocity": 0.6299212598425197
        },
        {
          "duration": 0.3783333333333303,
          "durationTicks": 227,
          "midi": 69,
          "name": "A4",
          "ticks": 51600,
          "time": 86,
          "velocity": 0.6299212598425197
        },
        {
          "duration": 0.3783333333333303,
          "durationTicks": 227,
          "midi": 72,
          "name": "C5",
          "ticks": 51840,
          "time": 86.4,
          "velocity": 0.6299212598425197
        },
        {
          "duration": 2.6583333333333314,
          "durationTicks": 1595,
          "midi": 69,
          "name": "A4",
          "ticks": 52080,
          "time": 86.80000000000001,
          "velocity": 0.6299212598425197
        },
        {
          "duration": 0.18833333333333258,
          "durationTicks": 113,
          "midi": 71,
          "name": "B4",
          "ticks": 54480,
          "time": 90.80000000000001,
          "velocity": 0.6299212598425197
        },
        {
          "duration": 0.18833333333333258,
          "durationTicks": 113,
          "midi": 69,
          "name": "A4",
          "ticks": 54600,
          "time": 91,
          "velocity": 0.6299212598425197
        },
        {
          "duration": 1.1383333333333354,
          "durationTicks": 683,
          "midi": 71,
          "name": "B4",
          "ticks": 54720,
          "time": 91.2,
          "velocity": 0.6299212598425197
        },
        {
          "duration": 0.3783333333333303,
          "durationTicks": 227,
          "midi": 69,
          "name": "A4",
          "ticks": 55440,
          "time": 92.4,
          "velocity": 0.6299212598425197
        },
        {
          "duration": 0.3783333333333303,
          "durationTicks": 227,
          "midi": 69,
          "name": "A4",
          "ticks": 55680,
          "time": 92.80000000000001,
          "velocity": 0.6299212598425197
        },
        {
          "duration": 1.8983333333333405,
          "durationTicks": 1139,
          "midi": 67,
          "name": "G4",
          "ticks": 55920,
          "time": 93.2,
          "velocity": 0.6299212598425197
        },
        {
          "duration": 0.3783333333333303,
          "durationTicks": 227,
          "midi": 69,
          "name": "A4",
          "ticks": 57120,
          "time": 95.2,
          "velocity": 0.6299212598425197
        },
        {
          "duration": 0.3783333333333303,
          "durationTicks": 227,
          "midi": 72,
          "name": "C5",
          "ticks": 57360,
          "time": 95.60000000000001,
          "velocity": 0.6299212598425197
        },
        {
          "duration": 0.75833333333334,
          "durationTicks": 455,
          "midi": 72,
          "name": "C5",
          "ticks": 57600,
          "time": 96,
          "velocity": 0.6299212598425197
        },
        {
          "duration": 0.3783333333333303,
          "durationTicks": 227,
          "midi": 69,
          "name": "A4",
          "ticks": 58080,
          "time": 96.80000000000001,
          "velocity": 0.6299212598425197
        },
        {
          "duration": 1.1383333333333354,
          "durationTicks": 683,
          "midi": 67,
          "name": "G4",
          "ticks": 58320,
          "time": 97.2,
          "velocity": 0.6299212598425197
        },
        {
          "duration": 0.3783333333333303,
          "durationTicks": 227,
          "midi": 69,
          "name": "A4",
          "ticks": 59040,
          "time": 98.4,
          "velocity": 0.6299212598425197
        },
        {
          "duration": 0.3783333333333303,
          "durationTicks": 227,
          "midi": 72,
          "name": "C5",
          "ticks": 59280,
          "time": 98.80000000000001,
          "velocity": 0.6299212598425197
        },
        {
          "duration": 0.3783333333333303,
          "durationTicks": 227,
          "midi": 76,
          "name": "E5",
          "ticks": 59520,
          "time": 99.2,
          "velocity": 0.6299212598425197
        },
        {
          "duration": 0.3783333333333303,
          "durationTicks": 227,
          "midi": 74,
          "name": "D5",
          "ticks": 59760,
          "time": 99.60000000000001,
          "velocity": 0.6299212598425197
        },
        {
          "duration": 2.278333333333336,
          "durationTicks": 1367,
          "midi": 72,
          "name": "C5",
          "ticks": 60000,
          "time": 100,
          "velocity": 0.6299212598425197
        },
        {
          "duration": 3.4183333333333366,
          "durationTicks": 2051,
          "midi": 64,
          "name": "E4",
          "ticks": 61440,
          "time": 102.4,
          "velocity": 0.6299212598425197
        },
        {
          "duration": 0.3783333333333445,
          "durationTicks": 227,
          "midi": 62,
          "name": "D4",
          "ticks": 63600,
          "time": 106,
          "velocity": 0.6299212598425197
        },
        {
          "duration": 0.3783333333333303,
          "durationTicks": 227,
          "midi": 60,
          "name": "C4",
          "ticks": 63840,
          "time": 106.4,
          "velocity": 0.6299212598425197
        },
        {
          "duration": 0.3783333333333303,
          "durationTicks": 227,
          "midi": 59,
          "name": "B3",
          "ticks": 64080,
          "time": 106.80000000000001,
          "velocity": 0.6299212598425197
        },
        {
          "duration": 0.3783333333333303,
          "durationTicks": 227,
          "midi": 60,
          "name": "C4",
          "ticks": 64320,
          "time": 107.2,
          "velocity": 0.6299212598425197
        },
        {
          "duration": 0.3783333333333303,
          "durationTicks": 227,
          "midi": 62,
          "name": "D4",
          "ticks": 64560,
          "time": 107.60000000000001,
          "velocity": 0.6299212598425197
        },
        {
          "duration": 0.3783333333333445,
          "durationTicks": 227,
          "midi": 64,
          "name": "E4",
          "ticks": 64800,
          "time": 108,
          "velocity": 0.6299212598425197
        },
        {
          "duration": 0.3783333333333303,
          "durationTicks": 227,
          "midi": 60,
          "name": "C4",
          "ticks": 65040,
          "time": 108.4,
          "velocity": 0.6299212598425197
        },
        {
          "duration": 2.2783333333333218,
          "durationTicks": 1367,
          "midi": 69,
          "name": "A4",
          "ticks": 65280,
          "time": 108.80000000000001,
          "velocity": 0.6299212598425197
        },
        {
          "duration": 0.3783333333333303,
          "durationTicks": 227,
          "midi": 71,
          "name": "B4",
          "ticks": 66720,
          "time": 111.2,
          "velocity": 0.6299212598425197
        },
        {
          "duration": 0.3783333333333303,
          "durationTicks": 227,
          "midi": 72,
          "name": "C5",
          "ticks": 66960,
          "time": 111.60000000000001,
          "velocity": 0.6299212598425197
        },
        {
          "duration": 0.18833333333333258,
          "durationTicks": 113,
          "midi": 65,
          "name": "F4",
          "ticks": 67200,
          "time": 112,
          "velocity": 0.6299212598425197
        },
        {
          "duration": 0.18833333333333258,
          "durationTicks": 113,
          "midi": 64,
          "name": "E4",
          "ticks": 67320,
          "time": 112.2,
          "velocity": 0.6299212598425197
        },
        {
          "duration": 1.8983333333333405,
          "durationTicks": 1139,
          "midi": 65,
          "name": "F4",
          "ticks": 67440,
          "time": 112.4,
          "velocity": 0.6299212598425197
        },
        {
          "duration": 0.7583333333333258,
          "durationTicks": 455,
          "midi": 62,
          "name": "D4",
          "ticks": 68640,
          "time": 114.4,
          "velocity": 0.6299212598425197
        },
        {
          "duration": 2.278333333333336,
          "durationTicks": 1367,
          "midi": 71,
          "name": "B4",
          "ticks": 69120,
          "time": 115.2,
          "velocity": 0.6299212598425197
        },
        {
          "duration": 0.3783333333333303,
          "durationTicks": 227,
          "midi": 72,
          "name": "C5",
          "ticks": 70560,
          "time": 117.60000000000001,
          "velocity": 0.6299212598425197
        },
        {
          "duration": 0.3783333333333445,
          "durationTicks": 227,
          "midi": 74,
          "name": "D5",
          "ticks": 70800,
          "time": 118,
          "velocity": 0.6299212598425197
        },
        {
          "duration": 0.18833333333333258,
          "durationTicks": 113,
          "midi": 67,
          "name": "G4",
          "ticks": 71040,
          "time": 118.4,
          "velocity": 0.6299212598425197
        },
        {
          "duration": 0.18833333333333258,
          "durationTicks": 113,
          "midi": 65,
          "name": "F4",
          "ticks": 71160,
          "time": 118.60000000000001,
          "velocity": 0.6299212598425197
        },
        {
          "duration": 1.5183333333333309,
          "durationTicks": 911,
          "midi": 67,
          "name": "G4",
          "ticks": 71280,
          "time": 118.80000000000001,
          "velocity": 0.6299212598425197
        },
        {
          "duration": 0.3783333333333303,
          "durationTicks": 227,
          "midi": 65,
          "name": "F4",
          "ticks": 72240,
          "time": 120.4,
          "velocity": 0.6299212598425197
        },
        {
          "duration": 0.3783333333333303,
          "durationTicks": 227,
          "midi": 64,
          "name": "E4",
          "ticks": 72480,
          "time": 120.80000000000001,
          "velocity": 0.6299212598425197
        },
        {
          "duration": 0.3783333333333445,
          "durationTicks": 227,
          "midi": 65,
          "name": "F4",
          "ticks": 72720,
          "time": 121.2,
          "velocity": 0.6299212598425197
        },
        {
          "duration": 0.3783333333333303,
          "durationTicks": 227,
          "midi": 65,
          "name": "F4",
          "ticks": 72960,
          "time": 121.60000000000001,
          "velocity": 0.6299212598425197
        },
        {
          "duration": 0.3783333333333445,
          "durationTicks": 227,
          "midi": 64,
          "name": "E4",
          "ticks": 73200,
          "time": 122,
          "velocity": 0.6299212598425197
        },
        {
          "duration": 0.3783333333333303,
          "durationTicks": 227,
          "midi": 62,
          "name": "D4",
          "ticks": 73440,
          "time": 122.4,
          "velocity": 0.6299212598425197
        },
        {
          "duration": 0.3783333333333303,
          "durationTicks": 227,
          "midi": 60,
          "name": "C4",
          "ticks": 73680,
          "time": 122.80000000000001,
          "velocity": 0.6299212598425197
        },
        {
          "duration": 0.3783333333333445,
          "durationTicks": 227,
          "midi": 60,
          "name": "C4",
          "ticks": 73920,
          "time": 123.2,
          "velocity": 0.6299212598425197
        },
        {
          "duration": 0.3783333333333303,
          "durationTicks": 227,
          "midi": 62,
          "name": "D4",
          "ticks": 74160,
          "time": 123.60000000000001,
          "velocity": 0.6299212598425197
        },
        {
          "duration": 0.3783333333333445,
          "durationTicks": 227,
          "midi": 64,
          "name": "E4",
          "ticks": 74400,
          "time": 124,
          "velocity": 0.6299212598425197
        },
        {
          "duration": 0.3783333333333303,
          "durationTicks": 227,
          "midi": 65,
          "name": "F4",
          "ticks": 74640,
          "time": 124.4,
          "velocity": 0.6299212598425197
        },
        {
          "duration": 0.3783333333333303,
          "durationTicks": 227,
          "midi": 59,
          "name": "B3",
          "ticks": 74880,
          "time": 124.80000000000001,
          "velocity": 0.6299212598425197
        },
        {
          "duration": 0.3783333333333445,
          "durationTicks": 227,
          "midi": 60,
          "name": "C4",
          "ticks": 75120,
          "time": 125.2,
          "velocity": 0.6299212598425197
        },
        {
          "duration": 0.3783333333333303,
          "durationTicks": 227,
          "midi": 62,
          "name": "D4",
          "ticks": 75360,
          "time": 125.60000000000001,
          "velocity": 0.6299212598425197
        },
        {
          "duration": 0.3783333333333445,
          "durationTicks": 227,
          "midi": 64,
          "name": "E4",
          "ticks": 75600,
          "time": 126,
          "velocity": 0.6299212598425197
        },
        {
          "duration": 0.3783333333333303,
          "durationTicks": 227,
          "midi": 65,
          "name": "F4",
          "ticks": 75840,
          "time": 126.4,
          "velocity": 0.6299212598425197
        },
        {
          "duration": 0.3783333333333303,
          "durationTicks": 227,
          "midi": 64,
          "name": "E4",
          "ticks": 76080,
          "time": 126.80000000000001,
          "velocity": 0.6299212598425197
        },
        {
          "duration": 0.3783333333333445,
          "durationTicks": 227,
          "midi": 65,
          "name": "F4",
          "ticks": 76320,
          "time": 127.2,
          "velocity": 0.6299212598425197
        },
        {
          "duration": 0.3783333333333303,
          "durationTicks": 227,
          "midi": 62,
          "name": "D4",
          "ticks": 76560,
          "time": 127.60000000000001,
          "velocity": 0.6299212598425197
        },
        {
          "duration": 0.7583333333333258,
          "durationTicks": 455,
          "midi": 64,
          "name": "E4",
          "ticks": 76800,
          "time": 128,
          "velocity": 0.6299212598425197
        },
        {
          "duration": 0.3783333333333303,
          "durationTicks": 227,
          "midi": 67,
          "name": "G4",
          "ticks": 77520,
          "time": 129.20000000000002,
          "velocity": 0.6299212598425197
        },
        {
          "duration": 0.3783333333333303,
          "durationTicks": 227,
          "midi": 76,
          "name": "E5",
          "ticks": 77760,
          "time": 129.60000000000002,
          "velocity": 0.6299212598425197
        },
        {
          "duration": 0.3783333333333303,
          "durationTicks": 227,
          "midi": 74,
          "name": "D5",
          "ticks": 78000,
          "time": 130,
          "velocity": 0.6299212598425197
        },
        {
          "duration": 0.3783333333333303,
          "durationTicks": 227,
          "midi": 76,
          "name": "E5",
          "ticks": 78240,
          "time": 130.4,
          "velocity": 0.6299212598425197
        },
        {
          "duration": 0.3783333333333303,
          "durationTicks": 227,
          "midi": 74,
          "name": "D5",
          "ticks": 78480,
          "time": 130.8,
          "velocity": 0.6299212598425197
        },
        {
          "duration": 0.3783333333333303,
          "durationTicks": 227,
          "midi": 74,
          "name": "D5",
          "ticks": 78720,
          "time": 131.20000000000002,
          "velocity": 0.6299212598425197
        },
        {
          "duration": 2.658333333333303,
          "durationTicks": 1595,
          "midi": 72,
          "name": "C5",
          "ticks": 78960,
          "time": 131.60000000000002,
          "velocity": 0.6299212598425197
        },
        {
          "duration": 0.3783333333333303,
          "durationTicks": 227,
          "midi": 69,
          "name": "A4",
          "ticks": 81120,
          "time": 135.20000000000002,
          "velocity": 0.6299212598425197
        },
        {
          "duration": 0.3783333333333303,
          "durationTicks": 227,
          "midi": 72,
          "name": "C5",
          "ticks": 81360,
          "time": 135.60000000000002,
          "velocity": 0.6299212598425197
        },
        {
          "duration": 0.3783333333333303,
          "durationTicks": 227,
          "midi": 74,
          "name": "D5",
          "ticks": 81600,
          "time": 136,
          "velocity": 0.6299212598425197
        },
        {
          "duration": 0.3783333333333303,
          "durationTicks": 227,
          "midi": 72,
          "name": "C5",
          "ticks": 81840,
          "time": 136.4,
          "velocity": 0.6299212598425197
        },
        {
          "duration": 0.3783333333333303,
          "durationTicks": 227,
          "midi": 72,
          "name": "C5",
          "ticks": 82080,
          "time": 136.8,
          "velocity": 0.6299212598425197
        },
        {
          "duration": 0.3783333333333303,
          "durationTicks": 227,
          "midi": 69,
          "name": "A4",
          "ticks": 82320,
          "time": 137.20000000000002,
          "velocity": 0.6299212598425197
        },
        {
          "duration": 0.3783333333333303,
          "durationTicks": 227,
          "midi": 72,
          "name": "C5",
          "ticks": 82560,
          "time": 137.60000000000002,
          "velocity": 0.6299212598425197
        },
        {
          "duration": 2.6583333333333314,
          "durationTicks": 1595,
          "midi": 69,
          "name": "A4",
          "ticks": 82800,
          "time": 138,
          "velocity": 0.6299212598425197
        },
        {
          "duration": 0.18833333333333258,
          "durationTicks": 113,
          "midi": 71,
          "name": "B4",
          "ticks": 85200,
          "time": 142,
          "velocity": 0.6299212598425197
        },
        {
          "duration": 0.18833333333333258,
          "durationTicks": 113,
          "midi": 69,
          "name": "A4",
          "ticks": 85320,
          "time": 142.20000000000002,
          "velocity": 0.6299212598425197
        },
        {
          "duration": 1.1383333333333496,
          "durationTicks": 683,
          "midi": 71,
          "name": "B4",
          "ticks": 85440,
          "time": 142.4,
          "velocity": 0.6299212598425197
        },
        {
          "duration": 0.3783333333333303,
          "durationTicks": 227,
          "midi": 69,
          "name": "A4",
          "ticks": 86160,
          "time": 143.60000000000002,
          "velocity": 0.6299212598425197
        },
        {
          "duration": 0.3783333333333303,
          "durationTicks": 227,
          "midi": 69,
          "name": "A4",
          "ticks": 86400,
          "time": 144,
          "velocity": 0.6299212598425197
        },
        {
          "duration": 2.6583333333333314,
          "durationTicks": 1595,
          "midi": 67,
          "name": "G4",
          "ticks": 86640,
          "time": 144.4,
          "velocity": 0.6299212598425197
        },
        {
          "duration": 0.3783333333333303,
          "durationTicks": 227,
          "midi": 67,
          "name": "G4",
          "ticks": 89040,
          "time": 148.4,
          "velocity": 0.6299212598425197
        },
        {
          "duration": 0.3783333333333303,
          "durationTicks": 227,
          "midi": 76,
          "name": "E5",
          "ticks": 89280,
          "time": 148.8,
          "velocity": 0.6299212598425197
        },
        {
          "duration": 0.3783333333333303,
          "durationTicks": 227,
          "midi": 74,
          "name": "D5",
          "ticks": 89520,
          "time": 149.20000000000002,
          "velocity": 0.6299212598425197
        },
        {
          "duration": 0.3783333333333303,
          "durationTicks": 227,
          "midi": 72,
          "name": "C5",
          "ticks": 89760,
          "time": 149.60000000000002,
          "velocity": 0.6299212598425197
        },
        {
          "duration": 0.3783333333333303,
          "durationTicks": 227,
          "midi": 69,
          "name": "A4",
          "ticks": 90000,
          "time": 150,
          "velocity": 0.6299212598425197
        },
        {
          "duration": 4.178333333333342,
          "durationTicks": 2507,
          "midi": 76,
          "name": "E5",
          "ticks": 90240,
          "time": 150.4,
          "velocity": 0.6299212598425197
        },
        {
          "duration": 0.3783333333333303,
          "durationTicks": 227,
          "midi": 72,
          "name": "C5",
          "ticks": 92880,
          "time": 154.8,
          "velocity": 0.6299212598425197
        },
        {
          "duration": 0.3783333333333303,
          "durationTicks": 227,
          "midi": 74,
          "name": "D5",
          "ticks": 93120,
          "time": 155.20000000000002,
          "velocity": 0.6299212598425197
        },
        {
          "duration": 0.3783333333333303,
          "durationTicks": 227,
          "midi": 72,
          "name": "C5",
          "ticks": 93360,
          "time": 155.60000000000002,
          "velocity": 0.6299212598425197
        },
        {
          "duration": 0.3783333333333303,
          "durationTicks": 227,
          "midi": 74,
          "name": "D5",
          "ticks": 93600,
          "time": 156,
          "velocity": 0.6299212598425197
        },
        {
          "duration": 0.3783333333333303,
          "durationTicks": 227,
          "midi": 69,
          "name": "A4",
          "ticks": 93840,
          "time": 156.4,
          "velocity": 0.6299212598425197
        },
        {
          "duration": 0.3783333333333303,
          "durationTicks": 227,
          "midi": 72,
          "name": "C5",
          "ticks": 94080,
          "time": 156.8,
          "velocity": 0.6299212598425197
        },
        {
          "duration": 2.6583333333333314,
          "durationTicks": 1595,
          "midi": 74,
          "name": "D5",
          "ticks": 94320,
          "time": 157.20000000000002,
          "velocity": 0.6299212598425197
        },
        {
          "duration": 0.18833333333333258,
          "durationTicks": 113,
          "midi": 71,
          "name": "B4",
          "ticks": 96720,
          "time": 161.20000000000002,
          "velocity": 0.6299212598425197
        },
        {
          "duration": 0.18833333333333258,
          "durationTicks": 113,
          "midi": 69,
          "name": "A4",
          "ticks": 96840,
          "time": 161.4,
          "velocity": 0.6299212598425197
        },
        {
          "duration": 1.1383333333333212,
          "durationTicks": 683,
          "midi": 71,
          "name": "B4",
          "ticks": 96960,
          "time": 161.60000000000002,
          "velocity": 0.6299212598425197
        },
        {
          "duration": 0.3783333333333303,
          "durationTicks": 227,
          "midi": 69,
          "name": "A4",
          "ticks": 97680,
          "time": 162.8,
          "velocity": 0.6299212598425197
        },
        {
          "duration": 0.39833333333334053,
          "durationTicks": 239,
          "midi": 69,
          "name": "A4",
          "ticks": 97920,
          "time": 163.20000000000002,
          "velocity": 0.6299212598425197
        },
        {
          "duration": 1.1383333333333212,
          "durationTicks": 683,
          "midi": 67,
          "name": "G4",
          "ticks": 98160,
          "time": 163.60000000000002,
          "velocity": 0.6299212598425197
        },
        {
          "duration": 0.3783333333333303,
          "durationTicks": 227,
          "midi": 71,
          "name": "B4",
          "ticks": 99120,
          "time": 165.20000000000002,
          "velocity": 0.6299212598425197
        },
        {
          "duration": 0.3783333333333303,
          "durationTicks": 227,
          "midi": 72,
          "name": "C5",
          "ticks": 99360,
          "time": 165.60000000000002,
          "velocity": 0.6299212598425197
        },
        {
          "duration": 0.3783333333333303,
          "durationTicks": 227,
          "midi": 74,
          "name": "D5",
          "ticks": 99600,
          "time": 166,
          "velocity": 0.6299212598425197
        },
        {
          "duration": 0.3783333333333303,
          "durationTicks": 227,
          "midi": 76,
          "name": "E5",
          "ticks": 99840,
          "time": 166.4,
          "velocity": 0.6299212598425197
        },
        {
          "duration": 0.3783333333333303,
          "durationTicks": 227,
          "midi": 74,
          "name": "D5",
          "ticks": 100080,
          "time": 166.8,
          "velocity": 0.6299212598425197
        },
        {
          "duration": 0.3783333333333303,
          "durationTicks": 227,
          "midi": 76,
          "name": "E5",
          "ticks": 100320,
          "time": 167.2,
          "velocity": 0.6299212598425197
        },
        {
          "duration": 0.3783333333333303,
          "durationTicks": 227,
          "midi": 74,
          "name": "D5",
          "ticks": 100560,
          "time": 167.60000000000002,
          "velocity": 0.6299212598425197
        },
        {
          "duration": 0.3783333333333303,
          "durationTicks": 227,
          "midi": 79,
          "name": "G5",
          "ticks": 100800,
          "time": 168,
          "velocity": 0.6299212598425197
        },
        {
          "duration": 0.7583333333333542,
          "durationTicks": 455,
          "midi": 79,
          "name": "G5",
          "ticks": 101040,
          "time": 168.4,
          "velocity": 0.6299212598425197
        },
        {
          "duration": 0.3783333333333303,
          "durationTicks": 227,
          "midi": 76,
          "name": "E5",
          "ticks": 101520,
          "time": 169.2,
          "velocity": 0.6299212598425197
        },
        {
          "duration": 1.5183333333333167,
          "durationTicks": 911,
          "midi": 81,
          "name": "A5",
          "ticks": 101760,
          "time": 169.60000000000002,
          "velocity": 0.6299212598425197
        },
        {
          "duration": 2.65833333333336,
          "durationTicks": 1595,
          "midi": 76,
          "name": "E5",
          "ticks": 102720,
          "time": 171.2,
          "velocity": 0.6299212598425197
        },
        {
          "duration": 0.3783333333333303,
          "durationTicks": 227,
          "midi": 72,
          "name": "C5",
          "ticks": 104400,
          "time": 174,
          "velocity": 0.6299212598425197
        },
        {
          "duration": 0.3783333333333303,
          "durationTicks": 227,
          "midi": 74,
          "name": "D5",
          "ticks": 104640,
          "time": 174.4,
          "velocity": 0.6299212598425197
        },
        {
          "duration": 0.3783333333333303,
          "durationTicks": 227,
          "midi": 72,
          "name": "C5",
          "ticks": 104880,
          "time": 174.8,
          "velocity": 0.6299212598425197
        },
        {
          "duration": 0.3783333333333303,
          "durationTicks": 227,
          "midi": 74,
          "name": "D5",
          "ticks": 105120,
          "time": 175.2,
          "velocity": 0.6299212598425197
        },
        {
          "duration": 0.3783333333333303,
          "durationTicks": 227,
          "midi": 69,
          "name": "A4",
          "ticks": 105360,
          "time": 175.60000000000002,
          "velocity": 0.6299212598425197
        },
        {
          "duration": 0.3783333333333303,
          "durationTicks": 227,
          "midi": 72,
          "name": "C5",
          "ticks": 105600,
          "time": 176,
          "velocity": 0.6299212598425197
        },
        {
          "duration": 1.1383333333333496,
          "durationTicks": 683,
          "midi": 69,
          "name": "A4",
          "ticks": 105840,
          "time": 176.4,
          "velocity": 0.6299212598425197
        },
        {
          "duration": 0.5049999999999955,
          "durationTicks": 303,
          "midi": 71,
          "name": "B4",
          "ticks": 106560,
          "time": 177.60000000000002,
          "velocity": 0.6299212598425197
        },
        {
          "duration": 0.5049999999999955,
          "durationTicks": 303,
          "midi": 76,
          "name": "E5",
          "ticks": 106560,
          "time": 177.60000000000002,
          "velocity": 0.6299212598425197
        },
        {
          "duration": 0.5049999999999955,
          "durationTicks": 303,
          "midi": 71,
          "name": "B4",
          "ticks": 106880,
          "time": 178.13333333333333,
          "velocity": 0.6299212598425197
        },
        {
          "duration": 0.5049999999999955,
          "durationTicks": 303,
          "midi": 76,
          "name": "E5",
          "ticks": 106880,
          "time": 178.13333333333333,
          "velocity": 0.6299212598425197
        },
        {
          "duration": 0.5049999999999955,
          "durationTicks": 303,
          "midi": 71,
          "name": "B4",
          "ticks": 107200,
          "time": 178.66666666666669,
          "velocity": 0.6299212598425197
        },
        {
          "duration": 0.5049999999999955,
          "durationTicks": 303,
          "midi": 79,
          "name": "G5",
          "ticks": 107200,
          "time": 178.66666666666669,
          "velocity": 0.6299212598425197
        },
        {
          "duration": 1.5183333333333167,
          "durationTicks": 911,
          "midi": 72,
          "name": "C5",
          "ticks": 107520,
          "time": 179.20000000000002,
          "velocity": 0.6299212598425197
        },
        {
          "duration": 1.5183333333333167,
          "durationTicks": 911,
          "midi": 81,
          "name": "A5",
          "ticks": 107520,
          "time": 179.20000000000002,
          "velocity": 0.6299212598425197
        },
        {
          "duration": 1.1383333333333212,
          "durationTicks": 683,
          "midi": 79,
          "name": "G5",
          "ticks": 108480,
          "time": 180.8,
          "velocity": 0.6299212598425197
        },
        {
          "duration": 0.3783333333333303,
          "durationTicks": 227,
          "midi": 76,
          "name": "E5",
          "ticks": 109200,
          "time": 182,
          "velocity": 0.6299212598425197
        },
        {
          "duration": 0.3783333333333303,
          "durationTicks": 227,
          "midi": 76,
          "name": "E5",
          "ticks": 109440,
          "time": 182.4,
          "velocity": 0.6299212598425197
        },
        {
          "duration": 0.3783333333333303,
          "durationTicks": 227,
          "midi": 74,
          "name": "D5",
          "ticks": 109680,
          "time": 182.8,
          "velocity": 0.6299212598425197
        },
        {
          "duration": 2.278333333333336,
          "durationTicks": 1367,
          "midi": 72,
          "name": "C5",
          "ticks": 109920,
          "time": 183.20000000000002,
          "velocity": 0.6299212598425197
        },
        {
          "duration": 0.3783333333333303,
          "durationTicks": 227,
          "midi": 69,
          "name": "A4",
          "ticks": 111840,
          "time": 186.4,
          "velocity": 0.6299212598425197
        },
        {
          "duration": 0.3783333333333303,
          "durationTicks": 227,
          "midi": 72,
          "name": "C5",
          "ticks": 112080,
          "time": 186.8,
          "velocity": 0.6299212598425197
        },
        {
          "duration": 0.3783333333333303,
          "durationTicks": 227,
          "midi": 74,
          "name": "D5",
          "ticks": 112320,
          "time": 187.20000000000002,
          "velocity": 0.6299212598425197
        },
        {
          "duration": 0.3783333333333303,
          "durationTicks": 227,
          "midi": 72,
          "name": "C5",
          "ticks": 112560,
          "time": 187.60000000000002,
          "velocity": 0.6299212598425197
        },
        {
          "duration": 0.3783333333333303,
          "durationTicks": 227,
          "midi": 72,
          "name": "C5",
          "ticks": 112800,
          "time": 188,
          "velocity": 0.6299212598425197
        },
        {
          "duration": 0.3783333333333303,
          "durationTicks": 227,
          "midi": 69,
          "name": "A4",
          "ticks": 113040,
          "time": 188.4,
          "velocity": 0.6299212598425197
        },
        {
          "duration": 0.3783333333333303,
          "durationTicks": 227,
          "midi": 72,
          "name": "C5",
          "ticks": 113280,
          "time": 188.8,
          "velocity": 0.6299212598425197
        },
        {
          "duration": 2.6583333333333314,
          "durationTicks": 1595,
          "midi": 69,
          "name": "A4",
          "ticks": 113520,
          "time": 189.20000000000002,
          "velocity": 0.6299212598425197
        },
        {
          "duration": 0.18833333333333258,
          "durationTicks": 113,
          "midi": 71,
          "name": "B4",
          "ticks": 115920,
          "time": 193.20000000000002,
          "velocity": 0.6299212598425197
        },
        {
          "duration": 0.18833333333333258,
          "durationTicks": 113,
          "midi": 69,
          "name": "A4",
          "ticks": 116040,
          "time": 193.4,
          "velocity": 0.6299212598425197
        },
        {
          "duration": 1.1383333333333212,
          "durationTicks": 683,
          "midi": 71,
          "name": "B4",
          "ticks": 116160,
          "time": 193.60000000000002,
          "velocity": 0.6299212598425197
        },
        {
          "duration": 0.3783333333333303,
          "durationTicks": 227,
          "midi": 69,
          "name": "A4",
          "ticks": 116880,
          "time": 194.8,
          "velocity": 0.6299212598425197
        },
        {
          "duration": 0.3783333333333303,
          "durationTicks": 227,
          "midi": 69,
          "name": "A4",
          "ticks": 117120,
          "time": 195.20000000000002,
          "velocity": 0.6299212598425197
        },
        {
          "duration": 1.8983333333333121,
          "durationTicks": 1139,
          "midi": 67,
          "name": "G4",
          "ticks": 117360,
          "time": 195.60000000000002,
          "velocity": 0.6299212598425197
        },
        {
          "duration": 0.3783333333333303,
          "durationTicks": 227,
          "midi": 69,
          "name": "A4",
          "ticks": 118560,
          "time": 197.60000000000002,
          "velocity": 0.6299212598425197
        },
        {
          "duration": 0.3783333333333303,
          "durationTicks": 227,
          "midi": 72,
          "name": "C5",
          "ticks": 118800,
          "time": 198,
          "velocity": 0.6299212598425197
        },
        {
          "duration": 0.7583333333333542,
          "durationTicks": 455,
          "midi": 72,
          "name": "C5",
          "ticks": 119040,
          "time": 198.4,
          "velocity": 0.6299212598425197
        },
        {
          "duration": 0.3783333333333303,
          "durationTicks": 227,
          "midi": 69,
          "name": "A4",
          "ticks": 119520,
          "time": 199.20000000000002,
          "velocity": 0.6299212598425197
        },
        {
          "duration": 1.1383333333333212,
          "durationTicks": 683,
          "midi": 67,
          "name": "G4",
          "ticks": 119760,
          "time": 199.60000000000002,
          "velocity": 0.6299212598425197
        },
        {
          "duration": 0.3783333333333303,
          "durationTicks": 227,
          "midi": 69,
          "name": "A4",
          "ticks": 120480,
          "time": 200.8,
          "velocity": 0.6299212598425197
        },
        {
          "duration": 0.3783333333333303,
          "durationTicks": 227,
          "midi": 72,
          "name": "C5",
          "ticks": 120720,
          "time": 201.20000000000002,
          "velocity": 0.6299212598425197
        },
        {
          "duration": 0.3783333333333303,
          "durationTicks": 227,
          "midi": 76,
          "name": "E5",
          "ticks": 120960,
          "time": 201.60000000000002,
          "velocity": 0.6299212598425197
        },
        {
          "duration": 0.3783333333333303,
          "durationTicks": 227,
          "midi": 74,
          "name": "D5",
          "ticks": 121200,
          "time": 202,
          "velocity": 0.6299212598425197
        },
        {
          "duration": 2.278333333333336,
          "durationTicks": 1367,
          "midi": 72,
          "name": "C5",
          "ticks": 121440,
          "time": 202.4,
          "velocity": 0.6299212598425197
        },
        {
          "duration": 3.4183333333333508,
          "durationTicks": 2051,
          "midi": 64,
          "name": "E4",
          "ticks": 122880,
          "time": 204.8,
          "velocity": 0.6299212598425197
        },
        {
          "duration": 0.3783333333333303,
          "durationTicks": 227,
          "midi": 62,
          "name": "D4",
          "ticks": 125040,
          "time": 208.4,
          "velocity": 0.6299212598425197
        },
        {
          "duration": 0.3783333333333303,
          "durationTicks": 227,
          "midi": 60,
          "name": "C4",
          "ticks": 125280,
          "time": 208.8,
          "velocity": 0.6299212598425197
        },
        {
          "duration": 0.3783333333333303,
          "durationTicks": 227,
          "midi": 59,
          "name": "B3",
          "ticks": 125520,
          "time": 209.20000000000002,
          "velocity": 0.6299212598425197
        },
        {
          "duration": 0.3783333333333303,
          "durationTicks": 227,
          "midi": 60,
          "name": "C4",
          "ticks": 125760,
          "time": 209.60000000000002,
          "velocity": 0.6299212598425197
        },
        {
          "duration": 0.3783333333333303,
          "durationTicks": 227,
          "midi": 62,
          "name": "D4",
          "ticks": 126000,
          "time": 210,
          "velocity": 0.6299212598425197
        },
        {
          "duration": 0.3783333333333303,
          "durationTicks": 227,
          "midi": 64,
          "name": "E4",
          "ticks": 126240,
          "time": 210.4,
          "velocity": 0.6299212598425197
        },
        {
          "duration": 0.3783333333333303,
          "durationTicks": 227,
          "midi": 60,
          "name": "C4",
          "ticks": 126480,
          "time": 210.8,
          "velocity": 0.6299212598425197
        },
        {
          "duration": 2.278333333333336,
          "durationTicks": 1367,
          "midi": 69,
          "name": "A4",
          "ticks": 126720,
          "time": 211.20000000000002,
          "velocity": 0.6299212598425197
        },
        {
          "duration": 0.3783333333333303,
          "durationTicks": 227,
          "midi": 71,
          "name": "B4",
          "ticks": 128160,
          "time": 213.60000000000002,
          "velocity": 0.6299212598425197
        },
        {
          "duration": 0.3783333333333303,
          "durationTicks": 227,
          "midi": 72,
          "name": "C5",
          "ticks": 128400,
          "time": 214,
          "velocity": 0.6299212598425197
        },
        {
          "duration": 0.188333333333361,
          "durationTicks": 113,
          "midi": 65,
          "name": "F4",
          "ticks": 128640,
          "time": 214.4,
          "velocity": 0.6299212598425197
        },
        {
          "duration": 0.18833333333333258,
          "durationTicks": 113,
          "midi": 64,
          "name": "E4",
          "ticks": 128760,
          "time": 214.60000000000002,
          "velocity": 0.6299212598425197
        },
        {
          "duration": 1.8983333333333405,
          "durationTicks": 1139,
          "midi": 65,
          "name": "F4",
          "ticks": 128880,
          "time": 214.8,
          "velocity": 0.6299212598425197
        },
        {
          "duration": 0.7583333333333258,
          "durationTicks": 455,
          "midi": 62,
          "name": "D4",
          "ticks": 130080,
          "time": 216.8,
          "velocity": 0.6299212598425197
        },
        {
          "duration": 2.2783333333333076,
          "durationTicks": 1367,
          "midi": 71,
          "name": "B4",
          "ticks": 130560,
          "time": 217.60000000000002,
          "velocity": 0.6299212598425197
        },
        {
          "duration": 0.3783333333333303,
          "durationTicks": 227,
          "midi": 72,
          "name": "C5",
          "ticks": 132000,
          "time": 220,
          "velocity": 0.6299212598425197
        },
        {
          "duration": 0.3783333333333303,
          "durationTicks": 227,
          "midi": 74,
          "name": "D5",
          "ticks": 132240,
          "time": 220.4,
          "velocity": 0.6299212598425197
        },
        {
          "duration": 0.18833333333333258,
          "durationTicks": 113,
          "midi": 67,
          "name": "G4",
          "ticks": 132480,
          "time": 220.8,
          "velocity": 0.6299212598425197
        },
        {
          "duration": 0.188333333333361,
          "durationTicks": 113,
          "midi": 65,
          "name": "F4",
          "ticks": 132600,
          "time": 221,
          "velocity": 0.6299212598425197
        },
        {
          "duration": 1.518333333333345,
          "durationTicks": 911,
          "midi": 67,
          "name": "G4",
          "ticks": 132720,
          "time": 221.20000000000002,
          "velocity": 0.6299212598425197
        },
        {
          "duration": 0.3783333333333303,
          "durationTicks": 227,
          "midi": 65,
          "name": "F4",
          "ticks": 133680,
          "time": 222.8,
          "velocity": 0.6299212598425197
        },
        {
          "duration": 0.3783333333333303,
          "durationTicks": 227,
          "midi": 64,
          "name": "E4",
          "ticks": 133920,
          "time": 223.20000000000002,
          "velocity": 0.6299212598425197
        },
        {
          "duration": 0.3783333333333303,
          "durationTicks": 227,
          "midi": 65,
          "name": "F4",
          "ticks": 134160,
          "time": 223.60000000000002,
          "velocity": 0.6299212598425197
        },
        {
          "duration": 0.3783333333333303,
          "durationTicks": 227,
          "midi": 65,
          "name": "F4",
          "ticks": 134400,
          "time": 224,
          "velocity": 0.6299212598425197
        },
        {
          "duration": 0.3783333333333303,
          "durationTicks": 227,
          "midi": 64,
          "name": "E4",
          "ticks": 134640,
          "time": 224.4,
          "velocity": 0.6299212598425197
        },
        {
          "duration": 0.3783333333333303,
          "durationTicks": 227,
          "midi": 62,
          "name": "D4",
          "ticks": 134880,
          "time": 224.8,
          "velocity": 0.6299212598425197
        },
        {
          "duration": 0.3783333333333303,
          "durationTicks": 227,
          "midi": 60,
          "name": "C4",
          "ticks": 135120,
          "time": 225.20000000000002,
          "velocity": 0.6299212598425197
        },
        {
          "duration": 0.3783333333333303,
          "durationTicks": 227,
          "midi": 60,
          "name": "C4",
          "ticks": 135360,
          "time": 225.60000000000002,
          "velocity": 0.6299212598425197
        },
        {
          "duration": 0.3783333333333303,
          "durationTicks": 227,
          "midi": 62,
          "name": "D4",
          "ticks": 135600,
          "time": 226,
          "velocity": 0.6299212598425197
        },
        {
          "duration": 0.3783333333333303,
          "durationTicks": 227,
          "midi": 64,
          "name": "E4",
          "ticks": 135840,
          "time": 226.4,
          "velocity": 0.6299212598425197
        },
        {
          "duration": 0.3783333333333303,
          "durationTicks": 227,
          "midi": 65,
          "name": "F4",
          "ticks": 136080,
          "time": 226.8,
          "velocity": 0.6299212598425197
        },
        {
          "duration": 0.3783333333333303,
          "durationTicks": 227,
          "midi": 59,
          "name": "B3",
          "ticks": 136320,
          "time": 227.20000000000002,
          "velocity": 0.6299212598425197
        },
        {
          "duration": 0.3783333333333303,
          "durationTicks": 227,
          "midi": 60,
          "name": "C4",
          "ticks": 136560,
          "time": 227.60000000000002,
          "velocity": 0.6299212598425197
        },
        {
          "duration": 0.3783333333333303,
          "durationTicks": 227,
          "midi": 62,
          "name": "D4",
          "ticks": 136800,
          "time": 228,
          "velocity": 0.6299212598425197
        },
        {
          "duration": 0.3783333333333303,
          "durationTicks": 227,
          "midi": 64,
          "name": "E4",
          "ticks": 137040,
          "time": 228.4,
          "velocity": 0.6299212598425197
        },
        {
          "duration": 0.3783333333333303,
          "durationTicks": 227,
          "midi": 65,
          "name": "F4",
          "ticks": 137280,
          "time": 228.8,
          "velocity": 0.6299212598425197
        },
        {
          "duration": 0.3783333333333303,
          "durationTicks": 227,
          "midi": 64,
          "name": "E4",
          "ticks": 137520,
          "time": 229.20000000000002,
          "velocity": 0.6299212598425197
        },
        {
          "duration": 0.3783333333333303,
          "durationTicks": 227,
          "midi": 65,
          "name": "F4",
          "ticks": 137760,
          "time": 229.60000000000002,
          "velocity": 0.6299212598425197
        },
        {
          "duration": 0.3783333333333303,
          "durationTicks": 227,
          "midi": 62,
          "name": "D4",
          "ticks": 138000,
          "time": 230,
          "velocity": 0.6299212598425197
        },
        {
          "duration": 0.3783333333333303,
          "durationTicks": 227,
          "midi": 65,
          "name": "F4",
          "ticks": 138240,
          "time": 230.4,
          "velocity": 0.6299212598425197
        },
        {
          "duration": 0.3783333333333303,
          "durationTicks": 227,
          "midi": 64,
          "name": "E4",
          "ticks": 138480,
          "time": 230.8,
          "velocity": 0.6299212598425197
        },
        {
          "duration": 0.3783333333333303,
          "durationTicks": 227,
          "midi": 62,
          "name": "D4",
          "ticks": 138720,
          "time": 231.20000000000002,
          "velocity": 0.6299212598425197
        },
        {
          "duration": 0.3783333333333303,
          "durationTicks": 227,
          "midi": 60,
          "name": "C4",
          "ticks": 138960,
          "time": 231.60000000000002,
          "velocity": 0.6299212598425197
        },
        {
          "duration": 1.1383333333333496,
          "durationTicks": 683,
          "midi": 59,
          "name": "B3",
          "ticks": 139200,
          "time": 232,
          "velocity": 0.6299212598425197
        },
        {
          "duration": 0.3783333333333303,
          "durationTicks": 227,
          "midi": 60,
          "name": "C4",
          "ticks": 139920,
          "time": 233.20000000000002,
          "velocity": 0.6299212598425197
        },
        {
          "duration": 3.038333333333327,
          "durationTicks": 1823,
          "midi": 60,
          "name": "C4",
          "ticks": 140160,
          "time": 233.60000000000002,
          "velocity": 0.6299212598425197
        }
      ],
      "endOfTrackTicks": 141984
    },
    {
      "channel": 0,
      "controlChanges": {},
      "pitchBends": [],
      "instrument": {
        "family": "piano",
        "name": "acoustic grand piano",
        "number": 0
      },
      "name": "Piano\u0000",
      "notes": [
        {
          "duration": 0.7583333333333333,
          "durationTicks": 455,
          "midi": 48,
          "name": "C3",
          "ticks": 0,
          "time": 0,
          "velocity": 0.6299212598425197
        },
        {
          "duration": 0.7583333333333333,
          "durationTicks": 455,
          "midi": 52,
          "name": "E3",
          "ticks": 0,
          "time": 0,
          "velocity": 0.6299212598425197
        },
        {
          "duration": 0.7583333333333335,
          "durationTicks": 455,
          "midi": 48,
          "name": "C3",
          "ticks": 480,
          "time": 0.8,
          "velocity": 0.6299212598425197
        },
        {
          "duration": 0.7583333333333335,
          "durationTicks": 455,
          "midi": 52,
          "name": "E3",
          "ticks": 480,
          "time": 0.8,
          "velocity": 0.6299212598425197
        },
        {
          "duration": 0.7583333333333333,
          "durationTicks": 455,
          "midi": 47,
          "name": "B2",
          "ticks": 960,
          "time": 1.6,
          "velocity": 0.6299212598425197
        },
        {
          "duration": 0.7583333333333333,
          "durationTicks": 455,
          "midi": 52,
          "name": "E3",
          "ticks": 960,
          "time": 1.6,
          "velocity": 0.6299212598425197
        },
        {
          "duration": 0.7583333333333329,
          "durationTicks": 455,
          "midi": 47,
          "name": "B2",
          "ticks": 1440,
          "time": 2.4000000000000004,
          "velocity": 0.6299212598425197
        },
        {
          "duration": 0.7583333333333329,
          "durationTicks": 455,
          "midi": 52,
          "name": "E3",
          "ticks": 1440,
          "time": 2.4000000000000004,
          "velocity": 0.6299212598425197
        },
        {
          "duration": 0.7583333333333337,
          "durationTicks": 455,
          "midi": 45,
          "name": "A2",
          "ticks": 1920,
          "time": 3.2,
          "velocity": 0.6299212598425197
        },
        {
          "duration": 0.7583333333333337,
          "durationTicks": 455,
          "midi": 52,
          "name": "E3",
          "ticks": 1920,
          "time": 3.2,
          "velocity": 0.6299212598425197
        },
        {
          "duration": 0.7583333333333337,
          "durationTicks": 455,
          "midi": 45,
          "name": "A2",
          "ticks": 2400,
          "time": 4,
          "velocity": 0.6299212598425197
        },
        {
          "duration": 0.7583333333333337,
          "durationTicks": 455,
          "midi": 52,
          "name": "E3",
          "ticks": 2400,
          "time": 4,
          "velocity": 0.6299212598425197
        },
        {
          "duration": 0.7583333333333329,
          "durationTicks": 455,
          "midi": 43,
          "name": "G2",
          "ticks": 2880,
          "time": 4.800000000000001,
          "velocity": 0.6299212598425197
        },
        {
          "duration": 0.7583333333333329,
          "durationTicks": 455,
          "midi": 52,
          "name": "E3",
          "ticks": 2880,
          "time": 4.800000000000001,
          "velocity": 0.6299212598425197
        },
        {
          "duration": 0.7583333333333337,
          "durationTicks": 455,
          "midi": 43,
          "name": "G2",
          "ticks": 3360,
          "time": 5.6000000000000005,
          "velocity": 0.6299212598425197
        },
        {
          "duration": 0.7583333333333337,
          "durationTicks": 455,
          "midi": 52,
          "name": "E3",
          "ticks": 3360,
          "time": 5.6000000000000005,
          "velocity": 0.6299212598425197
        },
        {
          "duration": 0.7583333333333329,
          "durationTicks": 455,
          "midi": 53,
          "name": "F3",
          "ticks": 3840,
          "time": 6.4,
          "velocity": 0.6299212598425197
        },
        {
          "duration": 0.7583333333333329,
          "durationTicks": 455,
          "midi": 57,
          "name": "A3",
          "ticks": 3840,
          "time": 6.4,
          "velocity": 0.6299212598425197
        },
        {
          "duration": 0.7583333333333329,
          "durationTicks": 455,
          "midi": 53,
          "name": "F3",
          "ticks": 4320,
          "time": 7.2,
          "velocity": 0.6299212598425197
        },
        {
          "duration": 0.7583333333333329,
          "durationTicks": 455,
          "midi": 57,
          "name": "A3",
          "ticks": 4320,
          "time": 7.2,
          "velocity": 0.6299212598425197
        },
        {
          "duration": 0.7583333333333329,
          "durationTicks": 455,
          "midi": 52,
          "name": "E3",
          "ticks": 4800,
          "time": 8,
          "velocity": 0.6299212598425197
        },
        {
          "duration": 0.7583333333333329,
          "durationTicks": 455,
          "midi": 57,
          "name": "A3",
          "ticks": 4800,
          "time": 8,
          "velocity": 0.6299212598425197
        },
        {
          "duration": 0.7583333333333329,
          "durationTicks": 455,
          "midi": 52,
          "name": "E3",
          "ticks": 5280,
          "time": 8.8,
          "velocity": 0.6299212598425197
        },
        {
          "duration": 0.7583333333333329,
          "durationTicks": 455,
          "midi": 57,
          "name": "A3",
          "ticks": 5280,
          "time": 8.8,
          "velocity": 0.6299212598425197
        },
        {
          "duration": 0.7583333333333329,
          "durationTicks": 455,
          "midi": 50,
          "name": "D3",
          "ticks": 5760,
          "time": 9.600000000000001,
          "velocity": 0.6299212598425197
        },
        {
          "duration": 0.7583333333333329,
          "durationTicks": 455,
          "midi": 57,
          "name": "A3",
          "ticks": 5760,
          "time": 9.600000000000001,
          "velocity": 0.6299212598425197
        },
        {
          "duration": 0.7583333333333329,
          "durationTicks": 455,
          "midi": 50,
          "name": "D3",
          "ticks": 6240,
          "time": 10.4,
          "velocity": 0.6299212598425197
        },
        {
          "duration": 0.7583333333333329,
          "durationTicks": 455,
          "midi": 57,
          "name": "A3",
          "ticks": 6240,
          "time": 10.4,
          "velocity": 0.6299212598425197
        },
        {
          "duration": 0.7583333333333329,
          "durationTicks": 455,
          "midi": 48,
          "name": "C3",
          "ticks": 6720,
          "time": 11.200000000000001,
          "velocity": 0.6299212598425197
        },
        {
          "duration": 0.7583333333333329,
          "durationTicks": 455,
          "midi": 57,
          "name": "A3",
          "ticks": 6720,
          "time": 11.200000000000001,
          "velocity": 0.6299212598425197
        },
        {
          "duration": 0.7583333333333329,
          "durationTicks": 455,
          "midi": 48,
          "name": "C3",
          "ticks": 7200,
          "time": 12,
          "velocity": 0.6299212598425197
        },
        {
          "duration": 0.7583333333333329,
          "durationTicks": 455,
          "midi": 57,
          "name": "A3",
          "ticks": 7200,
          "time": 12,
          "velocity": 0.6299212598425197
        },
        {
          "duration": 0.7583333333333346,
          "durationTicks": 455,
          "midi": 55,
          "name": "G3",
          "ticks": 7680,
          "time": 12.8,
          "velocity": 0.6299212598425197
        },
        {
          "duration": 0.7583333333333346,
          "durationTicks": 455,
          "midi": 59,
          "name": "B3",
          "ticks": 7680,
          "time": 12.8,
          "velocity": 0.6299212598425197
        },
        {
          "duration": 0.7583333333333329,
          "durationTicks": 455,
          "midi": 55,
          "name": "G3",
          "ticks": 8160,
          "time": 13.600000000000001,
          "velocity": 0.6299212598425197
        },
        {
          "duration": 0.7583333333333329,
          "durationTicks": 455,
          "midi": 59,
          "name": "B3",
          "ticks": 8160,
          "time": 13.600000000000001,
          "velocity": 0.6299212598425197
        },
        {
          "duration": 0.7583333333333346,
          "durationTicks": 455,
          "midi": 53,
          "name": "F3",
          "ticks": 8640,
          "time": 14.4,
          "velocity": 0.6299212598425197
        },
        {
          "duration": 0.7583333333333346,
          "durationTicks": 455,
          "midi": 59,
          "name": "B3",
          "ticks": 8640,
          "time": 14.4,
          "velocity": 0.6299212598425197
        },
        {
          "duration": 0.7583333333333346,
          "durationTicks": 455,
          "midi": 53,
          "name": "F3",
          "ticks": 9120,
          "time": 15.200000000000001,
          "velocity": 0.6299212598425197
        },
        {
          "duration": 0.7583333333333346,
          "durationTicks": 455,
          "midi": 59,
          "name": "B3",
          "ticks": 9120,
          "time": 15.200000000000001,
          "velocity": 0.6299212598425197
        },
        {
          "duration": 0.7583333333333364,
          "durationTicks": 455,
          "midi": 52,
          "name": "E3",
          "ticks": 9600,
          "time": 16,
          "velocity": 0.6299212598425197
        },
        {
          "duration": 0.7583333333333364,
          "durationTicks": 455,
          "midi": 59,
          "name": "B3",
          "ticks": 9600,
          "time": 16,
          "velocity": 0.6299212598425197
        },
        {
          "duration": 0.7583333333333329,
          "durationTicks": 455,
          "midi": 52,
          "name": "E3",
          "ticks": 10080,
          "time": 16.8,
          "velocity": 0.6299212598425197
        },
        {
          "duration": 0.7583333333333329,
          "durationTicks": 455,
          "midi": 59,
          "name": "B3",
          "ticks": 10080,
          "time": 16.8,
          "velocity": 0.6299212598425197
        },
        {
          "duration": 0.7583333333333329,
          "durationTicks": 455,
          "midi": 50,
          "name": "D3",
          "ticks": 10560,
          "time": 17.6,
          "velocity": 0.6299212598425197
        },
        {
          "duration": 0.7583333333333329,
          "durationTicks": 455,
          "midi": 59,
          "name": "B3",
          "ticks": 10560,
          "time": 17.6,
          "velocity": 0.6299212598425197
        },
        {
          "duration": 0.7583333333333329,
          "durationTicks": 455,
          "midi": 50,
          "name": "D3",
          "ticks": 11040,
          "time": 18.400000000000002,
          "velocity": 0.6299212598425197
        },
        {
          "duration": 0.7583333333333329,
          "durationTicks": 455,
          "midi": 59,
          "name": "B3",
          "ticks": 11040,
          "time": 18.400000000000002,
          "velocity": 0.6299212598425197
        },
        {
          "duration": 1.5183333333333309,
          "durationTicks": 911,
          "midi": 48,
          "name": "C3",
          "ticks": 11520,
          "time": 19.200000000000003,
          "velocity": 0.6299212598425197
        },
        {
          "duration": 1.5183333333333309,
          "durationTicks": 911,
          "midi": 55,
          "name": "G3",
          "ticks": 11520,
          "time": 19.200000000000003,
          "velocity": 0.6299212598425197
        },
        {
          "duration": 1.5183333333333344,
          "durationTicks": 911,
          "midi": 53,
          "name": "F3",
          "ticks": 12480,
          "time": 20.8,
          "velocity": 0.6299212598425197
        },
        {
          "duration": 1.5183333333333344,
          "durationTicks": 911,
          "midi": 57,
          "name": "A3",
          "ticks": 12480,
          "time": 20.8,
          "velocity": 0.6299212598425197
        },
        {
          "duration": 1.5183333333333344,
          "durationTicks": 911,
          "midi": 55,
          "name": "G3",
          "ticks": 13440,
          "time": 22.400000000000002,
          "velocity": 0.6299212598425197
        },
        {
          "duration": 0.7583333333333364,
          "durationTicks": 455,
          "midi": 45,
          "name": "A2",
          "ticks": 14400,
          "time": 24,
          "velocity": 0.6299212598425197
        },
        {
          "duration": 0.7583333333333364,
          "durationTicks": 455,
          "midi": 47,
          "name": "B2",
          "ticks": 14880,
          "time": 24.8,
          "velocity": 0.6299212598425197
        },
        {
          "duration": 0.7583333333333329,
          "durationTicks": 455,
          "midi": 48,
          "name": "C3",
          "ticks": 15360,
          "time": 25.6,
          "velocity": 0.6299212598425197
        },
        {
          "duration": 0.7583333333333329,
          "durationTicks": 455,
          "midi": 52,
          "name": "E3",
          "ticks": 15360,
          "time": 25.6,
          "velocity": 0.6299212598425197
        },
        {
          "duration": 0.7583333333333293,
          "durationTicks": 455,
          "midi": 48,
          "name": "C3",
          "ticks": 15840,
          "time": 26.400000000000002,
          "velocity": 0.6299212598425197
        },
        {
          "duration": 0.7583333333333293,
          "durationTicks": 455,
          "midi": 52,
          "name": "E3",
          "ticks": 15840,
          "time": 26.400000000000002,
          "velocity": 0.6299212598425197
        },
        {
          "duration": 0.7583333333333293,
          "durationTicks": 455,
          "midi": 47,
          "name": "B2",
          "ticks": 16320,
          "time": 27.200000000000003,
          "velocity": 0.6299212598425197
        },
        {
          "duration": 0.7583333333333293,
          "durationTicks": 455,
          "midi": 52,
          "name": "E3",
          "ticks": 16320,
          "time": 27.200000000000003,
          "velocity": 0.6299212598425197
        },
        {
          "duration": 0.7583333333333329,
          "durationTicks": 455,
          "midi": 47,
          "name": "B2",
          "ticks": 16800,
          "time": 28,
          "velocity": 0.6299212598425197
        },
        {
          "duration": 0.7583333333333329,
          "durationTicks": 455,
          "midi": 52,
          "name": "E3",
          "ticks": 16800,
          "time": 28,
          "velocity": 0.6299212598425197
        },
        {
          "duration": 0.7583333333333329,
          "durationTicks": 455,
          "midi": 45,
          "name": "A2",
          "ticks": 17280,
          "time": 28.8,
          "velocity": 0.6299212598425197
        },
        {
          "duration": 0.7583333333333329,
          "durationTicks": 455,
          "midi": 52,
          "name": "E3",
          "ticks": 17280,
          "time": 28.8,
          "velocity": 0.6299212598425197
        },
        {
          "duration": 0.7583333333333329,
          "durationTicks": 455,
          "midi": 45,
          "name": "A2",
          "ticks": 17760,
          "time": 29.6,
          "velocity": 0.6299212598425197
        },
        {
          "duration": 0.7583333333333329,
          "durationTicks": 455,
          "midi": 52,
          "name": "E3",
          "ticks": 17760,
          "time": 29.6,
          "velocity": 0.6299212598425197
        },
        {
          "duration": 0.7583333333333293,
          "durationTicks": 455,
          "midi": 43,
          "name": "G2",
          "ticks": 18240,
          "time": 30.400000000000002,
          "velocity": 0.6299212598425197
        },
        {
          "duration": 0.7583333333333293,
          "durationTicks": 455,
          "midi": 52,
          "name": "E3",
          "ticks": 18240,
          "time": 30.400000000000002,
          "velocity": 0.6299212598425197
        },
        {
          "duration": 0.7583333333333293,
          "durationTicks": 455,
          "midi": 43,
          "name": "G2",
          "ticks": 18720,
          "time": 31.200000000000003,
          "velocity": 0.6299212598425197
        },
        {
          "duration": 0.7583333333333293,
          "durationTicks": 455,
          "midi": 52,
          "name": "E3",
          "ticks": 18720,
          "time": 31.200000000000003,
          "velocity": 0.6299212598425197
        },
        {
          "duration": 0.7583333333333329,
          "durationTicks": 455,
          "midi": 53,
          "name": "F3",
          "ticks": 19200,
          "time": 32,
          "velocity": 0.6299212598425197
        },
        {
          "duration": 0.7583333333333329,
          "durationTicks": 455,
          "midi": 57,
          "name": "A3",
          "ticks": 19200,
          "time": 32,
          "velocity": 0.6299212598425197
        },
        {
          "duration": 0.7583333333333258,
          "durationTicks": 455,
          "midi": 53,
          "name": "F3",
          "ticks": 19680,
          "time": 32.800000000000004,
          "velocity": 0.6299212598425197
        },
        {
          "duration": 0.7583333333333258,
          "durationTicks": 455,
          "midi": 57,
          "name": "A3",
          "ticks": 19680,
          "time": 32.800000000000004,
          "velocity": 0.6299212598425197
        },
        {
          "duration": 0.7583333333333329,
          "durationTicks": 455,
          "midi": 52,
          "name": "E3",
          "ticks": 20160,
          "time": 33.6,
          "velocity": 0.6299212598425197
        },
        {
          "duration": 0.7583333333333329,
          "durationTicks": 455,
          "midi": 57,
          "name": "A3",
          "ticks": 20160,
          "time": 33.6,
          "velocity": 0.6299212598425197
        },
        {
          "duration": 0.7583333333333329,
          "durationTicks": 455,
          "midi": 52,
          "name": "E3",
          "ticks": 20640,
          "time": 34.4,
          "velocity": 0.6299212598425197
        },
        {
          "duration": 0.7583333333333329,
          "durationTicks": 455,
          "midi": 57,
          "name": "A3",
          "ticks": 20640,
          "time": 34.4,
          "velocity": 0.6299212598425197
        },
        {
          "duration": 0.7583333333333329,
          "durationTicks": 455,
          "midi": 50,
          "name": "D3",
          "ticks": 21120,
          "time": 35.2,
          "velocity": 0.6299212598425197
        },
        {
          "duration": 0.7583333333333329,
          "durationTicks": 455,
          "midi": 57,
          "name": "A3",
          "ticks": 21120,
          "time": 35.2,
          "velocity": 0.6299212598425197
        },
        {
          "duration": 0.7583333333333329,
          "durationTicks": 455,
          "midi": 50,
          "name": "D3",
          "ticks": 21600,
          "time": 36,
          "velocity": 0.6299212598425197
        },
        {
          "duration": 0.7583333333333329,
          "durationTicks": 455,
          "midi": 57,
          "name": "A3",
          "ticks": 21600,
          "time": 36,
          "velocity": 0.6299212598425197
        },
        {
          "duration": 0.7583333333333258,
          "durationTicks": 455,
          "midi": 48,
          "name": "C3",
          "ticks": 22080,
          "time": 36.800000000000004,
          "velocity": 0.6299212598425197
        },
        {
          "duration": 0.7583333333333258,
          "durationTicks": 455,
          "midi": 57,
          "name": "A3",
          "ticks": 22080,
          "time": 36.800000000000004,
          "velocity": 0.6299212598425197
        },
        {
          "duration": 0.7583333333333329,
          "durationTicks": 455,
          "midi": 48,
          "name": "C3",
          "ticks": 22560,
          "time": 37.6,
          "velocity": 0.6299212598425197
        },
        {
          "duration": 0.7583333333333329,
          "durationTicks": 455,
          "midi": 57,
          "name": "A3",
          "ticks": 22560,
          "time": 37.6,
          "velocity": 0.6299212598425197
        },
        {
          "duration": 0.7583333333333258,
          "durationTicks": 455,
          "midi": 55,
          "name": "G3",
          "ticks": 23040,
          "time": 38.400000000000006,
          "velocity": 0.6299212598425197
        },
        {
          "duration": 0.7583333333333258,
          "durationTicks": 455,
          "midi": 59,
          "name": "B3",
          "ticks": 23040,
          "time": 38.400000000000006,
          "velocity": 0.6299212598425197
        },
        {
          "duration": 0.7583333333333329,
          "durationTicks": 455,
          "midi": 55,
          "name": "G3",
          "ticks": 23520,
          "time": 39.2,
          "velocity": 0.6299212598425197
        },
        {
          "duration": 0.7583333333333329,
          "durationTicks": 455,
          "midi": 59,
          "name": "B3",
          "ticks": 23520,
          "time": 39.2,
          "velocity": 0.6299212598425197
        },
        {
          "duration": 0.7583333333333329,
          "durationTicks": 455,
          "midi": 53,
          "name": "F3",
          "ticks": 24000,
          "time": 40,
          "velocity": 0.6299212598425197
        },
        {
          "duration": 0.7583333333333329,
          "durationTicks": 455,
          "midi": 59,
          "name": "B3",
          "ticks": 24000,
          "time": 40,
          "velocity": 0.6299212598425197
        },
        {
          "duration": 0.7583333333333329,
          "durationTicks": 455,
          "midi": 53,
          "name": "F3",
          "ticks": 24480,
          "time": 40.800000000000004,
          "velocity": 0.6299212598425197
        },
        {
          "duration": 0.7583333333333329,
          "durationTicks": 455,
          "midi": 59,
          "name": "B3",
          "ticks": 24480,
          "time": 40.800000000000004,
          "velocity": 0.6299212598425197
        },
        {
          "duration": 0.7583333333333329,
          "durationTicks": 455,
          "midi": 52,
          "name": "E3",
          "ticks": 24960,
          "time": 41.6,
          "velocity": 0.6299212598425197
        },
        {
          "duration": 0.7583333333333329,
          "durationTicks": 455,
          "midi": 59,
          "name": "B3",
          "ticks": 24960,
          "time": 41.6,
          "velocity": 0.6299212598425197
        },
        {
          "duration": 0.7583333333333258,
          "durationTicks": 455,
          "midi": 52,
          "name": "E3",
          "ticks": 25440,
          "time": 42.400000000000006,
          "velocity": 0.6299212598425197
        },
        {
          "duration": 0.7583333333333258,
          "durationTicks": 455,
          "midi": 59,
          "name": "B3",
          "ticks": 25440,
          "time": 42.400000000000006,
          "velocity": 0.6299212598425197
        },
        {
          "duration": 0.7583333333333329,
          "durationTicks": 455,
          "midi": 50,
          "name": "D3",
          "ticks": 25920,
          "time": 43.2,
          "velocity": 0.6299212598425197
        },
        {
          "duration": 0.7583333333333329,
          "durationTicks": 455,
          "midi": 59,
          "name": "B3",
          "ticks": 25920,
          "time": 43.2,
          "velocity": 0.6299212598425197
        },
        {
          "duration": 0.7583333333333329,
          "durationTicks": 455,
          "midi": 50,
          "name": "D3",
          "ticks": 26400,
          "time": 44,
          "velocity": 0.6299212598425197
        },
        {
          "duration": 0.7583333333333329,
          "durationTicks": 455,
          "midi": 59,
          "name": "B3",
          "ticks": 26400,
          "time": 44,
          "velocity": 0.6299212598425197
        },
        {
          "duration": 0.7583333333333329,
          "durationTicks": 455,
          "midi": 48,
          "name": "C3",
          "ticks": 26880,
          "time": 44.800000000000004,
          "velocity": 0.6299212598425197
        },
        {
          "duration": 0.7583333333333329,
          "durationTicks": 455,
          "midi": 52,
          "name": "E3",
          "ticks": 26880,
          "time": 44.800000000000004,
          "velocity": 0.6299212598425197
        },
        {
          "duration": 0.7583333333333329,
          "durationTicks": 455,
          "midi": 48,
          "name": "C3",
          "ticks": 27360,
          "time": 45.6,
          "velocity": 0.6299212598425197
        },
        {
          "duration": 0.7583333333333329,
          "durationTicks": 455,
          "midi": 52,
          "name": "E3",
          "ticks": 27360,
          "time": 45.6,
          "velocity": 0.6299212598425197
        },
        {
          "duration": 0.7583333333333258,
          "durationTicks": 455,
          "midi": 47,
          "name": "B2",
          "ticks": 27840,
          "time": 46.400000000000006,
          "velocity": 0.6299212598425197
        },
        {
          "duration": 0.7583333333333258,
          "durationTicks": 455,
          "midi": 52,
          "name": "E3",
          "ticks": 27840,
          "time": 46.400000000000006,
          "velocity": 0.6299212598425197
        },
        {
          "duration": 0.7583333333333329,
          "durationTicks": 455,
          "midi": 47,
          "name": "B2",
          "ticks": 28320,
          "time": 47.2,
          "velocity": 0.6299212598425197
        },
        {
          "duration": 0.7583333333333329,
          "durationTicks": 455,
          "midi": 52,
          "name": "E3",
          "ticks": 28320,
          "time": 47.2,
          "velocity": 0.6299212598425197
        },
        {
          "duration": 0.7583333333333329,
          "durationTicks": 455,
          "midi": 45,
          "name": "A2",
          "ticks": 28800,
          "time": 48,
          "velocity": 0.6299212598425197
        },
        {
          "duration": 0.7583333333333329,
          "durationTicks": 455,
          "midi": 52,
          "name": "E3",
          "ticks": 28800,
          "time": 48,
          "velocity": 0.6299212598425197
        },
        {
          "duration": 0.7583333333333329,
          "durationTicks": 455,
          "midi": 45,
          "name": "A2",
          "ticks": 29280,
          "time": 48.800000000000004,
          "velocity": 0.6299212598425197
        },
        {
          "duration": 0.7583333333333329,
          "durationTicks": 455,
          "midi": 52,
          "name": "E3",
          "ticks": 29280,
          "time": 48.800000000000004,
          "velocity": 0.6299212598425197
        },
        {
          "duration": 0.7583333333333329,
          "durationTicks": 455,
          "midi": 43,
          "name": "G2",
          "ticks": 29760,
          "time": 49.6,
          "velocity": 0.6299212598425197
        },
        {
          "duration": 0.7583333333333329,
          "durationTicks": 455,
          "midi": 52,
          "name": "E3",
          "ticks": 29760,
          "time": 49.6,
          "velocity": 0.6299212598425197
        },
        {
          "duration": 0.7583333333333258,
          "durationTicks": 455,
          "midi": 43,
          "name": "G2",
          "ticks": 30240,
          "time": 50.400000000000006,
          "velocity": 0.6299212598425197
        },
        {
          "duration": 0.7583333333333258,
          "durationTicks": 455,
          "midi": 52,
          "name": "E3",
          "ticks": 30240,
          "time": 50.400000000000006,
          "velocity": 0.6299212598425197
        },
        {
          "duration": 0.75833333333334,
          "durationTicks": 455,
          "midi": 53,
          "name": "F3",
          "ticks": 30720,
          "time": 51.2,
          "velocity": 0.6299212598425197
        },
        {
          "duration": 0.75833333333334,
          "durationTicks": 455,
          "midi": 57,
          "name": "A3",
          "ticks": 30720,
          "time": 51.2,
          "velocity": 0.6299212598425197
        },
        {
          "duration": 0.75833333333334,
          "durationTicks": 455,
          "midi": 53,
          "name": "F3",
          "ticks": 31200,
          "time": 52,
          "velocity": 0.6299212598425197
        },
        {
          "duration": 0.75833333333334,
          "durationTicks": 455,
          "midi": 57,
          "name": "A3",
          "ticks": 31200,
          "time": 52,
          "velocity": 0.6299212598425197
        },
        {
          "duration": 0.7583333333333329,
          "durationTicks": 455,
          "midi": 52,
          "name": "E3",
          "ticks": 31680,
          "time": 52.800000000000004,
          "velocity": 0.6299212598425197
        },
        {
          "duration": 0.7583333333333329,
          "durationTicks": 455,
          "midi": 57,
          "name": "A3",
          "ticks": 31680,
          "time": 52.800000000000004,
          "velocity": 0.6299212598425197
        },
        {
          "duration": 0.75833333333334,
          "durationTicks": 455,
          "midi": 52,
          "name": "E3",
          "ticks": 32160,
          "time": 53.6,
          "velocity": 0.6299212598425197
        },
        {
          "duration": 0.75833333333334,
          "durationTicks": 455,
          "midi": 57,
          "name": "A3",
          "ticks": 32160,
          "time": 53.6,
          "velocity": 0.6299212598425197
        },
        {
          "duration": 0.7583333333333329,
          "durationTicks": 455,
          "midi": 50,
          "name": "D3",
          "ticks": 32640,
          "time": 54.400000000000006,
          "velocity": 0.6299212598425197
        },
        {
          "duration": 0.7583333333333329,
          "durationTicks": 455,
          "midi": 57,
          "name": "A3",
          "ticks": 32640,
          "time": 54.400000000000006,
          "velocity": 0.6299212598425197
        },
        {
          "duration": 0.75833333333334,
          "durationTicks": 455,
          "midi": 50,
          "name": "D3",
          "ticks": 33120,
          "time": 55.2,
          "velocity": 0.6299212598425197
        },
        {
          "duration": 0.75833333333334,
          "durationTicks": 455,
          "midi": 57,
          "name": "A3",
          "ticks": 33120,
          "time": 55.2,
          "velocity": 0.6299212598425197
        },
        {
          "duration": 0.75833333333334,
          "durationTicks": 455,
          "midi": 48,
          "name": "C3",
          "ticks": 33600,
          "time": 56,
          "velocity": 0.6299212598425197
        },
        {
          "duration": 0.75833333333334,
          "durationTicks": 455,
          "midi": 57,
          "name": "A3",
          "ticks": 33600,
          "time": 56,
          "velocity": 0.6299212598425197
        },
        {
          "duration": 0.7583333333333329,
          "durationTicks": 455,
          "midi": 48,
          "name": "C3",
          "ticks": 34080,
          "time": 56.800000000000004,
          "velocity": 0.6299212598425197
        },
        {
          "duration": 0.7583333333333329,
          "durationTicks": 455,
          "midi": 57,
          "name": "A3",
          "ticks": 34080,
          "time": 56.800000000000004,
          "velocity": 0.6299212598425197
        },
        {
          "duration": 0.75833333333334,
          "durationTicks": 455,
          "midi": 55,
          "name": "G3",
          "ticks": 34560,
          "time": 57.6,
          "velocity": 0.6299212598425197
        },
        {
          "duration": 0.75833333333334,
          "durationTicks": 455,
          "midi": 59,
          "name": "B3",
          "ticks": 34560,
          "time": 57.6,
          "velocity": 0.6299212598425197
        },
        {
          "duration": 0.7583333333333329,
          "durationTicks": 455,
          "midi": 55,
          "name": "G3",
          "ticks": 35040,
          "time": 58.400000000000006,
          "velocity": 0.6299212598425197
        },
        {
          "duration": 0.7583333333333329,
          "durationTicks": 455,
          "midi": 59,
          "name": "B3",
          "ticks": 35040,
          "time": 58.400000000000006,
          "velocity": 0.6299212598425197
        },
        {
          "duration": 0.75833333333334,
          "durationTicks": 455,
          "midi": 53,
          "name": "F3",
          "ticks": 35520,
          "time": 59.2,
          "velocity": 0.6299212598425197
        },
        {
          "duration": 0.75833333333334,
          "durationTicks": 455,
          "midi": 59,
          "name": "B3",
          "ticks": 35520,
          "time": 59.2,
          "velocity": 0.6299212598425197
        },
        {
          "duration": 0.75833333333334,
          "durationTicks": 455,
          "midi": 53,
          "name": "F3",
          "ticks": 36000,
          "time": 60,
          "velocity": 0.6299212598425197
        },
        {
          "duration": 0.75833333333334,
          "durationTicks": 455,
          "midi": 59,
          "name": "B3",
          "ticks": 36000,
          "time": 60,
          "velocity": 0.6299212598425197
        },
        {
          "duration": 0.7583333333333329,
          "durationTicks": 455,
          "midi": 52,
          "name": "E3",
          "ticks": 36480,
          "time": 60.800000000000004,
          "velocity": 0.6299212598425197
        },
        {
          "duration": 0.7583333333333329,
          "durationTicks": 455,
          "midi": 59,
          "name": "B3",
          "ticks": 36480,
          "time": 60.800000000000004,
          "velocity": 0.6299212598425197
        },
        {
          "duration": 0.75833333333334,
          "durationTicks": 455,
          "midi": 52,
          "name": "E3",
          "ticks": 36960,
          "time": 61.6,
          "velocity": 0.6299212598425197
        },
        {
          "duration": 0.75833333333334,
          "durationTicks": 455,
          "midi": 59,
          "name": "B3",
          "ticks": 36960,
          "time": 61.6,
          "velocity": 0.6299212598425197
        },
        {
          "duration": 0.7583333333333329,
          "durationTicks": 455,
          "midi": 50,
          "name": "D3",
          "ticks": 37440,
          "time": 62.400000000000006,
          "velocity": 0.6299212598425197
        },
        {
          "duration": 0.7583333333333329,
          "durationTicks": 455,
          "midi": 59,
          "name": "B3",
          "ticks": 37440,
          "time": 62.400000000000006,
          "velocity": 0.6299212598425197
        },
        {
          "duration": 0.75833333333334,
          "durationTicks": 455,
          "midi": 50,
          "name": "D3",
          "ticks": 37920,
          "time": 63.2,
          "velocity": 0.6299212598425197
        },
        {
          "duration": 0.75833333333334,
          "durationTicks": 455,
          "midi": 59,
          "name": "B3",
          "ticks": 37920,
          "time": 63.2,
          "velocity": 0.6299212598425197
        },
        {
          "duration": 0.75833333333334,
          "durationTicks": 455,
          "midi": 48,
          "name": "C3",
          "ticks": 38400,
          "time": 64,
          "velocity": 0.6299212598425197
        },
        {
          "duration": 0.75833333333334,
          "durationTicks": 455,
          "midi": 52,
          "name": "E3",
          "ticks": 38400,
          "time": 64,
          "velocity": 0.6299212598425197
        },
        {
          "duration": 0.75833333333334,
          "durationTicks": 455,
          "midi": 48,
          "name": "C3",
          "ticks": 38880,
          "time": 64.8,
          "velocity": 0.6299212598425197
        },
        {
          "duration": 0.75833333333334,
          "durationTicks": 455,
          "midi": 52,
          "name": "E3",
          "ticks": 38880,
          "time": 64.8,
          "velocity": 0.6299212598425197
        },
        {
          "duration": 0.7583333333333258,
          "durationTicks": 455,
          "midi": 47,
          "name": "B2",
          "ticks": 39360,
          "time": 65.60000000000001,
          "velocity": 0.6299212598425197
        },
        {
          "duration": 0.7583333333333258,
          "durationTicks": 455,
          "midi": 52,
          "name": "E3",
          "ticks": 39360,
          "time": 65.60000000000001,
          "velocity": 0.6299212598425197
        },
        {
          "duration": 0.75833333333334,
          "durationTicks": 455,
          "midi": 47,
          "name": "B2",
          "ticks": 39840,
          "time": 66.4,
          "velocity": 0.6299212598425197
        },
        {
          "duration": 0.75833333333334,
          "durationTicks": 455,
          "midi": 52,
          "name": "E3",
          "ticks": 39840,
          "time": 66.4,
          "velocity": 0.6299212598425197
        },
        {
          "duration": 0.75833333333334,
          "durationTicks": 455,
          "midi": 45,
          "name": "A2",
          "ticks": 40320,
          "time": 67.2,
          "velocity": 0.6299212598425197
        },
        {
          "duration": 0.75833333333334,
          "durationTicks": 455,
          "midi": 52,
          "name": "E3",
          "ticks": 40320,
          "time": 67.2,
          "velocity": 0.6299212598425197
        },
        {
          "duration": 0.75833333333334,
          "durationTicks": 455,
          "midi": 45,
          "name": "A2",
          "ticks": 40800,
          "time": 68,
          "velocity": 0.6299212598425197
        },
        {
          "duration": 0.75833333333334,
          "durationTicks": 455,
          "midi": 52,
          "name": "E3",
          "ticks": 40800,
          "time": 68,
          "velocity": 0.6299212598425197
        },
        {
          "duration": 0.75833333333334,
          "durationTicks": 455,
          "midi": 43,
          "name": "G2",
          "ticks": 41280,
          "time": 68.8,
          "velocity": 0.6299212598425197
        },
        {
          "duration": 0.75833333333334,
          "durationTicks": 455,
          "midi": 52,
          "name": "E3",
          "ticks": 41280,
          "time": 68.8,
          "velocity": 0.6299212598425197
        },
        {
          "duration": 0.7583333333333258,
          "durationTicks": 455,
          "midi": 43,
          "name": "G2",
          "ticks": 41760,
          "time": 69.60000000000001,
          "velocity": 0.6299212598425197
        },
        {
          "duration": 0.7583333333333258,
          "durationTicks": 455,
          "midi": 52,
          "name": "E3",
          "ticks": 41760,
          "time": 69.60000000000001,
          "velocity": 0.6299212598425197
        },
        {
          "duration": 0.75833333333334,
          "durationTicks": 455,
          "midi": 53,
          "name": "F3",
          "ticks": 42240,
          "time": 70.4,
          "velocity": 0.6299212598425197
        },
        {
          "duration": 0.75833333333334,
          "durationTicks": 455,
          "midi": 57,
          "name": "A3",
          "ticks": 42240,
          "time": 70.4,
          "velocity": 0.6299212598425197
        },
        {
          "duration": 0.75833333333334,
          "durationTicks": 455,
          "midi": 53,
          "name": "F3",
          "ticks": 42720,
          "time": 71.2,
          "velocity": 0.6299212598425197
        },
        {
          "duration": 0.75833333333334,
          "durationTicks": 455,
          "midi": 57,
          "name": "A3",
          "ticks": 42720,
          "time": 71.2,
          "velocity": 0.6299212598425197
        },
        {
          "duration": 0.75833333333334,
          "durationTicks": 455,
          "midi": 52,
          "name": "E3",
          "ticks": 43200,
          "time": 72,
          "velocity": 0.6299212598425197
        },
        {
          "duration": 0.75833333333334,
          "durationTicks": 455,
          "midi": 57,
          "name": "A3",
          "ticks": 43200,
          "time": 72,
          "velocity": 0.6299212598425197
        },
        {
          "duration": 0.75833333333334,
          "durationTicks": 455,
          "midi": 52,
          "name": "E3",
          "ticks": 43680,
          "time": 72.8,
          "velocity": 0.6299212598425197
        },
        {
          "duration": 0.75833333333334,
          "durationTicks": 455,
          "midi": 57,
          "name": "A3",
          "ticks": 43680,
          "time": 72.8,
          "velocity": 0.6299212598425197
        },
        {
          "duration": 0.7583333333333258,
          "durationTicks": 455,
          "midi": 50,
          "name": "D3",
          "ticks": 44160,
          "time": 73.60000000000001,
          "velocity": 0.6299212598425197
        },
        {
          "duration": 0.7583333333333258,
          "durationTicks": 455,
          "midi": 57,
          "name": "A3",
          "ticks": 44160,
          "time": 73.60000000000001,
          "velocity": 0.6299212598425197
        },
        {
          "duration": 0.75833333333334,
          "durationTicks": 455,
          "midi": 50,
          "name": "D3",
          "ticks": 44640,
          "time": 74.4,
          "velocity": 0.6299212598425197
        },
        {
          "duration": 0.75833333333334,
          "durationTicks": 455,
          "midi": 57,
          "name": "A3",
          "ticks": 44640,
          "time": 74.4,
          "velocity": 0.6299212598425197
        },
        {
          "duration": 1.5183333333333309,
          "durationTicks": 911,
          "midi": 55,
          "name": "G3",
          "ticks": 45120,
          "time": 75.2,
          "velocity": 0.6299212598425197
        },
        {
          "duration": 1.5183333333333309,
          "durationTicks": 911,
          "midi": 59,
          "name": "B3",
          "ticks": 45120,
          "time": 75.2,
          "velocity": 0.6299212598425197
        },
        {
          "duration": 0.7583333333333258,
          "durationTicks": 455,
          "midi": 48,
          "name": "C3",
          "ticks": 46080,
          "time": 76.80000000000001,
          "velocity": 0.6299212598425197
        },
        {
          "duration": 0.7583333333333258,
          "durationTicks": 455,
          "midi": 52,
          "name": "E3",
          "ticks": 46080,
          "time": 76.80000000000001,
          "velocity": 0.6299212598425197
        },
        {
          "duration": 0.75833333333334,
          "durationTicks": 455,
          "midi": 48,
          "name": "C3",
          "ticks": 46560,
          "time": 77.60000000000001,
          "velocity": 0.6299212598425197
        },
        {
          "duration": 0.75833333333334,
          "durationTicks": 455,
          "midi": 52,
          "name": "E3",
          "ticks": 46560,
          "time": 77.60000000000001,
          "velocity": 0.6299212598425197
        },
        {
          "duration": 0.75833333333334,
          "durationTicks": 455,
          "midi": 47,
          "name": "B2",
          "ticks": 47040,
          "time": 78.4,
          "velocity": 0.6299212598425197
        },
        {
          "duration": 0.75833333333334,
          "durationTicks": 455,
          "midi": 52,
          "name": "E3",
          "ticks": 47040,
          "time": 78.4,
          "velocity": 0.6299212598425197
        },
        {
          "duration": 0.75833333333334,
          "durationTicks": 455,
          "midi": 47,
          "name": "B2",
          "ticks": 47520,
          "time": 79.2,
          "velocity": 0.6299212598425197
        },
        {
          "duration": 0.75833333333334,
          "durationTicks": 455,
          "midi": 52,
          "name": "E3",
          "ticks": 47520,
          "time": 79.2,
          "velocity": 0.6299212598425197
        },
        {
          "duration": 0.75833333333334,
          "durationTicks": 455,
          "midi": 45,
          "name": "A2",
          "ticks": 48000,
          "time": 80,
          "velocity": 0.6299212598425197
        },
        {
          "duration": 0.75833333333334,
          "durationTicks": 455,
          "midi": 52,
          "name": "E3",
          "ticks": 48000,
          "time": 80,
          "velocity": 0.6299212598425197
        },
        {
          "duration": 0.7583333333333258,
          "durationTicks": 455,
          "midi": 45,
          "name": "A2",
          "ticks": 48480,
          "time": 80.80000000000001,
          "velocity": 0.6299212598425197
        },
        {
          "duration": 0.7583333333333258,
          "durationTicks": 455,
          "midi": 52,
          "name": "E3",
          "ticks": 48480,
          "time": 80.80000000000001,
          "velocity": 0.6299212598425197
        },
        {
          "duration": 0.75833333333334,
          "durationTicks": 455,
          "midi": 43,
          "name": "G2",
          "ticks": 48960,
          "time": 81.60000000000001,
          "velocity": 0.6299212598425197
        },
        {
          "duration": 0.75833333333334,
          "durationTicks": 455,
          "midi": 52,
          "name": "E3",
          "ticks": 48960,
          "time": 81.60000000000001,
          "velocity": 0.6299212598425197
        },
        {
          "duration": 0.75833333333334,
          "durationTicks": 455,
          "midi": 43,
          "name": "G2",
          "ticks": 49440,
          "time": 82.4,
          "velocity": 0.6299212598425197
        },
        {
          "duration": 0.75833333333334,
          "durationTicks": 455,
          "midi": 52,
          "name": "E3",
          "ticks": 49440,
          "time": 82.4,
          "velocity": 0.6299212598425197
        },
        {
          "duration": 0.75833333333334,
          "durationTicks": 455,
          "midi": 53,
          "name": "F3",
          "ticks": 49920,
          "time": 83.2,
          "velocity": 0.6299212598425197
        },
        {
          "duration": 0.75833333333334,
          "durationTicks": 455,
          "midi": 57,
          "name": "A3",
          "ticks": 49920,
          "time": 83.2,
          "velocity": 0.6299212598425197
        },
        {
          "duration": 0.75833333333334,
          "durationTicks": 455,
          "midi": 53,
          "name": "F3",
          "ticks": 50400,
          "time": 84,
          "velocity": 0.6299212598425197
        },
        {
          "duration": 0.75833333333334,
          "durationTicks": 455,
          "midi": 57,
          "name": "A3",
          "ticks": 50400,
          "time": 84,
          "velocity": 0.6299212598425197
        },
        {
          "duration": 0.7583333333333258,
          "durationTicks": 455,
          "midi": 52,
          "name": "E3",
          "ticks": 50880,
          "time": 84.80000000000001,
          "velocity": 0.6299212598425197
        },
        {
          "duration": 0.7583333333333258,
          "durationTicks": 455,
          "midi": 57,
          "name": "A3",
          "ticks": 50880,
          "time": 84.80000000000001,
          "velocity": 0.6299212598425197
        },
        {
          "duration": 0.75833333333334,
          "durationTicks": 455,
          "midi": 52,
          "name": "E3",
          "ticks": 51360,
          "time": 85.60000000000001,
          "velocity": 0.6299212598425197
        },
        {
          "duration": 0.75833333333334,
          "durationTicks": 455,
          "midi": 57,
          "name": "A3",
          "ticks": 51360,
          "time": 85.60000000000001,
          "velocity": 0.6299212598425197
        },
        {
          "duration": 0.75833333333334,
          "durationTicks": 455,
          "midi": 50,
          "name": "D3",
          "ticks": 51840,
          "time": 86.4,
          "velocity": 0.6299212598425197
        },
        {
          "duration": 0.75833333333334,
          "durationTicks": 455,
          "midi": 57,
          "name": "A3",
          "ticks": 51840,
          "time": 86.4,
          "velocity": 0.6299212598425197
        },
        {
          "duration": 0.75833333333334,
          "durationTicks": 455,
          "midi": 50,
          "name": "D3",
          "ticks": 52320,
          "time": 87.2,
          "velocity": 0.6299212598425197
        },
        {
          "duration": 0.75833333333334,
          "durationTicks": 455,
          "midi": 57,
          "name": "A3",
          "ticks": 52320,
          "time": 87.2,
          "velocity": 0.6299212598425197
        },
        {
          "duration": 0.75833333333334,
          "durationTicks": 455,
          "midi": 48,
          "name": "C3",
          "ticks": 52800,
          "time": 88,
          "velocity": 0.6299212598425197
        },
        {
          "duration": 0.75833333333334,
          "durationTicks": 455,
          "midi": 57,
          "name": "A3",
          "ticks": 52800,
          "time": 88,
          "velocity": 0.6299212598425197
        },
        {
          "duration": 0.7583333333333258,
          "durationTicks": 455,
          "midi": 48,
          "name": "C3",
          "ticks": 53280,
          "time": 88.80000000000001,
          "velocity": 0.6299212598425197
        },
        {
          "duration": 0.7583333333333258,
          "durationTicks": 455,
          "midi": 57,
          "name": "A3",
          "ticks": 53280,
          "time": 88.80000000000001,
          "velocity": 0.6299212598425197
        },
        {
          "duration": 0.75833333333334,
          "durationTicks": 455,
          "midi": 55,
          "name": "G3",
          "ticks": 53760,
          "time": 89.60000000000001,
          "velocity": 0.6299212598425197
        },
        {
          "duration": 0.75833333333334,
          "durationTicks": 455,
          "midi": 59,
          "name": "B3",
          "ticks": 53760,
          "time": 89.60000000000001,
          "velocity": 0.6299212598425197
        },
        {
          "duration": 0.75833333333334,
          "durationTicks": 455,
          "midi": 55,
          "name": "G3",
          "ticks": 54240,
          "time": 90.4,
          "velocity": 0.6299212598425197
        },
        {
          "duration": 0.75833333333334,
          "durationTicks": 455,
          "midi": 59,
          "name": "B3",
          "ticks": 54240,
          "time": 90.4,
          "velocity": 0.6299212598425197
        },
        {
          "duration": 0.75833333333334,
          "durationTicks": 455,
          "midi": 53,
          "name": "F3",
          "ticks": 54720,
          "time": 91.2,
          "velocity": 0.6299212598425197
        },
        {
          "duration": 0.75833333333334,
          "durationTicks": 455,
          "midi": 59,
          "name": "B3",
          "ticks": 54720,
          "time": 91.2,
          "velocity": 0.6299212598425197
        },
        {
          "duration": 0.75833333333334,
          "durationTicks": 455,
          "midi": 53,
          "name": "F3",
          "ticks": 55200,
          "time": 92,
          "velocity": 0.6299212598425197
        },
        {
          "duration": 0.75833333333334,
          "durationTicks": 455,
          "midi": 59,
          "name": "B3",
          "ticks": 55200,
          "time": 92,
          "velocity": 0.6299212598425197
        },
        {
          "duration": 0.7583333333333258,
          "durationTicks": 455,
          "midi": 52,
          "name": "E3",
          "ticks": 55680,
          "time": 92.80000000000001,
          "velocity": 0.6299212598425197
        },
        {
          "duration": 0.7583333333333258,
          "durationTicks": 455,
          "midi": 59,
          "name": "B3",
          "ticks": 55680,
          "time": 92.80000000000001,
          "velocity": 0.6299212598425197
        },
        {
          "duration": 0.75833333333334,
          "durationTicks": 455,
          "midi": 52,
          "name": "E3",
          "ticks": 56160,
          "time": 93.60000000000001,
          "velocity": 0.6299212598425197
        },
        {
          "duration": 0.75833333333334,
          "durationTicks": 455,
          "midi": 59,
          "name": "B3",
          "ticks": 56160,
          "time": 93.60000000000001,
          "velocity": 0.6299212598425197
        },
        {
          "duration": 0.75833333333334,
          "durationTicks": 455,
          "midi": 50,
          "name": "D3",
          "ticks": 56640,
          "time": 94.4,
          "velocity": 0.6299212598425197
        },
        {
          "duration": 0.75833333333334,
          "durationTicks": 455,
          "midi": 59,
          "name": "B3",
          "ticks": 56640,
          "time": 94.4,
          "velocity": 0.6299212598425197
        },
        {
          "duration": 0.75833333333334,
          "durationTicks": 455,
          "midi": 50,
          "name": "D3",
          "ticks": 57120,
          "time": 95.2,
          "velocity": 0.6299212598425197
        },
        {
          "duration": 0.75833333333334,
          "durationTicks": 455,
          "midi": 59,
          "name": "B3",
          "ticks": 57120,
          "time": 95.2,
          "velocity": 0.6299212598425197
        },
        {
          "duration": 0.75833333333334,
          "durationTicks": 455,
          "midi": 48,
          "name": "C3",
          "ticks": 57600,
          "time": 96,
          "velocity": 0.6299212598425197
        },
        {
          "duration": 0.75833333333334,
          "durationTicks": 455,
          "midi": 52,
          "name": "E3",
          "ticks": 57600,
          "time": 96,
          "velocity": 0.6299212598425197
        },
        {
          "duration": 0.75833333333334,
          "durationTicks": 455,
          "midi": 55,
          "name": "G3",
          "ticks": 57600,
          "time": 96,
          "velocity": 0.6299212598425197
        },
        {
          "duration": 0.7583333333333258,
          "durationTicks": 455,
          "midi": 48,
          "name": "C3",
          "ticks": 58080,
          "time": 96.80000000000001,
          "velocity": 0.6299212598425197
        },
        {
          "duration": 0.7583333333333258,
          "durationTicks": 455,
          "midi": 52,
          "name": "E3",
          "ticks": 58080,
          "time": 96.80000000000001,
          "velocity": 0.6299212598425197
        },
        {
          "duration": 0.7583333333333258,
          "durationTicks": 455,
          "midi": 55,
          "name": "G3",
          "ticks": 58080,
          "time": 96.80000000000001,
          "velocity": 0.6299212598425197
        },
        {
          "duration": 0.75833333333334,
          "durationTicks": 455,
          "midi": 48,
          "name": "C3",
          "ticks": 58560,
          "time": 97.60000000000001,
          "velocity": 0.6299212598425197
        },
        {
          "duration": 0.75833333333334,
          "durationTicks": 455,
          "midi": 53,
          "name": "F3",
          "ticks": 58560,
          "time": 97.60000000000001,
          "velocity": 0.6299212598425197
        },
        {
          "duration": 0.75833333333334,
          "durationTicks": 455,
          "midi": 57,
          "name": "A3",
          "ticks": 58560,
          "time": 97.60000000000001,
          "velocity": 0.6299212598425197
        },
        {
          "duration": 0.75833333333334,
          "durationTicks": 455,
          "midi": 48,
          "name": "C3",
          "ticks": 59040,
          "time": 98.4,
          "velocity": 0.6299212598425197
        },
        {
          "duration": 0.75833333333334,
          "durationTicks": 455,
          "midi": 53,
          "name": "F3",
          "ticks": 59040,
          "time": 98.4,
          "velocity": 0.6299212598425197
        },
        {
          "duration": 0.75833333333334,
          "durationTicks": 455,
          "midi": 57,
          "name": "A3",
          "ticks": 59040,
          "time": 98.4,
          "velocity": 0.6299212598425197
        },
        {
          "duration": 0.75833333333334,
          "durationTicks": 455,
          "midi": 48,
          "name": "C3",
          "ticks": 59520,
          "time": 99.2,
          "velocity": 0.6299212598425197
        },
        {
          "duration": 0.75833333333334,
          "durationTicks": 455,
          "midi": 52,
          "name": "E3",
          "ticks": 59520,
          "time": 99.2,
          "velocity": 0.6299212598425197
        },
        {
          "duration": 0.75833333333334,
          "durationTicks": 455,
          "midi": 55,
          "name": "G3",
          "ticks": 59520,
          "time": 99.2,
          "velocity": 0.6299212598425197
        },
        {
          "duration": 0.75833333333334,
          "durationTicks": 455,
          "midi": 48,
          "name": "C3",
          "ticks": 60000,
          "time": 100,
          "velocity": 0.6299212598425197
        },
        {
          "duration": 0.75833333333334,
          "durationTicks": 455,
          "midi": 52,
          "name": "E3",
          "ticks": 60000,
          "time": 100,
          "velocity": 0.6299212598425197
        },
        {
          "duration": 0.75833333333334,
          "durationTicks": 455,
          "midi": 55,
          "name": "G3",
          "ticks": 60000,
          "time": 100,
          "velocity": 0.6299212598425197
        },
        {
          "duration": 0.3783333333333303,
          "durationTicks": 227,
          "midi": 53,
          "name": "F3",
          "ticks": 60480,
          "time": 100.80000000000001,
          "velocity": 0.6299212598425197
        },
        {
          "duration": 0.3783333333333303,
          "durationTicks": 227,
          "midi": 52,
          "name": "E3",
          "ticks": 60720,
          "time": 101.2,
          "velocity": 0.6299212598425197
        },
        {
          "duration": 0.3783333333333303,
          "durationTicks": 227,
          "midi": 53,
          "name": "F3",
          "ticks": 60960,
          "time": 101.60000000000001,
          "velocity": 0.6299212598425197
        },
        {
          "duration": 0.3783333333333303,
          "durationTicks": 227,
          "midi": 50,
          "name": "D3",
          "ticks": 61200,
          "time": 102,
          "velocity": 0.6299212598425197
        },
        {
          "duration": 0.75833333333334,
          "durationTicks": 455,
          "midi": 48,
          "name": "C3",
          "ticks": 61440,
          "time": 102.4,
          "velocity": 0.6299212598425197
        },
        {
          "duration": 0.75833333333334,
          "durationTicks": 455,
          "midi": 52,
          "name": "E3",
          "ticks": 61440,
          "time": 102.4,
          "velocity": 0.6299212598425197
        },
        {
          "duration": 0.75833333333334,
          "durationTicks": 455,
          "midi": 48,
          "name": "C3",
          "ticks": 61920,
          "time": 103.2,
          "velocity": 0.6299212598425197
        },
        {
          "duration": 0.75833333333334,
          "durationTicks": 455,
          "midi": 52,
          "name": "E3",
          "ticks": 61920,
          "time": 103.2,
          "velocity": 0.6299212598425197
        },
        {
          "duration": 0.75833333333334,
          "durationTicks": 455,
          "midi": 47,
          "name": "B2",
          "ticks": 62400,
          "time": 104,
          "velocity": 0.6299212598425197
        },
        {
          "duration": 0.75833333333334,
          "durationTicks": 455,
          "midi": 52,
          "name": "E3",
          "ticks": 62400,
          "time": 104,
          "velocity": 0.6299212598425197
        },
        {
          "duration": 0.7583333333333258,
          "durationTicks": 455,
          "midi": 47,
          "name": "B2",
          "ticks": 62880,
          "time": 104.80000000000001,
          "velocity": 0.6299212598425197
        },
        {
          "duration": 0.7583333333333258,
          "durationTicks": 455,
          "midi": 52,
          "name": "E3",
          "ticks": 62880,
          "time": 104.80000000000001,
          "velocity": 0.6299212598425197
        },
        {
          "duration": 0.7583333333333258,
          "durationTicks": 455,
          "midi": 45,
          "name": "A2",
          "ticks": 63360,
          "time": 105.60000000000001,
          "velocity": 0.6299212598425197
        },
        {
          "duration": 0.7583333333333258,
          "durationTicks": 455,
          "midi": 52,
          "name": "E3",
          "ticks": 63360,
          "time": 105.60000000000001,
          "velocity": 0.6299212598425197
        },
        {
          "duration": 0.75833333333334,
          "durationTicks": 455,
          "midi": 45,
          "name": "A2",
          "ticks": 63840,
          "time": 106.4,
          "velocity": 0.6299212598425197
        },
        {
          "duration": 0.75833333333334,
          "durationTicks": 455,
          "midi": 52,
          "name": "E3",
          "ticks": 63840,
          "time": 106.4,
          "velocity": 0.6299212598425197
        },
        {
          "duration": 0.75833333333334,
          "durationTicks": 455,
          "midi": 43,
          "name": "G2",
          "ticks": 64320,
          "time": 107.2,
          "velocity": 0.6299212598425197
        },
        {
          "duration": 0.75833333333334,
          "durationTicks": 455,
          "midi": 52,
          "name": "E3",
          "ticks": 64320,
          "time": 107.2,
          "velocity": 0.6299212598425197
        },
        {
          "duration": 0.75833333333334,
          "durationTicks": 455,
          "midi": 43,
          "name": "G2",
          "ticks": 64800,
          "time": 108,
          "velocity": 0.6299212598425197
        },
        {
          "duration": 0.75833333333334,
          "durationTicks": 455,
          "midi": 52,
          "name": "E3",
          "ticks": 64800,
          "time": 108,
          "velocity": 0.6299212598425197
        },
        {
          "duration": 0.7583333333333258,
          "durationTicks": 455,
          "midi": 53,
          "name": "F3",
          "ticks": 65280,
          "time": 108.80000000000001,
          "velocity": 0.6299212598425197
        },
        {
          "duration": 0.7583333333333258,
          "durationTicks": 455,
          "midi": 57,
          "name": "A3",
          "ticks": 65280,
          "time": 108.80000000000001,
          "velocity": 0.6299212598425197
        },
        {
          "duration": 0.7583333333333258,
          "durationTicks": 455,
          "midi": 53,
          "name": "F3",
          "ticks": 65760,
          "time": 109.60000000000001,
          "velocity": 0.6299212598425197
        },
        {
          "duration": 0.7583333333333258,
          "durationTicks": 455,
          "midi": 57,
          "name": "A3",
          "ticks": 65760,
          "time": 109.60000000000001,
          "velocity": 0.6299212598425197
        },
        {
          "duration": 0.7583333333333258,
          "durationTicks": 455,
          "midi": 52,
          "name": "E3",
          "ticks": 66240,
          "time": 110.4,
          "velocity": 0.6299212598425197
        },
        {
          "duration": 0.7583333333333258,
          "durationTicks": 455,
          "midi": 57,
          "name": "A3",
          "ticks": 66240,
          "time": 110.4,
          "velocity": 0.6299212598425197
        },
        {
          "duration": 0.75833333333334,
          "durationTicks": 455,
          "midi": 52,
          "name": "E3",
          "ticks": 66720,
          "time": 111.2,
          "velocity": 0.6299212598425197
        },
        {
          "duration": 0.75833333333334,
          "durationTicks": 455,
          "midi": 57,
          "name": "A3",
          "ticks": 66720,
          "time": 111.2,
          "velocity": 0.6299212598425197
        },
        {
          "duration": 0.75833333333334,
          "durationTicks": 455,
          "midi": 50,
          "name": "D3",
          "ticks": 67200,
          "time": 112,
          "velocity": 0.6299212598425197
        },
        {
          "duration": 0.75833333333334,
          "durationTicks": 455,
          "midi": 57,
          "name": "A3",
          "ticks": 67200,
          "time": 112,
          "velocity": 0.6299212598425197
        },
        {
          "duration": 0.7583333333333258,
          "durationTicks": 455,
          "midi": 50,
          "name": "D3",
          "ticks": 67680,
          "time": 112.80000000000001,
          "velocity": 0.6299212598425197
        },
        {
          "duration": 0.7583333333333258,
          "durationTicks": 455,
          "midi": 57,
          "name": "A3",
          "ticks": 67680,
          "time": 112.80000000000001,
          "velocity": 0.6299212598425197
        },
        {
          "duration": 0.7583333333333258,
          "durationTicks": 455,
          "midi": 48,
          "name": "C3",
          "ticks": 68160,
          "time": 113.60000000000001,
          "velocity": 0.6299212598425197
        },
        {
          "duration": 0.7583333333333258,
          "durationTicks": 455,
          "midi": 57,
          "name": "A3",
          "ticks": 68160,
          "time": 113.60000000000001,
          "velocity": 0.6299212598425197
        },
        {
          "duration": 0.7583333333333258,
          "durationTicks": 455,
          "midi": 48,
          "name": "C3",
          "ticks": 68640,
          "time": 114.4,
          "velocity": 0.6299212598425197
        },
        {
          "duration": 0.7583333333333258,
          "durationTicks": 455,
          "midi": 57,
          "name": "A3",
          "ticks": 68640,
          "time": 114.4,
          "velocity": 0.6299212598425197
        },
        {
          "duration": 0.75833333333334,
          "durationTicks": 455,
          "midi": 55,
          "name": "G3",
          "ticks": 69120,
          "time": 115.2,
          "velocity": 0.6299212598425197
        },
        {
          "duration": 0.75833333333334,
          "durationTicks": 455,
          "midi": 59,
          "name": "B3",
          "ticks": 69120,
          "time": 115.2,
          "velocity": 0.6299212598425197
        },
        {
          "duration": 0.75833333333334,
          "durationTicks": 455,
          "midi": 55,
          "name": "G3",
          "ticks": 69600,
          "time": 116,
          "velocity": 0.6299212598425197
        },
        {
          "duration": 0.75833333333334,
          "durationTicks": 455,
          "midi": 59,
          "name": "B3",
          "ticks": 69600,
          "time": 116,
          "velocity": 0.6299212598425197
        },
        {
          "duration": 0.7583333333333258,
          "durationTicks": 455,
          "midi": 53,
          "name": "F3",
          "ticks": 70080,
          "time": 116.80000000000001,
          "velocity": 0.6299212598425197
        },
        {
          "duration": 0.7583333333333258,
          "durationTicks": 455,
          "midi": 59,
          "name": "B3",
          "ticks": 70080,
          "time": 116.80000000000001,
          "velocity": 0.6299212598425197
        },
        {
          "duration": 0.75833333333334,
          "durationTicks": 455,
          "midi": 53,
          "name": "F3",
          "ticks": 70560,
          "time": 117.60000000000001,
          "velocity": 0.6299212598425197
        },
        {
          "duration": 0.75833333333334,
          "durationTicks": 455,
          "midi": 59,
          "name": "B3",
          "ticks": 70560,
          "time": 117.60000000000001,
          "velocity": 0.6299212598425197
        },
        {
          "duration": 0.75833333333334,
          "durationTicks": 455,
          "midi": 52,
          "name": "E3",
          "ticks": 71040,
          "time": 118.4,
          "velocity": 0.6299212598425197
        },
        {
          "duration": 0.75833333333334,
          "durationTicks": 455,
          "midi": 59,
          "name": "B3",
          "ticks": 71040,
          "time": 118.4,
          "velocity": 0.6299212598425197
        },
        {
          "duration": 0.75833333333334,
          "durationTicks": 455,
          "midi": 52,
          "name": "E3",
          "ticks": 71520,
          "time": 119.2,
          "velocity": 0.6299212598425197
        },
        {
          "duration": 0.75833333333334,
          "durationTicks": 455,
          "midi": 59,
          "name": "B3",
          "ticks": 71520,
          "time": 119.2,
          "velocity": 0.6299212598425197
        },
        {
          "duration": 0.75833333333334,
          "durationTicks": 455,
          "midi": 50,
          "name": "D3",
          "ticks": 72000,
          "time": 120,
          "velocity": 0.6299212598425197
        },
        {
          "duration": 0.75833333333334,
          "durationTicks": 455,
          "midi": 59,
          "name": "B3",
          "ticks": 72000,
          "time": 120,
          "velocity": 0.6299212598425197
        },
        {
          "duration": 0.7583333333333258,
          "durationTicks": 455,
          "midi": 50,
          "name": "D3",
          "ticks": 72480,
          "time": 120.80000000000001,
          "velocity": 0.6299212598425197
        },
        {
          "duration": 0.7583333333333258,
          "durationTicks": 455,
          "midi": 59,
          "name": "B3",
          "ticks": 72480,
          "time": 120.80000000000001,
          "velocity": 0.6299212598425197
        },
        {
          "duration": 1.5183333333333309,
          "durationTicks": 911,
          "midi": 48,
          "name": "C3",
          "ticks": 72960,
          "time": 121.60000000000001,
          "velocity": 0.6299212598425197
        },
        {
          "duration": 1.5183333333333309,
          "durationTicks": 911,
          "midi": 55,
          "name": "G3",
          "ticks": 72960,
          "time": 121.60000000000001,
          "velocity": 0.6299212598425197
        },
        {
          "duration": 1.5183333333333309,
          "durationTicks": 911,
          "midi": 53,
          "name": "F3",
          "ticks": 73920,
          "time": 123.2,
          "velocity": 0.6299212598425197
        },
        {
          "duration": 1.5183333333333309,
          "durationTicks": 911,
          "midi": 57,
          "name": "A3",
          "ticks": 73920,
          "time": 123.2,
          "velocity": 0.6299212598425197
        },
        {
          "duration": 1.5183333333333309,
          "durationTicks": 911,
          "midi": 55,
          "name": "G3",
          "ticks": 74880,
          "time": 124.80000000000001,
          "velocity": 0.6299212598425197
        },
        {
          "duration": 0.75833333333334,
          "durationTicks": 455,
          "midi": 45,
          "name": "A2",
          "ticks": 75840,
          "time": 126.4,
          "velocity": 0.6299212598425197
        },
        {
          "duration": 0.75833333333334,
          "durationTicks": 455,
          "midi": 47,
          "name": "B2",
          "ticks": 76320,
          "time": 127.2,
          "velocity": 0.6299212598425197
        },
        {
          "duration": 0.7583333333333258,
          "durationTicks": 455,
          "midi": 48,
          "name": "C3",
          "ticks": 76800,
          "time": 128,
          "velocity": 0.6299212598425197
        },
        {
          "duration": 0.7583333333333258,
          "durationTicks": 455,
          "midi": 52,
          "name": "E3",
          "ticks": 76800,
          "time": 128,
          "velocity": 0.6299212598425197
        },
        {
          "duration": 0.7583333333333258,
          "durationTicks": 455,
          "midi": 48,
          "name": "C3",
          "ticks": 77280,
          "time": 128.8,
          "velocity": 0.6299212598425197
        },
        {
          "duration": 0.7583333333333258,
          "durationTicks": 455,
          "midi": 52,
          "name": "E3",
          "ticks": 77280,
          "time": 128.8,
          "velocity": 0.6299212598425197
        },
        {
          "duration": 0.7583333333333258,
          "durationTicks": 455,
          "midi": 47,
          "name": "B2",
          "ticks": 77760,
          "time": 129.60000000000002,
          "velocity": 0.6299212598425197
        },
        {
          "duration": 0.7583333333333258,
          "durationTicks": 455,
          "midi": 52,
          "name": "E3",
          "ticks": 77760,
          "time": 129.60000000000002,
          "velocity": 0.6299212598425197
        },
        {
          "duration": 0.7583333333333258,
          "durationTicks": 455,
          "midi": 47,
          "name": "B2",
          "ticks": 78240,
          "time": 130.4,
          "velocity": 0.6299212598425197
        },
        {
          "duration": 0.7583333333333258,
          "durationTicks": 455,
          "midi": 52,
          "name": "E3",
          "ticks": 78240,
          "time": 130.4,
          "velocity": 0.6299212598425197
        },
        {
          "duration": 0.7583333333333258,
          "durationTicks": 455,
          "midi": 45,
          "name": "A2",
          "ticks": 78720,
          "time": 131.20000000000002,
          "velocity": 0.6299212598425197
        },
        {
          "duration": 0.7583333333333258,
          "durationTicks": 455,
          "midi": 52,
          "name": "E3",
          "ticks": 78720,
          "time": 131.20000000000002,
          "velocity": 0.6299212598425197
        },
        {
          "duration": 0.7583333333333258,
          "durationTicks": 455,
          "midi": 45,
          "name": "A2",
          "ticks": 79200,
          "time": 132,
          "velocity": 0.6299212598425197
        },
        {
          "duration": 0.7583333333333258,
          "durationTicks": 455,
          "midi": 52,
          "name": "E3",
          "ticks": 79200,
          "time": 132,
          "velocity": 0.6299212598425197
        },
        {
          "duration": 0.7583333333333258,
          "durationTicks": 455,
          "midi": 43,
          "name": "G2",
          "ticks": 79680,
          "time": 132.8,
          "velocity": 0.6299212598425197
        },
        {
          "duration": 0.7583333333333258,
          "durationTicks": 455,
          "midi": 52,
          "name": "E3",
          "ticks": 79680,
          "time": 132.8,
          "velocity": 0.6299212598425197
        },
        {
          "duration": 0.7583333333333258,
          "durationTicks": 455,
          "midi": 43,
          "name": "G2",
          "ticks": 80160,
          "time": 133.60000000000002,
          "velocity": 0.6299212598425197
        },
        {
          "duration": 0.7583333333333258,
          "durationTicks": 455,
          "midi": 52,
          "name": "E3",
          "ticks": 80160,
          "time": 133.60000000000002,
          "velocity": 0.6299212598425197
        },
        {
          "duration": 0.7583333333333258,
          "durationTicks": 455,
          "midi": 53,
          "name": "F3",
          "ticks": 80640,
          "time": 134.4,
          "velocity": 0.6299212598425197
        },
        {
          "duration": 0.7583333333333258,
          "durationTicks": 455,
          "midi": 57,
          "name": "A3",
          "ticks": 80640,
          "time": 134.4,
          "velocity": 0.6299212598425197
        },
        {
          "duration": 0.7583333333333258,
          "durationTicks": 455,
          "midi": 53,
          "name": "F3",
          "ticks": 81120,
          "time": 135.20000000000002,
          "velocity": 0.6299212598425197
        },
        {
          "duration": 0.7583333333333258,
          "durationTicks": 455,
          "midi": 57,
          "name": "A3",
          "ticks": 81120,
          "time": 135.20000000000002,
          "velocity": 0.6299212598425197
        },
        {
          "duration": 0.7583333333333258,
          "durationTicks": 455,
          "midi": 52,
          "name": "E3",
          "ticks": 81600,
          "time": 136,
          "velocity": 0.6299212598425197
        },
        {
          "duration": 0.7583333333333258,
          "durationTicks": 455,
          "midi": 57,
          "name": "A3",
          "ticks": 81600,
          "time": 136,
          "velocity": 0.6299212598425197
        },
        {
          "duration": 0.7583333333333258,
          "durationTicks": 455,
          "midi": 52,
          "name": "E3",
          "ticks": 82080,
          "time": 136.8,
          "velocity": 0.6299212598425197
        },
        {
          "duration": 0.7583333333333258,
          "durationTicks": 455,
          "midi": 57,
          "name": "A3",
          "ticks": 82080,
          "time": 136.8,
          "velocity": 0.6299212598425197
        },
        {
          "duration": 0.7583333333333258,
          "durationTicks": 455,
          "midi": 50,
          "name": "D3",
          "ticks": 82560,
          "time": 137.60000000000002,
          "velocity": 0.6299212598425197
        },
        {
          "duration": 0.7583333333333258,
          "durationTicks": 455,
          "midi": 57,
          "name": "A3",
          "ticks": 82560,
          "time": 137.60000000000002,
          "velocity": 0.6299212598425197
        },
        {
          "duration": 0.7583333333333258,
          "durationTicks": 455,
          "midi": 50,
          "name": "D3",
          "ticks": 83040,
          "time": 138.4,
          "velocity": 0.6299212598425197
        },
        {
          "duration": 0.7583333333333258,
          "durationTicks": 455,
          "midi": 57,
          "name": "A3",
          "ticks": 83040,
          "time": 138.4,
          "velocity": 0.6299212598425197
        },
        {
          "duration": 0.7583333333333258,
          "durationTicks": 455,
          "midi": 48,
          "name": "C3",
          "ticks": 83520,
          "time": 139.20000000000002,
          "velocity": 0.6299212598425197
        },
        {
          "duration": 0.7583333333333258,
          "durationTicks": 455,
          "midi": 57,
          "name": "A3",
          "ticks": 83520,
          "time": 139.20000000000002,
          "velocity": 0.6299212598425197
        },
        {
          "duration": 0.7583333333333258,
          "durationTicks": 455,
          "midi": 48,
          "name": "C3",
          "ticks": 84000,
          "time": 140,
          "velocity": 0.6299212598425197
        },
        {
          "duration": 0.7583333333333258,
          "durationTicks": 455,
          "midi": 57,
          "name": "A3",
          "ticks": 84000,
          "time": 140,
          "velocity": 0.6299212598425197
        },
        {
          "duration": 0.7583333333333258,
          "durationTicks": 455,
          "midi": 55,
          "name": "G3",
          "ticks": 84480,
          "time": 140.8,
          "velocity": 0.6299212598425197
        },
        {
          "duration": 0.7583333333333258,
          "durationTicks": 455,
          "midi": 59,
          "name": "B3",
          "ticks": 84480,
          "time": 140.8,
          "velocity": 0.6299212598425197
        },
        {
          "duration": 0.7583333333333258,
          "durationTicks": 455,
          "midi": 55,
          "name": "G3",
          "ticks": 84960,
          "time": 141.60000000000002,
          "velocity": 0.6299212598425197
        },
        {
          "duration": 0.7583333333333258,
          "durationTicks": 455,
          "midi": 59,
          "name": "B3",
          "ticks": 84960,
          "time": 141.60000000000002,
          "velocity": 0.6299212598425197
        },
        {
          "duration": 0.7583333333333258,
          "durationTicks": 455,
          "midi": 53,
          "name": "F3",
          "ticks": 85440,
          "time": 142.4,
          "velocity": 0.6299212598425197
        },
        {
          "duration": 0.7583333333333258,
          "durationTicks": 455,
          "midi": 59,
          "name": "B3",
          "ticks": 85440,
          "time": 142.4,
          "velocity": 0.6299212598425197
        },
        {
          "duration": 0.7583333333333258,
          "durationTicks": 455,
          "midi": 53,
          "name": "F3",
          "ticks": 85920,
          "time": 143.20000000000002,
          "velocity": 0.6299212598425197
        },
        {
          "duration": 0.7583333333333258,
          "durationTicks": 455,
          "midi": 59,
          "name": "B3",
          "ticks": 85920,
          "time": 143.20000000000002,
          "velocity": 0.6299212598425197
        },
        {
          "duration": 0.7583333333333258,
          "durationTicks": 455,
          "midi": 52,
          "name": "E3",
          "ticks": 86400,
          "time": 144,
          "velocity": 0.6299212598425197
        },
        {
          "duration": 0.7583333333333258,
          "durationTicks": 455,
          "midi": 59,
          "name": "B3",
          "ticks": 86400,
          "time": 144,
          "velocity": 0.6299212598425197
        },
        {
          "duration": 0.7583333333333258,
          "durationTicks": 455,
          "midi": 52,
          "name": "E3",
          "ticks": 86880,
          "time": 144.8,
          "velocity": 0.6299212598425197
        },
        {
          "duration": 0.7583333333333258,
          "durationTicks": 455,
          "midi": 59,
          "name": "B3",
          "ticks": 86880,
          "time": 144.8,
          "velocity": 0.6299212598425197
        },
        {
          "duration": 0.7583333333333258,
          "durationTicks": 455,
          "midi": 50,
          "name": "D3",
          "ticks": 87360,
          "time": 145.60000000000002,
          "velocity": 0.6299212598425197
        },
        {
          "duration": 0.7583333333333258,
          "durationTicks": 455,
          "midi": 59,
          "name": "B3",
          "ticks": 87360,
          "time": 145.60000000000002,
          "velocity": 0.6299212598425197
        },
        {
          "duration": 0.7583333333333258,
          "durationTicks": 455,
          "midi": 50,
          "name": "D3",
          "ticks": 87840,
          "time": 146.4,
          "velocity": 0.6299212598425197
        },
        {
          "duration": 0.7583333333333258,
          "durationTicks": 455,
          "midi": 59,
          "name": "B3",
          "ticks": 87840,
          "time": 146.4,
          "velocity": 0.6299212598425197
        },
        {
          "duration": 0.7583333333333258,
          "durationTicks": 455,
          "midi": 48,
          "name": "C3",
          "ticks": 88320,
          "time": 147.20000000000002,
          "velocity": 0.6299212598425197
        },
        {
          "duration": 0.7583333333333258,
          "durationTicks": 455,
          "midi": 52,
          "name": "E3",
          "ticks": 88320,
          "time": 147.20000000000002,
          "velocity": 0.6299212598425197
        },
        {
          "duration": 0.7583333333333258,
          "durationTicks": 455,
          "midi": 48,
          "name": "C3",
          "ticks": 88800,
          "time": 148,
          "velocity": 0.6299212598425197
        },
        {
          "duration": 0.7583333333333258,
          "durationTicks": 455,
          "midi": 52,
          "name": "E3",
          "ticks": 88800,
          "time": 148,
          "velocity": 0.6299212598425197
        },
        {
          "duration": 0.7583333333333258,
          "durationTicks": 455,
          "midi": 47,
          "name": "B2",
          "ticks": 89280,
          "time": 148.8,
          "velocity": 0.6299212598425197
        },
        {
          "duration": 0.7583333333333258,
          "durationTicks": 455,
          "midi": 52,
          "name": "E3",
          "ticks": 89280,
          "time": 148.8,
          "velocity": 0.6299212598425197
        },
        {
          "duration": 0.7583333333333258,
          "durationTicks": 455,
          "midi": 47,
          "name": "B2",
          "ticks": 89760,
          "time": 149.60000000000002,
          "velocity": 0.6299212598425197
        },
        {
          "duration": 0.7583333333333258,
          "durationTicks": 455,
          "midi": 52,
          "name": "E3",
          "ticks": 89760,
          "time": 149.60000000000002,
          "velocity": 0.6299212598425197
        },
        {
          "duration": 0.7583333333333258,
          "durationTicks": 455,
          "midi": 45,
          "name": "A2",
          "ticks": 90240,
          "time": 150.4,
          "velocity": 0.6299212598425197
        },
        {
          "duration": 0.7583333333333258,
          "durationTicks": 455,
          "midi": 52,
          "name": "E3",
          "ticks": 90240,
          "time": 150.4,
          "velocity": 0.6299212598425197
        },
        {
          "duration": 0.7583333333333258,
          "durationTicks": 455,
          "midi": 45,
          "name": "A2",
          "ticks": 90720,
          "time": 151.20000000000002,
          "velocity": 0.6299212598425197
        },
        {
          "duration": 0.7583333333333258,
          "durationTicks": 455,
          "midi": 52,
          "name": "E3",
          "ticks": 90720,
          "time": 151.20000000000002,
          "velocity": 0.6299212598425197
        },
        {
          "duration": 0.7583333333333258,
          "durationTicks": 455,
          "midi": 43,
          "name": "G2",
          "ticks": 91200,
          "time": 152,
          "velocity": 0.6299212598425197
        },
        {
          "duration": 0.7583333333333258,
          "durationTicks": 455,
          "midi": 52,
          "name": "E3",
          "ticks": 91200,
          "time": 152,
          "velocity": 0.6299212598425197
        },
        {
          "duration": 0.7583333333333258,
          "durationTicks": 455,
          "midi": 43,
          "name": "G2",
          "ticks": 91680,
          "time": 152.8,
          "velocity": 0.6299212598425197
        },
        {
          "duration": 0.7583333333333258,
          "durationTicks": 455,
          "midi": 52,
          "name": "E3",
          "ticks": 91680,
          "time": 152.8,
          "velocity": 0.6299212598425197
        },
        {
          "duration": 0.7583333333333258,
          "durationTicks": 455,
          "midi": 53,
          "name": "F3",
          "ticks": 92160,
          "time": 153.60000000000002,
          "velocity": 0.6299212598425197
        },
        {
          "duration": 0.7583333333333258,
          "durationTicks": 455,
          "midi": 57,
          "name": "A3",
          "ticks": 92160,
          "time": 153.60000000000002,
          "velocity": 0.6299212598425197
        },
        {
          "duration": 0.7583333333333542,
          "durationTicks": 455,
          "midi": 53,
          "name": "F3",
          "ticks": 92640,
          "time": 154.4,
          "velocity": 0.6299212598425197
        },
        {
          "duration": 0.7583333333333542,
          "durationTicks": 455,
          "midi": 57,
          "name": "A3",
          "ticks": 92640,
          "time": 154.4,
          "velocity": 0.6299212598425197
        },
        {
          "duration": 0.7583333333333258,
          "durationTicks": 455,
          "midi": 52,
          "name": "E3",
          "ticks": 93120,
          "time": 155.20000000000002,
          "velocity": 0.6299212598425197
        },
        {
          "duration": 0.7583333333333258,
          "durationTicks": 455,
          "midi": 57,
          "name": "A3",
          "ticks": 93120,
          "time": 155.20000000000002,
          "velocity": 0.6299212598425197
        },
        {
          "duration": 0.7583333333333542,
          "durationTicks": 455,
          "midi": 52,
          "name": "E3",
          "ticks": 93600,
          "time": 156,
          "velocity": 0.6299212598425197
        },
        {
          "duration": 0.7583333333333542,
          "durationTicks": 455,
          "midi": 57,
          "name": "A3",
          "ticks": 93600,
          "time": 156,
          "velocity": 0.6299212598425197
        },
        {
          "duration": 0.7583333333333258,
          "durationTicks": 455,
          "midi": 50,
          "name": "D3",
          "ticks": 94080,
          "time": 156.8,
          "velocity": 0.6299212598425197
        },
        {
          "duration": 0.7583333333333258,
          "durationTicks": 455,
          "midi": 57,
          "name": "A3",
          "ticks": 94080,
          "time": 156.8,
          "velocity": 0.6299212598425197
        },
        {
          "duration": 0.7583333333333258,
          "durationTicks": 455,
          "midi": 50,
          "name": "D3",
          "ticks": 94560,
          "time": 157.60000000000002,
          "velocity": 0.6299212598425197
        },
        {
          "duration": 0.7583333333333258,
          "durationTicks": 455,
          "midi": 57,
          "name": "A3",
          "ticks": 94560,
          "time": 157.60000000000002,
          "velocity": 0.6299212598425197
        },
        {
          "duration": 0.7583333333333542,
          "durationTicks": 455,
          "midi": 48,
          "name": "C3",
          "ticks": 95040,
          "time": 158.4,
          "velocity": 0.6299212598425197
        },
        {
          "duration": 0.7583333333333542,
          "durationTicks": 455,
          "midi": 57,
          "name": "A3",
          "ticks": 95040,
          "time": 158.4,
          "velocity": 0.6299212598425197
        },
        {
          "duration": 0.7583333333333258,
          "durationTicks": 455,
          "midi": 48,
          "name": "C3",
          "ticks": 95520,
          "time": 159.20000000000002,
          "velocity": 0.6299212598425197
        },
        {
          "duration": 0.7583333333333258,
          "durationTicks": 455,
          "midi": 57,
          "name": "A3",
          "ticks": 95520,
          "time": 159.20000000000002,
          "velocity": 0.6299212598425197
        },
        {
          "duration": 0.7583333333333542,
          "durationTicks": 455,
          "midi": 55,
          "name": "G3",
          "ticks": 96000,
          "time": 160,
          "velocity": 0.6299212598425197
        },
        {
          "duration": 0.7583333333333542,
          "durationTicks": 455,
          "midi": 59,
          "name": "B3",
          "ticks": 96000,
          "time": 160,
          "velocity": 0.6299212598425197
        },
        {
          "duration": 0.7583333333333258,
          "durationTicks": 455,
          "midi": 55,
          "name": "G3",
          "ticks": 96480,
          "time": 160.8,
          "velocity": 0.6299212598425197
        },
        {
          "duration": 0.7583333333333258,
          "durationTicks": 455,
          "midi": 59,
          "name": "B3",
          "ticks": 96480,
          "time": 160.8,
          "velocity": 0.6299212598425197
        },
        {
          "duration": 0.7583333333333258,
          "durationTicks": 455,
          "midi": 53,
          "name": "F3",
          "ticks": 96960,
          "time": 161.60000000000002,
          "velocity": 0.6299212598425197
        },
        {
          "duration": 0.7583333333333258,
          "durationTicks": 455,
          "midi": 59,
          "name": "B3",
          "ticks": 96960,
          "time": 161.60000000000002,
          "velocity": 0.6299212598425197
        },
        {
          "duration": 0.7583333333333542,
          "durationTicks": 455,
          "midi": 53,
          "name": "F3",
          "ticks": 97440,
          "time": 162.4,
          "velocity": 0.6299212598425197
        },
        {
          "duration": 0.7583333333333542,
          "durationTicks": 455,
          "midi": 59,
          "name": "B3",
          "ticks": 97440,
          "time": 162.4,
          "velocity": 0.6299212598425197
        },
        {
          "duration": 0.7583333333333258,
          "durationTicks": 455,
          "midi": 52,
          "name": "E3",
          "ticks": 97920,
          "time": 163.20000000000002,
          "velocity": 0.6299212598425197
        },
        {
          "duration": 0.7583333333333258,
          "durationTicks": 455,
          "midi": 59,
          "name": "B3",
          "ticks": 97920,
          "time": 163.20000000000002,
          "velocity": 0.6299212598425197
        },
        {
          "duration": 0.7583333333333542,
          "durationTicks": 455,
          "midi": 52,
          "name": "E3",
          "ticks": 98400,
          "time": 164,
          "velocity": 0.6299212598425197
        },
        {
          "duration": 0.7583333333333542,
          "durationTicks": 455,
          "midi": 59,
          "name": "B3",
          "ticks": 98400,
          "time": 164,
          "velocity": 0.6299212598425197
        },
        {
          "duration": 0.7583333333333258,
          "durationTicks": 455,
          "midi": 50,
          "name": "D3",
          "ticks": 98880,
          "time": 164.8,
          "velocity": 0.6299212598425197
        },
        {
          "duration": 0.7583333333333258,
          "durationTicks": 455,
          "midi": 59,
          "name": "B3",
          "ticks": 98880,
          "time": 164.8,
          "velocity": 0.6299212598425197
        },
        {
          "duration": 0.7583333333333258,
          "durationTicks": 455,
          "midi": 50,
          "name": "D3",
          "ticks": 99360,
          "time": 165.60000000000002,
          "velocity": 0.6299212598425197
        },
        {
          "duration": 0.7583333333333258,
          "durationTicks": 455,
          "midi": 59,
          "name": "B3",
          "ticks": 99360,
          "time": 165.60000000000002,
          "velocity": 0.6299212598425197
        },
        {
          "duration": 0.7583333333333542,
          "durationTicks": 455,
          "midi": 48,
          "name": "C3",
          "ticks": 99840,
          "time": 166.4,
          "velocity": 0.6299212598425197
        },
        {
          "duration": 0.7583333333333542,
          "durationTicks": 455,
          "midi": 52,
          "name": "E3",
          "ticks": 99840,
          "time": 166.4,
          "velocity": 0.6299212598425197
        },
        {
          "duration": 0.7583333333333542,
          "durationTicks": 455,
          "midi": 48,
          "name": "C3",
          "ticks": 100320,
          "time": 167.2,
          "velocity": 0.6299212598425197
        },
        {
          "duration": 0.7583333333333542,
          "durationTicks": 455,
          "midi": 52,
          "name": "E3",
          "ticks": 100320,
          "time": 167.2,
          "velocity": 0.6299212598425197
        },
        {
          "duration": 0.7583333333333258,
          "durationTicks": 455,
          "midi": 47,
          "name": "B2",
          "ticks": 100800,
          "time": 168,
          "velocity": 0.6299212598425197
        },
        {
          "duration": 0.7583333333333258,
          "durationTicks": 455,
          "midi": 52,
          "name": "E3",
          "ticks": 100800,
          "time": 168,
          "velocity": 0.6299212598425197
        },
        {
          "duration": 0.7583333333333258,
          "durationTicks": 455,
          "midi": 47,
          "name": "B2",
          "ticks": 101280,
          "time": 168.8,
          "velocity": 0.6299212598425197
        },
        {
          "duration": 0.7583333333333258,
          "durationTicks": 455,
          "midi": 52,
          "name": "E3",
          "ticks": 101280,
          "time": 168.8,
          "velocity": 0.6299212598425197
        },
        {
          "duration": 0.7583333333333258,
          "durationTicks": 455,
          "midi": 45,
          "name": "A2",
          "ticks": 101760,
          "time": 169.60000000000002,
          "velocity": 0.6299212598425197
        },
        {
          "duration": 0.7583333333333258,
          "durationTicks": 455,
          "midi": 52,
          "name": "E3",
          "ticks": 101760,
          "time": 169.60000000000002,
          "velocity": 0.6299212598425197
        },
        {
          "duration": 0.7583333333333542,
          "durationTicks": 455,
          "midi": 45,
          "name": "A2",
          "ticks": 102240,
          "time": 170.4,
          "velocity": 0.6299212598425197
        },
        {
          "duration": 0.7583333333333542,
          "durationTicks": 455,
          "midi": 52,
          "name": "E3",
          "ticks": 102240,
          "time": 170.4,
          "velocity": 0.6299212598425197
        },
        {
          "duration": 0.7583333333333542,
          "durationTicks": 455,
          "midi": 43,
          "name": "G2",
          "ticks": 102720,
          "time": 171.2,
          "velocity": 0.6299212598425197
        },
        {
          "duration": 0.7583333333333542,
          "durationTicks": 455,
          "midi": 52,
          "name": "E3",
          "ticks": 102720,
          "time": 171.2,
          "velocity": 0.6299212598425197
        },
        {
          "duration": 0.7583333333333258,
          "durationTicks": 455,
          "midi": 43,
          "name": "G2",
          "ticks": 103200,
          "time": 172,
          "velocity": 0.6299212598425197
        },
        {
          "duration": 0.7583333333333258,
          "durationTicks": 455,
          "midi": 52,
          "name": "E3",
          "ticks": 103200,
          "time": 172,
          "velocity": 0.6299212598425197
        },
        {
          "duration": 0.7583333333333258,
          "durationTicks": 455,
          "midi": 53,
          "name": "F3",
          "ticks": 103680,
          "time": 172.8,
          "velocity": 0.6299212598425197
        },
        {
          "duration": 0.7583333333333258,
          "durationTicks": 455,
          "midi": 57,
          "name": "A3",
          "ticks": 103680,
          "time": 172.8,
          "velocity": 0.6299212598425197
        },
        {
          "duration": 0.7583333333333258,
          "durationTicks": 455,
          "midi": 53,
          "name": "F3",
          "ticks": 104160,
          "time": 173.60000000000002,
          "velocity": 0.6299212598425197
        },
        {
          "duration": 0.7583333333333258,
          "durationTicks": 455,
          "midi": 57,
          "name": "A3",
          "ticks": 104160,
          "time": 173.60000000000002,
          "velocity": 0.6299212598425197
        },
        {
          "duration": 0.7583333333333542,
          "durationTicks": 455,
          "midi": 52,
          "name": "E3",
          "ticks": 104640,
          "time": 174.4,
          "velocity": 0.6299212598425197
        },
        {
          "duration": 0.7583333333333542,
          "durationTicks": 455,
          "midi": 57,
          "name": "A3",
          "ticks": 104640,
          "time": 174.4,
          "velocity": 0.6299212598425197
        },
        {
          "duration": 0.7583333333333542,
          "durationTicks": 455,
          "midi": 52,
          "name": "E3",
          "ticks": 105120,
          "time": 175.2,
          "velocity": 0.6299212598425197
        },
        {
          "duration": 0.7583333333333542,
          "durationTicks": 455,
          "midi": 57,
          "name": "A3",
          "ticks": 105120,
          "time": 175.2,
          "velocity": 0.6299212598425197
        },
        {
          "duration": 0.7583333333333258,
          "durationTicks": 455,
          "midi": 50,
          "name": "D3",
          "ticks": 105600,
          "time": 176,
          "velocity": 0.6299212598425197
        },
        {
          "duration": 0.7583333333333258,
          "durationTicks": 455,
          "midi": 57,
          "name": "A3",
          "ticks": 105600,
          "time": 176,
          "velocity": 0.6299212598425197
        },
        {
          "duration": 0.7583333333333258,
          "durationTicks": 455,
          "midi": 50,
          "name": "D3",
          "ticks": 106080,
          "time": 176.8,
          "velocity": 0.6299212598425197
        },
        {
          "duration": 0.7583333333333258,
          "durationTicks": 455,
          "midi": 57,
          "name": "A3",
          "ticks": 106080,
          "time": 176.8,
          "velocity": 0.6299212598425197
        },
        {
          "duration": 1.5183333333333167,
          "durationTicks": 911,
          "midi": 55,
          "name": "G3",
          "ticks": 106560,
          "time": 177.60000000000002,
          "velocity": 0.6299212598425197
        },
        {
          "duration": 1.5183333333333167,
          "durationTicks": 911,
          "midi": 59,
          "name": "B3",
          "ticks": 106560,
          "time": 177.60000000000002,
          "velocity": 0.6299212598425197
        },
        {
          "duration": 0.7583333333333258,
          "durationTicks": 455,
          "midi": 48,
          "name": "C3",
          "ticks": 107520,
          "time": 179.20000000000002,
          "velocity": 0.6299212598425197
        },
        {
          "duration": 0.7583333333333258,
          "durationTicks": 455,
          "midi": 52,
          "name": "E3",
          "ticks": 107520,
          "time": 179.20000000000002,
          "velocity": 0.6299212598425197
        },
        {
          "duration": 0.7583333333333542,
          "durationTicks": 455,
          "midi": 48,
          "name": "C3",
          "ticks": 108000,
          "time": 180,
          "velocity": 0.6299212598425197
        },
        {
          "duration": 0.7583333333333542,
          "durationTicks": 455,
          "midi": 52,
          "name": "E3",
          "ticks": 108000,
          "time": 180,
          "velocity": 0.6299212598425197
        },
        {
          "duration": 0.7583333333333258,
          "durationTicks": 455,
          "midi": 47,
          "name": "B2",
          "ticks": 108480,
          "time": 180.8,
          "velocity": 0.6299212598425197
        },
        {
          "duration": 0.7583333333333258,
          "durationTicks": 455,
          "midi": 52,
          "name": "E3",
          "ticks": 108480,
          "time": 180.8,
          "velocity": 0.6299212598425197
        },
        {
          "duration": 0.7583333333333258,
          "durationTicks": 455,
          "midi": 47,
          "name": "B2",
          "ticks": 108960,
          "time": 181.60000000000002,
          "velocity": 0.6299212598425197
        },
        {
          "duration": 0.7583333333333258,
          "durationTicks": 455,
          "midi": 52,
          "name": "E3",
          "ticks": 108960,
          "time": 181.60000000000002,
          "velocity": 0.6299212598425197
        },
        {
          "duration": 0.7583333333333542,
          "durationTicks": 455,
          "midi": 45,
          "name": "A2",
          "ticks": 109440,
          "time": 182.4,
          "velocity": 0.6299212598425197
        },
        {
          "duration": 0.7583333333333542,
          "durationTicks": 455,
          "midi": 52,
          "name": "E3",
          "ticks": 109440,
          "time": 182.4,
          "velocity": 0.6299212598425197
        },
        {
          "duration": 0.7583333333333258,
          "durationTicks": 455,
          "midi": 45,
          "name": "A2",
          "ticks": 109920,
          "time": 183.20000000000002,
          "velocity": 0.6299212598425197
        },
        {
          "duration": 0.7583333333333258,
          "durationTicks": 455,
          "midi": 52,
          "name": "E3",
          "ticks": 109920,
          "time": 183.20000000000002,
          "velocity": 0.6299212598425197
        },
        {
          "duration": 0.7583333333333542,
          "durationTicks": 455,
          "midi": 43,
          "name": "G2",
          "ticks": 110400,
          "time": 184,
          "velocity": 0.6299212598425197
        },
        {
          "duration": 0.7583333333333542,
          "durationTicks": 455,
          "midi": 52,
          "name": "E3",
          "ticks": 110400,
          "time": 184,
          "velocity": 0.6299212598425197
        },
        {
          "duration": 0.7583333333333258,
          "durationTicks": 455,
          "midi": 43,
          "name": "G2",
          "ticks": 110880,
          "time": 184.8,
          "velocity": 0.6299212598425197
        },
        {
          "duration": 0.7583333333333258,
          "durationTicks": 455,
          "midi": 52,
          "name": "E3",
          "ticks": 110880,
          "time": 184.8,
          "velocity": 0.6299212598425197
        },
        {
          "duration": 0.7583333333333258,
          "durationTicks": 455,
          "midi": 53,
          "name": "F3",
          "ticks": 111360,
          "time": 185.60000000000002,
          "velocity": 0.6299212598425197
        },
        {
          "duration": 0.7583333333333258,
          "durationTicks": 455,
          "midi": 57,
          "name": "A3",
          "ticks": 111360,
          "time": 185.60000000000002,
          "velocity": 0.6299212598425197
        },
        {
          "duration": 0.7583333333333542,
          "durationTicks": 455,
          "midi": 53,
          "name": "F3",
          "ticks": 111840,
          "time": 186.4,
          "velocity": 0.6299212598425197
        },
        {
          "duration": 0.7583333333333542,
          "durationTicks": 455,
          "midi": 57,
          "name": "A3",
          "ticks": 111840,
          "time": 186.4,
          "velocity": 0.6299212598425197
        },
        {
          "duration": 0.7583333333333258,
          "durationTicks": 455,
          "midi": 52,
          "name": "E3",
          "ticks": 112320,
          "time": 187.20000000000002,
          "velocity": 0.6299212598425197
        },
        {
          "duration": 0.7583333333333258,
          "durationTicks": 455,
          "midi": 57,
          "name": "A3",
          "ticks": 112320,
          "time": 187.20000000000002,
          "velocity": 0.6299212598425197
        },
        {
          "duration": 0.7583333333333542,
          "durationTicks": 455,
          "midi": 52,
          "name": "E3",
          "ticks": 112800,
          "time": 188,
          "velocity": 0.6299212598425197
        },
        {
          "duration": 0.7583333333333542,
          "durationTicks": 455,
          "midi": 57,
          "name": "A3",
          "ticks": 112800,
          "time": 188,
          "velocity": 0.6299212598425197
        },
        {
          "duration": 0.7583333333333258,
          "durationTicks": 455,
          "midi": 50,
          "name": "D3",
          "ticks": 113280,
          "time": 188.8,
          "velocity": 0.6299212598425197
        },
        {
          "duration": 0.7583333333333258,
          "durationTicks": 455,
          "midi": 57,
          "name": "A3",
          "ticks": 113280,
          "time": 188.8,
          "velocity": 0.6299212598425197
        },
        {
          "duration": 0.7583333333333258,
          "durationTicks": 455,
          "midi": 50,
          "name": "D3",
          "ticks": 113760,
          "time": 189.60000000000002,
          "velocity": 0.6299212598425197
        },
        {
          "duration": 0.7583333333333258,
          "durationTicks": 455,
          "midi": 57,
          "name": "A3",
          "ticks": 113760,
          "time": 189.60000000000002,
          "velocity": 0.6299212598425197
        },
        {
          "duration": 0.7583333333333542,
          "durationTicks": 455,
          "midi": 48,
          "name": "C3",
          "ticks": 114240,
          "time": 190.4,
          "velocity": 0.6299212598425197
        },
        {
          "duration": 0.7583333333333542,
          "durationTicks": 455,
          "midi": 57,
          "name": "A3",
          "ticks": 114240,
          "time": 190.4,
          "velocity": 0.6299212598425197
        },
        {
          "duration": 0.7583333333333258,
          "durationTicks": 455,
          "midi": 48,
          "name": "C3",
          "ticks": 114720,
          "time": 191.20000000000002,
          "velocity": 0.6299212598425197
        },
        {
          "duration": 0.7583333333333258,
          "durationTicks": 455,
          "midi": 57,
          "name": "A3",
          "ticks": 114720,
          "time": 191.20000000000002,
          "velocity": 0.6299212598425197
        },
        {
          "duration": 0.7583333333333542,
          "durationTicks": 455,
          "midi": 55,
          "name": "G3",
          "ticks": 115200,
          "time": 192,
          "velocity": 0.6299212598425197
        },
        {
          "duration": 0.7583333333333542,
          "durationTicks": 455,
          "midi": 59,
          "name": "B3",
          "ticks": 115200,
          "time": 192,
          "velocity": 0.6299212598425197
        },
        {
          "duration": 0.7583333333333258,
          "durationTicks": 455,
          "midi": 55,
          "name": "G3",
          "ticks": 115680,
          "time": 192.8,
          "velocity": 0.6299212598425197
        },
        {
          "duration": 0.7583333333333258,
          "durationTicks": 455,
          "midi": 59,
          "name": "B3",
          "ticks": 115680,
          "time": 192.8,
          "velocity": 0.6299212598425197
        },
        {
          "duration": 0.7583333333333258,
          "durationTicks": 455,
          "midi": 53,
          "name": "F3",
          "ticks": 116160,
          "time": 193.60000000000002,
          "velocity": 0.6299212598425197
        },
        {
          "duration": 0.7583333333333258,
          "durationTicks": 455,
          "midi": 59,
          "name": "B3",
          "ticks": 116160,
          "time": 193.60000000000002,
          "velocity": 0.6299212598425197
        },
        {
          "duration": 0.7583333333333542,
          "durationTicks": 455,
          "midi": 53,
          "name": "F3",
          "ticks": 116640,
          "time": 194.4,
          "velocity": 0.6299212598425197
        },
        {
          "duration": 0.7583333333333542,
          "durationTicks": 455,
          "midi": 59,
          "name": "B3",
          "ticks": 116640,
          "time": 194.4,
          "velocity": 0.6299212598425197
        },
        {
          "duration": 0.7583333333333258,
          "durationTicks": 455,
          "midi": 52,
          "name": "E3",
          "ticks": 117120,
          "time": 195.20000000000002,
          "velocity": 0.6299212598425197
        },
        {
          "duration": 0.7583333333333258,
          "durationTicks": 455,
          "midi": 59,
          "name": "B3",
          "ticks": 117120,
          "time": 195.20000000000002,
          "velocity": 0.6299212598425197
        },
        {
          "duration": 0.7583333333333542,
          "durationTicks": 455,
          "midi": 52,
          "name": "E3",
          "ticks": 117600,
          "time": 196,
          "velocity": 0.6299212598425197
        },
        {
          "duration": 0.7583333333333542,
          "durationTicks": 455,
          "midi": 59,
          "name": "B3",
          "ticks": 117600,
          "time": 196,
          "velocity": 0.6299212598425197
        },
        {
          "duration": 0.7583333333333258,
          "durationTicks": 455,
          "midi": 50,
          "name": "D3",
          "ticks": 118080,
          "time": 196.8,
          "velocity": 0.6299212598425197
        },
        {
          "duration": 0.7583333333333258,
          "durationTicks": 455,
          "midi": 59,
          "name": "B3",
          "ticks": 118080,
          "time": 196.8,
          "velocity": 0.6299212598425197
        },
        {
          "duration": 0.7583333333333258,
          "durationTicks": 455,
          "midi": 50,
          "name": "D3",
          "ticks": 118560,
          "time": 197.60000000000002,
          "velocity": 0.6299212598425197
        },
        {
          "duration": 0.7583333333333258,
          "durationTicks": 455,
          "midi": 59,
          "name": "B3",
          "ticks": 118560,
          "time": 197.60000000000002,
          "velocity": 0.6299212598425197
        },
        {
          "duration": 0.7583333333333542,
          "durationTicks": 455,
          "midi": 48,
          "name": "C3",
          "ticks": 119040,
          "time": 198.4,
          "velocity": 0.6299212598425197
        },
        {
          "duration": 0.7583333333333542,
          "durationTicks": 455,
          "midi": 52,
          "name": "E3",
          "ticks": 119040,
          "time": 198.4,
          "velocity": 0.6299212598425197
        },
        {
          "duration": 0.7583333333333542,
          "durationTicks": 455,
          "midi": 55,
          "name": "G3",
          "ticks": 119040,
          "time": 198.4,
          "velocity": 0.6299212598425197
        },
        {
          "duration": 0.7583333333333258,
          "durationTicks": 455,
          "midi": 48,
          "name": "C3",
          "ticks": 119520,
          "time": 199.20000000000002,
          "velocity": 0.6299212598425197
        },
        {
          "duration": 0.7583333333333258,
          "durationTicks": 455,
          "midi": 52,
          "name": "E3",
          "ticks": 119520,
          "time": 199.20000000000002,
          "velocity": 0.6299212598425197
        },
        {
          "duration": 0.7583333333333258,
          "durationTicks": 455,
          "midi": 55,
          "name": "G3",
          "ticks": 119520,
          "time": 199.20000000000002,
          "velocity": 0.6299212598425197
        },
        {
          "duration": 0.7583333333333542,
          "durationTicks": 455,
          "midi": 48,
          "name": "C3",
          "ticks": 120000,
          "time": 200,
          "velocity": 0.6299212598425197
        },
        {
          "duration": 0.7583333333333542,
          "durationTicks": 455,
          "midi": 53,
          "name": "F3",
          "ticks": 120000,
          "time": 200,
          "velocity": 0.6299212598425197
        },
        {
          "duration": 0.7583333333333542,
          "durationTicks": 455,
          "midi": 57,
          "name": "A3",
          "ticks": 120000,
          "time": 200,
          "velocity": 0.6299212598425197
        },
        {
          "duration": 0.7583333333333258,
          "durationTicks": 455,
          "midi": 48,
          "name": "C3",
          "ticks": 120480,
          "time": 200.8,
          "velocity": 0.6299212598425197
        },
        {
          "duration": 0.7583333333333258,
          "durationTicks": 455,
          "midi": 53,
          "name": "F3",
          "ticks": 120480,
          "time": 200.8,
          "velocity": 0.6299212598425197
        },
        {
          "duration": 0.7583333333333258,
          "durationTicks": 455,
          "midi": 57,
          "name": "A3",
          "ticks": 120480,
          "time": 200.8,
          "velocity": 0.6299212598425197
        },
        {
          "duration": 0.7583333333333258,
          "durationTicks": 455,
          "midi": 48,
          "name": "C3",
          "ticks": 120960,
          "time": 201.60000000000002,
          "velocity": 0.6299212598425197
        },
        {
          "duration": 0.7583333333333258,
          "durationTicks": 455,
          "midi": 52,
          "name": "E3",
          "ticks": 120960,
          "time": 201.60000000000002,
          "velocity": 0.6299212598425197
        },
        {
          "duration": 0.7583333333333258,
          "durationTicks": 455,
          "midi": 55,
          "name": "G3",
          "ticks": 120960,
          "time": 201.60000000000002,
          "velocity": 0.6299212598425197
        },
        {
          "duration": 0.7583333333333542,
          "durationTicks": 455,
          "midi": 48,
          "name": "C3",
          "ticks": 121440,
          "time": 202.4,
          "velocity": 0.6299212598425197
        },
        {
          "duration": 0.7583333333333542,
          "durationTicks": 455,
          "midi": 52,
          "name": "E3",
          "ticks": 121440,
          "time": 202.4,
          "velocity": 0.6299212598425197
        },
        {
          "duration": 0.7583333333333542,
          "durationTicks": 455,
          "midi": 55,
          "name": "G3",
          "ticks": 121440,
          "time": 202.4,
          "velocity": 0.6299212598425197
        },
        {
          "duration": 0.3783333333333303,
          "durationTicks": 227,
          "midi": 53,
          "name": "F3",
          "ticks": 121920,
          "time": 203.20000000000002,
          "velocity": 0.6299212598425197
        },
        {
          "duration": 0.3783333333333303,
          "durationTicks": 227,
          "midi": 52,
          "name": "E3",
          "ticks": 122160,
          "time": 203.60000000000002,
          "velocity": 0.6299212598425197
        },
        {
          "duration": 0.3783333333333303,
          "durationTicks": 227,
          "midi": 53,
          "name": "F3",
          "ticks": 122400,
          "time": 204,
          "velocity": 0.6299212598425197
        },
        {
          "duration": 0.3783333333333303,
          "durationTicks": 227,
          "midi": 50,
          "name": "D3",
          "ticks": 122640,
          "time": 204.4,
          "velocity": 0.6299212598425197
        },
        {
          "duration": 0.7583333333333258,
          "durationTicks": 455,
          "midi": 48,
          "name": "C3",
          "ticks": 122880,
          "time": 204.8,
          "velocity": 0.6299212598425197
        },
        {
          "duration": 0.7583333333333258,
          "durationTicks": 455,
          "midi": 52,
          "name": "E3",
          "ticks": 122880,
          "time": 204.8,
          "velocity": 0.6299212598425197
        },
        {
          "duration": 0.7583333333333258,
          "durationTicks": 455,
          "midi": 48,
          "name": "C3",
          "ticks": 123360,
          "time": 205.60000000000002,
          "velocity": 0.6299212598425197
        },
        {
          "duration": 0.7583333333333258,
          "durationTicks": 455,
          "midi": 52,
          "name": "E3",
          "ticks": 123360,
          "time": 205.60000000000002,
          "velocity": 0.6299212598425197
        },
        {
          "duration": 0.7583333333333258,
          "durationTicks": 455,
          "midi": 47,
          "name": "B2",
          "ticks": 123840,
          "time": 206.4,
          "velocity": 0.6299212598425197
        },
        {
          "duration": 0.7583333333333258,
          "durationTicks": 455,
          "midi": 52,
          "name": "E3",
          "ticks": 123840,
          "time": 206.4,
          "velocity": 0.6299212598425197
        },
        {
          "duration": 0.7583333333333258,
          "durationTicks": 455,
          "midi": 47,
          "name": "B2",
          "ticks": 124320,
          "time": 207.20000000000002,
          "velocity": 0.6299212598425197
        },
        {
          "duration": 0.7583333333333258,
          "durationTicks": 455,
          "midi": 52,
          "name": "E3",
          "ticks": 124320,
          "time": 207.20000000000002,
          "velocity": 0.6299212598425197
        },
        {
          "duration": 0.7583333333333258,
          "durationTicks": 455,
          "midi": 45,
          "name": "A2",
          "ticks": 124800,
          "time": 208,
          "velocity": 0.6299212598425197
        },
        {
          "duration": 0.7583333333333258,
          "durationTicks": 455,
          "midi": 52,
          "name": "E3",
          "ticks": 124800,
          "time": 208,
          "velocity": 0.6299212598425197
        },
        {
          "duration": 0.7583333333333258,
          "durationTicks": 455,
          "midi": 45,
          "name": "A2",
          "ticks": 125280,
          "time": 208.8,
          "velocity": 0.6299212598425197
        },
        {
          "duration": 0.7583333333333258,
          "durationTicks": 455,
          "midi": 52,
          "name": "E3",
          "ticks": 125280,
          "time": 208.8,
          "velocity": 0.6299212598425197
        },
        {
          "duration": 0.7583333333333258,
          "durationTicks": 455,
          "midi": 43,
          "name": "G2",
          "ticks": 125760,
          "time": 209.60000000000002,
          "velocity": 0.6299212598425197
        },
        {
          "duration": 0.7583333333333258,
          "durationTicks": 455,
          "midi": 52,
          "name": "E3",
          "ticks": 125760,
          "time": 209.60000000000002,
          "velocity": 0.6299212598425197
        },
        {
          "duration": 0.7583333333333258,
          "durationTicks": 455,
          "midi": 43,
          "name": "G2",
          "ticks": 126240,
          "time": 210.4,
          "velocity": 0.6299212598425197
        },
        {
          "duration": 0.7583333333333258,
          "durationTicks": 455,
          "midi": 52,
          "name": "E3",
          "ticks": 126240,
          "time": 210.4,
          "velocity": 0.6299212598425197
        },
        {
          "duration": 0.7583333333333258,
          "durationTicks": 455,
          "midi": 53,
          "name": "F3",
          "ticks": 126720,
          "time": 211.20000000000002,
          "velocity": 0.6299212598425197
        },
        {
          "duration": 0.7583333333333258,
          "durationTicks": 455,
          "midi": 57,
          "name": "A3",
          "ticks": 126720,
          "time": 211.20000000000002,
          "velocity": 0.6299212598425197
        },
        {
          "duration": 0.7583333333333258,
          "durationTicks": 455,
          "midi": 53,
          "name": "F3",
          "ticks": 127200,
          "time": 212,
          "velocity": 0.6299212598425197
        },
        {
          "duration": 0.7583333333333258,
          "durationTicks": 455,
          "midi": 57,
          "name": "A3",
          "ticks": 127200,
          "time": 212,
          "velocity": 0.6299212598425197
        },
        {
          "duration": 0.7583333333333258,
          "durationTicks": 455,
          "midi": 52,
          "name": "E3",
          "ticks": 127680,
          "time": 212.8,
          "velocity": 0.6299212598425197
        },
        {
          "duration": 0.7583333333333258,
          "durationTicks": 455,
          "midi": 57,
          "name": "A3",
          "ticks": 127680,
          "time": 212.8,
          "velocity": 0.6299212598425197
        },
        {
          "duration": 0.7583333333333258,
          "durationTicks": 455,
          "midi": 52,
          "name": "E3",
          "ticks": 128160,
          "time": 213.60000000000002,
          "velocity": 0.6299212598425197
        },
        {
          "duration": 0.7583333333333258,
          "durationTicks": 455,
          "midi": 57,
          "name": "A3",
          "ticks": 128160,
          "time": 213.60000000000002,
          "velocity": 0.6299212598425197
        },
        {
          "duration": 0.7583333333333258,
          "durationTicks": 455,
          "midi": 50,
          "name": "D3",
          "ticks": 128640,
          "time": 214.4,
          "velocity": 0.6299212598425197
        },
        {
          "duration": 0.7583333333333258,
          "durationTicks": 455,
          "midi": 57,
          "name": "A3",
          "ticks": 128640,
          "time": 214.4,
          "velocity": 0.6299212598425197
        },
        {
          "duration": 0.7583333333333258,
          "durationTicks": 455,
          "midi": 50,
          "name": "D3",
          "ticks": 129120,
          "time": 215.20000000000002,
          "velocity": 0.6299212598425197
        },
        {
          "duration": 0.7583333333333258,
          "durationTicks": 455,
          "midi": 57,
          "name": "A3",
          "ticks": 129120,
          "time": 215.20000000000002,
          "velocity": 0.6299212598425197
        },
        {
          "duration": 0.7583333333333258,
          "durationTicks": 455,
          "midi": 48,
          "name": "C3",
          "ticks": 129600,
          "time": 216,
          "velocity": 0.6299212598425197
        },
        {
          "duration": 0.7583333333333258,
          "durationTicks": 455,
          "midi": 57,
          "name": "A3",
          "ticks": 129600,
          "time": 216,
          "velocity": 0.6299212598425197
        },
        {
          "duration": 0.7583333333333258,
          "durationTicks": 455,
          "midi": 48,
          "name": "C3",
          "ticks": 130080,
          "time": 216.8,
          "velocity": 0.6299212598425197
        },
        {
          "duration": 0.7583333333333258,
          "durationTicks": 455,
          "midi": 57,
          "name": "A3",
          "ticks": 130080,
          "time": 216.8,
          "velocity": 0.6299212598425197
        },
        {
          "duration": 0.7583333333333258,
          "durationTicks": 455,
          "midi": 55,
          "name": "G3",
          "ticks": 130560,
          "time": 217.60000000000002,
          "velocity": 0.6299212598425197
        },
        {
          "duration": 0.7583333333333258,
          "durationTicks": 455,
          "midi": 59,
          "name": "B3",
          "ticks": 130560,
          "time": 217.60000000000002,
          "velocity": 0.6299212598425197
        },
        {
          "duration": 0.7583333333333258,
          "durationTicks": 455,
          "midi": 55,
          "name": "G3",
          "ticks": 131040,
          "time": 218.4,
          "velocity": 0.6299212598425197
        },
        {
          "duration": 0.7583333333333258,
          "durationTicks": 455,
          "midi": 59,
          "name": "B3",
          "ticks": 131040,
          "time": 218.4,
          "velocity": 0.6299212598425197
        },
        {
          "duration": 0.7583333333333258,
          "durationTicks": 455,
          "midi": 53,
          "name": "F3",
          "ticks": 131520,
          "time": 219.20000000000002,
          "velocity": 0.6299212598425197
        },
        {
          "duration": 0.7583333333333258,
          "durationTicks": 455,
          "midi": 59,
          "name": "B3",
          "ticks": 131520,
          "time": 219.20000000000002,
          "velocity": 0.6299212598425197
        },
        {
          "duration": 0.7583333333333258,
          "durationTicks": 455,
          "midi": 53,
          "name": "F3",
          "ticks": 132000,
          "time": 220,
          "velocity": 0.6299212598425197
        },
        {
          "duration": 0.7583333333333258,
          "durationTicks": 455,
          "midi": 59,
          "name": "B3",
          "ticks": 132000,
          "time": 220,
          "velocity": 0.6299212598425197
        },
        {
          "duration": 0.7583333333333258,
          "durationTicks": 455,
          "midi": 52,
          "name": "E3",
          "ticks": 132480,
          "time": 220.8,
          "velocity": 0.6299212598425197
        },
        {
          "duration": 0.7583333333333258,
          "durationTicks": 455,
          "midi": 59,
          "name": "B3",
          "ticks": 132480,
          "time": 220.8,
          "velocity": 0.6299212598425197
        },
        {
          "duration": 0.7583333333333258,
          "durationTicks": 455,
          "midi": 52,
          "name": "E3",
          "ticks": 132960,
          "time": 221.60000000000002,
          "velocity": 0.6299212598425197
        },
        {
          "duration": 0.7583333333333258,
          "durationTicks": 455,
          "midi": 59,
          "name": "B3",
          "ticks": 132960,
          "time": 221.60000000000002,
          "velocity": 0.6299212598425197
        },
        {
          "duration": 0.7583333333333258,
          "durationTicks": 455,
          "midi": 50,
          "name": "D3",
          "ticks": 133440,
          "time": 222.4,
          "velocity": 0.6299212598425197
        },
        {
          "duration": 0.7583333333333258,
          "durationTicks": 455,
          "midi": 59,
          "name": "B3",
          "ticks": 133440,
          "time": 222.4,
          "velocity": 0.6299212598425197
        },
        {
          "duration": 0.7583333333333258,
          "durationTicks": 455,
          "midi": 50,
          "name": "D3",
          "ticks": 133920,
          "time": 223.20000000000002,
          "velocity": 0.6299212598425197
        },
        {
          "duration": 0.7583333333333258,
          "durationTicks": 455,
          "midi": 59,
          "name": "B3",
          "ticks": 133920,
          "time": 223.20000000000002,
          "velocity": 0.6299212598425197
        },
        {
          "duration": 1.518333333333345,
          "durationTicks": 911,
          "midi": 48,
          "name": "C3",
          "ticks": 134400,
          "time": 224,
          "velocity": 0.6299212598425197
        },
        {
          "duration": 1.518333333333345,
          "durationTicks": 911,
          "midi": 55,
          "name": "G3",
          "ticks": 134400,
          "time": 224,
          "velocity": 0.6299212598425197
        },
        {
          "duration": 1.5183333333333167,
          "durationTicks": 911,
          "midi": 53,
          "name": "F3",
          "ticks": 135360,
          "time": 225.60000000000002,
          "velocity": 0.6299212598425197
        },
        {
          "duration": 1.5183333333333167,
          "durationTicks": 911,
          "midi": 57,
          "name": "A3",
          "ticks": 135360,
          "time": 225.60000000000002,
          "velocity": 0.6299212598425197
        },
        {
          "duration": 1.518333333333345,
          "durationTicks": 911,
          "midi": 55,
          "name": "G3",
          "ticks": 136320,
          "time": 227.20000000000002,
          "velocity": 0.6299212598425197
        },
        {
          "duration": 0.7583333333333258,
          "durationTicks": 455,
          "midi": 45,
          "name": "A2",
          "ticks": 137280,
          "time": 228.8,
          "velocity": 0.6299212598425197
        },
        {
          "duration": 0.7583333333333258,
          "durationTicks": 455,
          "midi": 47,
          "name": "B2",
          "ticks": 137760,
          "time": 229.60000000000002,
          "velocity": 0.6299212598425197
        },
        {
          "duration": 1.518333333333345,
          "durationTicks": 911,
          "midi": 48,
          "name": "C3",
          "ticks": 138240,
          "time": 230.4,
          "velocity": 0.6299212598425197
        },
        {
          "duration": 1.518333333333345,
          "durationTicks": 911,
          "midi": 55,
          "name": "G3",
          "ticks": 138240,
          "time": 230.4,
          "velocity": 0.6299212598425197
        },
        {
          "duration": 0.7583333333333258,
          "durationTicks": 455,
          "midi": 55,
          "name": "G3",
          "ticks": 139200,
          "time": 232,
          "velocity": 0.6299212598425197
        },
        {
          "duration": 0.7583333333333258,
          "durationTicks": 455,
          "midi": 55,
          "name": "G3",
          "ticks": 139680,
          "time": 232.8,
          "velocity": 0.6299212598425197
        },
        {
          "duration": 0.7583333333333258,
          "durationTicks": 455,
          "midi": 48,
          "name": "C3",
          "ticks": 140160,
          "time": 233.60000000000002,
          "velocity": 0.6299212598425197
        },
        {
          "duration": 0.7583333333333258,
          "durationTicks": 455,
          "midi": 53,
          "name": "F3",
          "ticks": 140160,
          "time": 233.60000000000002,
          "velocity": 0.6299212598425197
        },
        {
          "duration": 0.7583333333333258,
          "durationTicks": 455,
          "midi": 55,
          "name": "G3",
          "ticks": 140160,
          "time": 233.60000000000002,
          "velocity": 0.6299212598425197
        },
        {
          "duration": 0.3783333333333303,
          "durationTicks": 227,
          "midi": 52,
          "name": "E3",
          "ticks": 140640,
          "time": 234.4,
          "velocity": 0.6299212598425197
        },
        {
          "duration": 0.3783333333333303,
          "durationTicks": 227,
          "midi": 50,
          "name": "D3",
          "ticks": 140880,
          "time": 234.8,
          "velocity": 0.6299212598425197
        },
        {
          "duration": 1.518333333333345,
          "durationTicks": 911,
          "midi": 48,
          "name": "C3",
          "ticks": 141120,
          "time": 235.20000000000002,
          "velocity": 0.6299212598425197
        },
        {
          "duration": 1.518333333333345,
          "durationTicks": 911,
          "midi": 52,
          "name": "E3",
          "ticks": 141120,
          "time": 235.20000000000002,
          "velocity": 0.6299212598425197
        },
        {
          "duration": 1.518333333333345,
          "durationTicks": 911,
          "midi": 55,
          "name": "G3",
          "ticks": 141120,
          "time": 235.20000000000002,
          "velocity": 0.6299212598425197
        }
      ],
      "endOfTrackTicks": 142032
    }
  ]
}
