{
  "header": {
    "keySignatures": [
      {
        "key": "G",
        "scale": "major",
        "ticks": 0
      },
      {
        "key": "G",
        "scale": "major",
        "ticks": 23040
      },
      {
        "key": "G",
        "scale": "major",
        "ticks": 0
      },
      {
        "key": "G",
        "scale": "major",
        "ticks": 23040
      }
    ],
    "meta": [],
    "name": "Piano\u0000",
    "ppq": 480,
    "tempos": [
      {
        "bpm": 65.99999340000066,
        "ticks": 0
      },
      {
        "bpm": 65.99999340000066,
        "ticks": 23039
      },
      {
        "bpm": 65.99999340000066,
        "ticks": 23040
      }
    ],
    "timeSignatures": [
      {
        "ticks": 0,
        "timeSignature": [4, 4],
        "measures": 0
      },
      {
        "ticks": 23040,
        "timeSignature": [4, 4],
        "measures": 12
      }
    ]
  },
  "tracks": [
    {
      "channel": 0,
      "controlChanges": {
        "7": [
          {
            "number": 7,
            "ticks": 0,
            "time": 0,
            "value": 0.7874015748031497
          }
        ],
        "10": [
          {
            "number": 10,
            "ticks": 0,
            "time": 0,
            "value": 0.5039370078740157
          }
        ],
        "91": [
          {
            "number": 91,
            "ticks": 0,
            "time": 0,
            "value": 0
          }
        ],
        "93": [
          {
            "number": 93,
            "ticks": 0,
            "time": 0,
            "value": 0
          }
        ],
        "121": [
          {
            "number": 121,
            "ticks": 0,
            "time": 0,
            "value": 0
          }
        ]
      },
      "pitchBends": [],
      "instrument": {
        "family": "piano",
        "name": "acoustic grand piano",
        "number": 0
      },
      "name": "Piano\u0000",
      "notes": [
        {
          "duration": 3.4526518604166667,
          "durationTicks": 1823,
          "midi": 71,
          "name": "B4",
          "ticks": 0,
          "time": 0,
          "velocity": 0.6299212598425197
        },
        {
          "duration": 3.4526518604166667,
          "durationTicks": 1823,
          "midi": 62,
          "name": "D4",
          "ticks": 0,
          "time": 0,
          "velocity": 0.4409448818897638
        },
        {
          "duration": 3.4526518604166667,
          "durationTicks": 1823,
          "midi": 67,
          "name": "G4",
          "ticks": 0,
          "time": 0,
          "velocity": 0.4409448818897638
        },
        {
          "duration": 4.316288310416667,
          "durationTicks": 2279,
          "midi": 71,
          "name": "B4",
          "ticks": 1920,
          "time": 3.636364,
          "velocity": 0.6299212598425197
        },
        {
          "duration": 3.4526518604166667,
          "durationTicks": 1823,
          "midi": 64,
          "name": "E4",
          "ticks": 1920,
          "time": 3.636364,
          "velocity": 0.4409448818897638
        },
        {
          "duration": 3.4526518604166667,
          "durationTicks": 1823,
          "midi": 67,
          "name": "G4",
          "ticks": 1920,
          "time": 3.636364,
          "velocity": 0.4409448818897638
        },
        {
          "duration": 1.7253789604166672,
          "durationTicks": 911,
          "midi": 64,
          "name": "E4",
          "ticks": 3840,
          "time": 7.272728,
          "velocity": 0.4409448818897638
        },
        {
          "duration": 1.7253789604166672,
          "durationTicks": 911,
          "midi": 67,
          "name": "G4",
          "ticks": 3840,
          "time": 7.272728,
          "velocity": 0.4409448818897638
        },
        {
          "duration": 0.42992428541666783,
          "durationTicks": 227,
          "midi": 76,
          "name": "E5",
          "ticks": 4320,
          "time": 8.181818999999999,
          "velocity": 0.6299212598425197
        },
        {
          "duration": 0.42992428541666783,
          "durationTicks": 227,
          "midi": 72,
          "name": "C5",
          "ticks": 4560,
          "time": 8.636364499999999,
          "velocity": 0.6299212598425197
        },
        {
          "duration": 0.06250000624999963,
          "durationTicks": 33,
          "midi": 71,
          "name": "B4",
          "ticks": 4800,
          "time": 9.09091,
          "velocity": 0.6299212598425197
        },
        {
          "duration": 1.725378960416668,
          "durationTicks": 911,
          "midi": 64,
          "name": "E4",
          "ticks": 4800,
          "time": 9.09091,
          "velocity": 0.4409448818897638
        },
        {
          "duration": 0.3674242791666664,
          "durationTicks": 194,
          "midi": 69,
          "name": "A4",
          "ticks": 4834,
          "time": 9.155303945833333,
          "velocity": 0.6299212598425197
        },
        {
          "duration": 0.42992428541666783,
          "durationTicks": 227,
          "midi": 67,
          "name": "G4",
          "ticks": 5040,
          "time": 9.5454555,
          "velocity": 0.6299212598425197
        },
        {
          "duration": 0.42992428541666783,
          "durationTicks": 227,
          "midi": 66,
          "name": "F#4",
          "ticks": 5280,
          "time": 10.000001,
          "velocity": 0.6299212598425197
        },
        {
          "duration": 0.42992428541666783,
          "durationTicks": 227,
          "midi": 67,
          "name": "G4",
          "ticks": 5520,
          "time": 10.4545465,
          "velocity": 0.6299212598425197
        },
        {
          "duration": 1.725378960416668,
          "durationTicks": 911,
          "midi": 66,
          "name": "F#4",
          "ticks": 5760,
          "time": 10.909092,
          "velocity": 0.6299212598425197
        },
        {
          "duration": 3.452651860416667,
          "durationTicks": 1823,
          "midi": 57,
          "name": "A3",
          "ticks": 5760,
          "time": 10.909092,
          "velocity": 0.4409448818897638
        },
        {
          "duration": 2.2727275000000002,
          "durationTicks": 1200,
          "midi": 62,
          "name": "D4",
          "ticks": 5760,
          "time": 10.909092,
          "velocity": 0.4409448818897638
        },
        {
          "duration": 0.42992428541666605,
          "durationTicks": 227,
          "midi": 64,
          "name": "E4",
          "ticks": 6720,
          "time": 12.727274,
          "velocity": 0.6299212598425197
        },
        {
          "duration": 1.2935607354166674,
          "durationTicks": 683,
          "midi": 62,
          "name": "D4",
          "ticks": 6960,
          "time": 13.1818195,
          "velocity": 0.6299212598425197
        },
        {
          "duration": 3.884470085416668,
          "durationTicks": 2051,
          "midi": 74,
          "name": "D5",
          "ticks": 7680,
          "time": 14.545456,
          "velocity": 0.6299212598425197
        },
        {
          "duration": 0.8617425104166685,
          "durationTicks": 455,
          "midi": 62,
          "name": "D4",
          "ticks": 7680,
          "time": 14.545456,
          "velocity": 0.4409448818897638
        },
        {
          "duration": 0.42992428541666605,
          "durationTicks": 227,
          "midi": 65,
          "name": "F4",
          "ticks": 8160,
          "time": 15.454547,
          "velocity": 0.4409448818897638
        },
        {
          "duration": 0.42992428541666783,
          "durationTicks": 227,
          "midi": 64,
          "name": "E4",
          "ticks": 8400,
          "time": 15.9090925,
          "velocity": 0.4409448818897638
        },
        {
          "duration": 2.5890154104166676,
          "durationTicks": 1367,
          "midi": 65,
          "name": "F4",
          "ticks": 8640,
          "time": 16.363637999999998,
          "velocity": 0.4409448818897638
        },
        {
          "duration": 0.4299242854166643,
          "durationTicks": 227,
          "midi": 71,
          "name": "B4",
          "ticks": 9840,
          "time": 18.6363655,
          "velocity": 0.6299212598425197
        },
        {
          "duration": 0.42992428541666783,
          "durationTicks": 227,
          "midi": 65,
          "name": "F4",
          "ticks": 10080,
          "time": 19.090911,
          "velocity": 0.6299212598425197
        },
        {
          "duration": 0.4299242854166643,
          "durationTicks": 227,
          "midi": 64,
          "name": "E4",
          "ticks": 10320,
          "time": 19.5454565,
          "velocity": 0.6299212598425197
        },
        {
          "duration": 0.42992428541666783,
          "durationTicks": 227,
          "midi": 69,
          "name": "A4",
          "ticks": 10560,
          "time": 20.000002,
          "velocity": 0.6299212598425197
        },
        {
          "duration": 0.4299242854166643,
          "durationTicks": 227,
          "midi": 68,
          "name": "G#4",
          "ticks": 10800,
          "time": 20.4545475,
          "velocity": 0.6299212598425197
        },
        {
          "duration": 0.42992428541666783,
          "durationTicks": 227,
          "midi": 74,
          "name": "D5",
          "ticks": 11040,
          "time": 20.909093,
          "velocity": 0.6299212598425197
        },
        {
          "duration": 0.4299242854166643,
          "durationTicks": 227,
          "midi": 72,
          "name": "C5",
          "ticks": 11280,
          "time": 21.3636385,
          "velocity": 0.6299212598425197
        },
        {
          "duration": 3.8844700854166696,
          "durationTicks": 2051,
          "midi": 72,
          "name": "C5",
          "ticks": 11520,
          "time": 21.818184,
          "velocity": 0.6299212598425197
        },
        {
          "duration": 0.42992428541666783,
          "durationTicks": 227,
          "midi": 64,
          "name": "E4",
          "ticks": 12000,
          "time": 22.727275,
          "velocity": 0.4409448818897638
        },
        {
          "duration": 0.4299242854166643,
          "durationTicks": 227,
          "midi": 62,
          "name": "D4",
          "ticks": 12240,
          "time": 23.1818205,
          "velocity": 0.4409448818897638
        },
        {
          "duration": 2.5890154104166676,
          "durationTicks": 1367,
          "midi": 64,
          "name": "E4",
          "ticks": 12480,
          "time": 23.636366,
          "velocity": 0.4409448818897638
        },
        {
          "duration": 0.4299242854166643,
          "durationTicks": 227,
          "midi": 69,
          "name": "A4",
          "ticks": 13680,
          "time": 25.9090935,
          "velocity": 0.6299212598425197
        },
        {
          "duration": 0.42992428541666783,
          "durationTicks": 227,
          "midi": 64,
          "name": "E4",
          "ticks": 13920,
          "time": 26.363639,
          "velocity": 0.6299212598425197
        },
        {
          "duration": 0.4299242854166643,
          "durationTicks": 227,
          "midi": 62,
          "name": "D4",
          "ticks": 14160,
          "time": 26.8181845,
          "velocity": 0.6299212598425197
        },
        {
          "duration": 0.42992428541666783,
          "durationTicks": 227,
          "midi": 67,
          "name": "G4",
          "ticks": 14400,
          "time": 27.27273,
          "velocity": 0.6299212598425197
        },
        {
          "duration": 0.4299242854166643,
          "durationTicks": 227,
          "midi": 66,
          "name": "F#4",
          "ticks": 14640,
          "time": 27.7272755,
          "velocity": 0.6299212598425197
        },
        {
          "duration": 0.42992428541666783,
          "durationTicks": 227,
          "midi": 72,
          "name": "C5",
          "ticks": 14880,
          "time": 28.181821,
          "velocity": 0.6299212598425197
        },
        {
          "duration": 0.4299242854166643,
          "durationTicks": 227,
          "midi": 71,
          "name": "B4",
          "ticks": 15120,
          "time": 28.6363665,
          "velocity": 0.6299212598425197
        },
        {
          "duration": 2.589015410416671,
          "durationTicks": 1367,
          "midi": 71,
          "name": "B4",
          "ticks": 15360,
          "time": 29.090912,
          "velocity": 0.6299212598425197
        },
        {
          "duration": 2.589015410416671,
          "durationTicks": 1367,
          "midi": 62,
          "name": "D4",
          "ticks": 15360,
          "time": 29.090912,
          "velocity": 0.4409448818897638
        },
        {
          "duration": 2.589015410416671,
          "durationTicks": 1367,
          "midi": 67,
          "name": "G4",
          "ticks": 15360,
          "time": 29.090912,
          "velocity": 0.4409448818897638
        },
        {
          "duration": 0.42992428541666783,
          "durationTicks": 227,
          "midi": 73,
          "name": "C#5",
          "ticks": 16800,
          "time": 31.818185,
          "velocity": 0.6299212598425197
        },
        {
          "duration": 0.8617425104166614,
          "durationTicks": 455,
          "midi": 62,
          "name": "D4",
          "ticks": 16800,
          "time": 31.818185,
          "velocity": 0.4409448818897638
        },
        {
          "duration": 0.8617425104166614,
          "durationTicks": 455,
          "midi": 69,
          "name": "A4",
          "ticks": 16800,
          "time": 31.818185,
          "velocity": 0.4409448818897638
        },
        {
          "duration": 0.42992428541666783,
          "durationTicks": 227,
          "midi": 74,
          "name": "D5",
          "ticks": 17040,
          "time": 32.2727305,
          "velocity": 0.6299212598425197
        },
        {
          "duration": 0.8617425104166685,
          "durationTicks": 455,
          "midi": 67,
          "name": "G4",
          "ticks": 17280,
          "time": 32.727275999999996,
          "velocity": 0.6299212598425197
        },
        {
          "duration": 0.8617425104166685,
          "durationTicks": 455,
          "midi": 59,
          "name": "B3",
          "ticks": 17280,
          "time": 32.727275999999996,
          "velocity": 0.4409448818897638
        },
        {
          "duration": 0.8617425104166685,
          "durationTicks": 455,
          "midi": 64,
          "name": "E4",
          "ticks": 17280,
          "time": 32.727275999999996,
          "velocity": 0.4409448818897638
        },
        {
          "duration": 0.42992428541666783,
          "durationTicks": 227,
          "midi": 67,
          "name": "G4",
          "ticks": 17760,
          "time": 33.636367,
          "velocity": 0.6299212598425197
        },
        {
          "duration": 0.8617425104166614,
          "durationTicks": 455,
          "midi": 61,
          "name": "C#4",
          "ticks": 17760,
          "time": 33.636367,
          "velocity": 0.4409448818897638
        },
        {
          "duration": 0.2140151729166604,
          "durationTicks": 113,
          "midi": 69,
          "name": "A4",
          "ticks": 18000,
          "time": 34.0909125,
          "velocity": 0.6299212598425197
        },
        {
          "duration": 0.2140151729166675,
          "durationTicks": 113,
          "midi": 71,
          "name": "B4",
          "ticks": 18120,
          "time": 34.31818525,
          "velocity": 0.6299212598425197
        },
        {
          "duration": 0.42992428541667493,
          "durationTicks": 227,
          "midi": 71,
          "name": "B4",
          "ticks": 18240,
          "time": 34.545457999999996,
          "velocity": 0.6299212598425197
        },
        {
          "duration": 0.8617425104166685,
          "durationTicks": 455,
          "midi": 64,
          "name": "E4",
          "ticks": 18240,
          "time": 34.545457999999996,
          "velocity": 0.4409448818897638
        },
        {
          "duration": 0.42992428541666783,
          "durationTicks": 227,
          "midi": 69,
          "name": "A4",
          "ticks": 18480,
          "time": 35.0000035,
          "velocity": 0.6299212598425197
        },
        {
          "duration": 0.42992428541666783,
          "durationTicks": 227,
          "midi": 69,
          "name": "A4",
          "ticks": 18720,
          "time": 35.454549,
          "velocity": 0.6299212598425197
        },
        {
          "duration": 0.8617425104166614,
          "durationTicks": 455,
          "midi": 61,
          "name": "C#4",
          "ticks": 18720,
          "time": 35.454549,
          "velocity": 0.4409448818897638
        },
        {
          "duration": 0.8617425104166614,
          "durationTicks": 455,
          "midi": 64,
          "name": "E4",
          "ticks": 18720,
          "time": 35.454549,
          "velocity": 0.4409448818897638
        },
        {
          "duration": 0.42992428541666783,
          "durationTicks": 227,
          "midi": 67,
          "name": "G4",
          "ticks": 18960,
          "time": 35.9090945,
          "velocity": 0.6299212598425197
        },
        {
          "duration": 0.42992428541667493,
          "durationTicks": 227,
          "midi": 66,
          "name": "F#4",
          "ticks": 19200,
          "time": 36.36364,
          "velocity": 0.6299212598425197
        },
        {
          "duration": 0.8617425104166685,
          "durationTicks": 455,
          "midi": 57,
          "name": "A3",
          "ticks": 19200,
          "time": 36.36364,
          "velocity": 0.4409448818897638
        },
        {
          "duration": 0.8617425104166685,
          "durationTicks": 455,
          "midi": 62,
          "name": "D4",
          "ticks": 19200,
          "time": 36.36364,
          "velocity": 0.4409448818897638
        },
        {
          "duration": 0.42992428541666783,
          "durationTicks": 227,
          "midi": 64,
          "name": "E4",
          "ticks": 19440,
          "time": 36.8181855,
          "velocity": 0.6299212598425197
        },
        {
          "duration": 0.2140151729166675,
          "durationTicks": 113,
          "midi": 64,
          "name": "E4",
          "ticks": 19680,
          "time": 37.272731,
          "velocity": 0.6299212598425197
        },
        {
          "duration": 0.8617425104166614,
          "durationTicks": 455,
          "midi": 59,
          "name": "B3",
          "ticks": 19680,
          "time": 37.272731,
          "velocity": 0.4409448818897638
        },
        {
          "duration": 0.8617425104166614,
          "durationTicks": 455,
          "midi": 62,
          "name": "D4",
          "ticks": 19680,
          "time": 37.272731,
          "velocity": 0.4409448818897638
        },
        {
          "duration": 0.2140151729166675,
          "durationTicks": 113,
          "midi": 66,
          "name": "F#4",
          "ticks": 19800,
          "time": 37.50000375,
          "velocity": 0.6299212598425197
        },
        {
          "duration": 0.42992428541666783,
          "durationTicks": 227,
          "midi": 67,
          "name": "G4",
          "ticks": 19920,
          "time": 37.7272765,
          "velocity": 0.6299212598425197
        },
        {
          "duration": 0.8617425104166685,
          "durationTicks": 455,
          "midi": 67,
          "name": "G4",
          "ticks": 20160,
          "time": 38.181822,
          "velocity": 0.6299212598425197
        },
        {
          "duration": 0.8617425104166685,
          "durationTicks": 455,
          "midi": 57,
          "name": "A3",
          "ticks": 20160,
          "time": 38.181822,
          "velocity": 0.4409448818897638
        },
        {
          "duration": 0.8617425104166685,
          "durationTicks": 455,
          "midi": 62,
          "name": "D4",
          "ticks": 20160,
          "time": 38.181822,
          "velocity": 0.4409448818897638
        },
        {
          "duration": 0.42992428541666783,
          "durationTicks": 227,
          "midi": 66,
          "name": "F#4",
          "ticks": 20640,
          "time": 39.090913,
          "velocity": 0.6299212598425197
        },
        {
          "duration": 0.8617425104166614,
          "durationTicks": 455,
          "midi": 57,
          "name": "A3",
          "ticks": 20640,
          "time": 39.090913,
          "velocity": 0.4409448818897638
        },
        {
          "duration": 0.8617425104166614,
          "durationTicks": 455,
          "midi": 61,
          "name": "C#4",
          "ticks": 20640,
          "time": 39.090913,
          "velocity": 0.4409448818897638
        },
        {
          "duration": 0.42992428541666783,
          "durationTicks": 227,
          "midi": 64,
          "name": "E4",
          "ticks": 20880,
          "time": 39.5454585,
          "velocity": 0.6299212598425197
        },
        {
          "duration": 3.4526518604166654,
          "durationTicks": 1823,
          "midi": 62,
          "name": "D4",
          "ticks": 21120,
          "time": 40.000004,
          "velocity": 0.6299212598425197
        },
        {
          "duration": 3.4526518604166654,
          "durationTicks": 1823,
          "midi": 54,
          "name": "F#3",
          "ticks": 21120,
          "time": 40.000004,
          "velocity": 0.4409448818897638
        },
        {
          "duration": 3.4526518604166654,
          "durationTicks": 1823,
          "midi": 57,
          "name": "A3",
          "ticks": 21120,
          "time": 40.000004,
          "velocity": 0.4409448818897638
        },
        {
          "duration": 3.4526518604166654,
          "durationTicks": 1823,
          "midi": 71,
          "name": "B4",
          "ticks": 23040,
          "time": 43.636368,
          "velocity": 0.6299212598425197
        },
        {
          "duration": 3.4526518604166654,
          "durationTicks": 1823,
          "midi": 62,
          "name": "D4",
          "ticks": 23040,
          "time": 43.636368,
          "velocity": 0.4409448818897638
        },
        {
          "duration": 3.4526518604166654,
          "durationTicks": 1823,
          "midi": 67,
          "name": "G4",
          "ticks": 23040,
          "time": 43.636368,
          "velocity": 0.4409448818897638
        },
        {
          "duration": 4.316288310416667,
          "durationTicks": 2279,
          "midi": 71,
          "name": "B4",
          "ticks": 24960,
          "time": 47.272732,
          "velocity": 0.6299212598425197
        },
        {
          "duration": 3.4526518604166654,
          "durationTicks": 1823,
          "midi": 64,
          "name": "E4",
          "ticks": 24960,
          "time": 47.272732,
          "velocity": 0.4409448818897638
        },
        {
          "duration": 3.4526518604166654,
          "durationTicks": 1823,
          "midi": 67,
          "name": "G4",
          "ticks": 24960,
          "time": 47.272732,
          "velocity": 0.4409448818897638
        },
        {
          "duration": 1.7253789604166698,
          "durationTicks": 911,
          "midi": 64,
          "name": "E4",
          "ticks": 26880,
          "time": 50.909096,
          "velocity": 0.4409448818897638
        },
        {
          "duration": 1.7253789604166698,
          "durationTicks": 911,
          "midi": 67,
          "name": "G4",
          "ticks": 26880,
          "time": 50.909096,
          "velocity": 0.4409448818897638
        },
        {
          "duration": 0.42992428541666783,
          "durationTicks": 227,
          "midi": 76,
          "name": "E5",
          "ticks": 27360,
          "time": 51.818186999999995,
          "velocity": 0.6299212598425197
        },
        {
          "duration": 0.42992428541666783,
          "durationTicks": 227,
          "midi": 72,
          "name": "C5",
          "ticks": 27600,
          "time": 52.2727325,
          "velocity": 0.6299212598425197
        },
        {
          "duration": 0.06250000624999785,
          "durationTicks": 33,
          "midi": 71,
          "name": "B4",
          "ticks": 27840,
          "time": 52.727278,
          "velocity": 0.6299212598425197
        },
        {
          "duration": 1.7253789604166627,
          "durationTicks": 911,
          "midi": 64,
          "name": "E4",
          "ticks": 27840,
          "time": 52.727278,
          "velocity": 0.4409448818897638
        },
        {
          "duration": 0.36742427916667,
          "durationTicks": 194,
          "midi": 69,
          "name": "A4",
          "ticks": 27874,
          "time": 52.79167194583333,
          "velocity": 0.6299212598425197
        },
        {
          "duration": 0.42992428541667493,
          "durationTicks": 227,
          "midi": 67,
          "name": "G4",
          "ticks": 28080,
          "time": 53.18182349999999,
          "velocity": 0.6299212598425197
        },
        {
          "duration": 0.42992428541666783,
          "durationTicks": 227,
          "midi": 66,
          "name": "F#4",
          "ticks": 28320,
          "time": 53.636368999999995,
          "velocity": 0.6299212598425197
        },
        {
          "duration": 0.42992428541666783,
          "durationTicks": 227,
          "midi": 67,
          "name": "G4",
          "ticks": 28560,
          "time": 54.0909145,
          "velocity": 0.6299212598425197
        },
        {
          "duration": 1.7253789604166698,
          "durationTicks": 911,
          "midi": 66,
          "name": "F#4",
          "ticks": 28800,
          "time": 54.54546,
          "velocity": 0.6299212598425197
        },
        {
          "duration": 3.4526518604166654,
          "durationTicks": 1823,
          "midi": 57,
          "name": "A3",
          "ticks": 28800,
          "time": 54.54546,
          "velocity": 0.4409448818897638
        },
        {
          "duration": 2.272727499999995,
          "durationTicks": 1200,
          "midi": 62,
          "name": "D4",
          "ticks": 28800,
          "time": 54.54546,
          "velocity": 0.4409448818897638
        },
        {
          "duration": 0.4299242854166607,
          "durationTicks": 227,
          "midi": 64,
          "name": "E4",
          "ticks": 29760,
          "time": 56.363642,
          "velocity": 0.6299212598425197
        },
        {
          "duration": 1.2935607354166692,
          "durationTicks": 683,
          "midi": 62,
          "name": "D4",
          "ticks": 30000,
          "time": 56.81818749999999,
          "velocity": 0.6299212598425197
        },
        {
          "duration": 3.884470085416666,
          "durationTicks": 2051,
          "midi": 74,
          "name": "D5",
          "ticks": 30720,
          "time": 58.181824,
          "velocity": 0.6299212598425197
        },
        {
          "duration": 0.8617425104166685,
          "durationTicks": 455,
          "midi": 62,
          "name": "D4",
          "ticks": 30720,
          "time": 58.181824,
          "velocity": 0.4409448818897638
        },
        {
          "duration": 0.42992428541666783,
          "durationTicks": 227,
          "midi": 65,
          "name": "F4",
          "ticks": 31200,
          "time": 59.090914999999995,
          "velocity": 0.4409448818897638
        },
        {
          "duration": 0.42992428541666783,
          "durationTicks": 227,
          "midi": 64,
          "name": "E4",
          "ticks": 31440,
          "time": 59.5454605,
          "velocity": 0.4409448818897638
        },
        {
          "duration": 2.589015410416664,
          "durationTicks": 1367,
          "midi": 65,
          "name": "F4",
          "ticks": 31680,
          "time": 60.000006,
          "velocity": 0.4409448818897638
        },
        {
          "duration": 0.4299242854166607,
          "durationTicks": 227,
          "midi": 71,
          "name": "B4",
          "ticks": 32880,
          "time": 62.2727335,
          "velocity": 0.6299212598425197
        },
        {
          "duration": 0.42992428541666783,
          "durationTicks": 227,
          "midi": 65,
          "name": "F4",
          "ticks": 33120,
          "time": 62.727278999999996,
          "velocity": 0.6299212598425197
        },
        {
          "duration": 0.42992428541666783,
          "durationTicks": 227,
          "midi": 64,
          "name": "E4",
          "ticks": 33360,
          "time": 63.1818245,
          "velocity": 0.6299212598425197
        },
        {
          "duration": 0.4299242854166607,
          "durationTicks": 227,
          "midi": 69,
          "name": "A4",
          "ticks": 33600,
          "time": 63.63637,
          "velocity": 0.6299212598425197
        },
        {
          "duration": 0.4299242854166607,
          "durationTicks": 227,
          "midi": 68,
          "name": "G#4",
          "ticks": 33840,
          "time": 64.0909155,
          "velocity": 0.6299212598425197
        },
        {
          "duration": 0.42992428541667493,
          "durationTicks": 227,
          "midi": 74,
          "name": "D5",
          "ticks": 34080,
          "time": 64.54546099999999,
          "velocity": 0.6299212598425197
        },
        {
          "duration": 0.4299242854166607,
          "durationTicks": 227,
          "midi": 72,
          "name": "C5",
          "ticks": 34320,
          "time": 65.0000065,
          "velocity": 0.6299212598425197
        },
        {
          "duration": 3.8844700854166803,
          "durationTicks": 2051,
          "midi": 72,
          "name": "C5",
          "ticks": 34560,
          "time": 65.45455199999999,
          "velocity": 0.6299212598425197
        },
        {
          "duration": 0.4299242854166607,
          "durationTicks": 227,
          "midi": 64,
          "name": "E4",
          "ticks": 35040,
          "time": 66.363643,
          "velocity": 0.4409448818897638
        },
        {
          "duration": 0.42992428541667493,
          "durationTicks": 227,
          "midi": 62,
          "name": "D4",
          "ticks": 35280,
          "time": 66.81818849999999,
          "velocity": 0.4409448818897638
        },
        {
          "duration": 2.589015410416664,
          "durationTicks": 1367,
          "midi": 64,
          "name": "E4",
          "ticks": 35520,
          "time": 67.272734,
          "velocity": 0.4409448818897638
        },
        {
          "duration": 0.4299242854166607,
          "durationTicks": 227,
          "midi": 69,
          "name": "A4",
          "ticks": 36720,
          "time": 69.5454615,
          "velocity": 0.6299212598425197
        },
        {
          "duration": 0.42992428541667493,
          "durationTicks": 227,
          "midi": 64,
          "name": "E4",
          "ticks": 36960,
          "time": 70.000007,
          "velocity": 0.6299212598425197
        },
        {
          "duration": 0.4299242854166607,
          "durationTicks": 227,
          "midi": 62,
          "name": "D4",
          "ticks": 37200,
          "time": 70.4545525,
          "velocity": 0.6299212598425197
        },
        {
          "duration": 0.4299242854166607,
          "durationTicks": 227,
          "midi": 67,
          "name": "G4",
          "ticks": 37440,
          "time": 70.909098,
          "velocity": 0.6299212598425197
        },
        {
          "duration": 0.4299242854166607,
          "durationTicks": 227,
          "midi": 66,
          "name": "F#4",
          "ticks": 37680,
          "time": 71.3636435,
          "velocity": 0.6299212598425197
        },
        {
          "duration": 0.42992428541667493,
          "durationTicks": 227,
          "midi": 72,
          "name": "C5",
          "ticks": 37920,
          "time": 71.81818899999999,
          "velocity": 0.6299212598425197
        },
        {
          "duration": 0.4299242854166607,
          "durationTicks": 227,
          "midi": 71,
          "name": "B4",
          "ticks": 38160,
          "time": 72.2727345,
          "velocity": 0.6299212598425197
        },
        {
          "duration": 2.5890154104166783,
          "durationTicks": 1367,
          "midi": 71,
          "name": "B4",
          "ticks": 38400,
          "time": 72.72728,
          "velocity": 0.6299212598425197
        },
        {
          "duration": 2.5890154104166783,
          "durationTicks": 1367,
          "midi": 62,
          "name": "D4",
          "ticks": 38400,
          "time": 72.72728,
          "velocity": 0.4409448818897638
        },
        {
          "duration": 2.5890154104166783,
          "durationTicks": 1367,
          "midi": 67,
          "name": "G4",
          "ticks": 38400,
          "time": 72.72728,
          "velocity": 0.4409448818897638
        },
        {
          "duration": 0.4299242854166607,
          "durationTicks": 227,
          "midi": 73,
          "name": "C#5",
          "ticks": 39840,
          "time": 75.454553,
          "velocity": 0.6299212598425197
        },
        {
          "duration": 0.8617425104166614,
          "durationTicks": 455,
          "midi": 62,
          "name": "D4",
          "ticks": 39840,
          "time": 75.454553,
          "velocity": 0.4409448818897638
        },
        {
          "duration": 0.8617425104166614,
          "durationTicks": 455,
          "midi": 69,
          "name": "A4",
          "ticks": 39840,
          "time": 75.454553,
          "velocity": 0.4409448818897638
        },
        {
          "duration": 0.4299242854166607,
          "durationTicks": 227,
          "midi": 74,
          "name": "D5",
          "ticks": 40080,
          "time": 75.9090985,
          "velocity": 0.6299212598425197
        },
        {
          "duration": 0.8617425104166614,
          "durationTicks": 455,
          "midi": 67,
          "name": "G4",
          "ticks": 40320,
          "time": 76.363644,
          "velocity": 0.6299212598425197
        },
        {
          "duration": 0.8617425104166614,
          "durationTicks": 455,
          "midi": 59,
          "name": "B3",
          "ticks": 40320,
          "time": 76.363644,
          "velocity": 0.4409448818897638
        },
        {
          "duration": 0.8617425104166614,
          "durationTicks": 455,
          "midi": 64,
          "name": "E4",
          "ticks": 40320,
          "time": 76.363644,
          "velocity": 0.4409448818897638
        },
        {
          "duration": 0.42992428541667493,
          "durationTicks": 227,
          "midi": 67,
          "name": "G4",
          "ticks": 40800,
          "time": 77.272735,
          "velocity": 0.6299212598425197
        },
        {
          "duration": 0.8617425104166614,
          "durationTicks": 455,
          "midi": 61,
          "name": "C#4",
          "ticks": 40800,
          "time": 77.272735,
          "velocity": 0.4409448818897638
        },
        {
          "duration": 0.21401517291664618,
          "durationTicks": 113,
          "midi": 69,
          "name": "A4",
          "ticks": 41040,
          "time": 77.7272805,
          "velocity": 0.6299212598425197
        },
        {
          "duration": 0.2140151729166604,
          "durationTicks": 113,
          "midi": 71,
          "name": "B4",
          "ticks": 41160,
          "time": 77.95455325,
          "velocity": 0.6299212598425197
        },
        {
          "duration": 0.4299242854166607,
          "durationTicks": 227,
          "midi": 71,
          "name": "B4",
          "ticks": 41280,
          "time": 78.181826,
          "velocity": 0.6299212598425197
        },
        {
          "duration": 0.8617425104166614,
          "durationTicks": 455,
          "midi": 64,
          "name": "E4",
          "ticks": 41280,
          "time": 78.181826,
          "velocity": 0.4409448818897638
        },
        {
          "duration": 0.4299242854166607,
          "durationTicks": 227,
          "midi": 69,
          "name": "A4",
          "ticks": 41520,
          "time": 78.6363715,
          "velocity": 0.6299212598425197
        },
        {
          "duration": 0.42992428541667493,
          "durationTicks": 227,
          "midi": 69,
          "name": "A4",
          "ticks": 41760,
          "time": 79.09091699999999,
          "velocity": 0.6299212598425197
        },
        {
          "duration": 0.8617425104166614,
          "durationTicks": 455,
          "midi": 61,
          "name": "C#4",
          "ticks": 41760,
          "time": 79.09091699999999,
          "velocity": 0.4409448818897638
        },
        {
          "duration": 0.8617425104166614,
          "durationTicks": 455,
          "midi": 64,
          "name": "E4",
          "ticks": 41760,
          "time": 79.09091699999999,
          "velocity": 0.4409448818897638
        },
        {
          "duration": 0.42992428541667493,
          "durationTicks": 227,
          "midi": 67,
          "name": "G4",
          "ticks": 42000,
          "time": 79.5454625,
          "velocity": 0.6299212598425197
        },
        {
          "duration": 0.42992428541667493,
          "durationTicks": 227,
          "midi": 66,
          "name": "F#4",
          "ticks": 42240,
          "time": 80.000008,
          "velocity": 0.6299212598425197
        },
        {
          "duration": 0.8617425104166756,
          "durationTicks": 455,
          "midi": 57,
          "name": "A3",
          "ticks": 42240,
          "time": 80.000008,
          "velocity": 0.4409448818897638
        },
        {
          "duration": 0.8617425104166756,
          "durationTicks": 455,
          "midi": 62,
          "name": "D4",
          "ticks": 42240,
          "time": 80.000008,
          "velocity": 0.4409448818897638
        },
        {
          "duration": 0.4299242854166607,
          "durationTicks": 227,
          "midi": 64,
          "name": "E4",
          "ticks": 42480,
          "time": 80.4545535,
          "velocity": 0.6299212598425197
        },
        {
          "duration": 0.2140151729166746,
          "durationTicks": 113,
          "midi": 64,
          "name": "E4",
          "ticks": 42720,
          "time": 80.909099,
          "velocity": 0.6299212598425197
        },
        {
          "duration": 0.8617425104166614,
          "durationTicks": 455,
          "midi": 59,
          "name": "B3",
          "ticks": 42720,
          "time": 80.909099,
          "velocity": 0.4409448818897638
        },
        {
          "duration": 0.8617425104166614,
          "durationTicks": 455,
          "midi": 62,
          "name": "D4",
          "ticks": 42720,
          "time": 80.909099,
          "velocity": 0.4409448818897638
        },
        {
          "duration": 0.2140151729166746,
          "durationTicks": 113,
          "midi": 66,
          "name": "F#4",
          "ticks": 42840,
          "time": 81.13637175,
          "velocity": 0.6299212598425197
        },
        {
          "duration": 0.42992428541667493,
          "durationTicks": 227,
          "midi": 67,
          "name": "G4",
          "ticks": 42960,
          "time": 81.36364449999999,
          "velocity": 0.6299212598425197
        },
        {
          "duration": 0.8617425104166756,
          "durationTicks": 455,
          "midi": 67,
          "name": "G4",
          "ticks": 43200,
          "time": 81.81818999999999,
          "velocity": 0.6299212598425197
        },
        {
          "duration": 0.8617425104166756,
          "durationTicks": 455,
          "midi": 57,
          "name": "A3",
          "ticks": 43200,
          "time": 81.81818999999999,
          "velocity": 0.4409448818897638
        },
        {
          "duration": 0.8617425104166756,
          "durationTicks": 455,
          "midi": 62,
          "name": "D4",
          "ticks": 43200,
          "time": 81.81818999999999,
          "velocity": 0.4409448818897638
        },
        {
          "duration": 0.4299242854166607,
          "durationTicks": 227,
          "midi": 66,
          "name": "F#4",
          "ticks": 43680,
          "time": 82.727281,
          "velocity": 0.6299212598425197
        },
        {
          "duration": 0.8617425104166614,
          "durationTicks": 455,
          "midi": 57,
          "name": "A3",
          "ticks": 43680,
          "time": 82.727281,
          "velocity": 0.4409448818897638
        },
        {
          "duration": 0.8617425104166614,
          "durationTicks": 455,
          "midi": 61,
          "name": "C#4",
          "ticks": 43680,
          "time": 82.727281,
          "velocity": 0.4409448818897638
        },
        {
          "duration": 0.4299242854166607,
          "durationTicks": 227,
          "midi": 64,
          "name": "E4",
          "ticks": 43920,
          "time": 83.1818265,
          "velocity": 0.6299212598425197
        },
        {
          "duration": 3.4526518604166654,
          "durationTicks": 1823,
          "midi": 62,
          "name": "D4",
          "ticks": 44160,
          "time": 83.636372,
          "velocity": 0.6299212598425197
        },
        {
          "duration": 3.4526518604166654,
          "durationTicks": 1823,
          "midi": 54,
          "name": "F#3",
          "ticks": 44160,
          "time": 83.636372,
          "velocity": 0.4409448818897638
        },
        {
          "duration": 3.4526518604166654,
          "durationTicks": 1823,
          "midi": 57,
          "name": "A3",
          "ticks": 44160,
          "time": 83.636372,
          "velocity": 0.4409448818897638
        },
        {
          "duration": 2.1571971854166776,
          "durationTicks": 1139,
          "midi": 66,
          "name": "F#4",
          "ticks": 46080,
          "time": 87.272736,
          "velocity": 0.6299212598425197
        },
        {
          "duration": 2.5890154104166783,
          "durationTicks": 1367,
          "midi": 57,
          "name": "A3",
          "ticks": 46080,
          "time": 87.272736,
          "velocity": 0.4409448818897638
        },
        {
          "duration": 2.5890154104166783,
          "durationTicks": 1367,
          "midi": 62,
          "name": "D4",
          "ticks": 46080,
          "time": 87.272736,
          "velocity": 0.4409448818897638
        },
        {
          "duration": 0.2140151729166604,
          "durationTicks": 113,
          "midi": 67,
          "name": "G4",
          "ticks": 47280,
          "time": 89.5454635,
          "velocity": 0.6299212598425197
        },
        {
          "duration": 0.2140151729166604,
          "durationTicks": 113,
          "midi": 66,
          "name": "F#4",
          "ticks": 47400,
          "time": 89.77273625,
          "velocity": 0.6299212598425197
        },
        {
          "duration": 0.21401517291664618,
          "durationTicks": 113,
          "midi": 64,
          "name": "E4",
          "ticks": 47520,
          "time": 90.000009,
          "velocity": 0.6299212598425197
        },
        {
          "duration": 0.2140151729166604,
          "durationTicks": 113,
          "midi": 66,
          "name": "F#4",
          "ticks": 47640,
          "time": 90.22728175,
          "velocity": 0.6299212598425197
        },
        {
          "duration": 0.4299242854166607,
          "durationTicks": 227,
          "midi": 62,
          "name": "D4",
          "ticks": 47760,
          "time": 90.4545545,
          "velocity": 0.6299212598425197
        },
        {
          "duration": 2.589015410416664,
          "durationTicks": 1367,
          "midi": 74,
          "name": "D5",
          "ticks": 48000,
          "time": 90.9091,
          "velocity": 0.6299212598425197
        },
        {
          "duration": 1.8181820000000073,
          "durationTicks": 960,
          "midi": 65,
          "name": "F4",
          "ticks": 48000,
          "time": 90.9091,
          "velocity": 0.4409448818897638
        },
        {
          "duration": 2.589015410416664,
          "durationTicks": 1367,
          "midi": 71,
          "name": "B4",
          "ticks": 48000,
          "time": 90.9091,
          "velocity": 0.4409448818897638
        },
        {
          "duration": 0.8617425104166614,
          "durationTicks": 455,
          "midi": 65,
          "name": "F4",
          "ticks": 49440,
          "time": 93.63637299999999,
          "velocity": 0.6299212598425197
        },
        {
          "duration": 0.8617425104166756,
          "durationTicks": 455,
          "midi": 64,
          "name": "E4",
          "ticks": 49920,
          "time": 94.545464,
          "velocity": 0.6299212598425197
        },
        {
          "duration": 1.293560735416662,
          "durationTicks": 683,
          "midi": 76,
          "name": "E5",
          "ticks": 50400,
          "time": 95.454555,
          "velocity": 0.6299212598425197
        },
        {
          "duration": 0.42992428541667493,
          "durationTicks": 227,
          "midi": 74,
          "name": "D5",
          "ticks": 51120,
          "time": 96.8181915,
          "velocity": 0.6299212598425197
        },
        {
          "duration": 0.4299242854166607,
          "durationTicks": 227,
          "midi": 72,
          "name": "C5",
          "ticks": 51360,
          "time": 97.272737,
          "velocity": 0.6299212598425197
        },
        {
          "duration": 0.4299242854166607,
          "durationTicks": 227,
          "midi": 71,
          "name": "B4",
          "ticks": 51600,
          "time": 97.7272825,
          "velocity": 0.6299212598425197
        },
        {
          "duration": 1.941288072916663,
          "durationTicks": 1025,
          "midi": 72,
          "name": "C5",
          "ticks": 51840,
          "time": 98.181828,
          "velocity": 0.6299212598425197
        },
        {
          "duration": 2.589015410416664,
          "durationTicks": 1367,
          "midi": 64,
          "name": "E4",
          "ticks": 51840,
          "time": 98.181828,
          "velocity": 0.4409448818897638
        },
        {
          "duration": 2.272727500000002,
          "durationTicks": 1200,
          "midi": 69,
          "name": "A4",
          "ticks": 51840,
          "time": 98.181828,
          "velocity": 0.4409448818897638
        },
        {
          "duration": 0.2140151729166604,
          "durationTicks": 113,
          "midi": 71,
          "name": "B4",
          "ticks": 52920,
          "time": 100.22728275,
          "velocity": 0.6299212598425197
        },
        {
          "duration": 0.31628791041666204,
          "durationTicks": 167,
          "midi": 69,
          "name": "A4",
          "ticks": 53040,
          "time": 100.4545555,
          "velocity": 0.6299212598425197
        },
        {
          "duration": 0.2140151729166746,
          "durationTicks": 113,
          "midi": 67,
          "name": "G4",
          "ticks": 53160,
          "time": 100.68182825,
          "velocity": 0.6299212598425197
        },
        {
          "duration": 0.42992428541667493,
          "durationTicks": 227,
          "midi": 66,
          "name": "F#4",
          "ticks": 53280,
          "time": 100.90910099999999,
          "velocity": 0.6299212598425197
        },
        {
          "duration": 0.42992428541668914,
          "durationTicks": 227,
          "midi": 64,
          "name": "E4",
          "ticks": 53520,
          "time": 101.36364649999999,
          "velocity": 0.6299212598425197
        },
        {
          "duration": 0.4299242854166607,
          "durationTicks": 227,
          "midi": 63,
          "name": "D#4",
          "ticks": 53760,
          "time": 101.818192,
          "velocity": 0.6299212598425197
        },
        {
          "duration": 0.4299242854166607,
          "durationTicks": 227,
          "midi": 64,
          "name": "E4",
          "ticks": 54000,
          "time": 102.2727375,
          "velocity": 0.6299212598425197
        },
        {
          "duration": 1.293560735416662,
          "durationTicks": 683,
          "midi": 66,
          "name": "F#4",
          "ticks": 54240,
          "time": 102.727283,
          "velocity": 0.6299212598425197
        },
        {
          "duration": 0.4299242854166607,
          "durationTicks": 227,
          "midi": 67,
          "name": "G4",
          "ticks": 54960,
          "time": 104.0909195,
          "velocity": 0.6299212598425197
        },
        {
          "duration": 1.2935607354166763,
          "durationTicks": 683,
          "midi": 69,
          "name": "A4",
          "ticks": 55200,
          "time": 104.545465,
          "velocity": 0.6299212598425197
        },
        {
          "duration": 0.4299242854166607,
          "durationTicks": 227,
          "midi": 57,
          "name": "A3",
          "ticks": 55440,
          "time": 105.0000105,
          "velocity": 0.4409448818897638
        },
        {
          "duration": 0.8617425104166614,
          "durationTicks": 455,
          "midi": 59,
          "name": "B3",
          "ticks": 55680,
          "time": 105.454556,
          "velocity": 0.4409448818897638
        },
        {
          "duration": 0.4299242854166607,
          "durationTicks": 227,
          "midi": 71,
          "name": "B4",
          "ticks": 55920,
          "time": 105.90910149999999,
          "velocity": 0.6299212598425197
        },
        {
          "duration": 1.7253789604166627,
          "durationTicks": 911,
          "midi": 72,
          "name": "C5",
          "ticks": 56160,
          "time": 106.36364699999999,
          "velocity": 0.6299212598425197
        },
        {
          "duration": 0.42992428541667493,
          "durationTicks": 227,
          "midi": 66,
          "name": "F#4",
          "ticks": 56160,
          "time": 106.36364699999999,
          "velocity": 0.4409448818897638
        },
        {
          "duration": 0.42992428541667493,
          "durationTicks": 227,
          "midi": 64,
          "name": "E4",
          "ticks": 56400,
          "time": 106.8181925,
          "velocity": 0.4409448818897638
        },
        {
          "duration": 0.4299242854166607,
          "durationTicks": 227,
          "midi": 63,
          "name": "D#4",
          "ticks": 56640,
          "time": 107.272738,
          "velocity": 0.4409448818897638
        },
        {
          "duration": 0.4299242854166607,
          "durationTicks": 227,
          "midi": 64,
          "name": "E4",
          "ticks": 56880,
          "time": 107.7272835,
          "velocity": 0.4409448818897638
        },
        {
          "duration": 0.8617425104166614,
          "durationTicks": 455,
          "midi": 71,
          "name": "B4",
          "ticks": 57120,
          "time": 108.181829,
          "velocity": 0.6299212598425197
        },
        {
          "duration": 0.8617425104166614,
          "durationTicks": 455,
          "midi": 66,
          "name": "F#4",
          "ticks": 57120,
          "time": 108.181829,
          "velocity": 0.4409448818897638
        },
        {
          "duration": 0.42992428541668914,
          "durationTicks": 227,
          "midi": 69,
          "name": "A4",
          "ticks": 57600,
          "time": 109.09091999999998,
          "velocity": 0.6299212598425197
        },
        {
          "duration": 0.8617425104166898,
          "durationTicks": 455,
          "midi": 59,
          "name": "B3",
          "ticks": 57600,
          "time": 109.09091999999998,
          "velocity": 0.4409448818897638
        },
        {
          "duration": 0.8617425104166898,
          "durationTicks": 455,
          "midi": 64,
          "name": "E4",
          "ticks": 57600,
          "time": 109.09091999999998,
          "velocity": 0.4409448818897638
        },
        {
          "duration": 0.4299242854166607,
          "durationTicks": 227,
          "midi": 67,
          "name": "G4",
          "ticks": 57840,
          "time": 109.5454655,
          "velocity": 0.6299212598425197
        },
        {
          "duration": 0.4299242854166607,
          "durationTicks": 227,
          "midi": 66,
          "name": "F#4",
          "ticks": 58080,
          "time": 110.000011,
          "velocity": 0.6299212598425197
        },
        {
          "duration": 0.8617425104166614,
          "durationTicks": 455,
          "midi": 60,
          "name": "C4",
          "ticks": 58080,
          "time": 110.000011,
          "velocity": 0.4409448818897638
        },
        {
          "duration": 0.4299242854166607,
          "durationTicks": 227,
          "midi": 64,
          "name": "E4",
          "ticks": 58320,
          "time": 110.4545565,
          "velocity": 0.6299212598425197
        },
        {
          "duration": 0.4299242854166607,
          "durationTicks": 227,
          "midi": 66,
          "name": "F#4",
          "ticks": 58560,
          "time": 110.90910199999999,
          "velocity": 0.6299212598425197
        },
        {
          "duration": 0.8617425104166898,
          "durationTicks": 455,
          "midi": 60,
          "name": "C4",
          "ticks": 58560,
          "time": 110.90910199999999,
          "velocity": 0.4409448818897638
        },
        {
          "duration": 0.2140151729166746,
          "durationTicks": 113,
          "midi": 67,
          "name": "G4",
          "ticks": 58800,
          "time": 111.36364749999998,
          "velocity": 0.6299212598425197
        },
        {
          "duration": 0.2140151729166746,
          "durationTicks": 113,
          "midi": 69,
          "name": "A4",
          "ticks": 58920,
          "time": 111.59092024999998,
          "velocity": 0.6299212598425197
        },
        {
          "duration": 0.8617425104166614,
          "durationTicks": 455,
          "midi": 67,
          "name": "G4",
          "ticks": 59040,
          "time": 111.81819300000001,
          "velocity": 0.6299212598425197
        },
        {
          "duration": 0.8617425104166614,
          "durationTicks": 455,
          "midi": 63,
          "name": "D#4",
          "ticks": 59040,
          "time": 111.81819300000001,
          "velocity": 0.4409448818897638
        },
        {
          "duration": 3.4526518604166654,
          "durationTicks": 1823,
          "midi": 64,
          "name": "E4",
          "ticks": 59520,
          "time": 112.727284,
          "velocity": 0.6299212598425197
        },
        {
          "duration": 3.4526518604166654,
          "durationTicks": 1823,
          "midi": 55,
          "name": "G3",
          "ticks": 59520,
          "time": 112.727284,
          "velocity": 0.4409448818897638
        },
        {
          "duration": 3.4526518604166654,
          "durationTicks": 1823,
          "midi": 59,
          "name": "B3",
          "ticks": 59520,
          "time": 112.727284,
          "velocity": 0.4409448818897638
        },
        {
          "duration": 2.157197185416692,
          "durationTicks": 1139,
          "midi": 67,
          "name": "G4",
          "ticks": 61440,
          "time": 116.36364799999998,
          "velocity": 0.6299212598425197
        },
        {
          "duration": 2.589015410416664,
          "durationTicks": 1367,
          "midi": 57,
          "name": "A3",
          "ticks": 61440,
          "time": 116.36364799999998,
          "velocity": 0.4409448818897638
        },
        {
          "duration": 2.589015410416664,
          "durationTicks": 1367,
          "midi": 64,
          "name": "E4",
          "ticks": 61440,
          "time": 116.36364799999998,
          "velocity": 0.4409448818897638
        },
        {
          "duration": 0.4299242854166607,
          "durationTicks": 227,
          "midi": 71,
          "name": "B4",
          "ticks": 62640,
          "time": 118.63637549999999,
          "velocity": 0.6299212598425197
        },
        {
          "duration": 0.4299242854166607,
          "durationTicks": 227,
          "midi": 69,
          "name": "A4",
          "ticks": 62880,
          "time": 119.09092100000001,
          "velocity": 0.6299212598425197
        },
        {
          "duration": 0.8617425104166614,
          "durationTicks": 455,
          "midi": 62,
          "name": "D4",
          "ticks": 62880,
          "time": 119.09092100000001,
          "velocity": 0.4409448818897638
        },
        {
          "duration": 0.4299242854166607,
          "durationTicks": 227,
          "midi": 67,
          "name": "G4",
          "ticks": 63120,
          "time": 119.5454665,
          "velocity": 0.6299212598425197
        },
        {
          "duration": 2.589015410416664,
          "durationTicks": 1367,
          "midi": 76,
          "name": "E5",
          "ticks": 63360,
          "time": 120.000012,
          "velocity": 0.6299212598425197
        },
        {
          "duration": 2.589015410416664,
          "durationTicks": 1367,
          "midi": 64,
          "name": "E4",
          "ticks": 63360,
          "time": 120.000012,
          "velocity": 0.4409448818897638
        },
        {
          "duration": 2.589015410416664,
          "durationTicks": 1367,
          "midi": 69,
          "name": "A4",
          "ticks": 63360,
          "time": 120.000012,
          "velocity": 0.4409448818897638
        },
        {
          "duration": 2.589015410416664,
          "durationTicks": 1367,
          "midi": 73,
          "name": "C#5",
          "ticks": 63360,
          "time": 120.000012,
          "velocity": 0.4409448818897638
        },
        {
          "duration": 0.4299242854166607,
          "durationTicks": 227,
          "midi": 74,
          "name": "D5",
          "ticks": 64800,
          "time": 122.727285,
          "velocity": 0.6299212598425197
        },
        {
          "duration": 0.8617425104166614,
          "durationTicks": 455,
          "midi": 64,
          "name": "E4",
          "ticks": 64800,
          "time": 122.727285,
          "velocity": 0.4409448818897638
        },
        {
          "duration": 0.8617425104166614,
          "durationTicks": 455,
          "midi": 69,
          "name": "A4",
          "ticks": 64800,
          "time": 122.727285,
          "velocity": 0.4409448818897638
        },
        {
          "duration": 0.4299242854166607,
          "durationTicks": 227,
          "midi": 73,
          "name": "C#5",
          "ticks": 65040,
          "time": 123.18183049999999,
          "velocity": 0.6299212598425197
        },
        {
          "duration": 0.2140151729166746,
          "durationTicks": 113,
          "midi": 71,
          "name": "B4",
          "ticks": 65280,
          "time": 123.63637599999998,
          "velocity": 0.6299212598425197
        },
        {
          "duration": 0.8617425104166898,
          "durationTicks": 455,
          "midi": 62,
          "name": "D4",
          "ticks": 65280,
          "time": 123.63637599999998,
          "velocity": 0.4409448818897638
        },
        {
          "duration": 0.2140151729166746,
          "durationTicks": 113,
          "midi": 69,
          "name": "A4",
          "ticks": 65400,
          "time": 123.86364874999998,
          "velocity": 0.6299212598425197
        },
        {
          "duration": 0.4299242854166607,
          "durationTicks": 227,
          "midi": 74,
          "name": "D5",
          "ticks": 65520,
          "time": 124.09092150000001,
          "velocity": 0.6299212598425197
        },
        {
          "duration": 0.8617425104166614,
          "durationTicks": 455,
          "midi": 62,
          "name": "D4",
          "ticks": 65760,
          "time": 124.545467,
          "velocity": 0.6299212598425197
        },
        {
          "duration": 0.8617425104166614,
          "durationTicks": 455,
          "midi": 57,
          "name": "A3",
          "ticks": 65760,
          "time": 124.545467,
          "velocity": 0.4409448818897638
        },
        {
          "duration": 1.293560735416662,
          "durationTicks": 683,
          "midi": 64,
          "name": "E4",
          "ticks": 66240,
          "time": 125.45455799999999,
          "velocity": 0.6299212598425197
        },
        {
          "duration": 0.8617425104166614,
          "durationTicks": 455,
          "midi": 59,
          "name": "B3",
          "ticks": 66240,
          "time": 125.45455799999999,
          "velocity": 0.4409448818897638
        },
        {
          "duration": 0.8617425104166614,
          "durationTicks": 455,
          "midi": 61,
          "name": "C#4",
          "ticks": 66720,
          "time": 126.36364900000001,
          "velocity": 0.4409448818897638
        },
        {
          "duration": 0.21401517291664618,
          "durationTicks": 113,
          "midi": 66,
          "name": "F#4",
          "ticks": 66960,
          "time": 126.8181945,
          "velocity": 0.6299212598425197
        },
        {
          "duration": 0.21401517291664618,
          "durationTicks": 113,
          "midi": 67,
          "name": "G4",
          "ticks": 67080,
          "time": 127.04546725,
          "velocity": 0.6299212598425197
        },
        {
          "duration": 1.293560735416662,
          "durationTicks": 683,
          "midi": 66,
          "name": "F#4",
          "ticks": 67200,
          "time": 127.27274,
          "velocity": 0.6299212598425197
        },
        {
          "duration": 1.7253789604166627,
          "durationTicks": 911,
          "midi": 57,
          "name": "A3",
          "ticks": 67200,
          "time": 127.27274,
          "velocity": 0.4409448818897638
        },
        {
          "duration": 1.7253789604166627,
          "durationTicks": 911,
          "midi": 62,
          "name": "D4",
          "ticks": 67200,
          "time": 127.27274,
          "velocity": 0.4409448818897638
        },
        {
          "duration": 0.42992428541668914,
          "durationTicks": 227,
          "midi": 64,
          "name": "E4",
          "ticks": 67920,
          "time": 128.63637649999998,
          "velocity": 0.6299212598425197
        },
        {
          "duration": 1.7253789604166627,
          "durationTicks": 911,
          "midi": 62,
          "name": "D4",
          "ticks": 68160,
          "time": 129.090922,
          "velocity": 0.6299212598425197
        },
        {
          "duration": 1.7253789604166627,
          "durationTicks": 911,
          "midi": 54,
          "name": "F#3",
          "ticks": 68160,
          "time": 129.090922,
          "velocity": 0.4409448818897638
        },
        {
          "duration": 1.7253789604166627,
          "durationTicks": 911,
          "midi": 57,
          "name": "A3",
          "ticks": 68160,
          "time": 129.090922,
          "velocity": 0.4409448818897638
        },
        {
          "duration": 2.589015410416664,
          "durationTicks": 1367,
          "midi": 67,
          "name": "G4",
          "ticks": 69120,
          "time": 130.90910399999999,
          "velocity": 0.6299212598425197
        },
        {
          "duration": 0.8617425104166898,
          "durationTicks": 455,
          "midi": 62,
          "name": "D4",
          "ticks": 69120,
          "time": 130.90910399999999,
          "velocity": 0.4409448818897638
        },
        {
          "duration": 0.4299242854166607,
          "durationTicks": 227,
          "midi": 64,
          "name": "E4",
          "ticks": 69600,
          "time": 131.818195,
          "velocity": 0.4409448818897638
        },
        {
          "duration": 0.4299242854166607,
          "durationTicks": 227,
          "midi": 65,
          "name": "F4",
          "ticks": 69840,
          "time": 132.2727405,
          "velocity": 0.4409448818897638
        },
        {
          "duration": 1.7253789604166627,
          "durationTicks": 911,
          "midi": 64,
          "name": "E4",
          "ticks": 70080,
          "time": 132.727286,
          "velocity": 0.4409448818897638
        },
        {
          "duration": 0.42992428541668914,
          "durationTicks": 227,
          "midi": 71,
          "name": "B4",
          "ticks": 70560,
          "time": 133.63637699999998,
          "velocity": 0.6299212598425197
        },
        {
          "duration": 0.4299242854166607,
          "durationTicks": 227,
          "midi": 69,
          "name": "A4",
          "ticks": 70800,
          "time": 134.0909225,
          "velocity": 0.6299212598425197
        },
        {
          "duration": 2.589015410416664,
          "durationTicks": 1367,
          "midi": 69,
          "name": "A4",
          "ticks": 71040,
          "time": 134.545468,
          "velocity": 0.6299212598425197
        },
        {
          "duration": 0.4299242854166607,
          "durationTicks": 227,
          "midi": 66,
          "name": "F#4",
          "ticks": 71520,
          "time": 135.454559,
          "velocity": 0.4409448818897638
        },
        {
          "duration": 0.42992428541668914,
          "durationTicks": 227,
          "midi": 64,
          "name": "E4",
          "ticks": 71760,
          "time": 135.90910449999998,
          "velocity": 0.4409448818897638
        },
        {
          "duration": 1.7253789604166627,
          "durationTicks": 911,
          "midi": 66,
          "name": "F#4",
          "ticks": 72000,
          "time": 136.36365,
          "velocity": 0.4409448818897638
        },
        {
          "duration": 0.4299242854166607,
          "durationTicks": 227,
          "midi": 72,
          "name": "C5",
          "ticks": 72480,
          "time": 137.272741,
          "velocity": 0.6299212598425197
        },
        {
          "duration": 0.4299242854166607,
          "durationTicks": 227,
          "midi": 71,
          "name": "B4",
          "ticks": 72720,
          "time": 137.7272865,
          "velocity": 0.6299212598425197
        },
        {
          "duration": 2.589015410416664,
          "durationTicks": 1367,
          "midi": 71,
          "name": "B4",
          "ticks": 72960,
          "time": 138.18183199999999,
          "velocity": 0.6299212598425197
        },
        {
          "duration": 0.4299242854166607,
          "durationTicks": 227,
          "midi": 68,
          "name": "G#4",
          "ticks": 73440,
          "time": 139.090923,
          "velocity": 0.4409448818897638
        },
        {
          "duration": 0.4299242854166607,
          "durationTicks": 227,
          "midi": 66,
          "name": "F#4",
          "ticks": 73680,
          "time": 139.5454685,
          "velocity": 0.4409448818897638
        },
        {
          "duration": 0.8617425104166614,
          "durationTicks": 455,
          "midi": 68,
          "name": "G#4",
          "ticks": 73920,
          "time": 140.000014,
          "velocity": 0.4409448818897638
        },
        {
          "duration": 0.42992428541668914,
          "durationTicks": 227,
          "midi": 74,
          "name": "D5",
          "ticks": 74400,
          "time": 140.90910499999998,
          "velocity": 0.6299212598425197
        },
        {
          "duration": 0.8617425104166898,
          "durationTicks": 455,
          "midi": 64,
          "name": "E4",
          "ticks": 74400,
          "time": 140.90910499999998,
          "velocity": 0.4409448818897638
        },
        {
          "duration": 0.8617425104166898,
          "durationTicks": 455,
          "midi": 71,
          "name": "B4",
          "ticks": 74400,
          "time": 140.90910499999998,
          "velocity": 0.4409448818897638
        },
        {
          "duration": 0.4299242854166607,
          "durationTicks": 227,
          "midi": 72,
          "name": "C5",
          "ticks": 74640,
          "time": 141.3636505,
          "velocity": 0.6299212598425197
        },
        {
          "duration": 3.4526518604166654,
          "durationTicks": 1823,
          "midi": 72,
          "name": "C5",
          "ticks": 74880,
          "time": 141.818196,
          "velocity": 0.6299212598425197
        },
        {
          "duration": 3.4526518604166654,
          "durationTicks": 1823,
          "midi": 64,
          "name": "E4",
          "ticks": 74880,
          "time": 141.818196,
          "velocity": 0.4409448818897638
        },
        {
          "duration": 3.4526518604166654,
          "durationTicks": 1823,
          "midi": 69,
          "name": "A4",
          "ticks": 74880,
          "time": 141.818196,
          "velocity": 0.4409448818897638
        },
        {
          "duration": 2.1571971854166634,
          "durationTicks": 1139,
          "midi": 62,
          "name": "D4",
          "ticks": 76800,
          "time": 145.45456,
          "velocity": 0.6299212598425197
        },
        {
          "duration": 2.589015410416664,
          "durationTicks": 1367,
          "midi": 57,
          "name": "A3",
          "ticks": 76800,
          "time": 145.45456,
          "velocity": 0.4409448818897638
        },
        {
          "duration": 2.589015410416664,
          "durationTicks": 1367,
          "midi": 60,
          "name": "C4",
          "ticks": 76800,
          "time": 145.45456,
          "velocity": 0.4409448818897638
        },
        {
          "duration": 0.4299242854166607,
          "durationTicks": 227,
          "midi": 66,
          "name": "F#4",
          "ticks": 78000,
          "time": 147.7272875,
          "velocity": 0.6299212598425197
        },
        {
          "duration": 0.42992428541668914,
          "durationTicks": 227,
          "midi": 69,
          "name": "A4",
          "ticks": 78240,
          "time": 148.18183299999998,
          "velocity": 0.6299212598425197
        },
        {
          "duration": 0.8617425104166898,
          "durationTicks": 455,
          "midi": 62,
          "name": "D4",
          "ticks": 78240,
          "time": 148.18183299999998,
          "velocity": 0.4409448818897638
        },
        {
          "duration": 0.4299242854166607,
          "durationTicks": 227,
          "midi": 72,
          "name": "C5",
          "ticks": 78480,
          "time": 148.6363785,
          "velocity": 0.6299212598425197
        },
        {
          "duration": 0.4299242854166607,
          "durationTicks": 227,
          "midi": 72,
          "name": "C5",
          "ticks": 78720,
          "time": 149.090924,
          "velocity": 0.6299212598425197
        },
        {
          "duration": 0.8617425104166614,
          "durationTicks": 455,
          "midi": 62,
          "name": "D4",
          "ticks": 78720,
          "time": 149.090924,
          "velocity": 0.4409448818897638
        },
        {
          "duration": 0.8617425104166614,
          "durationTicks": 455,
          "midi": 67,
          "name": "G4",
          "ticks": 78720,
          "time": 149.090924,
          "velocity": 0.4409448818897638
        },
        {
          "duration": 0.4299242854166607,
          "durationTicks": 227,
          "midi": 69,
          "name": "A4",
          "ticks": 78960,
          "time": 149.5454695,
          "velocity": 0.6299212598425197
        },
        {
          "duration": 1.7253789604166627,
          "durationTicks": 911,
          "midi": 71,
          "name": "B4",
          "ticks": 79200,
          "time": 150.000015,
          "velocity": 0.6299212598425197
        },
        {
          "duration": 1.7253789604166627,
          "durationTicks": 911,
          "midi": 62,
          "name": "D4",
          "ticks": 79200,
          "time": 150.000015,
          "velocity": 0.4409448818897638
        },
        {
          "duration": 1.7253789604166627,
          "durationTicks": 911,
          "midi": 67,
          "name": "G4",
          "ticks": 79200,
          "time": 150.000015,
          "velocity": 0.4409448818897638
        },
        {
          "duration": 0.4299242854166607,
          "durationTicks": 227,
          "midi": 71,
          "name": "B4",
          "ticks": 80160,
          "time": 151.818197,
          "velocity": 0.6299212598425197
        },
        {
          "duration": 0.8617425104166614,
          "durationTicks": 455,
          "midi": 62,
          "name": "D4",
          "ticks": 80160,
          "time": 151.818197,
          "velocity": 0.4409448818897638
        },
        {
          "duration": 0.8617425104166614,
          "durationTicks": 455,
          "midi": 67,
          "name": "G4",
          "ticks": 80160,
          "time": 151.818197,
          "velocity": 0.4409448818897638
        },
        {
          "duration": 0.2140151729166746,
          "durationTicks": 113,
          "midi": 72,
          "name": "C5",
          "ticks": 80400,
          "time": 152.2727425,
          "velocity": 0.6299212598425197
        },
        {
          "duration": 0.2140151729166746,
          "durationTicks": 113,
          "midi": 74,
          "name": "D5",
          "ticks": 80520,
          "time": 152.50001525,
          "velocity": 0.6299212598425197
        },
        {
          "duration": 2.1571971854166634,
          "durationTicks": 1139,
          "midi": 67,
          "name": "G4",
          "ticks": 80640,
          "time": 152.727288,
          "velocity": 0.6299212598425197
        },
        {
          "duration": 0.8617425104166898,
          "durationTicks": 455,
          "midi": 62,
          "name": "D4",
          "ticks": 80640,
          "time": 152.727288,
          "velocity": 0.4409448818897638
        },
        {
          "duration": 0.8617425104166614,
          "durationTicks": 455,
          "midi": 60,
          "name": "C4",
          "ticks": 81120,
          "time": 153.636379,
          "velocity": 0.4409448818897638
        },
        {
          "duration": 1.7253789604166627,
          "durationTicks": 911,
          "midi": 59,
          "name": "B3",
          "ticks": 81600,
          "time": 154.54547,
          "velocity": 0.4409448818897638
        },
        {
          "duration": 1.7253789604166627,
          "durationTicks": 911,
          "midi": 65,
          "name": "F4",
          "ticks": 81600,
          "time": 154.54547,
          "velocity": 0.4409448818897638
        },
        {
          "duration": 0.4299242854166607,
          "durationTicks": 227,
          "midi": 71,
          "name": "B4",
          "ticks": 81840,
          "time": 155.0000155,
          "velocity": 0.6299212598425197
        },
        {
          "duration": 0.4299242854166607,
          "durationTicks": 227,
          "midi": 74,
          "name": "D5",
          "ticks": 82080,
          "time": 155.45456099999998,
          "velocity": 0.6299212598425197
        },
        {
          "duration": 0.4299242854166607,
          "durationTicks": 227,
          "midi": 77,
          "name": "F5",
          "ticks": 82320,
          "time": 155.9091065,
          "velocity": 0.6299212598425197
        },
        {
          "duration": 2.589015410416664,
          "durationTicks": 1367,
          "midi": 76,
          "name": "E5",
          "ticks": 82560,
          "time": 156.363652,
          "velocity": 0.6299212598425197
        },
        {
          "duration": 2.589015410416664,
          "durationTicks": 1367,
          "midi": 64,
          "name": "E4",
          "ticks": 82560,
          "time": 156.363652,
          "velocity": 0.4409448818897638
        },
        {
          "duration": 2.589015410416664,
          "durationTicks": 1367,
          "midi": 67,
          "name": "G4",
          "ticks": 82560,
          "time": 156.363652,
          "velocity": 0.4409448818897638
        },
        {
          "duration": 2.589015410416664,
          "durationTicks": 1367,
          "midi": 72,
          "name": "C5",
          "ticks": 82560,
          "time": 156.363652,
          "velocity": 0.4409448818897638
        },
        {
          "duration": 0.8617425104166614,
          "durationTicks": 455,
          "midi": 67,
          "name": "G4",
          "ticks": 84000,
          "time": 159.090925,
          "velocity": 0.6299212598425197
        },
        {
          "duration": 0.8617425104166614,
          "durationTicks": 455,
          "midi": 62,
          "name": "D4",
          "ticks": 84000,
          "time": 159.090925,
          "velocity": 0.4409448818897638
        },
        {
          "duration": 0.4299242854166607,
          "durationTicks": 227,
          "midi": 66,
          "name": "F#4",
          "ticks": 84480,
          "time": 160.000016,
          "velocity": 0.6299212598425197
        },
        {
          "duration": 0.8617425104166614,
          "durationTicks": 455,
          "midi": 60,
          "name": "C4",
          "ticks": 84480,
          "time": 160.000016,
          "velocity": 0.4409448818897638
        },
        {
          "duration": 0.42992428541668914,
          "durationTicks": 227,
          "midi": 69,
          "name": "A4",
          "ticks": 84720,
          "time": 160.45456149999998,
          "velocity": 0.6299212598425197
        },
        {
          "duration": 1.7253789604166627,
          "durationTicks": 911,
          "midi": 72,
          "name": "C5",
          "ticks": 84960,
          "time": 160.909107,
          "velocity": 0.6299212598425197
        },
        {
          "duration": 1.7253789604166627,
          "durationTicks": 911,
          "midi": 64,
          "name": "E4",
          "ticks": 84960,
          "time": 160.909107,
          "velocity": 0.4409448818897638
        },
        {
          "duration": 1.7253789604166627,
          "durationTicks": 911,
          "midi": 67,
          "name": "G4",
          "ticks": 84960,
          "time": 160.909107,
          "velocity": 0.4409448818897638
        },
        {
          "duration": 0.8617425104166614,
          "durationTicks": 455,
          "midi": 64,
          "name": "E4",
          "ticks": 85920,
          "time": 162.72728899999998,
          "velocity": 0.6299212598425197
        },
        {
          "duration": 0.8617425104166614,
          "durationTicks": 455,
          "midi": 60,
          "name": "C4",
          "ticks": 85920,
          "time": 162.72728899999998,
          "velocity": 0.4409448818897638
        },
        {
          "duration": 0.8617425104166614,
          "durationTicks": 455,
          "midi": 62,
          "name": "D4",
          "ticks": 86400,
          "time": 163.63638,
          "velocity": 0.6299212598425197
        },
        {
          "duration": 0.8617425104166614,
          "durationTicks": 455,
          "midi": 57,
          "name": "A3",
          "ticks": 86400,
          "time": 163.63638,
          "velocity": 0.4409448818897638
        },
        {
          "duration": 0.4299242854166607,
          "durationTicks": 227,
          "midi": 69,
          "name": "A4",
          "ticks": 86880,
          "time": 164.545471,
          "velocity": 0.6299212598425197
        },
        {
          "duration": 0.8617425104166614,
          "durationTicks": 455,
          "midi": 62,
          "name": "D4",
          "ticks": 86880,
          "time": 164.545471,
          "velocity": 0.4409448818897638
        },
        {
          "duration": 0.8617425104166614,
          "durationTicks": 455,
          "midi": 66,
          "name": "F#4",
          "ticks": 86880,
          "time": 164.545471,
          "velocity": 0.4409448818897638
        },
        {
          "duration": 0.2140151729166746,
          "durationTicks": 113,
          "midi": 71,
          "name": "B4",
          "ticks": 87120,
          "time": 165.0000165,
          "velocity": 0.6299212598425197
        },
        {
          "duration": 0.21401517291670302,
          "durationTicks": 113,
          "midi": 72,
          "name": "C5",
          "ticks": 87240,
          "time": 165.22728924999998,
          "velocity": 0.6299212598425197
        },
        {
          "duration": 0.42992428541668914,
          "durationTicks": 227,
          "midi": 72,
          "name": "C5",
          "ticks": 87360,
          "time": 165.45456199999998,
          "velocity": 0.6299212598425197
        },
        {
          "duration": 0.8617425104166614,
          "durationTicks": 455,
          "midi": 62,
          "name": "D4",
          "ticks": 87360,
          "time": 165.45456199999998,
          "velocity": 0.4409448818897638
        },
        {
          "duration": 0.8617425104166614,
          "durationTicks": 455,
          "midi": 67,
          "name": "G4",
          "ticks": 87360,
          "time": 165.45456199999998,
          "velocity": 0.4409448818897638
        },
        {
          "duration": 0.8617425104166614,
          "durationTicks": 455,
          "midi": 71,
          "name": "B4",
          "ticks": 87600,
          "time": 165.9091075,
          "velocity": 0.6299212598425197
        },
        {
          "duration": 0.8617425104166614,
          "durationTicks": 455,
          "midi": 60,
          "name": "C4",
          "ticks": 87840,
          "time": 166.363653,
          "velocity": 0.4409448818897638
        },
        {
          "duration": 0.8617425104166614,
          "durationTicks": 455,
          "midi": 64,
          "name": "E4",
          "ticks": 87840,
          "time": 166.363653,
          "velocity": 0.4409448818897638
        },
        {
          "duration": 0.4299242854166607,
          "durationTicks": 227,
          "midi": 69,
          "name": "A4",
          "ticks": 88080,
          "time": 166.8181985,
          "velocity": 0.6299212598425197
        },
        {
          "duration": 0.2140151729166746,
          "durationTicks": 113,
          "midi": 67,
          "name": "G4",
          "ticks": 88320,
          "time": 167.272744,
          "velocity": 0.6299212598425197
        },
        {
          "duration": 0.8617425104166614,
          "durationTicks": 455,
          "midi": 59,
          "name": "B3",
          "ticks": 88320,
          "time": 167.272744,
          "velocity": 0.4409448818897638
        },
        {
          "duration": 0.8617425104166614,
          "durationTicks": 455,
          "midi": 62,
          "name": "D4",
          "ticks": 88320,
          "time": 167.272744,
          "velocity": 0.4409448818897638
        },
        {
          "duration": 0.2140151729166746,
          "durationTicks": 113,
          "midi": 66,
          "name": "F#4",
          "ticks": 88440,
          "time": 167.50001675,
          "velocity": 0.6299212598425197
        },
        {
          "duration": 0.8617425104166614,
          "durationTicks": 455,
          "midi": 64,
          "name": "E4",
          "ticks": 88560,
          "time": 167.72728949999998,
          "velocity": 0.6299212598425197
        },
        {
          "duration": 0.861742510416633,
          "durationTicks": 455,
          "midi": 60,
          "name": "C4",
          "ticks": 88800,
          "time": 168.181835,
          "velocity": 0.4409448818897638
        },
        {
          "duration": 0.4299242854166607,
          "durationTicks": 227,
          "midi": 66,
          "name": "F#4",
          "ticks": 89040,
          "time": 168.6363805,
          "velocity": 0.6299212598425197
        },
        {
          "duration": 0.8617425104166614,
          "durationTicks": 455,
          "midi": 67,
          "name": "G4",
          "ticks": 89280,
          "time": 169.090926,
          "velocity": 0.6299212598425197
        },
        {
          "duration": 0.8617425104166614,
          "durationTicks": 455,
          "midi": 57,
          "name": "A3",
          "ticks": 89280,
          "time": 169.090926,
          "velocity": 0.4409448818897638
        },
        {
          "duration": 0.8617425104166614,
          "durationTicks": 455,
          "midi": 62,
          "name": "D4",
          "ticks": 89280,
          "time": 169.090926,
          "velocity": 0.4409448818897638
        },
        {
          "duration": 0.4299242854166607,
          "durationTicks": 227,
          "midi": 66,
          "name": "F#4",
          "ticks": 89760,
          "time": 170.00001699999999,
          "velocity": 0.6299212598425197
        },
        {
          "duration": 0.8617425104166614,
          "durationTicks": 455,
          "midi": 60,
          "name": "C4",
          "ticks": 89760,
          "time": 170.00001699999999,
          "velocity": 0.4409448818897638
        },
        {
          "duration": 0.8617425104166614,
          "durationTicks": 455,
          "midi": 62,
          "name": "D4",
          "ticks": 89760,
          "time": 170.00001699999999,
          "velocity": 0.4409448818897638
        },
        {
          "duration": 0.4299242854166607,
          "durationTicks": 227,
          "midi": 67,
          "name": "G4",
          "ticks": 90000,
          "time": 170.4545625,
          "velocity": 0.6299212598425197
        },
        {
          "duration": 3.4526518604166654,
          "durationTicks": 1823,
          "midi": 67,
          "name": "G4",
          "ticks": 90240,
          "time": 170.909108,
          "velocity": 0.6299212598425197
        },
        {
          "duration": 3.4526518604166654,
          "durationTicks": 1823,
          "midi": 59,
          "name": "B3",
          "ticks": 90240,
          "time": 170.909108,
          "velocity": 0.4409448818897638
        },
        {
          "duration": 3.4526518604166654,
          "durationTicks": 1823,
          "midi": 62,
          "name": "D4",
          "ticks": 90240,
          "time": 170.909108,
          "velocity": 0.4409448818897638
        },
        {
          "duration": 2.157197185416692,
          "durationTicks": 1139,
          "midi": 66,
          "name": "F#4",
          "ticks": 92160,
          "time": 174.545472,
          "velocity": 0.6299212598425197
        },
        {
          "duration": 2.589015410416664,
          "durationTicks": 1367,
          "midi": 57,
          "name": "A3",
          "ticks": 92160,
          "time": 174.545472,
          "velocity": 0.4409448818897638
        },
        {
          "duration": 2.589015410416664,
          "durationTicks": 1367,
          "midi": 62,
          "name": "D4",
          "ticks": 92160,
          "time": 174.545472,
          "velocity": 0.4409448818897638
        },
        {
          "duration": 0.21401517291670302,
          "durationTicks": 113,
          "midi": 67,
          "name": "G4",
          "ticks": 93360,
          "time": 176.8181995,
          "velocity": 0.6299212598425197
        },
        {
          "duration": 0.21401517291670302,
          "durationTicks": 113,
          "midi": 66,
          "name": "F#4",
          "ticks": 93480,
          "time": 177.04547225,
          "velocity": 0.6299212598425197
        },
        {
          "duration": 0.2140151729166746,
          "durationTicks": 113,
          "midi": 64,
          "name": "E4",
          "ticks": 93600,
          "time": 177.27274500000001,
          "velocity": 0.6299212598425197
        },
        {
          "duration": 0.2140151729166746,
          "durationTicks": 113,
          "midi": 66,
          "name": "F#4",
          "ticks": 93720,
          "time": 177.50001775,
          "velocity": 0.6299212598425197
        },
        {
          "duration": 0.4299242854166607,
          "durationTicks": 227,
          "midi": 62,
          "name": "D4",
          "ticks": 93840,
          "time": 177.7272905,
          "velocity": 0.6299212598425197
        },
        {
          "duration": 2.589015410416664,
          "durationTicks": 1367,
          "midi": 74,
          "name": "D5",
          "ticks": 94080,
          "time": 178.181836,
          "velocity": 0.6299212598425197
        },
        {
          "duration": 1.8181820000000073,
          "durationTicks": 960,
          "midi": 65,
          "name": "F4",
          "ticks": 94080,
          "time": 178.181836,
          "velocity": 0.4409448818897638
        },
        {
          "duration": 2.589015410416664,
          "durationTicks": 1367,
          "midi": 71,
          "name": "B4",
          "ticks": 94080,
          "time": 178.181836,
          "velocity": 0.4409448818897638
        },
        {
          "duration": 0.8617425104166614,
          "durationTicks": 455,
          "midi": 65,
          "name": "F4",
          "ticks": 95520,
          "time": 180.909109,
          "velocity": 0.6299212598425197
        },
        {
          "duration": 0.8617425104166614,
          "durationTicks": 455,
          "midi": 64,
          "name": "E4",
          "ticks": 96000,
          "time": 181.8182,
          "velocity": 0.6299212598425197
        },
        {
          "duration": 1.293560735416662,
          "durationTicks": 683,
          "midi": 76,
          "name": "E5",
          "ticks": 96480,
          "time": 182.727291,
          "velocity": 0.6299212598425197
        },
        {
          "duration": 0.4299242854166607,
          "durationTicks": 227,
          "midi": 74,
          "name": "D5",
          "ticks": 97200,
          "time": 184.0909275,
          "velocity": 0.6299212598425197
        },
        {
          "duration": 0.4299242854166607,
          "durationTicks": 227,
          "midi": 72,
          "name": "C5",
          "ticks": 97440,
          "time": 184.54547300000002,
          "velocity": 0.6299212598425197
        },
        {
          "duration": 0.4299242854166607,
          "durationTicks": 227,
          "midi": 71,
          "name": "B4",
          "ticks": 97680,
          "time": 185.0000185,
          "velocity": 0.6299212598425197
        },
        {
          "duration": 1.9412880729166488,
          "durationTicks": 1025,
          "midi": 72,
          "name": "C5",
          "ticks": 97920,
          "time": 185.454564,
          "velocity": 0.6299212598425197
        },
        {
          "duration": 2.589015410416664,
          "durationTicks": 1367,
          "midi": 64,
          "name": "E4",
          "ticks": 97920,
          "time": 185.454564,
          "velocity": 0.4409448818897638
        },
        {
          "duration": 2.272727500000002,
          "durationTicks": 1200,
          "midi": 69,
          "name": "A4",
          "ticks": 97920,
          "time": 185.454564,
          "velocity": 0.4409448818897638
        },
        {
          "duration": 0.2140151729166746,
          "durationTicks": 113,
          "midi": 71,
          "name": "B4",
          "ticks": 99000,
          "time": 187.50001875,
          "velocity": 0.6299212598425197
        },
        {
          "duration": 0.31628791041666204,
          "durationTicks": 167,
          "midi": 69,
          "name": "A4",
          "ticks": 99120,
          "time": 187.7272915,
          "velocity": 0.6299212598425197
        },
        {
          "duration": 0.2140151729166746,
          "durationTicks": 113,
          "midi": 67,
          "name": "G4",
          "ticks": 99240,
          "time": 187.95456425,
          "velocity": 0.6299212598425197
        },
        {
          "duration": 0.4299242854166607,
          "durationTicks": 227,
          "midi": 66,
          "name": "F#4",
          "ticks": 99360,
          "time": 188.181837,
          "velocity": 0.6299212598425197
        },
        {
          "duration": 0.4299242854166607,
          "durationTicks": 227,
          "midi": 64,
          "name": "E4",
          "ticks": 99600,
          "time": 188.6363825,
          "velocity": 0.6299212598425197
        },
        {
          "duration": 0.4299242854166607,
          "durationTicks": 227,
          "midi": 63,
          "name": "D#4",
          "ticks": 99840,
          "time": 189.090928,
          "velocity": 0.6299212598425197
        },
        {
          "duration": 0.4299242854166607,
          "durationTicks": 227,
          "midi": 64,
          "name": "E4",
          "ticks": 100080,
          "time": 189.5454735,
          "velocity": 0.6299212598425197
        },
        {
          "duration": 1.293560735416662,
          "durationTicks": 683,
          "midi": 66,
          "name": "F#4",
          "ticks": 100320,
          "time": 190.000019,
          "velocity": 0.6299212598425197
        },
        {
          "duration": 0.4299242854166607,
          "durationTicks": 227,
          "midi": 67,
          "name": "G4",
          "ticks": 101040,
          "time": 191.3636555,
          "velocity": 0.6299212598425197
        },
        {
          "duration": 1.2935607354166905,
          "durationTicks": 683,
          "midi": 69,
          "name": "A4",
          "ticks": 101280,
          "time": 191.818201,
          "velocity": 0.6299212598425197
        },
        {
          "duration": 0.4299242854166607,
          "durationTicks": 227,
          "midi": 57,
          "name": "A3",
          "ticks": 101520,
          "time": 192.2727465,
          "velocity": 0.4409448818897638
        },
        {
          "duration": 0.8617425104166614,
          "durationTicks": 455,
          "midi": 59,
          "name": "B3",
          "ticks": 101760,
          "time": 192.727292,
          "velocity": 0.4409448818897638
        },
        {
          "duration": 0.4299242854166607,
          "durationTicks": 227,
          "midi": 71,
          "name": "B4",
          "ticks": 102000,
          "time": 193.1818375,
          "velocity": 0.6299212598425197
        },
        {
          "duration": 1.7253789604166911,
          "durationTicks": 911,
          "midi": 72,
          "name": "C5",
          "ticks": 102240,
          "time": 193.636383,
          "velocity": 0.6299212598425197
        },
        {
          "duration": 0.4299242854166607,
          "durationTicks": 227,
          "midi": 66,
          "name": "F#4",
          "ticks": 102240,
          "time": 193.636383,
          "velocity": 0.4409448818897638
        },
        {
          "duration": 0.42992428541668914,
          "durationTicks": 227,
          "midi": 64,
          "name": "E4",
          "ticks": 102480,
          "time": 194.0909285,
          "velocity": 0.4409448818897638
        },
        {
          "duration": 0.4299242854166607,
          "durationTicks": 227,
          "midi": 63,
          "name": "D#4",
          "ticks": 102720,
          "time": 194.545474,
          "velocity": 0.4409448818897638
        },
        {
          "duration": 0.4299242854166607,
          "durationTicks": 227,
          "midi": 64,
          "name": "E4",
          "ticks": 102960,
          "time": 195.0000195,
          "velocity": 0.4409448818897638
        },
        {
          "duration": 0.8617425104166614,
          "durationTicks": 455,
          "midi": 71,
          "name": "B4",
          "ticks": 103200,
          "time": 195.454565,
          "velocity": 0.6299212598425197
        },
        {
          "duration": 0.8617425104166614,
          "durationTicks": 455,
          "midi": 66,
          "name": "F#4",
          "ticks": 103200,
          "time": 195.454565,
          "velocity": 0.4409448818897638
        },
        {
          "duration": 0.4299242854166607,
          "durationTicks": 227,
          "midi": 69,
          "name": "A4",
          "ticks": 103680,
          "time": 196.363656,
          "velocity": 0.6299212598425197
        },
        {
          "duration": 0.8617425104166614,
          "durationTicks": 455,
          "midi": 59,
          "name": "B3",
          "ticks": 103680,
          "time": 196.363656,
          "velocity": 0.4409448818897638
        },
        {
          "duration": 0.8617425104166614,
          "durationTicks": 455,
          "midi": 64,
          "name": "E4",
          "ticks": 103680,
          "time": 196.363656,
          "velocity": 0.4409448818897638
        },
        {
          "duration": 0.4299242854166607,
          "durationTicks": 227,
          "midi": 67,
          "name": "G4",
          "ticks": 103920,
          "time": 196.81820150000001,
          "velocity": 0.6299212598425197
        },
        {
          "duration": 0.4299242854166607,
          "durationTicks": 227,
          "midi": 66,
          "name": "F#4",
          "ticks": 104160,
          "time": 197.272747,
          "velocity": 0.6299212598425197
        },
        {
          "duration": 0.8617425104166614,
          "durationTicks": 455,
          "midi": 60,
          "name": "C4",
          "ticks": 104160,
          "time": 197.272747,
          "velocity": 0.4409448818897638
        },
        {
          "duration": 0.4299242854166607,
          "durationTicks": 227,
          "midi": 64,
          "name": "E4",
          "ticks": 104400,
          "time": 197.7272925,
          "velocity": 0.6299212598425197
        },
        {
          "duration": 0.4299242854166607,
          "durationTicks": 227,
          "midi": 66,
          "name": "F#4",
          "ticks": 104640,
          "time": 198.181838,
          "velocity": 0.6299212598425197
        },
        {
          "duration": 0.8617425104166614,
          "durationTicks": 455,
          "midi": 60,
          "name": "C4",
          "ticks": 104640,
          "time": 198.181838,
          "velocity": 0.4409448818897638
        },
        {
          "duration": 0.2140151729166746,
          "durationTicks": 113,
          "midi": 67,
          "name": "G4",
          "ticks": 104880,
          "time": 198.6363835,
          "velocity": 0.6299212598425197
        },
        {
          "duration": 0.21401517291670302,
          "durationTicks": 113,
          "midi": 69,
          "name": "A4",
          "ticks": 105000,
          "time": 198.86365625,
          "velocity": 0.6299212598425197
        },
        {
          "duration": 0.8617425104166614,
          "durationTicks": 455,
          "midi": 67,
          "name": "G4",
          "ticks": 105120,
          "time": 199.090929,
          "velocity": 0.6299212598425197
        },
        {
          "duration": 0.8617425104166614,
          "durationTicks": 455,
          "midi": 63,
          "name": "D#4",
          "ticks": 105120,
          "time": 199.090929,
          "velocity": 0.4409448818897638
        },
        {
          "duration": 3.4526518604166654,
          "durationTicks": 1823,
          "midi": 64,
          "name": "E4",
          "ticks": 105600,
          "time": 200.00002,
          "velocity": 0.6299212598425197
        },
        {
          "duration": 3.4526518604166654,
          "durationTicks": 1823,
          "midi": 55,
          "name": "G3",
          "ticks": 105600,
          "time": 200.00002,
          "velocity": 0.4409448818897638
        },
        {
          "duration": 3.4526518604166654,
          "durationTicks": 1823,
          "midi": 59,
          "name": "B3",
          "ticks": 105600,
          "time": 200.00002,
          "velocity": 0.4409448818897638
        },
        {
          "duration": 2.1571971854166634,
          "durationTicks": 1139,
          "midi": 67,
          "name": "G4",
          "ticks": 107520,
          "time": 203.636384,
          "velocity": 0.6299212598425197
        },
        {
          "duration": 2.589015410416664,
          "durationTicks": 1367,
          "midi": 57,
          "name": "A3",
          "ticks": 107520,
          "time": 203.636384,
          "velocity": 0.4409448818897638
        },
        {
          "duration": 2.589015410416664,
          "durationTicks": 1367,
          "midi": 64,
          "name": "E4",
          "ticks": 107520,
          "time": 203.636384,
          "velocity": 0.4409448818897638
        },
        {
          "duration": 0.4299242854166607,
          "durationTicks": 227,
          "midi": 71,
          "name": "B4",
          "ticks": 108720,
          "time": 205.9091115,
          "velocity": 0.6299212598425197
        },
        {
          "duration": 0.42992428541668914,
          "durationTicks": 227,
          "midi": 69,
          "name": "A4",
          "ticks": 108960,
          "time": 206.363657,
          "velocity": 0.6299212598425197
        },
        {
          "duration": 0.8617425104166614,
          "durationTicks": 455,
          "midi": 62,
          "name": "D4",
          "ticks": 108960,
          "time": 206.363657,
          "velocity": 0.4409448818897638
        },
        {
          "duration": 0.4299242854166607,
          "durationTicks": 227,
          "midi": 67,
          "name": "G4",
          "ticks": 109200,
          "time": 206.8182025,
          "velocity": 0.6299212598425197
        },
        {
          "duration": 2.589015410416664,
          "durationTicks": 1367,
          "midi": 76,
          "name": "E5",
          "ticks": 109440,
          "time": 207.272748,
          "velocity": 0.6299212598425197
        },
        {
          "duration": 2.589015410416664,
          "durationTicks": 1367,
          "midi": 64,
          "name": "E4",
          "ticks": 109440,
          "time": 207.272748,
          "velocity": 0.4409448818897638
        },
        {
          "duration": 2.589015410416664,
          "durationTicks": 1367,
          "midi": 69,
          "name": "A4",
          "ticks": 109440,
          "time": 207.272748,
          "velocity": 0.4409448818897638
        },
        {
          "duration": 2.589015410416664,
          "durationTicks": 1367,
          "midi": 73,
          "name": "C#5",
          "ticks": 109440,
          "time": 207.272748,
          "velocity": 0.4409448818897638
        },
        {
          "duration": 0.4299242854166607,
          "durationTicks": 227,
          "midi": 74,
          "name": "D5",
          "ticks": 110880,
          "time": 210.000021,
          "velocity": 0.6299212598425197
        },
        {
          "duration": 0.8617425104166614,
          "durationTicks": 455,
          "midi": 64,
          "name": "E4",
          "ticks": 110880,
          "time": 210.000021,
          "velocity": 0.4409448818897638
        },
        {
          "duration": 0.8617425104166614,
          "durationTicks": 455,
          "midi": 69,
          "name": "A4",
          "ticks": 110880,
          "time": 210.000021,
          "velocity": 0.4409448818897638
        },
        {
          "duration": 0.4299242854166607,
          "durationTicks": 227,
          "midi": 73,
          "name": "C#5",
          "ticks": 111120,
          "time": 210.4545665,
          "velocity": 0.6299212598425197
        },
        {
          "duration": 0.2140151729166746,
          "durationTicks": 113,
          "midi": 71,
          "name": "B4",
          "ticks": 111360,
          "time": 210.909112,
          "velocity": 0.6299212598425197
        },
        {
          "duration": 0.8617425104166614,
          "durationTicks": 455,
          "midi": 62,
          "name": "D4",
          "ticks": 111360,
          "time": 210.909112,
          "velocity": 0.4409448818897638
        },
        {
          "duration": 0.21401517291670302,
          "durationTicks": 113,
          "midi": 69,
          "name": "A4",
          "ticks": 111480,
          "time": 211.13638475,
          "velocity": 0.6299212598425197
        },
        {
          "duration": 0.42992428541668914,
          "durationTicks": 227,
          "midi": 74,
          "name": "D5",
          "ticks": 111600,
          "time": 211.3636575,
          "velocity": 0.6299212598425197
        },
        {
          "duration": 0.8617425104166614,
          "durationTicks": 455,
          "midi": 62,
          "name": "D4",
          "ticks": 111840,
          "time": 211.818203,
          "velocity": 0.6299212598425197
        },
        {
          "duration": 0.8617425104166614,
          "durationTicks": 455,
          "midi": 57,
          "name": "A3",
          "ticks": 111840,
          "time": 211.818203,
          "velocity": 0.4409448818897638
        },
        {
          "duration": 1.2935607354166905,
          "durationTicks": 683,
          "midi": 64,
          "name": "E4",
          "ticks": 112320,
          "time": 212.727294,
          "velocity": 0.6299212598425197
        },
        {
          "duration": 0.8617425104166614,
          "durationTicks": 455,
          "midi": 59,
          "name": "B3",
          "ticks": 112320,
          "time": 212.727294,
          "velocity": 0.4409448818897638
        },
        {
          "duration": 0.8617425104166614,
          "durationTicks": 455,
          "midi": 61,
          "name": "C#4",
          "ticks": 112800,
          "time": 213.636385,
          "velocity": 0.4409448818897638
        },
        {
          "duration": 0.2140151729166746,
          "durationTicks": 113,
          "midi": 66,
          "name": "F#4",
          "ticks": 113040,
          "time": 214.0909305,
          "velocity": 0.6299212598425197
        },
        {
          "duration": 0.2140151729166746,
          "durationTicks": 113,
          "midi": 67,
          "name": "G4",
          "ticks": 113160,
          "time": 214.31820325,
          "velocity": 0.6299212598425197
        },
        {
          "duration": 1.293560735416662,
          "durationTicks": 683,
          "midi": 66,
          "name": "F#4",
          "ticks": 113280,
          "time": 214.545476,
          "velocity": 0.6299212598425197
        },
        {
          "duration": 1.7253789604166627,
          "durationTicks": 911,
          "midi": 57,
          "name": "A3",
          "ticks": 113280,
          "time": 214.545476,
          "velocity": 0.4409448818897638
        },
        {
          "duration": 1.7253789604166627,
          "durationTicks": 911,
          "midi": 62,
          "name": "D4",
          "ticks": 113280,
          "time": 214.545476,
          "velocity": 0.4409448818897638
        },
        {
          "duration": 0.4299242854166607,
          "durationTicks": 227,
          "midi": 64,
          "name": "E4",
          "ticks": 114000,
          "time": 215.9091125,
          "velocity": 0.6299212598425197
        },
        {
          "duration": 1.7253789604166627,
          "durationTicks": 911,
          "midi": 62,
          "name": "D4",
          "ticks": 114240,
          "time": 216.36365800000002,
          "velocity": 0.6299212598425197
        },
        {
          "duration": 1.7253789604166627,
          "durationTicks": 911,
          "midi": 54,
          "name": "F#3",
          "ticks": 114240,
          "time": 216.36365800000002,
          "velocity": 0.4409448818897638
        },
        {
          "duration": 1.7253789604166627,
          "durationTicks": 911,
          "midi": 57,
          "name": "A3",
          "ticks": 114240,
          "time": 216.36365800000002,
          "velocity": 0.4409448818897638
        },
        {
          "duration": 2.589015410416664,
          "durationTicks": 1367,
          "midi": 67,
          "name": "G4",
          "ticks": 115200,
          "time": 218.18184,
          "velocity": 0.6299212598425197
        },
        {
          "duration": 0.8617425104166614,
          "durationTicks": 455,
          "midi": 62,
          "name": "D4",
          "ticks": 115200,
          "time": 218.18184,
          "velocity": 0.4409448818897638
        },
        {
          "duration": 0.4299242854166607,
          "durationTicks": 227,
          "midi": 64,
          "name": "E4",
          "ticks": 115680,
          "time": 219.090931,
          "velocity": 0.4409448818897638
        },
        {
          "duration": 0.4299242854166607,
          "durationTicks": 227,
          "midi": 65,
          "name": "F4",
          "ticks": 115920,
          "time": 219.5454765,
          "velocity": 0.4409448818897638
        },
        {
          "duration": 1.7253789604166627,
          "durationTicks": 911,
          "midi": 64,
          "name": "E4",
          "ticks": 116160,
          "time": 220.000022,
          "velocity": 0.4409448818897638
        },
        {
          "duration": 0.4299242854166607,
          "durationTicks": 227,
          "midi": 71,
          "name": "B4",
          "ticks": 116640,
          "time": 220.909113,
          "velocity": 0.6299212598425197
        },
        {
          "duration": 0.4299242854166607,
          "durationTicks": 227,
          "midi": 69,
          "name": "A4",
          "ticks": 116880,
          "time": 221.3636585,
          "velocity": 0.6299212598425197
        },
        {
          "duration": 2.589015410416664,
          "durationTicks": 1367,
          "midi": 69,
          "name": "A4",
          "ticks": 117120,
          "time": 221.818204,
          "velocity": 0.6299212598425197
        },
        {
          "duration": 0.4299242854166607,
          "durationTicks": 227,
          "midi": 66,
          "name": "F#4",
          "ticks": 117600,
          "time": 222.727295,
          "velocity": 0.4409448818897638
        },
        {
          "duration": 0.4299242854166607,
          "durationTicks": 227,
          "midi": 64,
          "name": "E4",
          "ticks": 117840,
          "time": 223.1818405,
          "velocity": 0.4409448818897638
        },
        {
          "duration": 1.7253789604166911,
          "durationTicks": 911,
          "midi": 66,
          "name": "F#4",
          "ticks": 118080,
          "time": 223.636386,
          "velocity": 0.4409448818897638
        },
        {
          "duration": 0.4299242854166607,
          "durationTicks": 227,
          "midi": 72,
          "name": "C5",
          "ticks": 118560,
          "time": 224.545477,
          "velocity": 0.6299212598425197
        },
        {
          "duration": 0.4299242854166607,
          "durationTicks": 227,
          "midi": 71,
          "name": "B4",
          "ticks": 118800,
          "time": 225.0000225,
          "velocity": 0.6299212598425197
        },
        {
          "duration": 2.589015410416664,
          "durationTicks": 1367,
          "midi": 71,
          "name": "B4",
          "ticks": 119040,
          "time": 225.454568,
          "velocity": 0.6299212598425197
        },
        {
          "duration": 0.4299242854166607,
          "durationTicks": 227,
          "midi": 68,
          "name": "G#4",
          "ticks": 119520,
          "time": 226.363659,
          "velocity": 0.4409448818897638
        },
        {
          "duration": 0.4299242854166607,
          "durationTicks": 227,
          "midi": 66,
          "name": "F#4",
          "ticks": 119760,
          "time": 226.8182045,
          "velocity": 0.4409448818897638
        },
        {
          "duration": 0.8617425104166614,
          "durationTicks": 455,
          "midi": 68,
          "name": "G#4",
          "ticks": 120000,
          "time": 227.27275,
          "velocity": 0.4409448818897638
        },
        {
          "duration": 0.4299242854166607,
          "durationTicks": 227,
          "midi": 74,
          "name": "D5",
          "ticks": 120480,
          "time": 228.181841,
          "velocity": 0.6299212598425197
        },
        {
          "duration": 0.8617425104166614,
          "durationTicks": 455,
          "midi": 64,
          "name": "E4",
          "ticks": 120480,
          "time": 228.181841,
          "velocity": 0.4409448818897638
        },
        {
          "duration": 0.8617425104166614,
          "durationTicks": 455,
          "midi": 71,
          "name": "B4",
          "ticks": 120480,
          "time": 228.181841,
          "velocity": 0.4409448818897638
        },
        {
          "duration": 0.4299242854166607,
          "durationTicks": 227,
          "midi": 72,
          "name": "C5",
          "ticks": 120720,
          "time": 228.63638650000001,
          "velocity": 0.6299212598425197
        },
        {
          "duration": 3.4526518604166654,
          "durationTicks": 1823,
          "midi": 72,
          "name": "C5",
          "ticks": 120960,
          "time": 229.090932,
          "velocity": 0.6299212598425197
        },
        {
          "duration": 3.4526518604166654,
          "durationTicks": 1823,
          "midi": 64,
          "name": "E4",
          "ticks": 120960,
          "time": 229.090932,
          "velocity": 0.4409448818897638
        },
        {
          "duration": 3.4526518604166654,
          "durationTicks": 1823,
          "midi": 69,
          "name": "A4",
          "ticks": 120960,
          "time": 229.090932,
          "velocity": 0.4409448818897638
        },
        {
          "duration": 2.1571971854166634,
          "durationTicks": 1139,
          "midi": 62,
          "name": "D4",
          "ticks": 122880,
          "time": 232.727296,
          "velocity": 0.6299212598425197
        },
        {
          "duration": 2.589015410416664,
          "durationTicks": 1367,
          "midi": 57,
          "name": "A3",
          "ticks": 122880,
          "time": 232.727296,
          "velocity": 0.4409448818897638
        },
        {
          "duration": 2.589015410416664,
          "durationTicks": 1367,
          "midi": 60,
          "name": "C4",
          "ticks": 122880,
          "time": 232.727296,
          "velocity": 0.4409448818897638
        },
        {
          "duration": 0.4299242854166607,
          "durationTicks": 227,
          "midi": 66,
          "name": "F#4",
          "ticks": 124080,
          "time": 235.0000235,
          "velocity": 0.6299212598425197
        },
        {
          "duration": 0.4299242854166607,
          "durationTicks": 227,
          "midi": 69,
          "name": "A4",
          "ticks": 124320,
          "time": 235.454569,
          "velocity": 0.6299212598425197
        },
        {
          "duration": 0.8617425104166614,
          "durationTicks": 455,
          "midi": 62,
          "name": "D4",
          "ticks": 124320,
          "time": 235.454569,
          "velocity": 0.4409448818897638
        },
        {
          "duration": 0.42992428541668914,
          "durationTicks": 227,
          "midi": 72,
          "name": "C5",
          "ticks": 124560,
          "time": 235.9091145,
          "velocity": 0.6299212598425197
        },
        {
          "duration": 0.4299242854166607,
          "durationTicks": 227,
          "midi": 72,
          "name": "C5",
          "ticks": 124800,
          "time": 236.36366,
          "velocity": 0.6299212598425197
        },
        {
          "duration": 0.8617425104166614,
          "durationTicks": 455,
          "midi": 62,
          "name": "D4",
          "ticks": 124800,
          "time": 236.36366,
          "velocity": 0.4409448818897638
        },
        {
          "duration": 0.8617425104166614,
          "durationTicks": 455,
          "midi": 67,
          "name": "G4",
          "ticks": 124800,
          "time": 236.36366,
          "velocity": 0.4409448818897638
        },
        {
          "duration": 0.4299242854166607,
          "durationTicks": 227,
          "midi": 69,
          "name": "A4",
          "ticks": 125040,
          "time": 236.8182055,
          "velocity": 0.6299212598425197
        },
        {
          "duration": 1.7253789604166627,
          "durationTicks": 911,
          "midi": 71,
          "name": "B4",
          "ticks": 125280,
          "time": 237.272751,
          "velocity": 0.6299212598425197
        },
        {
          "duration": 1.7253789604166627,
          "durationTicks": 911,
          "midi": 62,
          "name": "D4",
          "ticks": 125280,
          "time": 237.272751,
          "velocity": 0.4409448818897638
        },
        {
          "duration": 1.7253789604166627,
          "durationTicks": 911,
          "midi": 67,
          "name": "G4",
          "ticks": 125280,
          "time": 237.272751,
          "velocity": 0.4409448818897638
        },
        {
          "duration": 0.4299242854166607,
          "durationTicks": 227,
          "midi": 71,
          "name": "B4",
          "ticks": 126240,
          "time": 239.090933,
          "velocity": 0.6299212598425197
        },
        {
          "duration": 0.8617425104166614,
          "durationTicks": 455,
          "midi": 62,
          "name": "D4",
          "ticks": 126240,
          "time": 239.090933,
          "velocity": 0.4409448818897638
        },
        {
          "duration": 0.8617425104166614,
          "durationTicks": 455,
          "midi": 67,
          "name": "G4",
          "ticks": 126240,
          "time": 239.090933,
          "velocity": 0.4409448818897638
        },
        {
          "duration": 0.2140151729166746,
          "durationTicks": 113,
          "midi": 72,
          "name": "C5",
          "ticks": 126480,
          "time": 239.5454785,
          "velocity": 0.6299212598425197
        },
        {
          "duration": 0.2140151729166746,
          "durationTicks": 113,
          "midi": 74,
          "name": "D5",
          "ticks": 126600,
          "time": 239.77275125,
          "velocity": 0.6299212598425197
        },
        {
          "duration": 2.1571971854166634,
          "durationTicks": 1139,
          "midi": 67,
          "name": "G4",
          "ticks": 126720,
          "time": 240.000024,
          "velocity": 0.6299212598425197
        },
        {
          "duration": 0.8617425104166614,
          "durationTicks": 455,
          "midi": 62,
          "name": "D4",
          "ticks": 126720,
          "time": 240.000024,
          "velocity": 0.4409448818897638
        },
        {
          "duration": 0.861742510416633,
          "durationTicks": 455,
          "midi": 60,
          "name": "C4",
          "ticks": 127200,
          "time": 240.909115,
          "velocity": 0.4409448818897638
        },
        {
          "duration": 1.7253789604166627,
          "durationTicks": 911,
          "midi": 59,
          "name": "B3",
          "ticks": 127680,
          "time": 241.818206,
          "velocity": 0.4409448818897638
        },
        {
          "duration": 1.7253789604166627,
          "durationTicks": 911,
          "midi": 65,
          "name": "F4",
          "ticks": 127680,
          "time": 241.818206,
          "velocity": 0.4409448818897638
        },
        {
          "duration": 0.4299242854166607,
          "durationTicks": 227,
          "midi": 71,
          "name": "B4",
          "ticks": 127920,
          "time": 242.2727515,
          "velocity": 0.6299212598425197
        },
        {
          "duration": 0.4299242854166607,
          "durationTicks": 227,
          "midi": 74,
          "name": "D5",
          "ticks": 128160,
          "time": 242.727297,
          "velocity": 0.6299212598425197
        },
        {
          "duration": 0.42992428541668914,
          "durationTicks": 227,
          "midi": 77,
          "name": "F5",
          "ticks": 128400,
          "time": 243.1818425,
          "velocity": 0.6299212598425197
        },
        {
          "duration": 2.589015410416664,
          "durationTicks": 1367,
          "midi": 76,
          "name": "E5",
          "ticks": 128640,
          "time": 243.636388,
          "velocity": 0.6299212598425197
        },
        {
          "duration": 2.589015410416664,
          "durationTicks": 1367,
          "midi": 64,
          "name": "E4",
          "ticks": 128640,
          "time": 243.636388,
          "velocity": 0.4409448818897638
        },
        {
          "duration": 2.589015410416664,
          "durationTicks": 1367,
          "midi": 67,
          "name": "G4",
          "ticks": 128640,
          "time": 243.636388,
          "velocity": 0.4409448818897638
        },
        {
          "duration": 2.589015410416664,
          "durationTicks": 1367,
          "midi": 72,
          "name": "C5",
          "ticks": 128640,
          "time": 243.636388,
          "velocity": 0.4409448818897638
        },
        {
          "duration": 0.8617425104166614,
          "durationTicks": 455,
          "midi": 67,
          "name": "G4",
          "ticks": 130080,
          "time": 246.363661,
          "velocity": 0.6299212598425197
        },
        {
          "duration": 0.8617425104166614,
          "durationTicks": 455,
          "midi": 62,
          "name": "D4",
          "ticks": 130080,
          "time": 246.363661,
          "velocity": 0.4409448818897638
        },
        {
          "duration": 0.4299242854166607,
          "durationTicks": 227,
          "midi": 66,
          "name": "F#4",
          "ticks": 130560,
          "time": 247.272752,
          "velocity": 0.6299212598425197
        },
        {
          "duration": 0.8617425104166614,
          "durationTicks": 455,
          "midi": 60,
          "name": "C4",
          "ticks": 130560,
          "time": 247.272752,
          "velocity": 0.4409448818897638
        },
        {
          "duration": 0.4299242854166607,
          "durationTicks": 227,
          "midi": 69,
          "name": "A4",
          "ticks": 130800,
          "time": 247.7272975,
          "velocity": 0.6299212598425197
        },
        {
          "duration": 1.7253789604166911,
          "durationTicks": 911,
          "midi": 72,
          "name": "C5",
          "ticks": 131040,
          "time": 248.181843,
          "velocity": 0.6299212598425197
        },
        {
          "duration": 1.7253789604166911,
          "durationTicks": 911,
          "midi": 64,
          "name": "E4",
          "ticks": 131040,
          "time": 248.181843,
          "velocity": 0.4409448818897638
        },
        {
          "duration": 1.7253789604166911,
          "durationTicks": 911,
          "midi": 67,
          "name": "G4",
          "ticks": 131040,
          "time": 248.181843,
          "velocity": 0.4409448818897638
        },
        {
          "duration": 0.8617425104166614,
          "durationTicks": 455,
          "midi": 64,
          "name": "E4",
          "ticks": 132000,
          "time": 250.000025,
          "velocity": 0.6299212598425197
        },
        {
          "duration": 0.8617425104166614,
          "durationTicks": 455,
          "midi": 60,
          "name": "C4",
          "ticks": 132000,
          "time": 250.000025,
          "velocity": 0.4409448818897638
        },
        {
          "duration": 0.861742510416633,
          "durationTicks": 455,
          "midi": 62,
          "name": "D4",
          "ticks": 132480,
          "time": 250.909116,
          "velocity": 0.6299212598425197
        },
        {
          "duration": 0.861742510416633,
          "durationTicks": 455,
          "midi": 57,
          "name": "A3",
          "ticks": 132480,
          "time": 250.909116,
          "velocity": 0.4409448818897638
        },
        {
          "duration": 0.4299242854166607,
          "durationTicks": 227,
          "midi": 69,
          "name": "A4",
          "ticks": 132960,
          "time": 251.818207,
          "velocity": 0.6299212598425197
        },
        {
          "duration": 0.8617425104166614,
          "durationTicks": 455,
          "midi": 62,
          "name": "D4",
          "ticks": 132960,
          "time": 251.818207,
          "velocity": 0.4409448818897638
        },
        {
          "duration": 0.8617425104166614,
          "durationTicks": 455,
          "midi": 66,
          "name": "F#4",
          "ticks": 132960,
          "time": 251.818207,
          "velocity": 0.4409448818897638
        },
        {
          "duration": 0.2140151729166746,
          "durationTicks": 113,
          "midi": 71,
          "name": "B4",
          "ticks": 133200,
          "time": 252.2727525,
          "velocity": 0.6299212598425197
        },
        {
          "duration": 0.2140151729166746,
          "durationTicks": 113,
          "midi": 72,
          "name": "C5",
          "ticks": 133320,
          "time": 252.50002525,
          "velocity": 0.6299212598425197
        },
        {
          "duration": 0.4299242854166607,
          "durationTicks": 227,
          "midi": 72,
          "name": "C5",
          "ticks": 133440,
          "time": 252.727298,
          "velocity": 0.6299212598425197
        },
        {
          "duration": 0.8617425104166614,
          "durationTicks": 455,
          "midi": 62,
          "name": "D4",
          "ticks": 133440,
          "time": 252.727298,
          "velocity": 0.4409448818897638
        },
        {
          "duration": 0.8617425104166614,
          "durationTicks": 455,
          "midi": 67,
          "name": "G4",
          "ticks": 133440,
          "time": 252.727298,
          "velocity": 0.4409448818897638
        },
        {
          "duration": 0.861742510416633,
          "durationTicks": 455,
          "midi": 71,
          "name": "B4",
          "ticks": 133680,
          "time": 253.1818435,
          "velocity": 0.6299212598425197
        },
        {
          "duration": 0.8617425104166614,
          "durationTicks": 455,
          "midi": 60,
          "name": "C4",
          "ticks": 133920,
          "time": 253.636389,
          "velocity": 0.4409448818897638
        },
        {
          "duration": 0.8617425104166614,
          "durationTicks": 455,
          "midi": 64,
          "name": "E4",
          "ticks": 133920,
          "time": 253.636389,
          "velocity": 0.4409448818897638
        },
        {
          "duration": 0.4299242854166607,
          "durationTicks": 227,
          "midi": 69,
          "name": "A4",
          "ticks": 134160,
          "time": 254.0909345,
          "velocity": 0.6299212598425197
        },
        {
          "duration": 0.2140151729166746,
          "durationTicks": 113,
          "midi": 67,
          "name": "G4",
          "ticks": 134400,
          "time": 254.54548,
          "velocity": 0.6299212598425197
        },
        {
          "duration": 0.8617425104166614,
          "durationTicks": 455,
          "midi": 59,
          "name": "B3",
          "ticks": 134400,
          "time": 254.54548,
          "velocity": 0.4409448818897638
        },
        {
          "duration": 0.8617425104166614,
          "durationTicks": 455,
          "midi": 62,
          "name": "D4",
          "ticks": 134400,
          "time": 254.54548,
          "velocity": 0.4409448818897638
        },
        {
          "duration": 0.2140151729166746,
          "durationTicks": 113,
          "midi": 66,
          "name": "F#4",
          "ticks": 134520,
          "time": 254.77275275,
          "velocity": 0.6299212598425197
        },
        {
          "duration": 0.8617425104166614,
          "durationTicks": 455,
          "midi": 64,
          "name": "E4",
          "ticks": 134640,
          "time": 255.0000255,
          "velocity": 0.6299212598425197
        },
        {
          "duration": 0.8617425104166614,
          "durationTicks": 455,
          "midi": 60,
          "name": "C4",
          "ticks": 134880,
          "time": 255.454571,
          "velocity": 0.4409448818897638
        },
        {
          "duration": 0.4299242854166607,
          "durationTicks": 227,
          "midi": 66,
          "name": "F#4",
          "ticks": 135120,
          "time": 255.9091165,
          "velocity": 0.6299212598425197
        },
        {
          "duration": 0.8617425104166614,
          "durationTicks": 455,
          "midi": 67,
          "name": "G4",
          "ticks": 135360,
          "time": 256.363662,
          "velocity": 0.6299212598425197
        },
        {
          "duration": 0.8617425104166614,
          "durationTicks": 455,
          "midi": 57,
          "name": "A3",
          "ticks": 135360,
          "time": 256.363662,
          "velocity": 0.4409448818897638
        },
        {
          "duration": 0.8617425104166614,
          "durationTicks": 455,
          "midi": 62,
          "name": "D4",
          "ticks": 135360,
          "time": 256.363662,
          "velocity": 0.4409448818897638
        },
        {
          "duration": 0.42992428541668914,
          "durationTicks": 227,
          "midi": 66,
          "name": "F#4",
          "ticks": 135840,
          "time": 257.27275299999997,
          "velocity": 0.6299212598425197
        },
        {
          "duration": 0.8617425104166614,
          "durationTicks": 455,
          "midi": 60,
          "name": "C4",
          "ticks": 135840,
          "time": 257.27275299999997,
          "velocity": 0.4409448818897638
        },
        {
          "duration": 0.8617425104166614,
          "durationTicks": 455,
          "midi": 62,
          "name": "D4",
          "ticks": 135840,
          "time": 257.27275299999997,
          "velocity": 0.4409448818897638
        },
        {
          "duration": 0.42992428541668914,
          "durationTicks": 227,
          "midi": 67,
          "name": "G4",
          "ticks": 136080,
          "time": 257.72729849999996,
          "velocity": 0.6299212598425197
        },
        {
          "duration": 3.4526518604166654,
          "durationTicks": 1823,
          "midi": 67,
          "name": "G4",
          "ticks": 136320,
          "time": 258.181844,
          "velocity": 0.6299212598425197
        },
        {
          "duration": 3.4526518604166654,
          "durationTicks": 1823,
          "midi": 59,
          "name": "B3",
          "ticks": 136320,
          "time": 258.181844,
          "velocity": 0.4409448818897638
        },
        {
          "duration": 3.4526518604166654,
          "durationTicks": 1823,
          "midi": 62,
          "name": "D4",
          "ticks": 136320,
          "time": 258.181844,
          "velocity": 0.4409448818897638
        }
      ],
      "endOfTrackTicks": 138144
    },
    {
      "channel": 0,
      "controlChanges": {},
      "pitchBends": [],
      "instrument": {
        "family": "piano",
        "name": "acoustic grand piano",
        "number": 0
      },
      "name": "Piano\u0000",
      "notes": [
        {
          "duration": 0.8617425104166666,
          "durationTicks": 455,
          "midi": 43,
          "name": "G2",
          "ticks": 0,
          "time": 0,
          "velocity": 0.4409448818897638
        },
        {
          "duration": 0.8617425104166666,
          "durationTicks": 455,
          "midi": 55,
          "name": "G3",
          "ticks": 480,
          "time": 0.909091,
          "velocity": 0.4409448818897638
        },
        {
          "duration": 0.8617425104166665,
          "durationTicks": 455,
          "midi": 54,
          "name": "F#3",
          "ticks": 960,
          "time": 1.818182,
          "velocity": 0.4409448818897638
        },
        {
          "duration": 0.8617425104166667,
          "durationTicks": 455,
          "midi": 42,
          "name": "F#2",
          "ticks": 1440,
          "time": 2.727273,
          "velocity": 0.4409448818897638
        },
        {
          "duration": 0.8617425104166672,
          "durationTicks": 455,
          "midi": 40,
          "name": "E2",
          "ticks": 1920,
          "time": 3.636364,
          "velocity": 0.4409448818897638
        },
        {
          "duration": 0.8617425104166676,
          "durationTicks": 455,
          "midi": 52,
          "name": "E3",
          "ticks": 2400,
          "time": 4.545455,
          "velocity": 0.4409448818897638
        },
        {
          "duration": 0.8617425104166667,
          "durationTicks": 455,
          "midi": 50,
          "name": "D3",
          "ticks": 2880,
          "time": 5.454546,
          "velocity": 0.4409448818897638
        },
        {
          "duration": 0.8617425104166667,
          "durationTicks": 455,
          "midi": 38,
          "name": "D2",
          "ticks": 3360,
          "time": 6.363637,
          "velocity": 0.4409448818897638
        },
        {
          "duration": 0.8617425104166658,
          "durationTicks": 455,
          "midi": 36,
          "name": "C2",
          "ticks": 3840,
          "time": 7.272728,
          "velocity": 0.4409448818897638
        },
        {
          "duration": 0.8617425104166667,
          "durationTicks": 455,
          "midi": 48,
          "name": "C3",
          "ticks": 4320,
          "time": 8.181818999999999,
          "velocity": 0.4409448818897638
        },
        {
          "duration": 0.8617425104166667,
          "durationTicks": 455,
          "midi": 49,
          "name": "C#3",
          "ticks": 4800,
          "time": 9.09091,
          "velocity": 0.4409448818897638
        },
        {
          "duration": 0.8617425104166667,
          "durationTicks": 455,
          "midi": 37,
          "name": "C#2",
          "ticks": 5280,
          "time": 10.000001,
          "velocity": 0.4409448818897638
        },
        {
          "duration": 0.8617425104166667,
          "durationTicks": 455,
          "midi": 38,
          "name": "D2",
          "ticks": 5760,
          "time": 10.909092,
          "velocity": 0.4409448818897638
        },
        {
          "duration": 0.8617425104166667,
          "durationTicks": 455,
          "midi": 50,
          "name": "D3",
          "ticks": 6240,
          "time": 11.818183,
          "velocity": 0.4409448818897638
        },
        {
          "duration": 0.8617425104166667,
          "durationTicks": 455,
          "midi": 48,
          "name": "C3",
          "ticks": 6720,
          "time": 12.727274,
          "velocity": 0.4409448818897638
        },
        {
          "duration": 0.8617425104166667,
          "durationTicks": 455,
          "midi": 36,
          "name": "C2",
          "ticks": 7200,
          "time": 13.636365,
          "velocity": 0.4409448818897638
        },
        {
          "duration": 0.8617425104166685,
          "durationTicks": 455,
          "midi": 47,
          "name": "B2",
          "ticks": 7680,
          "time": 14.545456,
          "velocity": 0.4409448818897638
        },
        {
          "duration": 0.8617425104166667,
          "durationTicks": 455,
          "midi": 56,
          "name": "G#3",
          "ticks": 8160,
          "time": 15.454547,
          "velocity": 0.4409448818897638
        },
        {
          "duration": 0.8617425104166667,
          "durationTicks": 455,
          "midi": 62,
          "name": "D4",
          "ticks": 8160,
          "time": 15.454547,
          "velocity": 0.4409448818897638
        },
        {
          "duration": 0.8617425104166685,
          "durationTicks": 455,
          "midi": 57,
          "name": "A3",
          "ticks": 8640,
          "time": 16.363637999999998,
          "velocity": 0.4409448818897638
        },
        {
          "duration": 0.8617425104166685,
          "durationTicks": 455,
          "midi": 62,
          "name": "D4",
          "ticks": 8640,
          "time": 16.363637999999998,
          "velocity": 0.4409448818897638
        },
        {
          "duration": 0.8617425104166685,
          "durationTicks": 455,
          "midi": 45,
          "name": "A2",
          "ticks": 9120,
          "time": 17.272728999999998,
          "velocity": 0.4409448818897638
        },
        {
          "duration": 0.8617425104166685,
          "durationTicks": 455,
          "midi": 44,
          "name": "G#2",
          "ticks": 9600,
          "time": 18.18182,
          "velocity": 0.4409448818897638
        },
        {
          "duration": 0.8617425104166685,
          "durationTicks": 455,
          "midi": 59,
          "name": "B3",
          "ticks": 10080,
          "time": 19.090911,
          "velocity": 0.4409448818897638
        },
        {
          "duration": 0.8617425104166685,
          "durationTicks": 455,
          "midi": 62,
          "name": "D4",
          "ticks": 10080,
          "time": 19.090911,
          "velocity": 0.4409448818897638
        },
        {
          "duration": 0.8617425104166685,
          "durationTicks": 455,
          "midi": 52,
          "name": "E3",
          "ticks": 10560,
          "time": 20.000002,
          "velocity": 0.4409448818897638
        },
        {
          "duration": 0.8617425104166685,
          "durationTicks": 455,
          "midi": 56,
          "name": "G#3",
          "ticks": 11040,
          "time": 20.909093,
          "velocity": 0.4409448818897638
        },
        {
          "duration": 0.8617425104166685,
          "durationTicks": 455,
          "midi": 64,
          "name": "E4",
          "ticks": 11040,
          "time": 20.909093,
          "velocity": 0.4409448818897638
        },
        {
          "duration": 0.8617425104166685,
          "durationTicks": 455,
          "midi": 45,
          "name": "A2",
          "ticks": 11520,
          "time": 21.818184,
          "velocity": 0.4409448818897638
        },
        {
          "duration": 0.8617425104166685,
          "durationTicks": 455,
          "midi": 57,
          "name": "A3",
          "ticks": 12000,
          "time": 22.727275,
          "velocity": 0.4409448818897638
        },
        {
          "duration": 0.8617425104166685,
          "durationTicks": 455,
          "midi": 60,
          "name": "C4",
          "ticks": 12000,
          "time": 22.727275,
          "velocity": 0.4409448818897638
        },
        {
          "duration": 0.8617425104166685,
          "durationTicks": 455,
          "midi": 55,
          "name": "G3",
          "ticks": 12480,
          "time": 23.636366,
          "velocity": 0.4409448818897638
        },
        {
          "duration": 0.8617425104166685,
          "durationTicks": 455,
          "midi": 60,
          "name": "C4",
          "ticks": 12480,
          "time": 23.636366,
          "velocity": 0.4409448818897638
        },
        {
          "duration": 0.8617425104166685,
          "durationTicks": 455,
          "midi": 43,
          "name": "G2",
          "ticks": 12960,
          "time": 24.545457,
          "velocity": 0.4409448818897638
        },
        {
          "duration": 0.8617425104166685,
          "durationTicks": 455,
          "midi": 42,
          "name": "F#2",
          "ticks": 13440,
          "time": 25.454548,
          "velocity": 0.4409448818897638
        },
        {
          "duration": 0.8617425104166685,
          "durationTicks": 455,
          "midi": 57,
          "name": "A3",
          "ticks": 13920,
          "time": 26.363639,
          "velocity": 0.4409448818897638
        },
        {
          "duration": 0.8617425104166685,
          "durationTicks": 455,
          "midi": 60,
          "name": "C4",
          "ticks": 13920,
          "time": 26.363639,
          "velocity": 0.4409448818897638
        },
        {
          "duration": 0.8617425104166685,
          "durationTicks": 455,
          "midi": 50,
          "name": "D3",
          "ticks": 14400,
          "time": 27.27273,
          "velocity": 0.4409448818897638
        },
        {
          "duration": 0.8617425104166685,
          "durationTicks": 455,
          "midi": 54,
          "name": "F#3",
          "ticks": 14880,
          "time": 28.181821,
          "velocity": 0.4409448818897638
        },
        {
          "duration": 0.8617425104166685,
          "durationTicks": 455,
          "midi": 62,
          "name": "D4",
          "ticks": 14880,
          "time": 28.181821,
          "velocity": 0.4409448818897638
        },
        {
          "duration": 0.8617425104166649,
          "durationTicks": 455,
          "midi": 43,
          "name": "G2",
          "ticks": 15360,
          "time": 29.090912,
          "velocity": 0.4409448818897638
        },
        {
          "duration": 0.8617425104166649,
          "durationTicks": 455,
          "midi": 55,
          "name": "G3",
          "ticks": 15840,
          "time": 30.000003,
          "velocity": 0.4409448818897638
        },
        {
          "duration": 0.8617425104166649,
          "durationTicks": 455,
          "midi": 54,
          "name": "F#3",
          "ticks": 16320,
          "time": 30.909094,
          "velocity": 0.4409448818897638
        },
        {
          "duration": 0.8617425104166614,
          "durationTicks": 455,
          "midi": 42,
          "name": "F#2",
          "ticks": 16800,
          "time": 31.818185,
          "velocity": 0.4409448818897638
        },
        {
          "duration": 0.8617425104166685,
          "durationTicks": 455,
          "midi": 40,
          "name": "E2",
          "ticks": 17280,
          "time": 32.727275999999996,
          "velocity": 0.4409448818897638
        },
        {
          "duration": 0.8617425104166614,
          "durationTicks": 455,
          "midi": 52,
          "name": "E3",
          "ticks": 17760,
          "time": 33.636367,
          "velocity": 0.4409448818897638
        },
        {
          "duration": 0.8617425104166685,
          "durationTicks": 455,
          "midi": 49,
          "name": "C#3",
          "ticks": 18240,
          "time": 34.545457999999996,
          "velocity": 0.4409448818897638
        },
        {
          "duration": 0.8617425104166614,
          "durationTicks": 455,
          "midi": 45,
          "name": "A2",
          "ticks": 18720,
          "time": 35.454549,
          "velocity": 0.4409448818897638
        },
        {
          "duration": 0.8617425104166685,
          "durationTicks": 455,
          "midi": 50,
          "name": "D3",
          "ticks": 19200,
          "time": 36.36364,
          "velocity": 0.4409448818897638
        },
        {
          "duration": 0.8617425104166614,
          "durationTicks": 455,
          "midi": 47,
          "name": "B2",
          "ticks": 19680,
          "time": 37.272731,
          "velocity": 0.4409448818897638
        },
        {
          "duration": 0.8617425104166685,
          "durationTicks": 455,
          "midi": 45,
          "name": "A2",
          "ticks": 20160,
          "time": 38.181822,
          "velocity": 0.4409448818897638
        },
        {
          "duration": 0.8617425104166614,
          "durationTicks": 455,
          "midi": 45,
          "name": "A2",
          "ticks": 20640,
          "time": 39.090913,
          "velocity": 0.4409448818897638
        },
        {
          "duration": 0.42992428541667493,
          "durationTicks": 227,
          "midi": 38,
          "name": "D2",
          "ticks": 21120,
          "time": 40.000004,
          "velocity": 0.4409448818897638
        },
        {
          "duration": 0.42992428541666783,
          "durationTicks": 227,
          "midi": 40,
          "name": "E2",
          "ticks": 21360,
          "time": 40.4545495,
          "velocity": 0.4409448818897638
        },
        {
          "duration": 0.42992428541666783,
          "durationTicks": 227,
          "midi": 42,
          "name": "F#2",
          "ticks": 21600,
          "time": 40.909095,
          "velocity": 0.4409448818897638
        },
        {
          "duration": 0.42992428541666783,
          "durationTicks": 227,
          "midi": 43,
          "name": "G2",
          "ticks": 21840,
          "time": 41.3636405,
          "velocity": 0.4409448818897638
        },
        {
          "duration": 0.42992428541667493,
          "durationTicks": 227,
          "midi": 45,
          "name": "A2",
          "ticks": 22080,
          "time": 41.818186,
          "velocity": 0.4409448818897638
        },
        {
          "duration": 0.42992428541666783,
          "durationTicks": 227,
          "midi": 48,
          "name": "C3",
          "ticks": 22320,
          "time": 42.2727315,
          "velocity": 0.4409448818897638
        },
        {
          "duration": 0.42992428541666783,
          "durationTicks": 227,
          "midi": 47,
          "name": "B2",
          "ticks": 22560,
          "time": 42.727277,
          "velocity": 0.4409448818897638
        },
        {
          "duration": 0.42992428541666783,
          "durationTicks": 227,
          "midi": 45,
          "name": "A2",
          "ticks": 22800,
          "time": 43.1818225,
          "velocity": 0.4409448818897638
        },
        {
          "duration": 0.8617425104166685,
          "durationTicks": 455,
          "midi": 43,
          "name": "G2",
          "ticks": 23040,
          "time": 43.636368,
          "velocity": 0.4409448818897638
        },
        {
          "duration": 0.8617425104166685,
          "durationTicks": 455,
          "midi": 55,
          "name": "G3",
          "ticks": 23520,
          "time": 44.545458999999994,
          "velocity": 0.4409448818897638
        },
        {
          "duration": 0.8617425104166685,
          "durationTicks": 455,
          "midi": 54,
          "name": "F#3",
          "ticks": 24000,
          "time": 45.45455,
          "velocity": 0.4409448818897638
        },
        {
          "duration": 0.8617425104166685,
          "durationTicks": 455,
          "midi": 42,
          "name": "F#2",
          "ticks": 24480,
          "time": 46.363640999999994,
          "velocity": 0.4409448818897638
        },
        {
          "duration": 0.8617425104166685,
          "durationTicks": 455,
          "midi": 40,
          "name": "E2",
          "ticks": 24960,
          "time": 47.272732,
          "velocity": 0.4409448818897638
        },
        {
          "duration": 0.8617425104166685,
          "durationTicks": 455,
          "midi": 52,
          "name": "E3",
          "ticks": 25440,
          "time": 48.181822999999994,
          "velocity": 0.4409448818897638
        },
        {
          "duration": 0.8617425104166685,
          "durationTicks": 455,
          "midi": 50,
          "name": "D3",
          "ticks": 25920,
          "time": 49.090914,
          "velocity": 0.4409448818897638
        },
        {
          "duration": 0.8617425104166685,
          "durationTicks": 455,
          "midi": 38,
          "name": "D2",
          "ticks": 26400,
          "time": 50.000004999999994,
          "velocity": 0.4409448818897638
        },
        {
          "duration": 0.8617425104166685,
          "durationTicks": 455,
          "midi": 36,
          "name": "C2",
          "ticks": 26880,
          "time": 50.909096,
          "velocity": 0.4409448818897638
        },
        {
          "duration": 0.8617425104166685,
          "durationTicks": 455,
          "midi": 48,
          "name": "C3",
          "ticks": 27360,
          "time": 51.818186999999995,
          "velocity": 0.4409448818897638
        },
        {
          "duration": 0.8617425104166614,
          "durationTicks": 455,
          "midi": 49,
          "name": "C#3",
          "ticks": 27840,
          "time": 52.727278,
          "velocity": 0.4409448818897638
        },
        {
          "duration": 0.8617425104166685,
          "durationTicks": 455,
          "midi": 37,
          "name": "C#2",
          "ticks": 28320,
          "time": 53.636368999999995,
          "velocity": 0.4409448818897638
        },
        {
          "duration": 0.8617425104166685,
          "durationTicks": 455,
          "midi": 38,
          "name": "D2",
          "ticks": 28800,
          "time": 54.54546,
          "velocity": 0.4409448818897638
        },
        {
          "duration": 0.8617425104166685,
          "durationTicks": 455,
          "midi": 50,
          "name": "D3",
          "ticks": 29280,
          "time": 55.454550999999995,
          "velocity": 0.4409448818897638
        },
        {
          "duration": 0.8617425104166614,
          "durationTicks": 455,
          "midi": 48,
          "name": "C3",
          "ticks": 29760,
          "time": 56.363642,
          "velocity": 0.4409448818897638
        },
        {
          "duration": 0.8617425104166685,
          "durationTicks": 455,
          "midi": 36,
          "name": "C2",
          "ticks": 30240,
          "time": 57.272732999999995,
          "velocity": 0.4409448818897638
        },
        {
          "duration": 0.8617425104166685,
          "durationTicks": 455,
          "midi": 47,
          "name": "B2",
          "ticks": 30720,
          "time": 58.181824,
          "velocity": 0.4409448818897638
        },
        {
          "duration": 0.8617425104166685,
          "durationTicks": 455,
          "midi": 56,
          "name": "G#3",
          "ticks": 31200,
          "time": 59.090914999999995,
          "velocity": 0.4409448818897638
        },
        {
          "duration": 0.8617425104166685,
          "durationTicks": 455,
          "midi": 62,
          "name": "D4",
          "ticks": 31200,
          "time": 59.090914999999995,
          "velocity": 0.4409448818897638
        },
        {
          "duration": 0.8617425104166614,
          "durationTicks": 455,
          "midi": 57,
          "name": "A3",
          "ticks": 31680,
          "time": 60.000006,
          "velocity": 0.4409448818897638
        },
        {
          "duration": 0.8617425104166614,
          "durationTicks": 455,
          "midi": 62,
          "name": "D4",
          "ticks": 31680,
          "time": 60.000006,
          "velocity": 0.4409448818897638
        },
        {
          "duration": 0.8617425104166685,
          "durationTicks": 455,
          "midi": 45,
          "name": "A2",
          "ticks": 32160,
          "time": 60.909096999999996,
          "velocity": 0.4409448818897638
        },
        {
          "duration": 0.8617425104166756,
          "durationTicks": 455,
          "midi": 44,
          "name": "G#2",
          "ticks": 32640,
          "time": 61.81818799999999,
          "velocity": 0.4409448818897638
        },
        {
          "duration": 0.8617425104166685,
          "durationTicks": 455,
          "midi": 59,
          "name": "B3",
          "ticks": 33120,
          "time": 62.727278999999996,
          "velocity": 0.4409448818897638
        },
        {
          "duration": 0.8617425104166685,
          "durationTicks": 455,
          "midi": 62,
          "name": "D4",
          "ticks": 33120,
          "time": 62.727278999999996,
          "velocity": 0.4409448818897638
        },
        {
          "duration": 0.8617425104166614,
          "durationTicks": 455,
          "midi": 52,
          "name": "E3",
          "ticks": 33600,
          "time": 63.63637,
          "velocity": 0.4409448818897638
        },
        {
          "duration": 0.8617425104166756,
          "durationTicks": 455,
          "midi": 56,
          "name": "G#3",
          "ticks": 34080,
          "time": 64.54546099999999,
          "velocity": 0.4409448818897638
        },
        {
          "duration": 0.8617425104166756,
          "durationTicks": 455,
          "midi": 64,
          "name": "E4",
          "ticks": 34080,
          "time": 64.54546099999999,
          "velocity": 0.4409448818897638
        },
        {
          "duration": 0.8617425104166756,
          "durationTicks": 455,
          "midi": 45,
          "name": "A2",
          "ticks": 34560,
          "time": 65.45455199999999,
          "velocity": 0.4409448818897638
        },
        {
          "duration": 0.8617425104166614,
          "durationTicks": 455,
          "midi": 57,
          "name": "A3",
          "ticks": 35040,
          "time": 66.363643,
          "velocity": 0.4409448818897638
        },
        {
          "duration": 0.8617425104166614,
          "durationTicks": 455,
          "midi": 60,
          "name": "C4",
          "ticks": 35040,
          "time": 66.363643,
          "velocity": 0.4409448818897638
        },
        {
          "duration": 0.8617425104166614,
          "durationTicks": 455,
          "midi": 55,
          "name": "G3",
          "ticks": 35520,
          "time": 67.272734,
          "velocity": 0.4409448818897638
        },
        {
          "duration": 0.8617425104166614,
          "durationTicks": 455,
          "midi": 60,
          "name": "C4",
          "ticks": 35520,
          "time": 67.272734,
          "velocity": 0.4409448818897638
        },
        {
          "duration": 0.8617425104166614,
          "durationTicks": 455,
          "midi": 43,
          "name": "G2",
          "ticks": 36000,
          "time": 68.181825,
          "velocity": 0.4409448818897638
        },
        {
          "duration": 0.8617425104166756,
          "durationTicks": 455,
          "midi": 42,
          "name": "F#2",
          "ticks": 36480,
          "time": 69.09091599999999,
          "velocity": 0.4409448818897638
        },
        {
          "duration": 0.8617425104166756,
          "durationTicks": 455,
          "midi": 57,
          "name": "A3",
          "ticks": 36960,
          "time": 70.000007,
          "velocity": 0.4409448818897638
        },
        {
          "duration": 0.8617425104166756,
          "durationTicks": 455,
          "midi": 60,
          "name": "C4",
          "ticks": 36960,
          "time": 70.000007,
          "velocity": 0.4409448818897638
        },
        {
          "duration": 0.8617425104166614,
          "durationTicks": 455,
          "midi": 50,
          "name": "D3",
          "ticks": 37440,
          "time": 70.909098,
          "velocity": 0.4409448818897638
        },
        {
          "duration": 0.8617425104166756,
          "durationTicks": 455,
          "midi": 54,
          "name": "F#3",
          "ticks": 37920,
          "time": 71.81818899999999,
          "velocity": 0.4409448818897638
        },
        {
          "duration": 0.8617425104166756,
          "durationTicks": 455,
          "midi": 62,
          "name": "D4",
          "ticks": 37920,
          "time": 71.81818899999999,
          "velocity": 0.4409448818897638
        },
        {
          "duration": 0.8617425104166756,
          "durationTicks": 455,
          "midi": 43,
          "name": "G2",
          "ticks": 38400,
          "time": 72.72728,
          "velocity": 0.4409448818897638
        },
        {
          "duration": 0.8617425104166614,
          "durationTicks": 455,
          "midi": 55,
          "name": "G3",
          "ticks": 38880,
          "time": 73.636371,
          "velocity": 0.4409448818897638
        },
        {
          "duration": 0.8617425104166614,
          "durationTicks": 455,
          "midi": 54,
          "name": "F#3",
          "ticks": 39360,
          "time": 74.545462,
          "velocity": 0.4409448818897638
        },
        {
          "duration": 0.8617425104166614,
          "durationTicks": 455,
          "midi": 42,
          "name": "F#2",
          "ticks": 39840,
          "time": 75.454553,
          "velocity": 0.4409448818897638
        },
        {
          "duration": 0.8617425104166614,
          "durationTicks": 455,
          "midi": 40,
          "name": "E2",
          "ticks": 40320,
          "time": 76.363644,
          "velocity": 0.4409448818897638
        },
        {
          "duration": 0.8617425104166614,
          "durationTicks": 455,
          "midi": 52,
          "name": "E3",
          "ticks": 40800,
          "time": 77.272735,
          "velocity": 0.4409448818897638
        },
        {
          "duration": 0.8617425104166614,
          "durationTicks": 455,
          "midi": 49,
          "name": "C#3",
          "ticks": 41280,
          "time": 78.181826,
          "velocity": 0.4409448818897638
        },
        {
          "duration": 0.8617425104166614,
          "durationTicks": 455,
          "midi": 45,
          "name": "A2",
          "ticks": 41760,
          "time": 79.09091699999999,
          "velocity": 0.4409448818897638
        },
        {
          "duration": 0.8617425104166756,
          "durationTicks": 455,
          "midi": 50,
          "name": "D3",
          "ticks": 42240,
          "time": 80.000008,
          "velocity": 0.4409448818897638
        },
        {
          "duration": 0.8617425104166614,
          "durationTicks": 455,
          "midi": 47,
          "name": "B2",
          "ticks": 42720,
          "time": 80.909099,
          "velocity": 0.4409448818897638
        },
        {
          "duration": 0.8617425104166756,
          "durationTicks": 455,
          "midi": 45,
          "name": "A2",
          "ticks": 43200,
          "time": 81.81818999999999,
          "velocity": 0.4409448818897638
        },
        {
          "duration": 0.8617425104166614,
          "durationTicks": 455,
          "midi": 45,
          "name": "A2",
          "ticks": 43680,
          "time": 82.727281,
          "velocity": 0.4409448818897638
        },
        {
          "duration": 3.4526518604166654,
          "durationTicks": 1823,
          "midi": 38,
          "name": "D2",
          "ticks": 44160,
          "time": 83.636372,
          "velocity": 0.4409448818897638
        },
        {
          "duration": 0.8617425104166756,
          "durationTicks": 455,
          "midi": 38,
          "name": "D2",
          "ticks": 46080,
          "time": 87.272736,
          "velocity": 0.4409448818897638
        },
        {
          "duration": 0.8617425104166614,
          "durationTicks": 455,
          "midi": 50,
          "name": "D3",
          "ticks": 46560,
          "time": 88.181827,
          "velocity": 0.4409448818897638
        },
        {
          "duration": 0.8617425104166756,
          "durationTicks": 455,
          "midi": 48,
          "name": "C3",
          "ticks": 47040,
          "time": 89.09091799999999,
          "velocity": 0.4409448818897638
        },
        {
          "duration": 0.8617425104166614,
          "durationTicks": 455,
          "midi": 36,
          "name": "C2",
          "ticks": 47520,
          "time": 90.000009,
          "velocity": 0.4409448818897638
        },
        {
          "duration": 0.8617425104166614,
          "durationTicks": 455,
          "midi": 35,
          "name": "B1",
          "ticks": 48000,
          "time": 90.9091,
          "velocity": 0.4409448818897638
        },
        {
          "duration": 0.42992428541667493,
          "durationTicks": 227,
          "midi": 56,
          "name": "G#3",
          "ticks": 48480,
          "time": 91.818191,
          "velocity": 0.4409448818897638
        },
        {
          "duration": 0.42992428541667493,
          "durationTicks": 227,
          "midi": 62,
          "name": "D4",
          "ticks": 48480,
          "time": 91.818191,
          "velocity": 0.4409448818897638
        },
        {
          "duration": 0.42992428541667493,
          "durationTicks": 227,
          "midi": 64,
          "name": "E4",
          "ticks": 48720,
          "time": 92.2727365,
          "velocity": 0.4409448818897638
        },
        {
          "duration": 0.8617425104166614,
          "durationTicks": 455,
          "midi": 57,
          "name": "A3",
          "ticks": 48960,
          "time": 92.727282,
          "velocity": 0.4409448818897638
        },
        {
          "duration": 0.8617425104166614,
          "durationTicks": 455,
          "midi": 62,
          "name": "D4",
          "ticks": 48960,
          "time": 92.727282,
          "velocity": 0.4409448818897638
        },
        {
          "duration": 0.8617425104166614,
          "durationTicks": 455,
          "midi": 65,
          "name": "F4",
          "ticks": 48960,
          "time": 92.727282,
          "velocity": 0.4409448818897638
        },
        {
          "duration": 0.8617425104166614,
          "durationTicks": 455,
          "midi": 45,
          "name": "A2",
          "ticks": 49440,
          "time": 93.63637299999999,
          "velocity": 0.4409448818897638
        },
        {
          "duration": 0.8617425104166756,
          "durationTicks": 455,
          "midi": 44,
          "name": "G#2",
          "ticks": 49920,
          "time": 94.545464,
          "velocity": 0.4409448818897638
        },
        {
          "duration": 0.8617425104166614,
          "durationTicks": 455,
          "midi": 59,
          "name": "B3",
          "ticks": 50400,
          "time": 95.454555,
          "velocity": 0.4409448818897638
        },
        {
          "duration": 0.8617425104166614,
          "durationTicks": 455,
          "midi": 62,
          "name": "D4",
          "ticks": 50400,
          "time": 95.454555,
          "velocity": 0.4409448818897638
        },
        {
          "duration": 0.8617425104166756,
          "durationTicks": 455,
          "midi": 52,
          "name": "E3",
          "ticks": 50880,
          "time": 96.36364599999999,
          "velocity": 0.4409448818897638
        },
        {
          "duration": 0.8617425104166614,
          "durationTicks": 455,
          "midi": 56,
          "name": "G#3",
          "ticks": 51360,
          "time": 97.272737,
          "velocity": 0.4409448818897638
        },
        {
          "duration": 0.8617425104166614,
          "durationTicks": 455,
          "midi": 64,
          "name": "E4",
          "ticks": 51360,
          "time": 97.272737,
          "velocity": 0.4409448818897638
        },
        {
          "duration": 0.8617425104166614,
          "durationTicks": 455,
          "midi": 45,
          "name": "A2",
          "ticks": 51840,
          "time": 98.181828,
          "velocity": 0.4409448818897638
        },
        {
          "duration": 0.8617425104166614,
          "durationTicks": 455,
          "midi": 57,
          "name": "A3",
          "ticks": 52320,
          "time": 99.090919,
          "velocity": 0.4409448818897638
        },
        {
          "duration": 0.8617425104166614,
          "durationTicks": 455,
          "midi": 55,
          "name": "G3",
          "ticks": 52800,
          "time": 100.00001,
          "velocity": 0.4409448818897638
        },
        {
          "duration": 0.8617425104166614,
          "durationTicks": 455,
          "midi": 43,
          "name": "G2",
          "ticks": 53280,
          "time": 100.90910099999999,
          "velocity": 0.4409448818897638
        },
        {
          "duration": 0.8617425104166756,
          "durationTicks": 455,
          "midi": 42,
          "name": "F#2",
          "ticks": 53760,
          "time": 101.818192,
          "velocity": 0.4409448818897638
        },
        {
          "duration": 0.4299242854166607,
          "durationTicks": 227,
          "midi": 54,
          "name": "F#3",
          "ticks": 54240,
          "time": 102.727283,
          "velocity": 0.4409448818897638
        },
        {
          "duration": 0.4299242854166607,
          "durationTicks": 227,
          "midi": 57,
          "name": "A3",
          "ticks": 54240,
          "time": 102.727283,
          "velocity": 0.4409448818897638
        },
        {
          "duration": 0.4299242854166607,
          "durationTicks": 227,
          "midi": 59,
          "name": "B3",
          "ticks": 54480,
          "time": 103.1818285,
          "velocity": 0.4409448818897638
        },
        {
          "duration": 0.8617425104166756,
          "durationTicks": 455,
          "midi": 52,
          "name": "E3",
          "ticks": 54720,
          "time": 103.63637399999999,
          "velocity": 0.4409448818897638
        },
        {
          "duration": 0.8617425104166756,
          "durationTicks": 455,
          "midi": 57,
          "name": "A3",
          "ticks": 54720,
          "time": 103.63637399999999,
          "velocity": 0.4409448818897638
        },
        {
          "duration": 0.8617425104166756,
          "durationTicks": 455,
          "midi": 60,
          "name": "C4",
          "ticks": 54720,
          "time": 103.63637399999999,
          "velocity": 0.4409448818897638
        },
        {
          "duration": 0.8617425104166756,
          "durationTicks": 455,
          "midi": 40,
          "name": "E2",
          "ticks": 55200,
          "time": 104.545465,
          "velocity": 0.4409448818897638
        },
        {
          "duration": 0.8617425104166614,
          "durationTicks": 455,
          "midi": 39,
          "name": "D#2",
          "ticks": 55680,
          "time": 105.454556,
          "velocity": 0.4409448818897638
        },
        {
          "duration": 0.8617425104166898,
          "durationTicks": 455,
          "midi": 40,
          "name": "E2",
          "ticks": 56160,
          "time": 106.36364699999999,
          "velocity": 0.4409448818897638
        },
        {
          "duration": 0.8617425104166614,
          "durationTicks": 455,
          "midi": 42,
          "name": "F#2",
          "ticks": 56640,
          "time": 107.272738,
          "velocity": 0.4409448818897638
        },
        {
          "duration": 0.8617425104166614,
          "durationTicks": 455,
          "midi": 39,
          "name": "D#2",
          "ticks": 57120,
          "time": 108.181829,
          "velocity": 0.4409448818897638
        },
        {
          "duration": 0.8617425104166898,
          "durationTicks": 455,
          "midi": 40,
          "name": "E2",
          "ticks": 57600,
          "time": 109.09091999999998,
          "velocity": 0.4409448818897638
        },
        {
          "duration": 0.8617425104166614,
          "durationTicks": 455,
          "midi": 48,
          "name": "C3",
          "ticks": 58080,
          "time": 110.000011,
          "velocity": 0.4409448818897638
        },
        {
          "duration": 0.8617425104166614,
          "durationTicks": 455,
          "midi": 55,
          "name": "G3",
          "ticks": 58080,
          "time": 110.000011,
          "velocity": 0.4409448818897638
        },
        {
          "duration": 0.8617425104166898,
          "durationTicks": 455,
          "midi": 45,
          "name": "A2",
          "ticks": 58560,
          "time": 110.90910199999999,
          "velocity": 0.4409448818897638
        },
        {
          "duration": 0.8617425104166898,
          "durationTicks": 455,
          "midi": 57,
          "name": "A3",
          "ticks": 58560,
          "time": 110.90910199999999,
          "velocity": 0.4409448818897638
        },
        {
          "duration": 0.8617425104166614,
          "durationTicks": 455,
          "midi": 47,
          "name": "B2",
          "ticks": 59040,
          "time": 111.81819300000001,
          "velocity": 0.4409448818897638
        },
        {
          "duration": 0.8617425104166614,
          "durationTicks": 455,
          "midi": 57,
          "name": "A3",
          "ticks": 59040,
          "time": 111.81819300000001,
          "velocity": 0.4409448818897638
        },
        {
          "duration": 0.8617425104166614,
          "durationTicks": 455,
          "midi": 40,
          "name": "E2",
          "ticks": 59520,
          "time": 112.727284,
          "velocity": 0.4409448818897638
        },
        {
          "duration": 0.8617425104166898,
          "durationTicks": 455,
          "midi": 52,
          "name": "E3",
          "ticks": 60000,
          "time": 113.63637499999999,
          "velocity": 0.4409448818897638
        },
        {
          "duration": 0.8617425104166614,
          "durationTicks": 455,
          "midi": 50,
          "name": "D3",
          "ticks": 60480,
          "time": 114.545466,
          "velocity": 0.4409448818897638
        },
        {
          "duration": 0.8617425104166614,
          "durationTicks": 455,
          "midi": 38,
          "name": "D2",
          "ticks": 60960,
          "time": 115.454557,
          "velocity": 0.4409448818897638
        },
        {
          "duration": 0.8617425104166898,
          "durationTicks": 455,
          "midi": 37,
          "name": "C#2",
          "ticks": 61440,
          "time": 116.36364799999998,
          "velocity": 0.4409448818897638
        },
        {
          "duration": 0.8617425104166614,
          "durationTicks": 455,
          "midi": 49,
          "name": "C#3",
          "ticks": 61920,
          "time": 117.272739,
          "velocity": 0.4409448818897638
        },
        {
          "duration": 0.8617425104166898,
          "durationTicks": 455,
          "midi": 47,
          "name": "B2",
          "ticks": 62400,
          "time": 118.18182999999999,
          "velocity": 0.4409448818897638
        },
        {
          "duration": 0.8617425104166614,
          "durationTicks": 455,
          "midi": 35,
          "name": "B1",
          "ticks": 62880,
          "time": 119.09092100000001,
          "velocity": 0.4409448818897638
        },
        {
          "duration": 0.8617425104166614,
          "durationTicks": 455,
          "midi": 33,
          "name": "A1",
          "ticks": 63360,
          "time": 120.000012,
          "velocity": 0.4409448818897638
        },
        {
          "duration": 0.8617425104166898,
          "durationTicks": 455,
          "midi": 57,
          "name": "A3",
          "ticks": 63840,
          "time": 120.90910299999999,
          "velocity": 0.4409448818897638
        },
        {
          "duration": 0.8617425104166614,
          "durationTicks": 455,
          "midi": 55,
          "name": "G3",
          "ticks": 64320,
          "time": 121.818194,
          "velocity": 0.4409448818897638
        },
        {
          "duration": 0.8617425104166614,
          "durationTicks": 455,
          "midi": 43,
          "name": "G2",
          "ticks": 64800,
          "time": 122.727285,
          "velocity": 0.4409448818897638
        },
        {
          "duration": 0.8617425104166898,
          "durationTicks": 455,
          "midi": 42,
          "name": "F#2",
          "ticks": 65280,
          "time": 123.63637599999998,
          "velocity": 0.4409448818897638
        },
        {
          "duration": 0.8617425104166614,
          "durationTicks": 455,
          "midi": 54,
          "name": "F#3",
          "ticks": 65760,
          "time": 124.545467,
          "velocity": 0.4409448818897638
        },
        {
          "duration": 0.8617425104166614,
          "durationTicks": 455,
          "midi": 43,
          "name": "G2",
          "ticks": 66240,
          "time": 125.45455799999999,
          "velocity": 0.4409448818897638
        },
        {
          "duration": 0.8617425104166614,
          "durationTicks": 455,
          "midi": 45,
          "name": "A2",
          "ticks": 66720,
          "time": 126.36364900000001,
          "velocity": 0.4409448818897638
        },
        {
          "duration": 0.8617425104166614,
          "durationTicks": 455,
          "midi": 38,
          "name": "D2",
          "ticks": 67200,
          "time": 127.27274,
          "velocity": 0.4409448818897638
        },
        {
          "duration": 0.8617425104166898,
          "durationTicks": 455,
          "midi": 50,
          "name": "D3",
          "ticks": 67680,
          "time": 128.181831,
          "velocity": 0.4409448818897638
        },
        {
          "duration": 0.8617425104166614,
          "durationTicks": 455,
          "midi": 48,
          "name": "C3",
          "ticks": 68160,
          "time": 129.090922,
          "velocity": 0.4409448818897638
        },
        {
          "duration": 0.8617425104166614,
          "durationTicks": 455,
          "midi": 36,
          "name": "C2",
          "ticks": 68640,
          "time": 130.000013,
          "velocity": 0.4409448818897638
        },
        {
          "duration": 0.8617425104166898,
          "durationTicks": 455,
          "midi": 35,
          "name": "B1",
          "ticks": 69120,
          "time": 130.90910399999999,
          "velocity": 0.4409448818897638
        },
        {
          "duration": 0.8617425104166614,
          "durationTicks": 455,
          "midi": 47,
          "name": "B2",
          "ticks": 69600,
          "time": 131.818195,
          "velocity": 0.4409448818897638
        },
        {
          "duration": 0.8617425104166614,
          "durationTicks": 455,
          "midi": 55,
          "name": "G3",
          "ticks": 69600,
          "time": 131.818195,
          "velocity": 0.4409448818897638
        },
        {
          "duration": 0.8617425104166614,
          "durationTicks": 455,
          "midi": 48,
          "name": "C3",
          "ticks": 70080,
          "time": 132.727286,
          "velocity": 0.4409448818897638
        },
        {
          "duration": 0.8617425104166614,
          "durationTicks": 455,
          "midi": 55,
          "name": "G3",
          "ticks": 70080,
          "time": 132.727286,
          "velocity": 0.4409448818897638
        },
        {
          "duration": 0.8617425104166898,
          "durationTicks": 455,
          "midi": 36,
          "name": "C2",
          "ticks": 70560,
          "time": 133.63637699999998,
          "velocity": 0.4409448818897638
        },
        {
          "duration": 0.8617425104166614,
          "durationTicks": 455,
          "midi": 37,
          "name": "C#2",
          "ticks": 71040,
          "time": 134.545468,
          "velocity": 0.4409448818897638
        },
        {
          "duration": 0.8617425104166898,
          "durationTicks": 455,
          "midi": 49,
          "name": "C#3",
          "ticks": 71520,
          "time": 135.454559,
          "velocity": 0.4409448818897638
        },
        {
          "duration": 0.8617425104166898,
          "durationTicks": 455,
          "midi": 57,
          "name": "A3",
          "ticks": 71520,
          "time": 135.454559,
          "velocity": 0.4409448818897638
        },
        {
          "duration": 0.8617425104166614,
          "durationTicks": 455,
          "midi": 50,
          "name": "D3",
          "ticks": 72000,
          "time": 136.36365,
          "velocity": 0.4409448818897638
        },
        {
          "duration": 0.8617425104166614,
          "durationTicks": 455,
          "midi": 57,
          "name": "A3",
          "ticks": 72000,
          "time": 136.36365,
          "velocity": 0.4409448818897638
        },
        {
          "duration": 0.8617425104166614,
          "durationTicks": 455,
          "midi": 38,
          "name": "D2",
          "ticks": 72480,
          "time": 137.272741,
          "velocity": 0.4409448818897638
        },
        {
          "duration": 0.8617425104166898,
          "durationTicks": 455,
          "midi": 39,
          "name": "D#2",
          "ticks": 72960,
          "time": 138.18183199999999,
          "velocity": 0.4409448818897638
        },
        {
          "duration": 0.8617425104166614,
          "durationTicks": 455,
          "midi": 51,
          "name": "D#3",
          "ticks": 73440,
          "time": 139.090923,
          "velocity": 0.4409448818897638
        },
        {
          "duration": 0.8617425104166614,
          "durationTicks": 455,
          "midi": 59,
          "name": "B3",
          "ticks": 73440,
          "time": 139.090923,
          "velocity": 0.4409448818897638
        },
        {
          "duration": 0.8617425104166614,
          "durationTicks": 455,
          "midi": 52,
          "name": "E3",
          "ticks": 73920,
          "time": 140.000014,
          "velocity": 0.4409448818897638
        },
        {
          "duration": 0.8617425104166614,
          "durationTicks": 455,
          "midi": 59,
          "name": "B3",
          "ticks": 73920,
          "time": 140.000014,
          "velocity": 0.4409448818897638
        },
        {
          "duration": 0.8617425104166898,
          "durationTicks": 455,
          "midi": 44,
          "name": "G#2",
          "ticks": 74400,
          "time": 140.90910499999998,
          "velocity": 0.4409448818897638
        },
        {
          "duration": 0.8617425104166614,
          "durationTicks": 455,
          "midi": 45,
          "name": "A2",
          "ticks": 74880,
          "time": 141.818196,
          "velocity": 0.4409448818897638
        },
        {
          "duration": 0.8617425104166898,
          "durationTicks": 455,
          "midi": 57,
          "name": "A3",
          "ticks": 75360,
          "time": 142.727287,
          "velocity": 0.4409448818897638
        },
        {
          "duration": 0.8617425104166614,
          "durationTicks": 455,
          "midi": 55,
          "name": "G3",
          "ticks": 75840,
          "time": 143.636378,
          "velocity": 0.4409448818897638
        },
        {
          "duration": 0.8617425104166614,
          "durationTicks": 455,
          "midi": 43,
          "name": "G2",
          "ticks": 76320,
          "time": 144.545469,
          "velocity": 0.4409448818897638
        },
        {
          "duration": 0.8617425104166898,
          "durationTicks": 455,
          "midi": 42,
          "name": "F#2",
          "ticks": 76800,
          "time": 145.45456,
          "velocity": 0.4409448818897638
        },
        {
          "duration": 0.8617425104166614,
          "durationTicks": 455,
          "midi": 54,
          "name": "F#3",
          "ticks": 77280,
          "time": 146.363651,
          "velocity": 0.4409448818897638
        },
        {
          "duration": 0.8617425104166614,
          "durationTicks": 455,
          "midi": 50,
          "name": "D3",
          "ticks": 77760,
          "time": 147.272742,
          "velocity": 0.4409448818897638
        },
        {
          "duration": 0.8617425104166898,
          "durationTicks": 455,
          "midi": 54,
          "name": "F#3",
          "ticks": 78240,
          "time": 148.18183299999998,
          "velocity": 0.4409448818897638
        },
        {
          "duration": 0.8617425104166614,
          "durationTicks": 455,
          "midi": 55,
          "name": "G3",
          "ticks": 78720,
          "time": 149.090924,
          "velocity": 0.4409448818897638
        },
        {
          "duration": 0.8617425104166898,
          "durationTicks": 455,
          "midi": 43,
          "name": "G2",
          "ticks": 79200,
          "time": 150.000015,
          "velocity": 0.4409448818897638
        },
        {
          "duration": 0.8617425104166614,
          "durationTicks": 455,
          "midi": 41,
          "name": "F2",
          "ticks": 79680,
          "time": 150.909106,
          "velocity": 0.4409448818897638
        },
        {
          "duration": 0.8617425104166614,
          "durationTicks": 455,
          "midi": 53,
          "name": "F3",
          "ticks": 80160,
          "time": 151.818197,
          "velocity": 0.4409448818897638
        },
        {
          "duration": 0.8617425104166898,
          "durationTicks": 455,
          "midi": 52,
          "name": "E3",
          "ticks": 80640,
          "time": 152.727288,
          "velocity": 0.4409448818897638
        },
        {
          "duration": 0.8617425104166614,
          "durationTicks": 455,
          "midi": 40,
          "name": "E2",
          "ticks": 81120,
          "time": 153.636379,
          "velocity": 0.4409448818897638
        },
        {
          "duration": 0.8617425104166614,
          "durationTicks": 455,
          "midi": 38,
          "name": "D2",
          "ticks": 81600,
          "time": 154.54547,
          "velocity": 0.4409448818897638
        },
        {
          "duration": 0.8617425104166898,
          "durationTicks": 455,
          "midi": 50,
          "name": "D3",
          "ticks": 82080,
          "time": 155.45456099999998,
          "velocity": 0.4409448818897638
        },
        {
          "duration": 0.8617425104166614,
          "durationTicks": 455,
          "midi": 48,
          "name": "C3",
          "ticks": 82560,
          "time": 156.363652,
          "velocity": 0.4409448818897638
        },
        {
          "duration": 0.8617425104166614,
          "durationTicks": 455,
          "midi": 36,
          "name": "C2",
          "ticks": 83040,
          "time": 157.272743,
          "velocity": 0.4409448818897638
        },
        {
          "duration": 0.8617425104166614,
          "durationTicks": 455,
          "midi": 35,
          "name": "B1",
          "ticks": 83520,
          "time": 158.181834,
          "velocity": 0.4409448818897638
        },
        {
          "duration": 0.8617425104166614,
          "durationTicks": 455,
          "midi": 47,
          "name": "B2",
          "ticks": 84000,
          "time": 159.090925,
          "velocity": 0.4409448818897638
        },
        {
          "duration": 0.8617425104166614,
          "durationTicks": 455,
          "midi": 45,
          "name": "A2",
          "ticks": 84480,
          "time": 160.000016,
          "velocity": 0.4409448818897638
        },
        {
          "duration": 0.8617425104166614,
          "durationTicks": 455,
          "midi": 57,
          "name": "A3",
          "ticks": 84960,
          "time": 160.909107,
          "velocity": 0.4409448818897638
        },
        {
          "duration": 0.8617425104166614,
          "durationTicks": 455,
          "midi": 55,
          "name": "G3",
          "ticks": 85440,
          "time": 161.818198,
          "velocity": 0.4409448818897638
        },
        {
          "duration": 0.8617425104166614,
          "durationTicks": 455,
          "midi": 43,
          "name": "G2",
          "ticks": 85920,
          "time": 162.72728899999998,
          "velocity": 0.4409448818897638
        },
        {
          "duration": 0.8617425104166614,
          "durationTicks": 455,
          "midi": 42,
          "name": "F#2",
          "ticks": 86400,
          "time": 163.63638,
          "velocity": 0.4409448818897638
        },
        {
          "duration": 0.8617425104166614,
          "durationTicks": 455,
          "midi": 38,
          "name": "D2",
          "ticks": 86880,
          "time": 164.545471,
          "velocity": 0.4409448818897638
        },
        {
          "duration": 0.8617425104166614,
          "durationTicks": 455,
          "midi": 43,
          "name": "G2",
          "ticks": 87360,
          "time": 165.45456199999998,
          "velocity": 0.4409448818897638
        },
        {
          "duration": 0.8617425104166614,
          "durationTicks": 455,
          "midi": 48,
          "name": "C3",
          "ticks": 87840,
          "time": 166.363653,
          "velocity": 0.4409448818897638
        },
        {
          "duration": 0.8617425104166614,
          "durationTicks": 455,
          "midi": 50,
          "name": "D3",
          "ticks": 88320,
          "time": 167.272744,
          "velocity": 0.4409448818897638
        },
        {
          "duration": 0.861742510416633,
          "durationTicks": 455,
          "midi": 48,
          "name": "C3",
          "ticks": 88800,
          "time": 168.181835,
          "velocity": 0.4409448818897638
        },
        {
          "duration": 0.8617425104166614,
          "durationTicks": 455,
          "midi": 50,
          "name": "D3",
          "ticks": 89280,
          "time": 169.090926,
          "velocity": 0.4409448818897638
        },
        {
          "duration": 0.8617425104166614,
          "durationTicks": 455,
          "midi": 38,
          "name": "D2",
          "ticks": 89760,
          "time": 170.00001699999999,
          "velocity": 0.4409448818897638
        },
        {
          "duration": 3.4526518604166654,
          "durationTicks": 1823,
          "midi": 43,
          "name": "G2",
          "ticks": 90240,
          "time": 170.909108,
          "velocity": 0.4409448818897638
        },
        {
          "duration": 3.4526518604166654,
          "durationTicks": 1823,
          "midi": 50,
          "name": "D3",
          "ticks": 90240,
          "time": 170.909108,
          "velocity": 0.4409448818897638
        },
        {
          "duration": 0.8617425104166614,
          "durationTicks": 455,
          "midi": 38,
          "name": "D2",
          "ticks": 92160,
          "time": 174.545472,
          "velocity": 0.4409448818897638
        },
        {
          "duration": 0.8617425104166614,
          "durationTicks": 455,
          "midi": 50,
          "name": "D3",
          "ticks": 92640,
          "time": 175.454563,
          "velocity": 0.4409448818897638
        },
        {
          "duration": 0.8617425104166614,
          "durationTicks": 455,
          "midi": 48,
          "name": "C3",
          "ticks": 93120,
          "time": 176.363654,
          "velocity": 0.4409448818897638
        },
        {
          "duration": 0.861742510416633,
          "durationTicks": 455,
          "midi": 36,
          "name": "C2",
          "ticks": 93600,
          "time": 177.27274500000001,
          "velocity": 0.4409448818897638
        },
        {
          "duration": 0.8617425104166614,
          "durationTicks": 455,
          "midi": 35,
          "name": "B1",
          "ticks": 94080,
          "time": 178.181836,
          "velocity": 0.4409448818897638
        },
        {
          "duration": 0.4299242854166607,
          "durationTicks": 227,
          "midi": 56,
          "name": "G#3",
          "ticks": 94560,
          "time": 179.090927,
          "velocity": 0.4409448818897638
        },
        {
          "duration": 0.4299242854166607,
          "durationTicks": 227,
          "midi": 62,
          "name": "D4",
          "ticks": 94560,
          "time": 179.090927,
          "velocity": 0.4409448818897638
        },
        {
          "duration": 0.42992428541668914,
          "durationTicks": 227,
          "midi": 64,
          "name": "E4",
          "ticks": 94800,
          "time": 179.5454725,
          "velocity": 0.4409448818897638
        },
        {
          "duration": 0.8617425104166614,
          "durationTicks": 455,
          "midi": 57,
          "name": "A3",
          "ticks": 95040,
          "time": 180.000018,
          "velocity": 0.4409448818897638
        },
        {
          "duration": 0.8617425104166614,
          "durationTicks": 455,
          "midi": 62,
          "name": "D4",
          "ticks": 95040,
          "time": 180.000018,
          "velocity": 0.4409448818897638
        },
        {
          "duration": 0.8617425104166614,
          "durationTicks": 455,
          "midi": 65,
          "name": "F4",
          "ticks": 95040,
          "time": 180.000018,
          "velocity": 0.4409448818897638
        },
        {
          "duration": 0.8617425104166614,
          "durationTicks": 455,
          "midi": 45,
          "name": "A2",
          "ticks": 95520,
          "time": 180.909109,
          "velocity": 0.4409448818897638
        },
        {
          "duration": 0.8617425104166614,
          "durationTicks": 455,
          "midi": 44,
          "name": "G#2",
          "ticks": 96000,
          "time": 181.8182,
          "velocity": 0.4409448818897638
        },
        {
          "duration": 0.8617425104166614,
          "durationTicks": 455,
          "midi": 59,
          "name": "B3",
          "ticks": 96480,
          "time": 182.727291,
          "velocity": 0.4409448818897638
        },
        {
          "duration": 0.8617425104166614,
          "durationTicks": 455,
          "midi": 62,
          "name": "D4",
          "ticks": 96480,
          "time": 182.727291,
          "velocity": 0.4409448818897638
        },
        {
          "duration": 0.8617425104166614,
          "durationTicks": 455,
          "midi": 52,
          "name": "E3",
          "ticks": 96960,
          "time": 183.636382,
          "velocity": 0.4409448818897638
        },
        {
          "duration": 0.861742510416633,
          "durationTicks": 455,
          "midi": 56,
          "name": "G#3",
          "ticks": 97440,
          "time": 184.54547300000002,
          "velocity": 0.4409448818897638
        },
        {
          "duration": 0.861742510416633,
          "durationTicks": 455,
          "midi": 64,
          "name": "E4",
          "ticks": 97440,
          "time": 184.54547300000002,
          "velocity": 0.4409448818897638
        },
        {
          "duration": 0.8617425104166614,
          "durationTicks": 455,
          "midi": 45,
          "name": "A2",
          "ticks": 97920,
          "time": 185.454564,
          "velocity": 0.4409448818897638
        },
        {
          "duration": 0.8617425104166614,
          "durationTicks": 455,
          "midi": 57,
          "name": "A3",
          "ticks": 98400,
          "time": 186.363655,
          "velocity": 0.4409448818897638
        },
        {
          "duration": 0.8617425104166614,
          "durationTicks": 455,
          "midi": 55,
          "name": "G3",
          "ticks": 98880,
          "time": 187.272746,
          "velocity": 0.4409448818897638
        },
        {
          "duration": 0.8617425104166614,
          "durationTicks": 455,
          "midi": 43,
          "name": "G2",
          "ticks": 99360,
          "time": 188.181837,
          "velocity": 0.4409448818897638
        },
        {
          "duration": 0.8617425104166614,
          "durationTicks": 455,
          "midi": 42,
          "name": "F#2",
          "ticks": 99840,
          "time": 189.090928,
          "velocity": 0.4409448818897638
        },
        {
          "duration": 0.4299242854166607,
          "durationTicks": 227,
          "midi": 54,
          "name": "F#3",
          "ticks": 100320,
          "time": 190.000019,
          "velocity": 0.4409448818897638
        },
        {
          "duration": 0.4299242854166607,
          "durationTicks": 227,
          "midi": 57,
          "name": "A3",
          "ticks": 100320,
          "time": 190.000019,
          "velocity": 0.4409448818897638
        },
        {
          "duration": 0.4299242854166607,
          "durationTicks": 227,
          "midi": 59,
          "name": "B3",
          "ticks": 100560,
          "time": 190.4545645,
          "velocity": 0.4409448818897638
        },
        {
          "duration": 0.8617425104166614,
          "durationTicks": 455,
          "midi": 52,
          "name": "E3",
          "ticks": 100800,
          "time": 190.90911,
          "velocity": 0.4409448818897638
        },
        {
          "duration": 0.8617425104166614,
          "durationTicks": 455,
          "midi": 57,
          "name": "A3",
          "ticks": 100800,
          "time": 190.90911,
          "velocity": 0.4409448818897638
        },
        {
          "duration": 0.8617425104166614,
          "durationTicks": 455,
          "midi": 60,
          "name": "C4",
          "ticks": 100800,
          "time": 190.90911,
          "velocity": 0.4409448818897638
        },
        {
          "duration": 0.8617425104166614,
          "durationTicks": 455,
          "midi": 40,
          "name": "E2",
          "ticks": 101280,
          "time": 191.818201,
          "velocity": 0.4409448818897638
        },
        {
          "duration": 0.8617425104166614,
          "durationTicks": 455,
          "midi": 39,
          "name": "D#2",
          "ticks": 101760,
          "time": 192.727292,
          "velocity": 0.4409448818897638
        },
        {
          "duration": 0.8617425104166614,
          "durationTicks": 455,
          "midi": 40,
          "name": "E2",
          "ticks": 102240,
          "time": 193.636383,
          "velocity": 0.4409448818897638
        },
        {
          "duration": 0.861742510416633,
          "durationTicks": 455,
          "midi": 42,
          "name": "F#2",
          "ticks": 102720,
          "time": 194.545474,
          "velocity": 0.4409448818897638
        },
        {
          "duration": 0.8617425104166614,
          "durationTicks": 455,
          "midi": 39,
          "name": "D#2",
          "ticks": 103200,
          "time": 195.454565,
          "velocity": 0.4409448818897638
        },
        {
          "duration": 0.8617425104166614,
          "durationTicks": 455,
          "midi": 40,
          "name": "E2",
          "ticks": 103680,
          "time": 196.363656,
          "velocity": 0.4409448818897638
        },
        {
          "duration": 0.8617425104166614,
          "durationTicks": 455,
          "midi": 48,
          "name": "C3",
          "ticks": 104160,
          "time": 197.272747,
          "velocity": 0.4409448818897638
        },
        {
          "duration": 0.8617425104166614,
          "durationTicks": 455,
          "midi": 55,
          "name": "G3",
          "ticks": 104160,
          "time": 197.272747,
          "velocity": 0.4409448818897638
        },
        {
          "duration": 0.8617425104166614,
          "durationTicks": 455,
          "midi": 45,
          "name": "A2",
          "ticks": 104640,
          "time": 198.181838,
          "velocity": 0.4409448818897638
        },
        {
          "duration": 0.8617425104166614,
          "durationTicks": 455,
          "midi": 57,
          "name": "A3",
          "ticks": 104640,
          "time": 198.181838,
          "velocity": 0.4409448818897638
        },
        {
          "duration": 0.8617425104166614,
          "durationTicks": 455,
          "midi": 47,
          "name": "B2",
          "ticks": 105120,
          "time": 199.090929,
          "velocity": 0.4409448818897638
        },
        {
          "duration": 0.8617425104166614,
          "durationTicks": 455,
          "midi": 57,
          "name": "A3",
          "ticks": 105120,
          "time": 199.090929,
          "velocity": 0.4409448818897638
        },
        {
          "duration": 0.8617425104166614,
          "durationTicks": 455,
          "midi": 40,
          "name": "E2",
          "ticks": 105600,
          "time": 200.00002,
          "velocity": 0.4409448818897638
        },
        {
          "duration": 0.8617425104166614,
          "durationTicks": 455,
          "midi": 52,
          "name": "E3",
          "ticks": 106080,
          "time": 200.909111,
          "velocity": 0.4409448818897638
        },
        {
          "duration": 0.861742510416633,
          "durationTicks": 455,
          "midi": 50,
          "name": "D3",
          "ticks": 106560,
          "time": 201.818202,
          "velocity": 0.4409448818897638
        },
        {
          "duration": 0.8617425104166614,
          "durationTicks": 455,
          "midi": 38,
          "name": "D2",
          "ticks": 107040,
          "time": 202.727293,
          "velocity": 0.4409448818897638
        },
        {
          "duration": 0.8617425104166614,
          "durationTicks": 455,
          "midi": 37,
          "name": "C#2",
          "ticks": 107520,
          "time": 203.636384,
          "velocity": 0.4409448818897638
        },
        {
          "duration": 0.8617425104166614,
          "durationTicks": 455,
          "midi": 49,
          "name": "C#3",
          "ticks": 108000,
          "time": 204.545475,
          "velocity": 0.4409448818897638
        },
        {
          "duration": 0.8617425104166614,
          "durationTicks": 455,
          "midi": 47,
          "name": "B2",
          "ticks": 108480,
          "time": 205.454566,
          "velocity": 0.4409448818897638
        },
        {
          "duration": 0.8617425104166614,
          "durationTicks": 455,
          "midi": 35,
          "name": "B1",
          "ticks": 108960,
          "time": 206.363657,
          "velocity": 0.4409448818897638
        },
        {
          "duration": 0.8617425104166614,
          "durationTicks": 455,
          "midi": 33,
          "name": "A1",
          "ticks": 109440,
          "time": 207.272748,
          "velocity": 0.4409448818897638
        },
        {
          "duration": 0.8617425104166614,
          "durationTicks": 455,
          "midi": 57,
          "name": "A3",
          "ticks": 109920,
          "time": 208.181839,
          "velocity": 0.4409448818897638
        },
        {
          "duration": 0.861742510416633,
          "durationTicks": 455,
          "midi": 55,
          "name": "G3",
          "ticks": 110400,
          "time": 209.09093000000001,
          "velocity": 0.4409448818897638
        },
        {
          "duration": 0.8617425104166614,
          "durationTicks": 455,
          "midi": 43,
          "name": "G2",
          "ticks": 110880,
          "time": 210.000021,
          "velocity": 0.4409448818897638
        },
        {
          "duration": 0.8617425104166614,
          "durationTicks": 455,
          "midi": 42,
          "name": "F#2",
          "ticks": 111360,
          "time": 210.909112,
          "velocity": 0.4409448818897638
        },
        {
          "duration": 0.8617425104166614,
          "durationTicks": 455,
          "midi": 54,
          "name": "F#3",
          "ticks": 111840,
          "time": 211.818203,
          "velocity": 0.4409448818897638
        },
        {
          "duration": 0.8617425104166614,
          "durationTicks": 455,
          "midi": 43,
          "name": "G2",
          "ticks": 112320,
          "time": 212.727294,
          "velocity": 0.4409448818897638
        },
        {
          "duration": 0.8617425104166614,
          "durationTicks": 455,
          "midi": 45,
          "name": "A2",
          "ticks": 112800,
          "time": 213.636385,
          "velocity": 0.4409448818897638
        },
        {
          "duration": 0.8617425104166614,
          "durationTicks": 455,
          "midi": 38,
          "name": "D2",
          "ticks": 113280,
          "time": 214.545476,
          "velocity": 0.4409448818897638
        },
        {
          "duration": 0.8617425104166614,
          "durationTicks": 455,
          "midi": 50,
          "name": "D3",
          "ticks": 113760,
          "time": 215.454567,
          "velocity": 0.4409448818897638
        },
        {
          "duration": 0.861742510416633,
          "durationTicks": 455,
          "midi": 48,
          "name": "C3",
          "ticks": 114240,
          "time": 216.36365800000002,
          "velocity": 0.4409448818897638
        },
        {
          "duration": 0.8617425104166614,
          "durationTicks": 455,
          "midi": 36,
          "name": "C2",
          "ticks": 114720,
          "time": 217.272749,
          "velocity": 0.4409448818897638
        },
        {
          "duration": 0.8617425104166614,
          "durationTicks": 455,
          "midi": 35,
          "name": "B1",
          "ticks": 115200,
          "time": 218.18184,
          "velocity": 0.4409448818897638
        },
        {
          "duration": 0.8617425104166614,
          "durationTicks": 455,
          "midi": 47,
          "name": "B2",
          "ticks": 115680,
          "time": 219.090931,
          "velocity": 0.4409448818897638
        },
        {
          "duration": 0.8617425104166614,
          "durationTicks": 455,
          "midi": 55,
          "name": "G3",
          "ticks": 115680,
          "time": 219.090931,
          "velocity": 0.4409448818897638
        },
        {
          "duration": 0.8617425104166614,
          "durationTicks": 455,
          "midi": 48,
          "name": "C3",
          "ticks": 116160,
          "time": 220.000022,
          "velocity": 0.4409448818897638
        },
        {
          "duration": 0.8617425104166614,
          "durationTicks": 455,
          "midi": 55,
          "name": "G3",
          "ticks": 116160,
          "time": 220.000022,
          "velocity": 0.4409448818897638
        },
        {
          "duration": 0.8617425104166614,
          "durationTicks": 455,
          "midi": 36,
          "name": "C2",
          "ticks": 116640,
          "time": 220.909113,
          "velocity": 0.4409448818897638
        },
        {
          "duration": 0.8617425104166614,
          "durationTicks": 455,
          "midi": 37,
          "name": "C#2",
          "ticks": 117120,
          "time": 221.818204,
          "velocity": 0.4409448818897638
        },
        {
          "duration": 0.8617425104166614,
          "durationTicks": 455,
          "midi": 49,
          "name": "C#3",
          "ticks": 117600,
          "time": 222.727295,
          "velocity": 0.4409448818897638
        },
        {
          "duration": 0.8617425104166614,
          "durationTicks": 455,
          "midi": 57,
          "name": "A3",
          "ticks": 117600,
          "time": 222.727295,
          "velocity": 0.4409448818897638
        },
        {
          "duration": 0.8617425104166614,
          "durationTicks": 455,
          "midi": 50,
          "name": "D3",
          "ticks": 118080,
          "time": 223.636386,
          "velocity": 0.4409448818897638
        },
        {
          "duration": 0.8617425104166614,
          "durationTicks": 455,
          "midi": 57,
          "name": "A3",
          "ticks": 118080,
          "time": 223.636386,
          "velocity": 0.4409448818897638
        },
        {
          "duration": 0.8617425104166614,
          "durationTicks": 455,
          "midi": 38,
          "name": "D2",
          "ticks": 118560,
          "time": 224.545477,
          "velocity": 0.4409448818897638
        },
        {
          "duration": 0.8617425104166614,
          "durationTicks": 455,
          "midi": 39,
          "name": "D#2",
          "ticks": 119040,
          "time": 225.454568,
          "velocity": 0.4409448818897638
        },
        {
          "duration": 0.861742510416633,
          "durationTicks": 455,
          "midi": 51,
          "name": "D#3",
          "ticks": 119520,
          "time": 226.363659,
          "velocity": 0.4409448818897638
        },
        {
          "duration": 0.861742510416633,
          "durationTicks": 455,
          "midi": 59,
          "name": "B3",
          "ticks": 119520,
          "time": 226.363659,
          "velocity": 0.4409448818897638
        },
        {
          "duration": 0.8617425104166614,
          "durationTicks": 455,
          "midi": 52,
          "name": "E3",
          "ticks": 120000,
          "time": 227.27275,
          "velocity": 0.4409448818897638
        },
        {
          "duration": 0.8617425104166614,
          "durationTicks": 455,
          "midi": 59,
          "name": "B3",
          "ticks": 120000,
          "time": 227.27275,
          "velocity": 0.4409448818897638
        },
        {
          "duration": 0.8617425104166614,
          "durationTicks": 455,
          "midi": 44,
          "name": "G#2",
          "ticks": 120480,
          "time": 228.181841,
          "velocity": 0.4409448818897638
        },
        {
          "duration": 0.8617425104166614,
          "durationTicks": 455,
          "midi": 45,
          "name": "A2",
          "ticks": 120960,
          "time": 229.090932,
          "velocity": 0.4409448818897638
        },
        {
          "duration": 0.8617425104166614,
          "durationTicks": 455,
          "midi": 57,
          "name": "A3",
          "ticks": 121440,
          "time": 230.000023,
          "velocity": 0.4409448818897638
        },
        {
          "duration": 0.8617425104166614,
          "durationTicks": 455,
          "midi": 55,
          "name": "G3",
          "ticks": 121920,
          "time": 230.909114,
          "velocity": 0.4409448818897638
        },
        {
          "duration": 0.8617425104166614,
          "durationTicks": 455,
          "midi": 43,
          "name": "G2",
          "ticks": 122400,
          "time": 231.818205,
          "velocity": 0.4409448818897638
        },
        {
          "duration": 0.8617425104166614,
          "durationTicks": 455,
          "midi": 42,
          "name": "F#2",
          "ticks": 122880,
          "time": 232.727296,
          "velocity": 0.4409448818897638
        },
        {
          "duration": 0.861742510416633,
          "durationTicks": 455,
          "midi": 54,
          "name": "F#3",
          "ticks": 123360,
          "time": 233.636387,
          "velocity": 0.4409448818897638
        },
        {
          "duration": 0.8617425104166614,
          "durationTicks": 455,
          "midi": 50,
          "name": "D3",
          "ticks": 123840,
          "time": 234.545478,
          "velocity": 0.4409448818897638
        },
        {
          "duration": 0.8617425104166614,
          "durationTicks": 455,
          "midi": 54,
          "name": "F#3",
          "ticks": 124320,
          "time": 235.454569,
          "velocity": 0.4409448818897638
        },
        {
          "duration": 0.8617425104166614,
          "durationTicks": 455,
          "midi": 55,
          "name": "G3",
          "ticks": 124800,
          "time": 236.36366,
          "velocity": 0.4409448818897638
        },
        {
          "duration": 0.8617425104166614,
          "durationTicks": 455,
          "midi": 43,
          "name": "G2",
          "ticks": 125280,
          "time": 237.272751,
          "velocity": 0.4409448818897638
        },
        {
          "duration": 0.8617425104166614,
          "durationTicks": 455,
          "midi": 41,
          "name": "F2",
          "ticks": 125760,
          "time": 238.181842,
          "velocity": 0.4409448818897638
        },
        {
          "duration": 0.8617425104166614,
          "durationTicks": 455,
          "midi": 53,
          "name": "F3",
          "ticks": 126240,
          "time": 239.090933,
          "velocity": 0.4409448818897638
        },
        {
          "duration": 0.8617425104166614,
          "durationTicks": 455,
          "midi": 52,
          "name": "E3",
          "ticks": 126720,
          "time": 240.000024,
          "velocity": 0.4409448818897638
        },
        {
          "duration": 0.861742510416633,
          "durationTicks": 455,
          "midi": 40,
          "name": "E2",
          "ticks": 127200,
          "time": 240.909115,
          "velocity": 0.4409448818897638
        },
        {
          "duration": 0.8617425104166614,
          "durationTicks": 455,
          "midi": 38,
          "name": "D2",
          "ticks": 127680,
          "time": 241.818206,
          "velocity": 0.4409448818897638
        },
        {
          "duration": 0.8617425104166614,
          "durationTicks": 455,
          "midi": 50,
          "name": "D3",
          "ticks": 128160,
          "time": 242.727297,
          "velocity": 0.4409448818897638
        },
        {
          "duration": 0.8617425104166614,
          "durationTicks": 455,
          "midi": 48,
          "name": "C3",
          "ticks": 128640,
          "time": 243.636388,
          "velocity": 0.4409448818897638
        },
        {
          "duration": 0.8617425104166614,
          "durationTicks": 455,
          "midi": 36,
          "name": "C2",
          "ticks": 129120,
          "time": 244.545479,
          "velocity": 0.4409448818897638
        },
        {
          "duration": 0.8617425104166614,
          "durationTicks": 455,
          "midi": 35,
          "name": "B1",
          "ticks": 129600,
          "time": 245.45457,
          "velocity": 0.4409448818897638
        },
        {
          "duration": 0.8617425104166614,
          "durationTicks": 455,
          "midi": 47,
          "name": "B2",
          "ticks": 130080,
          "time": 246.363661,
          "velocity": 0.4409448818897638
        },
        {
          "duration": 0.8617425104166614,
          "durationTicks": 455,
          "midi": 45,
          "name": "A2",
          "ticks": 130560,
          "time": 247.272752,
          "velocity": 0.4409448818897638
        },
        {
          "duration": 0.8617425104166614,
          "durationTicks": 455,
          "midi": 57,
          "name": "A3",
          "ticks": 131040,
          "time": 248.181843,
          "velocity": 0.4409448818897638
        },
        {
          "duration": 0.8617425104166614,
          "durationTicks": 455,
          "midi": 55,
          "name": "G3",
          "ticks": 131520,
          "time": 249.090934,
          "velocity": 0.4409448818897638
        },
        {
          "duration": 0.8617425104166614,
          "durationTicks": 455,
          "midi": 43,
          "name": "G2",
          "ticks": 132000,
          "time": 250.000025,
          "velocity": 0.4409448818897638
        },
        {
          "duration": 0.861742510416633,
          "durationTicks": 455,
          "midi": 42,
          "name": "F#2",
          "ticks": 132480,
          "time": 250.909116,
          "velocity": 0.4409448818897638
        },
        {
          "duration": 0.8617425104166614,
          "durationTicks": 455,
          "midi": 38,
          "name": "D2",
          "ticks": 132960,
          "time": 251.818207,
          "velocity": 0.4409448818897638
        },
        {
          "duration": 0.8617425104166614,
          "durationTicks": 455,
          "midi": 43,
          "name": "G2",
          "ticks": 133440,
          "time": 252.727298,
          "velocity": 0.4409448818897638
        },
        {
          "duration": 0.8617425104166614,
          "durationTicks": 455,
          "midi": 48,
          "name": "C3",
          "ticks": 133920,
          "time": 253.636389,
          "velocity": 0.4409448818897638
        },
        {
          "duration": 0.8617425104166614,
          "durationTicks": 455,
          "midi": 50,
          "name": "D3",
          "ticks": 134400,
          "time": 254.54548,
          "velocity": 0.4409448818897638
        },
        {
          "duration": 0.8617425104166614,
          "durationTicks": 455,
          "midi": 48,
          "name": "C3",
          "ticks": 134880,
          "time": 255.454571,
          "velocity": 0.4409448818897638
        },
        {
          "duration": 0.8617425104166614,
          "durationTicks": 455,
          "midi": 50,
          "name": "D3",
          "ticks": 135360,
          "time": 256.363662,
          "velocity": 0.4409448818897638
        },
        {
          "duration": 0.8617425104166614,
          "durationTicks": 455,
          "midi": 38,
          "name": "D2",
          "ticks": 135840,
          "time": 257.27275299999997,
          "velocity": 0.4409448818897638
        },
        {
          "duration": 3.4526518604166654,
          "durationTicks": 1823,
          "midi": 43,
          "name": "G2",
          "ticks": 136320,
          "time": 258.181844,
          "velocity": 0.4409448818897638
        },
        {
          "duration": 3.4526518604166654,
          "durationTicks": 1823,
          "midi": 50,
          "name": "D3",
          "ticks": 136320,
          "time": 258.181844,
          "velocity": 0.4409448818897638
        }
      ],
      "endOfTrackTicks": 138144
    }
  ]
}
